<?xml version="1.0" standalone="no"?>
<!DOCTYPE svg PUBLIC "-//W3C//DTD SVG 1.1//EN" "http://www.w3.org/Graphics/SVG/1.1/DTD/svg11.dtd" >
<svg xmlns="http://www.w3.org/2000/svg">
<metadata>Generated by IcoMoon</metadata>
<defs>
<font id="Zume-Icons-Square" horiz-adv-x="1024">
<font-face units-per-em="1024" ascent="960" descent="-64" />
<missing-glyph horiz-adv-x="1024" />
<glyph unicode="&#x20;" horiz-adv-x="512" d="" />
<glyph unicode="&#xe900;" glyph-name="check-mark" d="M204.433 491.557c35.678-35.678 134.1-136.56 172.238-172.238 12.303-12.303 24.606 0 24.606 0s264.508 264.508 418.292 418.292c18.454 18.454 43.060 18.454 61.513 0 19.685-20.914 45.52-46.749 61.513-61.513 18.454-18.454 18.454-43.060 0-61.513-184.541-184.541-328.481-328.481-522.865-522.865-18.454-18.454-43.060-18.454-61.513 0-102.112 102.112-276.811 276.811-276.811 276.811-18.454 18.454-18.454 43.060 0 61.513 0 0 61.513 61.513 61.513 61.513 18.454 17.224 43.060 18.454 61.513 0 0 0 0 0 0 0z" />
<glyph unicode="&#xe901;" glyph-name="pencil" d="M121.941 34.133c-20.224 0-36.523 16.384-36.608 36.608v203.947c0 9.728 3.925 18.944 10.752 25.856l548.181 548.011c51.797 51.797 135.765 51.883 187.563 0 0 0 0 0 0 0l67.84-67.84c51.797-51.797 51.883-135.765 0-187.563 0 0 0 0 0 0l-548.096-548.181c-6.827-6.912-16.213-10.752-25.856-10.752h-203.776zM158.464 259.499v-152.235h152.149l385.792 385.792-152.149 152.149-385.792-385.707zM748.117 544.768l100.011 100.011c23.211 23.296 23.211 60.928 0 84.224l-67.925 68.011c-23.296 23.211-60.928 23.211-84.224 0l-100.096-100.096 152.235-152.149z" />
<glyph unicode="&#xe902;" glyph-name="progress" d="M788.48 580.608c0 0 0 0 0 0v0c0 9.216 0 18.432 0 18.432v0l-82.944 82.944c-9.216 0-18.432 0-18.432 0l-230.4-230.4c-9.216-9.216-9.216-9.216-18.432 0l-101.376 92.16c0 9.216-9.216 9.216-18.432 0l-82.944-82.944c0 0 0-9.216 0-9.216v0c0 0 0-9.216 0-9.216l202.752-202.752c9.216-9.216 9.216-9.216 18.432 0l92.16 92.16 239.616 248.832zM143.36 331.776c-9.216 27.648-18.432 55.296-18.432 92.16l-73.728-9.216c0-36.864 9.216-73.728 27.648-110.592l64.512 27.648zM124.928 497.664c0 27.648 9.216 64.512 18.432 92.16l-64.512 27.648c-18.432-36.864-18.432-73.728-27.648-110.592l73.728-9.216zM180.224 654.336c9.216 27.648 27.648 55.296 55.296 82.944l-55.296 46.080c-27.648-27.648-46.080-55.296-64.512-92.16l64.512-36.864zM512 921.6c-27.648 0-46.080 0-73.728-9.216l9.216-73.728c18.432 0 36.864 9.216 55.296 9.216 211.968 0 387.072-175.104 387.072-387.072s-165.888-387.072-377.856-387.072c-18.432 0-36.864 0-55.296 9.216l-18.432-73.728c27.648-9.216 46.080-9.216 73.728-9.216 258.048 0 460.8 202.752 460.8 460.8s-211.968 460.8-460.8 460.8zM253.952 838.656l36.864-64.512c27.648 18.432 55.296 27.648 82.944 36.864l-18.432 82.944c-36.864-18.432-73.728-27.648-101.376-55.296zM235.52 184.32c-27.648 27.648-36.864 46.080-55.296 73.728l-64.512-36.864c18.432-27.648 36.864-64.512 64.512-92.16l55.296 55.296zM373.76 101.376c-27.648 9.216-55.296 18.432-82.944 36.864l-36.864-64.512c27.648-18.432 64.512-36.864 101.376-46.080l18.432 73.728z" />
<glyph unicode="&#xe903;" glyph-name="location" d="M850.698 588.136c-1.467-44.942-15.262-86.37-31.727-126.98-31.794-78.424-74.783-150.867-120.503-221.739-49.756-77.059-103.319-151.452-160.009-223.566-16.272-20.727-37.876-21.184-53.761-0.845-82.203 105.374-159.356 214.16-224.995 330.826-27.562 48.978-51.743 99.481-70.323 152.722-24.147 69.316-20.34 138.012 6.281 204.979 45.134 113.607 128.312 185.815 247.94 210.807 184.905 38.596 357.734-80.413 397.113-257.15 5.041-22.616 6.736-45.983 9.958-69.024zM511.222 737.211c-67.85-0.294-123.109-55.905-122.779-123.497 0.324-67.072 55.971-122.161 123.271-122.067 66.875 0.065 122.749 56.299 122.295 123.043-0.455 67.491-55.905 122.844-122.779 122.521z" />
<glyph unicode="&#xe904;" glyph-name="invite" d="M601.331 402.27c64.896 0 123.026-29.032 162.441-74.647 0 19.215 0 38.385 0 57.6 0 10.152-0.866 20.379-2.364 30.401-9.388 62.959-70.749 117.602-134.249 118.493-62.494 0.866-183.053 0.503-245.548 0.401-8.822 0-17.718-0.996-26.473-2.298-64.187-9.585-118.791-70.72-119.295-135.513-0.801-98.721-0.401-197.44-0.464-296.123 0-26.865 9.789-36.523 36.989-36.523 51.105 0 102.181 0 153.285 0-24.603 34.922-39.158 77.41-39.158 123.286 0 118.493 96.422 214.888 214.915 214.888zM499.576 570.705c98.98 0 175.46 78.909 175.6 176.727 0.13 95.956-79.606 174.569-175.992 174.168-96.72-0.401-175.758-79.18-175.097-175.060 0.672-97.389 76.881-175.758 175.526-175.797zM788.712 187.383c0 103.317-84.035 187.353-187.353 187.353s-187.381-84.074-187.381-187.353 84.074-187.381 187.381-187.381 187.353 84.074 187.353 187.381zM442.686 187.383c0 87.46 71.186 158.645 158.645 158.645s158.645-71.147 158.645-158.645-71.186-158.645-158.645-158.645-158.645 71.186-158.645 158.645zM586.982 87.368c0-7.929 6.432-14.349 14.349-14.349s14.349 6.432 14.349 14.349v85.665h85.636c7.929 0 14.349 6.432 14.349 14.349s-6.432 14.349-14.349 14.349h-85.636v85.665c0 7.929-6.432 14.349-14.349 14.349s-14.349-6.432-14.349-14.349v-85.665h-85.665c-7.929 0-14.349-6.432-14.349-14.349s6.432-14.349 14.349-14.349h85.665v-85.665z" />
<glyph unicode="&#xe905;" glyph-name="profile" d="M486.811 921.576c15.583 0 31.204 0 46.797 0 3.807-0.615 7.58-1.592 11.425-1.82 49.202-2.965 96.418-14.58 141.842-33.355 73.806-30.522 135.503-77.444 185.323-139.765 51.639-64.596 83.27-138.007 95.215-219.844 2.082-14.154 3.609-28.411 5.401-42.629v-46.797c-1.82-14.515-3.354-29.092-5.5-43.539-16.332-109.927-68.111-201.040-148.842-275.946-19.846-18.417-42.826-33.742-65.635-48.551-53.533-34.82-112.788-54.831-175.757-64.2-13.243-1.988-26.582-3.419-39.862-5.143h-50.406c-2.861 0.615-5.694 1.629-8.592 1.82-61.141 3.969-119.031 20.404-173.576 47.801-66.417 33.383-121.152 80.995-164.852 141.162-44.612 61.434-72.793 129.573-83.336 204.847-1.857 13.276-3.484 26.62-5.24 39.929 0 16.79 0 33.582 0 50.406 1.203 9.474 2.506 18.909 3.609 28.372 12.136 104.262 55.219 193.879 128.731 268.46 73.411 74.487 161.887 119.846 266.082 133.545 12.4 1.629 24.763 3.448 37.162 5.172zM790.682 187.52c136.831 133.969 163.129 377.8 1.952 545.513-157.045 163.385-417.759 157.691-569.34-7.748-151.249-165.013-124.99-407.64 10.742-538.551 1.071 0.977 2.244 1.857 3.193 2.927 30.912 36.443 70.709 59.875 114.672 76.438 78.976 29.745 160.329 35.761 243.213 21.249 56.168-9.823 108.818-28.96 154.83-63.387 14.515-10.865 27.207-24.213 40.743-36.443zM513.431 349.348c-97.298 0.161-174.156 76.534-174.060 173.019 0.096 93.946 78.192 172.204 171.684 172.043 96.058-0.161 173.767-77.575 173.509-172.887-0.227-94.724-77.349-172.306-171.133-172.139z" />
<glyph unicode="&#xe906;" glyph-name="phone" d="M711.020 921.6h-398.043c-39.313 0-71.19-31.876-71.19-71.19v-779.221c0-39.313 31.876-71.19 71.19-71.19h398.043c39.313 0 71.19 31.876 71.19 71.19v779.221c0 39.313-31.876 71.19-71.19 71.19zM473.113 893.824h77.769c4.923 0 8.928-4.003 8.928-8.928s-4.003-8.928-8.928-8.928h-77.769c-4.923 0-8.928 4.003-8.928 8.928s4.003 8.928 8.928 8.928zM512.531 22.848c-26.417 0-47.815 21.393-47.815 47.815s21.393 47.815 47.815 47.815 47.815-21.393 47.815-47.815-21.393-47.815-47.815-47.815zM714.491 155.507c0-8.862-7.173-16.002-16.002-16.002h-372.051c-8.862 0-16.002 7.173-16.002 16.002v677.409c0 8.862 7.173 16.002 16.002 16.002h372.051c8.862 0 16.002-7.173 16.002-16.002v-677.409z" />
<glyph unicode="&#xe907;" glyph-name="start-group" d="M969.262 369.247c-7.736 44.854-32.131 77.44-72.391 98.327-40.986 21.247-85.115 11.698-128.28 14.264 0-2.449-0.304-3.719 0.061-4.777 5.381-15.356 7.736-31.045 8.917-46.91 23.847-43.286 37.512-92.946 37.512-145.781 0-53.105-13.815-103.008-37.934-146.478-0.27-4.838-0.576-9.611-0.814-14.541-0.814 0.244 0-0.244 0.848-0.244 40.897 0.089 81.822-0.544 122.688 0.693 20.404 0.603 37.329 11 51.172 26.206 10.824 11.883 15.688 26.39 19.916 41.352v173.894c-0.576 1.329-1.452 2.6-1.69 3.99zM208.918 284.37c0 52.773 13.633 102.405 37.418 145.661 1.118 15.627 3.474 31.072 8.768 46.157 0.515 1.452 0.061 3.264 0.061 4.959-26.206 0-51.959 1.541-77.47-0.333-52.597-3.869-90.649-30.65-113.081-78.376-5.471-11.639-7.831-24.754-11.606-37.208v-173.894c0.544-1.358 1.242-2.687 1.573-4.111 8.733-38.299 37.539-63.055 76.686-63.929 37.905-0.874 75.837-0.27 113.743-0.27 1.419 0 2.843 0.394 2.631 0.36-0.244 4.899-0.544 9.669-0.814 14.508-24.088 43.464-37.934 93.367-37.934 146.478zM232.343 514.42c64.988 0.121 118.398 53.683 119.181 119.456 0.753 64.743-53.378 118.907-119.090 119.151-65.444 0.244-119.181-53.045-119.731-118.672-0.544-65.199 54.198-120.060 119.666-119.939zM792.226 514.42c65.409 0.422 119.212 54.436 119.125 119.608-0.089 65.382-53.771 118.882-119.396 119.030-65.503 0.149-119.608-53.65-119.456-118.819 0.183-65.651 54.708-120.238 119.731-119.817zM512 548.637c-145.719 0-264.268-118.548-264.268-264.24s118.548-264.268 264.268-264.268 264.24 118.548 264.24 264.268-118.548 264.24-264.24 264.24zM512 60.634c-123.385 0-223.768 100.383-223.768 223.768s100.383 223.734 223.768 223.734 223.734-100.383 223.734-223.734-100.383-223.768-223.734-223.768zM653.063 304.617h-120.787v120.814c0 11.183-9.066 20.248-20.248 20.248s-20.248-9.066-20.248-20.248v-120.814h-120.814c-11.183 0-20.248-9.066-20.248-20.248s9.066-20.248 20.248-20.248h120.814v-120.814c0-11.183 9.066-20.248 20.248-20.248s20.248 9.066 20.248 20.248v120.814h120.787c11.183 0 20.248 9.066 20.248 20.248s-9.066 20.248-20.248 20.248zM627.067 858.781c63.557-63.557 63.557-166.596 0-230.145s-166.596-63.557-230.145 0c-63.557 63.557-63.557 166.596 0 230.145s166.596 63.557 230.145 0z" />
<glyph unicode="&#xe908;" glyph-name="public-training" d="M697.472 485.376c-19.738 10.24-41.011 5.632-61.798 6.861 0-1.178-0.154-1.792 0-2.304 4.352-12.416 4.864-25.293 4.838-38.272-0.051-36.25 0.051-72.499-0.077-108.774 0-7.706-0.691-15.411-1.075-23.398-0.384 0.128 0-0.102 0.41-0.102 19.712 0.051 39.424-0.256 59.11 0.333 9.83 0.307 17.971 5.299 24.653 12.621 5.222 5.709 7.552 12.723 9.6 19.917v83.789c-0.282 0.64-0.691 1.254-0.819 1.92-3.712 21.606-15.488 37.325-34.893 47.386zM350.925 491.75c-25.344-1.869-43.674-14.771-54.502-37.76-2.637-5.606-3.763-11.93-5.581-17.92v-83.789c0.256-0.666 0.589-1.306 0.742-1.997 4.224-18.458 18.099-30.387 36.941-30.797 18.253-0.41 36.531-0.128 54.81-0.128 0.691 0 1.382 0.179 1.254 0.179-0.384 7.962-1.050 15.667-1.050 23.373-0.102 36.966-0.026 73.958-0.051 110.925 0 12.109 0.64 24.141 4.71 35.712 0.256 0.691 0.026 1.562 0.026 2.406-12.621 0-25.037 0.742-37.325-0.154zM613.837 473.114c-4.122 27.546-30.95 51.456-58.726 51.84-27.341 0.384-54.707 0.205-82.048 0.179-3.866 0-7.757-0.435-11.571-0.998-28.083-4.198-51.968-30.925-52.198-59.29-0.358-43.187-0.179-86.374-0.205-129.562 0-11.75 4.275-15.974 16.179-15.974 28.928 0 57.856 0 86.81 0 29.21 0 58.445 0 87.654-0.026 4.301 0 8.269 0.512 11.494 3.763 3.098 3.123 3.712 6.912 3.712 11.085-0.051 41.882 0 83.789-0.077 125.67 0 4.429-0.384 8.909-1.024 13.312zM511.974 540.979c43.315 0 76.749 34.509 76.826 77.312 0.051 41.984-34.816 76.365-77.005 76.186-42.317-0.179-76.902-34.637-76.595-76.595 0.307-42.598 33.638-76.902 76.8-76.902zM377.242 507.955c31.309 0.051 57.062 25.882 57.421 57.574 0.358 31.206-25.728 57.293-57.395 57.421-31.539 0.128-57.421-25.549-57.702-57.19-0.256-31.411 26.112-57.856 57.677-57.805zM647.040 507.955c31.514 0.205 57.446 26.24 57.395 57.626-0.051 31.514-25.907 57.293-57.523 57.37-31.565 0.077-57.651-25.856-57.549-57.267 0.077-31.642 26.368-57.933 57.702-57.728zM896.333 784.486h-768.666c-43.571 0-78.874-35.302-78.874-78.874v-397.517c0-43.571 35.302-78.874 78.874-78.874h768.666c43.571 0 78.874 35.302 78.874 78.874v397.517c0 43.571-35.302 78.874-78.874 78.874zM921.267 308.096c0-13.747-11.187-24.934-24.934-24.934h-768.666c-13.747 0-24.934 11.187-24.934 24.934v397.517c0 13.747 11.187 24.934 24.934 24.934h768.666c13.747 0 24.934-11.187 24.934-24.934v-397.517zM678.886 191.053h-333.798c-14.899 0-26.982-12.083-26.982-26.982s12.083-26.982 26.982-26.982h333.798c14.899 0 26.982 12.083 26.982 26.982s-12.083 26.982-26.982 26.982z" />
<glyph unicode="&#xe909;" glyph-name="course" d="M896.333 784.486h-768.666c-43.571 0-78.874-35.302-78.874-78.874v-397.517c0-43.571 35.302-78.874 78.874-78.874h768.666c43.571 0 78.874 35.302 78.874 78.874v397.517c0 43.571-35.302 78.874-78.874 78.874zM921.267 308.096c0-13.747-11.187-24.934-24.934-24.934h-768.666c-13.747 0-24.934 11.187-24.934 24.934v397.517c0 13.747 11.187 24.934 24.934 24.934h768.666c13.747 0 24.934-11.187 24.934-24.934v-397.517zM678.886 191.053h-333.798c-14.899 0-26.982-12.083-26.982-26.982s12.083-26.982 26.982-26.982h333.798c14.899 0 26.982 12.083 26.982 26.982s-12.083 26.982-26.982 26.982z" />
<glyph unicode="&#xe90a;" glyph-name="session-choice" d="M899.149 763.904h-124.672v10.138c0 27.187-22.042 49.254-49.254 49.254s-49.254-22.042-49.254-49.254v-10.138h-327.987v10.138c0 27.187-22.042 49.254-49.254 49.254s-49.254-22.042-49.254-49.254v-10.138h-124.672c-42.010 0-76.058-34.048-76.058-76.058v-513.459c0-42.010 34.048-76.058 76.058-76.058h774.298c42.010 0 76.058 34.048 76.058 76.058v513.459c0 42.010-34.048 76.058-76.058 76.058zM921.267 182.246c0-17.971-14.566-32.538-32.538-32.538h-753.434c-17.971 0-32.538 14.566-32.538 32.538v456.038c0 2.304 1.869 4.173 4.173 4.173h810.163c2.304 0 4.173-1.869 4.173-4.173v-456.013zM881.075 557.619l-15.514 15.514c-0.922 0.922-2.406 0.922-3.302 0l-42.522-42.522c-0.922-0.922-2.406-0.922-3.302 0l-17.997 17.997c-0.922 0.922-2.406 0.922-3.302 0l-15.514-15.539c-0.461-0.461-0.691-1.050-0.691-1.638v0c0-0.614 0.23-1.203 0.691-1.664l36.89-36.89c0.922-0.922 2.406-0.922 3.302 0l17.178 17.152 44.109 44.262c0.461 0.461 0.691 1.050 0.691 1.664v0c0 0.589-0.23 1.203-0.691 1.664v0zM881.075 417.869l-15.514 15.514c-0.922 0.922-2.406 0.922-3.302 0l-42.522-42.522c-0.922-0.922-2.406-0.922-3.302 0l-17.997 17.997c-0.922 0.922-2.406 0.922-3.302 0l-15.514-15.539c-0.461-0.461-0.691-1.050-0.691-1.638v0c0-0.614 0.23-1.203 0.691-1.664l36.89-36.89c0.922-0.922 2.406-0.922 3.302 0l17.178 17.152 44.109 44.262c0.461 0.461 0.691 1.050 0.691 1.664v0c0 0.614-0.23 1.203-0.691 1.664v0zM881.075 278.093l-15.514 15.514c-0.922 0.922-2.406 0.922-3.302 0l-42.522-42.522c-0.922-0.922-2.406-0.922-3.302 0l-17.997 17.997c-0.922 0.922-2.406 0.922-3.302 0l-15.514-15.539c-0.461-0.461-0.691-1.050-0.691-1.638v0c0-0.614 0.23-1.203 0.691-1.664l36.89-36.89c0.922-0.922 2.406-0.922 3.302 0l17.178 17.152 44.109 44.262c0.461 0.461 0.691 1.050 0.691 1.664v0c0 0.614-0.23 1.203-0.691 1.664v0zM155.392 591.462h100.070c4.637 0 8.397-3.759 8.397-8.397v-100.070c0-4.637-3.759-8.397-8.397-8.397h-100.070c-4.637 0-8.397 3.759-8.397 8.397v100.070c0 4.637 3.759 8.397 8.397 8.397zM313.933 591.462h100.070c4.637 0 8.397-3.759 8.397-8.397v-100.070c0-4.637-3.759-8.397-8.397-8.397h-100.070c-4.637 0-8.397 3.759-8.397 8.397v100.070c0 4.637 3.759 8.397 8.397 8.397zM472.474 591.462h100.070c4.637 0 8.397-3.759 8.397-8.397v-100.070c0-4.637-3.759-8.397-8.397-8.397h-100.070c-4.637 0-8.397 3.759-8.397 8.397v100.070c0 4.637 3.759 8.397 8.397 8.397zM631.014 591.462h100.070c4.637 0 8.397-3.759 8.397-8.397v-100.070c0-4.637-3.759-8.397-8.397-8.397h-100.070c-4.637 0-8.397 3.759-8.397 8.397v100.070c0 4.637 3.759 8.397 8.397 8.397zM155.392 451.686h100.070c4.637 0 8.397-3.759 8.397-8.397v-100.070c0-4.637-3.759-8.397-8.397-8.397h-100.070c-4.637 0-8.397 3.759-8.397 8.397v100.070c0 4.637 3.759 8.397 8.397 8.397zM313.933 451.686h100.070c4.637 0 8.397-3.759 8.397-8.397v-100.070c0-4.637-3.759-8.397-8.397-8.397h-100.070c-4.637 0-8.397 3.759-8.397 8.397v100.070c0 4.637 3.759 8.397 8.397 8.397zM472.474 451.686h100.070c4.637 0 8.397-3.759 8.397-8.397v-100.070c0-4.637-3.759-8.397-8.397-8.397h-100.070c-4.637 0-8.397 3.759-8.397 8.397v100.070c0 4.637 3.759 8.397 8.397 8.397zM631.014 451.686h100.070c4.637 0 8.397-3.759 8.397-8.397v-100.070c0-4.637-3.759-8.397-8.397-8.397h-100.070c-4.637 0-8.397 3.759-8.397 8.397v100.070c0 4.637 3.759 8.397 8.397 8.397zM155.392 311.91h100.070c4.637 0 8.397-3.759 8.397-8.397v-100.070c0-4.637-3.759-8.397-8.397-8.397h-100.070c-4.637 0-8.397 3.759-8.397 8.397v100.070c0 4.637 3.759 8.397 8.397 8.397zM313.933 311.91h100.070c4.637 0 8.397-3.759 8.397-8.397v-100.070c0-4.637-3.759-8.397-8.397-8.397h-100.070c-4.637 0-8.397 3.759-8.397 8.397v100.070c0 4.637 3.759 8.397 8.397 8.397zM472.474 311.91h100.070c4.637 0 8.397-3.759 8.397-8.397v-100.070c0-4.637-3.759-8.397-8.397-8.397h-100.070c-4.637 0-8.397 3.759-8.397 8.397v100.070c0 4.637 3.759 8.397 8.397 8.397zM631.014 311.91h100.070c4.637 0 8.397-3.759 8.397-8.397v-100.070c0-4.637-3.759-8.397-8.397-8.397h-100.070c-4.637 0-8.397 3.759-8.397 8.397v100.070c0 4.637 3.759 8.397 8.397 8.397z" />
<glyph unicode="&#xe90b;" glyph-name="start-date" d="M903.322 763.904h-128.845v10.138c0 27.187-22.042 49.254-49.254 49.254s-49.254-22.042-49.254-49.254v-10.138h-327.987v10.138c0 27.187-22.042 49.254-49.254 49.254s-49.254-22.042-49.254-49.254v-10.138h-128.845c-39.706 0-71.885-32.179-71.885-71.885v-521.83c0-39.706 32.179-71.885 71.885-71.885h782.669c39.706 0 71.885 32.179 71.885 71.885v521.83c0 39.706-32.179 71.885-71.885 71.885zM921.267 178.074c0-15.667-12.698-28.365-28.365-28.365h-761.805c-15.667 0-28.365 12.698-28.365 28.365v464.384h818.534v-464.384zM493.952 232.448c3.763-3.763 9.856-3.763 13.619 0l70.656 70.605 181.427 182.042c1.869 1.869 2.816 4.326 2.816 6.81v0c0 2.483-0.947 4.941-2.816 6.81v0s-63.821 63.846-63.821 63.846c-3.763 3.763-9.856 3.763-13.619 0l-174.925-174.874c-3.763-3.763-9.856-3.763-13.619 0l-74.035 74.035c-3.763 3.763-9.856 3.763-13.619 0l-63.821-63.872c-1.869-1.869-2.816-4.326-2.816-6.784v-0.077c0-2.458 0.947-4.915 2.816-6.784l151.757-151.757z" />
<glyph unicode="&#xe90c;" glyph-name="time" d="M512 921.6c-254.482 0-460.8-206.318-460.8-460.8s206.318-460.8 460.8-460.8 460.8 206.318 460.8 460.8-206.318 460.8-460.8 460.8zM512 70.911c-215.004 0-389.889 174.912-389.889 389.889s174.912 389.889 389.889 389.889 389.889-174.912 389.889-389.889-174.912-389.889-389.889-389.889zM557.037 456.227v294.641c0 24.849-20.18 45.037-45.037 45.037s-45.037-20.18-45.037-45.037v-299.975c0-2.313 0.977-4.329 1.338-6.543-2.112-13.7 1.304-28.087 11.881-38.627l149.738-149.738c17.575-17.575 46.103-17.575 63.671 0s17.575 46.103 0 63.671l-136.535 136.535z" />
<glyph unicode="&#xe90d;" glyph-name="coach" d="M383.915 365.141c31.061 10.837 44.544 32.939 43.264 64.768 34.901 5.376 55.467 24.405 58.453 61.184 25.515-1.109 45.653 9.131 57.941 31.317 12.459 22.528 7.765 44.373-7.424 65.451 8.875 7.168 17.664 14.421 26.539 21.504 24.405 19.627 48.811 39.253 73.472 58.624 4.352 3.413 9.131 6.229 14.336 8.107 17.835 6.4 31.403 0.683 39.68-16.299 5.035-10.411 6.229-21.419 4.352-32.853-0.512-3.499-1.28-6.912-1.877-10.24 45.653-19.627 57.941-45.483 41.387-88.405 17.579-7.253 31.744-18.688 38.315-37.376 6.571-18.859 3.413-36.608-6.4-52.651 8.277-6.144 16.64-11.435 23.723-18.091 9.387-8.704 9.387-17.749 1.707-29.013-2.475-3.584-5.461-6.827-8.704-9.813-47.701-43.435-95.488-86.869-143.36-130.048-33.963-30.635-73.984-41.131-118.869-34.389-12.203 1.792-24.405 3.584-36.437 6.229-8.363 1.877-14.592 0.085-20.821-5.803-66.645-64.256-133.461-128.256-200.277-192.341 0 0 0 0-0.085-0.085-5.376-5.12-13.995-4.864-19.029 0.683-46.933 51.456-93.44 102.571-140.629 154.368-6.059 6.656-5.461 16.896 1.195 22.869 48.043 42.923 95.829 85.504 143.787 128.341 15.616-13.141 30.549-26.027 45.824-38.4 19.541-15.872 44.373-18.176 65.365-6.656 25.344 13.909 36.693 42.667 27.648 70.315-0.853 2.56-1.707 5.12-2.987 8.704zM773.973 33.195c-60.416 52.821-120.149 105.131-180.309 157.781 1.536 1.109 2.389 2.219 3.413 2.56 28.501 9.301 51.712 26.795 73.472 46.763 31.829 29.269 64 58.197 96.085 87.211 2.645 2.389 5.291 4.608 8.363 7.253 47.019-41.984 93.867-83.712 141.056-125.867 10.667-9.557 12.032-25.771 2.987-36.864-36.523-45.227-72.789-90.283-109.483-135.765-8.875-10.923-25.003-12.373-35.669-3.072zM361.557 634.795c0.341 11.691 5.803 20.48 16.128 25.685 11.008 5.547 22.016 4.779 31.573-3.072 18.688-15.275 36.949-30.891 55.381-46.421 13.995-11.861 27.989-23.723 41.984-35.584 16.128-13.568 19.371-30.464 8.277-43.52-12.544-14.933-31.061-15.531-47.189-1.792-30.635 26.112-61.184 52.224-91.904 78.251-8.277 6.997-14.677 14.848-14.251 26.453zM455.595 486.571c0-9.899-6.4-18.005-16.555-23.125-11.264-5.717-22.528-4.523-32.256 3.584-19.797 16.384-39.339 33.109-59.051 49.664-7.083 5.973-14.251 11.947-21.333 18.005-12.885 11.179-14.933 29.355-4.693 41.813 10.667 13.056 28.843 14.933 42.411 3.669 26.965-22.357 53.589-45.056 80.299-67.755 7.253-6.144 11.179-13.995 11.179-25.771zM399.787 422.741c-1.792-12.373-6.827-20.992-16.811-26.453-10.24-5.547-21.248-6.059-30.293 1.109-21.76 17.408-43.264 35.328-63.915 54.016-11.179 10.069-10.667 27.477-1.024 38.827 9.813 11.605 27.051 14.677 39.253 5.035 21.675-17.152 42.667-35.157 63.147-53.675 4.949-4.437 6.571-12.544 9.728-18.944zM282.197 411.733c6.144-3.072 13.141-5.291 18.432-9.472 16.64-13.312 32.853-27.307 48.981-41.216 12.971-11.179 14.933-29.525 4.864-41.813-10.752-13.056-28.672-14.848-42.411-3.669-17.152 13.995-34.048 28.331-50.859 42.837-9.899 8.619-12.715 22.016-7.851 33.707 4.523 11.008 15.616 18.091 28.843 19.541zM573.952 655.872c-16.128-12.971-31.403-25.344-46.763-37.547q-13.483-10.752-26.795 0.597c-6.485 5.461-12.971 10.923-19.371 16.469-11.861 10.155-14.080 21.333-6.997 34.901 7.168 13.653 20.053 19.968 34.219 15.36 9.813-3.157 19.115-7.936 28.587-12.288 12.117-5.547 24.149-11.264 37.205-17.408zM555.093 823.808c0 11.52-0.085 22.955 0 34.475 0.171 10.069 5.803 16.299 14.421 16.469 8.533 0.085 14.848-6.229 14.933-16.128 0.256-23.552 0.256-47.019 0-70.571-0.085-9.728-6.656-16.299-15.019-16.128-8.448 0.171-14.251 6.656-14.336 16.64-0.171 11.776 0 23.552 0 35.243zM398.165 748.288c0-8.704-3.072-13.653-9.472-15.787-6.571-2.219-12.544-0.512-16.811 5.205-6.571 8.704-12.971 17.579-19.371 26.368-7.595 10.325-15.275 20.651-22.784 31.061-5.888 8.277-5.12 16.725 1.621 21.845 6.912 5.291 15.872 3.584 22.016-4.779 13.824-18.603 27.563-37.376 41.131-56.149 1.963-2.731 2.901-6.315 3.584-7.851zM813.568 803.157c-0.768-1.536-1.877-5.291-4.011-8.192-13.312-18.347-26.709-36.693-40.192-54.869-6.571-8.789-15.445-10.837-22.528-5.461-6.997 5.291-7.595 13.653-1.195 22.528 13.653 18.773 27.477 37.461 41.216 56.149 4.437 6.059 10.411 8.107 17.323 5.803 6.315-2.048 9.643-6.912 9.472-15.957z" />
<glyph unicode="&#xe90e;" glyph-name="start" d="M511.317 21.333c-210.318 2.389-388.665 157.070-415.915 366.364-20.309 155.705 33.621 284.103 153.429 384.74 36.238 30.436 75.719 28.103 100.693-3.186 25.088-31.403 17.863-69.518-18.773-99.214-137.387-111.388-146.83-314.823-17.977-435.143 85.959-80.27 188.473-102.4 298.553-61.781 110.706 40.846 175.332 123.79 188.132 242.119 11.264 104.22-26.283 190.066-107.861 256-22.699 18.318-36.124 40.334-30.151 69.746 5.12 25.202 20.935 42.212 46.137 49.948 20.878 6.372 40.334 2.958 57.060-10.24 125.724-99.385 182.215-228.807 165.092-388.551-18.432-171.918-153.657-326.656-338.773-361.301-26.226-4.892-53.134-6.485-79.701-9.614zM578.446 607.118c0-65.707 0.455-131.413-0.114-197.12-0.455-50.29-42.439-82.546-86.756-67.925-26.396 8.704-45.397 32.825-45.511 62.919-0.569 134.428-0.74 268.8 0 403.228 0.228 39.196 29.696 66.844 66.844 66.503 36.75-0.341 64.853-28.501 65.308-68.153 0.796-66.446 0.228-132.892 0.228-199.339z" />
<glyph unicode="&#xe90f;" glyph-name="locked" d="M821.077 531.627c0 9.984-0.341 20.224-2.645 29.781-12.544 50.688-51.115 80.043-106.667 81.152 0.256 13.397 0.512 26.88-0.256 40.192-3.157 55.211-26.027 100.949-66.389 138.496-29.269 27.221-63.915 46.165-102.571 51.285-19.883 2.645-38.485 3.243-58.112-0.939-2.901-0.597-10.581-1.707-13.483-2.304-82.432-17.408-142.933-80.555-153.856-164.267-2.645-20.565-3.499-41.301-3.755-62.123h-0.085l-0.171 0.853c-69.973-2.475-111.701-54.784-110.251-121.429 2.731-127.915 0.597-255.915 0.853-383.829 0.171-71.851 45.739-117.077 117.675-117.077 127.317-0.085 254.635-0.085 381.952 0 72.021 0 117.675 45.141 117.845 116.992 0.256 131.072 0.171 262.144 0 393.216zM491.349 793.856c63.232 8.021 118.955-23.552 135.936-80.896 6.571-22.187 6.059-46.507 7.68-70.144-73.813 0-147.541 0-221.355 0h-22.357c0 36.181-0.853-30.805-0.597-2.901v0c0.085 14.933 0.427 29.867 1.109 44.8 2.645 55.211 47.872 102.571 99.669 109.056zM745.216 143.445c0-33.963-12.288-45.995-46.763-45.995-124.16-0.085-248.32-0.085-372.48 0-34.304 0-46.507 12.288-46.507 46.336-0.085 127.317-0.085 254.635 0 381.867 0 31.232 10.325 41.216 42.155 41.301 64 0.085 127.915 0 191.915 0 63.317 0 126.635 0 190.037 0 31.573 0 41.728-10.069 41.728-41.557 0.085-127.317 0.085-254.635 0-381.867zM460.885 454.144c-34.304-30.037-38.229-82.347-4.523-112.981 15.872-14.421 19.371-28.416 18.005-46.933-0.512-6.827 0-13.739 0-20.651 0-13.739-0.341-27.563 0.085-41.301 0.768-25.344 16.555-41.899 38.827-41.301 21.504 0.512 36.437 16.811 36.779 41.387 0.427 26.283-0.597 52.651 0.597 78.848 0.341 7.424 4.437 16.811 10.069 21.589 35.499 29.867 40.704 79.189 11.008 113.493-28.672 33.109-78.080 36.693-110.848 7.936z" />
<glyph unicode="&#xe910;" glyph-name="churches" d="M933.803 399.104c-44.885 23.296-93.269 12.8-140.544 15.616 0-2.645-0.341-4.096 0-5.205 9.899-28.245 11.008-57.515 11.008-87.040-0.171-82.432 0.085-164.864-0.171-247.381 0-17.493-1.536-35.072-2.389-53.248-0.853 0.256 0-0.256 0.939-0.256 44.8 0.085 89.685-0.597 134.485 0.768 22.357 0.683 40.875 12.032 56.064 28.757 11.861 12.971 17.237 28.928 21.845 45.312v190.549c-0.597 1.451-1.621 2.816-1.877 4.352-8.448 49.152-35.243 84.907-79.36 107.776zM145.664 413.696c-57.6-4.267-99.328-33.621-123.904-85.845-5.973-12.8-8.533-27.136-12.715-40.789v-190.549c0.597-1.536 1.365-2.987 1.707-4.523 9.557-41.984 41.131-69.12 84.053-70.059 41.557-0.939 83.115-0.256 124.672-0.341 1.536 0 3.157 0.427 2.901 0.427-0.853 18.091-2.389 35.584-2.389 53.163-0.256 84.053 0 168.192-0.171 252.245 0 27.563 1.451 54.869 10.752 81.237 0.597 1.621 0 3.584 0 5.461-28.672 0-56.917 1.707-84.907-0.341zM743.595 371.285c-9.387 62.635-70.4 116.992-133.547 117.931-62.208 0.853-124.416 0.512-186.624 0.427-8.789 0-17.664-0.939-26.368-2.304-63.829-9.557-118.187-70.315-118.699-134.827-0.768-98.219-0.427-196.437-0.512-294.656 0-26.709 9.728-36.352 36.779-36.352 65.792 0 131.584 0 197.376 0 66.475 0 132.949 0 199.339 0 9.813 0 18.859 1.109 26.197 8.533 6.997 7.083 8.448 15.787 8.448 25.259-0.085 95.232 0 190.549-0.171 285.781 0 10.069-0.853 20.309-2.389 30.293zM610.645 264.107c0-4.608-3.669-8.277-8.277-8.277h-56.832v-167.851c0-5.291-4.267-9.557-9.557-9.557h-34.048c-5.291 0-9.557 4.267-9.557 9.557v167.851h-56.917c-4.608 0-8.277 3.669-8.277 8.277v36.523c0 4.608 3.669 8.277 8.277 8.277h56.917v63.829c0 5.291 4.267 9.557 9.557 9.557h34.048c5.291 0 9.557-4.267 9.557-9.557v-63.829h56.832c4.608 0 8.277-3.669 8.277-8.277v-36.523zM512 525.568c98.475 0 174.592 78.507 174.677 175.787 0.171 95.488-79.189 173.653-175.104 173.312-96.256-0.427-174.848-78.763-174.251-174.165 0.683-96.939 76.459-174.848 174.677-174.933zM205.483 450.475c71.168 0.171 129.792 58.88 130.645 130.901 0.853 70.997-58.539 130.304-130.56 130.56-71.68 0.256-130.645-58.112-131.243-130.048-0.597-71.424 59.392-131.584 131.157-131.413zM819.115 450.475c71.68 0.427 130.645 59.648 130.56 131.072-0.085 71.68-58.965 130.304-130.816 130.475-71.765 0.171-131.072-58.795-130.901-130.219 0.171-71.936 59.989-131.755 131.243-131.328z" />
<glyph unicode="&#xe911;" glyph-name="plans" d="M628.821 750.165v124.501s-364.629 0-364.629 0c-29.781 0-53.931-24.149-53.931-53.931v-745.387c0-29.781 24.149-53.931 53.931-53.931h495.787c29.781 0 53.931 24.149 53.931 53.931v614.229h-124.501c-33.365 0-60.501 27.136-60.501 60.587zM687.275 301.995h-350.464c-19.541 0-35.328 15.872-35.328 35.328s15.872 35.328 35.328 35.328h350.464c19.541 0 35.328-15.872 35.328-35.328s-15.872-35.328-35.328-35.328zM722.603 558.677c0-19.541-15.872-35.328-35.328-35.328h-350.464c-19.541 0-35.328 15.872-35.328 35.328s15.872 35.328 35.328 35.328h350.464c19.541 0 35.328-15.872 35.328-35.328zM675.925 874.667v-124.501c0-7.424 5.973-13.397 13.397-13.397h124.501s-137.899 137.899-137.899 137.899z" />
<glyph unicode="&#xe912;" glyph-name="tools" d="M351.573 874.667c0.853 0 1.792 0 2.645 0 42.24-41.131 84.565-82.176 128.597-125.099-30.464-27.477-56.917-52.395-84.736-75.776-9.216-7.68-21.76-11.349-32.853-16.811-3.328-1.621-6.741-3.157-10.069-4.779 1.963-3.584 3.243-7.851 6.059-10.667 27.136-27.477 54.613-54.699 81.92-82.005 15.275-15.36 30.379-30.805 46.592-47.36 26.453 25.344 51.797 49.408 76.629 73.984 1.877 1.877 0.853 7.083 0.512 10.667-2.56 23.211-8.448 46.592-7.339 69.632 4.779 96 90.112 171.861 186.027 166.741 7.424-0.427 17.152-4.096 21.163-9.557 6.229-8.533-1.28-16.213-7.851-22.784-25.259-25.003-50.517-50.005-75.179-75.605-3.413-3.584-5.547-11.093-4.352-15.787 5.888-24.576 12.544-49.067 20.139-73.131 1.536-5.035 7.765-10.581 12.885-12.117 21.675-6.4 43.947-10.837 65.707-17.152 10.069-2.987 16.299-0.341 23.296 6.827 24.747 25.515 49.835 50.688 75.52 75.179 4.352 4.181 13.568 7.339 18.432 5.547 4.864-1.877 10.325-10.752 10.069-16.299-1.024-21.163-1.109-43.179-7.168-63.061-30.379-99.157-127.744-150.187-227.84-121.344-3.755 1.109-9.984 1.877-12.032-0.256-17.749-17.835-34.816-36.352-52.395-54.955 2.304-2.56 3.755-4.267 5.205-5.717 61.013-60.928 121.941-121.771 182.955-182.699 31.147-31.061 62.379-61.952 93.099-93.525 31.317-32.256 33.024-79.787 1.963-109.995-11.861-11.52-29.355-17.152-44.203-25.429h-26.624c-25.173 7.424-43.264 24.661-61.184 42.752-56.149 56.917-112.981 113.152-169.472 169.728-29.781 29.781-59.392 59.733-89.515 89.941-3.328-2.645-5.888-4.352-7.936-6.485-49.835-52.48-99.499-105.131-149.419-157.525-32.768-34.389-65.109-69.291-99.328-102.144-26.539-25.429-63.147-28.928-91.051-12.629-28.928 16.896-43.008 49.323-36.096 84.651 4.267 21.76 17.323 38.485 32.939 53.504 57.344 55.040 114.688 110.080 172.032 165.205 32.939 31.659 65.877 63.317 98.987 95.147-1.621 2.133-2.475 3.755-3.669 4.949-43.093 43.52-86.187 87.125-129.621 130.304-2.389 2.389-9.131 2.645-12.8 1.195-33.365-13.397-60.843-34.304-80.299-65.109-14.080-22.272-20.651-46.763-24.747-72.533-0.939-5.803-7.765-12.971-13.483-15.019-8.192-2.901-13.824 3.669-16.128 11.861-2.475 8.96-5.461 17.835-7.253 26.965-14.165 72.533 6.997 135.936 50.347 193.536 3.755 4.949 9.216 9.643 10.411 15.189 6.144 27.733 25.6 45.824 46.080 61.696 13.909 10.752 26.453 19.968 29.525 38.656 1.024 6.485 6.315 12.8 10.923 18.005 15.787 18.005 32.085 35.584 48.213 53.248 8.533 9.387 17.237 18.688 25.856 28.075zM191.915 85.077c18.176-0.256 33.536 14.421 33.536 32.256 0 17.323-14.592 32-32.085 32.341-18.347 0.341-33.365-14.165-33.451-32.256 0-17.493 14.336-32.085 32-32.341z" />
<glyph unicode="&#xe913;" glyph-name="group" d="M1014.955 96.427c-4.608-16.384-9.984-32.256-21.845-45.312-15.189-16.64-33.707-28.075-56.064-28.757-44.8-1.365-89.6-0.683-134.485-0.768-0.939 0-1.792 0.512-0.939 0.256 0.853 18.176 2.389 35.669 2.389 53.248 0.256 82.432 0 164.949 0.171 247.381 0 29.525-1.109 58.795-11.008 87.040-0.427 1.109 0 2.56 0 5.205 47.275-2.816 95.659 7.68 140.544-15.616 44.117-22.869 70.827-58.624 79.36-107.776 0.256-1.536 1.195-2.901 1.877-4.352v-190.549zM9.045 286.976c4.181 13.653 6.741 27.989 12.715 40.789 24.576 52.309 66.304 81.664 123.904 85.845 27.989 2.048 56.235 0.341 84.907 0.341 0-1.877 0.512-3.84 0-5.461-9.216-26.368-10.752-53.675-10.752-81.237 0-84.053-0.085-168.192 0.171-252.245 0-17.493 1.536-35.072 2.389-53.163 0.256 0-1.28-0.427-2.901-0.427-41.557 0-83.115-0.597-124.672 0.341-42.923 0.939-74.411 28.075-84.053 70.059-0.341 1.536-1.109 2.987-1.707 4.523 0 63.488 0 127.061 0 190.549zM512.171 21.504c-65.792 0-131.584 0-197.376 0-27.051 0-36.864 9.643-36.779 36.352 0 98.219-0.341 196.437 0.512 294.656 0.512 64.512 54.869 125.269 118.699 134.827 8.704 1.28 17.579 2.304 26.368 2.304 62.208 0 124.416 0.427 186.624-0.427 63.232-0.853 124.245-55.296 133.547-117.931 1.451-9.984 2.304-20.139 2.389-30.293 0.171-95.232 0-190.549 0.171-285.781 0-9.472-1.365-18.091-8.448-25.259-7.339-7.424-16.384-8.533-26.197-8.533-66.475 0.085-132.949 0-199.339 0zM511.573 874.667c95.915 0.427 175.275-77.824 175.104-173.312-0.171-97.28-76.203-175.872-174.677-175.787-98.133 0-173.995 77.995-174.677 174.933-0.683 95.403 77.995 173.739 174.251 174.165zM205.568 712.021c72.021-0.256 131.328-59.648 130.56-130.56-0.853-72.107-59.392-130.816-130.645-130.901-71.765-0.171-131.755 59.989-131.157 131.413 0.597 71.936 59.477 130.304 131.243 130.048zM687.872 581.803c-0.171 71.424 59.136 130.389 130.901 130.219 71.936-0.171 130.731-58.795 130.816-130.475 0.085-71.424-58.88-130.645-130.56-131.072-71.253-0.427-130.987 59.307-131.243 131.328z" />
<glyph unicode="&#xe914;" glyph-name="practicing" d="M568.604 559.787c-5.689-27.307-10.809-52.907-15.929-78.507-1.707-7.964-2.844-15.929-4.551-23.893 0-1.707-1.138-2.844-2.276-5.12 2.844-4.551 6.827-9.671 10.809-14.791 10.809-14.222 21.049-28.444 31.858-42.667 19.911-26.169 32.996-55.182 39.253-88.178 6.827-38.116 15.929-75.093 24.462-112.64 5.12-22.187-7.396-42.667-28.444-47.218s-41.529 7.964-46.080 30.151c-7.396 32.427-14.791 64.284-21.618 96.711-5.689 27.307-15.929 52.338-31.289 75.093-21.049 30.72-42.098 60.302-63.147 91.022-6.827 9.671-13.084 19.911-19.911 29.582-13.084 18.773-15.929 39.253-11.378 60.871 6.827 31.858 12.516 64.284 18.773 96.142v1.707s-2.276-1.707-3.413-2.844c-15.929-14.222-31.858-29.013-47.787-43.804-1.707-1.707-2.844-3.982-2.844-6.258-2.276-35.271-4.551-70.542-6.827-105.813-1.138-17.067-14.791-29.013-31.289-27.876-15.929 1.138-27.307 15.36-26.738 31.858 2.276 37.547 4.551 75.093 6.827 112.64 0.569 13.084 5.689 24.462 15.929 33.564 32.427 29.582 64.853 59.164 97.28 88.747 3.413 3.413 6.827 6.827 10.24 9.671 10.24 7.396 21.618 10.24 34.133 7.964 19.342-3.413 38.116-7.396 56.889-11.378 15.929-3.413 27.876-12.516 32.996-27.307 3.982-10.809 6.258-21.618 9.102-32.996 6.258-26.738 17.636-51.2 29.013-75.662 3.982-7.964 10.24-13.084 18.204-16.498 25.6-9.671 50.631-20.48 76.231-30.72 1.707-0.569 3.413-1.707 5.12-2.276 15.36-7.396 22.187-22.756 15.929-37.547-5.689-14.222-22.756-21.049-38.116-15.36-10.24 3.982-20.48 7.964-31.289 12.516-22.187 9.102-43.804 17.636-65.991 26.169-8.533 3.413-14.791 8.533-19.911 15.929-4.551 7.396-8.533 15.36-13.084 23.324-1.138 1.707-1.707 3.413-3.413 6.258h2.276v-0.569zM416.142 451.129c6.827-10.809 13.084-20.48 19.342-30.151 12.516-19.911 25.6-39.822 38.116-59.733 1.138-1.707 1.707-3.982 1.707-6.258-1.138-7.964-2.276-15.929-3.982-23.893-2.844-14.791-7.964-28.444-16.498-40.96-24.462-38.116-48.924-76.231-73.387-114.347-14.791-22.756-47.218-24.462-63.147-2.844-9.671 13.084-10.24 31.289 0 46.080 18.204 29.013 36.409 58.596 55.751 87.040 18.204 26.738 27.876 56.889 32.996 88.178 2.844 17.636 5.12 35.271 7.964 52.907 0 1.138 0 2.276 1.138 4.551v0-0.569zM560.071 734.436c-38.684 0-69.973 31.289-69.973 69.973s31.289 69.973 69.973 69.973 69.973-31.289 69.973-69.973-31.289-69.973-70.542-69.973h0.569zM210.773 358.4c-4.551-22.187-8.533-42.667-12.516-63.716-1.138-6.258-2.276-13.084-3.982-19.342 0-1.138-1.138-2.276-1.707-3.982 2.276-3.413 5.689-7.964 8.533-11.947 8.533-11.378 17.067-23.324 25.6-34.702 15.929-21.618 26.738-44.942 31.858-71.68 5.689-30.72 13.084-60.871 19.911-91.591 3.982-17.636-5.689-34.702-22.756-38.684s-33.564 6.827-37.547 24.462c-6.258 26.169-11.947 52.338-17.636 78.507-4.551 22.187-13.084 42.098-25.6 60.871-17.067 24.462-34.133 48.924-51.2 73.956-5.689 7.964-10.24 16.498-15.929 23.893-10.809 15.36-12.516 31.858-9.102 49.493 5.12 26.169 10.24 51.769 15.36 77.938v1.707s-1.707-1.707-2.844-2.276c-13.084-11.947-25.6-23.324-38.684-35.271-1.138-1.138-2.276-3.413-2.276-5.12-1.707-28.444-3.413-57.458-5.12-85.902-1.138-13.653-11.947-23.324-25.6-22.187-13.084 1.138-22.187 12.516-21.618 25.6 1.707 30.72 3.982 60.871 5.689 91.591 0 10.809 4.551 19.911 12.516 27.307 26.169 23.893 52.907 48.356 79.076 72.249 2.844 2.276 5.12 5.689 8.533 7.964 7.964 6.258 17.636 8.533 27.876 6.258 15.36-2.844 30.72-6.258 46.649-9.102 13.084-2.844 22.187-9.671 26.738-22.187 3.413-8.533 5.12-17.636 7.396-26.738 5.12-21.618 14.222-41.529 23.893-61.44 2.844-6.258 7.964-10.809 14.791-13.084 20.48-7.964 41.529-16.498 62.009-25.031 1.707-0.569 2.844-1.138 4.551-1.707 12.516-6.258 17.636-18.773 12.516-30.72-4.551-11.378-18.773-17.067-31.289-12.516-8.533 3.413-17.067 6.827-25.031 10.24-17.636 7.396-35.84 14.222-54.044 21.618-6.827 2.844-11.947 6.827-15.929 13.084s-6.827 12.516-10.24 18.773c0 1.138-1.707 2.844-2.844 5.12 0 0 0-1.707 0-1.707zM86.756 270.791c5.689-8.533 10.809-16.498 15.929-24.462 10.24-15.929 21.049-32.427 31.289-48.356 1.138-1.138 1.707-3.413 1.138-5.12 0-6.258-1.707-13.084-2.844-19.342-2.276-11.947-6.827-23.324-13.084-33.564-19.911-30.72-39.822-62.009-59.733-92.729-11.947-18.773-38.116-19.911-51.2-2.276-7.964 10.809-7.964 25.031 0 37.547 14.791 23.893 29.582 47.787 44.942 70.542 14.791 22.187 22.756 46.080 26.738 71.68 2.276 14.222 4.551 28.444 6.258 42.667v3.982l0.569-0.569zM203.947 500.622c-31.289 0-56.889 25.6-56.889 56.889s25.6 56.889 56.889 56.889 56.889-25.6 56.889-56.889-25.6-56.889-56.889-56.889zM880.924 358.4c-4.551-22.187-8.533-42.667-12.516-63.716-1.138-6.258-2.276-13.084-3.982-19.342 0-1.138-1.138-2.276-1.707-3.982 2.276-3.413 5.689-7.964 8.533-11.947 8.533-11.378 17.067-23.324 25.6-34.702 15.929-21.618 26.738-44.942 31.858-71.68 5.689-30.72 13.084-60.871 19.911-91.591 3.982-17.636-5.689-34.702-22.756-38.684s-33.564 6.827-37.547 24.462c-6.258 26.169-11.947 52.338-17.636 78.507-4.551 22.187-13.084 42.098-25.6 60.871-17.067 24.462-34.133 48.924-51.2 73.956-5.689 7.964-10.24 16.498-15.929 23.893-10.809 15.36-12.516 31.858-9.102 49.493 5.12 26.169 10.24 51.769 15.36 77.938v1.707s-1.707-1.707-2.844-2.276c-13.084-11.947-25.6-23.324-38.684-35.271-1.138-1.138-2.276-3.413-2.276-5.12-1.707-28.444-3.413-57.458-5.12-85.902-1.138-13.653-11.947-23.324-25.6-22.187-13.084 1.138-22.187 12.516-21.618 25.6 1.707 30.72 3.982 60.871 5.689 91.591 0.569 10.809 4.551 19.911 12.516 27.307 26.169 23.893 52.907 48.356 79.076 72.249 2.844 2.276 5.12 5.689 8.533 7.964 7.964 6.258 17.636 8.533 27.876 6.258 15.36-2.844 30.72-6.258 46.649-9.102 13.084-2.844 22.187-9.671 26.738-22.187 3.413-8.533 5.12-17.636 7.396-26.738 5.12-21.618 14.222-41.529 23.893-61.44 2.844-6.258 7.964-10.809 14.791-13.084 20.48-7.964 41.529-16.498 62.009-25.031 1.707-0.569 2.844-1.138 4.551-1.707 12.516-6.258 17.636-18.773 12.516-30.72-4.551-11.378-18.773-17.067-31.289-12.516-8.533 3.413-17.067 6.827-25.031 10.24-17.636 7.396-35.84 14.222-54.044 21.618-6.827 2.844-11.947 6.827-15.929 13.084s-6.827 12.516-10.24 18.773c-0.569 1.138-1.707 2.844-2.844 5.12v-1.707zM756.907 270.791c5.689-8.533 10.809-16.498 15.929-24.462 10.24-15.929 21.049-32.427 31.289-48.356 1.138-1.138 1.707-3.413 1.138-5.12-0.569-6.258-1.707-13.084-2.844-19.342-2.276-11.947-6.827-23.324-13.084-33.564-19.911-30.72-39.822-62.009-59.733-92.729-11.947-18.773-38.116-19.911-51.2-2.276-7.964 10.809-7.964 25.031 0 37.547 14.791 23.893 29.582 47.787 44.942 70.542 14.791 22.187 22.756 46.080 26.738 71.68 2.276 14.222 4.551 28.444 6.258 42.667 0 1.138 0 1.707 0.569 3.982v0-0.569zM873.529 500.622c-31.289 0-56.889 25.6-56.889 56.889s25.6 56.889 56.889 56.889 56.889-25.6 56.889-56.889-25.6-56.889-56.889-56.889z" />
<glyph unicode="&#xe915;" glyph-name="training" d="M560.868 505.913c-6.315-31.744-12.345-61.724-18.318-91.705-1.877-9.33-3.584-18.66-5.575-27.932-0.398-1.764-1.479-3.356-2.674-6.087 3.641-5.063 7.964-11.264 12.459-17.294 12.345-16.668 24.747-33.337 37.148-50.005 23.097-30.891 38.571-64.796 45.568-103.196 8.135-44.26 18.944-88.007 28.672-131.982 5.689-25.657-8.533-49.721-32.939-55.296-24.348-5.575-48.356 9.557-54.215 34.987-8.647 37.717-17.408 75.378-25.031 113.323-6.372 31.801-18.489 60.928-36.58 87.495-24.292 35.612-49.323 70.713-73.842 106.155-7.908 11.435-14.962 23.438-23.040 34.759-15.588 21.845-18.375 45.739-13.084 71.396 7.68 37.376 14.905 74.866 22.3 112.299 0.114 0.512 0.114 1.024 0.228 2.332-1.593-1.252-2.788-2.048-3.812-3.015-18.603-16.953-37.262-33.849-55.694-50.972-1.934-1.764-3.413-4.892-3.584-7.509-2.731-41.244-5.12-82.546-7.737-123.79-1.252-19.968-17.237-33.792-36.921-32.37-18.66 1.422-32.199 17.863-30.948 37.205 2.788 43.918 5.461 87.78 8.135 131.698 0.91 15.531 6.884 28.501 18.432 38.969 38.002 34.588 75.947 69.234 113.892 103.879 4.039 3.698 7.68 7.851 12.004 11.093 11.89 8.932 25.429 11.947 39.936 9.216 22.3-4.153 44.544-8.647 66.731-13.255 18.546-3.868 32.256-14.336 38.912-32.142 4.608-12.459 7.566-25.6 10.752-38.514 7.566-30.948 20.309-59.904 34.020-88.462 4.437-9.273 11.719-15.303 21.504-19.058 29.81-11.605 59.392-23.78 89.088-35.726 2.105-0.853 4.21-1.707 6.315-2.674 18.148-8.59 25.657-26.738 18.375-44.146-6.94-16.668-26.624-24.747-44.772-17.92-12.174 4.551-24.178 9.614-36.238 14.507-25.771 10.354-51.484 20.878-77.369 30.948-9.785 3.812-17.636 9.728-22.983 18.489-5.404 8.818-10.126 18.091-15.132 27.193-1.081 1.934-2.105 3.925-3.925 7.225zM382.18 379.847c8.078-12.516 15.474-24.007 22.869-35.556 14.962-23.211 29.924-46.421 44.715-69.746 1.252-1.991 2.048-4.949 1.764-7.225-1.195-9.444-2.788-18.773-4.437-28.16-3.072-17.351-9.614-33.28-19.228-48.128-28.729-44.487-56.946-89.259-85.618-133.803-17.18-26.681-55.012-28.388-73.557-3.527-11.435 15.303-11.662 36.409-0.455 53.988 21.618 34.020 42.496 68.494 65.081 101.831 21.39 31.516 32.825 66.219 38.286 103.424 3.072 20.537 6.258 41.017 9.387 61.554 0.228 1.365 0.569 2.731 1.138 5.404zM550.798 710.827c-45.284 0-81.806 36.58-81.806 81.977 0 45.284 36.636 81.863 81.977 81.863 45.284 0 82.034-36.523 82.148-81.806 0.114-45.397-36.58-82.034-82.318-82.091z" />
<glyph unicode="&#xe916;" glyph-name="community" d="M512 0c-258.048 0-460.8 202.752-460.8 460.8 0 248.832 211.968 460.8 460.8 460.8s460.8-202.752 460.8-460.8c0-258.048-202.752-460.8-460.8-460.8zM410.624 552.96c0-64.512 0-119.808 0-175.104 64.512 0 129.024 0 193.536 0 0 55.296 0 119.808 0 175.104-64.512 0-119.808 0-193.536 0zM318.464 543.744c-55.296 0-110.592 0-175.104 0 0-64.512 0-119.808 0-175.104 64.512 0 119.808 0 175.104 0 0 64.512 0 119.808 0 175.104zM705.536 377.856c55.296 0 110.592 0 175.104 0 0 55.296 0 101.376 0 147.456 0 9.216-18.432 27.648-18.432 27.648-55.296 0-110.592 0-156.672 0 0-64.512 0-119.808 0-175.104zM410.624 820.224c-101.376-36.864-175.104-92.16-221.184-184.32 55.296 0 110.592 0 156.672 0 18.432 64.512 46.080 119.808 64.512 184.32zM613.376 820.224c18.432-55.296 46.080-110.592 64.512-165.888 0-9.216 9.216-18.432 18.432-18.432 46.080 0 92.16 0 147.456 0-64.512 92.16-138.24 156.672-230.4 184.32zM189.44 276.48c55.296-92.16 129.024-147.456 230.4-175.104-18.432 27.648-27.648 46.080-36.864 64.512-18.432 36.864-27.648 92.16-55.296 110.592-36.864 18.432-82.944 0-129.024 0 0 0 0 0-9.216 0zM613.376 101.376c101.376 27.648 165.888 92.16 221.184 175.104-55.296 0-101.376 0-156.672 0-18.432-55.296-46.080-110.592-64.512-175.104zM521.216 792.576c-9.216 0-9.216 0-18.432 0-18.432-46.080-46.080-101.376-64.512-147.456 55.296 0 101.376 0 156.672 0-27.648 55.296-55.296 101.376-73.728 147.456zM502.784 129.024c9.216 0 9.216 0 18.432 0 18.432 46.080 46.080 92.16 64.512 147.456-55.296 0-101.376 0-147.456 0 18.432-55.296 46.080-101.376 64.512-147.456z" />
</font>
</defs>
</svg>
