<?xml version="1.0" encoding="utf-8"?>
<!-- Generator: Adobe Illustrator 27.9.0, SVG Export Plug-In . SVG Version: 6.00 Build 0)  -->
<svg version="1.1" id="Layer_1" xmlns="http://www.w3.org/2000/svg" xmlns:xlink="http://www.w3.org/1999/xlink" x="0px" y="0px"
	 viewBox="0 0 558 420" style="enable-background:new 0 0 558 420;" xml:space="preserve">
<style type="text/css">
	.st0{fill:#FFFFFF;}
	.st1{fill:#27AAE1;}
</style>
<g id="Group_326" transform="translate(71 3)">
	<g>
		<g id="Group_325" transform="translate(-71 -3)">
			<path id="Path_2483" class="st0" d="M518.3,242.9L466,247c-2.1,0.5-15.7,3.8-31.6,7.6l-1,18.1c1.6-0.3,3.1-0.6,4.7-0.8v-15.3
				l81,2.2l-0.6-13.6l-0.2-4.9h-0.2c0,0.4,0,0.6,0.1,0.7L518.3,242.9z"/>
			<path id="Path_2484" class="st0" d="M259.3,170.4l35.1-14.4l19.7,10.2v-35.6v-0.1l0,0V95L292,95.6V96h-16.2l-23,0.6l6.8,73.6
				L259.3,170.4z"/>
			<path id="Path_2485" class="st0" d="M280.2,88.7c-1.9,0-3.9-0.3-5.7-0.9v4.6h1.2l12.2-0.3l-0.6-4.8
				C285.1,88.2,282.7,88.7,280.2,88.7L280.2,88.7z"/>
			<path id="Path_2486" class="st0" d="M228.4,151.5l20.3-34.4l-1.1-15.8l-23.3,44.4l-29.6,11.8c0.5,1.5,0.8,3,0.8,4.6L228.4,151.5z
				"/>
			<path id="Path_2487" class="st0" d="M299.9,29.3c-0.3-0.6-0.6-1.3-1-1.9c-5.1,1-10.2,1.5-15.4,1.5c-5,0-10-0.4-15-1.2
				c-0.3,1.4-0.5,2.7-0.7,4.1C278.6,33.1,289.5,32.2,299.9,29.3"/>
			<path id="Path_2488" class="st0" d="M296.9,23.9c-0.5-0.8-1.1-1.5-1.7-2.2c-1.6,0.1-3.2,0.2-4.7,0.2c-6.7,0-13.3-1.2-19.6-3.5
				c-0.6,1.9-1.1,3.7-1.6,5.5C277.1,25.1,287.1,25.7,296.9,23.9"/>
			<path id="Path_2489" class="st0" d="M184.7,172.1c4,0,7.2-4.2,7.2-9.4s-3.2-9.4-7.2-9.4s-7.2,4.2-7.2,9.4
				C177.5,167.9,180.7,172.1,184.7,172.1"/>
			<path id="Path_2490" class="st0" d="M271.8,82.7c2.6,1.5,5.5,2.3,8.4,2.4l0,0c13.1,0,23.8-16,23.8-35.6c0-5.6-0.9-11.3-2.7-16.6
				c-7.6,2.3-15.6,3.4-23.5,3.4c-3.5,0-7-0.2-10.5-0.6C264.9,56.9,269.7,75.8,271.8,82.7"/>
			<path id="Path_2491" class="st0" d="M109.6,153.2l22.1,9.2l41.8,2.4v-5.2l-41.5-6.3l-19.4-17.4
				C111.7,141.1,110.7,147,109.6,153.2"/>
			<path id="Path_2492" class="st0" d="M108.6,389.5h5.4l2.4-114l-7.9-0.1L108.6,389.5z"/>
			<path id="Path_2493" class="st0" d="M102,94.3c-0.6-0.1-1.2-0.2-1.8-0.3c-3.5-0.8-6.6-2.6-9.2-5l-3.4,9.8l13.1,3.4L102,94.3z"/>
			<path id="Path_2494" class="st0" d="M99.5,192.8L81,187.5l-3.7-58.6l3.6-0.2l3.5,56.1l50.4,14.4c0.1-0.1,0.2-0.1,0.4-0.2l0.2,0.4
				l13.2,3.8h26.6l-4.4-6.6l-24.4-1.8c-4.8-1.5-42.7-21.3-44.3-22.1l-0.8-0.4L96,129l3.6-0.4l4.4,36.6c4.3-25.9,8.4-49.6,9.4-55.9
				L70,98.5c-17.6,40.6-24.8,127.6-25.8,141.2l46.7,3.7C91.9,237.5,95.6,216.5,99.5,192.8"/>
			<path id="Path_2495" class="st0" d="M280.3,13.7L280.3,13.7c-2.4,0-4.8,0.5-6.9,1.5c5.9,2,12,2.9,18.2,2.8
				C288.5,15.3,284.5,13.8,280.3,13.7"/>
			<path id="Path_2496" class="st0" d="M101,90.4c12.8,3,26.8-10.2,31.3-29.3c2.2-9.4,1.8-18.8-1.2-26.5
				c-2.9-7.4-7.8-12.3-13.8-13.7C104.5,17.9,90.5,31,86,50.2c-2.2,9.4-1.8,18.8,1.2,26.5C90.1,84.1,95,89,101,90.4"/>
			<path id="Path_2497" class="st0" d="M34.8,274.5l9.5,114.9h4.8l-2.5-114.8L34.8,274.5z"/>
			<path id="Path_2498" class="st0" d="M471.3,76.7c3-7.7,3.4-17.1,1.2-26.5c-4.1-17.3-16-29.7-27.6-29.7c-1.2,0-2.5,0.1-3.7,0.4
				c-6.1,1.4-11,6.3-13.8,13.7c-3,7.7-3.4,17.1-1.2,26.5c4.5,19.2,18.6,32.3,31.3,29.3C463.5,89,468.5,84.1,471.3,76.7"/>
			<path id="Path_2499" class="st0" d="M458.7,128.6l3.6,0.4l-5.2,43.1l-0.8,0.4c-1.6,0.8-39.5,20.6-44.3,22.1l-0.4,0.1l-24,1.7
				l-4.4,6.6h26.6l64.2-18.3l3.5-56.1l3.6,0.2l-3.7,58.6l-18.2,5.2c3.9,23.7,7.6,44.8,8.6,50.6l46.7-3.7
				c-1-13.5-8.2-100.5-25.8-141.2l-43.4,10.8c1.1,6.2,5,29.3,9.2,54.7L458.7,128.6z"/>
			<path id="Path_2500" class="st0" d="M449.5,156c-0.9-5.7-1.9-11.1-2.7-16.2c-6.2,4.5-13.4,9.6-13.4,9.6l-0.6,0.3l-40.8,9.8v5.3
				l41.8-2.4C435.4,161.7,443.2,158.5,449.5,156"/>
			<path id="Path_2501" class="st0" d="M381.2,172.1c4,0,7.2-4.2,7.2-9.4s-3.2-9.4-7.2-9.4s-7.2,4.2-7.2,9.4
				C374,167.9,377.2,172.1,381.2,172.1"/>
			<path id="Path_2502" class="st0" d="M458.3,93.9c-0.7,0.2-1.3,0.3-2,0.3l1.3,7.8l13.1-3.4l-3.4-9.7
				C464.8,91.4,461.7,93.1,458.3,93.9"/>
			<path id="Path_2503" class="st0" d="M410.3,206.7h-33.9l9.3-13.6l15.8-1.1c-7.1-4.2-13-7.7-14.6-8.7c-4.1,0.1-31.9,0.4-66.2,1
				v1.8l-40.2,23.1h149.8c-2.6-1.5-5.9-3.4-9.4-5.5L410.3,206.7z"/>
			<path id="Path_2504" class="st0" d="M250.6,177.9l24.6,10.9l39.5-18.3L294.2,160L250.6,177.9z M297,168.2l-4.3,2.3l2.1,2
				l-2.5,2.6l-3-2.9l-18.7,10l-1.7-3.2l17.6-9.4l-1.8-1.7l2.5-2.6l2.7,2.6l5.3-2.8L297,168.2z"/>
			<path id="Path_2505" class="st0" d="M244.2,196.6v-10.8c-39.4,0.6-72.8,1-76.8,1c-1.2,0.5-5.2,2.4-10.4,5.1l15.7,1.1l9.2,13.6
				l-34.2-0.1l-12.6-3.6c-4.5,2.4-8.6,4.5-11.9,6.2H270L244.2,196.6z"/>
			<path id="Path_2506" class="st0" d="M277.3,206.8L317,184v-10.6L277,192L277.3,206.8z"/>
			<path id="Path_2507" class="st0" d="M273.4,192l-25.6-11.4v13.8l25.9,12.6L273.4,192z"/>
			<path id="Path_2508" class="st0" d="M370.5,161.3c0.1-1.4,0.4-2.7,0.9-4l-29-11.6l-24.7-45.5v20.3l20.9,31.4L370.5,161.3z"/>
			<path id="Path_2509" class="st0" d="M157.1,378.4c-0.8,0.1-1.6,0.1-2.4,0.1c-1.1,0-2.6,0-4.6-0.1v8.7l38.4,2.3l2.1-6.7l-33.5-4.1
				V378.4z"/>
			<path id="Path_2510" class="st0" d="M332.2,233.4h-8l-0.3,13.3h8.3V233.4z"/>
			<path id="Path_2511" class="st0" d="M324,250.3l11.6,111.4h5.4l-8.7-111.4L324,250.3L324,250.3z"/>
			<path id="Path_2512" class="st0" d="M378.8,264.5l1.7-0.4c0,0,1.3-0.3,3.4-0.8c0.8-14.2,1.6-25.5,1.9-29.9h-10.4l-3.2,131.2h5.1
				c0.5-8.4,3-46.2,5.2-79.6c-1.2-6.8-2.4-13.2-3.4-18.9L378.8,264.5z"/>
			<path id="Path_2513" class="st0" d="M400.9,378.7l-33.2,4l2.1,6.7l38.4-2.3v-8.3c-2,0.1-3.5,0.1-4.6,0.1
				C402.7,378.8,401.8,378.8,400.9,378.7"/>
			<path id="Path_2514" class="st0" d="M385.8,283.2h0.4c0,0.5-0.1,1.1-0.1,1.6c12.5,68.4,15.6,85.9,16.4,90.4c1.3,0,3.4,0,5.6-0.1
				l-4-97.4l1.5-0.3c0.2,0,4.5-1,11.1-1.9l0.3-16.7c-15.4,3.9-29.5,7.3-34.2,8.5C383.9,272.8,384.9,278.1,385.8,283.2"/>
			<path id="Path_2515" class="st0" d="M284,233.4l-1.6,13.3h7.4l-1.5-13.3H284z"/>
			<path id="Path_2516" class="st0" d="M317.1,368.9l3.5-135.6H298l12.1,135.6H317.1z"/>
			<path id="Path_2517" class="st0" d="M318,372.5l14.4,17.3l2.5-0.1L318,372.5L318,372.5z"/>
			<path id="Path_2518" class="st0" d="M431.9,233.4h-10.8L418.3,387h5.5L431.9,233.4z"/>
			<path id="Path_2519" class="st0" d="M509.2,389.5h5.1l9.2-114.9l-11.5,0.1L509.2,389.5z"/>
			<path id="Path_2520" class="st0" d="M514.3,70.4l8.7,192.2l-81.2-2.2v11.5l85.5-1l10.6-200.5C537.9,70.4,514.3,70.4,514.3,70.4z"
				/>
			<path id="Path_2521" class="st0" d="M258.4,368.9h6.2l15.8-135.6h-19.5L258.4,368.9z"/>
			<path id="Path_2522" class="st0" d="M435,212.8H117.7v16.9h315L435,212.8z"/>
			<path id="Path_2523" class="st0" d="M444.6,389.5h5.1v-114l-7.9,0.1L444.6,389.5z"/>
			<path id="Path_2524" class="st0" d="M257.6,390.7h0.1l6-18.2h-1.4L257.6,390.7z"/>
			<path id="Path_2525" class="st0" d="M92.1,247l-46.8-3.7c1.3,4,3.5,11,4.8,15.3l70-1.9v15.4c0.9,0.2,1.9,0.3,2.9,0.4l-1-18.1
				C106.6,250.7,93.5,247.4,92.1,247"/>
			<path id="Path_2526" class="st0" d="M170.8,233.4c0.3,4.3,1.1,15.3,1.9,29.1c3.2,0.8,5.2,1.2,5.2,1.2l1.7,0.4l-0.3,1.7
				c-1.4,7.6-3,16.7-4.8,26.2h0.1c1.9,29.9,4.4,64.6,4.9,72.6h5.1l-3.2-131.2L170.8,233.4L170.8,233.4z"/>
			<path id="Path_2527" class="st0" d="M252.8,250.7h-8.3L242,361.6c1.1,0.2,2.3,0.2,3.5,0.2c1.1-7.2,4.7-58.8,6.9-93.2h0.4
				L252.8,250.7L252.8,250.7z"/>
			<rect id="Rectangle_269" x="242" y="233.4" class="st0" width="10.8" height="13.7"/>
			<path id="Path_2528" class="st0" d="M124.6,233.4l8.1,153.6h5.5l-2.8-153.6H124.6z"/>
			<path id="Path_2529" class="st0" d="M139.4,258l0.3,17.1c7.6,1.2,12.7,1.9,12.8,1.9l1.6,0.2l-4,97.5c2.2,0.1,4.3,0.1,5.6,0.1
				c0.9-4.9,4.5-24.9,19.6-108C170.5,265.6,155.2,262,139.4,258"/>
			<path id="Path_2530" class="st0" d="M36.2,245.2l8.2-174.8h-24L31,270.9l85.5,1v-11.5l-80.8,2.2L36.2,245.2z"/>
			<path id="Path_2531" class="st1" d="M271,18.5c-0.6-0.2-1.2-0.4-1.7-0.6c-1.9,1.5-3.6,3.3-5,5.3c1.6,0.3,3.3,0.6,5.2,0.9
				C269.9,22.2,270.4,20.3,271,18.5"/>
			<path id="Path_2532" class="st1" d="M267.4,35.6c-3.3-0.4-6.2-0.9-8.6-1.4c-1.5,4.9-2.3,10-2.3,15.1c0,9.7,2.5,18.7,7.1,25.5
				c2.1,3.2,4.9,5.9,8.2,7.9C269.7,75.8,264.9,56.9,267.4,35.6"/>
			<path id="Path_2533" class="st1" d="M268.6,27.8c-2.5-0.4-4.7-0.8-6.6-1.2c-0.7,1.3-1.4,2.7-1.9,4c2.2,0.4,4.8,0.9,7.8,1.2
				C268.1,30.5,268.3,29.1,268.6,27.8"/>
			<path id="Path_2534" class="st1" d="M259.3,170.4l0.3-0.2l-6.8-73.6h-1.9l5.4,75L259.3,170.4z"/>
			<path id="Path_2535" class="st1" d="M195.5,162.1c0,0.2,0,0.4,0,0.6c0,0.6-0.1,1.3-0.2,1.9c6.1-1.1,23.3-5.3,34.7-8.2l19.4-28.5
				l-0.8-10.8l-20.3,34.4L195.5,162.1z"/>
			<path id="Path_2536" class="st1" d="M370.5,164.5c-0.1-0.6-0.1-1.2-0.2-1.8c0-0.5,0.1-0.9,0.1-1.4l-31.9-9.4l-20.9-31.4v9
				l18.4,26.9C347.4,159.3,364.1,163.3,370.5,164.5"/>
			<path id="Path_2537" class="st1" d="M256.5,233.4V369h1.9l2.5-135.6H256.5z"/>
			<path id="Path_2538" class="st1" d="M228.7,392.5l27.1,5.4l1-3.7l-25.5-3.8L228.7,392.5z"/>
			<path id="Path_2539" class="st1" d="M256.3,372.5l-19.6,15.1l20.8,3.1l4.7-18.2H256.3z"/>
			<path id="Path_2540" class="st1" d="M298,233.4h-6L307.1,369h3.1L298,233.4z"/>
			<path id="Path_2541" class="st1" d="M307.9,372.5l5.7,18.3l18.8-1L318,372.5H307.9z"/>
			<path id="Path_2542" class="st1" d="M314.4,396.5l22.5-1.3l-1.6-2l-21.5,1.2L314.4,396.5z"/>
			<path id="Path_2543" d="M287.3,165.4l-2.5,2.6l1.8,1.7l-17.7,9.4l1.7,3.2l18.7-10l3,2.9l2.5-2.6l-2.1-2l4.3-2.3l-1.7-3.2
				l-5.3,2.8L287.3,165.4z"/>
			<path id="Path_2544" d="M510.6,66.8l7.8,173.7l0.2,4.9l0.6,13.6l-81-2.2v15.3c-1.6,0.2-3.1,0.5-4.7,0.8l1-18.1
				c15.9-3.9,29.5-7.1,31.6-7.6l52.3-4.1l-0.1-1.8c0,0,0-0.3-0.1-0.7c-0.6-8.6-7.9-102.9-26.8-144.9l-0.6-1.4l-16.3,4L470.2,86
				c1.9-2.4,3.4-5.2,4.5-8.1c3.2-8.3,3.7-18.5,1.3-28.6c-5-21.1-20.9-35.5-35.7-32c-7.3,1.7-13.1,7.4-16.4,15.9
				c-3.2,8.3-3.7,18.5-1.3,28.6c4.3,18.4,17.1,31.7,30.1,32.4l1.5,9l-13,3.2l0.3,1.7c0,0,2,11.4,4.7,27.7c-5.7,4.1-13,9.3-14.5,10.4
				l-41.2,9.9c-1.9-3.8-5.3-6.4-9.3-6.4c-3.2,0.1-6.2,1.7-8.1,4.4L345,142.9l-27.2-50.2v-1.4L291.5,92l-0.7-6.3
				c9.9-5.9,16.8-19.9,16.8-36.2c0-6-0.9-12-2.9-17.7c0.9-0.3,1.7-0.6,2.6-0.9l-1.4-3.5c-0.9,0.3-1.7,0.6-2.6,0.9
				c-0.3-0.6-0.5-1.1-0.8-1.7c0.5-0.1,1.1-0.2,1.6-0.4l-1.1-3.6c-0.8,0.2-1.6,0.4-2.4,0.6c-0.2-0.4-0.5-0.8-0.7-1.2
				c-0.2-0.3-0.4-0.5-0.6-0.8c0.3,0,0.6-0.1,0.8-0.1l-0.7-3.7c-1,0.2-2,0.3-2.9,0.4c-4.7-4.9-10.3-7.6-16.2-7.6l0,0
				c-4,0-7.9,1.3-11.3,3.5c-1.8-0.7-3.5-1.6-5.1-2.5l-2,3.2c1.2,0.7,2.4,1.3,3.7,1.9c-2,1.8-3.7,3.8-5.1,6.1
				c-2.8-0.7-4.5-1.2-4.6-1.2l-1.1,3.6c0.2,0.1,1.6,0.5,3.7,1c-0.7,1.3-1.3,2.7-1.9,4c-2.4-0.6-3.8-1.1-3.8-1.1l-1.2,3.6
				c0.2,0.1,1.6,0.5,3.8,1.1c-1.6,5.2-2.4,10.5-2.4,15.9c0,10.4,2.7,20.2,7.8,27.5c2.6,4,6.1,7.2,10.3,9.4v6.2L247,93.2l0.1,1.4
				l-25.4,48.3L193,154.4c-1.8-2.8-4.9-4.5-8.2-4.6c-4,0-7.4,2.6-9.3,6.5l-41.8-6.4l-20.3-18.3c2.4-13.9,4-23.4,4-23.4l0.3-1.7
				l-13.4-3.3l1.5-8.8c13-0.6,25.9-13.9,30.2-32.4c2.4-10.1,1.9-20.3-1.3-28.6c-3.3-8.6-9.1-14.2-16.4-15.9
				c-14.7-3.5-30.7,10.9-35.7,32c-2.4,10.1-1.9,20.3,1.3,28.6c1.1,2.8,2.6,5.5,4.4,7.9L84,98.3l-15.9-4l-0.6,1.4
				c-19.7,43.8-26.8,144.5-26.8,145.6l-0.1,1.8l1.1,0.1c1,3.2,3.4,10.8,5,15.7l-6.9,0.2l0.3-13.6l8.3-176.6l0.1-1.9H16.6l11,207.6
				h3.6L41,393.1h11.8l-2.5-118.4l54.8,0.7v117.7h12.6l2.5-117.3c1,0.2,2.1,0.3,3.1,0.4l5.9,112.7l0.1,1.7h12.6l-2-111.8
				c4.8,0.8,8.6,1.3,10.6,1.6l-4,97.9h0.1v12.2l44.6,2.7l4.3-13.5l-36-4.4c1.3-7,7-38.6,12.6-69.1c2,30,4.1,60,4.1,60.4l0.1,1.7
				h12.2l-3.2-134.8h53.3v17.3h2.5l-2.5,114l1.5,0.3c1.6,0.3,3.1,0.5,4.7,0.5c1.8,0,3.1-0.3,3.7-1c0.5-0.5,1.2-1.2,4.5-47.9v54.1
				L228,390l3.3,0.5l25.5,3.8l3.5,0.5l7.3-22.2h0.3L282,250.3h8.2l13.6,122.2h0.3l6.9,22.1l2.7-0.1l21.5-1.2l7.8-0.4L320.6,370
				l2.4-93.7l9.3,89h12.6l-9.2-117.2v-14.7h36l-3.2,134.8h12.2l0.1-1.7c0,0,2.1-33.3,4.3-66.9c5.9,32.3,12.4,67.9,13.8,75.7l-36,4.4
				l4.3,13.5l44.6-2.7v-11.9h0.1l-4-98c1.7-0.3,4.8-0.9,8.8-1.5l-2,111.4h12.6l6-114c1.6-0.4,3.3-0.7,4.9-0.9l2.9,117.4h12.2V275.4
				l55.1-0.7l-2.9,118.4h12.2l9.5-118.6h3.6l11-207.6L510.6,66.8L510.6,66.8z M437.6,209.2c-1.3-0.7-6-3.4-12-6.9l30.1-8.6
				c3.9,23.5,7.5,44.2,8.5,50.1c-3.8,0.9-15.8,3.8-29.6,7.2l0.9-17.6h0.2l3.4-24.2L437.6,209.2z M430.2,209.2H280.4l40.2-23.1v-1.8
				c34.3-0.6,62.1-1,66.2-1c1.6,1,7.4,4.4,14.6,8.6l-15.8,1.1l-9.3,13.6h33.9l10.5-3C424.4,205.8,427.6,207.7,430.2,209.2
				 M470.8,98.7l-13.1,3.4l-1.3-7.8c0.7-0.1,1.3-0.2,2-0.3c3.4-0.8,6.5-2.5,9.1-4.9L470.8,98.7z M426.2,61.1
				c-2.2-9.4-1.8-18.8,1.2-26.5c2.9-7.4,7.8-12.3,13.8-13.7c1.2-0.3,2.5-0.4,3.7-0.4c11.7,0,23.6,12.4,27.6,29.7
				c2.2,9.4,1.8,18.8-1.2,26.5c-2.9,7.4-7.8,12.3-13.8,13.7C444.7,93.4,430.7,80.2,426.2,61.1 M445.3,109.2l43.4-10.8
				c17.6,40.6,24.8,127.6,25.8,141.2l-46.7,3.7c-1-5.9-4.7-26.9-8.6-50.6l18.2-5.2l3.7-58.6l-3.6-0.2l-3.5,56.1l-64.2,18.3h-26.6
				l4.4-6.6l24-1.7l0.4-0.1c4.8-1.5,42.7-21.3,44.3-22.1l0.8-0.4l5.2-43.1l-3.6-0.4l-4.2,35.3C450.3,138.5,446.3,115.5,445.3,109.2
				 M392,159.4l40.8-9.8l0.6-0.3c0,0,7.2-5.1,13.4-9.5c0.9,5.1,1.8,10.5,2.7,16.2c-6.4,2.5-14.2,5.7-15.7,6.4l-41.8,2.4V159.4z
				 M381.2,153.3c4,0,7.2,4.2,7.2,9.4s-3.2,9.4-7.2,9.4s-7.2-4.2-7.2-9.4S377.2,153.3,381.2,153.3 M317.7,120.5v-20.3l24.7,45.5
				l29,11.6c-0.5,1.3-0.8,2.6-0.9,4c0,0.5-0.1,0.9-0.1,1.4c0,0.6,0.1,1.2,0.2,1.8c-6.4-1.2-23.2-5.3-34.4-8.1l-18.4-26.9
				L317.7,120.5z M317.7,135.9l16.2,23.7l0.7,0.2c24,6.1,33.2,8,36.9,8.5c1.7,4.4,5.4,7.4,9.7,7.4c4.2,0,7.9-3,9.7-7.2l43.4-2.5
				l0.6-0.1c0,0,8.3-3.4,15.3-6.2c0.6,3.7,1.2,7.4,1.9,11.1c-12.1,6.3-36.8,19-40.9,20.4l-3.4,0.2l0,0
				c-10.4-6.1-19.4-11.5-19.5-11.5l-0.4-0.3h-0.5c-0.3,0-29.8,0.4-66.7,1v-11.2l-2.9-1.5L317.7,135.9z M317,184l-39.7,22.8L277,192
				l40-18.5V184z M275.2,188.8l-24.6-10.9l43.6-17.9l20.5,10.5L275.2,188.8z M121,233.4l0.9,17.3c-12.6-3-23.5-5.7-27.4-6.7
				c1-5.8,4.6-26.6,8.5-50.1l27.2,7.8c-7.3,3.9-13.3,6.9-14.8,7.6H114v24.2L121,233.4z M135.2,203l12.6,3.6l34.2,0.1l-9.3-13.6
				L157,192c5.2-2.7,9.2-4.5,10.4-5.1c3.9,0,37.4-0.4,76.8-1v10.8l25.8,12.6H123.4C126.6,207.5,130.8,205.4,135.2,203 M247.8,194.4
				v-13.8l25.6,11.4l0.3,15L247.8,194.4z M280.3,13.7L280.3,13.7c4.2,0.1,8.2,1.6,11.4,4.4c-6.2,0.1-12.4-0.9-18.2-2.8
				C275.6,14.2,277.9,13.7,280.3,13.7 M269.2,17.8c0.6,0.2,1.1,0.4,1.7,0.6c6.3,2.2,12.9,3.4,19.6,3.5c1.5,0,3.1-0.1,4.7-0.2
				c0.6,0.7,1.1,1.4,1.7,2.2c-9.8,1.8-19.8,1.2-27.5,0.1c-1.9-0.3-3.6-0.6-5.2-0.9C265.6,21.1,267.3,19.3,269.2,17.8 M262,26.6
				c1.9,0.4,4.1,0.8,6.6,1.2c5,0.8,10,1.1,15,1.2c5.2,0,10.3-0.5,15.4-1.5c0.3,0.6,0.7,1.2,1,1.9c-10.4,2.9-21.3,3.8-32,2.5
				c-2.9-0.3-5.6-0.8-7.8-1.2C260.6,29.2,261.3,27.9,262,26.6 M263.6,74.9c-4.6-6.8-7.2-15.9-7.1-25.5c0-5.1,0.8-10.2,2.3-15.1
				c2.4,0.5,5.3,1,8.6,1.4c3.5,0.4,7,0.6,10.4,0.6c8,0,15.9-1.1,23.5-3.4c1.8,5.3,2.8,10.9,2.7,16.6c0,19.7-10.7,35.6-23.8,35.6l0,0
				c-3,0-5.9-0.9-8.4-2.4C268.5,80.8,265.7,78.1,263.6,74.9 M287.9,92.1l-12.2,0.3h-1.2v-4.6c1.8,0.6,3.8,0.9,5.7,0.9l0,0
				c2.4,0,4.9-0.5,7.1-1.4L287.9,92.1z M252.8,96.6l23-0.6H292v-0.4l22.2-0.6v35.5l0,0v0.1v35.6L294.4,156l-35.1,14.4l-3,1.2
				l-5.4-75L252.8,96.6z M224.2,145.7l23.3-44.4l1.1,15.8l0.8,10.8L230,156.4c-11.4,2.9-28.6,7-34.7,8.2c0.1-0.6,0.1-1.3,0.2-1.9
				c0-0.2,0-0.4-0.1-0.6c0-1.6-0.3-3.1-0.8-4.6L224.2,145.7z M184.7,153.3c4,0,7.2,4.2,7.2,9.4s-3.2,9.4-7.2,9.4s-7.2-4.2-7.2-9.4
				S180.7,153.3,184.7,153.3 M184.7,175.7c4.3,0,7.9-3,9.7-7.3c3.5-0.4,12.4-2.3,37.2-8.6l0.7-0.2l17.6-25.9l2.9,39.4l-8.5,3.5v5.6
				c-41.7,0.7-76.8,1-77.2,1l-0.7,0.2c-0.1,0-7.4,3.3-16,8l0,0l-3.1-0.2c-4-1.4-28.3-13.9-40.5-20.3c0.8-4.8,1.6-9.5,2.3-14.1
				l21.6,9l44.4,2.6C176.8,172.7,180.5,175.7,184.7,175.7 M132,153.2l41.5,6.3v5.2l-41.8-2.4l-22.1-9.2c1-6.2,2-12,2.9-17.4
				L132,153.2z M87.2,76.7c-3-7.7-3.4-17.1-1.2-26.5c4.5-19.2,18.5-32.3,31.3-29.3c6.1,1.4,11,6.3,13.8,13.7
				c3,7.7,3.4,17.1,1.2,26.5c-4.5,19.2-18.5,32.3-31.3,29.3C95,89,90.1,84.1,87.2,76.7 M91,88.9c2.6,2.5,5.8,4.2,9.2,5
				c0.6,0.1,1.2,0.2,1.8,0.3l-1.3,7.8l-13.1-3.4L91,88.9z M70,98.5l43.4,10.8c-1.1,6.3-5.1,30-9.4,55.9l-4.4-36.6L96,129l5.2,43.1
				l0.8,0.4c1.6,0.8,39.5,20.6,44.3,22.1l24.4,1.8l4.4,6.6h-26.6l-13.2-3.8l-0.2-0.4l-0.4,0.2l-50.4-14.4l-3.5-56.1l-3.6,0.2
				l3.7,58.6l18.5,5.3c-3.9,23.7-7.6,44.7-8.6,50.5l-46.7-3.7C45.3,226.1,52.4,139.1,70,98.5 M44.3,389.5l-9.5-114.9l11.8,0.1
				l2.5,114.8H44.3z M114.1,389.5h-5.4V275.4l7.9,0.1L114.1,389.5z M116.6,271.9l-85.5-1L20.4,70.4h24l-8.2,174.8l-0.4,17.4
				l80.8-2.2L116.6,271.9z M120.2,272.1v-15.4l-70,1.9c-1.3-4.3-3.6-11.3-4.8-15.3l46.8,3.7c1.4,0.4,14.4,3.7,30,7.3l1,18.1
				C122.1,272.4,121.1,272.3,120.2,272.1 M132.7,386.9l-8.1-153.6h10.8l2.8,153.6H132.7z M138.9,233.4h28.2c0.3,4,1,14.7,1.8,28.2
				c-7.4-1.8-18.4-4.4-29.7-7.2L138.9,233.4z M190.6,382.7l-2.1,6.7l-38.4-2.3v-8.7c2,0.1,3.5,0.1,4.6,0.1c0.8,0,1.6,0,2.4-0.1v0.3
				L190.6,382.7z M155.8,374.8c-1.3,0-3.4,0-5.6-0.1l4-97.5l-1.6-0.2c-0.1,0-5.1-0.6-12.8-1.9l-0.3-17.1c15.8,3.9,31.1,7.6,36,8.8
				C160.2,349.9,156.6,369.9,155.8,374.8 M179.5,364.6c-0.6-7.9-3-42.7-4.9-72.6h-0.1c1.7-9.6,3.4-18.6,4.8-26.2l0.3-1.7l-1.7-0.4
				c-0.1,0-2-0.5-5.3-1.2c-0.8-13.8-1.6-24.8-1.9-29.1h10.7l3.2,131.2L179.5,364.6z M252.5,268.6c-2.3,34.5-5.9,86-6.9,93.2
				c-1.2,0-2.3,0-3.5-0.2l2.5-110.9h8.3v17.9L252.5,268.6z M242,233.4h10.8v13.7H242V233.4z M257.7,390.7h-0.1l-20.8-3.1l19.6-15.1
				h7.4L257.7,390.7z M264.6,368.9h-8.1V233.4h23.9L264.6,368.9z M282.5,246.7l1.6-13.3h4.4l1.5,13.3H282.5z M292,233.4h28.6
				L317.1,369h-10L292,233.4z M334.9,389.7l-2.5,0.1l-18.8,1l-5.7-18.3H318L334.9,389.7z M341,361.7h-5.4L324,250.3h8.3L341,361.7z
				 M323.8,246.7l0.3-13.3h8v13.3H323.8z M291.6,229.8h-174v-16.9H435l-2.4,16.9H291.6z M377.3,364.6h-5.1l3.2-131.2h10.4
				c-0.3,4.3-1.1,15.7-1.9,29.9c-2.1,0.5-3.3,0.8-3.4,0.8l-1.7,0.4l0.3,1.7c1,5.6,2.2,12.1,3.4,18.9
				C380.3,318.4,377.9,356.2,377.3,364.6 M408.2,387.1l-38.4,2.3l-2.2-6.7l33.2-4c0.9,0.1,1.8,0.2,2.7,0.1c1.1,0,2.6,0,4.6-0.1
				L408.2,387.1z M416.8,275.4c-6.6,1-10.9,1.9-11.1,1.9l-1.5,0.3l4,97.4c-2.2,0.1-4.3,0.1-5.6,0.1c-0.8-4.5-4-22-16.4-90.4
				c0-0.5,0.1-1.1,0.1-1.6h-0.4c-0.9-5.1-1.9-10.4-2.9-16c4.7-1.1,18.8-4.6,34.2-8.5L416.8,275.4z M417.2,255
				c-11.8,3-22.9,5.7-29.7,7.4c0.8-14,1.6-25,1.9-29h28.2L417.2,255z M423.8,386.9h-5.5l2.8-153.6h10.8L423.8,386.9z M449.7,389.5
				h-5.1l-2.8-114l7.9-0.1V389.5z M514.4,389.5h-5.1l2.8-114.8l11.5-0.1L514.4,389.5z M527.3,270.9l-85.5,1v-11.5l81.2,2.2
				l-8.7-192.2h23.6L527.3,270.9z"/>
		</g>
	</g>
</g>
</svg>
