<?xml version="1.0" encoding="utf-8"?>
<!-- Generator: Adobe Illustrator 28.0.0, SVG Export Plug-In . SVG Version: 6.00 Build 0)  -->
<svg version="1.1" id="Layer_1" xmlns="http://www.w3.org/2000/svg" xmlns:xlink="http://www.w3.org/1999/xlink" x="0px" y="0px"
	 viewBox="0 0 179 208.9" style="enable-background:new 0 0 179 208.9;" xml:space="preserve">
<style type="text/css">
	.st0{fill:none;}
	.st1{fill:#FFFFFF;}
	.st2{fill:#27AAE1;}
</style>
<g>
	<path class="st0" d="M86.5,22.5L86.5,22.5c-5,0.5-9.6,3.2-13.2,7.8c0,0,0,0,0,0C76.9,25.7,81.5,23,86.5,22.5z"/>
	<path class="st0" d="M151.1,124l-13.5,11.5l1.8,19.1l0,0l-1.8-19.1L151.1,124c0.3-14.6,0.5-27.3,0.6-31.6l0,0
		C151.6,96.7,151.4,109.4,151.1,124z"/>
	<path class="st0" d="M103.7,30.2C103.7,30.2,103.7,30.2,103.7,30.2c-2.2,0.9-5.1,2-8.5,3.1c0,0,0,0,0,0c-8.5,2.8-17.4,4.3-26.4,4.6
		c0,0,0,0,0,0c9-0.3,17.9-1.9,26.4-4.6C98.7,32.2,101.5,31.1,103.7,30.2z"/>
	<path class="st0" d="M90.6,22.6c2.5,0.4,4.9,1.3,7.1,2.6c0,0,0,0,0,0C95.5,23.9,93.1,23,90.6,22.6c-1.4-0.2-2.8-0.2-4.2-0.1
		C87.9,22.3,89.2,22.4,90.6,22.6z"/>
	<path class="st0" d="M96.7,37.3c0-0.1-0.1-0.3-0.1-0.4C96.6,37.1,96.7,37.2,96.7,37.3z"/>
	<path class="st0" d="M86.5,96.8c1.8,0.6,3.7,0.8,5.6,0.9c0.6,0,1.2,0,1.8-0.1c1.8-0.2,3.5-0.6,5.2-1.3l0,0
		c-1.7,0.7-3.4,1.1-5.2,1.3c-0.6,0.1-1.2,0.1-1.8,0.1C90.2,97.6,88.4,97.3,86.5,96.8l0,5.4c0,0,0,0,0,0V96.8z"/>
	<path class="st0" d="M94.8,32c0,0,0-0.1-0.1-0.2C94.7,31.9,94.7,32,94.8,32z"/>
	<path class="st0" d="M66.1,47.3c1.2,0.1,2.4,0.1,3.5,0.1c9.8-0.1,19.5-2.2,28.4-6.3c0,0,0,0,0,0c1.3-0.6,2.5-1.2,3.7-1.8
		c-1.2,0.6-2.5,1.2-3.7,1.8c-8.9,4.1-18.6,6.2-28.4,6.3C68.4,47.4,67.2,47.3,66.1,47.3c-0.8,4.7-1,9.5-0.5,14.3h0
		C65.1,56.8,65.3,52,66.1,47.3z"/>
	<path class="st0" d="M107.9,35.8C107.9,35.8,107.9,35.8,107.9,35.8c2.5,4.2,4.4,8.8,5.5,13.5C112.2,44.5,110.4,40,107.9,35.8z"/>
	<path class="st0" d="M95.9,35c3.7-1.2,6.8-2.4,9.1-3.3c0.7,0.8,1.3,1.7,1.9,2.6c0,0,0,0,0,0c-0.6-0.9-1.3-1.8-1.9-2.6
		C102.7,32.6,99.6,33.8,95.9,35c-3.1,1-6.2,1.8-9.4,2.5C89.6,36.8,92.8,36,95.9,35C95.9,35,95.9,35,95.9,35z"/>
	<polygon class="st0" points="95.1,123.1 92.8,118 95.1,123.1 	"/>
	<polygon class="st0" points="91.4,123.1 91.4,123.1 92.7,119.4 	"/>
	<path class="st0" d="M79.2,44.8c-4.2,0.6-8.5,0.9-12.8,0.7c0.4-1.9,1-3.9,1.7-5.7l0,0c-0.7,1.9-1.2,3.8-1.7,5.7
		C70.7,45.6,75,45.4,79.2,44.8z"/>
	<polygon class="st0" points="150.2,135.1 149.3,133.5 149.3,133.5 150.2,135.1 139.9,140.6 140.3,144 140.3,144 139.9,140.6 	"/>
	<polygon class="st0" points="151.1,141.6 150.4,139.9 150.4,139.9 151.1,141.6 140.4,145.9 140.6,147.8 140.6,147.8 140.4,145.9 	
		"/>
	
		<rect x="129.3" y="139.7" transform="matrix(0.9853 -0.1707 0.1707 0.9853 -21.9133 24.5984)" class="st0" width="5.6" height="0"/>
	<path class="st0" d="M84,128.6L84,128.6l0,69.4c0.1,0,0.3,0.1,0.4,0.1c-0.2,0-0.3-0.1-0.4-0.1V128.6z"/>
	<polygon class="st0" points="102.7,128.6 84,128.6 102.7,128.6 	"/>
	<polygon class="st0" points="150.9,147.2 150.8,147.2 150.9,147.2 	"/>
	<polygon class="st0" points="141.1,152.4 144.5,151.7 141.1,152.4 	"/>
	<polygon class="st0" points="123.2,139.4 120.8,139.8 121.1,141.6 121.1,141.6 120.8,139.8 	"/>
	<path class="st0" d="M139.8,138.7L139.8,138.7l-0.2-2.4l13.3-11.3h0.1c0,0,0,0,0-0.1l2.2-1.9l0,0l-2.2,1.9c0,0,0,0,0,0.1h-0.1
		l-13.3,11.3L139.8,138.7z"/>
	<polygon class="st0" points="127.5,140.5 127.5,140.5 128.9,169.6 130.7,169.5 130.7,169.5 128.9,169.6 	"/>
	<path class="st0" d="M105.8,195.7L105.8,195.7l44.1-12.1l0,0c0.1-3.1,0.3-15.9,0.6-31.2l0,0c-0.3,15.3-0.5,28.1-0.6,31.2
		L105.8,195.7z"/>
	
		<rect x="127.2" y="127.7" transform="matrix(0.9988 -4.813690e-02 4.813690e-02 0.9988 -6.2638 6.2757)" class="st0" width="0" height="11"/>
	<path class="st0" d="M92.9,118.8l-26.4-13.7c3.2-0.3,6.4-0.5,9.6-0.7c-3.2,0.2-6.4,0.4-9.6,0.7L92.9,118.8L92.9,118.8z"/>
	<polygon class="st0" points="34.5,148.1 30.8,147.2 30.8,147.2 	"/>
	<polygon class="st0" points="33.2,92.4 32.3,93.1 32.3,93.1 	"/>
	<polygon class="st0" points="44,135.5 29.8,123.3 44,135.5 42.4,154.6 42.4,154.6 	"/>
	
		<rect x="36.2" y="141.5" transform="matrix(0.2309 -0.973 0.973 0.2309 -114.7775 147.9274)" class="st0" width="0" height="10.1"/>
	<path class="st0" d="M30,152.1L30,152.1c0.3,16,0.5,29.8,0.6,33l51.6,10.6v0l-51.6-10.6C30.5,181.9,30.3,168.1,30,152.1z"/>
	<polygon class="st0" points="82.2,128.6 82.2,130.6 82.2,128.6 81.5,128.6 81.5,128.6 	"/>
	<polygon class="st0" points="40.7,152.4 40.7,152.4 22.1,148.7 26.6,123 26.6,123 22,148.7 	"/>
	<polygon class="st0" points="97.9,124.9 95.1,118.7 147.4,88.4 147.4,88.4 95.1,118.7 97.9,124.9 88.8,124.9 88.8,124.9 	"/>
	
		<rect x="37.2" y="130.7" transform="matrix(0.4741 -0.8805 0.8805 0.4741 -100.2374 104.3077)" class="st0" width="0" height="10.7"/>
	<polygon class="st0" points="104.9,111 115.1,105.1 115.1,105.1 104.9,110.9 	"/>
	<path class="st0" d="M29.5,123C29.3,109.3,29,97.6,29,93.5l56.7,27.9l0,0L29,93.5C29,97.6,29.3,109.3,29.5,123L29.5,123z"/>
	
		<rect x="36.4" y="136.5" transform="matrix(0.3768 -0.9263 0.9263 0.3768 -108.7645 122.1762)" class="st0" width="0" height="10.9"/>
	<polygon class="st1" points="88.2,120.7 84.7,126.7 102.2,126.7 98.8,119.5 147.4,92.7 147.4,88.4 95.1,118.7 97.9,124.9 
		88.8,124.9 88.8,124.9 88.8,124.9 90.6,119.7 35.2,90.9 33.2,92.4 32.3,93.1 	"/>
	<path class="st1" d="M92.1,97.6c-1.9,0-3.8-0.3-5.6-0.9v5.4c4.2-0.1,8.7-0.1,13.3,0.1l-0.7-5.9c-1.7,0.7-3.4,1.1-5.2,1.3
		C93.3,97.6,92.7,97.6,92.1,97.6z"/>
	<path class="st1" d="M94.8,32c0,0,0-0.1-0.1-0.2c-0.5-1.3-1-2.6-1.5-3.7c0,0,0,0,0,0C86.1,30,79,31.3,71.8,32.3
		c-0.5,0.8-1,1.6-1.5,2.5v0c-0.5,1-1,2-1.5,3.1c9-0.3,17.9-1.9,26.4-4.6C95.1,32.8,94.9,32.4,94.8,32z"/>
	<path class="st1" d="M79.2,44.8c6.3-0.9,12.4-2.8,18.2-5.4c-0.2-0.7-0.5-1.4-0.7-2c0-0.1-0.1-0.3-0.1-0.4c-0.2-0.7-0.5-1.3-0.7-2
		c0,0,0,0,0,0c0,0,0,0,0,0c-3.1,1-6.2,1.8-9.4,2.5c-6,1.3-12.2,2.1-18.4,2.2l0,0c-0.7,1.9-1.2,3.8-1.7,5.7
		C70.7,45.6,75,45.4,79.2,44.8z"/>
	<polygon class="st1" points="40.7,152.4 41,149.6 34.5,148.1 30.8,147.2 30.8,147.2 30.8,147.2 31.2,145.4 31.2,145.4 31.2,145.4 
		41.1,147.7 41.3,145.9 30.7,141.6 31.4,139.9 31.4,139.9 31.4,139.9 41.5,144 41.8,140.6 31.6,135.1 32.5,133.5 32.5,133.5 
		32.5,133.5 41.9,138.6 42.1,136.3 26.6,123 22.1,148.7 	"/>
	<path class="st1" d="M29.5,123l0.4,0.3L44,135.5l-1.7,19.1l0,0l0,0L30,152.1c0.3,16,0.5,29.8,0.6,33l51.6,10.6v-65.1l0-2h-0.7l0,0
		h0l4.1-7.1L29,93.5C29,97.6,29.3,109.3,29.5,123z"/>
	<path class="st1" d="M92.9,118.8L92.9,118.8L92.9,118.8l-0.2,0.6l-1.3,3.7h3.7l-2.3-5.1l12.1-7l0,0v0v-6.7c0,0,0,0,0,0h0
		c-9.6-0.5-19.2-0.4-28.8,0.1c-3.2,0.2-6.4,0.4-9.6,0.7L92.9,118.8z"/>
	<path class="st1" d="M137.6,135.5l13.5-11.5c0.3-14.6,0.5-27.3,0.6-31.6l-50.5,27.9l3.9,8.3h-0.5l1.3,67.1l44.1-12.1
		c0.1-3,0.3-15.9,0.6-31.2l-11.1,2.2l0,0l0,0L137.6,135.5z M134.8,139.2l-5.5,0.9l1.4,29.3l0,0l0,0l-1.8,0.1l-1.4-29.1l-6.4,1.1v0
		l0,0l-0.3-1.8l2.4-0.4l4.3-0.7l-0.5-11l0,0l0,0l1.8-0.1l0.5,10.7l5.3-0.9L134.8,139.2L134.8,139.2L134.8,139.2z"/>
	<path class="st1" d="M84,128.6V198c0.1,0,0.3,0.1,0.4,0.1c3.3,0.9,13.8,3.4,19.6,0.1l-1.3-69.6L84,128.6z"/>
	<path class="st1" d="M98,41.1c-8.9,4.1-18.6,6.2-28.4,6.3c-1.2,0-2.3,0-3.5-0.1c-0.8,4.7-1,9.5-0.5,14.3h0
		c2,20.2,14.7,35.5,28.2,34.2c0.3,0,0.6-0.1,1-0.1l0,0C106.9,80.4,103.1,57.4,98,41.1z"/>
	<path class="st1" d="M73.3,30.3c6.6-0.9,13.5-2.4,19.2-3.8c0,0,0,0,0,0c-0.8-1.7-1.4-3.1-1.8-3.9c-1.4-0.2-2.8-0.2-4.2-0.1
		C81.5,23,76.9,25.7,73.3,30.3z"/>
	<path class="st1" d="M152.9,124.9L152.9,124.9l-13.4,11.3l0.2,2.4l9.5-5.1l0,0l0,0l0.9,1.6l-10.2,5.5l0.3,3.4l10.1-4.1l0,0l0,0
		l0.7,1.7l-10.6,4.3l0.2,1.9l9.9-2.4l0.4,1.8l0,0l0,0l-0.2,0l-10,2.4l0.3,2.8l3.5-0.7l15.2-3l-4.6-25.7L152.9,124.9
		C152.9,124.9,152.9,124.9,152.9,124.9z"/>
	<path class="st2" d="M92.4,26.5c1.9-0.5,3.7-0.9,5.2-1.3c-2.2-1.3-4.6-2.2-7.1-2.6C91,23.4,91.7,24.8,92.4,26.5z"/>
	<path class="st2" d="M94.8,32c0.2,0.4,0.3,0.8,0.5,1.2c0,0,0,0,0,0c3.4-1.1,6.3-2.2,8.5-3.1c-1.2-1.3-2.5-2.5-4-3.6
		c-1.8,0.5-4.1,1.1-6.5,1.7c0.5,1.1,1,2.3,1.5,3.7C94.7,31.9,94.7,32,94.8,32z"/>
	<path class="st2" d="M95.9,35C95.9,35,95.9,35,95.9,35c0.2,0.6,0.5,1.3,0.7,2c0,0.1,0.1,0.3,0.1,0.4c0.2,0.7,0.5,1.3,0.7,2
		c0,0,0,0,0,0c3.3-1.5,6.5-3.2,9.5-5.1c-0.6-0.9-1.3-1.8-1.9-2.6C102.7,32.6,99.6,33.8,95.9,35z"/>
	<path class="st2" d="M98,41.1c5.1,16.3,8.9,39.3-3.2,54.5c13-2.1,21.9-19.2,19.9-38.9c-0.2-2.5-0.6-4.9-1.2-7.4
		c-1.2-4.7-3-9.3-5.5-13.5c-2,1.3-4.1,2.5-6.2,3.5C100.4,39.9,99.2,40.5,98,41.1C98,41.1,98,41.1,98,41.1z"/>
	<path class="st2" d="M115.1,105.1c-3.4-0.4-6.8-0.6-10.2-0.8v6.7L115.1,105.1z"/>
	<path d="M19.9,150.1l8.2,1.6c0.4,18.5,0.6,34.2,0.6,34.2l0,0.7l53.4,11v1.7l0.6,0.2c4.3,1.3,8.7,2.1,13.2,2.2
		c3.4,0,6.8-0.6,9.5-2.3l0.4-0.3l0-1.6l45.8-12.6l0-0.7c0,0,0.3-14.6,0.6-32.3l9.5-1.9l-5.5-30.6l-3.4,2.9
		c0.3-17.3,0.6-31.6,0.6-31.6l0-1.6l-4.3,2.4v-6.4l-31.6,18.3c-5.3-0.7-10.7-1.1-16-1.3l-0.8-6.8c10.7-5.6,17.4-21.3,15.6-38.9
		c-0.7-7.7-3.1-15.1-7.1-21.7c1.8-1.2,2.8-2,2.8-2.1l-1.2-1.4c0,0-1,0.8-2.6,1.9c-0.6-0.8-1.1-1.6-1.7-2.4c1.4-0.6,2.2-1.1,2.3-1.1
		l-0.8-1.6c0,0-1,0.5-2.7,1.2c-1.1-1.2-2.3-2.4-3.6-3.5c2-0.6,3.2-0.9,3.3-0.9l-0.5-1.7c-0.1,0-1.8,0.5-4.6,1.3
		c-4-2.9-8.9-4.3-13.8-3.9c-6,0.6-11.4,4.1-15.5,9.9c-2.6,0.3-5.1,0.5-7.5,0.6l0,1.8c2,0,4-0.2,6.2-0.4c-0.3,0.4-0.5,0.9-0.8,1.3
		c-0.7,1.3-1.3,2.6-1.9,4c-1.2,0-2.3,0-3.5-0.1l-0.1,1.8c1,0,1.9,0.1,2.9,0.1c-0.6,1.8-1.2,3.7-1.6,5.6c-1.6-0.1-3.1-0.3-4.7-0.6
		l-0.3,1.8c1.6,0.3,3.1,0.4,4.7,0.6c-0.8,4.8-1,9.7-0.5,14.6c1.6,16.6,10.3,30,21,34.4v6.1c-11.1,0.3-19.4,1.2-21.2,1.4L35.1,88.7
		l-4.6,3.5l-3.4-1.7l0,1.5c0,0,0.2,13.1,0.5,29.4l-2.2-1.9L19.9,150.1z M84.4,198.1c-0.2,0-0.3-0.1-0.4-0.1v-69.4h0h18.7v0l1.3,69.6
		C98.2,201.5,87.7,199.1,84.4,198.1z M152.9,124.9C152.9,124.9,152.9,124.9,152.9,124.9l2.2-1.9l0,0l4.6,25.7l-15.2,3l-3.5,0.7l0,0
		l-0.3-2.8l10-2.4l0.2,0l0,0l-0.4-1.8l-9.9,2.4l0,0l-0.2-1.9l10.6-4.3l-0.7-1.7l0,0l-10.1,4.1l0,0l-0.3-3.4l10.2-5.5l-0.9-1.6l0,0
		l-9.5,5.1l0,0l-0.2-2.4L152.9,124.9L152.9,124.9z M151.1,124l-13.5,11.5l1.8,19.1l0,0l11.1-2.2l0,0c-0.3,15.3-0.5,28.1-0.6,31.2
		l0,0l-44.1,12.1v0l-1.3-67.1h0.5l-3.9-8.3l50.5-27.9l0,0C151.6,96.7,151.4,109.4,151.1,124z M86.5,96.8c1.8,0.6,3.7,0.8,5.6,0.9
		c0.6,0,1.2,0,1.8-0.1c1.8-0.2,3.5-0.6,5.2-1.3l0,0l0.7,5.9c-4.7-0.1-9.1-0.1-13.3-0.1c0,0,0,0,0,0V96.8z M86.5,22.5L86.5,22.5
		c1.4-0.1,2.8-0.1,4.2,0.1c2.5,0.4,4.9,1.3,7.1,2.6c0,0,0,0,0,0c-1.6,0.4-3.3,0.9-5.2,1.3c0,0,0,0,0,0c-5.6,1.4-12.6,2.9-19.2,3.8
		c0,0,0,0,0,0C76.9,25.7,81.5,23,86.5,22.5z M68.8,37.9c0.5-1.1,0.9-2.1,1.5-3.1v0c0.5-0.9,1-1.7,1.5-2.5c7.2-1,14.4-2.3,21.4-4.1
		c0,0,0,0,0,0c2.5-0.6,4.7-1.2,6.5-1.7c1.4,1.1,2.8,2.3,4,3.6c0,0,0,0,0,0c-2.2,0.9-5,2-8.5,3.1C86.7,36,77.8,37.6,68.8,37.9
		C68.8,37.9,68.8,37.9,68.8,37.9z M68.1,39.7L68.1,39.7L68.1,39.7c6.2-0.2,12.4-0.9,18.4-2.2c3.2-0.7,6.3-1.5,9.4-2.5
		c3.7-1.2,6.8-2.4,9.1-3.3c0.7,0.8,1.3,1.7,1.9,2.6c0,0,0,0,0,0c-3,1.9-6.2,3.7-9.5,5.1c0,0,0,0,0,0c-5.8,2.7-11.9,4.5-18.2,5.4
		c-4.2,0.6-8.5,0.9-12.8,0.7C66.8,43.5,67.4,41.6,68.1,39.7z M66.1,47.3c1.2,0.1,2.4,0.1,3.5,0.1c9.8-0.1,19.5-2.2,28.4-6.3
		c1.3-0.6,2.5-1.2,3.7-1.8c2.1-1.1,4.2-2.3,6.2-3.5c0,0,0,0,0,0c2.5,4.2,4.4,8.8,5.5,13.5c0.6,2.4,1,4.9,1.2,7.4
		c2,19.7-6.9,36.9-19.9,38.9l0,0c-0.3,0-0.6,0.1-1,0.1c-13.5,1.4-26.2-14-28.2-34.2h0h0C65.1,56.8,65.2,52,66.1,47.3z M76.1,104.4
		c9.6-0.5,19.2-0.6,28.8-0.1h0c0,0,0,0,0,0c3.4,0.2,6.8,0.5,10.2,0.8c0,0,0,0,0,0l-10.2,5.9l0,0l-12.1,7l2.3,5.1h0h-3.7h0l1.3-3.7
		l0.2-0.6h0l-26.4-13.8C69.7,104.8,72.9,104.5,76.1,104.4z M33.2,92.4l2-1.5l55.4,28.9l-1.8,5.2h0h9.1l-2.8-6.2l52.3-30.3v0v4.3
		l-48.7,26.8l3.4,7.2H84.7l3.5-6L32.3,93.1l0,0L33.2,92.4z M85.6,121.5L85.6,121.5l-4.1,7.1h0h0.7v2v65.1v0l-51.6-10.6
		c-0.1-3.3-0.3-17-0.6-33l0,0l12.4,2.5l0,0l1.7-19.1l-14.2-12.2l-0.4-0.3l0,0C29.3,109.3,29,97.6,29,93.5L85.6,121.5z M26.6,123
		l15.5,13.3l-0.2,2.3l0,0l-9.5-5.1l0,0l-0.9,1.6l10.1,5.5l-0.3,3.4l0,0l-10.1-4.1l0,0l-0.7,1.7l10.6,4.3l-0.2,1.9l0,0l-9.9-2.3l0,0
		l-0.4,1.8l0,0l3.7,0.9l6.4,1.5l-0.2,2.8l0,0L22,148.7L26.6,123L26.6,123z"/>
	<polygon points="134.5,137.4 129.2,138.4 128.7,127.6 126.9,127.7 126.9,127.7 127.4,138.7 127.4,138.7 123.2,139.4 120.8,139.8 
		121.1,141.6 121.1,141.6 127.5,140.5 127.5,140.5 128.9,169.6 130.7,169.5 130.7,169.5 129.3,140.2 129.3,140.2 134.8,139.2 
		134.8,139.2 	"/>
	<rect x="48.2" y="20" transform="matrix(0.8043 -0.5942 0.5942 0.8043 -8.8718 35.2714)" width="1.8" height="22.1"/>
	<rect x="31.4" y="9.3" transform="matrix(0.5831 -0.8124 0.8124 0.5831 -14.2672 40.5321)" width="1.8" height="49.8"/>
	<rect x="37.5" y="41" transform="matrix(0.3924 -0.9198 0.9198 0.3924 -23.9756 66.5517)" width="1.8" height="20.9"/>
	<rect x="120.3" y="30.2" transform="matrix(0.5913 -0.8064 0.8064 0.5913 28.5797 118.6217)" width="22.1" height="1.8"/>
	<rect x="123.2" y="33.3" transform="matrix(0.8131 -0.5821 0.5821 0.8131 7.7802 92.5849)" width="49.9" height="1.8"/>
	<rect x="131.5" y="50.5" transform="matrix(0.9205 -0.3908 0.3908 0.9205 -8.7994 59.6026)" width="21" height="1.8"/>
</g>
</svg>
