<?xml version="1.0" encoding="utf-8"?>
<!-- Generator: Adobe Illustrator 27.9.0, SVG Export Plug-In . SVG Version: 6.00 Build 0)  -->
<svg version="1.1" id="Layer_1" xmlns="http://www.w3.org/2000/svg" xmlns:xlink="http://www.w3.org/1999/xlink" x="0px" y="0px"
	 viewBox="0 0 424 390" style="enable-background:new 0 0 424 390;" xml:space="preserve">
<style type="text/css">
	.st0{clip-path:url(#SVGID_00000049222721113705034490000011036607813120110468_);}
	.st1{fill:#FFFFFF;}
	.st2{fill:#009BDB;}
</style>
<g>
	<defs>
		<rect id="SVGID_1_" x="35.6" y="31.1" width="345.7" height="314.8"/>
	</defs>
	<clipPath id="SVGID_00000170990864045416972900000017704395351979396756_">
		<use xlink:href="#SVGID_1_"  style="overflow:visible;"/>
	</clipPath>
	<g id="Group_185" style="clip-path:url(#SVGID_00000170990864045416972900000017704395351979396756_);">
		<path id="Path_1717" class="st1" d="M243.1,302.2c4.5,0.1,9.5,0.1,14.9,0.2v-9.9L245,292L243.1,302.2z"/>
		<path id="Path_1718" class="st1" d="M325.6,326.3h13.7l-3.3-9.6l-13.6,0.2L325.6,326.3z"/>
		<path id="Path_1719" class="st1" d="M238.7,326.3H258v-8.4l-17.9,0.3L238.7,326.3z"/>
		<path id="Path_1720" class="st1" d="M261.4,302.5c5.1,0.1,10.4,0.2,15.9,0.3l-0.6-9.4l-15.3-0.6V302.5z"/>
		<path id="Path_1721" class="st1" d="M240.8,314.7l17.2-0.3v-8.7c-5.7-0.1-11-0.2-15.5-0.2L240.8,314.7z"/>
		<path id="Path_1722" class="st1" d="M130.2,278.7c-0.7-0.4-1.5-0.6-2.4-0.6c-0.4,0-0.9,0.1-1.3,0.2l0,0c-2.5,0.7-4,3.3-3.3,5.9
			c0.7,2.5,3.3,4,5.9,3.3c2.5-0.7,4-3.3,3.3-5.9C132.1,280.4,131.3,279.3,130.2,278.7"/>
		<path id="Path_1723" class="st1" d="M239,305.5c-7-0.1-12.1-0.2-14.2-0.2l-3.1,9.7l15.6-0.2L239,305.5z"/>
		<path id="Path_1724" class="st2" d="M68.4,188.6c-3.2-11.8,3.7-23.9,15.5-27.1l22.3-6.1c5.7-1.5,11.7-0.8,16.8,2.1
			c5.1,2.9,8.8,7.7,10.3,13.4l22.8,83.5c3.1,11.6-5.9,14.1-15.5,16.7c-0.9,0.2-1.8,0.5-2.7,0.8l-22.3,6.1c-1.4,0.4-2.9,0.8-4.3,1.2
			c-0.6,0.1-1.1,0.3-1.6,0.4l-11.5,16.6c4.2,2.4,9.2,3,13.9,1.6l39.4-10.7c10-2.7,15.8-13,13.1-23l-28.6-104.3
			c-1.3-4.8-4.4-8.9-8.7-11.3c-4.3-2.5-9.4-3.1-14.2-1.8l-39.4,10.7c-10,2.7-15.8,13-13.1,23c0.1,0.4,11.5,42.4,19.9,72.8l5.1-2.6
			C78.7,225.8,68.4,188.6,68.4,188.6 M136.6,287.9c-1.1,1.9-2.8,3.3-4.9,3.8c-0.7,0.2-1.4,0.3-2.2,0.3c-4.5,0-8.2-3.7-8.2-8.2
			s3.7-8.2,8.2-8.2c4.5,0,8.2,3.7,8.2,8.2C137.7,285.3,137.3,286.7,136.6,287.9"/>
		<path id="Path_1725" class="st2" d="M349.9,226.3H223.6l7.3,63.1l112.5,4.5L349.9,226.3z M285.8,227.5c1.6,0,2.9,1.3,2.9,2.9
			s-1.3,2.9-2.9,2.9c-1.6,0-2.9-1.3-2.9-2.9c0,0,0,0,0,0C282.9,228.8,284.2,227.5,285.8,227.5 M228.5,233.2l117.5,2.5l-5.8,55.9
			l-104.9-3.5L228.5,233.2z"/>
		<path id="Path_1726" class="st1" d="M241.5,291.9l-12.3-0.5l-3.4,10.5c2.7,0,7.5,0.1,13.7,0.2L241.5,291.9z"/>
		<path id="Path_1727" class="st1" d="M282.2,326.3h20.6l-1.9-9.1l-19.3,0.3L282.2,326.3z"/>
		<path id="Path_1728" class="st1" d="M303.7,313.8l13.9-0.2l-2.3-6.8l-13.1-0.2L303.7,313.8z"/>
		<path id="Path_1729" class="st1" d="M321.2,313.5l13.6-0.2l-2.1-6.2l-13.8-0.2L321.2,313.5z"/>
		<path id="Path_1730" class="st1" d="M301.5,303.1l12.6,0.2l-3-8.7l-11.5-0.5L301.5,303.1z"/>
		<path id="Path_1731" class="st1" d="M306.3,326.3H322l-3.2-9.3l-14.4,0.2L306.3,326.3z"/>
		<path id="Path_1732" class="st1" d="M317.8,303.4c4.9,0.1,9.6,0.2,13.8,0.2l-2.9-8.3l-13.8-0.6L317.8,303.4z"/>
		<path id="Path_1733" class="st1" d="M236.7,318.2l-16,0.2l-2.5,7.9h17.1L236.7,318.2z"/>
		<path id="Path_1734" class="st1" d="M261.4,326.3h17.4l-0.6-8.7l-16.8,0.3L261.4,326.3z"/>
		<path id="Path_1735" class="st1" d="M281.5,314.1l18.8-0.3l-1.5-7.3c-6-0.1-12-0.2-17.8-0.3L281.5,314.1z"/>
		<path id="Path_1736" class="st1" d="M261.4,314.4l16.6-0.2l-0.5-8c-5.6-0.1-11-0.2-16.1-0.3V314.4z"/>
		<path id="Path_1737" class="st1" d="M280.7,302.8c5.7,0.1,11.6,0.2,17.3,0.3l-1.9-9l-16.1-0.6L280.7,302.8z"/>
		<path id="Path_1738" class="st1" d="M135.4,267.4c0.9-0.3,1.9-0.5,2.8-0.8c10.3-2.8,15.2-4.5,13.1-12.5l-22.8-83.5
			c-1.3-4.8-4.4-8.9-8.7-11.3c-4.3-2.5-9.4-3.1-14.2-1.8l-22.3,6.1c-10,2.7-15.8,13-13.1,23c0,0,10,36.5,16.9,61.3l22.9-11.7
			l14.2,19.2l-13,18.8c0.7-0.2,1.4-0.4,2-0.6L135.4,267.4z"/>
		<path id="Path_1739" class="st1" d="M342.9,326.3h16.2l-5.4-9.9l-14.1,0.2L342.9,326.3z"/>
		<path id="Path_1740" class="st1" d="M284.4,229.5c0.3,0,0.5-0.2,0.5-0.5s-0.2-0.5-0.5-0.5c-0.3,0-0.5,0.2-0.5,0.5c0,0,0,0,0,0
			C283.9,229.3,284.1,229.5,284.4,229.5"/>
		<path id="Path_1741" class="st1" d="M344.1,329.7l4.4,12.8h19.4l-7.4-13.5v0.7H344.1z"/>
		<path id="Path_1742" class="st2" d="M316.2,171.2l14.4-80.1l-133.9-4.5l2,78.9L316.2,171.2z M319.3,99l-10.4,65.6l-101.6-5.4
			l-1.6-62.8L319.3,99z"/>
		<path id="Path_1743" class="st1" d="M106.3,247.9l-8,4.9l7.1,7.6l6.2-6.2L106.3,247.9z"/>
		<path id="Path_1744" class="st2" d="M262.4,180.8l1.2-8.7l-13.2-0.6v8.4L262.4,180.8z"/>
		<path id="Path_1745" class="st1" d="M231,235.4l5.9,48.1l98.9,3.3l5.1-49.1L231,235.4z M258.4,276.9l-8-15.6l-4.5,14.7l-6.9-23.3
			l3.3-1l3.7,12.5l3.7-11.9l7.7,15l4.3-17.2l3.3,0.8L258.4,276.9z M292.1,277.9l-6.6-16.9l-6,14.1l-6.6-22.4l3.3-1l3.9,13.3
			l5.6-13.1l5.7,14.8l4.2-16.6l3.3,0.8L292.1,277.9z M317.6,261.7l-5.8,14.2l-6.6-22.5l3.3-1l3.9,13.3l5.4-13.1l5.8,14.9l4.3-16.7
			l3.3,0.9l-6.9,26.9L317.6,261.7z M330.4,275.9c-1.5,0-2.7-1.2-2.7-2.7s1.2-2.7,2.7-2.7c1.5,0,2.7,1.2,2.7,2.7
			C333.2,274.6,331.9,275.9,330.4,275.9"/>
		<path id="Path_1746" class="st1" d="M338.4,313.3l13.4-0.2l-3.1-5.7c-3.9-0.1-8-0.1-12.4-0.2L338.4,313.3z"/>
		<path id="Path_1747" class="st1" d="M332.3,295.5l2.8,8.2l11.7,0.2l-4.4-8L332.3,295.5z"/>
		<path id="Path_1748" class="st1" d="M304.6,159.7L314,101l-106.2-2.5l1.4,56.1L304.6,159.7z"/>
		<path id="Path_1749" class="st1" d="M326.8,329.7l4.4,12.8h13.8l-4.4-12.8H326.8z"/>
		<path id="Path_1750" class="st1" d="M261.4,329.7v12.8h18.5l-0.8-12.8H261.4z"/>
		<path id="Path_1751" class="st1" d="M330.4,272.5c-0.4,0-0.7,0.3-0.7,0.7s0.3,0.7,0.7,0.7s0.7-0.3,0.7-0.7c0,0,0,0,0,0
			C331.1,272.8,330.8,272.5,330.4,272.5L330.4,272.5"/>
		<path id="Path_1752" class="st1" d="M282.5,329.7l0.8,12.8h22.9l-2.6-12.8H282.5z"/>
		<path id="Path_1753" class="st1" d="M238,329.7l-2.3,12.8H258v-12.8H238z"/>
		<path id="Path_1754" class="st2" d="M232,188.4l55.4,4.5v-6.8l-56-4.3L232,188.4z"/>
		<path id="Path_1755" class="st1" d="M217.1,329.7l-4.1,12.8h19.3l2.3-12.8H217.1z"/>
		<path id="Path_1756" class="st1" d="M307,329.7l2.6,12.8h17.9l-4.4-12.8H307z"/>
		<path id="Path_1757" d="M137.5,157.9c-1.5-5.7-5.2-10.5-10.3-13.4c-5.1-2.9-11.1-3.7-16.8-2.1L71,153.1
			c-11.8,3.2-18.7,15.4-15.5,27.1c0.1,0.2,3.1,11.3,7.1,26.2l0.5-0.7l2.8,2l-2.1,3c3.7,13.6,8.1,29.5,11.8,43l3.1-1.6
			c-8.4-30.4-19.8-72.4-19.9-72.8c-2.7-10,3.2-20.2,13.1-23l39.4-10.7c4.8-1.3,9.9-0.6,14.2,1.8c4.3,2.4,7.5,6.5,8.7,11.3L162.8,263
			c2.7,10-3.2,20.2-13.1,23l-39.4,10.7c-4.6,1.4-9.6,0.8-13.9-1.6l-2,2.8c3.3,1.9,7,2.9,10.8,2.9c2,0,4-0.3,6-0.8l39.3-10.7
			c11.8-3.2,18.7-15.4,15.5-27.1L137.5,157.9z"/>
		<path id="Path_1758" d="M114,276.8l22.3-6.1c0.9-0.3,1.8-0.5,2.7-0.8c9.6-2.6,18.6-5.1,15.5-16.7l-22.8-83.5
			c-1.5-5.7-5.2-10.5-10.3-13.4c-5.1-2.9-11.1-3.7-16.8-2.1l-22.3,6.1c-11.8,3.2-18.7,15.4-15.5,27.1c0,0,10.2,37.2,17,61.9l3.1-1.6
			C80.1,223.2,70,186.7,70,186.7c-2.7-10,3.2-20.2,13.1-23l22.3-6.1c4.8-1.3,9.9-0.6,14.2,1.8c4.3,2.4,7.5,6.5,8.7,11.3l22.8,83.5
			c2.1,8-2.8,9.7-13.1,12.5c-0.9,0.2-1.8,0.5-2.8,0.8l-22.4,6.1c-0.7,0.2-1.4,0.4-2,0.6l-3,4.3c0.5-0.1,1.1-0.3,1.6-0.4
			C111,277.7,112.5,277.3,114,276.8"/>
		<path id="Path_1759" d="M63,205.7l-0.5,0.7l-27,38.5l49.2,75.4l2.9-1.9l-47.9-73.5l24-34.3l2.1-3L63,205.7z"/>
		<path id="Path_1760" d="M108,278.4l3-4.3l13-18.8l-14.2-19.2l-22.9,11.7l-3.1,1.6l-5.1,2.6l-3.1,1.6l-7.1,3.6l1.5,3l38.8-19.8
			l11,14.9l-31.2,45l2.8,1.9l3.1-4.5l2-2.8L108,278.4z"/>
		<path id="Path_1761" d="M107.1,243.5L93,252.2l12.3,13.2l10.9-10.9L107.1,243.5z M98.3,252.9l8-4.9l5.2,6.3l-6.2,6.2L98.3,252.9z"
			/>
		<path id="Path_1762" d="M131.9,275.8c-3.9-2.2-8.9-0.9-11.2,3.1c-2.2,3.9-0.9,8.9,3.1,11.2c1.2,0.7,2.6,1.1,4,1.1
			c0.7,0,1.5-0.1,2.2-0.3c4.4-1.2,6.9-5.7,5.7-10C135.2,278.6,133.8,276.8,131.9,275.8 M132,285.2c-1.3,2.3-4.2,3.1-6.5,1.8
			c-2.3-1.3-3.1-4.2-1.8-6.5c0.6-1.1,1.7-1.9,2.9-2.2l0,0c0.4-0.1,0.8-0.2,1.3-0.2c2.6,0,4.8,2.1,4.8,4.8
			C132.6,283.7,132.4,284.5,132,285.2"/>
		<path id="Path_1763" d="M245.6,168.3h3.4v1.7l13.2,0.6l0.3-1.9l3.4,0.5l-0.2,1.6l52.1,2.5l15.6-86.9l-141.5-4.7l2.1,85.7l51.6,2.5
			L245.6,168.3z M329.3,89.7l-14.4,80.1l-117.6-5.7l-2-78.9L329.3,89.7z"/>
		<path id="Path_1764" d="M307.5,163.3l10.4-65.6L204.3,95l1.6,62.8L307.5,163.3z M314,101l-9.3,58.8l-95.4-5.1l-1.5-56.1L314,101z"
			/>
		<path id="Path_1765" d="M249,170.1v-1.7h-3.4v9.9l3.4,0.3V170.1z"/>
		<path id="Path_1766" d="M262.5,168.8l-0.3,1.9l-1.2,8.7l3.4,0.3l1.2-8.8l0.2-1.6L262.5,168.8z"/>
		<path id="Path_1767" d="M249,178.5l-3.4-0.3l-19.5-1.5l1.4,13.5l61.9,5v-13.7l-25-1.9l-3.4-0.3L249,178.5z M286,191.5l-55.4-4.5
			l-0.7-6.6l56,4.3V191.5z"/>
		
			<rect id="Rectangle_177" x="157.9" y="59.1" transform="matrix(0.6669 -0.7451 0.7451 0.6669 -16.8536 150.2264)" width="3.4" height="69.8"/>
		
			<rect id="Rectangle_178" x="176.3" y="70.9" transform="matrix(0.7572 -0.6532 0.6532 0.7572 -12.7017 137.0609)" width="3.4" height="29.5"/>
		
			<rect id="Rectangle_179" x="190.2" y="29.4" transform="matrix(0.896 -0.444 0.444 0.896 -3.6506 90.731)" width="3.4" height="47.6"/>
		
			<rect id="Rectangle_180" x="310.2" y="59.1" transform="matrix(0.4328 -0.9015 0.9015 0.4328 131.8412 331.1693)" width="37.8" height="3.4"/>
		
			<rect id="Rectangle_181" x="331.7" y="70.3" transform="matrix(0.7359 -0.6771 0.6771 0.7359 42.6839 253.4061)" width="28.9" height="3.4"/>
		
			<rect id="Rectangle_182" x="335.4" y="87.1" transform="matrix(0.9221 -0.387 0.387 0.9221 -6.4094 145.8573)" width="47.1" height="3.4"/>
		<path id="Path_1768" d="M352.3,221.5H218.5l7.8,68l-18,56.4h165.4l-28.4-52L352.3,221.5z M350.1,304l-0.1,3.4l-1.2,0l3.1,5.7
			l2.9,0l0.1,3.4l-1.1,0l5.4,9.9h1.5v2.7l7.4,13.5h-19.4l0.4,1.1l-3.2,1.1l-0.8-2.3h-13.8l0.4,1.1l-3.2,1.1l-0.8-2.3h-17.9l0.3,1.4
			l-3.3,0.7l-0.4-2.1h-22.9l0.1,1.6l-3.4,0.2l-0.1-1.8h-18.5v1.7H258v-1.7h-22.3l-0.4,2l-3.4-0.6l0.3-1.4H213l4.1-12.8h-1.3v-3.4
			h2.4l2.5-7.9l-1.3,0l-0.1-3.4l2.4,0l3.1-9.7c-0.6,0-1,0-1.1,0l-0.3-3.4c0.1,0,1,0,2.5,0l3.4-10.5l-1.3-0.1l0.1-3.4l1.5,0.1
			l-7.3-63.1h126.2l-6.5,67.6l1.6,0.1l-0.1,3.4l-1,0l4.4,8L350.1,304"/>
		<path id="Path_1769" d="M241.9,290l3.4,0.6L245,292l13.1,0.5v-1.7h3.4v1.8l15.3,0.6l-0.1-1.3l3.4-0.2l0.1,1.7l16.1,0.6l-0.3-1.3
			l3.3-0.7l0.5,2.2l11.5,0.5l-0.4-1.2l3.2-1.1l0.8,2.5l13.8,0.6l-0.4-1.1l3.2-1.1l0.8,2.3l10.2,0.4l1,0l0.1-3.4l-1.6-0.1L229.6,288
			l-1.5-0.1l-0.1,3.4l1.3,0.1l12.3,0.5L241.9,290z"/>
		<path id="Path_1770" d="M242.5,305.6c4.6,0.1,9.8,0.2,15.5,0.2v-3.4c-5.4-0.1-10.5-0.2-14.9-0.2L242.5,305.6z"/>
		<path id="Path_1771" d="M280.9,306.2c5.8,0.1,11.8,0.2,17.8,0.3l-0.7-3.4l-17.3-0.3L280.9,306.2z"/>
		<path id="Path_1772" d="M302.2,306.6l13.1,0.2l-1.2-3.4l-12.6-0.2L302.2,306.6z"/>
		<path id="Path_1773" d="M239.6,302.1c-6.2-0.1-11-0.2-13.7-0.2c-1.5,0-2.4,0-2.5,0l0.3,3.4c0.1,0,0.5,0,1.1,0
			c2.1,0,7.2,0.1,14.2,0.2L239.6,302.1z"/>
		<path id="Path_1774" d="M318.9,306.8l13.8,0.2l-1.2-3.4l-13.8-0.2L318.9,306.8z"/>
		<path id="Path_1775" d="M261.4,305.9c5.1,0.1,10.5,0.2,16.1,0.3l-0.2-3.4c-5.5-0.1-10.8-0.2-15.9-0.3L261.4,305.9z"/>
		<path id="Path_1776" d="M336.3,307.2l12.4,0.2c0.4,0,0.8,0,1.2,0l0.1-3.4l-3.2-0.1l-11.7-0.2L336.3,307.2z"/>
		<path id="Path_1777" d="M261.4,317.8l16.8-0.3l-0.2-3.4l-16.6,0.3V317.8z"/>
		<path id="Path_1778" d="M281.7,317.5l19.3-0.3l-0.7-3.4l-18.8,0.3L281.7,317.5z"/>
		<path id="Path_1779" d="M240.2,318.2l17.9-0.3v-3.4l-17.2,0.3L240.2,318.2z"/>
		<path id="Path_1780" d="M304.4,317.2l14.4-0.2l-1.2-3.4l-13.9,0.2L304.4,317.2z"/>
		<path id="Path_1781" d="M322.4,316.9l13.6-0.2l-1.2-3.4l-13.6,0.2L322.4,316.9z"/>
		<path id="Path_1782" d="M339.6,316.7l14.1-0.2l1.1,0l-0.1-3.4l-2.9,0l-13.4,0.2L339.6,316.7z"/>
		<path id="Path_1783" d="M237.3,314.8l-15.6,0.2l-2.4,0l0.1,3.4l1.3,0l16-0.2L237.3,314.8z"/>
		<path id="Path_1784" d="M344.1,329.7h16.5v-3.4h-17.7L344.1,329.7z"/>
		<path id="Path_1785" d="M235.2,326.3h-19.4v3.4h18.8L235.2,326.3z"/>
		<path id="Path_1786" d="M307,329.7h16.1l-1.2-3.4h-15.7L307,329.7z"/>
		<path id="Path_1787" d="M238,329.7h20v-3.4h-19.4L238,329.7z"/>
		<path id="Path_1788" d="M261.4,329.7h17.6l-0.2-3.4h-17.4L261.4,329.7z"/>
		<path id="Path_1789" d="M282.5,329.7h21.1l-0.7-3.4h-20.6L282.5,329.7z"/>
		<path id="Path_1790" d="M326.8,329.7h13.7l-1.2-3.4h-13.7L326.8,329.7z"/>
		<path id="Path_1791" d="M238.7,326.3l1.5-8.2l0.6-3.4l1.7-9.2l0.6-3.4L245,292l0.3-1.4l-3.4-0.6l-0.3,1.9l-1.9,10.2l-0.6,3.4
			l-1.7,9.3l-0.6,3.4l-1.5,8.1l-0.6,3.4l-2.3,12.8l-0.3,1.4l3.4,0.6l0.4-2l2.3-12.8L238.7,326.3z"/>
		<path id="Path_1792" d="M261.4,326.3v-35.4H258v53.3h3.4V326.3z"/>
		<path id="Path_1793" d="M282.2,326.3l-0.6-8.8l-0.2-3.4l-0.5-7.9l-0.2-3.4l-0.6-9.3l-0.1-1.7l-3.4,0.2l0.1,1.3l0.6,9.4l0.2,3.4
			l0.5,8l0.2,3.4l0.6,8.7l0.2,3.4l0.8,12.8l0.1,1.8l3.4-0.2l-0.1-1.6l-0.8-12.8L282.2,326.3z"/>
		<path id="Path_1794" d="M306.3,326.3l-1.9-9.1l-0.7-3.4l-1.5-7.2l-0.7-3.4l-1.8-8.9l-0.5-2.2l-3.3,0.7l0.3,1.3l1.9,9l0.7,3.4
			l1.5,7.3l0.7,3.4l1.9,9.1l0.7,3.4l2.6,12.8l0.4,2l3.3-0.7l-0.3-1.4l-2.6-12.8L306.3,326.3z"/>
		<path id="Path_1795" d="M325.6,326.3l-3.2-9.4l-1.2-3.4l-2.3-6.7l-1.2-3.4l-2.9-8.6l-0.8-2.5l-3.2,1.1l0.4,1.2l3,8.7l1.2,3.4
			l2.3,6.8l1.2,3.4l3.2,9.3l1.2,3.4l4.4,12.8l0.8,2.3l3.2-1.1l-0.4-1.2l-4.4-12.8L325.6,326.3z"/>
		<path id="Path_1796" d="M342.9,326.3l-3.3-9.7l-1.2-3.4l-2.1-6.1l-1.2-3.4l-2.8-8.2l-0.8-2.3l-3.2,1.1l0.4,1.1l2.9,8.3l1.2,3.4
			l2.1,6.2l1.2,3.4l3.3,9.6l1.2,3.4l4.4,12.8l0.8,2.3l3.2-1.1l-0.4-1.1l-4.4-12.8L342.9,326.3z"/>
		<path id="Path_1797" d="M344.6,234.3l-117.5-2.5l6.7,54.9l104.9,3.5L344.6,234.3z M236.9,283.4l-5.9-48.1l109.8,2.3l-5.1,49.1
			L236.9,283.4z"/>
		<path id="Path_1798" d="M284.4,231.9c1.6,0,2.9-1.3,2.9-2.9s-1.3-2.9-2.9-2.9s-2.9,1.3-2.9,2.9c0,0,0,0,0,0
			C281.5,230.6,282.8,231.9,284.4,231.9 M284.4,228.5c0.3,0,0.5,0.2,0.5,0.5c0,0.3-0.2,0.5-0.5,0.5c-0.3,0-0.5-0.2-0.5-0.5
			C283.9,228.7,284.1,228.5,284.4,228.5L284.4,228.5"/>
		<path id="Path_1799" d="M257.3,267.3l-7.7-15l-3.7,11.9l-3.7-12.5l-3.3,1l6.9,23.3l4.5-14.7l8,15.6l6.6-26l-3.3-0.8L257.3,267.3z"
			/>
		<path id="Path_1800" d="M291.4,266.7l-5.7-14.8l-5.6,13.1l-3.9-13.3l-3.3,1l6.6,22.4l6-14.1l6.6,16.9l6.8-27l-3.3-0.8L291.4,266.7
			z"/>
		<path id="Path_1801" d="M327.8,250.7l-4.3,16.7l-5.8-14.9l-5.4,13.1l-3.9-13.3l-3.3,1l6.6,22.5l5.8-14.2l6.5,16.8l6.9-26.9
			L327.8,250.7z"/>
		<path id="Path_1802" d="M330.4,270.4c-1.5,0-2.7,1.2-2.7,2.7s1.2,2.7,2.7,2.7c1.5,0,2.7-1.2,2.7-2.7l0,0
			C333.2,271.6,331.9,270.4,330.4,270.4 M330.4,273.8c-0.4,0-0.7-0.3-0.7-0.7c0-0.4,0.3-0.7,0.7-0.7s0.7,0.3,0.7,0.7
			C331.1,273.5,330.8,273.8,330.4,273.8"/>
	</g>
</g>
</svg>
