<?xml version="1.0" encoding="UTF-8" standalone="no"?>
<!-- Generator: Adobe Illustrator 27.9.0, SVG Export Plug-In . SVG Version: 6.00 Build 0)  -->

<svg
   version="1.1"
   id="Layer_1"
   x="0px"
   y="0px"
   viewBox="0 0 67.000001 65"
   xml:space="preserve"
   sodipodi:docname="Change-the-world.svg"
   inkscape:version="1.1.2 (0a00cf5339, 2022-02-04)"
   width="67"
   height="65"
   xmlns:inkscape="http://www.inkscape.org/namespaces/inkscape"
   xmlns:sodipodi="http://sodipodi.sourceforge.net/DTD/sodipodi-0.dtd"
   xmlns="http://www.w3.org/2000/svg"
   xmlns:svg="http://www.w3.org/2000/svg"><defs
   id="defs136" /><sodipodi:namedview
   id="namedview134"
   pagecolor="#ffffff"
   bordercolor="#666666"
   borderopacity="1.0"
   inkscape:pageshadow="2"
   inkscape:pageopacity="0"
   inkscape:pagecheckerboard="0"
   showgrid="false"
   inkscape:zoom="5.8456376"
   inkscape:cx="10.862801"
   inkscape:cy="39.687715"
   inkscape:window-width="1916"
   inkscape:window-height="1029"
   inkscape:window-x="1920"
   inkscape:window-y="49"
   inkscape:window-maximized="1"
   inkscape:current-layer="Layer_1" />
<style
   type="text/css"
   id="style2">
	.st0{fill:#FFFFFF;}
	.st1{fill:#27AAE1;}
</style>


<path
   id="Path_1805"
   class="st0"
   d="m 31.5,40 1.3,-9.3 -0.8,-7 -1.2,16.1 z" />


<g
   id="g131"
   transform="translate(-6.2,-3.7984447)">
	<path
   class="st0"
   d="m 29.2,29.5 0.3,-0.1 v 0.1 l 0.7,-0.1 h 0.3 v 0.8 l 0.6,1.2 c 0,0.2 0.1,0.4 0.2,0.6 l 1,-0.5 0.3,1.7 -0.5,0.7 3.7,0.4 C 35.7,34 35.4,33.5 35.4,33.4 v -0.1 l -0.2,-1 c 0,-0.3 0.1,-0.6 0.3,-0.8 0.2,-0.2 0.4,-0.2 0.6,-0.2 0.1,0 0.2,0 0.4,0 0.4,0 0.9,0.1 1.2,0.3 0.4,0.2 0.7,0.5 1.1,0.8 0.2,0.2 0.5,0.3 0.8,0.3 0.1,0.1 0.2,0.1 0.3,0.1 0.1,0 0.2,0 0.4,-0.2 l 0.1,-0.1 C 40.3,32.3 40.3,32.2 40.2,32.1 40.1,32 40,31.9 40,31.8 40,31.7 39.9,31.7 39.9,31.6 39.8,31.4 39.7,31.2 39.7,31 39.8,30.7 40,30.4 40.2,30.2 l 0.1,-0.1 1,-0.3 h 0.1 c 0.2,0 0.5,0 0.7,0 0.1,-0.1 0.2,-0.2 0.3,-0.4 0,-0.3 0,-0.7 0.1,-1 0,-0.1 0.1,-0.5 0.2,-0.8 v -0.2 h 2.6 V 27.2 L 44.9,26.5 44.7,26 43.9,25.2 43.7,24.4 44.3,23.6 v -0.4 l -0.1,-0.1 -1,0.1 -0.8,0.5 -1.1,0.6 -1.2,0.4 -0.9,-0.3 V 23 c 0.1,-0.1 0.2,-0.7 0.3,-0.9 0,-0.2 -0.2,-0.4 -0.3,-0.5 -0.2,-0.1 -0.8,-0.4 -1,-0.5 h -0.5 c -0.2,0.1 -0.8,0.4 -1,0.5 -0.6,0.2 -1.2,0.2 -1.8,0.1 -0.1,0 -0.3,0 -0.4,0 -0.2,0 -0.4,0 -0.6,0 -0.2,0 -0.3,0 -0.5,0 -0.1,0 -0.1,0 -0.2,0 -0.1,0.1 -0.3,0.2 -0.4,0.3 -0.4,0.2 -0.9,0.3 -1.4,0.2 -0.1,0 -0.4,-0.1 -0.5,-0.2 l -0.7,0.2 v -0.1 c -0.6,0.7 -1.2,1.4 -1.7,2.2 0.2,0.3 0.5,0.5 0.7,0.8 0,0 0.1,0.1 0.1,0.2 0,0.1 0.1,0.3 -0.4,0.9 v 0.1 h -0.1 c -0.5,0.3 -0.8,0.4 -1,0.5 -0.1,0.6 -0.2,1.3 -0.3,2 0.1,0.2 0.3,0.5 0.4,0.7 0.4,0.1 0.9,0.1 1.3,0 z m 2.1,2.3 c 0,0 0.1,0 0,0 z"
   id="path9" />
	<path
   class="st0"
   d="m 29.7,29.9 0.1,2.8 1.1,-0.6 c 0,-0.1 -0.1,-0.4 -0.2,-0.6 l -0.6,-1.3 v -0.3 c 0,0 -0.4,0 -0.4,0 z"
   id="path11" />
	<path
   class="st0"
   d="m 39.9,37.1 c -0.7,-0.4 -1.2,-0.8 -1.6,-1.4 -0.1,0 -0.1,0 -0.2,0 -0.2,0.1 -0.5,0.1 -0.7,0.1 C 37,35.7 36.5,35 36.2,34.6 l -0.6,1.2 h 0.1 l 1.3,0.1 1.2,0.5 1,0.7 0.3,0.7 0.2,0.6 v 0.4 l 0.7,0.5 1.1,0.5 0.2,0.6 c 0,0.4 0.1,0.7 0.1,1.1 0.1,0.3 0,0.7 0,1.1 0,0 0,0.1 0,0.2 -0.1,0.2 -0.1,0.4 -0.1,0.6 0,0.4 0.2,0.7 0.4,0.9 l 0.6,0.7 0.6,0.1 1,-0.2 0.6,-0.3 c 0.3,-0.3 0.6,-0.8 0.7,-0.9 0.3,-0.3 0.6,-0.7 0.9,-1 l 0.1,-0.1 c 0.1,-0.1 0.2,-0.1 0.2,-0.2 -0.1,-0.1 -0.1,-0.3 -0.1,-0.4 0,-0.3 0,-0.6 0,-0.9 V 41 l 0.4,-1 0.4,-1 0.2,-0.5 V 37.6 L 47.5,37.2 46.6,37 c -0.4,-0.1 -0.9,-0.3 -1,-0.3 -0.4,0 -1.1,-0.8 -1.1,-0.8 -0.3,-0.4 -0.4,-0.8 -0.5,-1.3 0,-0.2 -0.1,-0.3 -0.1,-0.4 v -0.1 c -0.2,0 -0.3,0 -0.5,0 -0.2,0 -0.5,0 -0.7,0 -0.1,0 -0.6,0.2 -1,0.3 -0.1,0 -0.2,0.1 -0.3,0.1 -0.1,0.1 -0.1,0.2 -0.2,0.2 -0.1,0.2 -0.2,0.4 -0.2,0.6 0,0.1 -0.1,0.2 -0.1,0.3 -0.1,0.1 -0.1,0.3 0,0.5 0,0.1 0.1,0.2 0,0.4 0,0.5 -1,0.6 -1,0.6 z"
   id="path13" />
	<polygon
   class="st0"
   points="32.1,32.1 29.9,33.2 30,36.1 34.5,36.7 35.6,34.6 31.3,34.1 32.2,32.8 "
   id="polygon15" />
	<path
   class="st0"
   d="m 48.6,21.5 c 0,0.8 0.1,1 0.2,1.1 0.2,0.2 0.5,0.3 0.8,0.4 h 0.1 c 0.1,0 0.3,0 0.4,0 0.1,0 0.3,0 0.4,0 0.1,0 0.1,0 0.2,0 0.4,0 0.7,-0.1 1.1,-0.1 -0.9,-1.2 -2.1,-2.3 -3.4,-3.1 0.1,0.6 0.2,1.5 0.2,1.6 z"
   id="path17" />
	<path
   class="st0"
   d="m 28.9,25.3 c -0.2,-0.2 -0.3,-0.4 -0.5,-0.6 -0.3,0.5 -0.5,1 -0.7,1.5 0.1,0 0.6,-0.2 1,-0.5 0.1,-0.2 0.1,-0.3 0.2,-0.4 z"
   id="path19" />
	<path
   class="st0"
   d="m 18.9,17.4 c 1.6,0.5 3.3,-0.5 3.7,-2.1 l 0.2,-0.8 C 22.1,14.3 21.1,13.9 21,13.4 20.3,12.8 19.5,12.6 18.6,12.7 17.7,12.7 16.8,12.5 16,12.1 l -0.3,1.2 c -0.5,1.6 0.5,3.3 2,3.8 l 1.2,0.3 c 0,0 0,0 0,0 z"
   id="path21" />
	<path
   class="st0"
   d="m 53.4,30.7 -1,1.3 c -0.2,0.2 -0.4,0.4 -0.5,0.6 v 2.3 l 0.4,0.8 c 0.3,0.1 0.5,0.4 0.6,0.6 0.1,0.2 0.2,0.5 0.2,0.7 l 0.4,-0.4 0.2,0.2 c 0.1,0.2 0.3,0.3 0.4,0.5 0.6,-1.7 0.9,-3.4 0.9,-5.2 0,-0.9 -0.1,-1.8 -0.4,-2.6 -0.2,0.1 -0.5,0.2 -0.7,0.3 -0.1,0.1 -0.3,0.5 -0.5,0.9 z"
   id="path23" />
	<path
   class="st0"
   d="m 16.3,16.9 -0.6,1.7 c 0.8,0.2 1.7,0.4 2.5,0.7 l 0.2,-1.5 -0.8,-0.2 c -0.5,-0.2 -0.9,-0.4 -1.3,-0.7 z"
   id="path25" />
	<path
   class="st0"
   d="m 20.5,20.9 c 0,-0.1 -0.1,-0.1 0,0 -0.1,0 0,0 0,0 z"
   id="path27" />
	<path
   class="st0"
   d="m 27,28.7 c 0,-0.1 0.1,-0.7 0.2,-1.2 0.1,-0.2 0.1,-0.3 0.1,-0.4 -0.2,0.7 -0.4,1.4 -0.6,1.9 0.2,0.1 0.3,0.2 0.5,0.2 C 27.1,29.1 27,28.9 27,28.7 Z"
   id="path29" />
	<path
   class="st0"
   d="m 15.2,18.6 0.6,-2 C 15.7,16.4 15.5,16.2 15.4,16 15,15.2 14.8,14.2 15.1,13.3 L 15.2,12.9 15.1,13 C 14.5,12.5 14.2,11.7 14.4,10.9 14.5,10.5 14.7,10.3 15,10.1 15.3,10 15.6,9.9 15.9,10 l 0.3,-1 c 0,-0.1 0,-0.1 0,-0.1 0.6,-1.9 2.5,-3 4.4,-2.5 l 1.1,0.3 c 0.1,0 0.1,0 0.1,0 1.9,0.6 3,2.5 2.5,4.4 l -1.1,4.2 c -0.5,1.8 -2.3,2.9 -4.1,2.6 l -0.2,1.5 c 1.7,0.3 3.4,0.2 5.1,-0.1 -0.2,-2.2 0,-4.5 0.6,-6.7 0.9,-2.8 1,-4.8 0.2,-6.1 C 24.2,5.6 23.3,5 22.2,4.8 h -0.1 c -1.4,-0.6 -3,-0.6 -4.5,-0.1 -2.1,0.7 -3.8,2.6 -5.1,5.6 -0.7,1.7 -1.6,3.4 -2.5,5 1.4,1.1 3,2.1 4.6,3.2 0.2,0 0.4,0.1 0.6,0.1 z"
   id="path31" />
	<polygon
   class="st0"
   points="66,64.3 66.2,64.5 70.7,62.9 "
   id="polygon33" />
	<path
   class="st0"
   d="m 61.4,15.4 c -0.3,-0.2 -0.7,-0.3 -1,-0.3 h -0.1 c 0.3,0 0.7,0.1 1.1,0.3 -0.3,0.1 -0.5,0.1 -0.7,0.2 -0.1,-0.2 -0.3,-0.4 -0.4,-0.5 0,0 0,0 -0.1,0 -0.2,0 -0.4,0 -0.5,0 -0.6,0.2 -1.1,0.5 -1.4,1 0.9,-0.1 1.7,-0.2 2.5,-0.5 0.2,-0.1 0.4,-0.1 0.6,-0.2 z"
   id="path35" />
	<polygon
   class="st0"
   points="55.3,61.1 55.8,61 57.5,61 57.8,62.7 57.9,62.7 57.5,60.9 55.8,60.9 55.3,61 50.7,61.9 50.9,62.2 51,62.3 "
   id="polygon37" />
	<path
   class="st0"
   d="M 15.3,10.6 C 15.2,10.7 15,10.8 15,11 c -0.1,0.5 0,1 0.4,1.3 l 0.4,-1.8 c -0.2,0 -0.3,0 -0.5,0.1 z"
   id="path39" />
	<path
   class="st0"
   d="m 63.4,42.9 v 0 c -0.5,0 -1,0 -1.5,-0.1 -0.7,1.3 -5.1,10.5 -5.7,17.7 H 57 57.6 V 60.4 H 57 c 1.5,-8 5.8,-16.5 6.4,-17.5 z"
   id="path41" />
	<path
   class="st0"
   d="m 62,26.3 c -0.1,0 -0.3,0 -0.4,0 l 0.2,0.6 1.1,-0.5 0.9,-0.4 -0.3,-0.6 c -0.4,0.5 -0.9,0.8 -1.5,0.9 z"
   id="path43" />
	<path
   class="st0"
   d="m 61.9,17.4 v 0 c 0,-0.2 -0.1,-0.3 -0.2,-0.4 -1,0.4 -2,0.6 -3.1,0.6 -0.4,0 -0.7,-0.1 -1.1,-0.1 0,0.1 -0.1,0.3 -0.1,0.4 1.5,0.4 3.1,0.2 4.5,-0.5 z"
   id="path45" />
	<path
   class="st0"
   d="m 62.8,25.3 c 0.3,-0.2 0.6,-0.5 0.8,-0.8 0.8,-1.5 1,-3.2 0.6,-4.8 C 64,18.8 63.7,18 63.3,17.3 v 0 c 0.4,0.8 0.7,1.5 0.8,2.3 0.4,1.6 0.2,3.3 -0.6,4.8 -0.2,0.3 -0.5,0.6 -0.7,0.9 0.7,-2.4 0.5,-5 -0.6,-7.4 -1,0.5 -2.1,0.8 -3.1,0.8 -0.6,0 -1.2,-0.1 -1.7,-0.3 -0.1,0.9 -0.1,1.8 0.1,2.7 0.2,1.4 0.8,2.6 1.9,3.6 0.6,0.8 1.6,1.1 2.6,1 0.3,-0.1 0.6,-0.2 0.8,-0.4 z"
   id="path47" />
	<path
   class="st0"
   d="m 62.6,16.5 c 0.1,0.1 0.2,0.3 0.3,0.4 -0.1,-0.1 -0.2,-0.3 -0.3,-0.4 z"
   id="path49" />
	<path
   class="st0"
   d="m 61.4,16.5 c -0.1,-0.1 -0.2,-0.3 -0.3,-0.4 0.3,-0.1 0.6,-0.2 0.8,-0.3 -0.3,0.1 -0.5,0.2 -0.8,0.3 -0.9,0.3 -1.9,0.5 -2.9,0.5 -0.1,0 -0.2,0 -0.3,0 -0.1,0.1 -0.1,0.2 -0.2,0.4 1.3,0.2 2.5,-0.1 3.7,-0.5 z"
   id="path51" />
	<path
   class="st0"
   d="m 18.1,23.5 c 0.2,0.1 0.3,0.3 0.5,0.4 0.6,0.5 1.2,1 1.9,1.5 v 0 c -0.7,-0.5 -1.3,-1 -1.9,-1.5 0.9,-1.5 1.6,-2.6 1.8,-3.1 -0.3,-0.1 -0.5,-0.3 -0.8,-0.4 -0.3,0.5 -0.8,1.9 -1.5,3.1 z"
   id="path53" />
	<path
   class="st0"
   d="m 29.2,32.8 -0.1,-2.9 c -4.9,0.7 -14.3,-8.6 -14.7,-9 l 0.4,-0.4 c 0,0.1 1.1,1.2 2.8,2.6 0.6,-1.2 1.2,-2.5 1.4,-3 -2.5,-0.9 -5.1,-1.5 -7.8,-1.6 L 9.9,31.2 c 1.8,-1.1 3.4,-2.4 4.7,-4 -0.4,-0.5 -0.8,-1 -1.1,-1.6 L 14,25.3 c 2.9,5.1 13.3,12.8 15.6,14.5 z"
   id="path55" />
	<path
   class="st0"
   d="m 66.6,33 -2,-6.7 -1.4,0.6 -1.7,0.7 -1.6,0.6 0.2,1.2 c 0.2,1.4 0.5,3.5 0.8,5.7 1.5,-1.8 2.8,-3.9 3.6,-6.2 0.1,-0.1 0.1,-0.2 0.1,-0.2 l 0.5,0.2 c -0.1,0 -0.1,0 -0.1,0.1 -1,2.8 -4,9.1 -9.8,9.8 V 40 c 1.3,0 7.5,-0.3 11.4,-7 0,-0.1 0,0 0,0 z"
   id="path57" />
	<path
   class="st0"
   d="m 53.4,37.4 -0.3,0.3 v 1.1 l -2.7,0.3 1.9,1.4 2.3,-0.5 v -1.3 c -0.5,-0.4 -0.8,-0.8 -1.2,-1.3 z"
   id="path59" />
	<path
   class="st0"
   d="m 66.7,32.9 0.5,0.4 c 0,0 0,0 0,-0.1 z"
   id="path61" />
	<path
   class="st0"
   d="m 52.5,38.3 v -0.5 c 0,-0.2 0,-0.5 0,-0.6 0,-0.2 0,-0.5 -0.1,-0.7 C 52.3,36.4 52.2,36.2 52,36.1 H 51.9 L 51.4,35 v -2.5 c 0,-0.3 0.3,-0.7 0.6,-1 l 0.9,-1.2 c 0.2,-0.3 0.4,-0.7 0.6,-1 0,0 0.1,-0.1 1,-0.4 -0.4,-1.9 -1.2,-3.8 -2.4,-5.4 h -0.5 c -0.1,0 -0.3,0 -0.9,0.1 h -0.1 c -0.1,0 -0.1,0 -0.2,0 -0.1,0 -0.2,0 -0.3,0 -0.2,0 -0.3,0 -0.5,0 H 49.5 C 49,23.5 48.6,23.3 48.3,23 48,22.6 47.9,22 48,21.5 v -0.1 c 0,-0.1 -0.2,-1.1 -0.3,-1.9 h 0.1 c -2.2,-1.3 -4.7,-2 -7.2,-2 -3.6,0 -7.1,1.4 -9.7,3.9 h 0.1 0.1 c 0.1,0 0.5,0.2 0.6,0.2 0.3,0 0.6,0 0.9,-0.1 0.2,-0.3 0.5,-0.4 0.8,-0.5 0.1,0 0.1,0 0.2,0 0.3,0 0.5,0 0.7,0 0.2,0 0.3,0 0.4,0 0.2,0 0.4,0 0.6,0 0.4,0.1 0.9,0.1 1.4,0 0.3,-0.2 1.1,-0.6 1.1,-0.6 h 0.1 0.6 0.1 c 0.1,0.1 0.9,0.5 1.1,0.6 0.3,0.2 0.8,0.8 0.6,1.2 0,0.3 -0.1,0.5 -0.2,0.8 v 0.9 l 0.1,0.1 0.9,-0.3 1.1,-0.6 0.9,-0.6 1.4,-0.1 0.4,0.4 v 0.8 l -0.6,0.8 0.1,0.4 0.8,0.8 0.3,0.6 0.5,0.8 v 0.9 h -2.7 c -0.1,0.3 -0.2,0.6 -0.2,0.7 0,0.2 0,0.5 0,0.8 v 0.1 c -0.1,0.2 -0.3,0.7 -0.7,0.8 -0.2,0 -0.5,0 -0.8,0 l -0.8,0.2 c -0.1,0.1 -0.2,0.3 -0.3,0.4 0,0.1 0,0.2 0.1,0.3 0,0 0.1,0.1 0.1,0.2 0,0.1 0,0.2 0.1,0.3 0.2,0.3 0.4,0.8 0.1,1 l -0.1,0.1 c -0.2,0.3 -0.6,0.4 -0.9,0.4 -0.1,0 -0.2,0 -0.3,0 -0.4,0 -0.8,-0.2 -1.1,-0.4 -0.4,-0.2 -0.7,-0.5 -1.1,-0.7 -0.2,-0.1 -0.5,-0.2 -0.8,-0.2 -0.2,0 -0.3,0 -0.4,0 -0.1,0 -0.1,0 -0.2,0.1 0,0.1 -0.1,0.2 -0.1,0.3 l 0.2,0.9 c 0.1,0.3 0.4,0.9 0.5,1 0.3,0.4 0.9,1.2 1.1,1.2 0.2,0 0.4,-0.1 0.5,-0.1 0.2,-0.1 0.7,-0.2 0.8,0.2 0.3,0.4 0.7,0.8 1.1,1.1 0.1,0 0.3,0 0.4,-0.1 -0.1,-0.2 -0.1,-0.5 0,-0.8 0,-0.1 0.1,-0.2 0.1,-0.3 0,-0.3 0.2,-0.7 0.4,-0.9 0.1,-0.1 0.1,-0.1 0.1,-0.1 0.1,-0.2 0.2,-0.2 0.5,-0.3 0.5,-0.1 1,-0.3 1,-0.3 0.3,-0.1 0.5,-0.1 0.8,-0.1 0.7,0 1,0.1 1,0.4 v 0.1 c 0.1,0.1 0.1,0.3 0.1,0.5 0.1,0.3 0.2,0.6 0.4,0.9 0.2,0.2 0.5,0.4 0.7,0.6 0.4,0.1 0.7,0.2 1.1,0.3 l 1.1,0.3 0.4,0.7 v 1.2 l -0.3,0.6 -0.4,1 -0.4,0.9 c 0,0.4 0,0.7 0,1 0.3,0.4 0,0.7 -0.2,0.9 l -0.1,0.1 c -0.3,0.3 -0.6,0.6 -0.8,0.9 -0.1,0.2 -0.6,0.9 -0.7,1 l -0.8,0.4 -1.2,0.2 -0.9,-0.2 -0.7,-0.8 c -0.4,-0.3 -0.6,-0.8 -0.6,-1.3 0,-0.2 0.1,-0.4 0.1,-0.6 0,-0.1 0,-0.1 0,-0.2 0,-0.4 0,-0.7 0,-1.1 0,-0.4 0,-0.7 -0.1,-1 L 41,40.1 40.1,39.6 39.2,38.9 V 38.3 L 39,37.8 38.8,37.3 38,36.7 37,36.3 35.9,36.2 c -0.2,0.1 -0.3,0.1 -0.4,0.1 v -0.1 l -0.6,1.1 -4.8,-0.7 0.2,4.4 -0.5,-0.3 c -0.1,0 -0.6,-0.4 -1.3,-0.9 0.4,0.7 0.9,1.3 1.4,1.9 2.6,3.2 6.6,5.1 10.8,5.1 4.5,0 8.7,-2.2 11.3,-5.8 l -3.1,-2.3 z"
   id="path63" />
	<path
   class="st0"
   d="m 59.7,31.2 c -0.2,0.8 -0.4,1.5 -0.7,2.3 -1,2.7 -2.5,4.2 -4.4,4.4 0.2,0.2 0.3,0.3 0.4,0.4 2.1,-0.2 4,-1.2 5.4,-2.7 -0.3,-1.5 -0.5,-3.1 -0.7,-4.4 z"
   id="path65" />
	<polygon
   class="st0"
   points="66.4,63.9 72.1,61.8 71.1,60.6 71,60.6 72,61.8 66.4,63.9 "
   id="polygon67" />
	<path
   class="st0"
   d="m 68.2,42 c -1.1,0.4 -2.1,0.6 -3.2,0.8 -1.9,10.7 2.3,15.3 4.1,16.7 C 65.3,54 67.7,44 68.2,42 Z"
   id="path69" />
	<polygon
   class="st0"
   points="65,62.8 67.9,61.3 64.5,62.4 "
   id="polygon71" />
	<path
   class="st0"
   d="m 70.9,40.2 -5,-14.4 h -0.1 l 5.1,14.4 c -1.6,0.9 -3.3,1.6 -5.1,1.9 l 3,-1.8 -1.9,-6.5 v 0 c -1.3,2.1 -3.2,4 -5.4,5.2 0.2,1.6 0.4,2.8 0.5,3.3 1.3,0.2 2.6,0.1 3.9,-0.1 1.8,-0.4 3.5,-1 5,-2 z"
   id="path73" />
	<path
   class="st0"
   d="m 70.1,59.3 c 0.1,0.1 0.1,0.2 0.1,0.2 l 0.2,0.2 C 70.3,59.6 70.2,59.4 70.1,59.3 65.9,52.6 69.3,43.7 70.5,40.9 v 0 c -1.3,2.7 -4.6,11.7 -0.4,18.4 z"
   id="path75" />
	<path
   class="st0"
   d="m 21.5,13.3 c 0.4,0.3 0.9,0.5 1.4,0.6 L 23.7,11 C 24.2,9.4 23.2,7.7 21.6,7.3 L 20.5,7 C 20.3,6.9 20,6.9 19.7,6.9 c -1.4,0 -2.6,0.9 -2.9,2.2 l -0.7,2.5 c 0.7,0.4 1.6,0.6 2.4,0.6 1.1,-0.1 2.9,0.4 3,1.1 z"
   id="path77" />
	<polygon
   class="st0"
   points="12.7,64.9 16.8,67.9 19.8,65.8 13.9,64.9 "
   id="polygon79" />
	<polygon
   class="st0"
   points="18,62.6 20.4,63.8 22,62.7 18.3,62.6 "
   id="polygon81" />
	<path
   class="st0"
   d="M 15.4,28.3 C 15.3,28.1 15.1,28 15,27.9 13.5,29.5 11.8,31 9.9,32.1 l -0.1,0.6 c 2.2,-1.1 4.1,-2.6 5.6,-4.4 z"
   id="path83" />
	<path
   class="st0"
   d="m 11.8,60.1 c 0.1,0.7 0.4,2.8 0.7,4.3 h 1.2 l 0.7,-4.2 c -0.2,0 -0.4,0 -0.6,0 -0.7,0 -1.4,-0.1 -2,-0.1 z"
   id="path85" />
	<path
   class="st0"
   d="m 17.6,30.7 v 0 c -2.2,2.6 -5,4.7 -8.2,6 v 0.1 c 3.2,-1.3 6,-3.4 8.2,-6.1 z"
   id="path87" />
	<path
   class="st0"
   d="m 17.2,60 c 0.1,0.8 0.2,1.7 0.2,2.1 h 1 c 0.1,-0.4 0.2,-1.3 0.4,-2.2 -0.5,0 -1,0.1 -1.6,0.1 z"
   id="path89" />
	<path
   class="st0"
   d="m 9.1,37.3 v 0 L 7,58.7 c 2.3,0.7 4.8,1 7.2,0.9 h 0.3 c 2.7,-0.1 5.4,-0.4 8,-0.9 -0.9,-2.4 -1.5,-10.7 -2,-25.3 -1,-0.8 -1.9,-1.6 -2.8,-2.5 -2.1,2.5 -4.8,4.6 -7.8,6 m -0.7,0.6 v 0 C 9.4,37.3 9.6,37.2 10.1,37 9.7,37.2 9.4,37.4 9.2,37.5 Z"
   id="path91" />
	<path
   class="st1"
   d="m 20.5,25.4 c 0,-1.7 0,-3.9 0,-4.5 v 0 c 0,0 -0.1,0 -0.1,-0.1 -0.2,0.5 -0.9,1.6 -1.8,3.1 0.6,0.5 1.2,1 1.9,1.5 z"
   id="path93" />
	<path
   class="st1"
   d="m 17.6,30.7 c -0.8,-0.8 -1.6,-1.6 -2.2,-2.4 0,0 0,0 0,-0.1 -1.5,1.9 -3.4,3.4 -5.5,4.3 v 0.1 l -0.4,4 c 3.1,-1.2 5.9,-3.3 8.1,-5.9 z"
   id="path95" />
	<path
   class="st1"
   d="m 61.3,15.4 c -0.3,-0.2 -0.7,-0.3 -1,-0.3 0.1,0.1 0.3,0.3 0.4,0.5 0.2,-0.1 0.4,-0.1 0.6,-0.2 z"
   id="path97" />
	<path
   class="st1"
   d="m 62.9,16.9 c -0.1,-0.1 -0.2,-0.3 -0.3,-0.4 -0.3,0.2 -0.6,0.4 -0.9,0.5 0.1,0.1 0.2,0.2 0.2,0.4 0.4,-0.1 0.7,-0.3 1,-0.5 z"
   id="path99" />
	<path
   class="st1"
   d="m 62.7,25.3 c 0.3,-0.3 0.6,-0.6 0.8,-0.9 0.8,-1.5 1,-3.2 0.6,-4.8 -0.2,-0.8 -0.5,-1.5 -0.8,-2.3 -0.3,0.3 -0.7,0.4 -1,0.6 0,0 0,0 -0.1,0 1.1,2.4 1.3,5.1 0.5,7.4 z"
   id="path101" />
	<path
   class="st1"
   d="m 61.4,16.5 c 0.1,0 0.2,-0.1 0.4,-0.2 0.1,-0.1 0.3,-0.1 0.5,-0.2 v 0 C 62.2,16 62.1,15.9 62,15.8 c -0.2,0.1 -0.5,0.2 -0.8,0.3 0,0.1 0.1,0.3 0.2,0.4 z"
   id="path103" />
	<path
   class="st1"
   d="m 65.8,42.1 c 1.8,-0.3 3.5,-1 5,-2 l -5,-14.3 -1.1,0.5 h -0.1 l 2,6.7 c 0,0 0,-0.1 0.1,-0.1 l 0.5,0.3 c 0,0 0,0 0,0.1 v 0 c -0.1,0.2 -0.2,0.3 -0.3,0.5 l 1.9,6.5 z"
   id="path105" />
	<polygon
   class="st1"
   points="65,62.8 65,62.8 66.4,63.9 72,61.8 71,60.6 69.9,60.6 68.2,61.2 67.9,61.3 "
   id="polygon107" />
	<path
   class="st1"
   d="m 69.1,59.5 c 0.2,0.2 0.4,0.3 0.7,0.5 h 0.8 c -0.1,-0.1 -0.1,-0.2 -0.2,-0.3 l -0.2,-0.2 c 0,0 0,-0.1 -0.1,-0.2 -4.2,-6.7 -0.9,-15.7 0.4,-18.4 -0.7,0.5 -1.5,0.8 -2.3,1.1 -0.5,2 -2.9,12 0.9,17.5 z"
   id="path109" />
	<polygon
   class="st1"
   points="63.9,63.3 66.2,65.3 70.7,62.9 70.7,62.9 66.2,64.5 66,64.3 65.6,64.4 64.1,63.2 "
   id="polygon111" />
	<polygon
   class="st1"
   points="51.3,64.2 51.8,65 56.6,63.5 51.6,64.2 51.6,64.1 "
   id="polygon113" />
	<path
   class="st1"
   d="m 62.6,49.1 c 0.3,-0.6 0.6,-1.3 0.9,-1.9 0,0 0,0 0,-0.1 -0.3,0.7 -0.6,1.3 -0.9,2 z"
   id="path115" />
	<path
   class="st1"
   d="m 57.6,60.4 c 0.3,-0.9 0.7,-1.7 1,-2.6 -0.5,1.3 -0.8,2.2 -1,2.6 z"
   id="path117" />
	<path
   class="st1"
   d="m 63.5,47.1 v 0 c 0.2,-0.3 0.4,-0.7 0.6,-1.1 0.1,-0.9 0.2,-1.9 0.4,-3 -0.3,0 -0.7,0 -1,0 h -0.2 c -0.5,0.9 -4.8,9.4 -6.3,17.5 h 0.5 c 0.9,-2.1 1.8,-4.3 2.7,-6.3 0.2,-0.4 0.3,-0.7 0.5,-1.1 0,0 0,-0.1 0.1,-0.1 0.9,-2.1 1.7,-4.2 2.7,-5.9 z"
   id="path119" />
	<path
   class="st1"
   d="m 60.7,53.1 v 0 c 0,-0.1 0,-0.1 0,0 0,-0.1 0,0 0,0 z"
   id="path121" />
	<polygon
   class="st1"
   points="57.8,62.7 57.5,61 55.8,61 55.3,61.1 51,62.3 51.8,63.5 "
   id="polygon123" />
	<path
   d="m 71.4,60.2 c -6,-7.5 -0.3,-19.1 0,-19.7 h 0.1 L 66.2,25.1 64.4,25.8 64,25 c 0.9,-1.6 1.2,-3.5 0.7,-5.3 -0.2,-0.9 -0.5,-1.7 -1,-2.5 0.3,-0.2 0.4,-0.3 0.5,-0.3 l -0.4,-0.4 c 0,0 -0.2,0.1 -0.4,0.3 -0.1,-0.1 -0.2,-0.3 -0.3,-0.4 0.1,-0.1 0.3,-0.2 0.4,-0.3 l -0.4,-0.4 c -0.1,0.1 -0.3,0.2 -0.4,0.3 -0.1,-0.1 -0.2,-0.2 -0.3,-0.3 0.3,-0.1 0.5,-0.3 0.6,-0.3 l -0.3,-0.5 c 0,0 -0.3,0.2 -0.8,0.4 -1.3,-1 -3.1,-0.8 -4.1,0.5 -0.1,0.1 -0.2,0.3 -0.3,0.4 -0.1,0 -0.2,0 -0.3,0 l -0.1,0.5 h 0.1 c -0.1,0.1 -0.1,0.2 -0.2,0.4 -0.1,0 -0.1,0 -0.2,0 l -0.1,0.5 h 0.1 c -0.3,1.2 -0.4,2.5 -0.1,3.8 0.3,1.4 1,2.8 2,3.8 0.6,0.6 1.3,1 2.2,1.2 l 0.2,0.7 -2,0.8 v 0.2 c 0,0 0.1,0.5 0.2,1.4 -0.1,0.8 -1,7.4 -4.8,7.9 0.6,-1.7 0.9,-3.4 0.9,-5.2 0,-1 -0.1,-1.9 -0.3,-2.9 L 54.9,28.8 C 53.3,20.8 45.5,15.7 37.5,17.3 31.6,18.5 27.1,23.1 26,29 c -1.9,-0.8 -3.6,-1.9 -5.2,-3.1 0,-2 0,-5 0,-5.1 v -0.1 l -0.1,-0.1 c -0.3,-0.2 -0.6,-0.4 -0.8,-0.5 0.4,0 0.8,0.1 1.2,0.1 1,0 2,-0.1 3,-0.3 l 0.2,-0.1 V 19.6 C 24,17.3 24.2,15.1 24.8,12.9 25.8,10 25.8,7.8 25,6.4 24.3,5.3 23.3,4.6 22,4.4 20.4,3.8 18.7,3.7 17.1,4.3 c -2.2,0.8 -4,2.8 -5.4,5.9 -0.7,1.7 -1.6,3.4 -2.5,5.1 l -0.3,0.2 0.3,0.2 c 1.2,0.9 2.4,1.8 3.7,2.5 -1.2,-0.1 -2,-0.1 -2.1,-0.1 h -0.3 l -4,41.2 0.2,0.1 c 1.4,0.5 2.9,0.8 4.3,0.9 0.1,0.7 0.5,3.1 0.8,4.6 v 0.2 l -0.1,0.1 4.8,3.5 4.5,-3.1 -7,-1.1 0.7,-4.3 c 0.6,0 1.1,0 1.7,-0.1 0.1,1.1 0.2,2.3 0.2,2.3 v 0.2 l -0.1,0.1 3.6,1.8 3.3,-2.2 -4.8,-0.2 c 0.1,-0.5 0.2,-1.4 0.4,-2.3 2.2,-0.3 3.8,-0.6 3.8,-0.6 l 0.3,-0.1 -0.2,-0.3 C 22,57 21.3,48.6 20.9,34 c 2.2,1.9 4.4,3.7 6,4.9 0.6,1.1 1.3,2.1 2.1,3.1 5.1,6.2 14.3,7.1 20.5,2 1,-0.9 1.9,-1.8 2.7,-2.9 l 2.2,-0.5 c 0.1,0 0.2,0 0.3,0 1.9,0 3.9,-0.5 5.6,-1.4 0.2,1.7 0.4,3 0.5,3.3 -0.6,1.2 -5.2,10.6 -5.8,18 l -5.7,1.1 0.5,0.8 1.2,1.8 h 0.3 0.2 l 4.5,-0.6 2,-0.3 -0.3,-2.7 c 0,0 0,-0.1 0.1,-0.2 0.2,-0.4 0.6,-1.2 1.1,-2.4 0.6,-1.3 1.3,-3.3 2,-5 l -0.2,-0.1 c -0.2,0.4 -0.4,0.9 -0.6,1.3 -0.9,2.1 -1.8,4.2 -2.7,6.3 v 0.1 H 56.8 56 c 0.6,-7.2 5,-16.4 5.7,-17.7 0.5,0.1 1,0.1 1.5,0.1 v 0 h 0.2 c 0.3,0 0.7,0 1,0 -0.2,1.1 -0.3,2.1 -0.4,3 -0.2,0.4 -0.4,0.8 -0.6,1.2 0,0 0,0 0,0.1 -0.2,8.3 3.7,11.8 5.1,12.9 l -5.7,1.8 1,0.9 0.3,0.3 1.5,1.2 0.4,-0.1 4.7,-1.4 v 0 0 l 2.2,-0.8 z m -13.9,0.7 v 1.9 l 0.3,-0.1 -6,0.8 -0.8,-1.2 v -0.1 l -0.2,-0.3 4.6,-0.9 0.5,-0.1 z m 2.2,-45.8 c 0.1,0 0.3,0 0.5,0 h 0.1 0.1 c 0.3,0 0.7,0.1 1,0.3 -0.2,0.1 -0.4,0.1 -0.6,0.2 -0.8,0.3 -1.6,0.4 -2.5,0.5 0.3,-0.5 0.8,-0.8 1.4,-1 z m -1.8,1.5 c 0.1,0 0.2,0 0.3,0 1,0 2,-0.2 2.9,-0.5 0.3,-0.1 0.5,-0.2 0.8,-0.3 0.1,0.1 0.2,0.2 0.3,0.3 v 0 c -0.2,0.1 -0.3,0.1 -0.5,0.2 -0.1,0.1 -0.2,0.1 -0.4,0.2 -1.2,0.5 -2.4,0.7 -3.7,0.5 0.2,-0.2 0.2,-0.3 0.3,-0.4 z m -0.4,0.9 c 0.4,0 0.7,0.1 1.1,0.1 1.1,0 2.1,-0.2 3.1,-0.6 0.3,-0.1 0.6,-0.3 0.9,-0.5 0.1,0.1 0.2,0.3 0.3,0.4 -0.3,0.2 -0.6,0.4 -1,0.5 v 0 c -1.4,0.7 -3,0.9 -4.5,0.5 0,-0.1 0.1,-0.3 0.1,-0.4 z m 1.9,7.2 c -1.1,-1 -1.7,-2.2 -1.9,-3.6 -0.2,-0.9 -0.2,-1.8 -0.1,-2.7 0.5,0.2 1.1,0.3 1.7,0.3 1.1,0 2.2,-0.3 3.1,-0.8 0,0 0,0 0.1,0 0.3,-0.2 0.7,-0.3 1,-0.6 v 0 c 0.4,0.7 0.7,1.5 0.9,2.4 0.4,1.6 0.2,3.3 -0.6,4.8 -0.2,0.3 -0.5,0.6 -0.8,0.8 -0.2,0.2 -0.5,0.3 -0.8,0.4 -1,0.1 -2,-0.2 -2.6,-1 z m 4.4,1.3 -0.9,0.4 -1.1,0.5 -0.2,-0.6 c 0.1,0 0.3,0 0.4,0 0.6,-0.1 1.1,-0.4 1.5,-0.9 z M 55,32.1 c 0,1.8 -0.3,3.5 -0.9,5.2 C 54,37.1 53.8,37 53.7,36.8 L 53.5,36.6 53.1,37 c 0,-0.2 -0.1,-0.5 -0.2,-0.7 -0.1,-0.2 -0.3,-0.5 -0.6,-0.6 L 51.9,34.9 V 32.6 C 52,32.4 52.2,32.2 52.4,32 l 1,-1.3 c 0.2,-0.4 0.4,-0.8 0.5,-0.9 0.2,-0.1 0.5,-0.2 0.7,-0.3 0.3,0.8 0.4,1.7 0.4,2.6 z m -3.2,-9.2 c -0.4,0 -0.7,0.1 -1.1,0.1 -0.1,0 -0.1,0 -0.2,0 -0.1,0 -0.3,0 -0.4,0 -0.1,0 -0.3,0 -0.4,0 H 49.6 C 49.3,22.9 49,22.8 48.8,22.6 48.7,22.5 48.6,22.3 48.6,21.5 v -0.1 c 0,-0.1 -0.1,-1 -0.2,-1.6 1.3,0.8 2.5,1.9 3.4,3.1 z m -23.4,1.8 c 0.2,0.2 0.3,0.4 0.5,0.6 -0.1,0.1 -0.1,0.2 -0.2,0.4 -0.4,0.3 -0.9,0.5 -1,0.5 0.2,-0.5 0.4,-1 0.7,-1.5 z m -0.6,2.1 c 0.2,-0.1 0.5,-0.2 1,-0.5 h 0.1 v -0.1 c 0.5,-0.6 0.4,-0.8 0.4,-0.9 0,-0.1 -0.1,-0.2 -0.1,-0.2 -0.2,-0.3 -0.5,-0.5 -0.7,-0.8 0.5,-0.8 1.1,-1.5 1.7,-2.2 v 0.1 L 30.9,22 c 0.1,0.1 0.4,0.2 0.5,0.2 0.5,0.1 1,0 1.4,-0.2 0.1,-0.1 0.3,-0.2 0.4,-0.3 0.1,0 0.1,0 0.2,0 0.2,0 0.3,0 0.5,0 0.2,0 0.4,0 0.6,0 0.1,0 0.3,0 0.4,0 0.6,0.1 1.2,0.1 1.8,-0.1 0.2,-0.1 0.8,-0.4 1,-0.5 h 0.5 c 0.2,0.1 0.8,0.4 1,0.5 0.1,0.1 0.3,0.3 0.3,0.5 -0.1,0.2 -0.2,0.8 -0.3,0.9 v 1.4 l 0.9,0.3 1.2,-0.4 1.1,-0.6 0.8,-0.5 1,-0.1 0.1,0.1 v 0.4 l -0.6,0.8 0.2,0.8 0.8,0.8 0.2,0.5 0.4,0.7 v 0.2 h -2.6 v 0.2 c -0.1,0.3 -0.2,0.7 -0.2,0.8 -0.1,0.3 -0.1,0.7 -0.1,1 -0.1,0.2 -0.2,0.3 -0.3,0.4 -0.2,0 -0.5,0 -0.7,0 h -0.1 l -1,0.3 -0.1,0.1 c -0.2,0.2 -0.4,0.5 -0.5,0.8 0,0.2 0.1,0.4 0.2,0.6 0,0.1 0.1,0.1 0.1,0.2 0,0.1 0.1,0.2 0.2,0.3 0.1,0.1 0.1,0.2 0.2,0.4 l -0.1,0.1 c -0.2,0.2 -0.3,0.2 -0.4,0.2 -0.1,0 -0.2,0 -0.3,-0.1 -0.3,0 -0.6,-0.1 -0.8,-0.3 -0.4,-0.3 -0.7,-0.6 -1.1,-0.8 -0.3,-0.2 -0.8,-0.3 -1.2,-0.3 -0.2,0 -0.3,0 -0.4,0 -0.2,0 -0.4,0 -0.6,0.2 -0.2,0.2 -0.3,0.5 -0.3,0.8 l 0.2,1 v 0.1 c 0,0.1 0.3,0.6 0.4,0.9 l -3.7,-0.4 0.5,-0.7 -0.3,-1.7 -1,0.5 c -0.1,-0.2 -0.2,-0.4 -0.2,-0.6 l -0.6,-1.2 v -0.8 h -0.3 l -0.7,0.1 v -0.1 l -0.3,0.1 c -0.4,0.1 -0.9,0.1 -1.3,0 -0.1,-0.2 -0.3,-0.5 -0.4,-0.7 0.1,-0.7 0.2,-1.4 0.3,-2 z m 13.1,9.3 c -0.1,-0.2 -0.1,-0.4 0,-0.5 0,-0.1 0.1,-0.2 0.1,-0.3 0,-0.2 0.1,-0.4 0.2,-0.6 0.1,0 0.1,-0.1 0.2,-0.2 0.1,0 0.2,-0.1 0.3,-0.1 0.4,-0.1 0.9,-0.3 1,-0.3 0.2,0 0.5,0 0.7,0 0.2,0 0.3,0 0.5,0 v 0.1 c 0,0.1 0.1,0.2 0.1,0.4 0.1,0.5 0.2,0.9 0.5,1.3 0,0 0.7,0.8 1.1,0.8 0.1,0 0.6,0.2 1,0.3 l 0.9,0.2 0.2,0.4 v 0.9 l -0.2,0.5 -0.4,1 -0.4,1 v 0.1 c 0,0.3 0,0.6 0,0.9 0,0.1 0,0.3 0.1,0.4 0,0.1 -0.1,0.1 -0.2,0.2 l -0.1,0.1 c -0.3,0.3 -0.6,0.7 -0.9,1 -0.1,0.1 -0.4,0.6 -0.7,0.9 l -0.6,0.3 -1,0.2 -0.6,-0.1 -0.6,-0.7 c -0.2,-0.2 -0.4,-0.5 -0.4,-0.9 0,-0.2 0,-0.4 0.1,-0.6 0,-0.1 0,-0.2 0,-0.2 0,-0.4 0.1,-0.8 0,-1.1 0,-0.4 -0.1,-0.7 -0.1,-1.1 l -0.2,-0.6 -1.1,-0.5 -0.7,-0.5 v -0.4 l -0.2,-0.6 -0.3,-0.7 -1,-0.7 -1.2,-0.5 -1.3,-0.1 h -0.1 l 0.6,-1.2 c 0.3,0.4 0.8,1.1 1.2,1.2 0.2,0 0.5,0 0.7,-0.1 0.1,0 0.1,0 0.2,0 0.4,0.6 0.9,1 1.6,1.4 0,0 1,-0.1 1,-0.6 0.1,-0.2 0,-0.3 0,-0.4 z M 30.7,31.5 c 0.1,0.2 0.2,0.5 0.2,0.6 l -1.1,0.6 -0.1,-2.8 h 0.4 v 0.3 z m 1.4,0.6 0.1,0.7 -0.9,1.3 4.3,0.5 -1.1,2.1 -4.5,-0.6 -0.1,-2.9 z m -4.8,-5 c 0,0.1 0,0.2 -0.1,0.4 -0.1,0.5 -0.2,1.1 -0.2,1.2 0,0.2 0.1,0.4 0.2,0.5 -0.2,0 -0.3,-0.1 -0.5,-0.2 0.2,-0.5 0.4,-1.2 0.6,-1.9 z m -6.9,-6.3 c 0,0 0.1,0 0,0 0.1,0.1 0.1,0.1 0.1,0.1 0,0.6 0,2.8 0,4.5 v 0 c -0.7,-0.5 -1.3,-1 -1.9,-1.5 -0.2,-0.1 -0.3,-0.3 -0.5,-0.4 0.7,-1.2 1.2,-2.6 1.5,-3.1 0.3,0.1 0.5,0.3 0.8,0.4 z M 10,15.3 c 0.9,-1.6 1.8,-3.3 2.5,-5 1.3,-3 3,-4.9 5.1,-5.6 1.5,-0.5 3.1,-0.5 4.5,0.1 h 0.1 c 1.1,0.2 2,0.8 2.6,1.7 0.8,1.3 0.7,3.3 -0.2,6.1 -0.6,2.2 -0.8,4.5 -0.6,6.7 -1.7,0.3 -3.4,0.4 -5.1,0.1 l 0.2,-1.5 c 1.8,0.3 3.6,-0.8 4.1,-2.6 l 1.1,-4.2 c 0.5,-1.9 -0.6,-3.8 -2.5,-4.4 0,0 0,0 -0.1,0 L 20.6,6.4 C 18.7,5.9 16.8,7 16.2,8.9 c 0,0 0,0 0,0.1 l -0.3,1 c -0.3,-0.1 -0.6,0 -0.9,0.1 -0.3,0.2 -0.5,0.4 -0.6,0.8 -0.2,0.8 0.1,1.6 0.7,2.1 l 0.1,-0.1 -0.1,0.4 c -0.3,0.9 -0.1,1.9 0.3,2.7 0.1,0.2 0.3,0.4 0.4,0.6 l -0.6,2 C 15,18.6 14.8,18.5 14.6,18.5 13,17.4 11.4,16.4 10,15.3 Z m 7.7,1.8 c -1.5,-0.5 -2.5,-2.2 -2,-3.8 L 16,12.1 c 0.8,0.4 1.7,0.6 2.6,0.6 0.9,-0.1 1.7,0.1 2.4,0.7 0.1,0.5 1.1,0.9 1.8,1.1 l -0.2,0.8 c -0.4,1.6 -2.1,2.6 -3.7,2.1 0,0 0,0 -0.1,0 z m 0.7,0.7 -0.2,1.5 C 17.4,19 16.5,18.8 15.7,18.6 l 0.6,-1.7 c 0.4,0.3 0.8,0.5 1.3,0.7 z m -3,-5.5 C 15,12 14.9,11.5 15,11 c 0,-0.2 0.2,-0.3 0.3,-0.4 0.2,-0.1 0.3,-0.1 0.5,-0.1 z m 0.7,-0.7 0.7,-2.5 c 0.3,-1.3 1.5,-2.2 2.9,-2.2 0.3,0 0.6,0 0.8,0.1 l 1.1,0.3 c 1.6,0.4 2.6,2.1 2.1,3.7 l -0.8,2.9 c -0.5,-0.1 -1,-0.3 -1.4,-0.6 -0.1,-0.7 -1.9,-1.2 -3,-1.1 -0.8,0 -1.7,-0.2 -2.4,-0.6 z m -6.7,25.1 0.4,-4 V 32.6 L 9.9,32 c 1.9,-1.1 3.6,-2.6 5.1,-4.2 0.1,0.2 0.3,0.3 0.4,0.4 0,0 0,0 0,0.1 0.6,0.8 1.4,1.6 2.2,2.4 v 0 c -2.2,2.7 -5,4.8 -8.2,6 z m 10.4,29.1 -3,2.1 -4.1,-3 h 1.2 z m -6.1,-1.4 h -1.2 c -0.3,-1.5 -0.6,-3.6 -0.7,-4.3 0.6,0 1.3,0.1 2,0.1 0.2,0 0.4,0 0.6,0 z M 22,62.7 20.4,63.8 18,62.6 h 0.3 z m -3.6,-0.6 h -1 c 0,-0.4 -0.1,-1.3 -0.2,-2.1 h 0.1 c 0.5,0 1,-0.1 1.5,-0.1 -0.2,0.9 -0.3,1.8 -0.4,2.2 z m 4.1,-3.4 c -2.6,0.5 -5.3,0.8 -8,0.9 H 14.2 C 11.8,59.7 9.3,59.4 7,58.7 L 9.1,37.4 v -0.1 c 0.2,-0.1 0.5,-0.2 0.8,-0.4 3,-1.4 5.7,-3.5 7.8,-6 0.9,0.9 1.8,1.7 2.8,2.5 0.5,14.6 1.1,22.9 2,25.3 z M 14,25.3 13.5,25.6 c 0.3,0.6 0.7,1.1 1.1,1.6 -1.3,1.6 -2.9,2.9 -4.7,4 l 1.3,-12.7 c 2.7,0.1 5.3,0.7 7.8,1.6 -0.2,0.5 -0.8,1.8 -1.4,3 -1.7,-1.4 -2.8,-2.5 -2.8,-2.6 l -0.4,0.4 c 0.4,0.4 9.8,9.7 14.7,9 l 0.1,2.9 0.4,7 C 27.3,38.1 16.9,30.4 14,25.3 Z m 26.7,21.5 c -4.2,0 -8.2,-1.9 -10.8,-5.1 -0.5,-0.6 -1,-1.2 -1.4,-1.9 0.7,0.5 1.2,0.9 1.3,0.9 l 0.5,0.3 -0.2,-4.4 4.8,0.7 0.6,-1.1 v 0.1 c 0.1,0 0.2,0 0.4,-0.1 l 1.1,0.1 1,0.4 0.8,0.6 0.2,0.5 0.2,0.5 v 0.6 l 0.9,0.7 0.9,0.5 0.1,0.4 c 0.1,0.3 0.1,0.6 0.1,1 0,0.4 0,0.7 0,1.1 0,0.1 0,0.1 0,0.2 0,0.2 -0.1,0.4 -0.1,0.6 0,0.5 0.2,1 0.6,1.3 l 0.7,0.8 0.9,0.2 1.2,-0.2 0.8,-0.4 c 0.1,-0.1 0.6,-0.8 0.7,-1 0.2,-0.3 0.5,-0.6 0.8,-0.9 l 0.1,-0.1 c 0.2,-0.2 0.5,-0.5 0.2,-0.9 0,-0.3 0,-0.6 0,-1 l 0.4,-0.9 0.4,-1 0.3,-0.6 V 37.5 L 47.8,36.8 46.7,36.5 C 46.3,36.4 46,36.3 45.6,36.2 45.4,36 45.1,35.8 44.9,35.6 44.7,35.3 44.6,35 44.5,34.7 c 0,-0.2 0,-0.4 -0.1,-0.5 v -0.1 c 0,-0.3 -0.3,-0.4 -1,-0.4 -0.3,0 -0.5,0 -0.8,0.1 0,0 -0.5,0.2 -1,0.3 -0.3,0.1 -0.4,0.1 -0.5,0.3 0,0 0,0 -0.1,0.1 -0.2,0.2 -0.4,0.6 -0.4,0.9 0,0.1 -0.1,0.2 -0.1,0.3 -0.1,0.3 -0.1,0.6 0,0.8 -0.1,0.1 -0.3,0.1 -0.4,0.1 -0.4,-0.3 -0.8,-0.7 -1.1,-1.1 -0.1,-0.4 -0.6,-0.3 -0.8,-0.2 -0.1,0 -0.3,0.1 -0.5,0.1 -0.2,0 -0.8,-0.8 -1.1,-1.2 -0.1,-0.1 -0.4,-0.7 -0.5,-1 l -0.2,-0.9 c 0,-0.1 0.1,-0.2 0.1,-0.3 0.1,-0.1 0.1,-0.1 0.2,-0.1 0.1,0 0.2,0 0.4,0 0.3,0 0.6,0.1 0.8,0.2 0.4,0.2 0.7,0.5 1.1,0.7 0.3,0.2 0.7,0.4 1.1,0.4 0.1,0 0.2,0 0.3,0 0.3,0 0.7,-0.1 0.9,-0.4 l 0.1,-0.1 c 0.3,-0.2 0.1,-0.7 -0.1,-1 -0.1,-0.1 -0.1,-0.2 -0.1,-0.3 0,-0.1 -0.1,-0.2 -0.1,-0.2 -0.1,-0.1 -0.1,-0.2 -0.1,-0.3 0.1,-0.1 0.2,-0.3 0.3,-0.4 l 0.8,-0.2 c 0.3,0 0.6,0 0.8,0 0.4,-0.1 0.6,-0.6 0.7,-0.8 v -0.1 c 0,-0.3 0,-0.6 0,-0.8 0,-0.1 0.1,-0.4 0.2,-0.7 H 46 V 27 l -0.5,-0.8 -0.3,-0.6 -0.8,-0.8 -0.1,-0.4 0.6,-0.8 v -0.8 l -0.4,-0.4 -1.4,0.1 -0.9,0.6 -1.1,0.6 -0.9,0.3 -0.1,-0.1 V 23 c 0.1,-0.3 0.2,-0.5 0.2,-0.8 0.2,-0.4 -0.3,-1 -0.6,-1.2 -0.2,-0.1 -1,-0.5 -1.1,-0.6 h -0.1 -0.6 -0.1 c 0,0 -0.8,0.4 -1.1,0.6 -0.5,0.1 -1,0.1 -1.4,0 -0.2,0 -0.4,0 -0.6,0 -0.1,0 -0.2,0 -0.4,0 -0.2,0 -0.4,0 -0.7,0 -0.1,0 -0.1,0 -0.2,0 -0.3,0.1 -0.6,0.2 -0.8,0.5 -0.3,0.1 -0.6,0.1 -0.9,0.1 -0.1,0 -0.5,-0.2 -0.6,-0.2 H 31 30.9 c 2.6,-2.5 6.1,-3.9 9.7,-3.9 2.5,0 5,0.7 7.2,2 h -0.1 c 0.1,0.8 0.3,1.8 0.3,1.9 v 0.1 c -0.1,0.5 0,1.1 0.3,1.5 0.3,0.3 0.7,0.5 1.2,0.6 h 0.1 c 0.2,0 0.3,0 0.5,0 0.1,0 0.2,0 0.3,0 0.1,0 0.1,0 0.2,0 h 0.1 c 0.6,-0.1 0.8,-0.1 0.9,-0.1 h 0.5 c 1.2,1.6 2,3.5 2.4,5.4 -0.9,0.3 -1,0.4 -1,0.4 -0.2,0.3 -0.4,0.7 -0.6,1 L 52,31.5 c -0.3,0.3 -0.6,0.7 -0.6,1 V 35 l 0.5,1.1 H 52 c 0.2,0.1 0.3,0.3 0.4,0.4 0.1,0.2 0.1,0.5 0.1,0.7 0,0.1 0,0.4 0,0.6 v 0.5 l -3.6,0.4 2.9,2.2 c -2.6,3.5 -6.6,5.9 -11.1,5.9 z m 13.9,-6.8 -2.3,0.5 -1.9,-1.4 2.7,-0.3 v -1.1 l 0.3,-0.3 c 0.4,0.5 0.7,0.9 1.2,1.3 z m 0,-2.1 c 1.9,-0.2 3.4,-1.7 4.4,-4.4 0.3,-0.8 0.5,-1.5 0.7,-2.3 0.2,1.3 0.4,2.9 0.7,4.4 -1.4,1.5 -3.3,2.5 -5.4,2.7 -0.1,-0.1 -0.2,-0.2 -0.4,-0.4 z m 7.4,4.4 c -0.1,-0.5 -0.3,-1.7 -0.5,-3.3 2.2,-1.2 4.1,-3.1 5.4,-5.2 v 0 c 0.1,-0.2 0.2,-0.3 0.3,-0.5 v 0 L 66.7,32.9 C 62.7,39.7 56.5,40 55.2,40 V 38.8 C 61,38.1 64,31.8 65,29 c 0,-0.1 0,-0.1 0.1,-0.1 l -0.5,-0.2 c 0,0 0,0.1 -0.1,0.2 -0.8,2.3 -2.1,4.4 -3.6,6.2 -0.3,-2.2 -0.6,-4.3 -0.8,-5.7 l -0.2,-1.2 1.6,-0.6 1.7,-0.7 1.4,-0.6 h 0.1 l 1.1,-0.5 h 0.1 l 5,14.4 c -1.5,1 -3.2,1.6 -5,2 -1.3,0.2 -2.6,0.3 -3.9,0.1 z m 3,0.5 c 1.1,-0.2 2.1,-0.4 3.2,-0.8 0.8,-0.3 1.6,-0.6 2.3,-1.1 v 0 c -1.2,2.8 -4.6,11.7 -0.4,18.4 0.1,0.1 0.2,0.3 0.3,0.4 0.1,0.1 0.1,0.2 0.2,0.3 h -0.8 c -0.3,-0.2 -0.5,-0.3 -0.7,-0.5 -1.8,-1.4 -6,-6 -4.1,-16.7 z m 1.4,21.1 v 0 L 65,62.8 v 0 l -0.5,-0.4 3.4,-1.1 0.3,-0.1 1.7,-0.6 h 1.1 0.1 l 1,1.2 z"
   id="path125" />
	<path
   d="m 31.3,31.8 v 0 c 0.1,0 0,0 0,0 z"
   id="path127" />
	<path
   d="m 63.5,47 c -0.9,1.7 -1.9,3.7 -2.8,5.8 0,0 0,0 0.1,0.1 l 0.1,0.1 c 0,0 0,-0.1 0.1,-0.2 0.5,-1.1 1.1,-2.5 1.7,-3.6 0.3,-0.6 0.7,-1.3 1,-2 0,0 -0.2,-0.1 -0.2,-0.2 z"
   id="path129" />
</g>
</svg>
