<?xml version="1.0" encoding="utf-8"?>
<!-- Generator: Adobe Illustrator 27.9.0, SVG Export Plug-In . SVG Version: 6.00 Build 0)  -->
<svg version="1.1" id="Layer_1" xmlns="http://www.w3.org/2000/svg" xmlns:xlink="http://www.w3.org/1999/xlink" x="0px" y="0px"
	 viewBox="0 0 70 50" style="enable-background:new 0 0 70 50;" xml:space="preserve">
<style type="text/css">
	.st0{clip-path:url(#SVGID_00000160155881127423207430000005836773125932126848_);}
	.st1{fill:#028CC7;}
</style>
<g>
	<defs>
		<rect id="SVGID_1_" x="3.4" y="6.2" width="63" height="40.2"/>
	</defs>
	<clipPath id="SVGID_00000154419963022563631110000012866100402398092425_">
		<use xlink:href="#SVGID_1_"  style="overflow:visible;"/>
	</clipPath>
	<g id="blue" style="clip-path:url(#SVGID_00000154419963022563631110000012866100402398092425_);">
		<path id="Path_4691" class="st1" d="M66.1,14l-7.5-7.5c-0.3-0.3-0.9-0.3-1.3,0L35.5,28.3c-0.3,0.3-0.9,0.3-1.3,0L12.4,6.5
			c-0.3-0.3-0.9-0.3-1.3,0c0,0,0,0,0,0L3.7,14c-0.3,0.3-0.3,0.9,0,1.3l31.1,31.1l0.1-0.1l0.1,0.1l31.1-31.1
			C66.4,14.9,66.4,14.3,66.1,14"/>
	</g>
</g>
</svg>
