<?xml version="1.0" encoding="utf-8"?>
<!-- Generator: Adobe Illustrator 27.9.0, SVG Export Plug-In . SVG Version: 6.00 Build 0)  -->
<svg version="1.1" id="Layer_1" xmlns="http://www.w3.org/2000/svg" xmlns:xlink="http://www.w3.org/1999/xlink" x="0px" y="0px"
	 viewBox="0 0 50 50" style="enable-background:new 0 0 50 50;" xml:space="preserve">
<style type="text/css">
	.st0{fill:#008CC7;}
	.st1{fill:#FFFFFF;}
</style>
<g>
	<path class="st0" d="M25,1.1c-13.3,0-24,10.7-24,24s10.7,24,24,24s24-10.7,24-24S38.3,1.1,25,1.1z M34.8,31
		c1.1,1.2,1.1,3.1-0.1,4.2c-1.2,1.1-3,1.1-4.2,0L25,29.7l-5.5,5.5c-1.2,1.1-3.1,1.1-4.2-0.1c-1.1-1.2-1.1-3,0-4.2l5.5-5.5l-5.9-5.9
		c-1.1-1.2-1.1-3.1,0.1-4.2c1.2-1.1,3-1.1,4.2,0l5.9,5.9l5.9-5.9c1.2-1.1,3.1-1.1,4.2,0.1c1.1,1.2,1.1,3,0,4.2l-5.9,5.9L34.8,31z"/>
	<path class="st1" d="M35.2,15.4c-1.1-1.2-3-1.2-4.2-0.1L25,21.2l-5.9-5.9c-1.2-1.1-3-1.1-4.2,0c-1.2,1.1-1.2,3-0.1,4.2l5.9,5.9
		L15.3,31c-1.1,1.2-1.1,3,0,4.2c1.1,1.2,3,1.2,4.2,0.1l5.5-5.5l5.5,5.5c1.2,1.1,3,1.1,4.2,0c1.2-1.1,1.2-3,0.1-4.2l-5.5-5.5l5.9-5.9
		C36.3,18.4,36.3,16.6,35.2,15.4z"/>
</g>
</svg>
