<?xml version="1.0" encoding="utf-8"?>
<!-- Generator: Adobe Illustrator 27.9.0, SVG Export Plug-In . SVG Version: 6.00 Build 0)  -->
<svg version="1.1" id="Layer_1" xmlns="http://www.w3.org/2000/svg" xmlns:xlink="http://www.w3.org/1999/xlink" x="0px" y="0px"
	 viewBox="0 0 357.1 644.7" style="enable-background:new 0 0 357.1 644.7;" xml:space="preserve">
<style type="text/css">
	.st0{clip-path:url(#SVGID_00000075148419128032105630000011855904905156850059_);}
	.st1{fill:#FFFFFF;}
	.st2{fill:#27AAE1;}
</style>
<g>
	<defs>
		<rect id="SVGID_1_" x="3" y="17.9" width="349.6" height="613.9"/>
	</defs>
	<clipPath id="SVGID_00000127732266141506234800000006646021528623123878_">
		<use xlink:href="#SVGID_1_"  style="overflow:visible;"/>
	</clipPath>
	<g id="Group_21" style="clip-path:url(#SVGID_00000127732266141506234800000006646021528623123878_);">
		<path id="Path_342" class="st1" d="M275,172.1l-2.3-21c-22.8,0.7-52.8,1.8-61.7,2.2l20.2,163.4h67.3v-151l-0.8,4.6L275,172.1z"/>
		<path id="Path_343" class="st1" d="M276.6,143l2.6,24.5l2.3-0.2l-1.1-13.4l4.7-0.3l1.1,13.4l2.2-0.2l-0.6-13.2l4.7-0.2l0.6,13
			l0.4,0l3-17.8l-2.6-9.8c-3.4-0.1-11.3-0.2-21.4-0.2c-1,0.9-2,1.7-3.1,2.5c0.2,1.7,0.4,4.1,0.5,5.9l2.3-0.1l-0.4-3.5L276.6,143z"/>
		<path id="Path_344" class="st1" d="M10.4,219.2l7.9,101.9h7.7l-2.3-97.5L10.4,219.2z"/>
		<path id="Path_345" class="st1" d="M123.4,594.6l6.3-283.9h-23.6l16.2,283.9H123.4z"/>
		<path id="Path_346" class="st1" d="M234.3,138.3L234.3,138.3c-36.9-0.1-78.5-0.3-88.6-0.4l-1.4,20.6c5.8-0.5,33.2-3,61.5-5.6
			l0.1-1.7l-0.3-2.1l2.5-0.1c0.2,0,16.1-0.6,34.6-1.3V144C239.7,142.6,236.9,140.6,234.3,138.3"/>
		<path id="Path_347" class="st1" d="M253.6,146.3c-2,0-4-0.2-5.9-0.7v2c5.8-0.2,11.8-0.4,17.6-0.6c-0.1-1-0.2-2.2-0.3-3.4
			C261.4,145.4,257.5,146.3,253.6,146.3"/>
		<path id="Path_348" class="st1" d="M20.7,365.8l2.2-35.2L33.9,341l4.6-2.4l-8.7-13.4h-12l-9.5,30L20.7,365.8z"/>
		<path id="Path_349" class="st1" d="M24.9,219.5l20.2-45.2l-1.6-29.1l-32.6,69.6L24.9,219.5z"/>
		<path id="Path_350" class="st1" d="M253.6,142.1c17.2,0,31.1-21.2,31.1-47.3s-14-47.3-31.1-47.3s-31.1,21.2-31.1,47.3
			S236.4,142.1,253.6,142.1"/>
		<path id="Path_351" class="st1" d="M111.2,27.7c-5.9,0.7-11.8,1-17.8,1c-2.4,0-4.8-0.1-7.1-0.2c-0.8,1.2-1.7,2.5-2.6,4
			c10.4,0.8,20.9,0.3,31.3-1.4C113.9,29.9,112.6,28.7,111.2,27.7"/>
		<path id="Path_352" class="st1" d="M121,38.7c-0.8-1.3-1.7-2.6-2.7-3.9c-8.3,1.5-16.7,2.3-25.2,2.3c-3.8,0-7.7-0.2-11.7-0.6
			c-0.8,1.5-1.7,3.1-2.5,4.8C96.7,44.2,113,40.9,121,38.7"/>
		<path id="Path_353" class="st1" d="M334.3,228.8l-31-69.6v46.9l13.3,25L334.3,228.8z"/>
		<path id="Path_354" class="st1" d="M77.2,45.3c-8.3,19.9-11.8,48.6,15.9,76c0.8,0.1,1.6,0.1,2.3,0.1c18.9,0,34.2-22.3,34.2-49.6
			c0.1-10.1-2.2-20.1-6.6-29.2c-9.7,2.7-19.7,4.1-29.8,4.2C88,46.7,82.6,46.3,77.2,45.3"/>
		<path id="Path_355" class="st1" d="M95.5,125.6c-2.8,0-5.6-0.4-8.3-1.2v9.3h17.6v-9.6C101.8,125.1,98.7,125.6,95.5,125.6"/>
		<path id="Path_356" class="st1" d="M90.7,22.6c-0.4,0.5-0.9,1.1-1.4,1.8c5.2,0.2,10.4,0,15.5-0.4c-3-1.2-6.1-1.9-9.3-1.9
			C93.9,22.1,92.3,22.3,90.7,22.6"/>
		<path id="Path_357" class="st1" d="M315.5,350.1l8.1-11l4.9,6.1l-2.1,21.3l10.1-3.9l-5.3-31.7l-10.4-1.2l-9.9,17.3L315.5,350.1z"
			/>
		<path id="Path_358" class="st1" d="M73.5,594.6l17.6-283.9h-8.4L71.6,594.6H73.5z"/>
		<path id="Path_359" class="st1" d="M321.5,325.5l9.7,1.1l4.1-93.8l-17.7,2.3L321.5,325.5z"/>
		<path id="Path_360" class="st1" d="M203.3,318.1l13.2-82.3l-7.6-61.8L196.7,317L203.3,318.1z"/>
		<path id="Path_361" class="st1" d="M216.6,588.7h12.5l29.7-267.9h-27.4L216.6,588.7z"/>
		<path id="Path_362" class="st1" d="M188.5,355.9l9.9-25.9l5.6,8.9l4-2.5l-4.6-14l-8-1.4l-18.9,33.3L188.5,355.9z"/>
		<path id="Path_363" class="st1" d="M82.4,137.9h-17L75.5,298l39,8.5h15.3L141,137.9H82.4z"/>
		<path id="Path_364" class="st1" d="M308.1,619.9l31.4-7.3L297.9,593h-10L308.1,619.9z"/>
		<path id="Path_365" class="st1" d="M285.8,588.7h10.4l2.3-267.9h-29.9L285.8,588.7z"/>
		<path id="Path_366" class="st1" d="M221.3,625l7.1-32.1h-13.1L189,620.8L221.3,625z"/>
		<path id="Path_367" class="st1" d="M49.6,625.3l21.5-26.5h-1.5l-22.9,25.3L49.6,625.3z"/>
		<path id="Path_368" class="st1" d="M167.8,615l-38.1-14.5l32.4,16.9L167.8,615z"/>
		<path id="Path_369" class="st2" d="M81.5,36.5c-3-0.3-6.1-0.7-9.1-1.3c-1,1.3-1.9,2.7-2.7,4.1c3.1,0.9,6.2,1.6,9.3,2.1
			C79.8,39.6,80.7,38,81.5,36.5"/>
		<path id="Path_370" class="st2" d="M85.7,24.2c1.2,0.1,2.4,0.2,3.6,0.2c0.5-0.7,1-1.3,1.4-1.8C89,23,87.3,23.5,85.7,24.2"/>
		<path id="Path_371" class="st2" d="M77.2,45.3c-3.3-0.6-6.5-1.3-9.6-2.3c-4.3,9-6.4,18.8-6.3,28.7c0,26.2,14.1,47.8,31.9,49.5
			C65.4,93.9,68.9,65.2,77.2,45.3"/>
		<path id="Path_372" class="st2" d="M79.7,27.7c-1.5,1.1-2.9,2.4-4.2,3.7c2.7,0.5,5.5,0.8,8.2,1c0.9-1.4,1.7-2.8,2.6-4
			C84.1,28.3,81.9,28.1,79.7,27.7"/>
		<path id="Path_373" class="st2" d="M71.6,594.6l11.1-283.9H57.5l2.3,283.9H71.6z"/>
		<path id="Path_374" class="st2" d="M46.7,624.1l22.9-25.3H58.1l-33.4,15.8L46.7,624.1z"/>
		<path id="Path_375" class="st2" d="M65.5,137.9H47.9l9.5,168.6h57.2l-39-8.5L65.5,137.9z"/>
		<path id="Path_376" class="st2" d="M146.1,631.8l25.2-9.5l-4.3-2.3l-22.9,9.8L146.1,631.8z"/>
		<path id="Path_377" class="st2" d="M162.1,617.5l-32.4-16.9l-4.4-1.7h-9.9l28.3,26.6L162.1,617.5z"/>
		<path id="Path_378" class="st2" d="M122.3,594.6l-16.2-283.9h-9.9L112,594.6H122.3z"/>
		<path id="Path_379" class="st2" d="M26.1,321.1h3l4.4-94.3l-9.6-3.2L26.1,321.1z"/>
		<path id="Path_380" class="st2" d="M34.4,222.6L46.2,192l-1-17.8l-20.2,45.2L34.4,222.6z"/>
		<path id="Path_381" d="M115.1,31.1c2.1-0.3,3.8-0.7,5.1-1c-1-1.1-2-2.2-3.1-3.2c-1.5,0.2-3.5,0.5-5.9,0.7
			C112.6,28.7,113.9,29.9,115.1,31.1"/>
		<path id="Path_382" d="M87.2,121.4v3c5.7,1.8,11.9,1.7,17.6-0.3v-3.3h4.8v1.2c14.6-7.8,25-27.4,25-50.3
			c0.1-10.6-2.3-21.1-6.9-30.6c-0.7,0.3-2.2,0.8-4.4,1.4c4.4,9.1,6.7,19.1,6.6,29.2c0,27.4-15.4,49.6-34.2,49.6
			c-0.8,0-1.6,0-2.3-0.1C75.4,119.5,61.3,98,61.3,71.8c-0.1-9.9,2.1-19.7,6.3-28.7c-0.6-0.2-1.3-0.4-1.9-0.6l1.6-4
			c0.8,0.3,1.6,0.5,2.4,0.7c0.8-1.4,1.7-2.8,2.7-4.1c-1.3-0.3-2.6-0.5-3.9-0.9l0.7-2.2c-7.8,9.9-12.7,24-12.7,39.7
			c0,23.4,10.8,43.3,25.9,50.7v-1.1L87.2,121.4z"/>
		<path id="Path_383" d="M121,38.7c2.1-0.6,3.6-1.1,4.5-1.3c-0.8-1.3-1.5-2.5-2.4-3.6c-1.2,0.3-2.8,0.7-4.8,1.1
			C119.3,36,120.2,37.3,121,38.7"/>
		<path id="Path_384" d="M75.6,31.4c1.3-1.3,2.7-2.6,4.2-3.7c-1.8-0.3-3.6-0.7-5.4-1.2c-1.4,1.2-2.6,2.5-3.8,3.9
			C72.2,30.8,73.9,31.2,75.6,31.4"/>
		<path id="Path_385" d="M85.7,24.2c1.6-0.7,3.3-1.2,5-1.6c1.6-0.3,3.2-0.5,4.8-0.5c3.2,0,6.4,0.7,9.3,1.9c2.8-0.2,5.4-0.5,7.6-0.7
			c-5-3.5-10.9-5.3-17-5.4c-6,0-11.9,1.9-16.9,5.3C81,23.7,83.3,24,85.7,24.2"/>
		<path id="Path_386" d="M79.7,27.7c2.1,0.4,4.4,0.6,6.7,0.8c2.3,0.2,4.7,0.2,7.1,0.2c5.9,0,11.9-0.4,17.8-1
			c2.4-0.3,4.4-0.5,5.9-0.7c1.6-0.2,2.6-0.4,2.8-0.4l-0.9-4.2c-0.1,0-2.7,0.4-6.6,0.9c-2.2,0.3-4.8,0.5-7.6,0.7
			c-5.2,0.4-10.4,0.6-15.5,0.4c-1.2,0-2.4-0.1-3.6-0.2c-2.4-0.2-4.8-0.5-7.1-1c-1-0.2-2.1-0.5-3-0.8l-1.6,4c0.1,0,0.2,0.1,0.3,0.1
			C76.1,27,77.9,27.4,79.7,27.7"/>
		<path id="Path_387" d="M72.4,35.2c3,0.6,6.1,1,9.1,1.3c4,0.4,7.9,0.6,11.7,0.6c8.4,0,16.9-0.8,25.2-2.3c2-0.4,3.6-0.7,4.8-1.1
			c0.7-0.2,1.4-0.4,2.1-0.7l-2.3-3.7c-0.9,0.3-1.8,0.6-2.7,0.8c-1.3,0.3-3,0.6-5.1,1c-10.3,1.7-20.8,2.1-31.3,1.4
			c-2.7-0.2-5.5-0.6-8.2-1c-1.7-0.3-3.4-0.6-5-1c-0.3-0.1-0.5-0.1-0.8-0.2l-0.6,1.8l-0.7,2.2C69.8,34.6,71.1,34.9,72.4,35.2"/>
		<path id="Path_388" d="M79,41.3c-3.2-0.5-6.3-1.2-9.3-2.1c-0.8-0.2-1.6-0.5-2.4-0.7l-1.6,4c0.6,0.2,1.3,0.4,1.9,0.6
			c3.2,0.9,6.4,1.7,9.6,2.3c5.3,0.9,10.7,1.4,16.2,1.4c10.1,0,20.1-1.4,29.8-4.2c2.2-0.6,3.7-1.1,4.4-1.4c0.2-0.1,0.4-0.2,0.5-0.2
			l-1.9-3.9c0,0-0.3,0.1-0.7,0.3c-0.8,0.3-2.4,0.8-4.5,1.3C113,40.9,96.7,44.2,79,41.3"/>
		<path id="Path_389" d="M87.2,124.4v-3h-4.8v12.3h4.8V124.4z"/>
		<path id="Path_390" d="M104.8,120.8v12.9h4.8v-12.9H104.8z"/>
		<path id="Path_391" d="M146.1,133.7h-2.5H146.1L146.1,133.7z"/>
		<path id="Path_392" d="M143.3,158.6l1.1-0.1l1.4-20.6l-2.3,0l0-4.2H42.9l0.1,1.7l0.2-0.4l4.4,1.6l-4,8.6l1.6,29.1l1,17.8l0-0.1
			l4.5,1.4l-3.9,10.1l5.9,105.2v0l4.8,0l0,2.1h33.6l0.1-2.2l4.7,0l0.1,2.2h33.6l0-2.2l4.8,0.1v0l9.6-145.9l-0.4,0L143.3,158.6z
			 M129.9,306.5H57.4l-9.5-168.6H141L129.9,306.5z"/>
		<path id="Path_393" d="M50.7,193.3l-4.5-1.4l0,0.1l-11.8,30.6l2.3,0.8l-1.7,4l-1.6-0.5l-4.4,94.3H18.3l-7.9-101.9L7,218l1.7-4
			l2.3,0.8l32.6-69.6l4-8.6l-4.4-1.6l-0.2,0.4L5.4,215.7l8.3,107.1l0.1-0.4l4.6,1.1l-0.6,1.8h12L29,324l4.1-2.1l0.6,0.9l4.5-97
			l8.6-22.3L50.7,193.3z"/>
		<path id="Path_394" d="M29,324l0.8,1.3l8.7,13.4l-4.6,2.3l-11.1-10.4l-2.2,35.2L8.3,355.3l9.5-30l0.6-1.8l-4.6-1.1l-0.1,0.4
			L3,356.6l21.9,18.6l2.1-34.6l6,5.7l12-6.1l-11.3-17.4l-0.6-0.9L29,324z"/>
		<path id="Path_395" d="M10.9,214.8l-2.3-0.8L7,218l3.5,1.1l13.3,4.4l9.6,3.2l1.6,0.5l1.7-4l-2.3-0.8l-9.5-3.1L10.9,214.8z"/>
		<path id="Path_396" d="M129.7,308.6l0,2.2l-6.3,283.9H112L96.1,310.7l-0.1-2.2l-4.7,0l-0.1,2.2L73.5,594.6H59.8l-2.3-283.9l0-2.1
			l-4.8,0v0l2.4,286.8l1.3-0.6l2.2,3.7l-0.5,0.2h13.1l2.7-3.4l3.9,2.5l-0.7,0.9h1L93.5,349l14,249.9h1.2l-0.7-0.7l3.5-2.9l3.8,3.6
			h9.9l-0.5-0.2l1.9-3.9l1.5,0.6l6.4-286.7v0L129.7,308.6z"/>
		<path id="Path_397" d="M124.8,598.7l0.4,0.2l4.4,1.7l38.1,14.5l-5.7,2.4l-18.5,8l-28.3-26.6l-3.8-3.6l-3.5,2.9l0.7,0.7l33.8,31.7
			l1.6-0.7L167,620l12.2-5.3l-51.1-19.4l-1.5-0.6L124.8,598.7z"/>
		<path id="Path_398" d="M73.9,595.5l-2.7,3.4l-21.5,26.5l-2.9-1.2l-22-9.5l33.4-15.8l0.5-0.2l-2.2-3.7l-1.3,0.6l-40.9,19.3
			l36.9,15.9L77,598.9l0.7-0.9L73.9,595.5z"/>
		<path id="Path_399" d="M234.3,138.3c2.5,2.4,5.4,4.3,8.6,5.8v-1.3h4.8v2.9c1.9,0.5,3.9,0.7,5.9,0.7c3.9,0,7.8-0.9,11.3-2.7
			c-0.2-1.8-0.3-3.4-0.4-4.1l4.7-0.5c0.1,0.4,0.1,1.1,0.2,1.9c1.1-0.8,2.1-1.6,3.1-2.5h-1.1v-4.2c1.8,0,3.5,0,5.2,0
			c7.9-9.5,12.9-23.7,12.9-39.5c0-28.4-16.1-51.5-35.9-51.5s-35.9,23.1-35.9,51.5c0,15.7,4.9,29.8,12.7,39.3l4,0L234.3,138.3z
			 M222.5,94.8c0-26.1,14-47.3,31.1-47.3s31.1,21.2,31.1,47.3s-14,47.3-31.1,47.3S222.5,120.9,222.5,94.8"/>
		<path id="Path_400" d="M269.3,139.1l-4.7,0.5c0.1,0.7,0.2,2.3,0.4,4.1c0.1,1.1,0.2,2.3,0.3,3.4l4.8-0.2c-0.2-1.8-0.4-4.2-0.5-5.9
			C269.4,140.2,269.3,139.5,269.3,139.1"/>
		<path id="Path_401" d="M247.6,142.8h-4.8v5.1c1.6-0.1,3.2-0.1,4.8-0.2V142.8z"/>
		<path id="Path_402" d="M231.5,318.8l-0.1,2h27.4l0.3-2.5h9.4l0.2,2.5h29.9l0-2.1l4.8,0V216l-4.5-8.5l4.3-1.8l0.2,0.4v-47l-2.7-6
			l-2.1,12.5v151h-67.3l-20.2-163.4c8.8-0.3,38.9-1.4,61.7-2.2l-0.5-4.2c-0.8,0-1.5,0-2.3,0.1l-4.8,0.2c-5.7,0.2-11.7,0.4-17.6,0.6
			l-4.8,0.2c-18.5,0.6-34.3,1.2-34.6,1.3l-2.5,0.1l0.3,2.1l0-0.2l4.7,0.3l-1.9,22.7l7.6,61.8l0-0.3l4.7,0.6l-2.7,16.6l8.1,66l0-0.2
			L231.5,318.8z"/>
		<path id="Path_403" d="M303.3,320.8v-2.1V320.8L303.3,320.8z"/>
		<path id="Path_404" d="M301.4,148.4l-0.8,4.8l2.7,6l31,69.6l1.7-0.2l0.7,4.2l-1.4,0.2l-4.1,93.8l-9.7-1.1l-3.9-90.3l-2.1,0.3
			l-0.7-4.2l1.7-0.2l-13.3-25l-0.2-0.4l-4.3,1.8l4.5,8.5l9.5,17.9l4,93.6l0.3-0.4l4.2,1.9l-0.4,0.7l10.4,1.2l-0.2-0.9l4.7-0.6l0,0.1
			l4.3-99l-37-83.2l-1.8,0.6L301.4,148.4z"/>
		<path id="Path_405" d="M331.1,330l0.2,0.9l5.3,31.7l-10.1,3.9l2.1-21.3l-4.9-6.1l-8.1,11l-4.5-3l9.9-17.3l0.4-0.7l-4.2-1.9
			l-0.3,0.4L305,348.3l11.7,7.9l6.9-9.4l-2.6,26.4l20.8-8l-6-35.8l0-0.1L331.1,330z"/>
		<path id="Path_406" d="M314.8,231.3l0.7,4.2l2.1-0.3l17.7-2.3l1.4-0.2l-0.7-4.2l-1.7,0.2l-17.7,2.3L314.8,231.3z"/>
		<path id="Path_407" d="M216.5,235.6l0,0.3l-13.2,82.3l-6.6-1.1l12.2-142.9l1.9-22.7l-4.7-0.3l0,0.2l-0.1,1.7
			c0.9-0.1,1.8-0.2,2.8-0.2l0.5,4.2l-3.6,0.3l-13.7,160.9l0.2-0.4l4.2,1.9l-0.8,1.4l8,1.4l-0.4-1.2l4.6-1.2l0.1,0.4l10.8-67.6
			l2.7-16.6L216.5,235.6z"/>
		<path id="Path_408" d="M203.1,321.2l0.4,1.2l4.6,14l-4,2.5l-5.6-8.9l-9.9,25.9l-11.9-1.5l18.9-33.3l0.8-1.4l-4.2-1.9l-0.2,0.4
			l-22.4,39.7l22.3,2.8l7.7-20.2l2.9,4.7l11.2-6.8l-5.8-17.7l-0.1-0.4L203.1,321.2z"/>
		<path id="Path_409" d="M285.5,589.7l2.5,3.3h10l-0.5-0.2l2.2-3.7l1.3,0.6l2.3-268.7l0-2.1l-4.8,0l0,2.1l-2.3,267.9h-10.4
			l-17.2-267.9l-0.2-2.5H259l-0.3,2.5l-29.7,267.9h-12.5l14.7-267.9l0.1-2l-4.7-0.2l0,0.2L211.8,590l0.5-0.5l3.6,2.7l-0.7,0.8h13.1
			l0.6-2.5l4.7,0.8l-0.4,1.7h0.2l30-270.4h0.6L281.3,593h1l-0.7-0.9L285.5,589.7z"/>
		<path id="Path_410" d="M299.6,589l-2.2,3.7l0.5,0.2l41.6,19.6l-31.4,7.3L288,593l-2.5-3.3l-4,2.3l0.7,0.9l23.8,31.8l46.5-10.8
			l-51.7-24.3L299.6,589z"/>
		<path id="Path_411" d="M228.9,590.4l-0.6,2.5l-7.1,32.1l-32.3-4.2l26.3-27.8l0.7-0.8l-3.6-2.7l-0.5,0.5l-31.9,33.8l45.2,5.9
			l8.1-36.8l0.4-1.7L228.9,590.4z"/>
		<path id="Path_412" d="M145.8,137.9c10,0,51.6,0.2,88.5,0.4v-0.1l0-4.2l-4,0c-35.6-0.2-74.3-0.3-84.3-0.4l-2.5,0l0,4.2
			L145.8,137.9"/>
		<path id="Path_413" d="M271.4,138.5h1.1c10.2,0,18,0.1,21.4,0.2l2.6,9.8l-3,17.8l-0.4,0l0.1,1.8l-4.7,0.2l-0.1-1.6l-2.2,0.2
			l0.1,1.2l-4.7,0.3l-0.1-1.1l-2.3,0.2l-2.6-24.5l-4.7,0.4l0.4,3.5l0.5,4.2l2.3,21l22.8-1.8l0.8-4.6l2.1-12.5l0.8-4.8l-0.1-0.5
			l-3.5-13.3l-1.8,0c-0.1,0-7.8-0.2-19.4-0.2c-1.7,0-3.4,0-5.2,0L271.4,138.5z"/>
		<path id="Path_414" d="M209.1,156.9l-0.5-4.2l-2.8,0.2c-28.3,2.5-55.7,5-61.5,5.6l-1.1,0.1l0.5,4.2l0.4,0
			c3.5-0.3,31.8-2.9,61.4-5.6L209.1,156.9"/>
		<path id="Path_415" d="M287.8,153.6l0.6,13.2l0.1,1.6l4.7-0.2l-0.1-1.8l-0.6-13L287.8,153.6z"/>
		<path id="Path_416" d="M280.5,153.9l1.1,13.4l0.1,1.1l4.7-0.3l-0.1-1.2l-1.1-13.4L280.5,153.9z"/>
	</g>
</g>
</svg>
