<?xml version="1.0" encoding="UTF-8" standalone="no"?>
<!-- Generator: Adobe Illustrator 27.8.1, SVG Export Plug-In . SVG Version: 6.00 Build 0)  -->

<svg
   version="1.1"
   id="Layer_1"
   x="0px"
   y="0px"
   viewBox="0 0 254 220"
   xml:space="preserve"
   sodipodi:docname="countriesandterritories-groups.svg"
   width="254"
   height="220"
   inkscape:version="1.1.2 (0a00cf5339, 2022-02-04)"
   xmlns:inkscape="http://www.inkscape.org/namespaces/inkscape"
   xmlns:sodipodi="http://sodipodi.sourceforge.net/DTD/sodipodi-0.dtd"
   xmlns="http://www.w3.org/2000/svg"
   xmlns:svg="http://www.w3.org/2000/svg"><defs
   id="defs3771" /><sodipodi:namedview
   id="namedview3769"
   pagecolor="#ffffff"
   bordercolor="#666666"
   borderopacity="1.0"
   inkscape:pageshadow="2"
   inkscape:pageopacity="0.0"
   inkscape:pagecheckerboard="0"
   showgrid="false"
   inkscape:zoom="1.742"
   inkscape:cx="250"
   inkscape:cy="158.43858"
   inkscape:window-width="1916"
   inkscape:window-height="1029"
   inkscape:window-x="1920"
   inkscape:window-y="49"
   inkscape:window-maximized="1"
   inkscape:current-layer="Layer_1" />
<style
   type="text/css"
   id="style3517">
	.st0{fill:#FFFFFF;}
	.st1{fill:none;}
	.st2{fill:#27AAE1;}
</style>
<path
   id="Path_1803"
   class="st0"
   d="m 260.8,279.7 h 1 l 0.2,-30.2 h -3 z" />
<path
   id="Path_1804"
   class="st0"
   d="m 253.9,279.7 h 1.2 l 3,-30.2 h -2.7 z" />
<path
   id="Path_1805"
   class="st0"
   d="m 252.6,249.2 1.3,-9.3 -0.8,-7 -1.2,16.1 z" />
<path
   id="Path_1952"
   class="st0"
   d="m 254.5,229.3 h 1.1 l 0.7,-11.4 h -4.6 l 0.6,10.9 z" />
<path
   id="Path_1953"
   class="st0"
   d="m 257.4,230.3 h 0.6 l 0.5,-6.8 -1.3,0.5 z" />
<g
   id="g3766"
   transform="matrix(3.1238692,0,0,3.1238692,-693.32805,-668.11601)">
	<path
   class="st1"
   d="m 265.2,270 0.2,-4.4 -1.1,-6.3 1.5,-0.7 0.4,-6.3 c -0.6,0 -1.2,0 -1.9,0 -0.7,0 -1.3,0 -2,0 l 1.1,17.8 -0.2,0.1 c -0.8,0.4 -1.6,0.9 -2.2,1.2 h 5.4 l -0.1,-0.8 z"
   id="path3524" />
	<path
   class="st1"
   d="m 262.1,259.5 -2,11.6 c 0.4,-0.3 1.2,-0.7 2.6,-1.5 z"
   id="path3526" />
	<polygon
   class="st1"
   points="260.8,263.4 258.6,276.5 "
   id="polygon3528" />
	
		<rect
   x="267.39999"
   y="276.89999"
   transform="matrix(0.9769,-0.2137,0.2137,0.9769,-53.0433,63.5537)"
   class="st1"
   width="0"
   height="0.5"
   id="rect3530" />
	<polygon
   class="st1"
   points="265.9,268.3 265.8,269.6 266.2,269.7 "
   id="polygon3532" />
	<path
   class="st1"
   d="m 265.7,263.4 v 0 l 3.1,1.4 c 0.3,4.8 0.6,11.8 0.6,13 0,0 0,0 0,0 v 0 c 0.1,-1.1 -0.3,-8.2 -0.6,-13 z"
   id="path3534" />
	<polygon
   class="st1"
   points="283.4,243.4 283.3,243.4 "
   id="polygon3536" />
	<polygon
   class="st1"
   points="259.1,276.9 259.8,277 "
   id="polygon3538" />
	<polygon
   class="st1"
   points="266.3,263 269.9,264.7 "
   id="polygon3540" />
	<rect
   x="267.70001"
   y="259"
   transform="matrix(0.3205,-0.9473,0.9473,0.3205,-65.2834,430.9574)"
   class="st1"
   width="0"
   height="3.9000001"
   id="rect3542" />
	<path
   class="st1"
   d="m 257.5,251.4 v 0 c 2.1,0.1 4.4,0.2 6.8,0.2 1.6,0 3.2,0 4.7,-0.1 l -0.1,-1.3 -2.1,1.2 -2.1,-0.7 1,-2.7 -3.7,2.1 -0.8,-0.4 0.4,0.9 -2.1,0.7 -2.1,-1.2 z"
   id="path3544" />
	<path
   class="st1"
   d="m 257.2,256.8 4.9,2.3 -0.4,-7 c -1.4,0 -2.8,-0.1 -4.2,-0.2 z"
   id="path3546" />
	<path
   class="st1"
   d="m 266.8,252.2 -0.3,6 2.9,-1.4 -0.3,-4.7 c -0.8,0 -1.5,0 -2.3,0.1 z"
   id="path3548" />
	<rect
   x="265.29999"
   y="259.60001"
   transform="matrix(0.9851,-0.1717,0.1717,0.9851,-40.9625,49.449)"
   class="st1"
   width="0"
   height="3.9000001"
   id="rect3550" />
	<path
   class="st1"
   d="m 269.7,271.5 0.3,0.1 v -6.2 l -0.6,-0.3 c 0.1,1.5 0.2,4 0.3,6.4 z"
   id="path3552" />
	<polygon
   class="st1"
   points="285.6,243.4 282.8,244.2 282.9,246.1 286.5,245.5 "
   id="polygon3554" />
	<polygon
   class="st1"
   points="270.4,263.3 270.6,264.9 "
   id="polygon3556" />
	<polygon
   class="st1"
   points="282.8,262.4 270.3,262.4 282.8,262.4 282.8,264.9 "
   id="polygon3558" />
	<path
   class="st1"
   d="m 284.6,243 1,-0.3 2.5,-3 c -0.1,-0.8 -0.2,-1.6 -0.2,-2.4 -1.8,2.5 -3.2,4.3 -4.1,5.5 0.1,0 0.2,0.1 0.4,0.1 0.1,0.1 0.2,0.1 0.4,0.1 z"
   id="path3560" />
	<path
   class="st1"
   d="m 282.8,243.1 c 1.1,-1.4 3.4,-4.5 5,-6.6 -0.2,-1.6 -0.3,-3 -0.4,-4 -0.6,1.1 -1.9,3.3 -4.7,7.9 z"
   id="path3562" />
	<path
   class="st1"
   d="m 288.9,228.2 c -0.7,-0.3 -1.3,-0.7 -1.8,-1.3 -0.1,1.4 -0.7,2.7 -1.8,3.7 l 0.3,1.5 1.2,-0.1 v 0.1 c 0.2,-0.3 0.3,-0.5 0.4,-0.7 l -0.1,-0.9 v -0.3 h 1.8 z"
   id="path3564" />
	<polygon
   class="st1"
   points="280.8,283.5 281.9,283.5 282.8,265.6 280.8,265.6 "
   id="polygon3566" />
	<path
   class="st1"
   d="m 274.3,265.6 h -0.5 l -0.7,10.7 2.3,-0.5 c -0.2,-2.7 -0.7,-7 -1.1,-10.2 z"
   id="path3568" />
	<polygon
   class="st1"
   points="270.6,283.1 272.1,283.4 272.6,276.4 272.5,276.4 272.6,276.4 273.2,265.6 270.6,265.6 "
   id="polygon3570" />
	<path
   class="st1"
   d="m 274.9,265.6 c 1.1,9.1 1.3,11.6 1.3,12.3 0.3,0 0.7,0 1,-0.1 L 277,265.6 Z"
   id="path3572" />
	<path
   class="st1"
   d="m 274.1,276.6 1.5,0.8 c 0,-0.3 -0.1,-0.7 -0.1,-1.2 z"
   id="path3574" />
	<path
   class="st1"
   d="m 258.2,264.7 -0.4,0.2 c -0.3,4.5 -0.6,11 -0.6,12.7 0,-1.7 0.3,-8.2 0.6,-12.7 z"
   id="path3576" />
	<path
   class="st1"
   d="m 231.1,252.8 8.9,5.4 c 0,0 -5.5,13.3 -6.8,16.9 l -0.6,-0.2 v 0 l 0.6,0.2 h 0.1 l 9.1,-18.2 -7.4,-4.7 c -1.3,0.3 -2.6,0.5 -3.9,0.6 z"
   id="path3578" />
	<polygon
   class="st1"
   points="238.5,258.5 227.4,252.7 "
   id="polygon3580" />
	<polygon
   class="st1"
   points="236,271.1 233.9,275.3 236,275.5 "
   id="polygon3582" />
	<path
   class="st1"
   d="m 236.6,269.8 v 5.7 l 0.6,0.1 c 0.1,-0.9 0.1,-2.1 0.2,-3.5 v 0 c 0.1,-1.4 0.2,-2.9 0.3,-4.5 z"
   id="path3584" />
	<path
   class="st1"
   d="m 238.5,246.7 c 0,1 1.8,2 5,2.9 l 0.1,-2.5 -5,-0.8 c -0.1,0 -0.1,0.2 -0.1,0.4 z"
   id="path3586" />
	<path
   class="st1"
   d="m 237,239.8 2.5,3 2.4,0.7 c -0.9,-1.1 -2.4,-3.1 -4.6,-6.1 v 0 c -0.2,0.7 -0.3,1.6 -0.3,2.4 z"
   id="path3588" />
	<path
   class="st1"
   d="m 224.9,277.3 h 1.2 l 0.4,-19.1 c -1.6,0.1 -2.4,0.1 -2.9,0.1 z"
   id="path3590" />
	<path
   class="st1"
   d="m 243.7,244.7 -4.3,-1.3 -0.4,1 v 0 c 0.1,0.1 0.3,0.2 0.5,0.3 0.1,0 2,0.3 4.2,0.6 v 1.1 0 -1.1 z"
   id="path3592" />
	<polygon
   class="st1"
   points="236.6,258.2 236.6,262 237.8,258.8 "
   id="polygon3594" />
	<path
   class="st1"
   d="m 233.6,275.9 -0.6,-0.2 c -0.1,0.2 -0.1,0.3 -0.1,0.3 0.3,0 5.4,1.2 6.7,1.5 l 0.2,-1 z"
   id="path3596" />
	<polygon
   class="st1"
   points="239.5,278.5 232.1,276.2 232.4,275.5 232.1,276.2 "
   id="polygon3598" />
	<path
   class="st1"
   d="m 267.3,244.2 -2.6,-1.4 -5.2,2.2 0.3,0.8 2.3,1 5.2,-2.4 z m -2.5,0.4 -0.2,0.2 -0.4,-0.4 -2.7,1.5 -0.1,-0.3 2.6,-1.4 -0.3,-0.3 0.2,-0.2 0.4,0.4 0.8,-0.4 0.1,0.3 -0.7,0.4 z"
   id="path3600" />
	<polygon
   class="st1"
   points="260.6,260.4 257,261.6 260.6,260.4 260.8,263.4 "
   id="polygon3602" />
	<rect
   x="256.39999"
   y="263.89999"
   transform="matrix(0.9059,-0.4235,0.4235,0.9059,-87.4364,134.2526)"
   class="st1"
   width="4"
   height="0"
   id="rect3604" />
	<polygon
   class="st1"
   points="257.6,249.5 258,242.9 258,242.8 257.6,249.5 259.7,250.7 260.9,250.3 259.7,250.7 "
   id="polygon3606" />
	<polygon
   class="st1"
   points="255.9,264.9 256.3,262.4 255.9,264.9 243.7,264.9 "
   id="polygon3608" />
	<polygon
   class="st1"
   points="266.2,247.1 267,245.2 262.4,247.3 262.4,249.2 "
   id="polygon3610" />
	<polygon
   class="st1"
   points="261,248.9 261.8,249.3 261.8,247.3 260.1,246.6 "
   id="polygon3612" />
	<path
   class="st1"
   d="m 249.5,265.6 -0.2,12.2 v 0 c 0.3,0.1 0.7,0.1 1,0.1 0,-0.7 0.2,-3.1 1.3,-12.3 z"
   id="path3614" />
	<path
   class="st1"
   d="m 250.9,277.5 1.5,-0.8 -1.4,-0.3 c 0,0.4 0,0.8 -0.1,1.1 z"
   id="path3616" />
	<polygon
   class="st1"
   points="244.7,283.5 245.7,283.5 245.7,265.6 243.7,265.6 "
   id="polygon3618" />
	<polygon
   class="st1"
   points="245.2,262.4 243.7,262.4 "
   id="polygon3620" />
	<path
   class="st1"
   d="m 252.2,265.6 c -0.4,3.3 -0.9,7.5 -1.1,10.1 l 2.2,0.5 -0.7,-10.6 z"
   id="path3622" />
	<polygon
   class="st1"
   points="254.1,276.4 254,276.5 254.4,283.4 255.9,283.1 255.9,265.5 253.3,265.5 254,276.3 "
   id="polygon3624" />
	<path
   class="st1"
   d="m 223.5,257.7 c 1.2,0 6.8,-0.3 11.2,-0.5 l -3,-1.6 -6.8,-0.8 -0.6,-23 -1.7,0.3 c 0.2,9.6 0.7,23.7 0.9,25.6 z"
   id="path3626" />
	<path
   class="st1"
   d="m 254.5,232.2 0.3,-1.5 c 0,-0.3 0.1,-0.7 0.1,-1 0.1,-1.8 -0.6,-3.6 -1.8,-4.9 v 0 c -0.6,-0.6 -1.3,-0.9 -2.1,-0.9 -2.2,0 -3.9,2.6 -3.9,5.8 v 0 c 0,3.2 1.8,5.8 3.9,5.8 1.5,-0.1 2.9,-1.4 3.5,-3.3 z"
   id="path3628" />
	<path
   class="st1"
   d="m 249.7,235.8 -0.1,1.3 h 2.1 V 236 c -0.2,0.1 -0.5,0.1 -0.7,0.1 -0.5,0 -0.9,-0.1 -1.3,-0.3 z"
   id="path3630" />
	<path
   class="st1"
   d="m 246.2,237.8 c 0.7,0 1.7,0 2.7,0 -1,-0.1 -2,-0.1 -2.7,0 z"
   id="path3632" />
	<path
   class="st1"
   d="m 274.2,237.8 h 3.5 v 0 h -3.5 v 0 c -1.8,0 -3.7,0 -5.3,0 v 0 c 1.6,0 3.5,0 5.3,0 z"
   id="path3634" />
	<path
   class="st1"
   d="m 256.3,261.7 v 0 l 1.3,-23.9 c -1.7,0 -3.5,0 -5.4,0 v 0 c 1.8,0 3.7,0 5.4,0 z"
   id="path3636" />
	<path
   class="st1"
   d="m 255.5,230.2 c 0.2,0.1 0.5,0.2 0.7,0.3 0.1,0 0.2,0 0.2,0 1.7,0.1 3.1,-2 3.2,-4.7 0.1,-2.6 -1.2,-4.8 -2.9,-4.9 v 0 c -1.4,0 -2.7,1.5 -3,3.6 1.2,1.4 1.8,3.2 1.8,5.1 0.1,0.2 0,0.4 0,0.6 z"
   id="path3638" />
	<polygon
   class="st1"
   points="268.5,242.8 265.6,250.3 266.8,250.7 265.6,250.3 "
   id="polygon3640" />
	<path
   class="st1"
   d="m 259.3,244.4 5.5,-2.3 2.8,1.5 0.7,-1.8 c -1.3,0 -2.6,-0.1 -4,-0.1 -2,0 -4,0 -6,0.1 z"
   id="path3642" />
	<path
   class="st1"
   d="m 256.1,231.1 c -0.2,0 -0.4,-0.1 -0.6,-0.2 v 0 c -0.1,0.4 -0.1,0.8 -0.3,1.2 l 1.6,0.2 0.1,-0.9 c -0.2,-0.1 -0.5,-0.2 -0.8,-0.3 z"
   id="path3644" />
	<polygon
   class="st1"
   points="243.7,261.7 244.6,237.8 "
   id="polygon3646" />
	<path
   class="st1"
   d="m 255,232.7 c -0.4,1.4 -1.4,2.5 -2.7,3.1 v 1.4 c 1.6,0 3.5,0 5.7,0 h 0.3 l -0.2,4.1 c 0.9,0 1.8,-0.1 2.7,-0.1 l -1,-8 -2.7,-0.3 z"
   id="path3648" />
	<path
   class="st1"
   d="m 290.1,246.7 c 0,-0.5 -0.7,-1.2 -1.9,-1.7 l -1.2,1.2 h -0.1 l -4,0.7 0.1,3.2 c 4.5,-1 7.1,-2.3 7.1,-3.4 z"
   id="path3650" />
	<path
   class="st1"
   d="m 234.2,217 c 0,0 0,0 0,0 v 0 c 0,0 0,0 0,0 -1.7,3.4 -1.5,7.4 0.4,10.7 0,0 0,0 0,0 0.1,0 0.1,0 0.2,0 1.2,0 2.3,-0.6 2.9,-1.6 1,-1.3 1.5,-2.9 1.7,-4.6 0.2,-1.5 0,-3 -0.5,-4.4 -0.6,0.1 -1.2,0.2 -1.8,0.2 -1,0.1 -2,0 -2.9,-0.3 -0.4,-0.1 -0.9,-0.2 -1.3,-0.4 0,0 0,0 0,0 0.4,0.2 0.9,0.4 1.3,0.4 z"
   id="path3652" />
	<path
   class="st1"
   d="m 230.6,252.2 c 1.5,-0.1 3,-0.3 4.5,-0.6 v 0 c 0.1,-0.8 0.4,-4 0.8,-7.6 l -3.5,-3.5 0.4,-0.4 0.5,0.5 3.2,3.2 v 0 0 l 1.5,1.5 v 0 l -1.5,-1.5 v 0 0 l -3.2,-3.2 0.7,-0.3 c 0,0 3,2.5 4.6,3.7 l 0.4,-0.9 -5.3,-6.4 0.5,-0.4 2.3,2.8 c 0.4,-3.8 0.7,-7.3 0.8,-8.4 H 231 l -0.4,21.5 c -1.7,0.1 -3.5,-0.1 -5.1,-0.5 v 0 c 1.7,0.4 3.4,0.6 5.1,0.5 z"
   id="path3654" />
	<path
   class="st1"
   d="m 235.5,228.4 c -0.2,0 -0.4,0.1 -0.5,0.1 -0.1,0 -0.2,0 -0.3,0 -0.5,0 -0.9,-0.2 -1.3,-0.4 l -0.4,2.1 h 2.5 z"
   id="path3656" />
	<polygon
   class="st1"
   points="225.4,254.3 230.1,254.8 225.4,252.3 "
   id="polygon3658" />
	<path
   class="st1"
   d="m 233.6,215.8 c -0.1,0.1 -0.2,0.2 -0.3,0.3 0,0 0,0 0,0 0.1,-0.1 0.2,-0.2 0.3,-0.3 z"
   id="path3660" />
	<path
   class="st1"
   d="m 243.8,243.7 0.1,-1.5 h -0.3 l -0.1,-0.2 c -3.5,-5.9 -5,-8.5 -5.7,-9.7 -0.1,1.1 -0.2,2.5 -0.4,4 1.9,2.7 5.1,6.9 5.6,7.3 0.2,0.2 0.5,0.1 0.8,0.1 z"
   id="path3662" />
	<path
   class="st1"
   d="m 234.5,215.3 c 0.1,0 0.2,0 0.4,0.1 -0.2,-0.1 -0.3,-0.1 -0.4,-0.1 z"
   id="path3664" />
	<path
   class="st1"
   d="m 238,215.8 c -0.1,-0.1 -0.2,-0.2 -0.3,-0.3 -0.3,0 -0.6,0.1 -0.9,0.1 -0.6,0 -1.1,0 -1.7,-0.1 0,0 0,0 0,0 v 0.1 c 0.9,0.1 1.9,0.2 2.9,0.2 z"
   id="path3666" />
	<polygon
   class="st1"
   points="234.3,215.3 234.2,215.3 "
   id="polygon3668" />
	<path
   class="st1"
   d="m 234.5,216.5 v 0 c 1.3,0.3 2.7,0.4 4.1,0.2 -0.1,-0.1 -0.1,-0.2 -0.2,-0.3 -0.3,0 -0.6,0.1 -0.9,0.1 -0.9,0 -1.8,-0.1 -2.7,-0.4 -0.4,-0.1 -0.8,-0.2 -1.1,-0.3 0,0 0,0 0,0 0.3,0.1 0.7,0.2 1.1,0.3 -0.2,0.1 -0.2,0.2 -0.3,0.4 z"
   id="path3670" />
	<path
   class="st1"
   d="m 235.6,214.7 -0.1,0.1 c 0,0 0,0 0,0 0.5,0.1 0.9,0.1 1.4,0.1 -0.2,-0.1 -0.5,-0.2 -0.8,-0.2 v 0 c -0.1,0 -0.3,0 -0.5,0 -0.1,0 -0.3,0 -0.4,0.1 0,0 0,0 0,0 0.1,-0.1 0.3,-0.1 0.4,-0.1 z"
   id="path3672" />
	<polygon
   class="st1"
   points="288.4,262 288.4,258.2 287.3,258.8 "
   id="polygon3674" />
	<polygon
   class="st1"
   points="294.9,254.8 299.6,254.3 299.7,252.3 "
   id="polygon3676" />
	<path
   class="st1"
   d="m 283.8,230.5 c 0.3,-0.1 0.7,-0.2 1,-0.4 v 0 c 1.1,-1 1.7,-2.5 1.7,-4 -0.8,-1.3 -1.3,-2.8 -1.5,-4.4 -0.4,-0.5 -1.1,-0.8 -1.7,-0.8 -1.7,0.1 -3,2.2 -2.9,4.9 0.1,2.6 1.5,4.8 3.2,4.7 0.1,0.1 0.2,0 0.2,0 z"
   id="path3678" />
	<path
   class="st1"
   d="m 290.4,257.2 c 4.4,0.2 10,0.5 11.2,0.5 v 0 c 0.2,-1.9 0.7,-15.9 1,-25.5 l -1.7,-0.3 -0.6,23 -6.9,0.8 z"
   id="path3680" />
	<path
   class="st1"
   d="m 287.9,231.4 v 0 c 0,0 0,0 0,0 0.2,1.6 0.4,4.6 0.8,7.7 l 2.3,-2.8 0.5,0.4 -5.3,6.4 0.9,2.2 1.5,-1.5 3.7,-3.7 0.4,0.4 -3.5,3.5 c 0,0.3 0,0.5 0.1,0.7 1,0.6 1.5,1.2 1.5,1.9 -0.1,0.7 -0.5,1.4 -1.2,1.7 0.2,1.6 0.3,2.7 0.3,3.2 1.1,0.2 6,1.2 9.7,0 l -4.1,-20.9 v 0 h -7.7 c 0,0.3 0.1,0.5 0.1,0.8 z"
   id="path3682" />
	<path
   class="st1"
   d="m 290.3,228.4 c -0.1,0 -0.2,0 -0.3,0 -0.2,0 -0.3,0 -0.5,0 v 1.7 h 2.5 l -0.4,-2.2 c -0.4,0.3 -0.8,0.4 -1.3,0.5 z"
   id="path3684" />
	<path
   class="st1"
   d="m 299,277.3 h 1.1 l 1.3,-19 c -0.5,0 -1.5,0 -2.9,-0.1 z"
   id="path3686" />
	<path
   class="st1"
   d="m 289.3,251.9 c 0,0 -0.1,-1.3 -0.3,-3.1 -1.9,0.9 -3.9,1.5 -5.9,1.9 l 0.2,5.2 6,-3.8 z"
   id="path3688" />
	<polygon
   class="st1"
   points="285.6,278.5 292.9,276.2 292.7,275.5 291.5,275.9 291.4,275.9 285.3,276.5 "
   id="polygon3690" />
	<path
   class="st1"
   d="m 287.9,275.6 0.6,-0.1 v -5.7 l -1.1,-2.2 c 0.1,1.5 0.2,3 0.3,4.4 v 0 c 0,1.5 0.1,2.7 0.2,3.6 z"
   id="path3692" />
	<path
   class="st1"
   d="m 295.3,252.8 c -1.8,0 -3.5,-0.2 -5.3,-0.5 l -6.8,4.3 0.1,1.6 8.5,17 0.7,-0.3 -6,-16.4 11.2,-5.8 c -0.8,0.1 -1.6,0.1 -2.4,0.1 z"
   id="path3694" />
	<polygon
   class="st1"
   points="289,271.1 289,275.5 291.1,275.3 "
   id="polygon3696" />
	<path
   class="st1"
   d="m 287.3,226.2 c 0.6,1 1.7,1.6 2.9,1.6 2.2,-0.2 3.6,-3.3 3.2,-6.9 -0.1,-1.6 -0.7,-3.2 -1.7,-4.6 -0.6,-0.9 -1.6,-1.5 -2.7,-1.6 -0.1,0 -0.2,0 -0.2,0 -2.2,0.2 -3.6,3.3 -3.2,6.9 0.2,1.7 0.8,3.3 1.7,4.6 z"
   id="path3698" />
	<ellipse
   class="st1"
   cx="275.60001"
   cy="229.60001"
   rx="3.9000001"
   ry="5.8000002"
   id="ellipse3700" />
	<path
   class="st1"
   d="m 274.8,236 v 1.2 h 2.1 l -0.2,-1.3 c -0.4,0.2 -0.8,0.3 -1.3,0.3 -0.1,-0.1 -0.3,-0.2 -0.6,-0.2 z"
   id="path3702" />
	<path
   class="st1"
   d="m 277.4,235.5 0.2,1.6 h 1.4 c 0.3,-2.2 0.5,-4.3 0.5,-4.3 v -0.2 c -0.3,1.2 -1.1,2.2 -2.1,2.9 z"
   id="path3704" />
	<path
   class="st1"
   d="m 282,237.8 0.9,24 v 0 l -0.9,-24 c -0.6,0 -2.2,0 -4.3,0 v 0 c 2,-0.1 3.7,-0.1 4.3,0 z"
   id="path3706" />
	<path
   class="st1"
   d="m 282.4,237.2 0.2,0.1 0.1,1.9 c 1.3,-2.2 3,-5 3.9,-6.6 l -6.4,0.6 c -0.1,0.6 -0.3,2.3 -0.5,4 0.9,-0.1 1.8,-0.1 2.7,0 z"
   id="path3708" />
	<path
   class="st1"
   d="m 283.9,231.2 c -0.2,0.1 -0.5,0.1 -0.7,0.1 l 0.1,0.9 1.7,-0.2 -0.3,-1.2 c -0.2,0.2 -0.5,0.3 -0.8,0.4 z"
   id="path3710" />
	<path
   class="st2"
   d="m 235.2,214.8 c 0.1,0 0.2,0 0.3,0 l 0.1,-0.1 c -0.1,0 -0.3,0 -0.4,0.1 z"
   id="path3712" />
	<path
   class="st2"
   d="m 234.5,216.5 v 0 c 0.1,-0.1 0.2,-0.3 0.2,-0.4 -0.4,-0.1 -0.8,-0.2 -1.1,-0.3 0,0 0,0 0,0 -0.1,0.1 -0.2,0.2 -0.3,0.3 0.3,0.2 0.7,0.3 1.2,0.4 z"
   id="path3714" />
	<polygon
   class="st2"
   points=""
   id="polygon3716" />
	<path
   class="st2"
   d="m 234.2,217 c -0.4,-0.1 -0.9,-0.2 -1.3,-0.4 -0.8,1.3 -1.3,2.7 -1.4,4.1 -0.4,3.5 1,6.5 3,6.9 -1.8,-3.1 -2,-7.2 -0.3,-10.6 z"
   id="path3718" />
	<path
   class="st2"
   d="m 234.2,215.3 c 0.3,0.1 0.5,0.1 0.8,0.2 v 0 c 0,0 0,0 0,0 v -0.1 c -0.1,0 -0.2,0 -0.2,0 -0.1,0 -0.3,0 -0.4,-0.1 0,0 -0.1,0 -0.2,0 z"
   id="path3720" />
	<path
   class="st2"
   d="m 240,258.2 -8.9,-5.4 c -0.4,0 -0.9,0 -1.3,0 -0.8,0 -1.6,0 -2.4,-0.1 l 11.2,5.8 v 0 0 l -6,16.4 0.6,0.2 c 1.2,-3.6 6.8,-16.9 6.8,-16.9 z"
   id="path3722" />
	<polygon
   class="st2"
   points="231.5,276.2 231.4,276.5 "
   id="polygon3724" />
	<path
   class="st2"
   d="m 233,275.7 -0.6,-0.2 -0.2,0.7 7.3,2.3 0.2,-1 c -1.4,-0.3 -6.4,-1.5 -6.7,-1.5 -0.1,0 -0.1,-0.1 0,-0.3 z"
   id="path3726" />
	<path
   class="st2"
   d="m 230.6,252.2 0.4,-21.4 h -1.4 l -4.1,20.9 c 1.7,0.4 3.4,0.6 5.1,0.5 z"
   id="path3728" />
	<path
   class="st2"
   d="m 233.3,240.6 3.2,3.2 v 0 0 l 1.5,1.5 0.5,-1.2 v 0 c -1.6,-1.2 -4.6,-3.7 -4.6,-3.7 z"
   id="path3730" />
	<path
   class="st2"
   d="m 239.5,244.7 c -0.2,-0.1 -0.3,-0.2 -0.5,-0.3 l -0.5,1.1 5.1,0.8 v -1.1 c -2.1,-0.2 -3.9,-0.4 -4.1,-0.5 z"
   id="path3732" />
	<path
   d="m 222.3,244.9 c 0.3,9.9 0.5,12.4 0.6,13.1 v 0 l 1.3,20 h 2.4 l 0.4,-19.8 c 1.9,-0.1 4.6,-0.2 8.7,-0.4 l 0.2,0.1 v 5.8 l -4.2,11.6 v 0 l -0.3,0.9 v 0.1 l -0.1,0.3 v 0 0.1 l 8.6,2.7 0.5,-3.3 -2.7,-0.3 c 0.1,-0.9 0.1,-2.1 0.2,-3.6 0.1,-1.8 0.3,-3.9 0.4,-5.9 l 4.8,-9.5 -7.4,-4.7 V 252 c 0,0 0.3,-3.3 0.7,-7.3 l 1.5,1.5 c -0.1,0.2 -0.1,0.4 -0.1,0.6 0,1.6 2.7,2.7 5.6,3.5 l -0.4,11.9 v 0 3.5 0 l 1,18.6 h 2.2 v -18.6 h 2.6 l -0.2,12.7 h 0.3 c 0.4,0.1 0.8,0.1 1.3,0.1 0.5,0 0.6,-0.1 0.6,-0.2 0,0 0,0 0,-0.1 l 2.5,-1.4 0.5,7.4 v 0 l 2.6,-0.7 v -18.1 l 0.6,-0.3 c -0.2,3.5 -0.7,12.4 -0.5,12.9 0,0.1 0.1,0.2 0.2,0.3 0.2,0.1 0.4,0.1 0.5,0.1 0.5,0 0.9,-0.1 1.4,-0.2 h 0.2 v 0 l 2.9,-1.4 -2.5,-0.5 0.8,-4.4 h 6.5 l 0.8,4.4 -2.5,0.5 2.8,1.3 v 0.1 h 0.2 c 0.4,0.1 0.9,0.2 1.4,0.2 0.2,0 0.4,0 0.5,-0.1 0.1,-0.1 0.2,-0.1 0.2,-0.2 0.1,-0.3 0,-3.1 -0.2,-6.2 h 0.3 v 11.6 l 2.7,0.7 v 0 l 0.5,-7.4 2.5,1.4 c 0,0 0,0 0,0.1 0.1,0.1 0.2,0.2 0.6,0.2 0.4,0 0.9,-0.1 1.3,-0.1 h 0.3 l -0.2,-12.7 h 2.5 v 18.6 h 2.3 l 1,-18.6 v 0 -3.2 0 l -0.1,-2.7 3.3,6.5 c 0.1,2 0.3,4.1 0.4,5.9 0.1,1.4 0.2,2.7 0.2,3.6 l -2.7,0.3 0.5,3.3 8.7,-2.8 -0.5,-1.3 -0.1,-0.3 v 0 l -4.1,-11.3 v -5.8 l 0.2,-0.1 c 3.7,0.2 6.6,0.3 8.7,0.4 l 0.5,19.8 h 2.3 l 1.4,-20 v 0 c 0.2,-0.7 0.3,-3.2 0.7,-13.1 0.2,-6.4 0.4,-12.9 0.4,-13 v -0.2 -0.1 l -3,-0.6 -0.4,18.3 -3.7,-19.3 h -3.3 l -0.5,-2.6 c 1.4,-1.3 2.3,-3.9 2,-6.8 -0.1,-1.8 -0.8,-3.4 -1.8,-4.9 -0.8,-1.2 -2.1,-1.9 -3.5,-1.8 -2.3,0.2 -4,3.2 -3.8,6.8 -0.5,-0.3 -1.1,-0.5 -1.7,-0.5 -2,0.1 -3.6,2.5 -3.5,5.5 0.1,2.4 1.2,4.4 2.8,5.1 l 0.2,1.4 -3.1,0.3 c 0.3,-1 0.5,-2 0.5,-3 0,-3.5 -2,-6.4 -4.6,-6.4 -2.5,0 -4.6,2.9 -4.6,6.4 0,2.9 1.4,5.3 3.2,6.1 v 0 1.4 c -1.6,0 -3.4,0 -5.7,0 h -0.3 l 0.2,4 c -1.4,0 -2.8,-0.1 -4.2,-0.1 -1,0 -1.9,0 -2.9,0 l -1.1,-8.6 -2.8,-0.3 0.2,-1.4 c 1.5,-0.7 2.6,-2.7 2.7,-5.1 0.1,-3 -1.5,-5.4 -3.5,-5.5 -1.6,0 -3.1,1.5 -3.6,3.7 -0.6,-0.5 -1.4,-0.8 -2.3,-0.8 -2.5,0 -4.6,2.9 -4.6,6.4 -0.1,2.3 0.9,4.5 2.7,5.8 l -0.2,1.6 c -1.6,-0.1 -3.2,-0.1 -4.8,0.1 l -0.2,0.1 -0.2,4.3 c -1.7,-2.8 -5.6,-9.5 -6,-10.2 0.1,-0.6 0.1,-0.9 0.1,-0.9 v -0.3 h -1.7 v -1.9 c 0.8,-0.3 1.5,-0.9 2,-1.6 1,-1.4 1.7,-3.1 1.8,-4.9 0.2,-1.6 0,-3.2 -0.6,-4.6 0,0 0.1,0 0.1,0 l -0.2,-0.6 c -0.1,0 -0.1,0 -0.2,0.1 -0.1,-0.1 -0.1,-0.3 -0.2,-0.4 l -0.2,-0.5 c 0,0 -0.1,0 -0.1,0 -0.1,-0.1 -0.2,-0.2 -0.3,-0.3 l -0.1,-0.6 c -0.1,0 -0.2,0.1 -0.4,0.1 -0.5,-0.4 -1.1,-0.7 -1.7,-0.7 -0.7,-0.1 -1.5,0.1 -2.1,0.5 -0.4,-0.1 -0.7,-0.2 -0.7,-0.2 l -0.2,0.6 c -0.2,0 -0.3,-0.1 -0.3,-0.1 l -0.2,0.6 0.2,0.1 c -0.1,0.1 -0.2,0.2 -0.3,0.3 v 0 c -0.1,0 -0.1,-0.1 -0.2,-0.1 l -0.2,0.3 -0.3,0.1 c 0.1,0.1 0.2,0.2 0.3,0.2 -0.8,1.3 -1.3,2.8 -1.4,4.3 -0.3,2.9 0.5,5.5 2,6.8 l -0.5,2.6 H 229 l -3.7,19.2 -0.4,-18.2 -3,0.5 v 0.3 c 0,0.3 0.2,6.8 0.4,13.2 z m 3.7,32.4 h -1.2 l -1.3,-19 c 0.4,0 1.2,0 2.9,-0.1 z M 236.6,262 v -3.8 l 1.2,0.6 z m 3.2,14.5 -0.2,1 -0.2,1 v 0 l -7.3,-2.3 0.2,-0.7 v 0 l 0.6,0.2 0.6,0.2 v -0.1 z m -5.9,-1.2 2.1,-4.2 v 4.4 z m 3.5,-3.2 c -0.1,1.4 -0.2,2.6 -0.2,3.5 l -0.6,-0.1 v -5.7 l 1.1,-2.2 c -0.1,1.6 -0.2,3.1 -0.3,4.5 z m 5,-15.2 -9.1,18.2 h -0.1 l -0.6,-0.2 v 0 l 6,-16.4 v 0 l -11.2,-5.8 c 0.8,0.1 1.6,0.1 2.4,0.1 0.5,0 0.9,0 1.3,0 1.3,-0.1 2.6,-0.2 3.9,-0.5 z m 1.1,-7.4 c -3.2,-0.8 -5,-1.9 -5,-2.9 0,-0.2 0.1,-0.3 0.2,-0.5 l 5,0.8 z m -1.7,-6.1 -2.4,-0.7 -2.5,-3 c 0.1,-0.8 0.2,-1.6 0.2,-2.4 v 0 c 2.3,3 3.8,5.1 4.7,6.1 z m 1.9,3 -5.1,-0.8 0.5,-1.1 v 0 l 0.4,-1 4.3,1.3 v 0.6 z m 2,37.1 h -1 l -1,-18 h 2 z m 4.6,-5.7 c -0.3,0 -0.7,0 -1,-0.1 v 0 l 0.2,-12.2 h 2.1 c -1.1,9.2 -1.3,11.7 -1.3,12.3 z m 0.6,-0.3 c 0,-0.3 0.1,-0.7 0.1,-1.2 l 1.4,0.3 z m 0.2,-1.8 c 0.3,-2.6 0.7,-6.9 1.1,-10.1 h 0.4 l 0.7,10.6 z m 4.8,7.4 -1.5,0.4 -0.4,-7 0.1,-0.1 H 254 l -0.7,-10.8 h 2.6 z m 0,-18.2 h -12.3 v 0 0 -2.6 0 0 h 1.5 11 v 0 0 z m 0.7,-0.2 v 0 0 l 0.3,-2.4 h 0.1 v -0.1 l 3.1,-1.1 0.1,1.8 v 0 0 z m 0.4,-3.1 0.2,-4.1 4.3,2.1 -0.7,3.8 v 0 0 l -0.2,-3.1 z m 5.1,-14.8 -2.3,-1 -0.3,-0.8 5.2,-2.2 2.6,1.4 -0.1,0.2 z m 4.9,-1.6 -0.7,1.9 -3.8,2.2 v -1.9 z m -5.2,4.1 -0.8,-0.4 -0.9,-2.3 1.7,0.7 z m -0.9,1 v 0 0 l -1.2,0.4 -2.1,-1.2 0.4,-6.7 v 0 0 z m -1.2,1 2.1,-0.7 -0.4,-0.9 0.8,0.4 3.7,-2.1 -1,2.7 2.1,0.7 2.1,-1.2 0.1,1.3 c -1.5,0.1 -3.1,0.1 -4.7,0.1 -2.4,0 -4.6,-0.1 -6.8,-0.2 v 0 l 0.1,-1.2 z m 6.6,11.7 0.1,-1.8 3.2,1.1 v 0.1 0 l 0.3,2.4 z m 3.3,-1.4 -3.7,-1.3 -0.2,3.1 v 0 0 l -0.7,-3.8 v 0 0 l 4.3,-2.1 z m -3.1,-3.4 0.3,-6 c 0.8,0 1.5,0 2.3,-0.1 l 0.3,4.7 z m -4.8,-6 0.4,7 -4.9,-2.3 0.3,-4.8 c 1.4,0 2.8,0 4.2,0.1 z m -1.9,24.8 v 0 0 l -0.8,0.4 0.1,-0.5 z m -1.2,-0.5 -0.2,1.2 c -0.4,0.1 -0.8,0.1 -1.1,0.1 0,-0.1 0,-0.2 0,-0.3 0,-1.7 0.3,-8.2 0.6,-12.7 l 0.4,-0.2 2.6,-1.2 v 0 0 z m 3.5,-17 0.6,10.1 c -1.5,0.8 -2.2,1.3 -2.6,1.5 z m -1.1,11.8 c 0.6,-0.3 1.4,-0.8 2.2,-1.2 l 0.2,-0.1 -1.1,-17.8 c 0.7,0 1.3,0 2,0 0.6,0 1.3,0 1.9,0 l -0.4,6.3 -1.5,0.7 1.1,6.3 -0.2,4.4 1.1,0.5 0.1,0.8 z m 4.8,-1.7 0.1,-1.3 0.3,1.5 z m 1.7,7.8 -0.8,-0.4 0.7,-0.1 v 0 0 z m 1.8,0.4 v 0 c 0,0 0,0 0,0 0,0 0,0 0,0 -0.4,0 -0.8,0 -1.1,-0.1 l -2.5,-14.3 v 0 0 l 3.1,1.4 c 0.2,4.8 0.6,11.9 0.5,13 z m 0.7,-6.2 -0.3,-0.1 c -0.1,-2.4 -0.2,-4.9 -0.3,-6.3 l 0.6,0.3 z m 2.6,4.8 v 0 0 l -0.4,7.1 -1.5,-0.4 v -17.5 h 2.6 z m 1.3,-10.8 h 0.5 c 0.4,3.2 0.9,7.5 1.1,10.1 l -2.3,0.5 z m 0.2,11 1.4,-0.3 c 0,0.5 0.1,0.9 0.1,1.2 z m 2.1,1.2 c 0,-0.7 -0.2,-3.2 -1.3,-12.3 h 2.1 l 0.2,12.2 c -0.3,0.1 -0.6,0.1 -1,0.1 z m 5.7,5.7 h -1.1 v -18 h 2 z m 0.9,-18.6 v 0 0 h -12.3 v 0 0 l -0.2,-1.7 -0.1,-0.9 v 0 0 h 12.6 z m 0,-20.7 2.8,-0.8 0.9,2.1 -3.6,0.6 z m 4.4,-13.8 0.1,0.9 c -0.1,0.1 -0.2,0.4 -0.4,0.7 v -0.1 l -1.2,0.1 -0.3,-1.5 c 1,-1 1.7,-2.3 1.8,-3.7 0.5,0.6 1.1,1 1.8,1.3 v 1.9 h -1.8 z m 0.2,2 c 0.1,1.1 0.2,2.5 0.4,4 -1.6,2.1 -3.8,5.2 -5,6.6 l -0.1,-2.7 c 2.7,-4.6 4,-6.8 4.7,-7.9 z m 0.4,5 c 0.1,0.8 0.2,1.6 0.2,2.4 l -2.5,3 -1,0.3 c -0.2,0 -0.3,-0.1 -0.5,-0.1 -0.1,0 -0.2,-0.1 -0.4,-0.1 1.1,-1.2 2.4,-3 4.2,-5.5 z m -4.5,6 z m -0.4,3.4 4,-0.7 h 0.1 l 1.2,-1.2 c 1.2,0.6 1.9,1.2 1.9,1.7 0,1.2 -2.6,2.4 -7.1,3.3 z m 0.1,3.8 c 2,-0.4 4,-1 5.9,-1.9 0.2,1.9 0.3,3.1 0.3,3.1 v 0.1 l -6,3.8 z m 9.9,25.6 -7.4,2.3 -0.3,-2 6.2,-0.7 v 0.1 l 1.2,-0.5 z m -5.5,-8.5 1.1,2.2 v 5.7 l -0.6,0.1 c -0.1,-0.9 -0.1,-2.1 -0.2,-3.6 v 0 c -0.1,-1.4 -0.2,-2.9 -0.3,-4.4 z m 1.6,7.8 v -4.4 l 2.1,4.2 z m -2.5,-17 6,16.4 -0.7,0.3 -8.5,-17 -0.1,-1.6 6.8,-4.3 c 1.7,0.4 3.5,0.5 5.3,0.5 0.8,0 1.6,0 2.4,-0.1 z m 1.9,-0.3 v 3.8 l -1.2,-3.2 z m 11.8,19.1 H 299 l -0.5,-19.1 c 1.4,0.1 2.4,0.1 2.9,0.1 z m 0,-22.5 0.6,-23 1.7,0.3 c -0.3,9.6 -0.8,23.6 -1,25.5 v 0 c -1.2,0 -6.8,-0.3 -11.2,-0.5 l 3,-1.6 z m -0.6,-0.5 -4.7,0.5 4.8,-2.5 z m -4.1,-23.6 v 0 l 4.1,20.9 c -3.7,1.1 -8.6,0.2 -9.7,0 0,-0.5 -0.2,-1.7 -0.3,-3.2 0.6,-0.3 1.1,-1 1.2,-1.7 0,-0.7 -0.5,-1.3 -1.5,-1.9 0,-0.2 -0.1,-0.5 -0.1,-0.7 l 3.5,-3.5 -0.4,-0.4 -3.7,3.7 -1.5,1.5 -0.9,-2.2 5.3,-6.4 -0.5,-0.4 -2.3,2.8 c -0.3,-3.2 -0.6,-6.1 -0.8,-7.6 0,0 0,-0.1 0,-0.1 v 0 c 0,-0.3 0,-0.5 -0.1,-0.7 h 7.7 z m -6,-0.6 v -1.7 c 0.2,0 0.3,0 0.5,0 0.1,0 0.2,0 0.3,0 0.5,0 0.9,-0.2 1.3,-0.4 l 0.4,2.2 h -2.5 z m -0.6,-15.4 c 0.1,0 0.2,0 0.2,0 1.1,0.1 2.1,0.7 2.7,1.6 1,1.3 1.5,2.9 1.7,4.6 0.4,3.6 -1.1,6.7 -3.2,6.9 -1.2,0 -2.3,-0.6 -2.9,-1.6 -1,-1.3 -1.5,-2.9 -1.7,-4.6 -0.4,-3.6 1,-6.7 3.2,-6.9 z m -8.5,11.1 c -0.1,-2.6 1.2,-4.8 2.9,-4.9 0.7,0 1.3,0.3 1.7,0.8 0.1,1.6 0.7,3.1 1.5,4.4 0,1.5 -0.6,3 -1.7,4 v 0 c -0.3,0.2 -0.6,0.3 -1,0.4 -0.1,0 -0.1,0 -0.2,0 -1.6,0.1 -3.1,-2 -3.2,-4.7 z m 4.6,6.3 -1.7,0.2 -0.1,-0.9 c 0.2,0 0.5,-0.1 0.7,-0.1 0.3,0 0.6,-0.1 0.8,-0.2 z m -4.8,1.1 6.4,-0.6 c -0.9,1.6 -2.6,4.3 -3.9,6.6 l -0.1,-1.9 -0.2,-0.1 c -0.9,-0.1 -1.8,-0.1 -2.7,-0.1 0.2,-1.7 0.4,-3.3 0.5,-3.9 z m -8.6,-3.6 c 0,-3.2 1.8,-5.8 3.9,-5.8 2.1,0 3.9,2.6 3.9,5.8 0,3.2 -1.8,5.8 -3.9,5.8 -2.1,0 -3.9,-2.6 -3.9,-5.8 z m 8,3 v 0.2 c 0,0 -0.3,2.1 -0.5,4.3 h -1.4 l -0.2,-1.6 c 0.9,-0.7 1.7,-1.7 2.1,-2.9 z m -2.6,4.5 h -2.1 V 236 c 0.2,0.1 0.5,0.1 0.7,0.1 0.4,0 0.9,-0.1 1.3,-0.3 z m -8.1,0.7 c 1.6,0 3.5,0 5.3,0 v 0 h 3.4 v 0 c 0,0 0,0 0,0 v 0 c 2,0 3.7,0 4.3,0 l 0.9,24 v 0 0 h -12.6 l -1.3,-24 c 0,0 0,0 0,0 z m -0.4,5 v 0 0 l 0.4,6.7 -2.1,1.2 v 0 0 l -1.2,-0.4 z m -4.2,-1 c 1.4,0 2.7,0 4,0.1 l -0.7,1.8 -2.8,-1.5 -5.5,2.3 -1,-2.5 c 2,-0.2 3.9,-0.2 6,-0.2 z m -4.5,-8.6 1,8 c -0.9,0 -1.8,0.1 -2.7,0.1 l 0.2,-4.1 H 258 c -2.3,0 -4.1,0 -5.7,0 v -1.4 c 1.3,-0.6 2.3,-1.8 2.7,-3.1 l 2.1,0.2 z m -4.6,-1.1 c 0.1,-0.4 0.2,-0.8 0.3,-1.2 v 0 c 0.2,0.1 0.4,0.2 0.6,0.2 0.3,0.1 0.6,0.2 0.9,0.2 l -0.1,0.9 z m 1.6,-11.1 v 0 c 1.7,0.1 3,2.2 2.9,4.9 -0.1,2.6 -1.5,4.7 -3.2,4.7 -0.1,0 -0.2,0 -0.2,0 -0.3,-0.1 -0.5,-0.2 -0.7,-0.3 0,-0.2 0,-0.4 0,-0.6 0,-1.9 -0.6,-3.7 -1.8,-5.1 0.4,-2.2 1.6,-3.7 3,-3.6 z m -9.7,8.6 v 0 c 0,-3.2 1.8,-5.8 3.9,-5.8 0.8,0 1.6,0.3 2.1,0.9 v 0 c 1.2,1.3 1.9,3.1 1.8,4.9 0,0.3 0,0.7 -0.1,1 l -0.3,1.5 c -0.6,1.9 -2,3.2 -3.5,3.2 -2.2,0.1 -3.9,-2.5 -3.9,-5.7 z m 4.6,6.4 v 1.2 h -2.1 l 0.1,-1.3 c 0.4,0.2 0.8,0.3 1.3,0.3 0.2,-0.1 0.4,-0.2 0.7,-0.2 z m -7.1,1.8 c 0.3,0 0.9,0 1.6,0 0.7,0 1.7,0 2.7,0 v 0 h 3.4 v 0 c 0,0 0,0 0,0 v 0 c 1.8,0 3.7,0 5.4,0 l -1.3,23.9 v 0 0 h -12.6 v 0 0 z m -6.9,-5.4 c 0.7,1.2 2.2,3.8 5.7,9.7 l 0.1,0.2 h 0.3 l -0.1,1.5 c -0.3,0 -0.6,0.1 -0.9,0.1 -0.5,-0.4 -3.7,-4.7 -5.6,-7.3 0.2,-1.8 0.4,-3.2 0.5,-4.2 z m -2.1,-17.7 c 0.2,0 0.4,0 0.5,0 v 0 c 0.3,0 0.5,0.1 0.8,0.2 -0.5,0 -0.9,0 -1.4,-0.1 0,0 0,0 0,0 -0.1,0 -0.2,0 -0.3,0 0,0 0,0 0,0 0.1,-0.1 0.3,-0.1 0.4,-0.1 z m -1.3,0.6 v 0 c 0.1,0 0.1,0 0.2,0 0.1,0 0.2,0 0.4,0.1 0.1,0 0.2,0 0.2,0 0,0 0,0 0,0 0.6,0.1 1.1,0.1 1.7,0.1 0.3,0 0.6,0 0.9,-0.1 0.1,0.1 0.2,0.2 0.3,0.3 -1,0 -2,0 -2.9,-0.3 0,0 0,0 0,0 v 0 c -0.3,0 -0.6,-0.1 -0.8,-0.1 -0.1,0 -0.1,0 0,0 z m -0.7,0.5 c 0,0 0,0 0,0 0.1,0 0.1,0 0,0 0.3,0 0.7,0.1 1.1,0.2 0.9,0.2 1.8,0.3 2.7,0.4 0.3,0 0.6,0 0.9,-0.1 0.1,0.1 0.1,0.2 0.2,0.3 -1.4,0.2 -2.7,0.1 -4.1,-0.2 v 0 0 c -0.4,-0.1 -0.8,-0.2 -1.2,-0.3 0,0 0,0 0,0 0.2,-0.1 0.3,-0.2 0.4,-0.3 z m 0.6,1.2 c 0.9,0.2 1.9,0.3 2.9,0.3 0.6,0 1.2,-0.1 1.8,-0.2 0.5,1.4 0.7,2.9 0.5,4.4 -0.1,1.6 -0.7,3.2 -1.7,4.6 -0.6,1 -1.7,1.6 -2.9,1.6 -0.1,0 -0.1,0 -0.2,0 0,0 0,0 0,0 -2,-0.4 -3.4,-3.4 -3,-6.9 0.1,-1.5 0.6,-2.9 1.4,-4.1 0,0 0,0 0,0 0.3,0.1 0.8,0.3 1.2,0.3 z m -0.8,11 c 0.4,0.2 0.8,0.4 1.3,0.4 0.1,0 0.2,0 0.3,0 0.2,0 0.4,0 0.5,-0.1 V 230 H 233 Z m -7.9,23.6 4.1,-20.9 h 1.4 6.2 c -0.1,1.1 -0.4,4.6 -0.8,8.4 l -2.3,-2.8 -0.5,0.4 5.3,6.4 -0.4,0.9 v 0 l -0.5,1.2 v 0 l -1.5,-1.5 v 0 0 l -3.2,-3.2 -0.5,-0.5 -0.4,0.4 3.5,3.5 c -0.4,3.6 -0.7,6.7 -0.8,7.6 v 0 c -1.5,0.3 -3,0.5 -4.5,0.6 -1.7,0.2 -3.4,0 -5.1,-0.5 z m 4.6,3.2 -4.7,-0.5 v -1.9 z m -5.8,-23 0.6,23 6.8,0.8 3,1.6 c -4.4,0.2 -10,0.5 -11.2,0.5 v 0 c -0.2,-1.9 -0.7,-15.9 -1,-25.5 z"
   id="path3734" />
	<polygon
   points="264.5,244.8 264.8,244.6 264.4,244.2 265.1,243.8 264.9,243.6 264.1,244 263.7,243.6 263.5,243.8 263.9,244.2 261.2,245.6 261.4,245.8 264.1,244.4 "
   id="polygon3736" />
	<path
   class="st0"
   d="m 268.7,264.8 -3.1,-1.4 v 0 l 2.5,14.3 c 0.4,0.1 0.8,0.1 1.1,0.1 0,0 0,0 0,0 0.2,-1.1 -0.2,-8.2 -0.5,-13 z"
   id="path3738" />
	<polygon
   class="st0"
   points="266.7,277 267.5,277.4 267.4,276.9 "
   id="polygon3740" />
	<polygon
   class="st0"
   points="269.6,261.6 269.3,257.5 265,259.6 265.7,263.4 265.9,260.4 269.6,261.6 "
   id="polygon3742" />
	<path
   class="st0"
   d="m 270.2,261.7 h 12.6 v 0 l -0.9,-24 c -0.6,0 -2.2,0 -4.3,0 0,0 0,0 0,0 v 0 0 h -3.5 v 0 c -1.8,0 -3.7,0 -5.3,0 0,0 0,0 0,0 z"
   id="path3744" />
	<polygon
   class="st0"
   points="269.6,262.3 266.4,261.2 266.3,263 269.9,264.7 269.6,262.4 "
   id="polygon3746" />
	<polygon
   class="st0"
   points="270.3,262.4 270.4,263.3 270.6,264.9 282.8,264.9 282.8,262.4 "
   id="polygon3748" />
	<polygon
   class="st0"
   points="268.5,242.8 265.6,250.3 266.8,250.7 268.9,249.5 "
   id="polygon3750" />
	<polygon
   class="st0"
   points="259.8,277 259.1,276.9 259,277.4 "
   id="polygon3752" />
	<path
   class="st0"
   d="m 243.7,261.7 h 12.6 v 0 l 1.3,-23.9 c -1.7,0 -3.5,0 -5.4,0 0,0 0,0 0,0 v 0 h -3.4 v 0 c -1,0 -1.9,0 -2.7,0 -0.7,0 -1.3,0 -1.6,0 z"
   id="path3754" />
	<polygon
   class="st0"
   points="260.1,261.2 256.9,262.3 256.9,262.4 256.6,264.7 260.2,263 "
   id="polygon3756" />
	<path
   class="st0"
   d="m 260.8,263.4 -2.6,1.2 -0.4,0.2 c -0.3,4.5 -0.6,11 -0.6,12.7 0,0.1 0,0.2 0,0.3 0.4,0 0.8,0 1.1,-0.1 l 0.2,-1.2 z"
   id="path3758" />
	<polygon
   class="st0"
   points="256.3,262.4 245.2,262.4 243.7,262.4 243.7,264.9 255.9,264.9 "
   id="polygon3760" />
	<polygon
   class="st0"
   points="261.5,259.6 257.2,257.5 257,261.6 260.6,260.4 260.8,263.4 "
   id="polygon3762" />
	<polygon
   class="st0"
   points="259.7,250.7 260.9,250.3 258,242.8 258,242.9 257.6,249.5 "
   id="polygon3764" />
</g>
</svg>
