<?xml version="1.0" encoding="UTF-8" standalone="no"?>
<!-- Generator: Adobe Illustrator 27.8.1, SVG Export Plug-In . SVG Version: 6.00 Build 0)  -->

<svg
   version="1.1"
   id="Layer_1"
   x="0px"
   y="0px"
   viewBox="0 0 254 220"
   xml:space="preserve"
   sodipodi:docname="countriesandterritories.svg"
   width="254"
   height="220"
   inkscape:version="1.1.2 (0a00cf5339, 2022-02-04)"
   xmlns:inkscape="http://www.inkscape.org/namespaces/inkscape"
   xmlns:sodipodi="http://sodipodi.sourceforge.net/DTD/sodipodi-0.dtd"
   xmlns:xlink="http://www.w3.org/1999/xlink"
   xmlns="http://www.w3.org/2000/svg"
   xmlns:svg="http://www.w3.org/2000/svg"><defs
   id="defs4555" /><sodipodi:namedview
   id="namedview4553"
   pagecolor="#ffffff"
   bordercolor="#666666"
   borderopacity="1.0"
   inkscape:pageshadow="2"
   inkscape:pageopacity="0.0"
   inkscape:pagecheckerboard="0"
   showgrid="false"
   inkscape:zoom="1.742"
   inkscape:cx="250"
   inkscape:cy="204.3628"
   inkscape:window-width="1916"
   inkscape:window-height="1029"
   inkscape:window-x="1920"
   inkscape:window-y="49"
   inkscape:window-maximized="1"
   inkscape:current-layer="Layer_1" />
<style
   type="text/css"
   id="style4519">
	.st0{fill:#FFFFFF;}
	.st1{clip-path:url(#SVGID_00000141458007525950650500000013370022761087486106_);}
	.st2{fill:#27AAE1;}
</style>
<path
   id="Path_1803"
   class="st0"
   d="m 260.8,279.7 h 1 l 0.2,-30.2 h -3 z" />
<path
   id="Path_1804"
   class="st0"
   d="m 253.9,279.7 h 1.2 l 3,-30.2 h -2.7 z" />
<path
   id="Path_1805"
   class="st0"
   d="m 252.6,249.2 1.3,-9.3 -0.8,-7 -1.2,16.1 z" />
<path
   id="Path_1952"
   class="st0"
   d="m 254.5,229.3 h 1.1 l 0.7,-11.4 h -4.6 l 0.6,10.9 z" />
<path
   id="Path_1953"
   class="st0"
   d="m 257.4,230.3 h 0.6 l 0.5,-6.8 -1.3,0.5 z" />
<g
   id="Group_276"
   transform="matrix(4.064,0,0,4.064,-927.33978,-791.52299)">
	<g
   id="g4549">
		<defs
   id="defs4527">
			<rect
   id="SVGID_1_"
   x="224.5"
   y="201.5"
   width="66.199997"
   height="64.900002" />
		</defs>
		<clipPath
   id="SVGID_00000091008279703054167170000011403599070275028399_">
			<use
   xlink:href="#SVGID_1_"
   style="overflow:visible"
   id="use4529"
   x="0"
   y="0"
   width="100%"
   height="100%" />
		</clipPath>
		
			<g
   id="Group_275"
   transform="translate(3.684,-24.467)"
   clip-path="url(#SVGID_00000091008279703054167170000011403599070275028399_)">
			<path
   id="Path_2368"
   class="st2"
   d="m 234.6,247.7 c 0,-1.7 0,-3.9 0,-4.5 0,0 -0.1,0 -0.1,-0.1 -0.2,0.5 -0.9,1.6 -1.8,3.1 0.6,0.5 1.2,1 1.9,1.5" />
			<path
   id="Path_2369"
   class="st2"
   d="m 223.5,259.7 v 0.1 c 0.2,-0.1 0.5,-0.3 0.9,-0.5 -0.5,0.2 -0.7,0.3 -0.9,0.4" />
			<path
   id="Path_2370"
   class="st2"
   d="m 231.7,252.9 c -0.8,-0.8 -1.5,-1.6 -2.2,-2.4 -1.5,1.9 -3.4,3.4 -5.6,4.4 l -0.4,4.1 c 3.2,-1.3 6,-3.4 8.2,-6.1" />
			<path
   id="Path_2371"
   class="st2"
   d="m 275.4,237.7 c -0.3,-0.2 -0.7,-0.3 -1,-0.3 0.1,0.1 0.3,0.3 0.4,0.5 0.2,-0.1 0.4,-0.1 0.6,-0.2" />
			<path
   id="Path_2372"
   class="st2"
   d="m 277,239.2 c -0.1,-0.1 -0.2,-0.3 -0.3,-0.4 -0.3,0.2 -0.6,0.3 -0.9,0.5 0.1,0.1 0.2,0.3 0.3,0.5 0.3,-0.2 0.6,-0.4 0.9,-0.6" />
			<path
   id="Path_2373"
   class="st2"
   d="m 276.8,247.6 v 0 c 0.3,-0.3 0.6,-0.6 0.8,-0.9 0.8,-1.5 1,-3.2 0.6,-4.8 -0.2,-0.8 -0.5,-1.6 -0.9,-2.4 -0.3,0.2 -0.7,0.4 -1,0.6 1.1,2.4 1.3,5.1 0.5,7.5" />
			<path
   id="Path_2374"
   class="st2"
   d="m 276.3,238.4 c -0.1,-0.1 -0.2,-0.2 -0.3,-0.3 -0.2,0.1 -0.5,0.2 -0.8,0.3 0.1,0.1 0.2,0.3 0.3,0.4 0.3,-0.2 0.5,-0.3 0.8,-0.4" />
			<path
   id="Path_2375"
   class="st2"
   d="m 282.9,262.6 -3,1.8 c 1.8,-0.3 3.5,-1 5,-2 l -5,-14.4 -1.2,0.5 2,6.8 c 0,0 0,-0.1 0.1,-0.1 l 0.5,0.3 c -0.1,0.2 -0.2,0.4 -0.3,0.5 z" />
			<path
   id="Path_2376"
   class="st2"
   d="m 286.1,284.1 -1,-1.2 h -1.2 l -1.7,0.6 -3.2,1.6 1.4,1.1 z" />
			<path
   id="Path_2377"
   class="st2"
   d="m 283.2,281.8 c 0.2,0.2 0.5,0.4 0.7,0.5 h 0.8 c -0.1,-0.1 -0.1,-0.2 -0.2,-0.3 l -0.2,-0.2 c 0,0 0,-0.1 -0.1,-0.2 -4.2,-6.7 -0.9,-15.7 0.4,-18.4 -0.7,0.4 -1.5,0.8 -2.3,1.1 -0.5,2 -2.9,12 0.9,17.5" />
			<path
   id="Path_2378"
   class="st2"
   d="m 280.3,286.8 -1.8,-1.5 -0.5,0.3 2.3,2 4.5,-2.4 z" />
			<path
   id="Path_2379"
   class="st2"
   d="m 264.5,284.7 h -0.1 l 1.5,2.6 4.8,-1.5 -5,0.7 z" />
			<path
   id="Path_2380"
   class="st2"
   d="m 271.1,282.7 h 0.6 c 1.9,-5 4.1,-9.8 6.6,-14.6 0.1,-1 0.2,-2 0.4,-3 -0.3,0 -0.7,0 -1,0 h -0.2 v 0 c -0.1,0.1 -4.8,9.1 -6.4,17.6" />
			<path
   id="Path_2381"
   class="st2"
   d="m 279,265.1 v 0 0 0" />
			<path
   id="Path_2382"
   class="st2"
   d="m 271.6,283.3 h -1.7 l -0.5,0.1 -4.5,1.2 0.9,1.4 6.1,-0.8 z" />
			<path
   id="Path_2383"
   d="m 284.8,285.2 2.2,-0.8 -1.5,-1.9 c -6,-7.5 -0.3,-19.1 0,-19.7 h 0.1 l -5.3,-15.4 -1.8,0.7 -0.4,-0.8 c 0.9,-1.6 1.2,-3.5 0.7,-5.3 -0.2,-0.9 -0.5,-1.7 -1,-2.5 0.3,-0.2 0.4,-0.3 0.5,-0.3 l -0.4,-0.4 c 0,0 -0.2,0.1 -0.4,0.3 -0.1,-0.1 -0.2,-0.3 -0.3,-0.4 0.1,-0.1 0.3,-0.2 0.4,-0.3 l -0.4,-0.4 c -0.1,0.1 -0.3,0.2 -0.4,0.3 -0.1,-0.1 -0.2,-0.2 -0.3,-0.3 0.3,-0.1 0.5,-0.3 0.6,-0.3 l -0.3,-0.5 c 0,0 -0.3,0.2 -0.8,0.4 -1.3,-1 -3.1,-0.8 -4.1,0.5 -0.1,0.1 -0.2,0.3 -0.3,0.4 -0.1,0 -0.2,0 -0.3,0 l -0.1,0.5 c 0,0 0.1,0 0.1,0 -0.1,0.1 -0.1,0.2 -0.2,0.4 -0.1,0 -0.1,0 -0.2,0 l -0.1,0.5 c 0,0 0.1,0 0.1,0 -0.3,1.2 -0.4,2.5 -0.1,3.8 0.3,1.4 1,2.8 2,3.8 0.6,0.6 1.3,1 2.2,1.2 l 0.2,0.7 -2,0.8 v 0.2 c 0,0 0.1,0.5 0.2,1.4 -0.1,0.8 -1,7.4 -4.8,7.9 0.6,-1.7 0.9,-3.4 0.9,-5.2 0,-1 -0.1,-1.9 -0.3,-2.9 v 0 l -0.2,-0.5 v 0 c -1.6,-8 -9.4,-13.1 -17.4,-11.5 -5.9,1.2 -10.4,5.8 -11.5,11.7 -1.9,-0.8 -3.6,-1.9 -5.2,-3.1 0,-2 0,-5 0,-5.1 V 243 l -0.1,-0.1 c -0.3,-0.2 -0.6,-0.4 -0.8,-0.5 0.4,0 0.8,0.1 1.2,0.1 1,0 2,-0.1 3,-0.3 l 0.2,-0.1 v -0.2 c -0.3,-2.3 -0.1,-4.5 0.5,-6.7 1,-2.9 1,-5.1 0.2,-6.5 -0.7,-1.1 -1.7,-1.8 -3,-2 -1.6,-0.6 -3.3,-0.7 -4.9,-0.1 -2.2,0.8 -4,2.8 -5.4,5.9 -0.7,1.7 -1.6,3.4 -2.5,5.1 l -0.3,0.2 0.3,0.2 c 1.2,0.9 2.4,1.8 3.7,2.5 -1.2,-0.1 -2,-0.1 -2.1,-0.1 h -0.3 l -4,41.2 0.2,0.1 c 1.4,0.5 2.9,0.8 4.3,0.9 0.1,0.7 0.5,3.1 0.8,4.6 v 0.2 l -0.1,0.1 4.8,3.5 4.5,-3.1 -7,-1.1 0.7,-4.3 c 0.6,0 1.1,0 1.7,-0.1 0.1,1.1 0.2,2.3 0.2,2.3 v 0.2 l -0.1,0.1 3.6,1.8 3.3,-2.2 -4.8,-0.2 c 0.1,-0.5 0.2,-1.4 0.4,-2.3 2.2,-0.3 3.8,-0.6 3.8,-0.6 l 0.3,-0.1 -0.2,-0.3 c -0.9,-1.8 -1.6,-10.2 -2,-24.8 2.2,1.9 4.4,3.7 6,4.9 0.6,1.1 1.3,2.1 2.1,3.1 5.1,6.2 14.3,7.1 20.5,2 1,-0.9 1.9,-1.8 2.7,-2.9 l 2.2,-0.5 c 0.1,0 0.2,0 0.3,0 1.9,0 3.9,-0.5 5.6,-1.4 0.2,1.7 0.4,3 0.5,3.3 -0.6,1.2 -5.2,10.6 -5.8,18 l -5.7,1.1 0.5,0.8 1.2,1.8 5,-0.7 2,-0.3 -0.5,-2.6 v 0 c 0.3,-0.8 3.5,-8.7 6,-13.6 -0.3,8.4 3.7,12 5.1,13.1 l -5.8,1.9 1,0.9 1.8,1.5 z m -11,-47.8 c 0.1,0 0.3,0 0.5,0 0.1,0 0.1,0 0.2,0 0.3,0 0.7,0.1 1,0.3 -0.2,0.1 -0.4,0.1 -0.6,0.2 -0.8,0.3 -1.6,0.4 -2.5,0.5 0.3,-0.5 0.8,-0.8 1.4,-1 m -1.8,1.5 c 0.1,0 0.2,0 0.3,0 1,0 2,-0.2 2.9,-0.5 0.3,-0.1 0.5,-0.2 0.8,-0.3 0.1,0.1 0.2,0.2 0.3,0.3 -1.4,0.7 -2.9,1.1 -4.5,0.9 0.1,-0.2 0.1,-0.3 0.2,-0.4 m 0.7,1 c 1.1,0 2.1,-0.2 3.1,-0.6 0.3,-0.1 0.6,-0.3 0.9,-0.5 0.1,0.1 0.2,0.3 0.3,0.4 -0.3,0.2 -0.6,0.4 -1,0.5 -1.4,0.7 -3,0.9 -4.5,0.5 0,-0.1 0.1,-0.3 0.1,-0.4 0.4,0 0.7,0.1 1.1,0.1 m -1.1,3.5 c -0.2,-0.9 -0.2,-1.8 -0.1,-2.7 0.5,0.2 1.1,0.3 1.7,0.3 1.1,0 2.2,-0.3 3.2,-0.8 0.3,-0.2 0.7,-0.3 1,-0.6 0.4,0.7 0.7,1.5 0.9,2.4 0.4,1.6 0.2,3.3 -0.6,4.8 -0.2,0.3 -0.5,0.6 -0.8,0.8 v 0 c -0.2,0.2 -0.5,0.3 -0.8,0.4 -1,0.1 -2,-0.2 -2.6,-1 -1.1,-1 -1.7,-2.2 -1.9,-3.6 m 4.1,5.2 c 0.1,0 0.3,0 0.4,0 0.6,-0.1 1.1,-0.4 1.5,-0.9 l 0.3,0.6 -0.9,0.4 -1.1,0.5 z m -2.6,7.2 c 0.3,-0.8 0.5,-1.5 0.7,-2.3 0.2,1.3 0.4,2.9 0.7,4.4 -1.4,1.5 -3.3,2.5 -5.4,2.7 -0.1,-0.1 -0.2,-0.2 -0.4,-0.4 1.9,-0.2 3.4,-1.7 4.4,-4.4 m -8.6,5.6 2.7,-0.3 V 260 l 0.3,-0.3 c 0.4,0.5 0.7,0.9 1.2,1.3 v 1.3 l -2.3,0.5 z m 4.6,-7 c 0,1.8 -0.3,3.5 -0.9,5.2 -0.1,-0.2 -0.3,-0.3 -0.4,-0.5 l -0.2,-0.2 -0.4,0.4 c 0,-0.2 -0.1,-0.5 -0.2,-0.7 -0.1,-0.2 -0.3,-0.5 -0.6,-0.6 l -0.4,-0.8 v -2.3 c 0.1,-0.2 0.3,-0.4 0.5,-0.6 l 1,-1.3 v 0 c 0.2,-0.4 0.4,-0.8 0.5,-0.9 0.2,-0.1 0.5,-0.2 0.7,-0.3 0.3,0.8 0.4,1.7 0.4,2.6 m -3.2,-9.2 v 0 c -0.4,0 -0.7,0.1 -1.1,0.1 -0.1,0 -0.1,0 -0.2,0 -0.1,0 -0.3,0 -0.4,0 -0.1,0 -0.3,0 -0.4,0 0,0 -0.1,0 -0.1,0 -0.3,-0.1 -0.6,-0.2 -0.8,-0.4 -0.1,-0.1 -0.2,-0.3 -0.2,-1.1 v -0.1 c 0,-0.1 -0.1,-1 -0.2,-1.6 1.3,0.8 2.5,1.9 3.4,3.1 m -11.7,1.8 1.2,-0.4 1.1,-0.6 0.8,-0.5 1,-0.1 0.1,0.1 v 0.4 l -0.6,0.8 0.2,0.8 0.8,0.8 0.2,0.5 0.4,0.7 v 0.2 h -2.6 v 0.2 c -0.1,0.3 -0.2,0.7 -0.2,0.8 -0.1,0.3 -0.1,0.7 -0.1,1 -0.1,0.2 -0.2,0.3 -0.3,0.4 -0.2,0 -0.5,0 -0.7,0 h -0.1 l -1,0.3 -0.1,0.1 c -0.2,0.2 -0.4,0.5 -0.5,0.8 0,0.2 0.1,0.4 0.2,0.6 0,0.1 0.1,0.1 0.1,0.2 0,0.1 0.1,0.2 0.2,0.3 0.1,0.1 0.1,0.2 0.2,0.4 0,0 -0.1,0.1 -0.1,0.1 -0.2,0.2 -0.3,0.2 -0.4,0.2 -0.1,0 -0.2,0 -0.3,-0.1 -0.3,0 -0.6,-0.1 -0.8,-0.3 -0.4,-0.3 -0.7,-0.6 -1.1,-0.8 -0.3,-0.2 -0.8,-0.3 -1.2,-0.3 -0.2,0 -0.3,0 -0.4,0 -0.2,0 -0.4,0 -0.6,0.2 -0.2,0.2 -0.3,0.5 -0.3,0.8 l 0.2,1 v 0.1 c 0,0.1 0.3,0.6 0.4,0.9 l -3.7,-0.4 0.5,-0.7 -0.3,-1.7 -1,0.5 c -0.1,-0.2 -0.2,-0.4 -0.2,-0.6 l -0.6,-1.2 v -0.8 h -0.3 l -0.7,0.1 v -0.1 l -0.3,0.1 c -0.4,0.1 -0.9,0.1 -1.3,0 -0.1,-0.2 -0.3,-0.5 -0.4,-0.7 0.1,-0.7 0.2,-1.4 0.3,-2 0.2,-0.1 0.5,-0.2 1,-0.5 h 0.1 v -0.1 c 0.5,-0.6 0.4,-0.8 0.4,-0.9 0,-0.1 -0.1,-0.2 -0.1,-0.2 -0.2,-0.3 -0.5,-0.5 -0.7,-0.8 0.5,-0.8 1.1,-1.5 1.7,-2.2 v 0.1 l 0.7,-0.2 c 0.1,0.1 0.4,0.2 0.5,0.2 0.5,0.1 1,0 1.4,-0.2 0.1,-0.1 0.3,-0.2 0.4,-0.3 0.1,0 0.1,0 0.2,0 0.2,0 0.3,0 0.5,0 0.2,0 0.4,0 0.6,0 0.1,0 0.3,0 0.4,0 0.6,0.1 1.2,0.1 1.8,-0.1 0.2,-0.1 0.8,-0.4 1,-0.5 h 0.5 c 0.2,0.1 0.8,0.4 1,0.5 0.1,0.1 0.3,0.3 0.3,0.5 -0.1,0.2 -0.2,0.8 -0.3,0.9 v 1.4 z m 0.8,11.4 c -0.1,-0.2 -0.1,-0.4 0,-0.5 0,-0.1 0.1,-0.2 0.1,-0.3 0,-0.2 0.1,-0.4 0.2,-0.6 0.1,0 0.1,-0.1 0.2,-0.2 0.1,0 0.2,-0.1 0.3,-0.1 0.4,-0.1 0.9,-0.3 1,-0.3 0.2,0 0.5,0 0.7,0 0.2,0 0.3,0 0.5,0 0,0 0,0.1 0,0.1 0,0.1 0.1,0.2 0.1,0.4 0.1,0.5 0.2,0.9 0.5,1.3 0,0 0.7,0.8 1.1,0.8 v 0 c 0.1,0 0.6,0.2 1,0.3 l 0.9,0.2 0.2,0.4 v 0.9 l -0.2,0.5 -0.4,1 -0.4,1 v 0.1 c 0,0.3 0,0.6 0,0.9 0,0.1 0,0.3 0.1,0.4 0,0.1 -0.1,0.1 -0.2,0.2 l -0.1,0.1 c -0.3,0.3 -0.6,0.7 -0.9,1 -0.1,0.1 -0.4,0.6 -0.7,0.9 l -0.6,0.3 -1,0.2 -0.6,-0.1 -0.6,-0.7 c -0.2,-0.2 -0.4,-0.5 -0.4,-0.9 0,-0.2 0,-0.4 0.1,-0.6 0,-0.1 0,-0.2 0,-0.2 0,-0.4 0.1,-0.8 0,-1.1 0,-0.4 -0.1,-0.7 -0.1,-1.1 l -0.2,-0.6 -1.1,-0.5 -0.7,-0.5 v -0.4 l -0.2,-0.6 -0.3,-0.7 -1,-0.7 -1.2,-0.5 -1.3,-0.1 h -0.1 v 0 l 0.6,-1.2 c 0.3,0.4 0.8,1.1 1.2,1.2 0.2,0 0.5,0 0.7,-0.1 0.1,0 0.1,0 0.2,0 0.4,0.6 0.9,1 1.6,1.4 0,0 1,-0.1 1,-0.6 0.1,-0.2 0,-0.3 0,-0.4 m -11.2,-6.2 h 0.4 v 0.3 l 0.6,1.3 c 0.1,0.2 0.2,0.5 0.2,0.6 0,0 0,0 0,0 l -1.1,0.6 z m 0.2,3.3 2.2,-1.1 0.1,0.7 -0.9,1.3 4.3,0.5 -1.1,2.1 -4.5,-0.6 z m 1.4,-1.3 v -0.1 c 0,0 0.1,0 0,0.1 z m -3.6,-5.7 v 0 c 0.2,-0.5 0.4,-1 0.7,-1.5 0.2,0.2 0.3,0.4 0.5,0.6 -0.1,0.1 -0.1,0.2 -0.2,0.4 -0.4,0.3 -0.9,0.5 -1,0.5 m -0.4,0.9 c 0,0.1 0,0.2 -0.1,0.4 -0.1,0.5 -0.2,1.1 -0.2,1.2 0,0.2 0.1,0.4 0.2,0.5 -0.2,0 -0.3,-0.1 -0.5,-0.2 0.2,-0.5 0.4,-1.2 0.6,-1.9 m -6.9,-6.3 c 0,0 0.1,0 0.1,0.1 0,0.6 0,2.8 0,4.5 -0.7,-0.5 -1.3,-1 -1.9,-1.5 -0.2,-0.1 -0.3,-0.3 -0.5,-0.4 0.7,-1.2 1.2,-2.6 1.5,-3.1 0.3,0.1 0.5,0.3 0.8,0.4 m -5,-8.5 c -0.4,-0.3 -0.5,-0.8 -0.4,-1.3 0,-0.2 0.2,-0.3 0.3,-0.4 0.2,-0.1 0.3,-0.1 0.5,-0.1 z m 7.5,1.6 c -0.5,-0.1 -1,-0.3 -1.4,-0.6 -0.1,-0.7 -1.9,-1.2 -3,-1.1 -0.8,0 -1.7,-0.2 -2.4,-0.6 l 0.7,-2.5 c 0.3,-1.3 1.5,-2.2 2.9,-2.2 0.3,0 0.6,0 0.8,0.1 l 1.1,0.3 c 1.6,0.4 2.6,2.1 2.1,3.7 0,0 0,0 0,0 z m -7.2,-0.6 0.3,-1.2 c 0.8,0.4 1.7,0.6 2.6,0.6 0.9,-0.1 1.7,0.1 2.4,0.7 0.1,0.5 1.1,0.9 1.8,1.1 l -0.2,0.8 c -0.4,1.6 -2.1,2.6 -3.7,2.1 0,0 0,0 -0.1,0 l -1.1,-0.3 c -1.5,-0.5 -2.5,-2.2 -2,-3.8 0,0 0,0 0,0 m 0.6,3.6 c 0.4,0.3 0.8,0.5 1.3,0.7 l 0.8,0.2 -0.2,1.5 c -0.8,-0.3 -1.7,-0.5 -2.5,-0.7 z m -6.3,-1.6 c 0.9,-1.6 1.8,-3.3 2.5,-5 1.3,-3 3,-4.9 5.1,-5.6 1.5,-0.5 3.1,-0.5 4.5,0.1 h 0.1 c 1.1,0.2 2,0.8 2.6,1.7 0.8,1.3 0.7,3.3 -0.2,6.1 -0.6,2.2 -0.8,4.5 -0.6,6.7 -1.7,0.3 -3.4,0.4 -5.1,0.1 v 0.1 0 l 0.2,-1.6 c 1.8,0.3 3.6,-0.8 4.1,-2.6 l 1.1,-4.2 c 0.5,-1.9 -0.6,-3.8 -2.5,-4.4 0,0 0,0 -0.1,0 l -1.1,-0.3 c -1.9,-0.5 -3.8,0.6 -4.4,2.5 0,0 0,0 0,0.1 l -0.3,1 c -0.3,-0.1 -0.6,0 -0.9,0.1 -0.3,0.2 -0.5,0.4 -0.6,0.8 -0.2,0.8 0.1,1.6 0.7,2.1 l 0.1,-0.1 -0.1,0.4 c -0.3,0.9 -0.1,1.9 0.3,2.7 0.1,0.2 0.3,0.4 0.4,0.6 l -0.6,2 c -0.2,0 -0.4,-0.1 -0.6,-0.1 -1.6,-1.1 -3.2,-2.1 -4.6,-3.2 m 1.2,3.2 c 2.7,0.1 5.3,0.7 7.8,1.6 -0.2,0.5 -0.8,1.8 -1.4,3 -1.7,-1.4 -2.8,-2.5 -2.8,-2.6 l -0.4,0.4 c 0.4,0.4 9.8,9.7 14.7,9 l 0.1,2.9 v 0 0 l 0.4,7 c -2.3,-1.7 -12.7,-9.4 -15.6,-14.5 l -0.5,0.3 c 0.3,0.6 0.7,1.1 1.1,1.6 -1.3,1.6 -2.9,2.9 -4.7,4 z m -1.4,14.2 0.1,-0.7 c 1.9,-1.1 3.6,-2.6 5.1,-4.2 0.1,0.2 0.3,0.3 0.4,0.5 0.6,0.8 1.4,1.6 2.2,2.4 -2.2,2.7 -5,4.8 -8.2,6.1 z m 7,35.2 -4.1,-3 h 1.2 l 5.9,0.9 z m -3.1,-3.5 h -1.2 c -0.3,-1.5 -0.6,-3.6 -0.7,-4.3 0.6,0 1.3,0.1 2,0.1 0.2,0 0.4,0 0.6,0 z m 6.7,-0.6 -2.4,-1.2 h 0.3 l 3.7,0.1 z m -2,-1.7 h -1 c 0,-0.4 -0.1,-1.3 -0.2,-2.1 h 0.1 c 0.5,0 1,-0.1 1.5,-0.1 -0.2,0.9 -0.3,1.8 -0.4,2.2 m 4.3,-3.4 c -2.6,0.5 -5.3,0.8 -8,0.9 h -0.3 v 0 c -2.4,0.1 -4.9,-0.2 -7.2,-0.9 l 2.1,-21.3 v -0.1 c 0.2,-0.1 0.5,-0.2 0.8,-0.4 3,-1.4 5.7,-3.5 7.8,-6 0.9,0.9 1.8,1.7 2.8,2.5 0.5,14.6 1.1,22.9 2,25.3 m 18,-11.9 c -4.2,0 -8.2,-1.9 -10.8,-5.1 -0.5,-0.6 -1,-1.2 -1.4,-1.9 0.7,0.5 1.2,0.9 1.3,0.9 l 0.5,0.3 -0.2,-4.4 4.8,0.7 0.6,-1.1 v 0.1 c 0.1,0 0.2,0 0.4,-0.1 l 1.1,0.1 1,0.4 0.8,0.6 0.2,0.5 0.2,0.5 v 0.6 l 0.9,0.7 0.9,0.5 0.1,0.4 c 0.1,0.3 0.1,0.6 0.1,1 0,0.4 0,0.7 0,1.1 0,0.1 0,0.1 0,0.2 0,0.2 -0.1,0.4 -0.1,0.6 0,0.5 0.2,1 0.6,1.3 l 0.7,0.8 0.9,0.2 1.2,-0.2 0.8,-0.4 v 0 c 0.1,-0.1 0.6,-0.8 0.7,-1 0.2,-0.3 0.5,-0.6 0.8,-0.9 l 0.1,-0.1 c 0.2,-0.2 0.5,-0.5 0.2,-0.9 0,-0.3 0,-0.6 0,-1 l 0.4,-0.9 0.4,-1 0.3,-0.6 v -1.2 l -0.4,-0.7 -1.1,-0.3 c -0.4,-0.1 -0.7,-0.2 -1.1,-0.3 -0.2,-0.2 -0.5,-0.4 -0.7,-0.6 -0.2,-0.3 -0.3,-0.6 -0.4,-0.9 0,-0.2 0,-0.4 -0.1,-0.5 0,0 0,-0.1 0,-0.1 0,-0.3 -0.3,-0.4 -1,-0.4 -0.3,0 -0.5,0 -0.8,0.1 v 0 c 0,0 -0.5,0.2 -1,0.3 -0.3,0.1 -0.4,0.1 -0.5,0.3 0,0 0,0 -0.1,0.1 -0.2,0.2 -0.4,0.6 -0.4,0.9 0,0.1 -0.1,0.2 -0.1,0.3 -0.1,0.3 -0.1,0.6 0,0.8 v 0 c -0.1,0.1 -0.3,0.1 -0.4,0.1 -0.4,-0.3 -0.8,-0.7 -1.1,-1.1 -0.1,-0.4 -0.6,-0.3 -0.8,-0.2 -0.1,0 -0.3,0.1 -0.5,0.1 -0.2,0 -0.8,-0.8 -1.1,-1.2 -0.1,-0.1 -0.4,-0.7 -0.5,-1 l -0.2,-0.9 c 0,-0.1 0.1,-0.2 0.1,-0.3 0.1,-0.1 0.1,-0.1 0.2,-0.1 0.1,0 0.2,0 0.4,0 0.3,0 0.6,0.1 0.8,0.2 0.4,0.2 0.7,0.5 1.1,0.7 0.3,0.2 0.7,0.4 1.1,0.4 0.1,0 0.2,0 0.3,0 0.3,0 0.7,-0.1 0.9,-0.4 0,0 0.1,-0.1 0.1,-0.1 0.3,-0.2 0.1,-0.7 -0.1,-1 -0.1,-0.1 -0.1,-0.2 -0.1,-0.3 0,-0.1 -0.1,-0.2 -0.1,-0.2 -0.1,-0.1 -0.1,-0.2 -0.1,-0.3 0.1,-0.1 0.2,-0.3 0.3,-0.4 l 0.8,-0.2 c 0.3,0 0.6,0 0.8,0 0.4,-0.1 0.6,-0.6 0.7,-0.8 v 0 -0.1 c 0,-0.3 0,-0.6 0,-0.8 0,-0.1 0.1,-0.4 0.2,-0.7 h 2.7 v -0.9 l -0.5,-0.8 -0.3,-0.6 -0.8,-0.8 -0.1,-0.4 0.6,-0.8 v -0.8 l -0.4,-0.4 -1.4,0.1 -0.9,0.6 -1.1,0.6 -0.9,0.3 -0.1,-0.1 v -0.9 c 0.1,-0.3 0.2,-0.5 0.2,-0.8 0.2,-0.4 -0.3,-1 -0.6,-1.2 -0.2,-0.1 -1,-0.5 -1.1,-0.6 h -0.1 -0.6 -0.1 c 0,0 -0.8,0.4 -1.1,0.6 -0.5,0.1 -1,0.1 -1.4,0 -0.2,0 -0.4,0 -0.6,0 -0.1,0 -0.2,0 -0.4,0 -0.2,0 -0.4,0 -0.7,0 -0.1,0 -0.1,0 -0.2,0 -0.3,0.1 -0.6,0.2 -0.8,0.5 -0.3,0.1 -0.6,0.1 -0.9,0.1 -0.1,0 -0.5,-0.2 -0.6,-0.2 h -0.1 -0.1 c 2.6,-2.5 6.1,-3.9 9.7,-3.9 2.5,0 5,0.7 7.2,2 h -0.1 c 0.1,0.8 0.3,1.8 0.3,1.9 v 0.1 c -0.1,0.5 0,1.1 0.3,1.5 0.3,0.3 0.7,0.5 1.2,0.6 0,0 0.1,0 0.1,0 0.2,0 0.3,0 0.5,0 0.1,0 0.2,0 0.3,0 0.1,0 0.1,0 0.2,0 0,0 0.1,0 0.1,0 0.6,-0.1 0.8,-0.1 0.9,-0.1 h 0.5 c 1.2,1.6 2,3.5 2.4,5.4 -0.9,0.3 -1,0.4 -1,0.4 -0.2,0.3 -0.4,0.7 -0.6,1 l -0.9,1.2 c -0.3,0.3 -0.6,0.7 -0.6,1 v 2.5 l 0.5,1.1 h 0.1 c 0.2,0.1 0.3,0.3 0.4,0.4 0.1,0.2 0.1,0.5 0.1,0.7 0,0.1 0,0.4 0,0.6 v 0 0.5 l -3.6,0.4 3.1,2.3 c -2.6,3.6 -6.8,5.8 -11.3,5.8 m 26,-13.9 c -0.1,0 -0.1,0 0,0 -4,6.8 -10.2,7.1 -11.5,7.1 v -1.2 c 5.8,-0.7 8.8,-7 9.8,-9.8 0,-0.1 0,-0.1 0.1,-0.1 l -0.5,-0.2 c 0,0 0,0.1 -0.1,0.2 -0.8,2.3 -2.1,4.4 -3.6,6.2 -0.3,-2.2 -0.6,-4.3 -0.8,-5.7 v 0 0 l -0.2,-1.2 1.6,-0.6 v 0 l 1.7,-0.7 1.5,-0.6 1.2,-0.5 5,14.4 c -1.5,1 -3.2,1.6 -5,2 -1.3,0.2 -2.6,0.3 -3.9,0.1 -0.1,-0.5 -0.3,-1.7 -0.5,-3.3 2.2,-1.2 4.1,-3.1 5.4,-5.2 0.1,-0.2 0.2,-0.3 0.3,-0.5 z m -4.9,9.9 c 0.5,0.1 1,0.1 1.5,0.1 h 0.2 c 0.3,0 0.7,0 1,0 -0.2,1.1 -0.3,2.1 -0.4,3 -2.4,4.7 -4.6,9.6 -6.6,14.6 h -0.6 -0.8 c 0.6,-7.2 5,-16.4 5.7,-17.7 m -10.9,19.4 -0.2,-0.3 4.6,-0.9 0.5,-0.1 h 1.7 l 0.4,1.8 -6.1,0.8 z m 14.1,-19.4 v 0 h -0.1 0.1 c 1.1,-0.2 2.1,-0.4 3.2,-0.8 0.8,-0.3 1.6,-0.6 2.3,-1.1 -1.2,2.8 -4.6,11.7 -0.4,18.4 0.1,0.1 0.2,0.3 0.3,0.4 0.1,0.1 0.1,0.2 0.2,0.3 h -0.8 c -0.3,-0.2 -0.5,-0.3 -0.7,-0.5 -1.8,-1.4 -6,-6 -4.1,-16.7 m -0.5,19.6 3.7,-1.2 1.7,-0.6 h 1.2 l 1,1.2 -5.7,2.1 -1.4,-1.1 z" />
		</g>
	</g>
</g>
</svg>
