<?xml version="1.0" encoding="utf-8"?>
<!-- Generator: Adobe Illustrator 28.1.0, SVG Export Plug-In . SVG Version: 6.00 Build 0)  -->
<svg version="1.1" id="Layer_1" xmlns="http://www.w3.org/2000/svg" xmlns:xlink="http://www.w3.org/1999/xlink" x="0px" y="0px"
	 viewBox="0 0 35.8 25" style="enable-background:new 0 0 35.8 25;" xml:space="preserve" fill="currentColor">
<g>
	<path class="st1" d="M32.7,0H3C1.4,0,0,1.4,0,3v15.4c0,1.7,1.4,3,3,3h29.7c1.7,0,3-1.4,3-3V3C35.8,1.4,34.4,0,32.7,0z M33.7,18.4
		c0,0.5-0.4,1-1,1H3c-0.5,0-1-0.4-1-1V3c0-0.5,0.4-1,1-1h29.7c0.5,0,1,0.4,1,1V18.4z"/>
	<path class="st1" d="M24.3,22.9H11.4c-0.6,0-1,0.5-1,1c0,0.6,0.5,1,1,1h12.9c0.6,0,1-0.5,1-1C25.4,23.4,24.9,22.9,24.3,22.9z"/>
</g>
</svg>
