<?xml version="1.0" encoding="UTF-8"?><svg id="Layer_1" xmlns="http://www.w3.org/2000/svg" viewBox="0 0 242.98 308.26"><defs><style>.cls-1{fill:none;}.cls-2{fill:#fff;}.cls-3{fill:#27aae1;}</style></defs><polygon class="cls-1" points="162.81 123.28 162.91 123.34 162.81 123.28 162.81 123.28"/><polygon class="cls-1" points="132.92 285.62 132.92 285.63 133.85 285.65 133.85 285.65 132.92 285.63 132.92 285.62"/><path class="cls-1" d="m129.37,123.75c-.41-.15-3.36-.97-6.29-1.77,2.93.8,5.87,1.61,6.28,1.77,1.2.73,2.3,1.62,3.26,2.65h0c-.96-1.03-2.06-1.92-3.26-2.65Z"/><path class="cls-1" d="m19.72,180.54s0,0,0,0c.09.21.19.41.29.6h0c-.1-.2-.2-.41-.29-.61l89.91,2.14h0s-89.91-2.14-89.91-2.14Z"/><path class="cls-1" d="m85.31,111.13l-6.34-.5c-1.32-2.17-7.46-12.3-12.46-21.54,0,0,0,0,0,0,5.01,9.24,11.14,19.37,12.47,21.54l6.34.5Z"/><polygon class="cls-1" points="172.13 126.08 171.25 127.74 171.25 127.74 172.13 126.07 172.13 126.07 172.14 126.05 172.13 126.08"/><path class="cls-1" d="m112.36,283.29l1.84-.11c7.21-29.51,12.69-94.87,13.24-101.6-18.42-12.54-61.44-21.26-68.42-22.62-.59-.11-.92-.17-.96-.18l.35-1.91s0,0,0,0l-.35,1.91s.37.07.96.18l-.02.13-.06.55-.5.23c-6.52,2.94-13.6,4.43-20.75,4.36,0,0,0,0,0,0,7.15.07,14.23-1.42,20.75-4.36l.5-.23.06-.55v-.13c6.99,1.35,50.02,10.07,68.43,22.62-.55,6.73-6.03,72.08-13.24,101.59l-1.84.11.67-51.22-.67,51.21-4.23.27-.37-28.63.37,28.63v.64s0-.64,0-.64l4.23-.26Z"/><polygon class="cls-1" points="108.22 290.4 108.22 290.4 107.52 290.31 107.52 290.31 108.22 290.4 132.98 293.47 134.09 293.61 133.85 295.53 133.66 295.51 133.86 295.53 134.09 293.61 132.99 293.47 132.92 285.88 132.98 293.47 108.22 290.4"/><path class="cls-1" d="m120.65,121.32c-1.04-.28-1.97-.53-2.65-.72l1.82-4.87h-.68v-1.94s0,0,0,0v1.94h.67l-1.82,4.87h0c.68.18,1.61.44,2.65.72Z"/><polygon class="cls-1" points="70.5 121.93 70.5 121.93 70.67 121.67 70.5 121.93"/><polygon class="cls-1" points="59.29 58.12 59.29 58.12 59.28 58.12 59.29 58.12"/><path class="cls-1" d="m126.72,127.72h-2.26s-2.06-1.26-2.06-1.26l-2.29-.28h0s2.29.28,2.29.28l2.06,1.26h2.26s0,0,0,0l1.94-2.16h.01c.9.63,1.74,1.35,2.51,2.15h0c-.76-.79-1.6-1.51-2.51-2.15h-.01l.4-.45h0s-.4.44-.4.44l-1.95,2.16Z"/><polygon class="cls-1" points="78.9 112.57 74.27 119.68 72.49 122.43 71.45 124.02 71.46 124.02 72.49 122.43 111.99 120.52 72.49 122.43 74.28 119.69 74.28 119.69 78.9 112.58 78.9 112.58 79.22 112.09 77.59 111.03 77.59 111.03 79.21 112.09 78.9 112.57"/><path class="cls-1" d="m61.39,4.64c-.68.47-1.34.97-1.96,1.53,0,0,0,0,0,0,.62-.55,1.28-1.05,1.96-1.53Z"/><path class="cls-1" d="m45,81.15c.03.09,1.07,2.94,2.95,7.27,1.44,3.82,3.19,7.52,5.23,11.05,1.67,3.28,3.5,6.49,5.43,9.62-1.93-3.13-3.75-6.34-5.43-9.62,0-.02-.02-.03-.03-.05-2.03-3.52-3.77-7.19-5.2-10.99,0,0,0,0,0-.01-1.87-4.33-2.91-7.18-2.95-7.26l1.82-.66s0,0,0,0l-1.83.66Z"/><path class="cls-1" d="m66.62,88.07c.26-2.34.51-4.57.74-6.64-.24,2.07-.49,4.3-.74,6.64Z"/><path class="cls-1" d="m126.59,124.96c-2.56-.71-6.9-1.89-9.98-2.72l-.15-.04.5-1.87h0s-.5,1.87-.5,1.87l.15.04h0c3.08.83,7.43,2.01,9.99,2.72h0Z"/><path class="cls-1" d="m65.77,6.72c1.55,1,3.23,1.75,4.98,2.26-1.75-.51-3.43-1.27-4.98-2.27-1.21-.76-2.37-1.59-3.47-2.5l-.13-.11s0,0,0,0l.13.11c1.1.91,2.26,1.74,3.47,2.5Z"/><path class="cls-1" d="m63.65,116.66c-1.95,17.58-3.8,34.6-4.43,40.36,0,0,0,0,0,0,3.02.58,14.09,2.78,26.84,6.22,20.08,5.42,34.52,11.15,42.94,17.05l.45.32-.04.55c-.06.71-5.69,70.77-13.24,102.08l-1.27-.03h0s1.28.03,1.28.03l16.73.43-1.15-135.46v-.96s-.01,0-.01,0v.96s-32.29,0-32.29,0v-13.58h16.14l-.97-6.88h.24l1.18,1.54,2.03-1.55,6.39-.02-6.39.02-2.02,1.55-1.18-1.54,2.49-1.91-3.09-.38-2.44-3.01-.33-.4,1.5-1.22h0s-1.51,1.22-1.51,1.22l.33.4-41.57,2.01-.31-.31c-2.27-2.36-4.37-4.87-6.3-7.51-.57-.78-1.14-1.56-1.69-2.36,0,0,0,0,0,0,0,0,0,0,0,0,.55.8,1.11,1.58,1.69,2.36Z"/><polygon class="cls-1" points="170.3 125.05 199.88 80.37 188 81.17 188 81.17 199.88 80.37 170.3 125.05 164.6 122.03 164.6 122.04 164.57 122.02 164.6 122.04 170.3 125.05"/><polygon class="cls-1" points="92.52 198.23 92.52 198.23 93.58 215.29 92.52 198.23 92.47 197.36 92.47 197.36 92.52 198.23"/><polygon class="cls-1" points="105.08 197.96 105.08 197.96 106.42 301.46 106.42 301.46 105.09 197.96 105.08 197.31 105.07 197.31 105.08 197.96"/><polygon class="cls-1" points="172.03 125.96 172.03 125.96 170.3 125.05 172.02 125.96 172.03 125.96"/><polygon class="cls-1" points="138.14 127.68 131.29 127.71 138.15 127.68 138.14 127.68"/><polygon class="cls-1" points="135.03 306.29 135.03 306.29 235.23 305.06 235.23 148.22 235.22 148.22 235.22 305.06 135.03 306.29"/><rect class="cls-1" x="91.4" y="197.85" width=".81" height="0" transform="translate(-115.9 264.41) rotate(-82.87)"/><polygon class="cls-1" points="95.43 245.33 83.74 276.72 81.97 276.72 82.13 276.05 81.97 276.73 79.06 276.73 79.06 276.73 83.74 276.73 95.43 245.33 95.73 250.1 85.74 276.93 85.74 276.93 97.51 278.89 95.73 250.1 95.43 245.33 94.14 224.39 94.14 224.4 95.43 245.33"/><path class="cls-1" d="m20.64,161.81c.27.08.54.15.8.22-.27-.07-.54-.14-.8-.22Z"/><polygon class="cls-1" points="176.86 123.46 206.06 83.91 201.99 80.68 201.99 80.69 206.05 83.91 176.86 123.46"/><path class="cls-1" d="m17.42,169.43c.16,3.6.74,7.63,2.25,10.99-1.51-3.36-2.09-7.38-2.25-10.99Z"/><path class="cls-1" d="m24.17,162.71c.12.03.23.04.35.07-.28-.06-.56-.13-.85-.19.17.04.33.09.5.12,0,0,0,0,0,0Z"/><path class="cls-1" d="m15.84,160.24c.06-.45.1-.74.11-.81l1.71.27-1.72-.27c-.01.07-.06.36-.11.81,0,0,0,0,0,0h0c-.37,2.88-1.31,12.72,1.74,20.26h0c-3.05-7.54-2.11-17.37-1.74-20.25Z"/><path class="cls-1" d="m35.54,175.48h0c.48,0,1-.01,1.56-.01-.57,0-1.09,0-1.56.01Z"/><path class="cls-1" d="m33.43,164.06c.45.03.89.07,1.34.09-.45-.02-.89-.06-1.34-.09Z"/><path class="cls-1" d="m30.37,163.77c.48.06.96.1,1.44.15-.48-.05-.96-.09-1.44-.15Z"/><path class="cls-1" d="m26.87,163.24c.47.08.94.16,1.41.23-.47-.07-.94-.15-1.41-.23Z"/><rect class="cls-1" x="114.81" y="285.12" width=".08" height="0" transform="translate(-173.72 391) rotate(-88.21)"/><path class="cls-1" d="m62.84,2.18c.12.09.27.2.43.33-.16-.13-.3-.24-.43-.33Z"/><rect class="cls-1" x="77.92" y="276.73" width="0" height="1.94" transform="translate(-210.28 289.04) rotate(-76.58)"/><polygon class="cls-1" points="79.98 285.29 80.48 285.34 79.98 285.29 81.52 278.67 81.52 278.67 79.98 285.29 79.98 285.29"/><polygon class="cls-1" points="3.64 182.1 3.64 182.1 4.63 187.34 3.64 182.1"/><polygon class="cls-1" points="107.69 195.96 107.69 195.96 74.7 196.68 107.69 195.96"/><polygon class="cls-1" points="62.66 2.05 62.37 2.47 62.67 2.05 62.66 2.05"/><polygon class="cls-1" points="82.37 17.42 82.37 17.42 82.37 17.42 82.37 17.42"/><path class="cls-1" d="m49.07,25.68c.99-4.81,2.83-9.4,5.42-13.57h0s0,0,0,0c-2.59,4.17-4.43,8.76-5.42,13.57-1.32,6.16-1.27,12.12-.13,17.12-1.14-5-1.19-10.95.13-17.11Z"/><path class="cls-1" d="m58.07,75.65c2.28,8.02,16.77,31.93,19.18,35.89h0s0,0,0,0c-2.42-3.97-16.9-27.88-19.18-35.89l1.86-.53s0,0,0,0l-1.87.53Z"/><polygon class="cls-1" points="10.38 206.33 9.99 200.02 9.99 200.02 9.93 199.08 9.93 199.08 9.99 200.02 10.38 206.33"/><polygon class="cls-1" points="101.39 136.58 115.87 136.58 241.04 136.58 241.04 136.58 101.39 136.58 101.39 136.58"/><path class="cls-1" d="m59.7,15.79c-2.62,5.2-4.76,11.93-5.33,20.44.57-8.5,2.71-15.23,5.33-20.44Z"/><path class="cls-1" d="m15.94,130.29c0,.1,0,.2,0,.3h0c0-.1,0-.21,0-.32-.52-23.4-1.38-65.2-1.52-72.27h0c.14,7.07.99,48.87,1.53,72.27,0,0,0,.01,0,.02Z"/><rect class="cls-1" x="21.23" y="199.79" width="0" height="101.67" transform="translate(-3.05 .28) rotate(-.7)"/><path class="cls-1" d="m41.74,65.2s-22.85,63.9-17.55,95.52c-2.68-.6-5.3-1.4-7.86-2.39h0c2.56.99,5.19,1.79,7.86,2.39,8,1.84,20.6,3.1,32.94-2.4,0,0,0,0,0,0-12.34,5.5-24.93,4.24-32.93,2.4-5.3-31.62,17.55-95.52,17.55-95.52l9.97-3.37c5.86,1.48,12.2,3.46,15.37,5.66-.26,2.03-1.18,9.3-2.2,18.57,0,0,0,0,0,0,1.02-9.27,1.94-16.54,2.2-18.57-3.17-2.2-9.51-4.18-15.37-5.66-5.4-1.37-10.39-2.32-12.12-2.64,0,0,0,0,0,0,1.73.32,6.72,1.27,12.11,2.63l-9.97,3.37Z"/><polygon class="cls-1" points="63.65 9.35 63.65 9.34 63.65 9.35 63.65 9.35"/><path class="cls-1" d="m63.65,9.34s0,0,0,0c.71-.96,1.42-1.84,2.11-2.62h0c-.69.78-1.4,1.66-2.11,2.62Z"/><polygon class="cls-1" points="16.28 301.46 20.03 301.46 16.27 301.46 16.28 301.46"/><polygon class="cls-1" points="171.69 134.64 117.56 134.64 116.86 129.7 116.85 129.7 117.55 134.65 171.69 134.65 171.69 134.64"/><path class="cls-2" d="m81.88,32.7c.96-4.38,1.22-8.88.76-13.34,0,0,0,0,0,0-1.94.35-3.92.52-5.89.52-5.91-.05-11.72-1.54-16.92-4.34-.04.08-.08.17-.12.25-2.62,5.2-4.76,11.93-5.33,20.44-.35,5.29-.1,11.26,1.03,17.98.57.44,1.18.82,1.83,1.14.78.39,1.61.69,2.47.88,9.05,1.94,19-8.62,22.18-23.52Z"/><polygon class="cls-2" points="235.22 305.06 235.22 148.22 133.69 148.22 135.03 306.29 235.22 305.06"/><path class="cls-2" d="m51.71,61.83l-9.97,3.37s-22.85,63.9-17.55,95.52c8,1.84,20.59,3.1,32.93-2.4.39-3.56,2.58-23.73,4.83-44.04,0,0,0,0,0,0,0,0,0,0,0,0-1.16-1.71-2.27-3.45-3.36-5.21-1.94-3.13-3.76-6.34-5.43-9.62-2.04-3.53-3.79-7.23-5.23-11.05-1.88-4.33-2.91-7.18-2.95-7.27l1.83-.66s0,0,0,0h0s.05.13.12.33h4.11s16.53,33.65,21.24,38.34l4.95-7.62c-2.41-3.96-16.9-27.88-19.18-35.89l1.87-.53s0,0,0,0h0c1.34,3.78,2.99,7.44,4.95,10.94,1.02-9.26,1.94-16.54,2.2-18.57-3.17-2.2-9.51-4.18-15.37-5.66Z"/><path class="cls-2" d="m35.54,175.48c.48,0,1-.01,1.56-.01,17.53,0,76.61,4.28,76.61,4.28l-.68,52.33-.67,51.22,1.84-.11c7.21-29.51,12.69-94.87,13.24-101.59-18.42-12.55-61.45-21.27-68.42-22.62v.13s-.07.55-.07.55l-.5.23c-6.52,2.94-13.6,4.43-20.75,4.36,0,0,0,0,0,0,0,0,0,0,0,0-.97,0-1.95-.04-2.92-.09-.45-.02-.89-.06-1.34-.09-.54-.04-1.09-.09-1.63-.14-.48-.05-.96-.09-1.44-.15-.7-.08-1.39-.19-2.08-.29-.47-.07-.94-.15-1.41-.23-.79-.14-1.57-.29-2.35-.46-.12-.03-.23-.04-.35-.07-.59,3.09-1.5,13.01,11.36,12.77Z"/><path class="cls-2" d="m82.37,17.42h0c-.19-1.15-.45-2.29-.77-3.41,0,0,0,0,0,0h0c-1.79.28-3.59.42-5.4.43-4.79.08-9.51-1.14-13.66-3.51-.61.9-1.21,1.87-1.8,2.91,6.61,3.58,14.22,4.84,21.63,3.58Z"/><polygon class="cls-2" points="60.74 13.84 60.74 13.84 60.73 13.84 60.74 13.84 60.74 13.84"/><polygon class="cls-2" points="171.69 134.64 171.69 129.51 116.86 129.7 117.56 134.64 171.69 134.64"/><polygon class="cls-2" points="105.08 197.96 105.08 197.96 94.46 198.19 100.85 301.46 106.42 301.46 105.08 197.96 105.08 197.96"/><path class="cls-2" d="m114.32,120.41l1.71-.08,1.75-4.69-38.88-3.05-4.62,7.11c5.9-.03,30.81.51,40.04.72Z"/><polygon class="cls-2" points="114.85 285.16 114.85 285.16 114.85 285.16 114.85 285.08 108.16 285.5 108.16 285.5 108.22 290.4 132.98 293.47 132.92 285.88 132.92 285.63 132.92 285.63 132.92 285.62 114.85 285.16"/><path class="cls-2" d="m59.29,58.12s0,0,0,0c0,0,0,0,0,0h0c-1.37-.3-2.67-.83-3.86-1.57,0,0,0,0,0,0l-.74,4.05c1.76.48,3.51,1.01,5.19,1.57.18-1.31.35-2.58.46-3.49.02-.13.03-.27.05-.39-.37-.04-.73-.1-1.09-.17Z"/><path class="cls-2" d="m78.61,7.47c-1.68-2.65-4.32-4.55-7.37-5.3-.19-.04-.38-.07-.57-.1-1.27.98-2.46,2.06-3.57,3.21h0c3.41,2.19,7.53,2.98,11.51,2.19Z"/><path class="cls-2" d="m75.6,9.74c-1.65-.04-3.28-.3-4.86-.75-1.75-.51-3.43-1.26-4.98-2.26-.69.78-1.4,1.66-2.11,2.62,3.65,2.08,9.35,3.94,17.33,2.79-.37-1.01-.81-1.98-1.31-2.93,0,0,0,0,0,0-1.33.35-2.7.53-4.07.53Z"/><path class="cls-2" d="m15.84,160.23h0s0,0,0,0c0,0,0,0,0,0-.54-.21-.85-.35-.88-.36l-.57-.26v-.14h-.29s.09-1.88.32-5.14h0c.12-8.57.67-16.61,1.52-24.07,0,0,0,.01,0,.02,0,0,0-.01,0-.02-.53-23.4-1.38-65.2-1.53-72.27l-12.4.92,5.26,121.32h0l10.31.24c-3.05-7.54-2.11-17.38-1.74-20.26Z"/><path class="cls-2" d="m123.05,124.59l2.5,1.53,1.04-1.16c-2.56-.71-6.9-1.89-9.99-2.72l-2.37.11,1.04,1.29,7.77.95Z"/><path class="cls-2" d="m85.31,111.13h.09c-7.93-7.11-15.06-23.49-17.93-30.68-.04.32-.08.66-.11.99-.24,2.07-.49,4.3-.74,6.64-.04.34-.07.67-.11,1.02,5.01,9.24,11.14,19.37,12.46,21.54l6.34.5Z"/><path class="cls-2" d="m120.65,121.32c.77.21,1.6.43,2.44.66,2.93.8,5.88,1.61,6.29,1.77,1.2.73,2.3,1.62,3.26,2.65h3.23l-.8-3.48-10.88-7.19h-4.36l-1.82,4.87c.68.18,1.61.44,2.65.72Z"/><polygon class="cls-2" points="120.11 126.19 118.07 127.75 118.07 127.75 124.46 127.73 122.4 126.47 120.11 126.19"/><polygon class="cls-2" points="199.88 80.37 188 81.17 164.6 122.03 170.3 125.05 199.88 80.37"/><polygon class="cls-2" points="83.74 276.72 95.43 245.33 94.14 224.4 82.13 276.05 81.97 276.72 83.74 276.72"/><polygon class="cls-2" points="101.39 136.58 101.39 146.28 241.04 146.28 241.04 136.58 115.87 136.58 101.39 136.58"/><polygon class="cls-2" points="172.15 126.03 172.14 126.05 172.13 126.07 174.07 127.25 176.86 123.46 206.05 83.91 201.99 80.69 172.03 125.96 172.03 125.96 172.03 125.96 172.15 126.03"/><path class="cls-2" d="m128.67,125.56l-1.94,2.16,4.46-.02c-.76-.79-1.6-1.51-2.51-2.15h-.01Z"/><polygon class="cls-2" points="163.02 123.4 137.16 123.4 138.15 127.68 138.14 127.68 138.15 127.68 138.15 127.68 139.07 127.68 170.85 127.57 170.39 127.29 170.39 127.29 163.02 123.4"/><polygon class="cls-2" points="79.98 285.29 80.48 285.34 98.02 287.18 98.02 287.19 98.02 287.19 97.63 280.89 84.34 278.67 81.98 278.67 81.52 278.67 79.98 285.29"/><polygon class="cls-2" points="10.38 206.33 16.27 301.46 20.03 301.46 21.85 301.46 20.61 199.79 9.99 200.02 9.99 200.02 9.99 200.02 10.38 206.33"/><polygon class="cls-2" points="6.66 198.15 74.7 196.68 107.69 195.96 107.69 184.57 3.64 182.1 4.63 187.34 6.66 198.15"/><path class="cls-3" d="m63.65,9.35s0,0,0,0h0s0,0,0,0c.72-.96,1.43-1.84,2.11-2.62h0c-1.21-.76-2.37-1.59-3.47-2.5l-.13-.11c-.26.17-.51.35-.77.53-.68.47-1.34.97-1.96,1.53,1.26,1.24,2.68,2.31,4.22,3.17Z"/><path class="cls-3" d="m62.54,10.93s0,0,0,0h0c-1.64-.94-3.15-2.08-4.49-3.41-.89.94-1.71,1.94-2.47,2.99,1.61,1.27,3.34,2.38,5.16,3.33h0c.59-1.04,1.19-2,1.8-2.91Z"/><path class="cls-3" d="m59.83,15.54c-1.88-.98-3.67-2.12-5.34-3.42-2.59,4.17-4.43,8.76-5.42,13.57-1.32,6.16-1.27,12.11-.13,17.11,1.14,5,3.39,9.05,6.47,11.4,0,0,0,0,0,0-1.13-6.72-1.38-12.69-1.03-17.98.57-8.5,2.71-15.23,5.33-20.44.04-.08.08-.17.12-.25h0Z"/><path class="cls-3" d="m67.1,5.27c1.11-1.15,2.31-2.23,3.57-3.21h0c-2.28-.32-4.6.04-6.67,1.04,0,0,0,0,0,0,.98.79,2.01,1.51,3.09,2.17Z"/><path class="cls-3" d="m14.39,158.99c0-1.57,0-3.12.03-4.66-.23,3.26-.32,5.14-.32,5.14h.29v-.48h0Z"/><path class="cls-3" d="m24.19,160.73c-5.3-31.62,17.55-95.52,17.55-95.52l9.97-3.37c-5.4-1.37-10.38-2.32-12.11-2.63-2.4,3.93-16.9,29.19-21.71,71.2,0,.02,0,.04,0,.06v.1h-.02c-1.05,9.23-1.56,18.5-1.54,27.79,2.56.99,5.19,1.79,7.86,2.39Z"/><path class="cls-3" d="m112.36,283.29l.67-51.21.68-52.33s-59.07-4.28-76.61-4.28c-.57,0-1.09,0-1.56.01h0c-12.86.24-11.95-9.67-11.36-12.77,0,0,0,0,0,0-.17-.04-.33-.09-.5-.12-.75-.17-1.49-.36-2.23-.56-.27-.07-.54-.14-.8-.22-.98-.28-1.95-.57-2.92-.89h0c-.19,1.66-.46,4.87-.3,8.52.16,3.6.74,7.63,2.25,10.99.02.04.03.08.05.12l89.91,2.14h0s0,0,0,0v15.19l-2.61.06.73,57.01.37,28.63,4.23-.27Z"/><path class="cls-3" d="m53.14,54.78h0s0,0,0,0h0s-2.21,4.84-2.21,4.84c1.23.3,2.49.63,3.76.97l.74-4.05c-.82-.51-1.59-1.1-2.29-1.77Z"/><path class="cls-3" d="m72.29,119.17h0c-4.71-4.7-21.24-38.35-21.24-38.35h0s0,0,0,0h-4.1s0,0,0,0c1.14,3.06,10.35,26.96,23.56,41.11l.17-.26,1.62-2.5Z"/><path class="cls-3" d="m74.28,119.69h0l-1.79,2.75,39.5-1.91,2.32-.11h0c-9.23-.21-34.13-.76-40.04-.72Z"/><path class="cls-3" d="m47.95,88.42c1.43,3.8,3.17,7.48,5.2,10.99-2.11-4.11-3.87-7.92-5.2-10.99Z"/><polygon class="cls-3" points="77.18 284.99 79.98 285.29 81.52 278.67 78.68 278.67 78.68 278.67 77.18 284.99"/><polygon class="cls-3" points="91.74 198.25 91.74 198.24 91.74 198.25 91.74 198.25 79.06 276.73 81.97 276.73 82.13 276.05 94.14 224.4 94.14 224.39 94.14 224.39 93.58 215.29 92.52 198.23 91.74 198.25"/><path d="m79.68,9.2c.51.94.94,1.92,1.31,2.93.62-.09,1.25-.2,1.89-.32-.39-1.09-.85-2.16-1.38-3.19,0,0,0,0,0,0-.6.23-1.2.42-1.82.58Z"/><path d="m55.4,54.2c-3.08-2.35-5.32-6.4-6.47-11.4-1.14-5-1.19-10.96.13-17.12.99-4.81,2.83-9.4,5.42-13.57-.3-.24-.47-.39-.49-.4h0s0,0,0,0l1.29-1.45s.11.1.29.24c.75-1.05,1.58-2.05,2.47-2.99-.34-.34-.67-.7-.97-1.08h0s0,0,0,0l1.54-1.18c.26.32.53.62.82.91h0c.62-.55,1.28-1.05,1.96-1.53.26-.18.51-.36.77-.53,0,0,0,0,0,0h0c-.24-.2-.45-.37-.61-.47l.82-1.16.29-.42s0,0,0,0h0s.12.09.18.13c.12.09.27.2.43.33.08.06.15.12.24.19.15.12.32.26.5.4,2.07-1,4.39-1.36,6.67-1.04.19.03.38.06.57.1,3.05.75,5.69,2.65,7.37,5.3.64-.14,1.28-.32,1.9-.55-1.93-3.33-5.13-5.73-8.86-6.65-10.1-2.15-21.08,9.07-24.49,25.01-2.41,11.26-.4,21.91,4.54,27.96l.21-.46,1.77.8-.55,1.2h0c.7.67,1.47,1.26,2.29,1.77,0,0,0,0,0,0,1.19.74,2.5,1.27,3.86,1.57,0,0,0,0,0,0,0,0,0,0,0,0,.36.08.73.13,1.09.17h0c.05-.42.08-.72.08-.85h1.95c0,.17-.03.5-.08.92,9.17-.38,18.38-10.9,21.45-25.26,1.02-4.64,1.27-9.42.74-14.14-.63.15-1.26.28-1.88.39.46,4.46.2,8.97-.77,13.35-3.18,14.9-13.14,25.46-22.18,23.52-.86-.19-1.68-.49-2.47-.88-.64-.32-1.26-.69-1.83-1.14,0,0,0,0,0,0Z"/><path d="m82.37,17.42h0s0,0,0,0c.61-.11,1.24-.24,1.86-.39-.19-1.13-.45-2.25-.76-3.35-.64.13-1.26.24-1.87.33,0,0,0,0,0,0,.32,1.12.58,2.26.77,3.41Z"/><path d="m53.14,54.78l.55-1.2-1.77-.8-.21.46-2.7,5.93c.63.15,1.27.3,1.92.46h0s0,0,0,0l2.21-4.84h0Z"/><path d="m60.38,58.29h0c-.01.11-.03.26-.05.39-.11.91-.28,2.18-.46,3.49.64.21,1.26.43,1.87.65.17-1.22.45-3.23.59-4.45.05-.42.08-.75.08-.92h-1.93s0,0,0,0c0,.12-.03.42-.08.85Z"/><path d="m15.94,130.29s0-.01,0-.02c-.85,7.46-1.4,15.5-1.52,24.06h0c-.02,1.54-.03,3.09-.03,4.66h0v.63l.57.26s.33.15.88.36c0,0,0,0,0,0,.06-.45.1-.74.11-.81l1.72.27.2.03s-.07.46-.15,1.19h0c.97.33,1.94.62,2.92.9.27.08.54.15.8.22.74.2,1.48.39,2.23.56.28.07.56.13.85.19.78.17,1.56.32,2.35.46.47.08.94.16,1.41.23.69.11,1.39.21,2.08.29.48.06.96.1,1.44.15.54.05,1.09.1,1.63.14.45.03.89.06,1.34.09.97.05,1.94.08,2.92.09,0,0,0,0,0,0,7.15.07,14.23-1.42,20.75-4.36l.5-.23.06-.55.02-.13c-.59-.11-.92-.18-.96-.18l.35-1.91s0,0,0,0h0s.31.05.82.15c.63-5.76,2.48-22.79,4.43-40.36-.57-.78-1.14-1.56-1.69-2.36,0,0,0,0,0,0-2.26,20.3-4.44,40.47-4.83,44.04,0,0,0,0,0,0-12.34,5.5-24.94,4.24-32.94,2.4-2.68-.6-5.31-1.4-7.86-2.39h0c-.02-9.29.49-18.57,1.54-27.79l-1.92.04s0,0,0,0h0c0-.1,0-.2,0-.3Z"/><path d="m17.89,130.39c4.81-42,19.31-67.26,21.71-71.2,0,0,0,0,0,0,1.73.32,6.72,1.27,12.12,2.64,5.86,1.48,12.2,3.46,15.37,5.66-.26,2.03-1.17,9.31-2.2,18.57,0,0,0,0,0,0,.52.99,1.06,2.01,1.62,3.03,0,0,0,0,0,0,.04-.35.07-.68.11-1.02.25-2.34.5-4.57.74-6.64.04-.33.08-.67.11-.99,0,0,0,0,0,0h0c-.78-1.94-1.25-3.22-1.33-3.46h0s0,0,0,0l1.82-.66c.66-5.53,1.12-9.09,1.12-9.15l.07-.55-.44-.34c-2.15-1.48-4.5-2.65-6.98-3.46-.61-.22-1.23-.44-1.87-.65-1.68-.56-3.43-1.08-5.19-1.56-1.27-.35-2.53-.67-3.76-.98-.65-.16-1.29-.31-1.92-.46-5.16-1.2-9.32-1.93-9.72-2l-.63-.11-.35.53c-.25.38-6.15,9.44-12.1,26.53-3.82,11.11-6.7,22.53-8.6,34.12,0,.02,0,.04,0,.06.09,4.35.19,8.44.27,12.08Z"/><path d="m88.3,113.28c-1.04-.61-2-1.33-2.89-2.14,0,0,0,0,0,0h-.09s-6.34-.51-6.34-.51c-1.32-2.17-7.46-12.3-12.47-21.54-.56-1.03-1.1-2.04-1.62-3.03,0,0,0,0,0,0,0,0,0,0,0,0-1.96-3.5-3.61-7.16-4.95-10.94h0s-1.86.53-1.86.53c2.28,8.01,16.76,31.92,19.18,35.89l.33-.51h0s0,0,0,0l1.63,1.06-.31.48h0l38.88,3.05-1.75,4.69-1.71.08h0l-2.32.11-39.5,1.91-1.03,1.59h0s0,0,0,0l-1.63-1.06.68-1.03h0s0,0,0,0c-13.21-14.15-22.41-38.05-23.56-41.11,0,0,0,0,0,0-.07-.2-.12-.31-.12-.33h0s-1.82.66-1.82.66c.03.09,1.07,2.94,2.95,7.26,0,0,0,0,0,.01,1.33,3.07,3.08,6.89,5.2,10.99,0,.02.02.03.03.05,1.67,3.28,3.49,6.49,5.43,9.62,1.08,1.76,2.2,3.5,3.36,5.21,0,0,0,0,0,0,.55.8,1.12,1.59,1.69,2.36,1.93,2.64,4.03,5.15,6.3,7.51l.31.31,41.57-2.01-.33-.4,1.51-1.22h0s0,0,0,0l1.23,1.51h0s2.37-.11,2.37-.11h0l-.15-.04.5-1.87h0s0,0,0,0l1.03.28,1.82-4.87h-.67v-1.94h0s0,0,0,0l-30.16-2.37c.09.05.18.12.27.17h0s0,0,0,0l-.96,1.68Z"/><polygon points="77.25 111.55 72.3 119.16 72.29 119.17 70.67 121.67 70.5 121.93 70.5 121.93 69.83 122.96 71.45 124.02 71.45 124.02 72.49 122.43 74.27 119.68 78.9 112.57 79.21 112.09 77.59 111.03 77.59 111.03 77.25 111.54 77.25 111.55 77.25 111.55"/><path d="m119.14,113.79v1.94s.67,0,.67,0h4.36l10.88,7.19.8,3.48h-3.23c-.96-1.03-2.06-1.92-3.26-2.65-.41-.15-3.35-.97-6.28-1.77-.84-.23-1.66-.45-2.44-.66-1.04-.28-1.98-.53-2.65-.72h0s-1.03-.28-1.03-.28h0s-.5,1.87-.5,1.87l.15.04c3.08.83,7.42,2.01,9.98,2.72h0s1.03-1.15,1.03-1.15l1.44,1.3h0s0,0,0,0l-.4.45h.01c.9.63,1.74,1.35,2.51,2.15h.1s6.86-.02,6.86-.02h0l-.99-4.29h-1.15v-1.94h0s.34,0,.34,0l-11.59-7.66h-5.63Z"/><path d="m67.47,80.45h0s0,0,0,0c2.87,7.2,10,23.57,17.93,30.69,0,0,0,0,0,0,.89.81,1.85,1.53,2.89,2.14l.96-1.68s0,0,0,0c-.09-.05-.18-.12-.27-.17-10.53-6.38-20.92-34.81-21.02-35.1h-.01l-1.81.66h0c.08.24.55,1.52,1.33,3.47Z"/><polygon points="111.83 122.47 114.27 125.47 117.36 125.85 119.42 124.27 120.6 125.81 120.11 126.18 120.11 126.19 122.4 126.46 124.46 127.73 126.72 127.72 128.67 125.56 129.07 125.11 129.07 125.11 127.63 123.81 126.6 124.96 126.59 124.96 126.59 124.96 125.55 126.12 123.05 124.59 115.28 123.64 114.23 122.35 114.23 122.35 113.01 120.84 113 120.85 111.5 122.07 111.83 122.47"/><path d="m7.28,180.24h0L2.02,58.93l12.4-.92h0c.14,7.06,1,48.87,1.52,72.27,0,.1,0,.22,0,.32,0,0,0,0,0,0l1.92-.04h0s.02,0,.02,0v-.1s0-.04,0-.06c-.08-3.64-.17-7.74-.27-12.08,0-.02,0-.04,0-.06-.56-26-1.27-60.89-1.28-61.3l-.02-1.02-16.32,1.21,5.33,123.07,1.94.05Z"/><path d="m89.96,197.14l1.91.31h0s0,0,0,0l-.13.79h0s.78-.01.78-.01h0l-.05-.87h0s0,0,0,0l1.94-.12.06.95h0s10.62-.23,10.62-.23h0s0-.65,0-.65h0,0s1.94-.03,1.94-.03v.63s0,0,0,0l2.61-.06v-15.19h0s-89.91-2.14-89.91-2.14c.09.2.19.41.29.61h0s0,0,0,0l-1.73.88c-.25-.5-.48-1.01-.69-1.53,0,0,0,0,0,0h0l-10.31-.24-1.94-.04-4.04-.1,3.77,20.03,2.99-.06h0s-.05-.87-.05-.87l1.94-.12h0s0,0,0,0l.06.94h0s10.62-.23,10.62-.23h0s-.01-1.03-.01-1.03l1.94-.02h0s0,0,0,0v1.01s67.23-1.46,67.23-1.46h0s.18-1.15.18-1.15ZM3.64,182.1l104.05,2.47v11.39h0s-32.99.72-32.99.72l-68.04,1.47-2.03-10.81-.99-5.24h0Z"/><path d="m19.72,180.54s-.03-.08-.05-.12c-1.51-3.36-2.09-7.38-2.25-10.99-.16-3.65.12-6.86.3-8.52h0s0,0,0,0c.08-.73.15-1.16.15-1.19l-.2-.03-1.71-.27c-.01.07-.05.36-.11.81-.37,2.88-1.31,12.71,1.74,20.25,0,0,0,0,0,0,.21.52.44,1.04.69,1.53l1.73-.88s0,0,0,0c-.1-.2-.19-.4-.29-.6,0,0,0,0,0,0Z"/><path d="m114.85,285.08h0s.05-1.85.05-1.85h0s1.27.03,1.27.03c7.56-31.32,13.19-101.37,13.24-102.08l.04-.55-.45-.32c-8.42-5.9-22.87-11.63-42.94-17.05-12.75-3.44-23.82-5.65-26.84-6.22,0,0,0,0,0,0-.51-.1-.8-.15-.82-.16h0s-.35,1.91-.35,1.91c.04,0,.37.07.96.18,6.98,1.35,50,10.07,68.42,22.62-.55,6.73-6.03,72.09-13.24,101.6l-1.84.11-4.23.26v.64s.03,1.3.03,1.3l6.69-.42h0Z"/><polygon points="85.74 276.93 95.73 250.1 95.43 245.33 83.74 276.73 79.06 276.73 79.06 276.73 91.74 198.25 91.74 198.25 91.87 197.45 91.87 197.45 89.96 197.14 89.77 198.29 89.77 198.29 76.96 277.51 76.97 277.51 76.97 277.47 76.97 277.47 76.97 277.47 78.86 277.92 78.86 277.92 78.86 277.93 78.68 278.67 81.52 278.67 81.52 278.67 81.98 278.67 84.34 278.67 84.26 278.65 84.58 276.74 84.58 276.74 84.58 276.74 85.74 276.93"/><polygon points="80.48 285.34 79.98 285.29 79.98 285.29 77.18 284.99 78.68 278.67 78.68 278.67 78.86 277.93 78.86 277.92 76.97 277.47 76.97 277.47 76.97 277.51 76.96 277.51 74.78 286.69 98.14 289.15 98.02 287.19 98.02 287.18 80.48 285.34"/><polygon points="97.51 278.89 85.74 276.93 85.74 276.93 84.58 276.74 84.58 276.74 84.26 278.65 84.34 278.67 97.63 280.88 97.51 278.9 97.51 278.89"/><polygon points="20.6 198.76 20.61 199.79 20.61 199.79 21.85 301.46 21.85 301.46 20.03 301.46 16.28 301.46 16.27 301.46 10.38 206.33 9.99 200.02 9.93 199.08 9.93 199.08 7.99 199.2 8.05 200.06 8.05 200.06 14.45 303.4 23.81 303.4 22.55 199.75 22.54 198.74 22.54 198.74 20.6 198.76"/><polygon points="107.52 290.31 107.52 290.31 107.52 290.31 108.22 290.4 108.22 290.4 108.16 285.5 108.16 285.5 108.14 284.2 108.12 283.55 107.76 254.92 107.02 197.92 107.02 197.91 107.02 197.28 105.08 197.31 105.08 197.31 105.09 197.96 106.42 301.46 106.42 301.46 100.85 301.46 94.46 198.19 94.46 198.19 94.4 197.24 92.47 197.36 92.47 197.36 92.52 198.23 93.58 215.29 94.14 224.39 94.14 224.39 95.43 245.33 95.73 250.1 97.51 278.89 97.51 278.9 97.63 280.88 97.63 280.89 98.02 287.19 98.14 289.15 99.02 303.4 108.39 303.4 108.24 292.36 107.28 292.24 107.28 292.24 107.28 292.24 107.52 290.31"/><polygon points="138.15 127.68 131.29 127.71 131.19 127.71 131.19 127.71 126.73 127.72 126.72 127.72 124.46 127.73 118.07 127.75 116.04 129.31 114.86 127.77 114.62 127.77 115.59 134.65 117.55 134.65 116.85 129.7 116.86 129.7 171.69 129.51 171.69 134.64 171.69 134.65 171.7 134.65 173.63 134.65 173.63 129.26 170.85 127.57 139.07 127.68 138.15 127.68 138.15 127.68"/><polygon points="136.01 123.4 137.16 123.4 137.16 123.4 163.02 123.4 162.91 123.34 162.81 123.28 162.81 123.28 162.81 123.28 163.72 121.57 164.57 122.02 164.6 122.04 164.6 122.03 188 81.17 188 81.17 199.88 80.37 170.3 125.05 172.03 125.96 172.03 125.96 201.99 80.69 201.99 80.68 206.06 83.91 176.86 123.46 174.07 127.25 172.13 126.07 172.13 126.07 171.25 127.74 171.25 127.74 171.25 127.74 170.42 127.31 170.85 127.57 173.64 129.26 174.58 129.82 208.73 83.55 202.07 78.27 186.82 79.31 162.7 121.46 136.02 121.46 136.01 121.46 136.01 123.4"/><polygon points="171.25 127.74 172.13 126.08 172.14 126.05 172.15 126.03 172.03 125.96 172.02 125.96 170.3 125.05 164.6 122.04 164.57 122.02 163.72 121.57 162.81 123.28 162.81 123.28 162.91 123.34 163.02 123.4 170.39 127.29 170.39 127.29 170.42 127.31 171.25 127.74 171.25 127.74"/><polygon points="120.11 126.19 120.11 126.19 120.11 126.18 120.6 125.81 119.42 124.27 117.36 125.85 114.87 127.76 116.04 129.3 118.07 127.75 118.07 127.75 120.11 126.19"/><path d="m171.69,134.65h-72.24v13.58h32.3v-.96s0,0,0,0h0s1.94-.02,1.94-.02v.98s0,0,0,0h101.53v-.97h1.94v.97h5.81v-13.58h-71.29Zm69.35,1.94v9.7H101.39v-9.7h0s139.66,0,139.66,0h0Z"/><polygon points="237.17 147.25 235.23 147.25 235.23 148.22 235.23 305.06 135.03 306.29 135.03 306.29 133.69 148.22 133.69 148.22 133.68 147.24 131.74 147.26 131.74 147.26 131.75 148.22 132.9 283.68 132.9 283.68 133.9 283.71 133.86 285.65 133.85 285.65 133.85 285.65 132.92 285.63 132.92 285.63 132.92 285.88 132.99 293.47 134.09 293.61 133.86 295.53 133.66 295.51 133 295.43 133.11 308.26 236.21 306.99 237.17 306.97 237.17 148.22 237.17 147.25 237.17 147.25"/><polygon points="133.85 295.53 134.09 293.61 132.98 293.47 108.22 290.4 107.52 290.31 107.52 290.31 107.28 292.24 107.28 292.24 108.24 292.36 133 295.43 133 295.43 133.66 295.51 133.85 295.53"/><polygon points="114.89 283.23 114.89 283.23 114.85 285.08 114.85 285.08 114.85 285.16 114.85 285.16 132.92 285.62 132.92 285.63 133.85 285.65 133.86 285.65 133.9 283.71 132.9 283.68 132.9 283.68 116.17 283.26 114.89 283.23"/><path d="m63.27,2.51c-.16-.13-.3-.24-.43-.33-.06-.04-.13-.1-.18-.13h0s-.3.42-.3.42l-.82,1.16c.15.11.36.28.61.47h0s.13.11.13.11c1.1.91,2.26,1.74,3.47,2.5,1.55,1,3.23,1.76,4.98,2.27,1.57.46,3.2.72,4.86.75,1.37,0,2.74-.18,4.07-.53,0,0,0,0,0,0,0,0,0,0,0,0,.62-.16,1.22-.35,1.82-.58,0,0,0,0,0,0,1.11-.42,2.19-.94,3.21-1.55l-.99-1.67c-1.02.61-2.09,1.11-3.21,1.51-.62.22-1.26.41-1.9.55-3.98.79-8.1,0-11.51-2.2h0s0,0,0,0c-1.08-.65-2.11-1.38-3.09-2.17,0,0,0,0,0,0,0,0,0,0,0,0-.18-.14-.35-.28-.5-.4-.09-.07-.16-.13-.24-.19Z"/><path d="m63.65,9.34s0,0,0,0c0,0,0,0,0,0h0s0,0,0,0c-1.54-.87-2.96-1.93-4.22-3.17,0,0,0,0,0,0h0c-.29-.29-.57-.59-.82-.91l-1.54,1.18s0,0,0,0c.3.38.63.74.97,1.08,1.34,1.33,2.85,2.47,4.49,3.41,4.16,2.37,8.88,3.59,13.67,3.51,1.81,0,3.61-.15,5.4-.43.61-.09,1.24-.21,1.88-.33,1.05-.21,2.12-.47,3.24-.78l-.52-1.87c-1.14.32-2.24.58-3.31.79-.65.13-1.28.23-1.89.32,0,0,0,0,0,0-7.99,1.15-13.69-.71-17.33-2.79Z"/><path d="m54.48,12.11s0,0,0,0h0c1.68,1.3,3.46,2.44,5.34,3.42h0c5.21,2.8,11.01,4.29,16.92,4.34,1.98,0,3.95-.17,5.89-.52,0,0,0,0,0,0,.62-.11,1.25-.24,1.88-.39,1.5-.35,2.97-.8,4.41-1.34l-.68-1.82c-1.31.49-2.65.9-4.01,1.22,0,0,0,0,0,0-.63.15-1.25.28-1.86.39,0,0,0,0,0,0,0,0,0,0,0,0-7.41,1.26-15.02,0-21.63-3.58h0s0,0,0,0c-1.82-.94-3.55-2.06-5.16-3.33-.17-.14-.28-.23-.29-.24l-1.29,1.44h0s.18.16.49.4Z"/></svg>