<?xml version="1.0" encoding="utf-8"?>
<!-- Generator: Adobe Illustrator 27.9.0, SVG Export Plug-In . SVG Version: 6.00 Build 0)  -->
<svg version="1.1" id="Layer_1" xmlns="http://www.w3.org/2000/svg" xmlns:xlink="http://www.w3.org/1999/xlink" x="0px" y="0px"
	 viewBox="0 0 90 90" style="enable-background:new 0 0 90 90;" xml:space="preserve">
<style type="text/css">
	.st0{clip-path:url(#SVGID_00000099660174850497578670000008475956993062966718_);}
	.st1{fill:#009ADB;}
	.st2{fill:#1A1818;}
</style>
<g id="Download_graphic" transform="translate(0)">
	<g id="Download" transform="translate(0 0)">
		<g>
			<defs>
				<rect id="SVGID_1_" x="5.4" y="7.2" width="80" height="74.7"/>
			</defs>
			<clipPath id="SVGID_00000133503848036586667070000008699901362731658685_">
				<use xlink:href="#SVGID_1_"  style="overflow:visible;"/>
			</clipPath>
			<g id="Group_134" style="clip-path:url(#SVGID_00000133503848036586667070000008699901362731658685_);">
				<path id="Path_1608" class="st1" d="M82.1,56.4c-0.9,0.1-1.9,0.2-2.8,0.4c-0.8,0.1-1.6,0.3-2.5,0.3c-0.8,0.1-1.2,0.2-1.4,0.5
					c-0.2,0.5-0.3,1.2-0.1,1.7c0.1,0.3,0.1,0.6,0.2,1c0.4,1.6,0.6,3.2,0.7,4.8c0.1,1.8-0.2,3.6-1,5.2c-0.6,1.1-1.7,1.9-3,1.9
					c-4.7,0.4-9.4,0.6-13.4,0.7c-8.4,0.3-18.3,0.4-28.2-0.2c-2.7-0.1-5.3-0.5-8-1.1c-2.1-0.3-3.7-2-4-4.1c-0.1-0.7-0.2-1.4-0.2-2.1
					c0-0.6,0-1.1,0-1.7c0-1.5,0-3,0-4.5c0-0.3-0.1-0.4-0.4-0.4c-1.5-0.1-2.9-0.3-4.2-0.3c-0.3,0-0.6,0-0.9,0l-0.2,0
					c-0.9,0-1.8,0.1-2.7,0.4c-0.7,0.2-0.7,0.3-0.8,1c-0.1,0.7-0.1,1.5-0.1,2.2c0,0.6,0,1.2,0,1.8c-0.2,2.9-0.1,5.9,0.4,8.8
					c0.2,1.6,0.7,3.2,1.6,4.6c0.8,1.5,2.3,2.6,4,2.9c2.2,0.3,4.4,0.5,6.6,0.6c8.1,0.3,16.3,0.2,24,0.1c7.8-0.2,15-0.4,22-0.6l1,0
					c2.2,0,4.4-0.2,6.6-0.5c2.4-0.2,4.5-1.3,5.9-3.2c0.9-1.3,1.5-2.8,1.8-4.4c0.7-3.2,1-6.5,1-9.7l0-0.7c0.1-1.3,0.1-2.6-0.1-3.9
					C83.7,56.6,83.4,56.3,82.1,56.4"/>
				<path id="Path_1609" class="st1" d="M26.2,49.5c0.1,0.1,0.3,0.2,0.4,0.2c0.3,0.2,0.5,0.3,0.8,0.4c2.7,1.3,5.4,2.9,7.9,4.4
					l1.2,0.7c0.5,0.3,1.1,0.6,1.6,0.9c1.8,1.1,3.7,2.2,5.7,3.2c2,1.2,4.6,1.1,6.5-0.3l0.3-0.2c0.4-0.3,0.8-0.5,1.1-0.8
					c0.8-0.6,1.6-1.3,2.4-1.9c1.1-0.9,2.2-1.8,3.4-2.7c1.6-1.3,3.3-2.5,4.9-3.8c1.5-1.1,2.9-2.3,4.4-3.4c1.2-0.8,2.2-1.8,3.2-2.9
					c0.6-0.5,0.7-1.3,0.2-1.9c-0.1-0.1-0.1-0.1-0.2-0.2c-1.2-1.3-2.3-2.7-3.4-4.2c-0.1-0.2-0.2-0.3-0.4-0.4
					c-0.3-0.3-0.7-0.4-1.1-0.3c-0.6,0.2-1.1,0.5-1.6,0.9c-1.7,1.4-3.3,3-4.9,4.5c-0.5,0.5-1,1-1.5,1.5L57,43.7
					c-0.7,0.7-1.5,1.4-2.4,1.9c-0.4,0.3-1,0.4-1.5,0.3c-0.5-0.3-0.8-0.7-0.9-1.3c0-0.1,0-0.1,0-0.2l0-0.1c-0.3-1.6-0.4-3.3-0.3-5
					c0.1-3,0.1-5.9,0.2-8.9l0.1-4h0.1c0-0.1,0-0.2,0-0.4c0-0.6,0-1.2,0-1.8c0.1-4.1,0.2-8.4,0.2-12.6c0,0,0,0,0,0l0,0
					c-2.8,0-5.6,0-8.4,0l-3.9,0c-0.3,0-0.6,0-0.9,0.1c-0.1,0.3-0.1,0.6-0.1,0.9c-0.1,2.7-0.3,5.4-0.3,8.1c0,6.6,0.1,15.3,0.9,24
					c0.1,0.5-0.1,1.1-0.6,1.4c-0.5,0.3-1,0.2-1.5-0.1c-1.6-1-3.2-1.9-4.8-2.8c-0.9-0.5-1.8-1.2-2.7-1.7c-0.9-0.6-1.8-1.2-2.7-1.8
					c0,0-0.1-0.1-0.1-0.1c0,0-0.1,0.1-0.1,0.1c-0.7,1.1-1.3,2.2-1.9,3.4c-0.4,0.9-0.7,1.8-0.8,2.8C24.2,47.3,24.9,48.8,26.2,49.5"/>
				<path id="Path_1610" class="st2" d="M81.5,52.1c-0.8,0-1.5,0-2.3,0.1c-0.5,0.1-1.1,0.2-1.6,0.3c-1.1,0.2-2.3,0.4-3.5,0.6
					c-1.3,0.2-2.3,1.3-2.5,2.7c-0.1,0.6-0.1,1.3,0.1,1.9c0.4,1.9,0.6,3.8,0.7,5.7c0.1,1.2-0.1,2.4-0.5,3.5c-0.1,0.6-0.6,0.9-1.2,0.9
					c-0.2,0-0.4,0-0.6,0.1c-0.1,0-0.2,0-0.3,0C66,68.3,62,68.5,57,68.6c-9.9,0.4-19.8,0.3-29.6-0.4c-1.9-0.1-3.8-0.4-5.6-0.8
					c-1.2-0.2-2-1.2-1.9-2.3c-0.1-1.5-0.1-3,0-4.5l0-0.2c0.1-1.2,0.1-2.3-0.1-3.5c-0.1-1.1-0.8-2-1.8-2.4c-0.6-0.2-1.2-0.3-1.8-0.3
					c-1.9,0-3.8,0.1-5.7,0.3c-0.6,0.1-1.1,0.1-1.7,0.2c-1.4,0.1-2.5,1-2.9,2.4c-0.2,0.6-0.3,1.1-0.3,1.7c-0.1,1.6-0.1,3.2-0.2,4.7
					l0,0.3c-0.2,3.5,0.1,7,1.1,10.4c1.3,4.2,4,6.7,8,7.2c2.9,0.4,5.8,0.5,8.7,0.6c3.5,0.1,7,0.1,10.3,0.1c3.8,0,7.5,0,10.8-0.1l0,0
					c1.2,0,2.4-0.1,3.7-0.1c2.8-0.1,5.6-0.1,8.4-0.2c2.7-0.1,5.5-0.2,8.2-0.3l2.7-0.1c2.7,0,5.4-0.3,8.1-0.8c3.6-0.6,6.5-3,7.8-6.3
					c0.6-1.6,1.1-3.2,1.3-4.9c0.5-3.2,0.8-6.4,0.9-9.6c0.1-1.5,0-3-0.3-4.5C84.7,53.3,83.3,52.1,81.5,52.1 M83.1,60.1l0,0.7
					c0,3.3-0.4,6.5-1,9.7c-0.3,1.6-0.9,3-1.8,4.4c-1.4,1.9-3.6,3.1-5.9,3.2c-2.2,0.3-4.4,0.4-6.6,0.5l-1,0c-7,0.3-14.2,0.5-22,0.6
					c-7.7,0.1-15.9,0.3-24-0.1c-2.2-0.1-4.4-0.2-6.6-0.6c-1.7-0.3-3.2-1.4-4-2.9c-0.9-1.4-1.4-3-1.6-4.6c-0.4-2.9-0.5-5.9-0.4-8.8
					c0-0.6,0-1.2,0-1.8c0-0.7,0-1.5,0.1-2.2c0.1-0.7,0.2-0.8,0.8-1c0.9-0.2,1.8-0.4,2.7-0.4l0.2,0c0.3,0,0.6,0,0.9,0
					c1.4,0,2.7,0.1,4.2,0.3c0.3,0,0.4,0.1,0.4,0.4c0,1.5,0,3.1,0,4.5c0,0.6,0,1.1,0,1.7c0,0.7,0,1.4,0.2,2.1c0.3,2.1,1.9,3.8,4,4.1
					c2.6,0.6,5.3,1,8,1.1c9.9,0.6,19.8,0.4,28.2,0.2c4-0.1,8.7-0.3,13.4-0.7c1.3-0.1,2.4-0.8,3-1.9c0.8-1.6,1.1-3.4,1-5.2
					c-0.1-1.6-0.3-3.2-0.7-4.8c-0.1-0.3-0.1-0.6-0.2-1c-0.2-0.6-0.2-1.2,0.1-1.7c0.2-0.3,0.6-0.4,1.4-0.5c0.8-0.1,1.7-0.2,2.5-0.3
					c0.9-0.1,1.8-0.3,2.8-0.4c1.3-0.1,1.7,0.2,1.9,1.5C83.2,57.5,83.3,58.8,83.1,60.1"/>
				<path id="Path_1611" class="st2" d="M24,50.1c0.9,0.6,1.8,1.1,2.8,1.5l0.6,0.3c1.7,0.8,3.3,1.8,4.8,2.8c1,0.6,2,1.2,3.1,1.8
					c0.6,0.3,1.1,0.6,1.7,1c2,1.2,4,2.2,6.1,3.2c0.9,0.4,1.9,0.6,2.9,0.6c1.3,0,2.6-0.4,3.7-1.2l0.4-0.3c0.5-0.3,1-0.7,1.4-1
					c4-3.3,8.2-6.6,12.2-9.7l1.8-1.4c1.7-1.2,3.3-2.6,4.7-4.2c1.8-2.1,1.8-3.8,0-5.9c0-0.1-0.1-0.1-0.1-0.2
					c-0.9-0.9-1.6-1.9-2.3-2.9c-0.2-0.4-0.5-0.7-0.8-1c-1.1-1.5-3.2-1.8-4.8-0.8c-0.9,0.5-1.8,1.2-2.6,1.9c-1.1,0.9-2,2-3,2.9
					c-0.6,0.7-1.3,1.3-2,2c-0.4,0.4-0.8,0.7-1.2,1.1l-0.3,0.3c0,0,0-0.1,0-0.1v-0.1c-0.1-3,0-6.2,0.1-9.2c0-0.8,0.1-1.6,0.1-2.4v0
					c0.2-6.3,0.4-12.9,0.3-19.4c0-1.6-0.6-2.2-2.1-2.2h0c-1.8,0-3.7,0-5.5-0.1c-2.1-0.1-4.3-0.1-6.5-0.1c-0.5,0-1,0-1.5,0.1
					c-1.4,0.1-2.4,1.2-2.4,2.6c-0.1,0.4-0.1,0.9-0.1,1.4c0,1.4,0,2.8,0,4.1c0,3.8-0.1,7.7,0,11.6c0,4.9,0.2,9.3,0.6,13.2
					c0,0.1,0,0.3,0.1,0.4c0,0.1,0,0.1,0,0.2l-2.3-1.4c-2-1.2-4.1-2.5-6.1-3.7c-1.4-0.8-2-0.7-3.1,0.5c-1.8,2-2.9,4.5-3.4,7.2
					C20.5,46,21.6,48.8,24,50.1 M23.6,44.3c0.1-1,0.4-1.9,0.8-2.8c0.6-1.2,1.2-2.3,1.9-3.4c0,0,0.1-0.1,0.1-0.1c0.1,0,0.1,0,0.1,0.1
					c0.9,0.5,1.9,1.2,2.7,1.8c0.9,0.6,1.7,1.2,2.7,1.7c1.6,0.9,3.2,1.9,4.8,2.8c0.4,0.3,1,0.3,1.5,0.1c0.5-0.3,0.7-0.9,0.6-1.4
					c-0.8-8.7-0.9-17.4-0.9-24c0-2.7,0.1-5.3,0.3-8.1c0-0.3,0-0.6,0.1-0.9c0.3-0.1,0.6-0.1,0.9-0.1l3.9,0c2.8,0,5.6,0,8.4,0l0,0
					c0,0,0,0,0,0c0,4.3-0.1,8.6-0.2,12.6c0,0.6,0,1.2,0,1.8c0,0.1,0,0.2,0,0.4h-0.1l-0.1,4c-0.1,3-0.1,5.9-0.2,8.9
					c-0.1,1.7,0,3.3,0.3,5l0,0.1c0,0.1,0,0.1,0,0.2c0.1,0.5,0.4,1,0.9,1.3c0.5,0.1,1.1,0,1.5-0.3c0.9-0.5,1.7-1.2,2.4-1.9l0.2-0.2
					c0.5-0.5,1-1,1.5-1.5c1.6-1.5,3.2-3.1,4.9-4.5c0.5-0.4,1-0.7,1.6-0.9c0.4-0.1,0.8,0,1.1,0.3c0.1,0.1,0.3,0.3,0.4,0.4
					c1,1.5,2.1,2.8,3.4,4.2c0.6,0.5,0.7,1.3,0.2,1.9c-0.1,0.1-0.1,0.1-0.2,0.2c-1,1.1-2,2-3.2,2.9c-1.5,1.1-2.9,2.3-4.4,3.4
					c-1.6,1.3-3.3,2.5-4.9,3.8c-1.1,0.9-2.2,1.8-3.4,2.7c-0.8,0.6-1.6,1.3-2.4,1.9c-0.4,0.3-0.7,0.6-1.1,0.8l-0.3,0.2
					c-1.9,1.4-4.5,1.6-6.5,0.3c-1.9-1-3.8-2.1-5.7-3.2c-0.5-0.3-1-0.6-1.6-0.9L34.3,53c-2.5-1.5-5.2-3.1-7.9-4.4
					c-0.3-0.1-0.5-0.3-0.8-0.4c-0.1-0.1-0.3-0.2-0.4-0.2C24,47.2,23.3,45.7,23.6,44.3"/>
			</g>
		</g>
	</g>
</g>
</svg>
