<?xml version="1.0" encoding="UTF-8"?><svg id="Layer_1" xmlns="http://www.w3.org/2000/svg" width="60" height="60" viewBox="0 0 60 60"><rect x="-.024" y="-.27" width="60" height="60" fill="none" stroke-width="0"/><path d="M38.403,9.88c.22.211.478.395.653.639.423.587.476,1.243.214,1.912-.968,2.472-1.934,4.946-2.922,7.41-.577,1.44-2.278,1.809-3.346.726-.621-.63-.733-1.401-.412-2.22.963-2.46,1.925-4.919,2.905-7.372.407-1.018,1.22-1.449,2.329-1.291.015.002.033-.008.049-.012.176.069.352.139.529.208Z" fill="#000" stroke-width="0"/><path d="M9.474,22.025c.305-.458.705-.79,1.242-.94.428-.12.849-.089,1.262.074,2.506.987,5.018,1.959,7.516,2.967,1.376.555,1.719,2.248.678,3.293-.607.609-1.363.761-2.166.449-2.511-.975-5.017-1.963-7.519-2.96-.926-.369-1.399-1.281-1.215-2.253.006-.032-.004-.067-.006-.1.069-.176.139-.352.208-.529Z" fill="#000" stroke-width="0"/><path d="M25.971,46.213c-.475,1.208-.952,2.415-1.426,3.623-.31.79-.878,1.278-1.724,1.361-1.512.148-2.663-1.334-2.035-2.89.97-2.402,1.901-4.819,2.856-7.227.088-.221.201-.44.341-.632.565-.773,1.625-.994,2.55-.548.785.378,1.251,1.406.99,2.271-.163.542-.386,1.066-.59,1.594-.317.817-.641,1.632-.962,2.447h0Z" fill="#000" stroke-width="0"/><path d="M9.684,37.647c.211-.518.6-.847,1.101-1.065,2.415-1.049,4.836-2.087,7.242-3.155,1.362-.605,2.835.29,2.91,1.755.041.809-.442,1.574-1.227,1.922-1.031.457-2.067.901-3.1,1.351-1.42.618-2.838,1.242-4.262,1.852-1.25.536-2.532-.131-2.818-1.455-.09-.418-.015-.819.154-1.204Z" fill="#000" stroke-width="0"/><path d="M24.426,21.198c-.518-.226-.884-.592-1.107-1.105-1.063-2.445-2.129-4.889-3.19-7.336-.355-.819-.214-1.581.376-2.223.566-.617,1.298-.782,2.099-.533.613.191,1.009.624,1.258,1.209.368.862.746,1.719,1.12,2.579.675,1.554,1.338,3.113,2.03,4.659.669,1.494-.49,3-2.008,2.875-.194-.016-.385-.081-.577-.124Z" fill="#000" stroke-width="0"/><path d="M32.918,40.937c.391-.963,1.008-1.39,1.848-1.427.843-.037,1.515.335,1.873,1.117.581,1.266,1.124,2.55,1.681,3.827.512,1.175,1.017,2.353,1.536,3.525.341.771.318,1.504-.203,2.186-.892,1.169-2.728,1.007-3.372-.32-.473-.974-.877-1.981-1.311-2.973-.626-1.434-1.246-2.871-1.879-4.303-.26-.589-.388-1.176-.173-1.632Z" fill="#000" stroke-width="0"/><path d="M45.759,34.474c1.312.517,2.634,1.011,3.933,1.559.723.305,1.071.938,1.099,1.702.029.796-.309,1.435-1.021,1.835-.556.314-1.144.356-1.739.122-2.498-.98-4.997-1.96-7.491-2.951-.954-.379-1.484-1.42-1.234-2.365.27-1.023,1.216-1.66,2.266-1.511.193.027.382.099.565.17,1.21.472,2.418.95,3.626,1.426l-.005.013Z" fill="#000" stroke-width="0"/><path d="M39.301,24.746c.148-.416.512-.782,1.028-1.006,2.463-1.07,4.925-2.143,7.388-3.212,1.037-.45,2.178-.009,2.637,1.015.459,1.023.044,2.197-.983,2.651-2.496,1.103-4.998,2.191-7.506,3.264-.802.343-1.559.149-2.17-.437-.622-.598-.757-1.345-.394-2.274Z" fill="#000" stroke-width="0"/><path d="M40.54,19.58c.055.13.131.255.162.391.073.327-.024.616-.257.852-.862.876-1.722,1.752-2.591,2.621-.507.508-1.298.355-1.556-.299-.15-.381-.057-.729.228-1.019.857-.871,1.714-1.743,2.577-2.608.358-.359.783-.394,1.226-.126.006.004.015.003.023.004.062.062.125.123.187.185Z" fill="#000" stroke-width="0"/><path d="M46.897,13.352c.055.13.131.255.162.391.073.327-.024.616-.257.852-.862.876-1.722,1.752-2.591,2.621-.507.508-1.298.355-1.556-.299-.15-.381-.057-.729.228-1.019.857-.871,1.714-1.743,2.577-2.608.358-.359.783-.394,1.226-.126.006.004.015.003.023.004.062.062.125.123.187.185Z" fill="#000" stroke-width="0"/><path d="M18.572,19.372c.213-.139.444-.208.699-.174.204.027.377.117.523.261.887.876,1.779,1.746,2.658,2.629.484.487.322,1.269-.311,1.524-.369.149-.718.076-1.003-.203-.891-.872-1.777-1.747-2.66-2.627-.327-.326-.362-.799-.107-1.18.008-.012.011-.029.016-.044.062-.062.123-.125.185-.187Z" fill="#000" stroke-width="0"/><path d="M12.941,13.567c.213-.139.444-.208.699-.174.204.027.377.117.523.261.887.876,1.779,1.746,2.658,2.629.484.487.322,1.269-.311,1.524-.369.149-.718.076-1.003-.203-.891-.872-1.777-1.747-2.66-2.627-.327-.326-.362-.799-.107-1.18.008-.012.011-.029.016-.044.062-.062.123-.125.185-.187Z" fill="#000" stroke-width="0"/><path d="M21.364,40.52c-.422.427-.844.854-1.266,1.282-.276.28-.606.384-.981.265-.67-.212-.89-1.052-.34-1.6.849-.845,1.685-1.704,2.529-2.555.078-.078.165-.151.26-.207.381-.226.872-.127,1.185.231.265.304.276.825.008,1.146-.168.201-.358.383-.541.571-.283.29-.57.578-.855.866h0Z" fill="#000" stroke-width="0"/><path d="M16.122,45.728c-.422.427-.844.854-1.266,1.282-.276.28-.606.384-.981.265-.67-.212-.89-1.052-.34-1.6.849-.845,1.685-1.704,2.529-2.555.078-.078.165-.151.26-.207.381-.226.872-.127,1.185.231.265.304.276.825.008,1.146-.168.201-.358.383-.541.571-.283.29-.57.578-.855.866h0Z" fill="#000" stroke-width="0"/><path d="M13.749,29.914c.184-.182.409-.251.662-.253,1.218-.007,2.437-.008,3.655-.025.689-.01,1.154.639.919,1.276-.129.352-.474.589-.872.594-.522.007-1.043.007-1.565.011-.717.005-1.433.012-2.15.013-.629,0-1.053-.516-.934-1.132.038-.194.143-.351.285-.484Z" fill="#000" stroke-width="0"/><path d="M6.046,30.084c.184-.182.409-.251.662-.253,1.218-.007,2.437-.008,3.655-.025.689-.01,1.154.639.919,1.276-.129.352-.474.589-.872.594-.522.007-1.043.007-1.565.011-.717.005-1.433.012-2.15.013-.629,0-1.053-.516-.934-1.132.038-.194.143-.351.285-.484Z" fill="#000" stroke-width="0"/><path d="M29.262,19.832c-.179-.19-.268-.412-.27-.672-.008-1.234-.016-2.467-.023-3.701-.002-.413.197-.712.564-.878.353-.16.694-.097.99.155.226.193.316.449.315.743,0,.434.005.867.007,1.301.005.784.003,1.568.016,2.351.013.757-.754,1.187-1.377.858-.08-.042-.149-.105-.223-.158Z" fill="#000" stroke-width="0"/><path d="M29.18,11.887c-.179-.19-.268-.412-.27-.672-.008-1.234-.016-2.467-.023-3.701-.002-.413.197-.712.564-.878.353-.16.694-.097.99.155.226.193.316.449.315.743,0,.434.005.867.007,1.301.005.784.003,1.568.016,2.351.013.757-.754,1.187-1.377.858-.08-.042-.149-.105-.223-.158Z" fill="#000" stroke-width="0"/><path d="M29.416,41.095c.341-.338.682-.408,1.046-.271.365.138.583.418.594.816.017.644.014,1.289.019,1.934.004.593.005,1.186.012,1.779.005.39-.138.698-.484.893-.592.335-1.344-.068-1.376-.75-.024-.5-.013-1.002-.017-1.503-.006-.724-.008-1.448-.017-2.172-.004-.298.049-.571.223-.726Z" fill="#000" stroke-width="0"/><path d="M29.618,48.709c.341-.338.682-.408,1.046-.271.365.138.583.418.594.816.017.644.014,1.289.019,1.934.004.593.005,1.186.012,1.779.005.39-.138.698-.484.893-.592.335-1.344-.068-1.376-.75-.024-.5-.013-1.002-.017-1.503-.006-.724-.008-1.448-.017-2.172-.004-.298.049-.571.223-.726Z" fill="#000" stroke-width="0"/><path d="M40.076,39.051c.464.459.937.909,1.39,1.379.252.261.285.594.158.924-.132.344-.393.554-.768.595-.294.032-.551-.057-.762-.264-.885-.871-1.769-1.743-2.65-2.618-.337-.335-.373-.874-.095-1.231.301-.386.819-.485,1.239-.231.077.047.145.111.21.175.429.421.856.844,1.283,1.266l-.004.005Z" fill="#000" stroke-width="0"/><path d="M46.026,44.639c.464.459.937.909,1.39,1.379.252.261.285.594.158.924-.132.344-.393.554-.768.595-.294.032-.551-.057-.762-.264-.885-.871-1.769-1.743-2.65-2.618-.337-.335-.373-.874-.095-1.231.301-.386.819-.485,1.239-.231.077.047.145.111.21.175.429.421.856.844,1.283,1.266l-.004.005Z" fill="#000" stroke-width="0"/><path d="M39.843,29.642c.139-.15.36-.24.62-.241,1.242-.007,2.485-.016,3.727-.023.523-.003.928.393.937.911.009.519-.381.943-.901.949-1.262.015-2.525.023-3.787.023-.403,0-.691-.22-.844-.581-.156-.367-.077-.71.246-1.039Z" fill="#000" stroke-width="0"/><path d="M48.221,29.712c.139-.15.36-.24.62-.241,1.242-.007,2.485-.016,3.727-.023.523-.003.928.393.937.911.009.519-.381.943-.901.949-1.262.015-2.525.023-3.787.023-.403,0-.691-.22-.844-.581-.156-.367-.077-.71.246-1.039Z" fill="#000" stroke-width="0"/><circle cx="29.802" cy="3.441" r=".941" fill="#000" stroke-width="0"/><circle cx="38.899" cy="7.843" r=".941" fill="#000" stroke-width="0"/><circle cx="48.724" cy="11.422" r=".941" fill="#000" stroke-width="0"/><circle cx="52.31" cy="20.852" r=".941" fill="#000" stroke-width="0"/><circle cx="56.416" cy="30.6" r=".941" fill="#000" stroke-width="0"/><circle cx="52.62" cy="39.331" r=".941" fill="#000" stroke-width="0"/><circle cx="49.369" cy="49.28" r=".941" fill="#000" stroke-width="0"/><circle cx="39.654" cy="52.584" r=".941" fill="#000" stroke-width="0"/><circle cx="30.37" cy="56.559" r=".941" fill="#000" stroke-width="0"/><circle cx="21.147" cy="52.927" r=".941" fill="#000" stroke-width="0"/><circle cx="11.472" cy="48.829" r=".941" fill="#000" stroke-width="0"/><circle cx="7.916" cy="39.631" r=".941" fill="#000" stroke-width="0"/><circle cx="3.584" cy="30.856" r=".941" fill="#000" stroke-width="0"/><circle cx="7.676" cy="21.634" r=".941" fill="#000" stroke-width="0"/><circle cx="10.97" cy="12.097" r=".941" fill="#000" stroke-width="0"/><circle cx="20.276" cy="8.239" r=".941" fill="#000" stroke-width="0"/></svg>