<?xml version="1.0" encoding="UTF-8"?><svg id="Layer_1" xmlns="http://www.w3.org/2000/svg" width="60" height="60" viewBox="0 0 60 60" fill="#fff" stroke-width="0"><rect x="-.024" y="-.27" width="60" height="60" fill="none" stroke-width="0"/><path d="M12.039,37.157c1.898,1.04,2.121-1.91.456-1.758-.798.072-1.169,1.139-.586,1.693-.546.327-4.535,2.759-4.592,3.028-.325,1.546,4.566-2.62,4.722-2.963Z"/><path d="M44.766,37.385c-.033-.124.408-.387.456-.586.155-.649-.367-1.129-1.009-1.075-1.299.111-1.118,2.278.261,1.758.203.229,4.715,4.351,4.592,2.963-.03-.339-4.231-2.806-4.298-3.061Z"/><path d="M20.505,10.65c1.156-.231,1.065-2.463-.391-2.345-1.554.127-1.337,2.69.391,2.345Z"/><path d="M18.877,48.294c-1.347.194-1.203,2.518.456,2.279,1.347-.194,1.201-2.518-.456-2.279Z"/><path d="M12.104,15.6c1.339-.152,1.205-2.486-.326-2.345-1.418.131-1.307,2.53.326,2.345Z"/><path d="M45.189,15.73c1.394-.158,1.226-2.64-.521-2.279-1.187.245-1.08,2.461.521,2.279Z"/><path d="M37.178,11.041c1.222-.267,1.048-2.58-.586-2.279-1.326.244-1.071,2.641.586,2.279Z"/><path d="M44.603,44.517c-.838.163-1.217,1.874,0,2.214,1.876.524,1.971-2.598,0-2.214Z"/><path d="M37.439,48.424c-1.317.246-1.058,2.389.391,2.214,1.4-.169,1.134-2.499-.391-2.214Z"/><path d="M11.648,43.865c-1.275.19-1.05,2.352.391,2.149,1.346-.19,1.015-2.358-.391-2.149Z"/><path d="M28.19,14.427c1.184.642,1.893-2.299.065-1.954-.828.157-.887,1.508-.065,1.954Z"/><path d="M51.604,29.798c-1.702.074-3.412-.048-5.113,0-1.026.029-2.832.096-1.954.391.338.114,6.124-.087,7.132,0,.474,1.182,1.695.68,1.824.163.351-1.415-1.487-1.695-1.889-.554Z"/><path d="M20.831,46.536c.264-.186,2.883-3.59,2.54-3.777-.689.219-4.746,5.329-2.54,3.777Z"/><path d="M14.904,24.587c.021-.004.059-.069.098-.098q-3.208-1.482-6.415-2.963c-.373.316-.022.482.261.651.28.168,5.736,2.467,6.057,2.41Z"/><path d="M38.318,21.82c-.34.627.232.226.488.033.226-.171,3.894-3.745,4.005-4.005.095-.222.116-.41-.098-.554-.533.699-4.246,4.249-4.396,4.526Z"/><path d="M11.648,30.189c.189-.083.098-.325-.13-.391-.334-.096-4.508.071-5.373.065-1.557-.011-.709-.3-1.335-.651-.961-.539-2.027.651-1.14,1.433.644.568,1.312.203,1.596-.521.807.015,6.09.193,6.383.065Z"/><path d="M43.235,24.327c.257-.06,4.552-2.111,4.754-2.279.303-.252.318-.513-.13-.456-.267.034-4.05,2.26-4.819,2.41-.265.324-.209.42.195.326Z"/><path d="M17.835,21.722c.268-.038-.171-.614-.228-.684-.175-.214-3.742-3.894-4.005-3.81-.202.064-.032.315.033.423.149.252,3.911,4.112,4.201,4.071Z"/><path d="M28.777,46.405c-.979.188-.895,2.056.326,1.954,1.289-.108,1.046-2.218-.326-1.954Z"/><path d="M28.516,48.359c-.011.002-.159.15-.163.163-.069.217-.121,4.338-.065,4.559.06.237.367.378.456.13.079-.221.079-4.469,0-4.689-.012-.033-.214-.165-.228-.163Z"/><path d="M28.744,11.204c.051-.205.072-4.034,0-4.233-.028-.078-.19-.191-.293-.163-.011.003-.158.148-.163.163-.072.199-.051,4.028,0,4.233.084.335.372.335.456,0Z"/><path d="M41.542,43.279c-.25.153,1.128,1.877,1.433,1.758.491-.19-.817-1.737-1.433-1.758Z"/><path d="M20.342,26.606c-1.105-.162-2.255-.153-3.354-.391.281.365.71.582,1.075.847h-.651c-.502-.024-.999.026-1.498.065-1.076.084-4.077.414-5.015.586-.261.048-.726-.1-.944.651q-.456-.033-.912-.065c-.175.584.974.295,1.433.456,2.194.855,4.276,1.96,6.415,2.931-1.267.614-2.533,1.231-3.81,1.824v.13q3.191.358,6.383.716c.37-.38.748-.749,1.14-1.107.923-.845,1.783-1.759,2.735-2.573.038-.175-2.334-1.439-2.67-1.531-.102-.106-.218-.227-.326-.326q1.27-.44,2.54-.879c-.507-.378-1.095-.716-1.563-1.14-.208-.188-.524-.383-.391-.521.808.248,1.61.507,2.41.782.42.144.833.262,1.205.521.061-.054.093-.073.098-.163.012-.251-1.3-4.165-1.433-4.819-1.122-.919-2.383-1.637-3.582-2.442-.208-.14-2.747-2.072-2.866-1.856q1.791,4.152,3.582,8.304Z"/><path d="M41.477,13.581c.515-.391,1.232-1.668.977-1.693-.671.178-2.347,2.734-.977,1.693Z"/><path d="M41.411,22.894c.261-.132,2.272-1.537,1.368-1.433-.767.088-2.629,2.071-1.368,1.433Z"/><path d="M36.103,39.339c.045-.324-.896-1.628-1.4-1.531-.187.407,1.312,2.165,1.4,1.531Z"/><path d="M11.974,31.361c-1.907.175-1.371.755.391.521,1.219-.162,1.242-.671-.391-.521Z"/><path d="M15.23,46.405c-.578.039-2.349,2.414-.651,1.237.34-.236,1.258-1.279.651-1.237Z"/><path d="M41.151,47.317c-.297.231,1.136,2.345,1.27,1.465.071-.467-.85-1.281-1.27-1.465Z"/><path d="M15.393,12.897c-.004-.601-.669-1.265-1.14-1.596-.329.262,1.146,2.576,1.14,1.596Z"/><path d="M36.82,19.898c-1.152.634-2.223,1.405-3.256,2.214-.382.299-.849.537-1.172.912-.007.008-.106-.035-.195.098-.193.593-.352,1.192-.521,1.791-.049.173-.52.956-.163.977.253.015,4.205-1.436,4.787-1.693.442-.829,3.569-6.054,3.647-6.415.01-.046.014-.139-.033-.163-.625.508-2.767,1.802-3.094,2.279Z"/><path d="M20.961,41.456c.198-.05,1.26-1.708.716-1.693-.117.003-1.753,1.958-.716,1.693Z"/><path d="M44.928,31.361c-.164-.039-1.416-.159-1.498-.13l-.098.098c-.107.629,4.082.62,1.596.033Z"/><path d="M50.399,37.874c-.404.091-.575.699-.13.912.947.454,1.194-1.152.13-.912Z"/><path d="M38.057,42.563c-.459-.447-.987-.976-.391.033.298.504.835.871,1.237,1.27.189.187,1.654,1.716,1.628,1.27-.01-.178-2.17-2.276-2.475-2.573Z"/><path d="M27.213,44.517c-.174,0-.809,1.83-.456,2.084.317-.233.974-2.083.456-2.084Z"/><path d="M56,27.518c-.532.14-.367,1.128.26,1.042.581-.08.564-1.26-.26-1.042Z"/><path d="M22.72,48.164c-.614.141-.377,1.225.391.977.437-.141.346-1.146-.391-.977Z"/><path d="M27.897,16.153c-.043-.092-.219-.133-.293-.098-.141.068-.125,1.331-.098,1.531.284,2.095.578-1.033.391-1.433Z"/><path d="M31.186,42.628c.338-.1.003-1.551-.521-1.693-.149.285.091,1.821.521,1.693Z"/><path d="M18.356,24.522c-.153-.087-1.292-.313-1.433-.26-.029.011-.062.074-.098.098,1.328.965,2.545.739,1.531.163Z"/><path d="M25.716,12.669c-.35.898.331,1.465.782,2.149-.02-.78-.343-1.515-.782-2.149Z"/><path d="M42.486,38.362c.134-.213-1.434-1.227-1.661-1.14-.595.23,1.368,1.255,1.661,1.14Z" /><path d="M14.904,21.266c-.139-.113-.893-.544-1.042-.456.669,1.37,2.44,1.59,1.042.456Z" /><path d="M35.713,12.506c-.024-.046-.12-.044-.163-.033-.842.223-.918,4.026.163.033Z"/><path d="M5.656,20.028c-.094-.055-1.91-.861-2.019-.847-.015.002-.189.161-.163.228.061.159,3.767,1.548,2.182.619Z"/><path d="M17.379,14.037c-.448.064.95,3.125.684,1.335-.029-.195-.46-1.367-.684-1.335Z"/><path d="M49.748,35.399c-.08-.156-1.364-.904-1.693-.847.484.885,1.946,1.339,1.693.847Z"/><path d="M40.174,27.323c-.082.004-1.162.313-1.335.391-.471.212-.743.44,0,.391.688-.045,2.689-.84,1.335-.782Z"/><path d="M25.292,42.335c.156-.192.378-1.346.228-1.465-.608.133-.863,2.248-.228,1.465Z"/><path d="M41.77,29.83c0-.149-1.178-.206-1.4-.163-1.103.213.241.857,1.4.163Z"/><path d="M52.679,19.377c-.116.013-2.135.894-2.117,1.009.057.349,3.383-1.155,2.117-1.009Z"/><path d="M4.028,11.627c.736.499,1.142-.952.26-.782-.14.027-.747.452-.26.782Z"/><path d="M12.039,7.589c.781.258.874-1.106.13-.912-.278.073-.568.767-.13.912Z"/><path d="M18.747,42.888c-.081.004-.57.406-.684.554-1.362,1.766,1.806-.606.684-.554Z"/><path d="M20.245,18.075c-.012.956,1.805,1.952.944.749-.106-.149-.794-.843-.944-.749Z"/><path d="M8.261,35.724c.752-.144,1.823-.952,1.303-.977-.126-.006-2.701,1.245-1.303.977Z" /><path d="M21.678,15.404c-.117-.026-.015.403.033.619.386,1.745,1.414,4.574,1.889,6.448q1.514,1.319,3.028,2.638c.13-.511,1.118-3.187.749-3.484-.331.076.114.663-.13.912-1.701-2.475-3.722-4.752-5.568-7.132Z"/><path d="M28.418,23.22c-.147-.387.715-.851.651-1.465-.075-.718-1.449-.896-1.303.195.009.069.485,1.027.586,1.27.244.584.54,1.141.782,1.726l.098.098c.098-.149.225-.275.358-.391.819-.713,1.895-1.85,2.638-2.67.035-.038.261-.056.293-.098.152-.2,1.05-4.239,1.172-4.885q-2.573,3.142-5.145,6.285c-.005-.006-.101-.058-.13-.065Z"/><path d="M25.65,18.01c-.295.123.338,1.73.521,1.954.131-.292-.134-2.115-.521-1.954Z"/><path d="M43.951,39.632q-.049.049-.098.098c.851,1.857,1.858.525.098-.098Z"/><path d="M9.955,17.814c1.585,1.461.648-.768-.13-.521-.341.109-.015.387.13.521Z"/><path d="M29.851,17.326c.01-.226-.106-.881-.228-.879-.67,1.477.163,2.34.228.879Z"/><path d="M30.991,45.103c-.393.027-.244.943.456,1.628.074-.044-.226-1.644-.456-1.628Z"/><path d="M8.001,15.404c.312-.114.182-1-.456-.782-.466.159-.063.971.456.782Z"/><path d="M23.925,15.176c-.012-.156-.269-1.119-.423-1.075-.454.129.557,2.777.423,1.075Z"/><path d="M48.25,35.79c.041.374,2.095,1.34,1.693.716-.05-.077-1.462-.69-1.693-.716Z" /><path d="M12.495,24.522c-.377.125.195.677.651.651,1.136-.065-.307-.766-.651-.651Z"/><path d="M13.537,39.111c-.058.017-.952.689-.944.749.067.492,2.548-1.215.944-.749Z"/><path d="M30.861,13.516c-.177.079.028,1.263.065,1.498.456-.747.354-1.686-.065-1.498Z"/><path d="M36.559,28.56c1.559-1.433,3.112-2.863,4.754-4.201-.093-.15-3.118.3-3.517.358-.497.073-1.003.095-1.498.195-.159.032-.543.112-.684.065-.246.368-2.983,2.919-2.801,3.126.194.062.436.111.619.195.469.216,1.88.807,2.279.912.017.004.068.143.326.13.038.16-.076.265-.195.326-.099.051-1.267.423-2.084.782-.025.011-.302.052-.521.163q1.531,1.531,3.061,3.061-.049.049-.098.098-2.279-.456-4.559-.912c.136,1.071.455,2.128.619,3.191.128.833.193,1.698.26,2.54q-1.514-1.824-3.028-3.647c-.26.564-.393,1.185-.619,1.758-.215.545-.498,1.069-.684,1.628q-.57-1.84-1.14-3.68c-.357.31-.517.766-.782,1.14-.325.458-.658.903-.977,1.368-.332.484-.666,1.098-1.042,1.465.125-1.143.299-2.28.456-3.419.045-.33.091-.646.13-.977.007-.062.059-.069.065-.13.033-.313.045-.64.13-.944-1.429.448-3.831,1.189-5.145,1.856-.24.122-.503.223-.716.391l-2.963,5.666c2.763-1.401,5.52-2.826,8.174-4.429-.165,1.062-.263,2.151-.326,3.224q.863-1.156,1.726-2.312l2.019,5.341q.798-2.475,1.596-4.95h.195c.759,1.063,4.384,6.19,4.819,6.611.231.222.037-.078.195-.228.248.459,2.399,4.163,2.833,3.647.185-.22-2.523-3.604-2.898-4.038-.336-1.735-.334-5.057-.586-7.034,1.115.587,2.264,1.12,3.387,1.693.348.178.458.114.619.195.784.4,1.868,1.222,2.768,1.596-.765-1.739-1.997-3.313-2.67-5.047.976.36,1.935.77,2.931,1.075-.715-.817-1.947-2.771-2.54-3.419l4.885.554c-2.097-1.648-4.269-3.185-6.448-4.722-.03-.021-.187-.213-.326-.261Z"/><path d="M8.391,17.554c-.041-.02-.749-.058-.912-.065,1.481,1.426,1.25.232.912.065Z"/><path d="M21.026,12.669c-.307.069.5,1.263.651,1.433.193-.289-.352-1.5-.651-1.433Z"/><path d="M32.945,48.489c-.522.21.064.977.521.651.173-.123.005-.862-.521-.651Z"/><path d="M13.862,41.977c-.183.134-.884.333-.944.554-.288,1.056,1.252-.397.944-.554Z"/><path d="M51.376,42.758c-.237.071-.324.617,0,.716.709.217.594-.895,0-.716Z"/><path d="M8.717,34.096c-.234-.036-1.194.475-1.27.814.113.195,1.678-.751,1.27-.814Z"/><path d="M39.425,15.828c.04-.191-.011-.414-.163-.554-1.319,2.115.106.826.163.554Z" /><path d="M45.905,17.293c-.701.108-.609,1,.261.456.394-.247.153-.52-.261-.456Z" /><path d="M12.234,33.771c-.142.01-.88.162-.814.358.149.447,2.156-.454.814-.358Z" /><path d="M35.485,40.739c-.233.106.033,1.102.326.977.239-.103.053-1.149-.326-.977Z"/><path d="M52.939,13.581c.233-.112.128-.839-.391-.651-.47.17-.017.848.391.651Z"/><path d="M14.546,38.036c.079.354,2-.508.879-.488-.167.003-.749.295-.879.488Z"/><path d="M49.292,15.079c.312-.102.255-.726-.195-.651-.418.07-.365.835.195.651Z"/><path d="M44.407,34.031c-.021.004-.059.07-.098.098-.039.305,2.116.858,1.075.228-.083-.05-.926-.335-.977-.326Z"/><path d="M35.355,19.638c.4.106,1.167-.903.521-.847-.055.005-.782.778-.521.847Z"/><path d="M12.169,26.281c-.674.484,1.802.606.782.13-.076-.036-.746-.156-.782-.13Z"/><path d="M17.64,11.497c.311-.126.138-.634-.13-.651-.487-.031-.439.882.13.651Z"/><path d="M42.714,10.715c-.027-.012-.562-.017-.586,0-.099.07.023.567.065.586.074.034.934-.407.521-.586Z" /><path d="M36.983,15.144c-.136.093-.414.691-.423.749-.173,1.032.629.009.423-.749Z" /><path d="M42.714,26.281c-.614.074-.555.686.195.391.502-.197.261-.445-.195-.391Z"/><path d="M10.28,11.041c.345-.157-.408-.73-.456-.716-.222.063-.007.927.456.716Z"/><path d="M24.804,45.363c-.056.018-.855.733-.13.651.466-.052.465-.761.13-.651Z"/><path d="M23.892,9.673c-.042-.009-.703.358-.391.586.541.395.626-.535.391-.586Z"/><path d="M31.512,10.78c.425.072.424-.735.26-.782-.051-.015-.755.698-.26.782Z"/><path d="M47.338,9.934c-.175.004-.317.758-.195.847.312.229.57-.854.195-.847Z"/><path d="M38.676,40.479c-.047.159.538.792.586.782.23-.049-.014-.766-.586-.782Z"/><path d="M5.33,24.783c-.11.074.085.798.391.651.361-.173-.234-.757-.391-.651Z"/><path d="M16.728,17.814c.106-.058.134-.577-.195-.521-.401.068-.332.809.195.521Z"/><path d="M15.556,8.24c.049-.146.376-.624.293-.749-.01-.016-.343-.109-.358-.098-.036.026-.106.853.065.847Z"/><path d="M15.881,49.792c-.043.005-.463.239-.326.391.366.404,1.01-.473.326-.391Z"/><path d="M33.14,45.884c.47-.074.203-.602-.195-.456-.226.083-.254.526.195.456Z"/><path d="M19.789,16.251c.096-.015.091-.674-.13-.651-.121.013-.556.761.13.651Z"/><path d="M25.976,9.608c.203-.085.074-.604-.13-.586-.299.025-.255.747.13.586Z"/><path d="M48.641,18.205c.129.034.423-.569.391-.716-.65.223-.555.673-.391.716Z"/><path d="M46.296,24.197c-.082.017-.351.465-.261.521.323.199.833-.64.261-.521Z"/><path d="M44.7,28.332c-.013.204,1.879-.224.814-.228-.072,0-.711.12-.814.228Z"/><path d="M51.116,25.239c.077-.059.032-.53-.261-.521-.489.015.134.618.261.521Z"/><path d="M8.066,26.802c-.257.107-.021.456.326.326.363-.136.028-.473-.326-.326Z"/><path d="M29.037,43.865c-.025-.004-.202.43-.163.488.274.408.575-.426.163-.488Z"/><path d="M22.589,38.59c-.162.04-.122.437.065.391.12-.03.197-.455-.065-.391Z"/><path d="M10.736,24.978c.188.058.222-.369.065-.391-.116-.016-.21.346-.065.391Z"/></svg>