<?xml version="1.0" encoding="utf-8"?>
<!-- Generator: Adobe Illustrator 27.9.0, SVG Export Plug-In . SVG Version: 6.00 Build 0)  -->
<svg version="1.1" id="Layer_1" xmlns="http://www.w3.org/2000/svg" xmlns:xlink="http://www.w3.org/1999/xlink" x="0px" y="0px"
	 viewBox="0 0 100 100" style="enable-background:new 0 0 100 100;" xml:space="preserve">
<style type="text/css">
	.st0{fill:none;}
	.st1{fill:#27AAE1;}
</style>
<g>
	<path class="st0" d="M27.2,42.7c0.1-0.2,0.1-0.7-0.1-0.8c-1.5-1.7-3-3.4-4.6-5.3c-0.1,0.8-0.1,1.4-0.2,1.9
		c-0.7,3.2,1.1,5.4,2.9,7.8C25.8,45.1,26.5,43.9,27.2,42.7z"/>
	<path class="st0" d="M19.6,48.8c0.5,1.1,2,1.1,2.9,0.3c0.4-0.4,0.5-0.7,0.1-1.2c-0.7-0.9-1.2-2-1.9-2.8c-1.2-1.5-1.5-3.1-1.4-5
		c0.1-1.5,0.2-3,0.3-4.6c-0.8-0.2-1.6-0.4-2.6-0.6c-0.5,1.4-1.1,2.8-1.6,4.2c-0.1,0.3-0.1,0.8,0,1.1C16.8,43,18.1,45.9,19.6,48.8z"
		/>
	<path class="st0" d="M26.4,29.7c0.4,0.2,0.7,0.5,1,0.8L43,50c0-0.1,0-0.2,0-0.4c0-0.8-0.2-1.8-0.3-2.6c-0.1-1-0.6-2-1.1-2.9
		c-3.9-6.2-8-12.3-11.9-18.5c-0.2-0.3-0.4-0.6-0.6-0.9c-0.3-0.7-0.1-1.4,0.6-1.8c0.6-0.4,1.3-0.3,1.8,0.2c0.2,0.2,0.4,0.5,0.6,0.8
		c2.5,3.9,5,7.8,7.6,11.6c0.2,0.3,0.5,0.7,0.7,0.7c1.3,0.3,2.7,0.4,4.2,0.7c0-2.2,0.1-4.3,0-6.4c0-0.9-0.2-1.8-0.5-2.5
		c-1.4-3-3.3-5.6-6.1-7.4c-2.6-1.7-5.3-3.4-8-5c-2.4-1.4-2.4-1.4-4.7,0.2c-0.5,0.4-1,0.7-1.5,1.1c-3,2.3-5.6,4.9-7.9,7.9L26.4,29.7z
		"/>
	<path class="st0" d="M30.8,12.7c0.3,0.2,0.6,0.4,0.8,0.5c2.4,1.5,4.8,3,7.3,4.5c3,1.9,5.2,4.5,6.9,7.4c1.2,1.9,1.8,4,1.7,6.3
		c-0.1,1.6-0.1,3.3-0.1,4.9c0,0.3,0,0.7,0,1c0.3,0.1,0.5,0.1,0.8,0.2c1.7,0.3,3.5,0.5,5.2,0.8c0.9,0.2,1.5,0.8,1.4,1.6
		c-0.1,0.8-0.7,1.3-1.6,1.3c-0.4,0-0.7-0.1-1.1-0.1c-3.2-0.5-6.4-1.1-9.6-1.6c-0.1,0.1-0.1,0.2-0.2,0.2c0.5,0.5,0.9,1,1.5,1.4
		c1.6,1,3.2,1.8,4.8,2.7c0.9,0.5,1.2,1.3,0.7,2.1c-0.4,0.7-1.2,0.9-2.1,0.4c-0.5-0.2-0.9-0.5-1.4-0.7c0,0.8,0,1.4,0,2.1
		c-0.3,7.3-4.1,7.7-8.4,5.3c-0.3-0.8-3-1.9-4.1-3.4c-1.2-1.7-2.5-3.3-3.8-5.1c-1.7,3-3.4,5.9-5.1,8.8c-0.8,1.4-1.6,2.8-2.5,4.3
		c0.4,0.2,0.7,0.4,1,0.6c2.5,1.4,5,2.9,7.5,4.3c0.2,0.1,0.4,0.2,0.5,0.4c0.4,0.3,0.5,0.8,0.3,1.3c-0.2,0.5-0.8,0.9-1.3,1.1
		c-0.3,0.1-0.8-0.2-1.2-0.4c-3-1.7-6-3.5-9-5.2c-1.3-0.8-1.5-1.4-0.7-2.7c0.8-1.5,1.7-2.9,2.6-4.5c-2.8,0.1-4.2-1.4-5.2-3.6
		c-1.1-2.2-2.1-4.5-3.2-6.7c-0.9-1.8-0.8-3.6,0-5.4c0.4-1,0.9-2.1,1.3-3.1c-1-0.7-1.9-1.4-2.7-2c-8.1,15.1-6.2,35.7,6.9,49.4
		C39,60.7,59.5,40.3,80,19.9C65.7,6.3,44.9,5.1,30.8,12.7z"/>
	<path class="st0" d="M82.1,22C61.6,42.5,41.2,62.9,20.8,83.4c15.3,14.8,42,16.5,59.7-0.6C98.2,65.5,97.6,38.3,82.1,22z M81.6,70.7
		c-0.3,1.7-0.9,2-2.5,1.8c-2.3-0.4-4.6-0.8-6.8-1.2c-0.7-0.1-1,0-1.3,0.6c-2.1,3.8-4.2,7.6-6.4,11.5c-0.9,1.5-1.4,1.7-2.9,0.8
		c-7.3-4.2-14.5-8.4-21.8-12.6c-1.3-0.8-1.7-1.5-1.2-2.3c0.3-0.5,0.7-0.8,1.3-0.7c0.4,0,0.8,0.2,1.4,0.6c6.7,3.9,13.4,7.8,20.1,11.6
		c0.3,0.2,0.6,0.3,1,0.6c0.9-1.7,1.9-3.4,2.8-5c2.7-4.9,5.5-9.8,8.2-14.8c-0.4-0.2-0.7-0.4-1-0.6c-4.6-2.6-9.2-5.2-13.8-7.8
		c-0.5-0.3-0.9-0.8-1.1-1.4c-0.1-0.3,0.2-1,0.6-1.2c0.5-0.2,1.2-0.3,1.6-0.1c1.6,0.8,3.1,1.7,4.7,2.6c3.7,2.1,7.4,4.1,11.1,6.2
		c1.5,0.8,1.6,1.4,0.8,2.9c-0.2,0.3-0.4,0.7-0.6,1c-0.9,1.7-1.9,3.4-2.8,5c0,0.1,0,0.1,0,0.3c1.9,0.3,3.8,0.6,5.8,1
		c0.4-1.8,0.7-3.6,1.1-5.5c1.1-5.7,2.3-11.3,3.4-17.1c-1.6-0.3-3.1-0.6-4.6-0.9c-3.8-0.7-7.5-1.3-11.3-2c-1-0.2-1.6-0.9-1.4-1.8
		c0.2-0.8,0.9-1.3,1.9-1.1c5.7,1,11.3,2,16.9,3c1.4,0.3,1.8,0.9,1.5,2.3C84.8,54.5,83.2,62.6,81.6,70.7z"/>
	<path class="st1" d="M26.4,29.7l-10.5-4.9c-1,1.3-1.9,2.6-2.8,4.1c1.2,1.3,2.5,2.3,4.1,2.8c1.2,0.4,2.5,0.6,3.8,1
		c1.1,0.4,2.4,0.7,3.2,1.5c4.2,4.4,8.2,8.9,11.6,13.9c0.8,1.1,1.9,1.7,3,2.4c2.9,1.9,4.3,1.6,4.4-0.6L27.4,30.5
		C27.1,30.2,26.8,29.9,26.4,29.7z"/>
	<path d="M50.3,5.1C24.8,5.1,3.8,25.9,3.8,51.4c0,25.6,20.8,46.5,46.5,46.5c25.5,0,46.3-20.9,46.4-46.3C96.7,26,75.8,5.1,50.3,5.1z
		 M23.8,17c0.5-0.4,1-0.7,1.5-1.1c2.3-1.6,2.3-1.7,4.7-0.2c2.7,1.6,5.3,3.3,8,5c2.8,1.8,4.7,4.4,6.1,7.4c0.4,0.8,0.5,1.7,0.5,2.5
		c0.1,2.1,0,4.2,0,6.4c-1.5-0.2-2.9-0.4-4.2-0.7c-0.3-0.1-0.5-0.4-0.7-0.7c-2.5-3.9-5.1-7.8-7.6-11.6c-0.2-0.3-0.3-0.6-0.6-0.8
		c-0.5-0.5-1.2-0.6-1.8-0.2c-0.7,0.4-0.8,1.1-0.6,1.8c0.1,0.3,0.4,0.6,0.6,0.9c4,6.2,8,12.3,11.9,18.5c0.5,0.9,1,1.9,1.1,2.9
		c0.1,0.8,0.3,1.8,0.3,2.6c0,0.1,0,0.2,0,0.4c-0.1,2.2-1.5,2.5-4.4,0.6c-1.1-0.7-2.2-1.3-3-2.4c-3.4-5-7.4-9.5-11.6-13.9
		c-0.8-0.8-2.1-1.2-3.2-1.5c-1.2-0.4-2.5-0.6-3.8-1c-1.6-0.5-2.9-1.4-4.1-2.8c0.9-1.4,1.8-2.8,2.8-4.1C18.2,21.9,20.8,19.3,23.8,17z
		 M15.4,39c0.5-1.4,1-2.7,1.6-4.2c1,0.2,1.8,0.4,2.6,0.6c-0.1,1.6-0.2,3.1-0.3,4.6c-0.1,1.8,0.2,3.5,1.4,5c0.7,0.9,1.2,1.9,1.9,2.8
		c0.3,0.5,0.3,0.8-0.1,1.2c-0.9,0.9-2.3,0.8-2.9-0.3c-1.5-2.8-2.8-5.7-4.1-8.6C15.3,39.8,15.3,39.3,15.4,39z M22.2,38.5
		c0.1-0.5,0.1-1.1,0.2-1.9c1.7,1.9,3.2,3.6,4.6,5.3c0.2,0.2,0.2,0.6,0.1,0.8c-0.6,1.2-1.3,2.3-2.1,3.6
		C23.3,43.9,21.6,41.7,22.2,38.5z M11.6,31.7c0.9,0.7,1.8,1.3,2.7,2c-0.4,1-0.8,2-1.3,3.1c-0.8,1.8-0.8,3.6,0,5.4
		c1.1,2.2,2.1,4.5,3.2,6.7c1,2.1,2.5,3.7,5.2,3.6c-0.9,1.6-1.8,3.1-2.6,4.5c-0.8,1.3-0.6,1.9,0.7,2.7c3,1.7,6,3.5,9,5.2
		c0.4,0.2,0.9,0.5,1.2,0.4c0.5-0.2,1.1-0.6,1.3-1.1c0.2-0.5,0.1-0.9-0.3-1.3c-0.1-0.1-0.3-0.3-0.5-0.4c-2.5-1.4-5-2.9-7.5-4.3
		c-0.3-0.2-0.6-0.3-1-0.6c0.8-1.4,1.6-2.8,2.5-4.3c1.7-2.9,3.3-5.8,5.1-8.8c1.3,1.8,2.6,3.5,3.8,5.1c1.1,1.5,3.7,2.6,4.1,3.4
		c4.4,2.4,8.1,2,8.4-5.3c0-0.7,0-1.4,0-2.1c0.4,0.2,0.9,0.5,1.4,0.7c0.9,0.5,1.7,0.3,2.1-0.4c0.5-0.8,0.2-1.6-0.7-2.1
		c-1.6-0.9-3.2-1.8-4.8-2.7c-0.6-0.3-1-0.9-1.5-1.4c0.1-0.1,0.1-0.2,0.2-0.2c3.2,0.5,6.4,1.1,9.6,1.6c0.4,0.1,0.7,0.1,1.1,0.1
		c0.9,0,1.5-0.5,1.6-1.3c0.1-0.8-0.5-1.4-1.4-1.6c-1.7-0.3-3.5-0.6-5.2-0.8c-0.2,0-0.4-0.1-0.8-0.2c0-0.4,0-0.7,0-1
		c0-1.6,0-3.3,0.1-4.9c0.2-2.3-0.5-4.4-1.7-6.3c-1.8-3-4-5.6-6.9-7.4c-2.4-1.5-4.8-3-7.3-4.5c-0.3-0.2-0.5-0.3-0.8-0.5
		C44.9,5.1,65.7,6.3,80,19.9C59.5,40.3,39,60.7,18.5,81.1C5.4,67.5,3.5,46.8,11.6,31.7z M80.5,82.7c-17.7,17.1-44.4,15.4-59.7,0.6
		C41.2,62.9,61.6,42.5,82.1,22C97.6,38.3,98.2,65.5,80.5,82.7z"/>
	<path d="M84.9,44.2c-5.6-1-11.3-2-16.9-3c-1-0.2-1.7,0.3-1.9,1.1c-0.2,0.9,0.3,1.6,1.4,1.8c3.8,0.7,7.5,1.3,11.3,2
		c1.5,0.3,3,0.6,4.6,0.9c-1.1,5.7-2.3,11.4-3.4,17.1c-0.4,1.8-0.7,3.6-1.1,5.5c-2-0.3-3.9-0.7-5.8-1c0-0.2,0-0.3,0-0.3
		c0.9-1.7,1.9-3.4,2.8-5c0.2-0.3,0.4-0.7,0.6-1c0.8-1.5,0.7-2.1-0.8-2.9c-3.7-2.1-7.4-4.2-11.1-6.2c-1.6-0.9-3.1-1.8-4.7-2.6
		c-0.4-0.2-1.2-0.2-1.6,0.1c-0.3,0.2-0.7,0.9-0.6,1.2c0.2,0.5,0.6,1.1,1.1,1.4c4.6,2.6,9.2,5.2,13.8,7.8c0.3,0.2,0.6,0.4,1,0.6
		c-2.8,5-5.5,9.9-8.2,14.8c-0.9,1.7-1.9,3.4-2.8,5c-0.4-0.2-0.7-0.4-1-0.6c-6.7-3.9-13.4-7.8-20.1-11.6c-0.6-0.3-1-0.5-1.4-0.6
		c-0.6-0.1-1,0.2-1.3,0.7c-0.5,0.9-0.1,1.6,1.2,2.3c7.3,4.2,14.5,8.4,21.8,12.6c1.5,0.9,2,0.7,2.9-0.8c2.1-3.8,4.3-7.6,6.4-11.5
		c0.3-0.6,0.6-0.7,1.3-0.6c2.3,0.5,4.6,0.8,6.8,1.2c1.6,0.3,2.2-0.1,2.5-1.8c1.6-8.1,3.2-16.1,4.8-24.2
		C86.7,45.1,86.3,44.5,84.9,44.2z"/>
</g>
</svg>
