<?xml version="1.0" encoding="utf-8"?>
<!-- Generator: Adobe Illustrator 28.0.0, SVG Export Plug-In . SVG Version: 6.00 Build 0)  -->
<svg version="1.1" id="Layer_1" xmlns="http://www.w3.org/2000/svg" xmlns:xlink="http://www.w3.org/1999/xlink" x="0px" y="0px"
	 viewBox="0 0 238.5 176.2" style="enable-background:new 0 0 238.5 176.2;" xml:space="preserve">
<style type="text/css">
	.st0{fill:#FFFFFF;}
	.st1{fill:#27AAE1;}
</style>
<g id="Group_326" transform="translate(71 3)">
	<g>
		<g id="Group_325" transform="translate(-71 -3)">
			<path id="Path_2483" class="st0" d="M221.2,106l-21.6,1.7c-0.9,0.2-6.5,1.5-13,3.2l-0.4,7.5c0.6-0.1,1.3-0.2,1.9-0.3v-6.3
				l33.4,0.9l-0.3-5.6l-0.1-2H221c0,0.2,0,0.3,0,0.3L221.2,106z"/>
			<path id="Path_2484" class="st0" d="M114.4,76.1l14.5-5.9l8.1,4.2V59.7l0,0l0,0V45l-9.1,0.2v0.2h-6.7l-9.5,0.3l2.8,30.4H114.4z"
				/>
			<path id="Path_2485" class="st0" d="M123,42.4c-0.8,0-1.6-0.1-2.4-0.4v2h0.5l5-0.1l-0.2-2C125.1,42.2,124.1,42.4,123,42.4
				L123,42.4z"/>
			<path id="Path_2486" class="st0" d="M101.7,68.3l8.4-14.2l-0.5-6.5L100,66l-12.2,4.9c0.2,0.6,0.3,1.2,0.3,1.9L101.7,68.3z"/>
			<path id="Path_2487" class="st0" d="M131.2,18c-0.1-0.3-0.3-0.5-0.4-0.8c-2.1,0.4-4.2,0.6-6.4,0.6c-2.1,0-4.1-0.2-6.2-0.5
				c-0.1,0.6-0.2,1.1-0.3,1.7C122.4,19.5,126.9,19.2,131.2,18"/>
			<path id="Path_2488" class="st0" d="M129.9,15.7c-0.2-0.3-0.4-0.6-0.7-0.9c-0.7,0.1-1.3,0.1-1.9,0.1c-2.8,0-5.5-0.5-8.1-1.4
				c-0.2,0.8-0.5,1.5-0.6,2.3C122.4,16.4,126.2,16.4,129.9,15.7"/>
			<path id="Path_2489" class="st0" d="M83.7,76.8c1.6,0,3-1.7,3-3.9c0-2.1-1.3-3.9-3-3.9s-3,1.7-3,3.9C80.7,75.1,82,76.8,83.7,76.8
				"/>
			<path id="Path_2490" class="st0" d="M119.6,40c1.1,0.6,2.2,1,3.5,1l0,0c5.4,0,9.8-6.6,9.8-14.7c0-2.3-0.4-4.6-1.1-6.8
				c-3.1,0.9-6.4,1.4-9.7,1.4c-1.4,0-2.9-0.1-4.3-0.2C117.1,27.1,117.7,33.7,119.6,40"/>
			<path id="Path_2491" class="st0" d="M52.7,69l9.1,3.8l17.2,1v-2.1L61.9,69l-8-7.2C53.6,64.1,53.1,66.5,52.7,69"/>
			<path id="Path_2492" class="st0" d="M52.3,166.4h2.2l1-47h-3.3L52.3,166.4L52.3,166.4z"/>
			<path id="Path_2493" class="st0" d="M49.6,44.7c-0.2,0-0.5-0.1-0.7-0.1c-1.4-0.3-2.7-1.1-3.8-2.1l-1.4,4L49,48L49.6,44.7z"/>
			<path id="Path_2494" class="st0" d="M48.5,85.4l-7.6-2.2L39.4,59l1.5-0.1L42.3,82l20.8,6c0.1,0,0.1-0.1,0.2-0.1l0.1,0.1l5.4,1.6
				h11L78,86.9l-10.1-0.7c-2-0.6-17.6-8.8-18.3-9.1l-0.3-0.2l-2.1-17.8l1.5-0.2L50.4,74c1.8-10.7,3.4-20.4,3.9-23.1l-17.9-4.4
				c-7.3,16.7-10.2,52.6-10.6,58.2l19.3,1.5C45.4,103.8,46.9,95.1,48.5,85.4"/>
			<path id="Path_2495" class="st0" d="M123.1,11.5L123.1,11.5c-1,0-2,0.2-2.8,0.6c2.4,0.8,5,1.2,7.5,1.2
				C126.5,12.2,124.8,11.6,123.1,11.5"/>
			<path id="Path_2496" class="st0" d="M49.2,43.2c5.3,1.2,11.1-4.2,12.9-12.1c0.9-3.6,0.8-7.4-0.5-10.9c-1.2-3.1-3.2-5.1-5.7-5.7
				c-5.3-1.2-11.1,4.2-12.9,12.1c-0.9,3.6-0.8,7.4,0.5,10.9C44.6,40.6,46.7,42.6,49.2,43.2"/>
			<path id="Path_2497" class="st0" d="M21.9,119.1l3.9,47.4h2l-1-47.3L21.9,119.1z"/>
			<path id="Path_2498" class="st0" d="M201.8,37.5c1.2-3.5,1.4-7.3,0.5-10.9c-1.7-7.1-6.6-12.3-11.4-12.3c-0.5,0-1,0.1-1.5,0.2
				c-2.5,0.6-4.5,2.6-5.7,5.7c-1.2,3.5-1.4,7.3-0.5,10.9c1.9,7.9,7.7,13.3,12.9,12.1C198.6,42.6,200.6,40.5,201.8,37.5"/>
			<path id="Path_2499" class="st0" d="M196.6,58.9l1.5,0.2L196,76.8l-0.3,0.2c-0.7,0.3-16.3,8.5-18.3,9.1h-0.2l-9.9,0.7l-1.8,2.7
				h11l26.5-7.6l1.5-23.1l1.5,0.1l-1.5,24.2l-7.5,2.1c1.6,9.8,3.1,18.5,3.5,20.9l19.3-1.5c-0.4-5.6-3.4-41.5-10.6-58.2l-17.9,4.4
				c0.4,2.6,2.1,12.1,3.8,22.5L196.6,58.9z"/>
			<path id="Path_2500" class="st0" d="M192.9,70.2c-0.4-2.3-0.8-4.6-1.1-6.7c-2.6,1.8-5.5,3.9-5.5,3.9l-0.3,0.1l-16.8,4v2.2l17.2-1
				C187,72.6,190.2,71.2,192.9,70.2"/>
			<path id="Path_2501" class="st0" d="M164.7,76.8c1.6,0,3-1.7,3-3.9c0-2.1-1.3-3.9-3-3.9s-3,1.7-3,3.9
				C161.7,75.1,163,76.8,164.7,76.8"/>
			<path id="Path_2502" class="st0" d="M196.5,44.6c-0.3,0.1-0.5,0.1-0.8,0.1l0.5,3.2l5.4-1.4l-1.4-4
				C199.2,43.6,197.9,44.2,196.5,44.6"/>
			<path id="Path_2503" class="st0" d="M176.7,91.1h-14l3.8-5.6L173,85c-2.9-1.7-5.3-3.2-6-3.6c-1.7,0-13.2,0.2-27.3,0.4v0.7
				L123.1,92h61.8c-1.1-0.6-2.4-1.4-3.9-2.3L176.7,91.1z"/>
			<path id="Path_2504" class="st0" d="M110.8,79.2l10.1,4.5l16.3-7.5l-8.4-4.3L110.8,79.2z M130,75.2l-1.8,0.9l0.9,0.8l-1,1.1
				l-1.2-1.2l-7.7,4.1l-0.7-1.3l7.3-3.9L125,75l1-1.1l1.1,1.1l2.2-1.2L130,75.2z"/>
			<path id="Path_2505" class="st0" d="M108.2,86.9v-4.5c-16.2,0.3-30,0.4-31.6,0.4c-0.5,0.2-2.1,1-4.3,2.1l6.5,0.5l3.8,5.6H68.5
				l-5.2-1.5c-1.8,1-3.6,1.9-4.9,2.5h60.4L108.2,86.9z"/>
			<path id="Path_2506" class="st0" d="M121.8,91.2l16.4-9.4v-4.4L121.7,85L121.8,91.2z"/>
			<path id="Path_2507" class="st0" d="M120.2,85l-10.6-4.7V86l10.7,5.2L120.2,85z"/>
			<path id="Path_2508" class="st0" d="M160.3,72.4c0-0.6,0.2-1.1,0.4-1.6l-12-4.8l-10.2-18.8v8.4l8.6,12.9L160.3,72.4z"/>
			<path id="Path_2509" class="st0" d="M72.3,161.9c-0.3,0-0.7,0-1,0c-0.5,0-1.1,0-1.9,0v3.6l15.8,1l0.9-2.8L72.3,162V161.9z"/>
			<path id="Path_2510" class="st0" d="M144.5,102.1h-3.3l-0.1,5.5h3.4L144.5,102.1L144.5,102.1z"/>
			<path id="Path_2511" class="st0" d="M141.1,109.1l4.8,45.9h2.2l-3.6-45.9H141.1z"/>
			<path id="Path_2512" class="st0" d="M163.7,114.9l0.7-0.2l1.4-0.3c0.3-5.9,0.7-10.5,0.8-12.3h-4.3l-1.3,54.1h2.1
				c0.2-3.4,1.2-19,2.1-32.8c-0.5-2.8-1-5.5-1.4-7.8L163.7,114.9z"/>
			<path id="Path_2513" class="st0" d="M172.8,162l-13.7,1.7l0.9,2.8l15.8-1V162c-0.8,0-1.5,0-1.9,0
				C173.5,162.1,173.2,162.1,172.8,162"/>
			<path id="Path_2514" class="st0" d="M166.6,122.6h0.2c0,0.2,0,0.4,0,0.7c5.1,28.2,6.4,35.4,6.8,37.3c0.5,0,1.4,0,2.3,0l-1.6-40.2
				l0.6-0.1c0.1,0,1.9-0.4,4.6-0.8l0.1-6.9c-6.3,1.6-12.2,3-14.1,3.5C165.8,118.4,166.2,120.5,166.6,122.6"/>
			<path id="Path_2515" class="st0" d="M124.6,102.1l-0.6,5.5h3l-0.6-5.5H124.6z"/>
			<path id="Path_2516" class="st0" d="M138.2,158l1.4-55.9h-9.3l5,55.9H138.2z"/>
			<path id="Path_2517" class="st0" d="M138.6,159.5l5.9,7.1l1-0.1L138.6,159.5L138.6,159.5z"/>
			<path id="Path_2518" class="st0" d="M185.6,102.1h-4.4l-1.2,63.3h2.3L185.6,102.1z"/>
			<path id="Path_2519" class="st0" d="M217.5,166.4h2.1l3.8-47.4l-4.7,0.1L217.5,166.4z"/>
			<path id="Path_2520" class="st0" d="M219.6,34.9l3.6,79.2l-33.5-0.9v4.7l35.3-0.4l4.4-82.7L219.6,34.9z"/>
			<path id="Path_2521" class="st0" d="M114,158h2.6l6.5-55.9H115L114,158z"/>
			<path id="Path_2522" class="st0" d="M186.9,93.6H56v7h129.9L186.9,93.6z"/>
			<path id="Path_2523" class="st0" d="M190.8,166.4h2.1v-47h-3.3L190.8,166.4z"/>
			<path id="Path_2524" class="st0" d="M113.7,166.9L113.7,166.9l2.5-7.5h-0.6L113.7,166.9z"/>
			<path id="Path_2525" class="st0" d="M45.5,107.7l-19.3-1.5c0.5,1.6,1.4,4.5,2,6.3l28.9-0.8v6.3c0.4,0.1,0.8,0.1,1.2,0.2l-0.4-7.5
				C51.5,109.3,46.1,107.9,45.5,107.7"/>
			<path id="Path_2526" class="st0" d="M77.9,102.1c0.1,1.8,0.4,6.3,0.8,12l2.2,0.5l0.7,0.2l-0.1,0.7c-0.6,3.1-1.3,6.9-2,10.8h0.1
				c0.8,12.3,1.8,26.6,2,29.9h2.1l-1.3-54.1H77.9z"/>
			<path id="Path_2527" class="st0" d="M111.8,109.2h-3.4l-1,45.7c0.5,0.1,1,0.1,1.4,0.1c0.4-3,1.9-24.2,2.9-38.4h0.1V109.2z"/>
			<rect id="Rectangle_269" x="107.3" y="102.1" class="st0" width="4.5" height="5.6"/>
			<path id="Path_2528" class="st0" d="M58.9,102.1l3.3,63.3h2.3l-1.2-63.3C63.3,102.1,58.9,102.1,58.9,102.1z"/>
			<path id="Path_2529" class="st0" d="M65,112.3l0.1,7c3.1,0.5,5.2,0.8,5.3,0.8l0.7,0.1l-1.6,40.2c0.9,0,1.8,0,2.3,0
				c0.4-2,1.8-10.3,8.1-44.5C77.8,115.4,71.5,113.9,65,112.3"/>
			<path id="Path_2530" class="st0" d="M22.4,107l3.4-72.1h-9.9l4.4,82.7l35.3,0.4v-4.7l-33.3,0.9L22.4,107z"/>
			<path id="Path_2531" class="st1" d="M119.2,13.5c-0.3-0.1-0.5-0.2-0.7-0.3c-0.8,0.6-1.5,1.4-2.1,2.2c0.6,0.1,1.4,0.2,2.1,0.4
				C118.8,15,119,14.2,119.2,13.5"/>
			<path id="Path_2532" class="st1" d="M117.7,20.6c-1.4-0.2-2.6-0.4-3.5-0.6c-0.6,2-0.9,4.1-0.9,6.2c-0.1,3.7,0.9,7.4,2.9,10.5
				c0.9,1.3,2,2.4,3.4,3.2C117.7,33.7,117.1,27.1,117.7,20.6"/>
			<path id="Path_2533" class="st1" d="M118.3,17.3c-1-0.2-1.9-0.3-2.7-0.5c-0.3,0.5-0.6,1.1-0.8,1.7c0.9,0.2,2,0.4,3.2,0.5
				C118,18.4,118.1,17.9,118.3,17.3"/>
			<path id="Path_2534" class="st1" d="M114.4,76.1L114.4,76.1l-2.7-30.5h-0.8l2.2,30.9L114.4,76.1z"/>
			<path id="Path_2535" class="st1" d="M88.1,72.7c0,0.1,0,0.2,0,0.2c0,0.3,0,0.5-0.1,0.8c2.5-0.5,9.6-2.2,14.3-3.4l8-11.8L110,54
				l-8.4,14.2L88.1,72.7z"/>
			<path id="Path_2536" class="st1" d="M160.3,73.7c0-0.3-0.1-0.5-0.1-0.8c0-0.2,0-0.4,0-0.6L147,68.4l-8.6-12.9v3.7l7.6,11.1
				C150.7,71.5,157.6,73.2,160.3,73.7"/>
			<path id="Path_2537" class="st1" d="M113.3,102.1V158h0.8l1-55.9H113.3z"/>
			<path id="Path_2538" class="st1" d="M101.8,167.7l11.2,2.2l0.4-1.5l-10.5-1.6L101.8,167.7z"/>
			<path id="Path_2539" class="st1" d="M113.2,159.5l-8.1,6.2l8.6,1.3l1.9-7.5H113.2z"/>
			<path id="Path_2540" class="st1" d="M130.4,102.1h-2.5l6.2,55.9h1.3L130.4,102.1z"/>
			<path id="Path_2541" class="st1" d="M134.5,159.5l2.4,7.5l7.7-0.4l-5.9-7.1H134.5z"/>
			<path id="Path_2542" class="st1" d="M137.1,169.4l9.3-0.5l-0.7-0.8l-8.9,0.5L137.1,169.4z"/>
			<path id="Path_2543" d="M126,74l-1,1.1l0.8,0.7l-7.3,3.9l0.7,1.3l7.7-4.1l1.2,1.2l1-1.1l-0.9-0.8l1.8-0.9l-0.7-1.3l-2.2,1.2
				L126,74z"/>
			<path id="Path_2544" d="M218,33.4l3.2,71.6l0.1,2l0.3,5.6l-33.4-0.9v6.3c-0.7,0.1-1.3,0.2-1.9,0.3l0.4-7.5
				c6.5-1.6,12.2-2.9,13-3.2l21.6-1.7v-0.7c0,0,0-0.1,0-0.3c-0.3-3.5-3.2-42.4-11-59.7l-0.3-0.6l-6.7,1.7l-1.8-5.1
				c0.8-1,1.4-2.1,1.9-3.3c1.3-3.8,1.5-7.9,0.5-11.8c-2-8.7-8.6-14.6-14.7-13.2c-3,0.7-5.4,3-6.8,6.6c-1.3,3.8-1.5,7.9-0.5,11.8
				c1.8,7.6,7,13.1,12.4,13.4l0.6,3.7l-5.4,1.3l0.1,0.7c0,0,0.8,4.7,1.9,11.4c-2.4,1.7-5.4,3.8-6,4.3l-17,4.1
				c-0.7-1.5-2.1-2.6-3.8-2.6c-1.3,0-2.6,0.7-3.3,1.8l-11.6-4.6l-11.2-20.7v-0.6l-10.8,0.3l-0.3-2.6c4.1-2.5,6.9-8.2,6.9-14.9
				c0-2.5-0.4-5-1.2-7.3c0.4-0.1,0.7-0.2,1.1-0.4l-0.6-1.5c-0.4,0.1-0.7,0.3-1.1,0.4c-0.1-0.2-0.2-0.5-0.3-0.7
				c0.2-0.1,0.4-0.1,0.7-0.2l-0.5-1.5c-0.3,0.1-0.7,0.2-1,0.3c-0.1-0.2-0.2-0.3-0.3-0.5c-0.1-0.1-0.2-0.2-0.2-0.3c0.1,0,0.2,0,0.3,0
				L131,13c-0.4,0.1-0.8,0.1-1.2,0.2c-1.7-1.9-4.1-3.1-6.7-3.2l0,0c-1.7,0-3.3,0.5-4.6,1.4c-0.7-0.3-1.4-0.6-2.1-1l-0.8,1.3
				c0.5,0.3,1,0.6,1.5,0.8c-0.8,0.7-1.5,1.6-2.1,2.5c-1.2-0.3-1.9-0.5-1.9-0.5l-0.5,1.5c0.1,0,0.6,0.2,1.5,0.4
				c-0.3,0.5-0.5,1.1-0.8,1.7c-1-0.2-1.6-0.4-1.6-0.4l-0.5,1.5c0.1,0,0.7,0.2,1.6,0.5c-0.7,2.1-1,4.3-1,6.6c-0.1,4,1,8,3.2,11.4
				c1.1,1.6,2.5,3,4.2,3.9V44l-9.9,0.3v0.6L98.9,64.8l-11.8,4.7c-0.7-1.2-2-1.9-3.4-1.9c-1.7,0.1-3.2,1.1-3.8,2.7l-17.2-2.6
				l-8.4-7.5c1-5.7,1.6-9.6,1.6-9.6l0.1-0.7l-5.5-1.4l0.6-3.6c5.4-0.3,10.7-5.7,12.5-13.4c1-3.9,0.8-8-0.5-11.8
				c-1.4-3.5-3.8-5.9-6.8-6.6c-6.1-1.4-12.7,4.5-14.7,13.2c-1,3.9-0.8,8,0.5,11.8c0.4,1.2,1.1,2.3,1.8,3.3l-1.8,5.1l-6.6-1.6
				l-0.3,0.6c-8.1,18.1-11,59.6-11.1,60l-0.1,0.7h0.4c0.4,1.3,1.4,4.4,2,6.5l-2.9,0.1l0.1-5.6L27,34.4v-0.8H14l4.5,85.6H20l4,48.9
				h4.9l-1-48.8l22.6,0.3v48.5H56l1-48.4c0.4,0.1,0.9,0.1,1.3,0.2l2.5,46.5v0.7H66L65.2,121c2,0.3,3.5,0.5,4.4,0.7L68,162l0,0v5
				l18.4,1.1l1.8-5.6l-14.9-1.8c0.5-2.9,2.9-15.9,5.2-28.5c0.8,12.4,1.7,24.7,1.7,24.9l0.1,0.7h5L84,102.2h22v7.1h1l-1,47l0.6,0.1
				c0.6,0.1,1.3,0.2,1.9,0.2c0.5,0.1,1.1-0.1,1.5-0.4c0.2-0.2,0.5-0.5,1.9-19.7v22.3l-10.3,7.9l1.4,0.2l10.5,1.6l1.5,0.2l3-9.2h0.1
				l5.9-50.4h3.4l5.6,50.4h0.1l2.8,9.1l1.1-0.1l8.9-0.5l3.2-0.2l-9.3-9.4l1-38.6l3.8,36.7h5.2l-3.8-48.3v-6.1h14.8l-1.3,55.6h5V157
				c0,0,0.9-13.7,1.8-27.6c2.4,13.3,5.1,28,5.7,31.2l-14.8,1.8l1.8,5.6l18.4-1.1V162l0,0l-1.6-40.4c0.7-0.1,2-0.4,3.6-0.6l-0.8,45.9
				h5.2l2.5-47c0.7-0.2,1.3-0.3,2-0.4l1.2,48.4h5v-48.5l22.7-0.3l-1.2,48.8h5l3.9-48.9h1.5l4.5-85.6C230.9,33.4,218,33.4,218,33.4z
				 M187.9,92.1c-0.6-0.3-2.5-1.4-4.9-2.8l12.4-3.6c1.6,9.7,3.1,18.2,3.5,20.7c-1.6,0.4-6.5,1.6-12.2,2.9l0.4-7.3h0.1l1.4-10
				L187.9,92.1z M184.9,92.1h-61.7l16.6-9.5v-0.7c14.1-0.3,25.6-0.4,27.3-0.4c0.7,0.4,3.1,1.8,6,3.6l-6.5,0.5l-3.8,5.6h14l4.3-1.2
				C182.5,90.7,183.8,91.5,184.9,92.1 M201.6,46.6l-5.4,1.4l-0.5-3.2c0.3,0,0.5-0.1,0.8-0.1c1.4-0.3,2.7-1,3.7-2L201.6,46.6z
				 M183.2,31.1c-0.9-3.6-0.8-7.4,0.5-10.9c1.2-3.1,3.2-5.1,5.7-5.7c0.5-0.1,1-0.2,1.5-0.2c4.8,0,9.7,5.1,11.4,12.3
				c0.9,3.6,0.8,7.4-0.5,10.9c-1.2,3.1-3.2,5.1-5.7,5.7C190.9,44.4,185.1,39,183.2,31.1 M191.1,50.9l17.9-4.4
				c7.3,16.7,10.2,52.6,10.6,58.2l-19.3,1.5c-0.4-2.4-1.9-11.1-3.5-20.9l7.5-2.1l1.5-24.2l-1.5-0.1L202.9,82l-26.4,7.6h-11l1.8-2.7
				l9.9-0.7h0.2c2-0.6,17.6-8.8,18.3-9.1l0.3-0.2l2.1-17.8l-1.5-0.2l-1.7,14.6C193.2,63,191.5,53.5,191.1,50.9 M169.1,71.6l16.8-4
				l0.3-0.1c0,0,3-2.1,5.5-3.9c0.4,2.1,0.7,4.3,1.1,6.7c-2.6,1-5.8,2.4-6.5,2.6l-17.2,1L169.1,71.6L169.1,71.6z M164.7,69.1
				c1.6,0,3,1.7,3,3.9c0,2.1-1.3,3.9-3,3.9s-3-1.7-3-3.9C161.7,70.8,163,69.1,164.7,69.1 M138.5,55.6v-8.4L148.7,66l11.9,4.8
				c-0.2,0.5-0.3,1.1-0.4,1.6c0,0.2,0,0.4,0,0.6c0,0.3,0,0.5,0.1,0.8c-2.6-0.5-9.6-2.2-14.2-3.3l-7.6-11.1V55.6z M138.5,61.9
				l6.7,9.8l0.3,0.1c9.9,2.5,13.7,3.3,15.2,3.5c0.6,2.2,2.9,3.5,5.1,2.9c1.4-0.4,2.5-1.5,2.9-2.8l17.9-1l0.2-0.1
				c0,0,3.4-1.4,6.3-2.5c0.3,1.5,0.5,3,0.8,4.6c-5,2.6-15.2,7.8-16.8,8.4l-1.4,0.1l0,0c-4.3-2.5-8-4.8-8-4.8l-0.2-0.1h-0.2
				c-0.1,0-12.3,0.1-27.5,0.4v-4.6l-1.2-0.6L138.5,61.9z M138.2,81.7l-16.4,9.4l-0.1-6.1l16.5-7.6V81.7z M121,83.7l-10.1-4.5l18-7.4
				l8.4,4.3L121,83.7z M57.4,102.1l0.4,7.1c-5.2-1.2-9.7-2.3-11.3-2.8c0.4-2.4,1.9-11,3.5-20.7L61.2,89c-3,1.6-5.5,2.8-6.1,3.1h-0.6
				v10H57.4z M63.3,89.6l5.2,1.5h14.1l-3.8-5.6L72.3,85c2.1-1.1,3.8-1.9,4.3-2.1c1.6,0,15.4-0.2,31.6-0.4V87l10.6,5.2H58.4
				C59.7,91.4,61.4,90.6,63.3,89.6 M109.7,86v-5.7l10.6,4.7l0.1,6.2L109.7,86z M123.1,11.5L123.1,11.5c1.7,0,3.4,0.7,4.7,1.8
				c-2.6,0-5.1-0.4-7.5-1.2C121.1,11.7,122.1,11.5,123.1,11.5 M118.5,13.2c0.2,0.1,0.5,0.2,0.7,0.3c2.6,0.9,5.3,1.4,8.1,1.4
				c0.6,0,1.3,0,1.9-0.1c0.2,0.3,0.5,0.6,0.7,0.9c-3.8,0.6-7.6,0.6-11.3,0c-0.8-0.1-1.5-0.2-2.1-0.4C117,14.6,117.7,13.8,118.5,13.2
				 M115.5,16.8c0.8,0.2,1.7,0.3,2.7,0.5c2,0.3,4.1,0.5,6.2,0.5s4.3-0.2,6.4-0.6c0.1,0.3,0.3,0.5,0.4,0.8c-4.3,1.2-8.8,1.6-13.2,1
				c-1.2-0.1-2.3-0.3-3.2-0.5C115,17.9,115.2,17.4,115.5,16.8 M116.2,36.7c-2-3.1-3-6.8-2.9-10.5c0-2.1,0.3-4.2,0.9-6.2
				c1,0.2,2.2,0.4,3.5,0.6c1.4,0.2,2.9,0.2,4.3,0.2c3.3,0,6.6-0.5,9.7-1.4c0.8,2.2,1.1,4.5,1.1,6.8c0,8.1-4.4,14.7-9.8,14.7l0,0
				c-1.2,0-2.4-0.4-3.5-1C118.2,39.2,117.1,38.1,116.2,36.7 M126.2,43.8l-5,0.1h-0.5V42c0.8,0.2,1.6,0.4,2.4,0.4l0,0
				c1,0,2-0.2,2.9-0.6L126.2,43.8z M111.7,45.7l9.5-0.3h6.7v-0.2L137,45v14.7l0,0l0,0v14.7l-8.1-4.2l-14.5,5.9l-1.2,0.5L111,45.7
				L111.7,45.7z M100,66l9.6-18.3l0.5,6.5l0.3,4.5l-8,11.8c-4.7,1.2-11.8,2.9-14.3,3.4c0-0.3,0.1-0.5,0.1-0.8c0-0.1,0-0.2,0-0.2
				c0-0.6-0.1-1.3-0.3-1.9L100,66z M83.7,69.1c1.6,0,3,1.7,3,3.9c0,2.1-1.3,3.9-3,3.9s-3-1.7-3-3.9C80.7,70.8,82,69.1,83.7,69.1
				 M83.7,78.3c1.8-0.1,3.4-1.3,4-3c1.4-0.2,5.1-0.9,15.4-3.5l0.3-0.1l7.2-10.7l1.2,16.2l-3.5,1.4V81c-17.2,0.3-31.7,0.4-31.8,0.4
				l-0.3,0.1c0,0-3,1.4-6.6,3.3l0,0l-1.3-0.1c-1.7-0.6-11.7-5.7-16.7-8.4c0.3-2,0.7-3.9,1-5.8l8.9,3.7l18.3,1.1
				C80.3,77,81.9,78.2,83.7,78.3 M61.9,69L79,71.6v2.1l-17.2-1L52.7,69c0.4-2.5,0.8-5,1.2-7.2L61.9,69z M43.5,37.5
				c-1.2-3.5-1.4-7.3-0.5-10.9c1.9-7.9,7.6-13.3,12.9-12.1c2.5,0.6,4.5,2.6,5.7,5.7c1.2,3.5,1.4,7.3,0.5,10.9
				c-1.9,7.9-7.6,13.3-12.9,12.1C46.7,42.6,44.6,40.6,43.5,37.5 M45,42.5c1.1,1,2.4,1.7,3.8,2.1c0.2,0.1,0.5,0.1,0.7,0.1L49,48
				l-5.4-1.4L45,42.5z M36.4,46.5l17.9,4.4c-0.4,2.6-2.1,12.4-3.9,23.1l-1.8-15.1l-1.5,0.2l2.1,17.8l0.3,0.2
				c0.7,0.3,16.3,8.5,18.3,9.1l10.1,0.7l1.8,2.7h-11L63.3,88l-0.1-0.1L63.1,88l-20.8-6l-1.5-23.1L39.4,59l1.5,24.2l7.6,2.2
				c-1.6,9.8-3.1,18.4-3.5,20.8l-19.3-1.5C26.2,99.1,29.1,63.2,36.4,46.5 M25.8,166.4L21.9,119l4.9,0.1l1,47.3H25.8z M54.5,166.4
				h-2.2v-47h3.3L54.5,166.4z M55.6,118l-35.3-0.4l-4.4-82.7h9.9L22.4,107l-0.2,7.2l33.3-0.9L55.6,118z M57.1,118.1v-6.3l-28.9,0.8
				c-0.6-1.8-1.5-4.7-2-6.3l19.3,1.5c0.6,0.1,6,1.5,12.4,3l0.4,7.5C57.8,118.2,57.4,118.1,57.1,118.1 M62.2,165.4l-3.3-63.3h4.4
				l1.2,63.3H62.2z M64.8,102.1h11.6c0.1,1.6,0.4,6.1,0.8,11.6c-3-0.7-7.6-1.8-12.2-3L64.8,102.1z M86.1,163.7l-0.9,2.8l-15.8-1
				v-3.6c0.8,0,1.5,0,1.9,0c0.3,0,0.7,0,1,0v0.1L86.1,163.7z M71.7,160.4c-0.5,0-1.4,0-2.3,0l1.6-40.2l-0.7-0.1c0,0-2.1-0.3-5.3-0.8
				l-0.1-7c6.5,1.6,12.8,3.1,14.8,3.6C73.6,150.2,72.1,158.4,71.7,160.4 M81.5,156.2c-0.2-3.3-1.3-17.6-2-29.9h-0.1
				c0.7-3.9,1.4-7.7,2-10.8l0.1-0.7l-0.7-0.2c0,0-0.8-0.2-2.2-0.5c-0.3-5.7-0.6-10.2-0.8-12h4.4l1.3,54.1H81.5z M111.6,116.6
				c-0.9,14.2-2.4,35.5-2.9,38.4c-0.5,0-1,0-1.4-0.1l1-45.7h3.4L111.6,116.6L111.6,116.6z M107.3,102.1h4.5v5.7h-4.5V102.1z
				 M113.8,167L113.8,167l-8.6-1.3l8.1-6.2h3L113.8,167z M116.6,158h-3.3v-55.9h9.9L116.6,158z M124,107.6l0.6-5.5h1.8l0.6,5.5H124z
				 M127.9,102.1h11.8l-1.4,55.9h-4.1L127.9,102.1z M145.6,166.5l-1,0.1l-7.7,0.4l-2.4-7.5h4.2L145.6,166.5z M148.1,155h-2.2
				l-4.8-45.9h3.4L148.1,155z M141,107.6l0.1-5.5h3.3v5.5H141z M127.7,100.6H56v-7h130.8l-1,7H127.7z M163.1,156.2H161l1.3-54.1h4.3
				c-0.1,1.8-0.5,6.5-0.8,12.3l-1.4,0.3l-0.7,0.2l0.1,0.7c0.4,2.3,0.9,5,1.4,7.8C164.3,137.1,163.3,152.7,163.1,156.2 M175.8,165.5
				l-15.8,1l-0.9-2.8l13.7-1.7c0.4,0,0.7,0.1,1.1,0.1c0.5,0,1.1,0,1.9,0V165.5z M179.4,119.4c-2.7,0.4-4.5,0.8-4.6,0.8l-0.6,0.1
				l1.6,40.2c-0.9,0-1.8,0-2.3,0c-0.3-1.9-1.6-9.1-6.8-37.3c0-0.2,0-0.4,0-0.7h-0.2c-0.4-2.1-0.8-4.3-1.2-6.6
				c1.9-0.5,7.8-1.9,14.1-3.5V119.4z M179.5,111c-4.9,1.2-9.4,2.4-12.3,3c0.3-5.8,0.7-10.3,0.8-12h11.6L179.5,111z M182.3,165.4H180
				l1.2-63.3h4.4L182.3,165.4z M192.9,166.4h-2.1l-1.2-47h3.3V166.4z M219.6,166.4h-2.1l1.2-47.3l4.7-0.1L219.6,166.4z M224.9,117.6
				l-35.3,0.4v-4.7l33.5,0.9L219.5,35h9.7L224.9,117.6z"/>
		</g>
	</g>
</g>
</svg>
