<?xml version="1.0" encoding="UTF-8" standalone="no"?>
<!-- Generator: Adobe Illustrator 27.8.1, SVG Export Plug-In . SVG Version: 6.00 Build 0)  -->

<svg
   version="1.1"
   id="Layer_1"
   x="0px"
   y="0px"
   viewBox="0 0 112 222"
   xml:space="preserve"
   sodipodi:docname="GetACoach.svg"
   width="112"
   height="222"
   inkscape:version="1.1.2 (0a00cf5339, 2022-02-04)"
   xmlns:inkscape="http://www.inkscape.org/namespaces/inkscape"
   xmlns:sodipodi="http://sodipodi.sourceforge.net/DTD/sodipodi-0.dtd"
   xmlns="http://www.w3.org/2000/svg"
   xmlns:svg="http://www.w3.org/2000/svg"><defs
   id="defs217" /><sodipodi:namedview
   id="namedview215"
   pagecolor="#ffffff"
   bordercolor="#666666"
   borderopacity="1.0"
   inkscape:pageshadow="2"
   inkscape:pageopacity="0.0"
   inkscape:pagecheckerboard="0"
   showgrid="false"
   inkscape:zoom="1.742"
   inkscape:cx="250.57405"
   inkscape:cy="112.51435"
   inkscape:window-width="1916"
   inkscape:window-height="1029"
   inkscape:window-x="1920"
   inkscape:window-y="49"
   inkscape:window-maximized="1"
   inkscape:current-layer="Layer_1" />
<style
   type="text/css"
   id="style2">
	.st0{fill:none;}
	.st1{fill:#FFFFFF;}
	.st2{fill:#27AAE1;}
	.st3{fill:none;stroke:#000000;stroke-width:0;stroke-linecap:round;stroke-linejoin:round;}
</style>
<g
   id="g212"
   transform="translate(-198.9,-127.55)">
	<path
   class="st0"
   d="m 282.9,171.6 1.5,-0.2 c 0,0 0,0 0,0 l -1.5,0.2 c 0,0.2 0.1,0.8 0.1,1.5 0,0 0,0 0,0 0,-0.6 -0.1,-1.2 -0.1,-1.5 z"
   id="path4" />
	<path
   class="st0"
   d="m 245.9,171 c 4.5,0 16.5,0.1 27.2,0.1 -10.7,0 -22.6,0 -27.2,-0.1 z"
   id="path6" />
	<rect
   x="275.89999"
   y="172.8"
   class="st0"
   width="1.5"
   height="0"
   id="rect8" />
	<path
   class="st0"
   d="m 283,173.6 c 0,0.1 0,0.2 0,0.3 0.1,-0.1 0.1,-0.2 0,-0.3 z"
   id="path10" />
	<polygon
   class="st0"
   points="289.9,181.5 290.2,181.5 "
   id="polygon12" />
	<polygon
   class="st0"
   points="263.6,237.1 263.1,237.2 263.3,237.7 263.1,237.2 "
   id="polygon14" />
	<polygon
   class="st0"
   points="261.1,235.7 262.6,236 261.1,235.7 265,184.1 265.6,175.9 265,184.1 "
   id="polygon16" />
	<polygon
   class="st0"
   points="261.6,240.4 263.4,243.6 264.7,242.7 264.7,242.7 263.4,243.6 261.6,240.4 258.5,249.8 254.7,249.2 258.5,249.8 "
   id="polygon18" />
	<path
   class="st0"
   d="m 289.4,155.5 c 0,9.4 -4.5,17.1 -10,17.1 0,0 0,0 0,0 5.5,0 10,-7.7 10,-17.1 0,-9.4 -4.5,-17.1 -10,-17.1 0,0 0,0 0,0 5.5,0 10,7.6 10,17.1 z"
   id="path20" />
	<path
   class="st0"
   d="m 269.2,174.9 c 1.9,-0.1 4.2,-0.2 6.7,-0.3 l 1.5,-0.1 c 1.9,-0.1 3.8,-0.1 5.6,-0.2 l 1.5,-0.1 v 0 c -0.1,-0.7 -0.1,-1.5 -0.2,-2.1 0.3,-0.3 0.7,-0.6 1,-0.9 3.3,0 5.8,0 6.9,0.1 v 0 c -1.1,0 -3.6,-0.1 -6.9,-0.1 v 0 c -0.3,0.3 -0.6,0.6 -1,0.9 0,0 0,0 0,0 0.1,0.6 0.1,1.5 0.2,2.1 l -1.5,0.1 c 0,0 0,0 0,0 -1.8,0.1 -3.8,0.1 -5.6,0.2 v 0 l -1.5,0.1 v 0 c -2.4,0.1 -4.8,0.2 -6.7,0.3 z"
   id="path22" />
	<polygon
   class="st0"
   points="273.2,171.2 273.2,169.7 271.9,169.6 273.2,169.7 "
   id="polygon24" />
	<polygon
   class="st0"
   points="271.5,333.8 275.9,289.7 271.5,333.8 267.5,333.8 "
   id="polygon26" />
	<polygon
   class="st0"
   points="292.1,181.3 292.1,181.3 291.9,176.6 292.1,181.3 292.1,182 290.6,182 292.1,182 "
   id="polygon28" />
	<polygon
   class="st0"
   points="217.2,336 216.4,233.4 216.4,233.4 217.2,336 221.6,336 221,336 224.5,233.4 221,336 "
   id="polygon30" />
	
		<rect
   x="240.8"
   y="174.7"
   transform="matrix(0.05863362,-0.9983,0.9983,0.05863362,55.7591,408.6282)"
   class="st0"
   width="7.4000001"
   height="0"
   id="rect32" />
	
		<rect
   x="264.10001"
   y="175.8"
   transform="matrix(0.06651901,-0.9978,0.9978,0.06651901,71.1301,427.625)"
   class="st0"
   width="0"
   height="0"
   id="rect34" />
	<polygon
   class="st0"
   points="289.9,182 289.9,182 288.4,182.1 288.3,181.7 288,176.8 288.3,181.7 287.6,181.7 286.8,172.9 287.6,181.7 288.3,181.7 288.4,182.1 "
   id="polygon36" />
	<path
   class="st0"
   d="m 264,175.1 v 0 h 0.8 c 0,0 0.1,0 0.2,0 -0.1,0 -0.2,0 -0.2,0 z"
   id="path38" />
	<polygon
   class="st0"
   points="301.9,243.7 301.8,243.7 299.2,247.7 299.3,247.7 "
   id="polygon40" />
	<path
   class="st0"
   d="m 228.6,129.2 c 0,0 0,0 0,0 1,0 2.1,0.2 3,0.7 0,0 0,0 0,0 -0.9,-0.4 -1.9,-0.7 -3,-0.7 z"
   id="path42" />
	
		<rect
   x="216.60001"
   y="337.5"
   transform="matrix(0.8768,-0.4808,0.4808,0.8768,-135.5654,145.7685)"
   class="st0"
   width="0.2"
   height="0"
   id="rect44" />
	<polygon
   class="st0"
   points="306,252.2 302.8,253.6 306,252.2 304.3,240.7 "
   id="polygon46" />
	<path
   class="st0"
   d="m 227.1,129.4 c -0.1,0.2 -0.3,0.4 -0.4,0.6 0,0 0,0 0,0 0.1,-0.2 0.3,-0.4 0.4,-0.6 0,0 0,0 0,0 z"
   id="path48" />
	<path
   class="st0"
   d="m 221.2,133.9 c 1,0.2 1.9,0.4 2.9,0.5 -0.9,-0.1 -1.9,-0.3 -2.9,-0.5 z"
   id="path50" />
	<polygon
   class="st0"
   points="305.8,240.2 304.5,240.4 "
   id="polygon52" />
	<path
   class="st0"
   d="m 229.9,133 c 1.7,-0.1 3.4,-0.3 5,-0.6 0.1,0 0.2,0 0.3,-0.1 -0.1,0 -0.2,0 -0.3,0.1 -0.4,-0.4 -0.8,-0.9 -1.2,-1.2 0,0 0,0 0,0 0.4,0.4 0.9,0.8 1.2,1.2 -1.6,0.4 -3.3,0.6 -5,0.6 z"
   id="path54" />
	<path
   class="st0"
   d="m 223.6,131.2 c 0,0 0,0 0,0 0.7,0.1 1.4,0.2 2.1,0.3 0,0 0,0 0,0 0.7,0.1 1.5,0.1 2.3,0.1 0,0 0,0 0,0 -0.8,0 -1.5,0 -2.3,-0.1 -0.7,0 -1.4,-0.1 -2.1,-0.3 v 0 c 0,0 0,0 0,0 z"
   id="path56" />
	<polygon
   class="st0"
   points="271.1,336.5 269,346.9 "
   id="polygon58" />
	<polygon
   class="st0"
   points="271.5,334.5 271.9,334.5 "
   id="polygon60" />
	
		<rect
   x="293.5"
   y="335.20001"
   transform="matrix(0.4692,-0.8831,0.8831,0.4692,-140.317,437.2099)"
   class="st0"
   width="0"
   height="0.2"
   id="rect62" />
	<polygon
   class="st0"
   points="293,333.8 293.1,330.2 293,333.8 289.7,333.8 288.1,305.6 289.7,333.8 "
   id="polygon64" />
	<polygon
   class="st0"
   points="296.9,345.1 290.4,335.4 296.9,345.1 307,342.4 "
   id="polygon66" />
	<polygon
   class="st0"
   points="295.2,195.5 295.3,195.6 295.2,195.5 293.9,196.1 "
   id="polygon68" />
	<polygon
   class="st0"
   points="281.1,236.2 284.1,236.2 281.1,236.2 281,237.1 "
   id="polygon70" />
	<polygon
   class="st0"
   points="305.3,203.8 295.3,178.7 "
   id="polygon72" />
	<polygon
   class="st0"
   points="299.9,206.2 305.6,205.3 304.3,239.2 304.3,239.2 305.6,205.3 306,205.3 305.8,203.8 305.8,203.8 306,205.3 305.6,205.3 299.9,206.2 299.2,206.3 299.9,206.2 "
   id="polygon74" />
	<polygon
   class="st0"
   points="267.1,335.4 267.3,335.1 266.1,334.1 267.3,335.1 267.1,335.4 "
   id="polygon76" />
	<polygon
   class="st0"
   points="209,201.6 212.8,190.6 212.8,190.5 212.8,190.6 "
   id="polygon78" />
	<path
   class="st0"
   d="m 230.1,166.5 c 0,0 0.1,0 0.1,0 -0.1,0 -0.1,0 -0.1,0 z"
   id="path80" />
	<path
   class="st0"
   d="m 231.6,164.8 v 0 1.2 c -0.1,0 -0.2,0.1 -0.3,0.1 0.1,0 0.2,-0.1 0.3,-0.1 z"
   id="path82" />
	<path
   class="st0"
   d="m 230.8,166.3 c 0,0 0.1,0 0,0 0.1,0 0,0 0,0 z"
   id="path84" />
	<polygon
   class="st0"
   points="226,166.2 226,169.5 "
   id="polygon86" />
	<path
   class="st0"
   d="m 228.6,166.6 c 0.1,0 0.1,0 0,0 0.1,0 0,0 0,0 0,0 0,0 0,0 z"
   id="path88" />
	<path
   class="st0"
   d="m 222,139.9 c -2,7 -2.1,16.3 5.9,25.1 0,0 0,0 0,0 v 0 c -8,-8.8 -7.9,-18.1 -5.9,-25.1 z"
   id="path90" />
	<path
   class="st0"
   d="m 227.3,166.5 c 0,0 0,0 0,0 0,0 0,0 0,0 z"
   id="path92" />
	<path
   class="st0"
   d="m 217.6,147.1 c 0,-3.6 0.7,-7.1 2,-10.4 0,0 0,0 0,0 -1.3,3.4 -2,6.9 -2,10.4 0,5.9 1.8,11.2 4.5,14.4 -2.7,-3.2 -4.5,-8.4 -4.5,-14.4 z"
   id="path94" />
	<polygon
   class="st0"
   points="203.7,238.7 203.9,238.1 "
   id="polygon96" />
	<polygon
   class="st0"
   points="207.6,238.7 210.3,243.5 209.5,244 210.3,243.5 207.6,238.7 207.3,238.2 207.6,238.7 "
   id="polygon98" />
	<polygon
   class="st0"
   points="200.7,249.5 201.1,247.8 "
   id="polygon100" />
	
		<rect
   x="211"
   y="201.5"
   transform="matrix(0.05855446,-0.9983,0.9983,0.05855446,26.1921,430.7084)"
   class="st0"
   width="61"
   height="0"
   id="rect102" />
	<polygon
   class="st0"
   points="251.8,343.3 250.9,343.8 "
   id="polygon104" />
	<polygon
   class="st0"
   points="234.7,231.9 222.2,228.9 219,171 222.2,228.9 "
   id="polygon106" />
	<polygon
   class="st0"
   points="209.7,201.9 209.8,201.9 209,201.6 206,200.5 209,201.6 "
   id="polygon108" />
	<polygon
   class="st0"
   points="201.5,198.8 200.7,198.5 200.2,200 200.2,200 200.7,198.5 201.5,198.8 206,200.5 201.5,198.8 205.5,189.2 "
   id="polygon110" />
	<path
   class="st0"
   d="m 229.2,166.6 c 0.1,0 0.1,0 0.2,0 0,0 -0.1,0 -0.2,0 z"
   id="path112" />
	<polygon
   class="st0"
   points="232,233.4 237.2,336 233.9,336 228.8,233.4 228.8,233.4 233.9,336 237.6,336 239.6,233.4 237.6,336 237.2,336 232,233.4 "
   id="polygon114" />
	
		<rect
   x="238.10001"
   y="337.39999"
   transform="matrix(0.3969,-0.9179,0.9179,0.3969,-166.1579,422.0616)"
   class="st0"
   width="0"
   height="0.1"
   id="rect116" />
	<polygon
   class="st0"
   points="235,337.5 233.8,336.2 235,337.5 244.1,347.1 "
   id="polygon118" />
	<polygon
   class="st0"
   points="205.9,343.2 213,346.6 213.9,347.1 218.9,340.1 213.9,347.1 213,346.6 220.3,337.5 213,346.6 205.9,343.2 "
   id="polygon120" />
	<polygon
   class="st0"
   points="248.9,344.8 250,344.2 242.6,339.9 250,344.2 "
   id="polygon122" />
	<path
   class="st1"
   d="m 285.5,175.8 c -7.3,0.3 -17,0.7 -19.8,0.8 l 6.5,59 h 21.6 V 181 l -0.2,1.7 -6.1,0.5 -1.2,0.1 z"
   id="path124" />
	<path
   class="st1"
   d="m 284.5,172.2 c 0.1,0.6 0.1,1.5 0.2,2.1 h 0.7 v 0 l -0.1,-1.3 1.5,-0.1 v 0 0 l 0.8,8.9 0.7,-0.1 -0.4,-4.8 1.5,-0.1 0.3,4.8 v 0 h 0.3 0.4 v 0 l -0.2,-4.7 1.5,-0.1 v 0 0 l 0.2,4.7 h 0.1 l 1,-6.4 -0.8,-3.6 c -1.1,0 -3.6,-0.1 -6.9,-0.1 -0.2,0.2 -0.5,0.5 -0.8,0.8 z"
   id="path126" />
	<polygon
   class="st1"
   points="205.6,202 201.3,200.4 203.9,237.2 206.3,237.2 "
   id="polygon128" />
	<polygon
   class="st1"
   points="232,233.4 237.2,336 237.6,336 239.6,233.4 "
   id="polygon130" />
	<path
   class="st1"
   d="m 244.8,171 -0.4,7.4 v 0 c 1.8,-0.2 10.6,-1.1 19.7,-2 v -0.6 0 0 0 l -0.1,-0.7 v 0 0 h 0.8 c 0,0 0.1,0 0.2,0 0.6,0 2.1,-0.1 4.2,-0.2 1.9,-0.1 4.2,-0.2 6.7,-0.3 v 0 0 -1.4 c -1,-0.5 -2,-1.2 -2.8,-2.1 v 0 0 c 0,0 0,0 0,0 v 0 c 0,0 0,0 0,0 -10.7,-0.1 -22.7,-0.1 -27.2,-0.1 -0.4,0 -0.8,0 -1.1,0 z"
   id="path132" />
	<path
   class="st1"
   d="m 283.1,173.9 c 0,-0.1 0,-0.2 0,-0.3 0,-0.1 0,-0.3 0,-0.4 0,0 0,0 0,0 0,0 0,0 0,0 0,0 0,0 0,0 -1.1,0.6 -2.4,0.9 -3.6,1 -0.6,0 -1.3,-0.1 -1.9,-0.3 v 0.7 c 1.9,-0.1 3.8,-0.1 5.6,-0.2 -0.1,-0.2 -0.1,-0.4 -0.1,-0.5 z"
   id="path134" />
	<polygon
   class="st1"
   points="203.7,238.7 203.7,238.7 203.7,238.7 201.1,247.8 200.7,249.5 204.6,253.3 205.3,240.6 208.9,244.4 209.5,244 210.3,243.5 207.6,238.7 "
   id="polygon136" />
	<polygon
   class="st1"
   points="206,200.5 212.5,184.2 211.9,173.7 205.5,189.2 201.5,198.8 "
   id="polygon138" />
	<path
   class="st1"
   d="m 289.4,155.5 c 0,-9.4 -4.5,-17.1 -10,-17.1 -5.5,0 -10,7.7 -10,17.1 0,9.4 4.5,17.1 10,17.1 5.5,0 10,-7.7 10,-17.1 z"
   id="path140" />
	<path
   class="st1"
   d="m 225.7,131.5 c 0,0 0,0 0,0 0,0 0,0 0,0 -0.3,0.4 -0.5,0.9 -0.8,1.4 0,0 0,0 0,0 1.7,0.1 3.4,0.2 5,0.1 1.7,-0.1 3.3,-0.3 5,-0.6 -0.4,-0.4 -0.8,-0.9 -1.2,-1.2 -1.9,0.2 -3.8,0.4 -5.7,0.4 0,0 0,0 0,0 0,0 0,0 0,0 -0.8,0 -1.6,0 -2.3,-0.1 z"
   id="path142" />
	<path
   class="st1"
   d="m 223.3,136.2 c 0,0 0,0 0,0 4.5,0.7 9.1,0.4 13.5,-1 -0.3,-0.5 -0.6,-1 -0.9,-1.4 0,0 0,0 0,0 0,0 0,0 0,0 -2.7,0.5 -5.4,0.8 -8.1,0.8 -1.3,0 -2.5,-0.1 -3.7,-0.2 -0.2,0.6 -0.5,1.1 -0.8,1.8 0,0 0,0 0,0 z"
   id="path144" />
	<polygon
   class="st1"
   points="295.3,195.6 295.3,195.6 295.3,195.7 299.6,204.7 305.3,203.8 295.3,178.7 295.3,195.6 "
   id="polygon146" />
	<path
   class="st1"
   d="m 227.9,165 c 0.3,0 0.5,0 0.8,0 6.1,0 11,-8 11,-17.9 0,-3.6 -0.7,-7.2 -2.1,-10.6 0,0 0,0 0,0 -3.1,1 -6.3,1.5 -9.5,1.5 -1.7,0 -3.5,-0.2 -5.2,-0.5 -0.3,0.7 -0.5,1.5 -0.8,2.3 -2.1,7.1 -2.2,16.4 5.8,25.2 z"
   id="path148" />
	<path
   class="st1"
   d="M 231.6,169.5 V 166 c -0.1,0 -0.2,0.1 -0.3,0.1 -0.1,0 -0.3,0.1 -0.4,0.1 0,0 -0.1,0 -0.1,0 -0.2,0.1 -0.4,0.1 -0.6,0.2 0,0 -0.1,0 -0.1,0 -0.2,0 -0.4,0.1 -0.6,0.1 -0.1,0 -0.1,0 -0.2,0 -0.2,0 -0.3,0 -0.5,0 0,0 -0.1,0 -0.1,0 v 0 c 0,0 -0.1,0 -0.1,0 -0.4,0 -0.8,0 -1.3,-0.1 0,0 0,0 0,0 -0.4,-0.1 -0.9,-0.2 -1.3,-0.3 v 3.3 h 5.6 z"
   id="path150" />
	<path
   class="st1"
   d="m 227.1,129.4 c -0.1,0.2 -0.3,0.4 -0.4,0.6 0,0 0,0 0,0 1.7,0.1 3.3,0 5,-0.1 -0.9,-0.4 -2,-0.7 -3,-0.7 -0.6,0 -1.1,0.1 -1.6,0.2 z"
   id="path152" />
	<polygon
   class="st1"
   points="301.9,243.7 301.9,243.7 303.4,245.9 302.8,253.6 306,252.2 304.3,240.7 301,240.3 297.8,246.6 299.2,247.7 301.8,243.7 "
   id="polygon154" />
	<polygon
   class="st1"
   points="224.5,233.4 221,336 221.6,336 227.2,233.4 "
   id="polygon156" />
	<polygon
   class="st1"
   points="299.9,206.2 301.2,238.8 304.3,239.2 305.6,205.3 "
   id="polygon158" />
	<polygon
   class="st1"
   points="262.6,236 263.2,236.1 267.5,206.4 265,184.1 261.1,235.7 "
   id="polygon160" />
	<polygon
   class="st1"
   points="281,237.1 272.2,237.1 267.5,333.8 271.5,333.8 275.9,289.7 281,237.1 "
   id="polygon162" />
	<polygon
   class="st1"
   points="263.3,237.7 260.7,237.2 260.7,237.2 254.7,249.2 258.5,249.8 261.6,240.4 263.4,243.6 264.7,242.7 263.3,237.7 "
   id="polygon164" />
	<polygon
   class="st1"
   points="222.2,228.9 234.7,231.9 239.7,231.9 243.2,171 224.4,171 219,171 "
   id="polygon166" />
	<polygon
   class="st1"
   points="296.9,345.1 307,342.4 293.6,335.4 290.4,335.4 "
   id="polygon168" />
	<polygon
   class="st1"
   points="288.1,305.6 289.7,333.8 293,333.8 293.1,330.2 293.8,237.1 284.2,237.1 "
   id="polygon170" />
	<polygon
   class="st1"
   points="271.3,335.4 267.1,335.4 258.6,345.4 269,346.9 271.1,336.5 "
   id="polygon172" />
	<polygon
   class="st1"
   points="218.9,340.1 220.8,337.5 220.3,337.5 213,346.6 213.9,347.1 "
   id="polygon174" />
	<polygon
   class="st1"
   points="242.6,339.9 250,344.2 250.9,343.8 251.8,343.3 239.6,338.1 "
   id="polygon176" />
	<path
   class="st2"
   d="m 221.2,133.9 c -0.3,0.5 -0.6,1 -0.9,1.5 1,0.3 2,0.6 3,0.8 0,0 0,0 0,0 0.3,-0.6 0.5,-1.2 0.8,-1.7 0,0 0,0 0,0 0,0 0,0 0,0 -0.9,-0.2 -1.9,-0.4 -2.9,-0.6 z"
   id="path178" />
	<path
   class="st2"
   d="m 225.5,130 c 0.4,0 0.8,0.1 1.1,0.1 0.2,-0.2 0.3,-0.5 0.4,-0.6 -0.5,0 -1,0.2 -1.5,0.5 z"
   id="path180" />
	<path
   class="st2"
   d="m 222.1,161.6 c 1.6,2 3.6,3.2 5.7,3.4 -8,-8.9 -7.9,-18.1 -5.9,-25.1 0.2,-0.8 0.5,-1.6 0.8,-2.3 0,0 0,0 0,0 -1,-0.2 -2.1,-0.5 -3.1,-0.8 -1.4,3.3 -2.1,6.8 -2,10.4 0,5.9 1.8,11.1 4.5,14.4 z"
   id="path182" />
	<polygon
   class="st2"
   points=""
   id="polygon184" />
	<path
   class="st2"
   d="m 225.7,131.5 c -0.7,-0.1 -1.4,-0.1 -2.1,-0.3 -0.5,0.4 -0.9,0.9 -1.3,1.3 0.9,0.2 1.8,0.3 2.6,0.4 0.3,-0.5 0.5,-0.9 0.8,-1.4 0,0 0,0 0,0 z"
   id="path186" />
	<polygon
   class="st2"
   points="216.4,233.4 217.2,336 221,336 224.5,233.4 "
   id="polygon188" />
	<polygon
   class="st2"
   points="213,346.6 220.3,337.5 216.6,337.5 205.9,343.2 "
   id="polygon190" />
	<polygon
   class="st2"
   points="222.2,228.9 219,171 213.3,171 216.4,231.9 234.7,231.9 "
   id="polygon192" />
	<polygon
   class="st2"
   points="251.6,345.2 244.2,348.7 244.9,349.4 253,346 "
   id="polygon194" />
	<polygon
   class="st2"
   points="238.2,337.5 235,337.5 244.1,347.1 248.9,344.8 250,344.2 242.6,339.9 239.6,338.1 238.2,337.5 "
   id="polygon196" />
	<polygon
   class="st2"
   points="228.8,233.4 233.9,336 237.2,336 232,233.4 "
   id="polygon198" />
	<polygon
   class="st2"
   points="208.7,203.1 205.6,202 206.3,237.2 207.3,237.2 "
   id="polygon200" />
	<polygon
   class="st2"
   points="206,200.5 209,201.6 212.8,190.6 212.5,184.2 "
   id="polygon202" />
	<path
   d="m 236.8,135.2 c 0,0 0,0 0,0 v 0 c 0.7,-0.2 1.2,-0.4 1.4,-0.5 -0.2,-0.5 -0.5,-0.9 -0.8,-1.3 -0.4,0.1 -0.9,0.2 -1.5,0.4 0,0 0,0 0,0 0.4,0.4 0.6,0.9 0.9,1.4 z"
   id="path204" />
	<path
   d="m 228.6,127.7 c -1.9,0 -3.8,0.6 -5.4,1.9 0,0 0,0 0,0 -0.3,-0.1 -0.7,-0.2 -1,-0.3 l -0.5,1.4 c 0,0 0.1,0 0.1,0 0.6,0.2 1.1,0.3 1.7,0.4 v 0 c 0.7,0.1 1.4,0.2 2.1,0.3 0.7,0.1 1.5,0.1 2.3,0.1 0,0 0,0 0,0 1.9,0 3.8,-0.1 5.7,-0.4 0,0 0,0 0,0 0.4,0.4 0.9,0.8 1.2,1.2 0.1,0 0.2,0 0.3,-0.1 -0.1,0 -0.2,0 -0.3,0.1 -1.7,0.3 -3.3,0.5 -5,0.6 -1.7,0.1 -3.4,0.1 -5,-0.1 0,0 0,0 0,0 -0.9,-0.1 -1.8,-0.2 -2.6,-0.4 0.4,-0.5 0.9,-0.9 1.3,-1.3 0,0 0,0 0,0 0,0 0,0 0,0 0,0 0,0 0,0 -0.6,-0.1 -1.2,-0.2 -1.7,-0.4 -0.4,0.4 -0.8,0.9 -1.2,1.4 0.5,0.1 1.1,0.3 1.6,0.4 v 0 c 0,0 0,0 0,0 -0.5,-0.1 -1.1,-0.2 -1.6,-0.4 -0.1,0 -0.2,0 -0.3,-0.1 l -0.2,0.7 -0.2,0.8 c 0.4,0.1 0.8,0.2 1.3,0.3 v 0 c 1,0.2 1.9,0.4 2.9,0.5 0,0 0,0 0,0 1.2,0.1 2.5,0.2 3.7,0.2 2.7,0 5.4,-0.3 8.1,-0.8 0.6,-0.1 1.2,-0.3 1.5,-0.4 0.2,-0.1 0.5,-0.1 0.7,-0.2 l -0.7,-1.3 c -0.3,0.1 -0.6,0.2 -0.9,0.3 -0.1,0 -0.2,0 -0.3,0.1 0.1,0 0.2,0 0.3,-0.1 -0.3,-0.4 -0.6,-0.8 -1,-1.1 0,0 0,0 0,0 0.5,-0.1 0.8,-0.1 0.9,-0.2 l -0.3,-1.5 c 0,0 -0.9,0.2 -2.1,0.3 0,0 0,0 0,0 -1.5,-1.3 -3.4,-1.9 -5.4,-1.9 z m 3,2.2 c -1.7,0.2 -3.3,0.2 -5,0.1 0,0 0,0 0,0 0,0 0,0 0,0 -0.4,0 -0.8,0 -1.1,-0.1 0.5,-0.2 1,-0.4 1.6,-0.6 0,0 0,0 0,0 0.5,-0.1 1,-0.2 1.5,-0.2 0,0 0,0 0,0 1.1,0.1 2.1,0.4 3,0.8 0,0 0,0 0,0 z"
   id="path206" />
	<line
   class="st3"
   x1="244"
   y1="169.5"
   x2="244.89999"
   y2="169.5"
   id="line208" />
	<path
   d="m 206.6,244.2 1.9,2 3.9,-2.2 -3.6,-6.3 1.4,-35 2.8,-8.1 0.5,-1.3 -0.5,1.3 1.9,38 v 0 0 0 l 0.8,103.6 -13.1,7 11.8,5.7 8.3,-11.5 0.2,-0.3 v 0 l -0.2,0.3 h 0.3 l 5,-90.3 4.5,90.3 h 0.4 l -0.2,-0.2 v 0 l 0.2,0.2 10.8,11.5 0.5,-0.3 7.3,-3.6 3.9,-1.9 -16.4,-7 2,-103.5 v 0 0 l 3.1,-52.7 H 244 l -0.2,-1.5 v 0 l 0.2,1.5 h 0.1 c 1.1,-0.1 10.2,-1 19.7,-2 l -4.4,58.1 0.1,-0.1 1.4,0.7 v 0 l -1.4,-0.7 -0.1,0.1 -7.2,14.3 7.2,1 2.5,-7.3 0.9,1.7 3.6,-2.5 -1.9,-6.4 v 0 l 3.5,-24.4 0.9,-6 -0.9,-0.1 0.9,0.1 -0.9,6 2.6,23.8 v -0.1 l 1.5,0.1 v 0 l -1.5,-0.1 v 0.1 l -4.8,97.9 v 0 l -10.3,12.2 14.5,2.1 2.6,-13.3 0.1,-0.6 v 0 l -0.1,0.6 h 0.1 l 9.6,-97.7 h 0.2 l 5.6,97.7 h 0.3 v 0 l 7.6,11.5 14.9,-3.9 -16.6,-8.8 0.8,-97 v 0 0 -0.8 0 h -1.5 v 0 h 1.5 V 199 l 3.1,6.5 1.3,33.8 0.1,-0.2 1.4,0.7 v 0 l -1.4,-0.7 -0.1,0.2 -3.8,7.5 3.8,2.9 2.2,-3.4 -0.7,9.7 6.7,-2.9 -1.9,-12.9 v 0 0 l 1.4,-35.7 -11.9,-30.1 -0.6,0.2 v 0.2 l -0.3,1.7 v 0 l -0.7,4.5 v 54.5 h -21.6 l -6.5,-59 c 0,0 0,0 0,0 2.8,-0.1 12.5,-0.5 19.8,-0.8 l 0.7,7.6 1.2,-0.1 6.1,-0.5 0.2,-1.7 0.7,-4.5 0.3,-1.7 v -0.2 l -1.1,-4.8 h -0.6 c 0,0 -2.5,-0.1 -6.2,-0.1 -0.5,0 -1.1,0 -1.7,0 v 0 c 0.6,0 1.1,0 1.7,0 2.5,-3.4 4.1,-8.5 4.1,-14.3 0,-10.3 -5.2,-18.6 -11.5,-18.6 -6.3,0 -11.5,8.4 -11.5,18.6 0,5.7 1.6,10.8 4.1,14.2 -11.4,-0.1 -23.8,-0.1 -27.1,-0.1 H 244 v 1.5 0 -1.5 h -10.9 v -4.2 c 4.7,-2.8 8,-9.9 8,-18.1 0,-3.8 -0.7,-7.6 -2.2,-11.1 l 0.2,-0.1 -0.6,-1.4 c 0,0 -0.1,0 -0.2,0.1 -0.3,0.1 -0.8,0.3 -1.4,0.5 -4.4,1.4 -9,1.7 -13.5,1 v 0 c -1,-0.2 -2,-0.4 -3,-0.8 -0.3,-0.1 -0.5,-0.2 -0.8,-0.3 v 0 c 0.3,0.1 0.5,0.2 0.8,0.3 0.3,-0.5 0.6,-1 0.9,-1.5 -0.4,-0.1 -0.8,-0.2 -1.3,-0.3 l 0.2,-0.8 c -2.8,4.3 -4.2,9.3 -4.1,14.3 0,8.4 3.5,15.6 8.3,18.3 V 165 h 1.5 -1.5 v 4.4 h -12.7 v 0.6 l 0.1,-0.2 v 0 l -0.1,0.2 -12.1,29 2.7,38.6 v 0 l -3.4,12.2 7,6.7 z m 99.4,8 -3.2,1.4 v 0 l 0.7,-7.7 -1.6,-2.2 v 0 l -2.6,4 v 0 l -1.4,-1.1 3.2,-6.3 v 0 l 3.3,0.4 v 0 z m -1.5,-11.8 1.3,-0.2 v 0 z m 1.5,-35.1 -0.4,0.1 -1.3,33.9 v 0 l -3.1,-0.4 -1.2,-32.6 v 0 l -0.7,0.1 v 0 l 0.7,-0.1 5.7,-0.8 0.3,-0.2 -0.2,-1.5 v 0 z m -10.8,-9.8 0.1,0.2 v 0 -16.9 0 l 9.9,25.1 v 0 0 l -5.7,0.8 v 0 l -4.3,-9 v 0 -0.2 l -1.4,0.7 v 0 z M 269,346.9 v 0 l -10.4,-1.5 8.4,-10 v 0 l 0.2,-0.3 -1.2,-1 v 0 l 1.2,1 -0.2,0.3 h 4.2 l -0.2,1.1 z m 2.5,-12.4 v 0 l 0.4,0.1 z m 16.6,-28.9 -3.9,-68.5 v 0 h 9.6 v 0 l -0.7,93.1 v 3.6 h -3.3 z m 8.8,39.5 -6.5,-9.7 v 0 h 3.2 v 0 l -0.2,-0.1 v 0 l 0.2,0.1 v 0 l 13.4,7.1 v 0 z M 281.1,236.2 h 3 v 0 h -3 l -0.1,0.9 v 0 l -5.2,52.6 -4.3,44.2 h -4 v 0 l 4.7,-96.7 v 0 h 8.8 z m -16.1,-52.1 0.6,-8.2 v 0 l -0.6,8.2 v 0 l 2.5,22.3 v 0 l -4.2,29.7 -0.6,-0.1 -1.5,-0.3 z m -1.6,59.5 -1.8,-3.2 -3.2,9.3 -3.8,-0.5 v 0 l 6,-12 v 0 l 2.6,0.5 v 0 l -0.1,-0.4 0.4,-0.1 -0.4,0.1 0.1,0.4 v 0 l 1.5,5 v 0 z m 26,-88.1 c 0,9.4 -4.5,17.1 -10,17.1 0,0 0,0 0,0 -5.5,0 -10,-7.7 -10,-17.1 0,-9.4 4.5,-17.1 10,-17.1 0,0 0,0 0,0 5.5,0 10,7.6 10,17.1 z m -13.5,17.3 v 0 h 1.5 v 0 z m -30,-1.8 c 4.5,0 16.5,0.1 27.2,0.1 0,0 0,0 0,0 v 0 0 -1.5 h -1.3 1.3 v 1.5 c 0,0 0,0 0,0 0.8,0.8 1.7,1.5 2.8,2.1 v 1.4 0 l 1.5,-0.1 v 0 -0.7 c 0.6,0.2 1.3,0.3 1.9,0.3 1.3,0 2.5,-0.3 3.6,-1 0,0 0,0 0,0 0,-0.6 -0.1,-1.2 -0.1,-1.5 l 1.5,-0.2 c 0,0 0,0 0,0 l -1.5,0.2 c 0,0.2 0.1,0.8 0.1,1.5 0,0 0,0 0,0 0,0.1 0,0.3 0,0.4 0,0.1 0,0.2 0,0.3 0,0.2 0,0.3 0,0.4 0,0 0,0 0,0 l 1.5,-0.1 c 0,-0.7 -0.1,-1.5 -0.2,-2.1 0,0 0,0 0,0 0.3,-0.3 0.7,-0.6 1,-0.9 v 0 c 3.3,0 5.8,0 6.9,0.1 v 0 l 0.8,3.6 -1,6.4 h -0.1 v 0 0.7 l -1.5,0.1 v 0 l 1.5,-0.1 v -0.7 l -0.2,-4.7 v 0 l -1.5,0.1 0.2,4.7 v 0 h -0.4 -0.3 v 0 0 l -0.3,-4.8 -1.5,0.1 0.4,4.8 v 0.4 l 1.5,-0.1 v 0 l -1.5,0.1 v -0.4 l -0.7,0.1 -0.8,-8.9 v 0 l -1.5,0.1 0.1,1.3 v 0 h -0.7 v 0 l -1.5,0.1 c -1.8,0.1 -3.8,0.1 -5.6,0.2 l -1.5,0.1 c -2.5,0.1 -4.8,0.2 -6.7,0.3 -2.1,0.1 -3.6,0.1 -4.2,0.2 -0.1,0 -0.2,0 -0.2,0 h -0.8 v 0 l 0.1,0.7 v 0 0 0 0 0 0.6 c -9.1,0.9 -17.9,1.8 -19.7,2 v 0 0 l 0.4,-7.4 v 0 0 0 c 0.2,0.2 0.6,0.2 1,0.2 z m -40.3,31 v 0 l 3.1,1.2 -1.4,34 h -1 -2.5 l -2.5,-36.8 z m 10.8,31.4 h 8.1 v 0 h 2.7 L 221.6,336 v 0 h -4.4 z m -2.5,113.7 -0.9,-0.4 -7.1,-3.4 v 0 l 10.7,-5.7 v 0 l 0.2,-0.1 v 0 l -0.2,0.1 v 0 h 3.7 v 0 h 0.5 l -1.9,2.6 z m 14.9,-113.7 v 0 h 3.2 v 0 h 7.6 v 0 l -2,102.5 H 234 Z m 22.1,110.4 -0.9,0.4 v 0 l -1.1,0.6 -4.8,2.3 v 0 l -9.1,-9.6 -1.2,-1.3 v 0 l 1.2,1.3 v 0 h 3.2 v 0 l -0.1,-0.1 v 0 l 0.1,0.1 v 0 l 1.4,0.6 v 0 l 12.2,5.2 v 0 z M 217.6,147.1 c 0,-3.6 0.7,-7.1 2,-10.4 0,0 0,0 0,0 1,0.3 2,0.6 3.1,0.8 0,0 0,0 0,0 1.7,0.3 3.4,0.5 5.2,0.5 3.2,0 6.5,-0.5 9.5,-1.5 0,0 0,0 0,0 1.4,3.3 2.1,6.9 2.1,10.6 0,9.9 -4.9,17.9 -11,17.9 -0.3,0 -0.5,0 -0.8,0 v 0 c 0,0 0,0 0,0 -2.1,-0.2 -4.1,-1.5 -5.7,-3.4 -2.6,-3.3 -4.4,-8.5 -4.4,-14.5 z m 8.4,19.1 c 0,0 0,0 0,0 0.4,0.1 0.9,0.3 1.3,0.3 0,0 0,0 0,0 0.4,0.1 0.8,0.1 1.3,0.1 0.1,0 0.1,0 0.2,0 0.2,0 0.3,0 0.5,0 0.1,0 0.1,0 0.2,0 0.2,0 0.4,-0.1 0.6,-0.1 0,0 0.1,0 0.1,0 0.2,0 0.4,-0.1 0.6,-0.2 0,0 0.1,0 0.1,0 0.1,0 0.3,-0.1 0.4,-0.1 0.1,0 0.2,-0.1 0.3,-0.1 v -1.2 0 1.2 3.5 H 226 v 0 z m -7,4.8 v 0 h 5.5 v 0 h 18.8 v 0 l -3.6,60.9 v 0 h -4.9 v 0 H 216.5 L 213.4,171 Z m -18.3,27.5 0.7,0.3 4,-9.6 6.5,-15.5 0.5,10.5 v 0 l 0.3,6.4 v 0 0 0 0 l -3.8,11 0.7,0.3 v 0 l -0.7,-0.3 -3,-1.1 -4.5,-1.7 -0.7,-0.3 -0.5,1.4 v 0 z m 0.4,49.3 2.6,-9.1 v 0 l 0.2,-0.6 v 0 l -0.2,0.6 v 0 h 3.8 v 0 l -0.3,-0.5 v 0 l 0.3,0.5 2.8,4.8 -0.8,0.5 -0.6,0.4 -3.6,-3.8 -0.7,12.7 -4,-3.8 v 0 z"
   id="path210" />
</g>
</svg>
