<?xml version="1.0" encoding="UTF-8" standalone="no"?>
<!-- Generator: Adobe Illustrator 27.8.1, SVG Export Plug-In . SVG Version: 6.00 Build 0)  -->

<svg
   version="1.1"
   id="Layer_1"
   x="0px"
   y="0px"
   viewBox="0 0 173 156"
   xml:space="preserve"
   sodipodi:docname="GroupDiscussions.svg"
   width="173"
   height="156"
   inkscape:version="1.1.2 (0a00cf5339, 2022-02-04)"
   xmlns:inkscape="http://www.inkscape.org/namespaces/inkscape"
   xmlns:sodipodi="http://sodipodi.sourceforge.net/DTD/sodipodi-0.dtd"
   xmlns="http://www.w3.org/2000/svg"
   xmlns:svg="http://www.w3.org/2000/svg"><defs
   id="defs2172" /><sodipodi:namedview
   id="namedview2170"
   pagecolor="#ffffff"
   bordercolor="#666666"
   borderopacity="1.0"
   inkscape:pageshadow="2"
   inkscape:pageopacity="0.0"
   inkscape:pagecheckerboard="0"
   showgrid="false"
   inkscape:zoom="1"
   inkscape:cx="250.5"
   inkscape:cy="250"
   inkscape:window-width="1916"
   inkscape:window-height="1029"
   inkscape:window-x="1920"
   inkscape:window-y="49"
   inkscape:window-maximized="1"
   inkscape:current-layer="Layer_1" />
<style
   type="text/css"
   id="style1753">
	.st0{fill:none;}
	.st1{fill:#FFFFFF;}
	.st2{fill:#27AAE1;}
</style>
<g
   id="g2167"
   transform="translate(-160.05,-185)">
	<polygon
   class="st0"
   points="260.6,323.6 257.3,323.3 249.6,329 257.3,323.4 260.6,323.7 "
   id="polygon1755" />
	<path
   class="st0"
   d="m 301.1,322.4 h 2.9 v 0 h -2.9 c -0.8,0.2 -6.7,2.6 -11.1,4.4 v 0 c 4.5,-1.8 10.4,-4.1 11.1,-4.4 z"
   id="path1757" />
	<polygon
   class="st0"
   points="294.9,266.2 295.3,270.2 294.9,266.2 294.2,265.1 294,264.9 294.1,265.1 "
   id="polygon1759" />
	<polygon
   class="st0"
   points="322,336.6 317.1,327.8 "
   id="polygon1761" />
	<path
   class="st0"
   d="m 236.9,197 c 0,0.2 0,0.4 0.1,0.6 0,-0.2 -0.1,-0.4 -0.1,-0.6 z"
   id="path1763" />
	<path
   class="st0"
   d="m 236.6,195 c -1,-4.9 -3.7,-8.5 -7,-8.6 v 0 c 3.4,0.1 6.1,3.7 7,8.6 z"
   id="path1765" />
	<path
   class="st0"
   d="m 236.8,196.2 c 0,0 0,0 0,0 0,0 0,0 0,0 z"
   id="path1767" />
	<polygon
   class="st0"
   points="330.2,333.3 326.4,334.8 "
   id="polygon1769" />
	<path
   class="st0"
   d="m 296.5,237.6 c 0.3,-0.5 0.6,-0.9 1,-1.3 v 0 c -0.4,0.4 -0.7,0.9 -1,1.3 z"
   id="path1771" />
	<path
   class="st0"
   d="m 296.5,235.6 c 0,0 0,0 0,0 0,0 0,0 0,0 -0.6,0.7 -1.1,1.5 -1.5,2.4 0.4,-0.9 0.9,-1.6 1.5,-2.4 z"
   id="path1773" />
	<path
   class="st0"
   d="m 296.5,232 c 0,0.8 0,1.6 0,2.5 0,-0.9 0,-1.7 0,-2.5 z"
   id="path1775" />
	<path
   class="st0"
   d="m 237,200.3 c 0,-0.9 0,-1.8 0,-2.7 0,0.9 0,1.8 0,2.7 v 0 c -0.4,7.4 -4.3,13.3 -8.8,13.1 -4.4,-0.2 -7.7,-6.5 -7.3,-13.9 0,-1.3 0.2,-2.5 0.5,-3.7 -0.3,1.2 -0.5,2.5 -0.5,3.8 v 0 c -0.4,7.5 2.9,13.7 7.3,13.9 4.5,0.1 8.4,-5.8 8.8,-13.2 z"
   id="path1777" />
	<path
   class="st0"
   d="m 293.6,242.4 0.4,0.2 -0.4,-0.2 c 0,0 0,0 0,0 l -4.7,-2.4 c 0.6,-6.7 2.7,-13.2 6.3,-19 0,0 0,0 0,0 0.3,-0.5 0.6,-0.8 0.6,-0.8 l -0.9,-0.8 v 0 l 0.9,0.8 c 0,0 -0.2,0.3 -0.6,0.8 -3.6,5.7 -5.7,12.2 -6.3,19 z"
   id="path1779" />
	<path
   class="st0"
   d="m 294.7,263.2 c 1.1,-8.5 1.7,-17 1.8,-25.6 -3.8,6.4 -2.3,21.6 -1.8,25.6 z"
   id="path1781" />
	<polygon
   class="st0"
   points="296.2,279.3 295.5,271.9 "
   id="polygon1783" />
	<polygon
   class="st0"
   points="294.3,242.8 293.8,243.9 293.7,243.9 293.8,243.9 "
   id="polygon1785" />
	<polygon
   class="st0"
   points="288.4,239.8 287.9,240.9 288.7,241.3 287.9,240.9 "
   id="polygon1787" />
	<polygon
   class="st0"
   points="288.4,239.8 288.5,239.8 "
   id="polygon1789" />
	<polygon
   class="st0"
   points="183.5,323.9 187.2,324.4 "
   id="polygon1791" />
	<path
   class="st0"
   d="m 185.2,214.4 c 0,0 0.1,0 0.1,0 v 0 h 0.1 v 0 0 c -0.1,0 -0.1,0 -0.2,0 v 0 c -0.1,-0.1 -0.1,-0.1 0,0 z"
   id="path1793" />
	<path
   class="st0"
   d="m 264.1,262.8 -8.3,-0.3 c 0,0 0,-0.1 0,-0.1 0,0 0,0 0,0.1 0,0 0,0 0,0 z"
   id="path1795" />
	<path
   class="st0"
   d="m 216.9,217.8 c 0,0 0,0 0,0 0,0.4 0,0.9 0.1,1.5 0,0.3 0,0.7 0.1,1 v 0 c 0,-0.4 0,-0.7 -0.1,-1 v 0 c -0.1,-0.6 -0.1,-1.1 -0.1,-1.5 z"
   id="path1797" />
	<polygon
   class="st0"
   points=""
   id="polygon1799" />
	<polygon
   class="st0"
   points="178.8,335.3 183.2,337.2 "
   id="polygon1801" />
	<rect
   x="225.89999"
   y="216.8"
   class="st0"
   width="3.4000001"
   height="0"
   id="rect1803" />
	<polygon
   class="st0"
   points="219.2,258 219.2,258.1 225.8,258.5 "
   id="polygon1805" />
	<path
   class="st0"
   d="m 185.1,326.3 -2.2,-0.5 v 0 c 0,0 0,0 0,0 z"
   id="path1807" />
	<path
   class="st0"
   d="m 179.4,186.4 v 0 c -0.5,0.1 -0.9,0.3 -1.3,0.5 -0.5,-0.1 -1.1,-0.2 -1.6,-0.5 0.5,0.2 1,0.4 1.6,0.5 0.4,-0.3 0.8,-0.4 1.3,-0.5 z"
   id="path1809" />
	<path
   class="st0"
   d="m 179.2,186.9 c -0.4,0 -0.7,0 -1.1,-0.1 0.4,0.1 0.7,0.1 1.1,0.1 0.8,0 1.6,-0.2 2.3,-0.6 0,0 0,0 0,0 -0.8,0.3 -1.5,0.5 -2.3,0.6 z"
   id="path1811" />
	<polygon
   class="st0"
   points="234.4,323.9 237.4,335.1 243.1,332.7 237.4,335.1 234.5,323.9 "
   id="polygon1813" />
	<polygon
   class="st0"
   points="196.5,263.3 196.5,263.9 196.5,323.4 196.5,263.3 197.8,263.3 "
   id="polygon1815" />
	<path
   class="st0"
   d="m 228.5,214.6 c -0.1,0 -0.2,0 -0.3,0 -0.1,0 -0.2,0 -0.2,0 0.1,0 0.2,0 0.2,0 v 0 c 0.1,0 0.2,0 0.3,0 0.4,0 0.8,0 1.2,-0.1 l -0.1,0.4 0.1,-0.4 v 0 c -0.4,0 -0.8,0.1 -1.2,0.1 z"
   id="path1817" />
	<polygon
   class="st0"
   points="225.9,212.9 225.9,214 "
   id="polygon1819" />
	<polygon
   class="st0"
   points="239.2,322.9 237.6,323.3 "
   id="polygon1821" />
	<path
   class="st0"
   d="m 296,262.7 17.2,-0.7 c 0,0 0,0 0,0 l -17.2,0.7 v 0 c 0.6,-4.8 3.6,-31 0.1,-42.8 v 0 c 3.5,11.8 0.5,38 -0.1,42.8 z"
   id="path1823" />
	<polygon
   class="st0"
   points="219.5,332.3 217.8,331.7 219.5,332.3 223,321.9 "
   id="polygon1825" />
	<polygon
   class="st0"
   points="191.7,264.2 192,272.9 191.7,264.2 189.1,264.4 190.5,279.2 189.1,264.4 "
   id="polygon1827" />
	<polygon
   class="st0"
   points="210.8,329.2 218.8,321.9 222,321.9 218.8,321.9 "
   id="polygon1829" />
	<path
   class="st0"
   d="m 268.7,213.6 -0.2,1.1 c -0.6,0.2 -1.3,0.3 -1.9,0.3 h -0.1 c -0.7,0 -1.5,-0.1 -2.2,-0.4 v 3.9 0 -3.9 c 0.7,0.3 1.4,0.4 2.2,0.4 v 0 h 0.1 c 0.7,0 1.3,-0.1 1.9,-0.3 v 0 z"
   id="path1831" />
	<polygon
   class="st0"
   points="254.6,232.6 255.8,232.9 "
   id="polygon1833" />
	<path
   class="st0"
   d="m 271.8,190.6 c 1.7,2.9 2.6,6.2 2.6,9.6 0.1,3.4 -0.6,6.7 -2.3,9.7 -0.6,1.4 -1.7,2.5 -3,3.2 1.3,-0.7 2.4,-1.8 3,-3.2 1.6,-3 2.4,-6.3 2.3,-9.7 0,-3.4 -0.9,-6.7 -2.6,-9.6 -1,-1.9 -2.8,-3.2 -4.9,-3.6 2.1,0.4 3.9,1.7 4.9,3.6 z"
   id="path1835" />
	<path
   class="st0"
   d="m 274.9,234 c 0,-0.8 0.1,-1.6 0.1,-2.4 v 0 c 0,0.8 0,1.6 -0.1,2.4 l -6.3,-0.3 -0.9,0.9 -0.9,-0.8 v 0 l 0.9,0.9 0.9,-0.9 6.3,0.2 1.2,0.1 v 0 c 0,0 0,0 0,0 z"
   id="path1837" />
	<polygon
   class="st0"
   points="273.9,231.3 271.7,230.6 "
   id="polygon1839" />
	<path
   class="st0"
   d="m 255,222 1.2,-2.6 -0.1,-0.1 0.1,0.1 -1.2,2.6 v 0 c -1.1,2.5 -2.9,6.3 -4.5,9.7 v 0 c 1.6,-3.4 3.3,-7.2 4.5,-9.7 0,0 0,0 0,0 z"
   id="path1841" />
	<polygon
   class="st0"
   points="278,234.2 276.9,234.1 "
   id="polygon1843" />
	<rect
   x="251.3"
   y="237.5"
   transform="matrix(0.988,-0.1545,0.1545,0.988,-33.656,42.1189)"
   class="st0"
   width="5.5"
   height="0"
   id="rect1845" />
	<polygon
   class="st0"
   points=""
   id="polygon1847" />
	<path
   class="st0"
   d="m 282,242.6 c -0.9,-6.5 -2.7,-12.8 -5.4,-18.8 -0.5,-1.1 -0.9,-2 -1.1,-2.5 l -0.1,-0.3 -0.2,-0.3 v 0 0 c 0,0 0.1,0.1 0.2,0.3 0,0 0,0 0,0 l 0.1,0.2 c 0,1.4 -0.1,4.8 -0.3,9 l -3.7,-1.2 -4.3,4.4 v 0 0 0 l 4.3,-4.4 3.7,1.2 0.7,0.2 -0.7,-0.2 c 0.1,-4.2 0.3,-7.6 0.3,-9 0.3,0.5 0.7,1.4 1.1,2.5 0,0 0,0 0,0 2.6,6.1 4.5,12.5 5.4,18.9 z"
   id="path1849" />
	<polygon
   class="st0"
   points="278,235.1 278,235.4 256.7,234.3 249,232.7 256.7,234.3 278,235.4 "
   id="polygon1851" />
	<polygon
   class="st0"
   points="306.2,218.7 306.3,218.6 "
   id="polygon1853" />
	<polygon
   class="st0"
   points="255.1,242.6 254.2,242.5 "
   id="polygon1855" />
	<polygon
   class="st0"
   points="271.3,321.6 274,321.6 271.3,321.6 266.2,262.9 266.2,262.5 266.2,262.9 "
   id="polygon1857" />
	<polygon
   class="st0"
   points="264.1,262.5 265,262.6 "
   id="polygon1859" />
	<path
   class="st0"
   d="m 180.4,327.1 2.3,-1.3 v 0 c 0.1,0 0.2,0 0.2,0 0,0 -0.1,0 -0.2,0 v 0 l -2.3,1.3 -8.9,5.1 v 0 l 8.9,-5.1 c 0,0 0,0 0,0 z"
   id="path1861" />
	<polygon
   class="st0"
   points="256.8,238.3 268.6,240.9 "
   id="polygon1863" />
	<path
   class="st0"
   d="m 275.9,242.3 h -1.1 v 0 h -0.1 c -0.3,8.7 -0.6,17.3 -0.6,19.6 l -19.2,-0.6 c 0,-0.9 0.1,-2.7 0.2,-5.1 -0.1,2.4 -0.2,4.3 -0.2,5.1 l 19.2,0.6 c 0.1,-2.3 0.4,-10.9 0.6,-19.6 h 0.1 1.1 c 0,0 0,0 0,0 z"
   id="path1865" />
	<path
   class="st0"
   d="m 255.5,242.6 v 0 1.2 c 0,0.5 0,1 0,1.5 0,-0.5 0,-1 0.1,-1.5 -0.2,-0.5 -0.1,-0.8 -0.1,-1.2 z"
   id="path1867" />
	<path
   class="st0"
   d="m 258.4,243.9 c -1,0 -2,-0.1 -2.9,-0.2 0.9,0.2 1.9,0.2 2.9,0.2 z"
   id="path1869" />
	<polygon
   class="st0"
   points="286.7,329.2 275.1,323.3 286.7,329.2 280,334.3 "
   id="polygon1871" />
	<path
   class="st0"
   d="m 326.1,254 c -4.7,2.6 -6.3,3.5 -6.8,3.8 0,0 0,0 0,0 0.5,-0.3 2,-1.1 6.8,-3.8 l -3.1,-3.3 v 0 z"
   id="path1873" />
	<path
   class="st0"
   d="m 315.1,253.1 c 0,1.1 -0.1,2.2 -0.1,3.2 l -0.1,-0.1 -0.4,1.1 v 0 l 0.4,-1.1 0.1,0.1 c 0,-1 0.1,-2.1 0.1,-3.2 z"
   id="path1875" />
	<polygon
   class="st0"
   points="315.1,250.6 322.9,239.3 323.2,239.6 324.1,238.7 324.1,238.7 323.2,239.6 322.9,239.2 319.6,236 322.8,239.2 315.1,250.6 314.1,252.1 "
   id="polygon1877" />
	<path
   class="st0"
   d="m 319.1,258 v 0 c 0,0 0,0 0,0 z"
   id="path1879" />
	<path
   class="st0"
   d="m 306.1,214.5 -1.2,0.1 v 0.9 c -0.5,0.2 -1,0.3 -1.6,0.3 -0.1,0 -0.3,0 -0.4,0 -0.6,0 -1.2,-0.1 -1.8,-0.3 v 0 c 0.6,0.2 1.2,0.3 1.8,0.3 v 0 c 0.1,0 0.3,0 0.4,0 0.5,0 1.1,-0.2 1.6,-0.3 l 0.1,2.1 v 0 l -0.1,-2.1 v -0.9 z"
   id="path1881" />
	<path
   class="st0"
   d="m 308.4,210.6 c 1.4,-2.7 2,-5.8 1.7,-8.8 0.3,3.1 -0.3,6.1 -1.7,8.8 v 0 c -0.9,2.1 -2.9,3.5 -5.1,3.9 -4,0.3 -7.6,-4.3 -8.5,-10.5 0.8,6.2 4.5,10.8 8.5,10.6 2.3,-0.4 4.2,-1.9 5.1,-4 z"
   id="path1883" />
	<path
   class="st0"
   d="m 294.9,198.1 c -0.3,1.5 -0.4,3.1 -0.2,4.6 v 0 c 0,0 0,0 0,0 -0.2,-1.5 -0.1,-3.1 0.2,-4.6 z"
   id="path1885" />
	<polygon
   class="st0"
   points="314.5,252.4 314.4,252 314.5,252.4 314.8,253.2 "
   id="polygon1887" />
	<path
   class="st0"
   d="m 312.5,218.9 c 5.2,4.5 9.9,9.6 13.8,15.3 v 0 c -3.9,-5.7 -8.6,-10.8 -13.8,-15.3 0,0 0,0 0,0 z"
   id="path1889" />
	<polygon
   class="st0"
   points="304.8,266 306,266 "
   id="polygon1891" />
	<polygon
   class="st0"
   points="298.1,286.8 301.2,320.7 "
   id="polygon1893" />
	<polygon
   class="st0"
   points="296.4,269 295.9,263.9 304.3,263.5 304.8,266.1 304.8,266 304.3,263.5 304.3,263.4 304.3,263.5 295.9,263.9 "
   id="polygon1895" />
	<path
   class="st0"
   d="m 288.7,241.3 c -0.1,1 -0.1,2 -0.1,3 0,-1 0.1,-2 0.1,-3 z"
   id="path1897" />
	<polygon
   class="st0"
   points="294.7,263.3 295.9,263.2 "
   id="polygon1899" />
	<polygon
   class="st0"
   points="306,266 306,267.5 "
   id="polygon1901" />
	<path
   class="st0"
   d="m 313,262.6 1.2,-0.2 v 0 l -1.2,0.2 c 0,0 0,0.2 0.1,0.5 l -7.5,0.3 v 0 l 7.5,-0.3 c 0.6,4.4 4.4,34.2 5.6,63.4 v 0 c -1.1,-29.1 -5,-59 -5.6,-63.4 z"
   id="path1903" />
	<path
   class="st0"
   d="m 313.7,240.4 1,-1.6 2.9,-4.8 0.1,-0.1 v 0 l -0.1,0.1 -3.6,-3.6 -1.1,-1.1 v 0 l 1.1,1.1 c 0.3,2.6 0.5,5.5 0.8,8.4 z"
   id="path1905" />
	<polygon
   class="st0"
   points="216.3,226.5 217.5,226.5 217.5,226.6 218.2,240.7 218.2,240.7 217.5,226.6 218.3,224.9 227.2,225.2 226.9,222.7 227.1,225.2 218.3,224.9 217.5,226.6 217.5,226.5 216.3,226.5 "
   id="polygon1907" />
	<path
   class="st0"
   d="m 175.7,187.3 v 0 c 0.1,0 0.1,0 0.2,0.1 -0.1,0 -0.1,0 -0.2,-0.1 z"
   id="path1909" />
	<polygon
   class="st0"
   points="214.9,221.7 216.1,221.9 "
   id="polygon1911" />
	<path
   class="st0"
   d="m 209.3,232.9 v 0 l 6.8,-11 v 0 0 0 c 0.1,-0.5 0.1,-1 0.2,-1.4 v 0 c 0.3,-2.1 0.5,-3.4 0.5,-3.4 v 0 c 0,0 -0.2,1.4 -0.5,3.4 -0.1,0.5 -0.1,0.9 -0.2,1.5 v 0 z"
   id="path1913" />
	<polygon
   class="st0"
   points="225.6,221 225.8,223.9 225.6,221 219.8,220.7 "
   id="polygon1915" />
	<polygon
   class="st0"
   points="196.5,218.9 196.6,221.2 "
   id="polygon1917" />
	<path
   class="st0"
   d="m 188,189.6 v 0 c -0.1,0 -0.1,0.1 -0.2,0.1 0.1,-0.1 0.1,-0.1 0.2,-0.1 z"
   id="path1919" />
	<path
   class="st0"
   d="m 181.9,213.4 -1.2,0.2 c 0,0 0,0 0,0 l 1.2,-0.2 c 0,0 0,0 0,0 z"
   id="path1921" />
	<polygon
   class="st0"
   points="200.7,230.1 196.7,226.2 "
   id="polygon1923" />
	<polygon
   class="st0"
   points="208.1,233 198.9,221.8 208.1,233 208.6,237.9 208.1,233 208.1,232.8 208.2,232.8 208.1,232.8 "
   id="polygon1925" />
	<polygon
   class="st0"
   points="217.6,223.6 214.6,229.6 210,239.1 210.2,241.2 210,239.1 214.6,229.6 217.6,223.6 "
   id="polygon1927" />
	<path
   class="st0"
   d="m 177.7,248.6 0.9,-0.8 -1.3,-1.7 -1.7,-13.3 c 0.2,-0.2 0.4,-0.3 0.6,-0.5 l -0.7,-1 v 0 l 0.7,1 c -0.2,0.2 -0.4,0.3 -0.6,0.5 -1.7,1.6 -3.3,3.4 -4.7,5.4 v 0 l 6.4,8 1.4,1.7 z"
   id="path1929" />
	<polygon
   class="st0"
   points="209.3,233.3 209.8,237.5 210,239.1 209.8,237.5 214.5,229.9 209.8,237.5 "
   id="polygon1931" />
	<polygon
   class="st0"
   points="184.1,315.9 181.9,282 184.1,315.9 184.3,319.7 "
   id="polygon1933" />
	<polygon
   class="st0"
   points="177.4,260 176.7,260.2 177.4,260 177.4,259.3 "
   id="polygon1935" />
	<polygon
   class="st0"
   points="171.2,257.6 177.4,258 177.4,258 178.8,258.1 179,259.6 179,259.6 179.4,260.6 179,259.6 178.8,258.1 178.9,256.9 178.8,258.1 177.4,258 171.1,257.6 172.4,261.7 "
   id="polygon1937" />
	<polygon
   class="st0"
   points=""
   id="polygon1939" />
	<polygon
   class="st0"
   points="217,240.7 217,240.9 216.4,228.8 217,240.9 216.9,258.3 215.2,258.9 216.9,258.3 217,240.9 217,240.7 "
   id="polygon1941" />
	<polygon
   class="st0"
   points="214.6,232.4 213.4,232.2 "
   id="polygon1943" />
	<path
   class="st0"
   d="m 182.7,213.4 c 0,0 0,0 0,0 -0.1,-0.1 -0.3,-0.2 -0.4,-0.3 0.1,0.1 0.3,0.2 0.4,0.3 z"
   id="path1945" />
	<polygon
   class="st0"
   points="196.5,262.7 184.3,263.5 184.2,263.5 180.8,263.7 184.3,263.5 196.5,262.7 195.3,217.9 "
   id="polygon1947" />
	<polygon
   class="st0"
   points="175.3,221.6 175.1,220.4 "
   id="polygon1949" />
	<path
   class="st0"
   d="m 177,210.4 c -2.3,-2.6 -3.7,-5.8 -4.2,-9.3 -0.5,-3 -0.2,-6.1 0.8,-9 v 0 c -1,2.9 -1.3,6 -0.8,9 0.5,3.5 1.9,6.7 4.2,9.3 1,1.2 2.3,2.1 3.8,2.6 -1.5,-0.5 -2.8,-1.4 -3.8,-2.6 z"
   id="path1951" />
	<path
   class="st0"
   d="m 165.2,244.9 c 0.1,-0.3 0.3,-0.6 0.5,-1 -0.2,0.4 -0.4,0.7 -0.5,1 l -1.4,-1 c 0,0 0,0 0,0 l -2.2,-1.6 c 1.6,-6.9 9.7,-17.5 12.4,-20.9 l 1,7.4 c 0,0 0,0 0,0 l 0.3,2.6 c -1.6,1.2 -3.2,3.1 -4.7,5.1 1.5,-2 3.1,-3.9 4.7,-5.1 v 0 l -0.3,-2.6 -1,-7.4 c 0.5,-0.7 0.9,-1.1 0.9,-1.1 l -0.9,-0.8 v 0 l 0.9,0.8 c 0,0 -0.3,0.4 -0.9,1.1 -2.7,3.4 -10.9,14.1 -12.4,20.9 l 2.2,1.6 1.4,1 c 0,0 0,0 0,0 z"
   id="path1953" />
	<path
   class="st0"
   d="m 176.4,202.2 v 0 c 0,0 0,0 0,0 -0.5,-3 -0.3,-6.2 0.7,-9.1 0,0 0,0 0,0 -1,2.9 -1.2,6 -0.7,9.1 z"
   id="path1955" />
	<polygon
   class="st0"
   points="177.6,248.5 177.6,248.4 171.7,241.2 177.5,248.4 178.1,252.5 "
   id="polygon1957" />
	<polygon
   class="st0"
   points="178.7,256 179.4,255 178.3,254.2 167.7,246.7 178.3,254.2 179.4,255 "
   id="polygon1959" />
	<path
   class="st0"
   d="m 166.2,245.6 c 0.6,-1 2.1,-3.6 3.9,-6.3 v 0 l -0.2,-0.3 0.9,-0.8 v 0 l -0.9,0.8 0.2,0.3 c -1.8,2.6 -3.3,5.2 -3.9,6.3 -0.2,0.3 -0.3,0.5 -0.3,0.5 l -1.1,-0.6 c 0,0 0,0 0,0 l 1.1,0.6 c 0,0 0.1,-0.2 0.3,-0.5 l 1.5,1.1 v 0 z"
   id="path1961" />
	<path
   class="st0"
   d="m 183.4,186.5 -0.8,-0.9 c 0,0 0,0 0,0 l 0.8,0.9 c -0.1,0.1 -0.2,0.1 -0.2,0.2 0,0 0,0 0,0 0,-0.1 0.1,-0.2 0.2,-0.2 z"
   id="path1963" />
	<path
   class="st0"
   d="m 175.5,188.8 c 0,0 0,0 0,0 -0.3,-0.1 -0.5,-0.2 -0.8,-0.4 v 0 c 0.3,0.2 0.6,0.3 0.8,0.4 z"
   id="path1965" />
	<path
   class="st0"
   d="m 186,187.9 -0.5,-0.5 0.5,0.5 c -0.1,0.1 -0.3,0.2 -0.4,0.3 0,0 0,0 0,0 z"
   id="path1967" />
	<path
   class="st0"
   d="m 189.5,208.5 c 1.4,-3.2 1.9,-6.7 1.3,-10.1 -0.4,-2.7 -1.3,-5.3 -2.8,-7.6 0.2,-0.1 0.3,-0.1 0.5,-0.2 l -0.4,-0.8 0.4,0.8 c -0.2,0.1 -0.3,0.1 -0.5,0.2 0,0 0,0 0,0 1.5,2.3 2.4,4.9 2.8,7.6 0.6,3.5 0.1,7 -1.3,10.1 z"
   id="path1969" />
	<path
   class="st0"
   d="m 177.4,191.9 c 0,0 0,0 0,0 0,0 0,0 0,0 v 0 c 3.4,0.2 6.8,-0.5 9.9,-2 0,0 0,0 0,0 -3.1,1.5 -6.5,2.1 -9.9,2 z"
   id="path1971" />
	<path
   class="st0"
   d="m 178.1,189.5 v 0 c 2.3,0.2 4.7,-0.5 6.4,-2.1 0,0 0,0 0,0 -1.7,1.6 -4,2.3 -6.4,2.1 z"
   id="path1973" />
	<path
   class="st0"
   d="m 177.7,190.7 c 0,0 0,0 0,0 -1,-0.1 -2,-0.4 -3,-0.8 0,0 0,0 0,0 1,0.4 2,0.6 3,0.8 0,0 0,0 0,0 z"
   id="path1975" />
	<polygon
   class="st0"
   points="239.1,222.4 238.5,220 "
   id="polygon1977" />
	<path
   class="st0"
   d="m 173.2,191.2 0.4,-0.5 c 0.2,0.1 0.4,0.2 0.6,0.3 0,0 0,0 0,0 0.1,-0.2 0.3,-0.5 0.4,-0.7 -0.1,0.2 -0.3,0.5 -0.4,0.7 -0.2,-0.1 -0.4,-0.2 -0.6,-0.3 l -0.4,0.5 -0.4,0.5 c 0,0 0,0 0,0 z"
   id="path1979" />
	<polygon
   class="st0"
   points="180.8,265 184.7,264.7 187.9,264.5 186,323.1 187.9,264.5 187.9,264.4 189.1,264.3 187.9,264.3 187.9,264.5 184.7,264.7 180.8,264.9 180.8,264.3 180.8,264.9 "
   id="polygon1981" />
	<path
   class="st0"
   d="m 172.6,332.7 v 0 c 0.6,-0.4 1.2,-0.9 1.9,-1.4 -0.7,0.5 -1.4,1 -1.9,1.4 z"
   id="path1983" />
	<polygon
   class="st0"
   points="234.2,260.4 234.2,259.7 234.2,260.4 237.9,321.8 235.3,322.4 237.9,321.8 "
   id="polygon1985" />
	<polygon
   class="st0"
   points="244.4,244.5 243.4,260.3 240.5,259.5 243.4,260.3 "
   id="polygon1987" />
	<polygon
   class="st0"
   points="241.8,274.1 240.5,270.6 "
   id="polygon1989" />
	<polygon
   class="st0"
   points="205,332.7 205.4,332.4 "
   id="polygon1991" />
	<rect
   x="239.2"
   y="245.8"
   transform="matrix(0.9667,-0.256,0.256,0.9667,-54.9394,69.4877)"
   class="st0"
   width="0.5"
   height="0"
   id="rect1993" />
	<polygon
   class="st0"
   points="244.8,243.2 244.2,243.3 244.8,243.2 245.1,244.3 "
   id="polygon1995" />
	<polygon
   class="st0"
   points="202.7,329.8 205,332.7 "
   id="polygon1997" />
	<polygon
   class="st0"
   points="199.1,326.5 197.7,325.2 194.5,325.2 197.7,325.2 "
   id="polygon1999" />
	<polygon
   class="st1"
   points="239.5,244.6 244.2,243.3 239.3,223.4 237.6,239.3 "
   id="polygon2001" />
	<polygon
   class="st1"
   points="239.7,245.7 240.5,259.5 243.4,260.3 244.4,244.5 "
   id="polygon2003" />
	<path
   class="st1"
   d="m 254.6,232.6 c 0.1,-3.6 0.3,-7.8 0.3,-10.6 -1.1,2.5 -2.9,6.3 -4.5,9.7 l 4.2,0.9 v 0 c 0,0 0,0 0,0 z"
   id="path2005" />
	<path
   class="st1"
   d="m 275,231.7 -1.1,-0.4 -2.2,-0.7 -3,3.1 v 0 l 6.3,0.3 c 0,-0.8 0,-1.6 0,-2.3 z"
   id="path2007" />
	<path
   class="st1"
   d="m 275.1,230.4 c 0.1,-4.2 0.3,-7.6 0.3,-9 l -0.1,-0.2 c -6.3,-1 -12.7,-1.5 -19.1,-1.4 0,0 0,0 0,0 v 0 c 0,0 0,0 0,0 0,1.6 -0.1,5.8 -0.3,13.1 v 0 c 0,0 0,0 0,0 v 0 l 1,0.2 10.2,0.5 4.3,-4.4 z"
   id="path2009" />
	<polygon
   class="st1"
   points="177.5,248.4 171.7,241.2 167.7,246.7 178.3,254.2 178.1,252.5 "
   id="polygon2011" />
	<polygon
   class="st1"
   points="240.4,261 239.1,267 240.5,270.6 241.8,274.1 245,271.5 243.5,261.8 "
   id="polygon2013" />
	<polygon
   class="st1"
   points="216.8,272 217.1,272 217.9,272 217.9,259.2 215,260.2 214.4,267.4 "
   id="polygon2015" />
	<path
   class="st1"
   d="m 217,240.9 -0.7,-12.1 -1.8,3.6 v 0 c -0.8,5.4 -1.5,10.2 -1.6,10.9 l 2.2,15.5 1.7,-0.6 z"
   id="path2017" />
	<path
   class="st1"
   d="m 219.2,258 6.6,0.5 8.5,0.6 4.2,-38.8 c -6,-2.4 -18.6,-2.5 -21.6,-2.5 0,0.4 0,0.9 0.1,1.5 v 0 c 0,0 0,0 0,0 l 9.7,0.6 0.3,2.9 0.2,2.4 -8.8,-0.3 -0.9,1.7 0.8,14.1 v 0 0 0.1 0 0 0 z"
   id="path2019" />
	<polygon
   class="st1"
   points="222.8,320.1 226.5,264.4 225.9,259.8 220.7,259.4 219.2,259.3 219.2,320.1 "
   id="polygon2021" />
	<polygon
   class="st1"
   points="275.1,323.3 272,323.3 280,334.3 286.7,329.2 "
   id="polygon2023" />
	<polygon
   class="st1"
   points="217.6,223.6 217.6,223.6 217.6,223.6 225.8,223.9 225.6,221 219.8,220.7 216.9,220.5 216.1,221.8 216.1,221.9 209.3,232.9 209.3,233.3 209.8,237.5 214.5,229.9 214.6,229.6 "
   id="polygon2025" />
	<polygon
   class="st1"
   points="249.6,329 257.6,333.5 260.6,323.7 257.3,323.4 "
   id="polygon2027" />
	<polygon
   class="st1"
   points="208.6,237.9 208.1,233 198.9,221.8 196.5,218.9 196.6,221.2 196.7,226.2 200.7,230.1 "
   id="polygon2029" />
	<path
   class="st1"
   d="m 272.1,209.9 c 1.6,-3 2.4,-6.3 2.3,-9.7 0,-3.4 -0.9,-6.7 -2.6,-9.6 -1,-1.9 -2.8,-3.2 -4.9,-3.6 -0.2,0 -0.5,-0.1 -0.7,-0.1 h -0.1 c -4.4,0.1 -7.9,6.2 -7.8,13.7 v 0 c 0.1,7.4 3.8,13.4 8.2,13.4 h 0.1 c 0.9,-0.1 1.8,-0.4 2.5,-0.8 1.4,-0.8 2.4,-1.9 3,-3.3 z"
   id="path2031" />
	<path
   class="st1"
   d="m 266.5,215.1 v 0 c -0.7,0 -1.5,-0.1 -2.2,-0.4 v 3.9 h 3.5 l 0.6,-3.8 c -0.6,0.2 -1.3,0.3 -1.9,0.3 z"
   id="path2033" />
	<polygon
   class="st1"
   points="187.9,264.5 184.7,264.7 184.1,315.9 184.3,319.7 184.6,323.4 186,323.4 186,323.1 "
   id="polygon2035" />
	<polygon
   class="st1"
   points="196.5,263.9 191.7,264.2 192,272.9 193.8,312.5 193.8,312.6 194.8,323.4 196.5,323.4 "
   id="polygon2037" />
	<polygon
   class="st1"
   points="239.2,322.9 237.6,323.3 234.5,323.9 237.4,335.1 243.1,332.7 246.9,331.1 "
   id="polygon2039" />
	<path
   class="st1"
   d="m 180.3,327.1 -8.9,5.1 1.1,0.5 v 0 c 0.6,-0.4 1.2,-0.9 1.9,-1.4 2,-1.4 4.3,-3 5.9,-4.2 z"
   id="path2041" />
	<path
   class="st1"
   d="m 256.8,237.1 v 0 h 0.1 l 25,5.5 c -0.9,-6.5 -2.7,-12.8 -5.4,-18.7 -0.1,2.5 -0.2,6.1 -0.4,10.2 v 0 c 0,0 0,0 0,0 h 0.7 l 1.1,0.1 v 0 0 0.9 0.3 l -21.3,-1.1 -7.6,-1.6 2.3,5.2 z"
   id="path2043" />
	<path
   class="st1"
   d="m 182.7,325.8 c 0.1,0 0.2,0 0.2,0 0,0 0,0 0,0 v 0 l 2.2,0.5 1.1,0.3 v 0 l 0.3,-1 -2.8,-0.4 z"
   id="path2045" />
	<polygon
   class="st1"
   points="219.5,332.3 223,321.9 222,321.9 218.8,321.9 210.8,329.2 217.8,331.7 "
   id="polygon2047" />
	<path
   class="st1"
   d="m 274,261.9 c 0.1,-2.3 0.4,-10.9 0.6,-19.6 h 0.1 l -3.9,-0.9 v 0 c -4,1.6 -8.2,2.4 -12.5,2.5 0,0 0,0 0,0 v 0 c -1,0 -2,-0.1 -2.9,-0.2 0,0.5 0,1 -0.1,1.5 -0.1,4.1 -0.3,7.9 -0.4,10.9 -0.1,2.4 -0.2,4.3 -0.2,5.1 z"
   id="path2049" />
	<path
   class="st1"
   d="m 268.6,240.9 -11.8,-2.6 -6.2,1 v 0 0 l -1.8,-4 c -0.8,1.7 -1.4,3.1 -1.7,3.8 1.4,1.2 8.1,6.1 21.5,1.8 z"
   id="path2051" />
	<path
   class="st1"
   d="m 264.1,262.8 -8.3,-0.3 c 0.1,4.6 0.9,31.9 1.7,59.1 v 0 h 2.4 z"
   id="path2053" />
	<polygon
   class="st1"
   points="274,263.1 266.2,262.9 271.3,321.6 274,321.6 "
   id="polygon2055" />
	<polygon
   class="st1"
   points="177.4,259.3 177.4,258 171.2,257.6 172.4,261.7 176.7,260.2 177.4,260 "
   id="polygon2057" />
	<path
   class="st1"
   d="m 303.4,215.7 c -0.1,0 -0.3,0 -0.4,0 v 0 c -0.6,0 -1.2,-0.1 -1.8,-0.3 l 0.5,2.2 3.4,-0.2 -0.1,-2.1 c -0.6,0.3 -1.1,0.4 -1.6,0.4 z"
   id="path2059" />
	<path
   class="st1"
   d="m 175,228.8 v 0 c 0,0 0,0 0,0 l -1,-7.4 c -2.7,3.4 -10.9,14.1 -12.4,20.9 l 2.2,1.6 c 1,-4.9 8.9,-12.9 11.2,-15.1 z"
   id="path2061" />
	<path
   class="st1"
   d="m 296,262.6 v 0 l 17.2,-0.7 c 2.4,-14 -1.4,-39.7 -2,-43.9 l -4.8,0.5 v 0 0 h -0.2 -0.2 l -9.9,1.1 c 3.5,12.1 0.5,38.3 -0.1,43 z"
   id="path2063" />
	<path
   class="st1"
   d="m 322.9,250.7 -7.8,2.4 v 0 c 0,1.1 -0.1,2.2 -0.1,3.2 v 0 c 1.8,0.7 3.7,1.4 4.3,1.5 0.5,-0.3 2.1,-1.2 6.8,-3.8 z"
   id="path2065" />
	<path
   class="st1"
   d="m 186,214 c -0.3,0.1 -0.6,0.2 -0.9,0.3 h 0.1 c 0,0 0.1,0 0.1,0 v 0 0 h -0.1 v 0 c 0,0 -0.1,0 -0.1,0 H 185 c 0,0 0,0 0,0 v 0 0 c -0.3,0.1 -0.7,0.2 -1.1,0.2 l 0.5,3.1 1.4,-0.1 V 214 Z"
   id="path2067" />
	<path
   class="st1"
   d="m 185.1,214.3 v 0 0 0 c 0,0 0,0 0,0 z"
   id="path2069" />
	<path
   class="st1"
   d="m 319.6,236 -1.2,-1.2 -3.6,6.1 v 0 c 0.2,3.2 0.3,6.5 0.3,9.6 l 7.7,-11.3 z"
   id="path2071" />
	<path
   class="st1"
   d="m 176.4,202.2 c 0,0 0,0 0,0 v 0 c 1.3,5.4 3.2,9.2 5.9,11 0.1,0.1 0.3,0.2 0.4,0.3 0.4,0 0.8,0 1.1,0 2.6,-0.5 4.7,-2.4 5.7,-4.8 1.4,-3.2 1.8,-6.7 1.3,-10.1 -0.4,-2.7 -1.3,-5.3 -2.8,-7.6 -3,1.4 -6.2,2.2 -9.4,2.3 -0.5,0 -1,0 -1.5,-0.1 0,0 0,0 0,0 -1,2.8 -1.2,5.9 -0.7,9 z"
   id="path2073" />
	<path
   class="st1"
   d="m 312.5,218.9 c 0.3,1.9 0.8,5.3 1.2,9.6 l 9.8,9.7 v 0 l 2.8,-4 c -3.9,-5.7 -8.6,-10.8 -13.8,-15.3 z"
   id="path2075" />
	<path
   class="st1"
   d="m 290,326.8 6.7,4 7.4,-8.4 h -2.9 c -0.8,0.3 -6.7,2.6 -11.2,4.4 z"
   id="path2077" />
	<polygon
   class="st1"
   points="194.5,325.2 194.7,326.5 195.9,325.8 199.1,326.5 197.7,325.2 "
   id="polygon2079" />
	<polygon
   class="st1"
   points="326.4,334.8 330.2,333.3 320.3,328.1 317.1,327.8 322,336.6 "
   id="polygon2081" />
	<path
   class="st1"
   d="m 184.3,263.5 v 0 0 l 12.3,-0.8 -1.2,-44.9 c -2.2,0.3 -8.4,1.1 -13.5,1.8 v 40.6 z"
   id="path2083" />
	<polygon
   class="st1"
   points="205,332.7 205.4,332.4 202.6,329.8 202.7,329.8 "
   id="polygon2085" />
	<path
   class="st1"
   d="m 228.2,213.3 c 4.4,0.2 8.4,-5.6 8.8,-13.1 v 0 c 0,-0.9 0,-1.8 0,-2.7 0,0 0,0 0,0 0,-0.2 0,-0.4 -0.1,-0.6 0,-0.2 0,-0.5 -0.1,-0.7 0,0 0,0 0,0 -0.1,-0.4 -0.1,-0.8 -0.2,-1.2 -1,-4.9 -3.7,-8.5 -7,-8.6 h -0.3 c -2.3,0.2 -4.4,1.5 -5.6,3.6 -1.1,1.8 -2,3.7 -2.5,5.8 -0.3,1.2 -0.5,2.5 -0.5,3.7 -0.2,7.4 3.1,13.6 7.5,13.8 z"
   id="path2087" />
	<path
   class="st1"
   d="m 179.4,186.4 v 0 l -0.2,0.5 c 0.8,0 1.6,-0.2 2.3,-0.6 -0.5,-0.1 -1.1,-0.1 -1.6,0 -0.2,0 -0.4,0 -0.5,0.1 0,0 0,0 0,0 v 0 c 0,0 0,0 0,0 z"
   id="path2089" />
	<polygon
   class="st1"
   points="296.5,270.2 296.5,270.4 297.5,280.6 297.5,280.6 298.1,286.8 301.2,320.7 304.3,320.7 304.8,266.1 304.3,263.5 295.9,263.9 296.4,269 "
   id="polygon2091" />
	<polygon
   class="st1"
   points=""
   id="polygon2093" />
	<path
   class="st1"
   d="m 305.6,263.5 11.1,63.1 h 2 c -1.1,-29.1 -5,-59 -5.6,-63.4 z"
   id="path2095" />
	<path
   class="st1"
   d="m 228.5,214.6 c -0.1,0 -0.2,0 -0.3,0 v 0 c -0.1,0 -0.2,0 -0.2,0 -0.7,-0.1 -1.4,-0.2 -2,-0.6 v 0 c 0,0 0,0 0,0 v 2.8 h 3.4 l 0.3,-2 0.1,-0.4 c -0.5,0.1 -0.9,0.2 -1.3,0.2 z"
   id="path2097" />
	<path
   class="st1"
   d="m 177.8,190.7 c -0.1,0.4 -0.3,0.8 -0.4,1.2 3.4,0.2 6.8,-0.5 9.9,-2 -0.5,-0.6 -1,-1.2 -1.6,-1.7 v 0 c 0,0 0,0 0,0 0,0 0,0 0,0 -1.8,1.6 -4.2,2.5 -6.6,2.5 -0.5,0 -0.9,0 -1.3,0 -0.1,0 -0.1,0 0,0 -0.1,0 0,0 0,0 z"
   id="path2099" />
	<path
   class="st1"
   d="m 303.3,214.5 c 2.3,-0.3 4.2,-1.8 5.1,-3.9 v 0 c 1.4,-2.7 2,-5.8 1.7,-8.8 0,-0.1 0,-0.1 0,-0.2 -0.2,-3.1 -1.2,-6.1 -3,-8.7 -1.2,-1.8 -3.1,-3 -5.3,-3.1 -0.1,0 -0.2,0 -0.3,0 -2.3,0.3 -4.2,1.8 -5.1,3.9 -0.7,1.4 -1.2,2.9 -1.5,4.4 -0.3,1.5 -0.4,3.1 -0.2,4.6 0,0 0,0 0,0 v 0 c 0,0.4 0.1,0.8 0.1,1.2 0.9,6.2 4.5,10.9 8.5,10.6 z"
   id="path2101" />
	<polygon
   class="st1"
   points="234.2,260.4 227.1,259.9 235.3,322.4 237.9,321.8 "
   id="polygon2103" />
	<polygon
   class="st1"
   points="294.9,266.2 294.1,265.1 291.2,266.6 291.6,274.2 295,279.3 296.2,279.3 295.5,271.9 295.3,270.3 295.3,270.2 "
   id="polygon2105" />
	<path
   class="st1"
   d="m 288.9,240 4.7,2.4 c 0.2,-1.6 0.7,-3 1.4,-4.4 0.4,-0.8 0.9,-1.6 1.5,-2.4 0,-0.4 0,-0.8 0,-1.2 0,-0.8 0,-1.6 0,-2.5 -0.1,-3.7 -0.6,-7.3 -1.3,-10.9 0,0 0,0 0,0 0,0 0,0 0,0 -3.6,5.8 -5.8,12.3 -6.3,19 z"
   id="path2107" />
	<path
   class="st1"
   d="m 288.7,241.3 c -0.1,1 -0.1,2 -0.1,3 -0.2,7 0.7,13.9 2.7,20.6 v 0 c 0,0 0,0 0,0 l 2.2,-1.2 c -0.9,-6.7 -0.9,-13.4 -0.2,-20.1 v 0 z"
   id="path2109" />
	<path
   class="st1"
   d="m 184.6,187.4 c -0.5,-0.3 -1,-0.6 -1.5,-0.8 0,0 0,0 0,0 0,0 0,0 0,0 0,0 0,0 0,0 -1.2,0.9 -2.6,1.4 -4.1,1.4 -0.1,0 -0.2,0 -0.3,0 -0.2,0.4 -0.4,0.9 -0.5,1.4 2.3,0.3 4.6,-0.4 6.4,-2 z"
   id="path2111" />
	<path
   class="st2"
   d="m 172.8,201.2 c 0.4,3.4 1.9,6.7 4.2,9.3 1,1.2 2.3,2.1 3.8,2.6 0.6,0.2 1.3,0.3 1.9,0.4 -0.1,-0.1 -0.3,-0.2 -0.4,-0.3 -2.8,-1.8 -4.7,-5.5 -5.9,-11 v 0 0 c -0.5,-3 -0.3,-6.2 0.7,-9.1 -1.2,-0.1 -2.3,-0.4 -3.4,-0.9 0,0 0,0 0,0 -1.1,2.9 -1.4,6 -0.9,9 z"
   id="path2113" />
	<path
   class="st2"
   d="m 177.4,191.9 c 0,0 0,0 0,0 0.1,-0.4 0.3,-0.8 0.4,-1.2 0,0 0,0 0,0 -1,-0.1 -2,-0.4 -3,-0.8 -0.1,0.2 -0.2,0.3 -0.3,0.5 -0.1,0.2 -0.3,0.5 -0.4,0.7 1,0.4 2.1,0.7 3.3,0.8 z"
   id="path2115" />
	<path
   class="st2"
   d="m 179.2,186.9 0.2,-0.5 v 0 c 0,0 0,0 0,0 -0.5,0.1 -0.9,0.3 -1.3,0.5 0,0 0,0 0,0 0,0 0,0 0.1,0 0.3,0 0.6,0 1,0 z"
   id="path2117" />
	<path
   class="st2"
   d="m 178.1,189.5 c 0.2,-0.5 0.4,-1 0.5,-1.4 v 0 c -0.7,0 -1.4,-0.2 -2,-0.4 -0.4,0.3 -0.8,0.7 -1.1,1.1 0,0 0,0 0,0 0,0 0,0 0,0 0.9,0.4 1.7,0.6 2.6,0.7 z"
   id="path2119" />
	<path
   class="st2"
   d="m 184.6,217.7 -0.5,-3.1 v 0 0 c -0.4,0.1 -0.7,0.1 -1.1,0.1 -0.3,0 -0.5,0 -0.8,0 0.3,1.2 0.6,2.5 0.7,3.1 z"
   id="path2121" />
	<path
   class="st2"
   d="m 180,257.7 0.2,1.5 0.6,4.5 3.5,-0.2 v 0 l -2.4,-3.3 v -40.6 c -2.9,0.4 -5.5,0.7 -6.7,0.8 l 0.2,1.2 z"
   id="path2123" />
	<path
   class="st2"
   d="m 167.7,246.7 v 0 l 4,-5.5 v 0 0 l -1.6,-1.9 c -1.9,2.7 -3.3,5.3 -3.9,6.3 z"
   id="path2125" />
	<path
   class="st2"
   d="m 175.3,231.4 -0.3,-2.6 v 0 c -2.3,2.2 -10.2,10.3 -11.2,15.1 0,0 0,0 0,0 l 1.4,1 c 0.1,-0.3 0.3,-0.6 0.6,-1 1,-1.8 2.8,-4.7 4.9,-7.4 1.4,-2 3,-3.9 4.6,-5.1 z"
   id="path2127" />
	<polygon
   class="st2"
   points="177.4,258 177.4,259.3 177.4,260 179,259.4 179,259.6 178.8,258.1 "
   id="polygon2129" />
	<polygon
   class="st2"
   points="200.7,230.1 196.7,226.2 196.8,227.7 208.8,239.6 208.6,238 208.6,237.9 "
   id="polygon2131" />
	<polygon
   class="st2"
   points="214.6,229.6 214.5,229.9 209.8,237.5 210,239.1 "
   id="polygon2133" />
	<polygon
   class="st2"
   points="184.1,315.9 184.7,264.7 180.8,265 181.9,282 "
   id="polygon2135" />
	<polygon
   class="st2"
   points="193.8,312.5 192,272.9 191.7,264.2 189.1,264.4 190.5,279.2 "
   id="polygon2137" />
	<path
   class="st2"
   d="m 184,338.8 -12.6,-5.3 c -0.7,0.5 -1.1,0.9 -1.1,0.9 l 13.6,5.5 4.5,-12.7 -1,-0.3 v 0 z"
   id="path2139" />
	<path
   class="st2"
   d="m 183,325.8 c 0,0 0,0 0,0 0,0 -0.1,0 0,0 -0.1,0 -0.2,0 -0.3,0 v 0 l -2.3,1.3 c 0,0 0,0 0,0 -1.7,1.1 -3.9,2.7 -5.9,4.1 -0.7,0.5 -1.3,1 -1.9,1.4 l 6.2,2.6 4.4,1.9 3,-10.6 -1.1,-0.3 z"
   id="path2141" />
	<polygon
   class="st2"
   points="199.1,326.5 199.1,326.5 195.9,325.8 194.7,326.5 196.1,338.1 205,332.7 202.7,329.8 202.6,329.8 199.2,326.5 "
   id="polygon2143" />
	<polygon
   class="st2"
   points="205.8,333.6 195.8,339.8 195.9,340.9 206.4,334.4 "
   id="polygon2145" />
	<path
   d="m 231,213.7 v 0.3 c 3.8,-1.7 6.9,-7.1 7.2,-13.7 0.4,-8.1 -3.4,-14.9 -8.5,-15.2 -2.8,0 -5.5,1.6 -6.9,4.1 -2,3 -3,6.5 -3.2,10.2 -0.3,6.1 1.8,11.5 5,13.9 v 3.6 c 1.8,0.1 3.8,0.3 5.8,0.5 l 0.5,-3.3 0.1,-0.4 -1.2,-0.2 v 0 z m -10.1,-14.3 v 0 c 0,-1.3 0.2,-2.5 0.5,-3.8 0.5,-2 1.3,-4 2.5,-5.8 1.1,-2 3.2,-3.4 5.6,-3.6 h 0.3 v 0 c 3.3,0.2 6,3.7 7,8.6 0.1,0.4 0.1,0.8 0.2,1.2 0,0 0,0 0,0 0,0.2 0.1,0.5 0.1,0.7 0,0.2 0,0.4 0.1,0.6 0,0 0,0 0,0 0.1,0.9 0.1,1.8 0,2.7 -0.4,7.5 -4.3,13.3 -8.8,13.1 -4.6,0 -7.9,-6.2 -7.5,-13.7 z m 8.7,15.4 -0.3,2 v 0 h -3.4 v 0 -2.8 -1.1 0 1.1 0 c 0.6,0.3 1.3,0.5 2,0.6 0.1,0 0.2,0 0.2,0 0.1,0 0.2,0 0.3,0 0.4,0 0.8,0 1.2,-0.1 v 0 z"
   id="path2147" />
	<polygon
   points=""
   id="polygon2149" />
	<path
   d="m 178.5,255.8 0.1,1 v 0 l -9.2,-0.6 2.1,7 7.5,-2.6 0.2,-0.1 v 0 l -0.2,0.1 0.5,3.8 0.8,-0.1 -0.8,0.1 h -0.1 l 3.8,59.6 h 0.1 -0.1 l -14.6,8.4 2.7,1.1 12.6,5.3 3.4,-11.9 v 0 l 0.7,-2.4 -0.9,-0.1 -3.7,-0.5 v 0 l 3.7,0.5 1.6,-50.5 4.8,50.1 H 193 v 0 l 2,16.2 0.6,-0.4 10,-6.2 1.6,-1 -9.2,-8.6 h -0.4 v -60.7 0 0 0 h -1.2 v 60.1 0 h -1.7 l -1,-10.8 v -0.1 l -3.2,-33.3 -1.4,-14.8 v 0 l 2.6,-0.2 v 0 l 4.9,-0.3 v 0 -0.6 h 1.2 l -0.9,-33.8 -1.2,-1.2 v 0 l 1.2,1.2 12.9,12.8 3.1,-6.2 c -0.6,4.1 -1,7.1 -1.1,7.2 v 0.1 l 2.2,16 h -0.1 l -0.7,8.4 2.8,5.6 h 1.9 V 272 h -0.8 -0.3 l -2.4,-4.6 0.6,-7.2 v 0 0 l 2.9,-1 v -0.7 h 0.2 l 0.1,-17.6 v -0.1 0 0 0 l -0.8,-14.1 v -0.1 l -1.2,0.1 v 0 l 1.2,-0.1 v 0.1 l 0.8,-1.7 8.8,0.3 -0.2,-2.4 -0.3,-2.9 -9.7,-0.6 c 0,0 0,0 0,0 0,0.3 0,0.7 0.1,1 v 0 c 0,-0.4 0,-0.7 -0.1,-1 0,-0.6 -0.1,-1.1 -0.1,-1.5 0,0 0,0 0,0 3,0 15.5,0.1 21.6,2.5 l -4.2,38.8 -8.5,-0.6 -6.6,-0.5 v 0 l -0.9,-17.2 v 0 l -0.1,17.6 h 1 v 0.8 l 1.5,0.1 5.2,0.4 v 0 -0.3 0 0.3 l 0.6,4.7 0.8,6.2 6.8,52.2 5,-1.1 -3.7,-61.9 v 0 l 1.9,-17.7 -0.9,-2.6 1.1,-0.4 v 0 l -1.1,0.4 0.9,2.6 1.2,3.3 0.8,15 v 0 l -1.5,6.8 3.5,8.9 5,-4.1 -1.7,-11 v 0 l 1.1,-16.8 -5.9,-24.3 v -0.1 0 0.1 -0.3 l -0.4,-0.2 c -2.9,-1.1 -5.8,-1.8 -8.9,-2.1 -2,-0.2 -3.9,-0.4 -5.8,-0.5 -4.5,-0.3 -8.1,-0.2 -8.4,-0.2 h -0.6 v 0.3 0 c -0.1,0.5 -0.3,2.2 -0.7,4.5 0,0 0,0 0,0 l -6.3,10.3 -12.1,-14.8 -0.1,-0.2 -0.9,0.8 v 0 l 0.9,-0.8 0.1,0.2 v -0.5 l -0.7,0.1 c -2.6,0.3 -5.6,0.8 -8.6,1.1 v 0 -4.4 H 186 v 0.7 3.6 l -1.4,0.1 v 0 l -1.7,0.1 c -0.2,-0.7 -0.4,-1.9 -0.7,-3.1 0,0 0,0 0,0 0.3,0 0.5,0 0.8,0 0.4,0 0.7,0 1.1,-0.1 v 0 c 0.4,-0.1 0.7,-0.1 1.1,-0.2 0.3,-0.1 0.6,-0.2 0.9,-0.3 v -0.7 h 1.2 c 1.5,-1.1 2.7,-2.5 3.4,-4.2 1.5,-3.4 2,-7.1 1.4,-10.8 -1.1,-7.6 -6.1,-13.3 -11.3,-13.3 h -0.1 c -0.3,0 -0.7,0 -1,0.1 -1.1,0.2 -2.2,0.6 -3.1,1.3 0.5,0.2 1,0.4 1.6,0.5 0.4,-0.2 0.9,-0.4 1.3,-0.5 0,0 0,0 0,0 0.1,0 0.3,-0.1 0.4,-0.1 0.5,-0.1 1.1,-0.1 1.6,0 0,0 0,0 0,0 -0.7,0.4 -1.5,0.6 -2.3,0.6 -0.4,0 -0.7,0 -1.1,-0.1 0,0 0,0 -0.1,0 0,0 0,0 0,0 -0.5,-0.1 -1.1,-0.2 -1.6,-0.5 l -0.2,-0.1 -0.2,0.4 -0.3,0.6 0.3,-0.6 c -2.7,2.4 -4.4,5.9 -4.6,9.5 -0.2,1.7 -0.1,3.5 0.1,5.2 0.5,3.7 2,7.1 4.5,9.9 1.3,1.4 2.9,2.5 4.7,3.1 0,0 0,0 0,0 0.4,1.7 0.8,3.6 0.9,4.1 -3.9,0.5 -7,0.9 -7.3,0.9 h -0.7 l 0.1,0.4 v 0 c -1.5,1.8 -11.9,14.7 -13.5,22.7 l -0.1,0.4 z m 7.8,70.8 v 0 l -3,10.6 v 0 l -4.4,-1.9 -6.2,-2.6 v 0 0 l -1.1,-0.5 v 0 l 8.9,-5.1 2.3,-1.3 v 0 l 1.1,-0.6 2.8,0.4 z m 12.8,-0.1 v 0 l 3.5,3.3 v 0 l 2.8,2.6 v 0 l -0.4,0.3 v 0 l -8.9,5.5 -1.5,-11.7 v 0 l -0.2,-1.3 v 0 h 3.2 z m 38.8,-4.7 -2.6,0.5 v 0 l -8.2,-62.5 7.1,0.5 v 0 -0.7 0 0.6 z m 1.3,-75.9 0.5,-0.1 4.7,-1.2 v 0 l -1,15.8 -2.9,-0.8 v 0 l -0.7,-13.8 v 0 z m 1.3,24.7 -1.4,-3.5 1.3,-6 3.1,0.8 1.5,9.7 -3.1,2.6 v 0 z m 4.6,-26.3 v 0 l -0.3,-1.2 -0.6,0.1 -4.7,1.2 -1.8,-5.2 v 0 l 1.7,-15.9 4.9,19.9 v 0 l 0.6,-0.1 z m -6.6,-24.3 0.6,2.3 z M 179,259.6 v 0 l -0.1,-0.2 -1.6,0.5 v 0 l -0.7,0.3 -4.3,1.5 v 0 l -1.3,-4.1 6.3,0.4 1.4,0.1 0.1,-1.2 v 0 l -0.1,1.2 0.3,1.5 0.3,1 z m -1.8,-13.5 -6.4,-8 v 0 c 1.3,-2 2.9,-3.8 4.7,-5.4 0.2,-0.2 0.4,-0.3 0.6,-0.5 l -0.7,-1 v 0 l 0.7,1 c -0.2,0.2 -0.4,0.3 -0.6,0.5 l 1.7,13.4 1.4,1.7 -0.9,0.8 v 0 l 0.9,-0.8 z m 10.7,18.3 v 0.1 l -1.9,58.6 v 0.3 h -1.5 l -0.2,-3.7 -0.2,-3.7 -2.2,-33.9 -1.1,-17.1 v 0 -0.6 0 0.6 l 3.8,-0.3 3.2,-0.2 0.1,-0.1 1.2,-0.1 v 0 z m 8.6,-36.9 z m 18.1,4.9 -1.2,-0.2 c 0,0 0,0 0,0 z m 2.4,8.3 v 0 0.2 l -0.1,17.4 -1.7,0.6 v 0 L 213,243.4 c 0.1,-0.7 0.8,-5.5 1.6,-10.9 v 0 l 1.8,-3.6 v 0 l 0.7,12.1 v -0.3 z m -0.9,-18.8 v 0 c 0.1,-0.5 0.1,-1 0.2,-1.5 0.3,-2.1 0.5,-3.4 0.5,-3.4 v 0 c 0,0 -0.2,1.3 -0.5,3.4 v 0 c 0,0.4 -0.1,0.9 -0.2,1.5 v 0 l 0.8,-1.3 2.9,0.2 5.8,0.3 0.3,2.9 v 0 l -8.2,-0.3 v 0 l -2.9,6 -4.7,9.5 0.2,2.1 v 0 l -0.2,-2.1 -0.2,-1.7 -0.4,-4.1 v -0.5 0 0 l 6.6,-11 -1.2,-0.2 c 0,0 0,0 0,0 z m -7.9,10.9 h -0.1 v 0.2 l 0.5,5 v 0 l 0.2,1.7 -12,-11.9 v 0 -1.5 0 0 l -0.1,-5 -0.1,-2.3 v 0 l 2.3,2.8 9.2,11.2 v -0.2 z m -27.5,-19.2 1.2,-0.2 c 0,0 0,0 0,0 l -1.2,0.2 c 0,0.1 0,0.1 0,0 z m 7.3,-24 c -0.1,0 -0.1,0.1 -0.2,0.1 0.1,-0.1 0.1,-0.1 0.2,-0.1 z m -12.3,-2.3 c 0.1,0 0.1,0 0.2,0.1 -0.1,0 -0.1,0 -0.2,-0.1 z m -0.2,1.5 c 0,0 0,0 0,0 0.4,-0.4 0.7,-0.8 1.1,-1.1 0.7,0.2 1.3,0.3 2,0.4 v 0 c 0.1,0 0.2,0 0.3,0 1.5,0 2.9,-0.5 4.1,-1.4 0,0 0,0 0,0 0.1,-0.1 0.2,-0.1 0.2,-0.2 l -0.8,-0.9 c 0,0 0,0 0,0 l 0.8,0.9 c -0.1,0.1 -0.2,0.1 -0.2,0.2 0,0 0,0 0,0 0.5,0.2 1,0.5 1.5,0.8 0,0 0,0 0,0 -1.8,1.5 -4.1,2.3 -6.4,2.1 v 0 c -0.9,-0.2 -1.7,-0.4 -2.6,-0.8 -0.3,-0.1 -0.5,-0.2 -0.8,-0.4 v 0 c 0.3,0.2 0.6,0.3 0.8,0.4 z m -2.3,2.4 0.4,-0.5 c 0.2,0.1 0.4,0.2 0.6,0.3 0.1,-0.2 0.3,-0.5 0.4,-0.7 0.1,-0.2 0.2,-0.3 0.3,-0.5 0,0 0,0 0,0 0.9,0.4 1.9,0.7 3,0.8 0,0 0,0 0,0 0.4,0.1 0.8,0.1 1.2,0.1 2.4,0 4.8,-0.9 6.6,-2.5 0,0 0,0 0,0 0.1,-0.1 0.3,-0.2 0.4,-0.3 l -0.4,-0.5 0.5,0.5 -0.4,0.3 v 0 c 0.6,0.5 1.2,1.1 1.6,1.7 0,0 0,0 0,0 -3.1,1.5 -6.5,2.1 -9.9,2 v 0 c 0,0 0,0 0,0 -1.1,-0.1 -2.2,-0.4 -3.3,-0.8 0,0 0,0 0,0 -0.2,-0.1 -0.4,-0.2 -0.6,-0.3 l -0.4,0.4 -0.4,0.5 c 0,0 0,0 0,0 z m 3.8,19.2 c -2.3,-2.6 -3.7,-5.8 -4.2,-9.3 -0.5,-3 -0.2,-6.1 0.8,-9 v 0 c 0,0 0,0 0,0 1.1,0.5 2.2,0.8 3.4,0.9 0,0 0,0 0,0 0,0 0,0 0,0 0.5,0.1 1,0.1 1.5,0.1 3.3,-0.1 6.5,-0.9 9.4,-2.3 0,0 0,0 0,0 0.2,-0.1 0.3,-0.1 0.5,-0.2 l -0.4,-0.8 0.4,0.8 c -0.2,0.1 -0.3,0.1 -0.5,0.2 1.5,2.3 2.5,4.9 2.8,7.6 0.6,3.4 0.1,6.9 -1.3,10.1 -1,2.5 -3.1,4.3 -5.7,4.8 -0.4,0.1 -0.8,0.1 -1.1,0 0,0 0,0 0,0 -0.7,-0.1 -1.3,-0.2 -1.9,-0.4 -1.4,-0.4 -2.7,-1.3 -3.7,-2.5 z m -1.9,10 c 1.2,-0.1 3.8,-0.4 6.7,-0.8 5.1,-0.6 11.2,-1.5 13.5,-1.8 0,0 0,0 0,0 l 1.2,44.9 -12.3,0.8 -3.5,0.2 v 0 l -0.6,-4.5 -0.2,-1.5 -4.7,-36.1 -0.1,-1.2 c 0,0 0,0 0,0 z m -13.5,21.9 c 1.6,-6.9 9.7,-17.5 12.4,-20.9 0.5,-0.7 0.9,-1.1 0.9,-1.1 l -0.9,-0.8 v 0 l 0.9,0.8 c 0,0 -0.3,0.4 -0.9,1.1 l 1,7.4 0.3,2.6 v 0 c -1.6,1.2 -3.2,3.1 -4.7,5.1 -2.1,2.7 -3.8,5.7 -4.9,7.4 -0.2,0.4 -0.4,0.7 -0.5,1 0,0 0,0 0,0 l -1.4,-1 z m 6.1,4.4 -1.6,-1.1 c -0.2,0.3 -0.3,0.5 -0.3,0.5 l -1.1,-0.6 c 0,0 0,0 0,0 l 1.1,0.6 c 0,0 0.1,-0.2 0.3,-0.5 0.6,-1 2.1,-3.6 3.9,-6.3 l -0.2,-0.3 0.9,-0.8 v 0 l -0.9,0.8 0.2,0.3 v 0 l 1.6,1.9 v 0 l 5.9,7.3 v 0 l 0.5,4 0.2,1.7 v 0 l 1.1,0.8 -0.7,1 v 0 l 0.7,-1 -1.1,-0.8 z"
   id="path2151" />
	<path
   d="m 248.2,233.8 c -1.3,2.9 -2.4,5.1 -2.4,5.1 l -0.2,0.4 0.3,0.3 c 2.3,2.1 5.2,3.5 8.3,3.9 0,-0.2 0,-0.4 0,-0.5 0,0.2 0,0.4 0,0.5 -0.3,9.5 -0.6,18.2 -0.6,18.3 v 0.6 h 1.1 v -0.6 0 0.6 c 0.1,4.4 0.9,32.2 1.7,59.7 v 0.3 l 0.7,-0.5 4.1,0.3 4.1,-57.6 -0.2,-2.3 h 0.2 v 0 h -0.2 l 0.2,2.3 5,57.3 h -0.6 l 10.2,13.9 9.3,-7 -13.7,-6.9 h -0.1 v -59.6 0 0 0 c 0,-0.2 0.4,-10 0.7,-20 0,0 0,0 0,0 l 7.4,1.6 -0.1,-0.8 c -0.9,-7.7 -3.2,-15.3 -6.6,-22.2 0,0 0,0 0,0 0,-0.3 0,-0.4 0,-0.4 V 220 l -0.5,-0.1 c -2.3,-0.5 -4.7,-0.8 -7,-1 l 0.8,-4.9 0.1,-0.3 v 0 0.3 c 1.4,-0.9 2.5,-2.1 3.3,-3.6 1.7,-3.2 2.6,-6.7 2.4,-10.3 0,-3.6 -1,-7.2 -2.8,-10.3 -1.3,-2.5 -3.9,-4.2 -6.7,-4.3 -5.1,0.1 -9.1,6.8 -9,14.9 0.1,6.2 2.6,11.4 6.1,13.5 v 4.6 c 0,0 0,0 0,0 -4.3,-0.2 -7.5,-0.1 -7.6,-0.1 h -0.6 v 0.5 0 c -0.4,1 -3.3,7.2 -5.7,12.4 v 0 l -2.6,-0.3 1.2,2.8 0.7,1.5 1.8,4 v 0 l 6.2,-1 v 0 l 11.8,2.6 c 0,0 0,0 0,0 -13.3,4.3 -20,-0.6 -21.5,-1.8 0.3,-0.6 0.9,-2 1.7,-3.8 0,0 0,0 0,0 z m 6,8.7 c 0,0 0,0 0,0 h 0.8 z m 3.3,79.1 v 0 c -0.8,-27.2 -1.5,-54.5 -1.7,-59.1 0,0 0,0 0,0 0,0 0,-0.1 0,-0.1 0,0 0,0.1 0,0.1 l 8.3,0.3 v 0 0 l -4.2,58.8 z m 6.6,-59.1 v 0 l 0.9,0.1 z m 2.1,0.4 v -0.4 0 0.4 0 l 7.8,0.3 v 58.5 0 h -2.7 z m 20.5,66.3 -6.7,5.1 v 0 l -8,-11 h 3.1 v 0 z m -11.9,-86.9 h -0.1 c -0.3,8.7 -0.6,17.3 -0.6,19.6 l -19.2,-0.6 c 0,-0.9 0.1,-2.7 0.2,-5.1 0.1,-3 0.2,-6.8 0.4,-10.9 0,-0.5 0,-1 0,-1.5 v -1.2 0 c 0,0.4 0,0.8 0,1.2 1,0.1 2,0.2 2.9,0.2 0,0 0,0 0,0 4.3,-0.1 8.5,-0.9 12.5,-2.5 v 0 l 3.9,0.8 v 0 h 1.1 c 0,0 0,0 0,0 z m -6.3,-27.5 v 0 l -0.6,3.9 h -3.5 v 0 -3.9 c 0.7,0.3 1.4,0.4 2.2,0.4 h 0.1 c 0.6,-0.1 1.2,-0.2 1.8,-0.4 l 0.2,-1.1 v 0 z m 3.3,-24.2 c 1.7,2.9 2.6,6.2 2.6,9.6 0.1,3.4 -0.6,6.7 -2.3,9.7 -0.6,1.4 -1.7,2.5 -3,3.2 -0.8,0.4 -1.6,0.7 -2.5,0.8 h -0.1 c -4.4,0 -8.1,-6 -8.2,-13.4 v 0 c -0.1,-7.5 3.4,-13.6 7.8,-13.7 h 0.1 c 0.2,0 0.5,0.1 0.7,0.1 2.1,0.5 3.9,1.8 4.9,3.7 z M 251.3,238 v 0 l -2.3,-5.2 v 0 l 7.6,1.6 21.3,1.1 v -0.3 -0.9 0 l -1.1,-0.1 h -0.7 v 0 l -1.2,-0.1 -6.3,-0.3 -0.9,0.9 -0.9,-0.9 v 0 l 0.9,0.8 0.9,-0.9 v 0 l 3,-3.1 v 0 l 2.2,0.7 1.1,0.4 v 0 c 0,0.8 -0.1,1.6 -0.1,2.4 l 1.2,0.1 v 0 c 0.2,-4.1 0.3,-7.7 0.4,-10.2 0,0 0,0 0,0 -0.5,-1.1 -0.9,-2 -1.1,-2.5 0,1.4 -0.1,4.8 -0.3,9 l 0.7,0.2 -0.7,-0.2 -3.7,-1.2 -4.3,4.4 v 0 0 0 l -10.2,-0.5 -1,-0.2 v 0 l -1.2,-0.3 v 0 l -4.2,-0.9 v 0 c 1.6,-3.4 3.3,-7.3 4.5,-9.7 v 0 l 1.2,-2.6 -0.1,-0.1 0.1,0.1 -1.1,2.5 c 0,0 0,0 0,0 -0.1,2.7 -0.2,6.9 -0.3,10.6 v 0 l 1.2,0.3 v 0 c 0.2,-7.3 0.3,-11.5 0.3,-13.1 0,0 0,0 0,0 0,0 0,0 0,0 6.4,-0.1 12.8,0.4 19.1,1.4 0,0 0,0 0,0 -0.1,-0.2 -0.2,-0.3 -0.2,-0.3 v 0 0 l 0.2,0.3 0.1,0.3 c 0.3,0.5 0.7,1.4 1.1,2.5 2.7,5.9 4.6,12.3 5.4,18.8 v 0 l -25,-5.5 h -0.1 v 0 z"
   id="path2153" />
	<polygon
   points="222.8,320.1 222.8,320.1 219.2,320.1 219.2,259.3 219.2,258.5 217.9,258.5 217.9,321 218.3,320.7 224,320.7 227.3,270.6 226.5,264.4 "
   id="polygon2155" />
	<path
   d="m 220.3,333.9 4.5,-13.2 h -6.4 l -0.4,0.3 -9.5,8.7 z m -1.5,-12 h 3.2 1.1 v 0 l -3.5,10.4 -1.7,-0.6 -7,-2.5 v 0 z"
   id="path2157" />
	<path
   d="m 236.6,336.8 12.3,-5.3 -9.3,-9.9 -0.5,0.1 -5,1 -1.1,0.3 z m -2.1,-12.9 3.1,-0.7 1.7,-0.4 v 0 l 7.7,8.1 -3.8,1.6 -5.7,2.4 z"
   id="path2159" />
	<path
   d="m 262.2,322.6 -1.1,-0.1 -4.1,-0.4 -0.7,0.5 -8.9,6.6 11,6.1 z m -4.9,0.7 3.3,0.3 v 0 l -3,9.8 -8,-4.4 v 0 z"
   id="path2161" />
	<path
   d="m 287.2,326.6 9.7,5.8 9.8,-11.1 h -1.2 l 0.4,-48.6 9.5,53.8 4.5,0.3 c -1.2,-30.7 -5.4,-62.3 -5.7,-64.3 v 0 0 c 0.3,-1.6 0.5,-3.3 0.6,-4.9 v 0 c 1.5,0.7 3,1.2 4.5,1.5 0.1,0 0.2,0 0.3,-0.1 v 0 c 0.5,-0.3 4.7,-2.7 7.5,-4.2 l 0.7,-0.4 -4.7,-5 -7.4,2.3 v 0 l 11.8,-17.3 -0.2,-0.3 c -3.9,-6.9 -14.2,-15.9 -15.4,-16.9 l -0.1,-0.1 -0.8,0.9 c 0,0 0,0 0,0 l 0.8,-0.9 0.1,0.1 v -0.3 l -5.9,0.7 -0.1,-2.5 v 0 c 1.4,-0.9 2.6,-2.1 3.4,-3.6 1.5,-3 2.2,-6.3 1.9,-9.7 -0.2,-3.3 -1.3,-6.6 -3.2,-9.3 -1.9,-3.4 -6.2,-4.6 -9.7,-2.7 -1.4,0.8 -2.6,2.1 -3.2,3.6 -1.5,3 -2.2,6.3 -1.9,9.7 0,4.8 2.4,9.3 6.3,12.1 l -0.1,-0.2 1.2,-0.3 v 0 l -1.2,0.3 0.1,0.2 0.8,3.2 v 0 l -6.1,0.7 0.2,0.7 c 0,0 0,0.1 0,0.1 v 0 c -2.6,3.6 -4.4,7.6 -5.5,11.9 -2.8,11.2 -2.5,23 1,34.1 l 1.1,-0.6 v 0 c -2,-6.7 -2.9,-13.6 -2.7,-20.6 0,-1 0.1,-2 0.1,-3 v 0 l 4.6,2.3 v 0 0 c -0.8,6.7 -0.7,13.4 0.2,20.1 l 0.9,-0.5 v 0 l -0.9,0.5 -2.2,1.2 -1.1,0.6 -0.3,0.2 0.5,9 3.9,5.9 h 1.9 v 0 l 3.8,41 c -1.3,0.5 -4.3,1.6 -11.7,4.6 z m 9.3,-56.2 v -0.2 l -0.1,-1.2 -0.5,-5.2 8.4,-0.3 v -0.1 0 0.1 l 0.4,2.5 v 0.1 0 l -0.5,54.6 h -3.1 v 0 l -3.2,-33.9 -0.6,-6.2 v 0 z m -1.8,-7.1 c 0,0 0,0 0,0 l 1.2,-0.1 v 0 z M 306,266 v 1.5 -1.5 0 0 h -1.2 v 0 z m 12.7,60.5 v 0 h -2 l -11.1,-63.1 v 0 l 7.5,-0.3 c 0,-0.3 -0.1,-0.5 -0.1,-0.5 l 1.2,-0.2 v 0 l -1.2,0.2 0.1,0.5 c 0.6,4.4 4.5,34.3 5.6,63.4 z m -4.8,-96.1 -1.1,-1.1 v 0 l 1.1,1.1 3.6,3.6 0.1,-0.1 v 0 l -0.1,0.1 -2.9,4.8 -1,1.6 v 0 l 1,-1.6 c -0.1,-2.9 -0.4,-5.8 -0.7,-8.4 z m 0.5,21.6 v 0 l 0.1,0.3 0.3,0.8 v 0 l -0.3,-0.8 v 0 z m 4.7,6 v 0 c 0,0 0,0 0,0 z m 7,-4 c -4.7,2.6 -6.3,3.5 -6.8,3.8 0,0 0,0 0,0 -0.6,-0.2 -2.5,-0.9 -4.3,-1.5 v 0 l -0.1,-0.1 -0.4,1.1 v 0 l 0.4,-1.1 0.1,0.1 c 0.1,-1.1 0.1,-2.1 0.1,-3.2 v 0 0 l 7.8,-2.4 v 0 z m -2.9,-14.4 -0.4,-0.3 -7.7,11.3 -1,1.5 v 0 l 1,-1.5 c 0,0 0,0 0,0 0,-3.1 -0.1,-6.4 -0.3,-9.6 v 0 l 3.6,-6.1 1.2,1.2 3.2,3.2 0.4,0.3 0.8,-0.9 v 0 z m 3.1,-5.4 v 0 l -2.8,4 v 0 l -9.8,-9.7 c -0.5,-4.2 -1,-7.7 -1.2,-9.6 0,0 0,0 0,0 5.2,4.5 9.9,9.6 13.8,15.3 z m -21.3,-18.8 0.1,2.1 v 0 l -3.4,0.2 -0.5,-2.2 v 0 c 0.6,0.2 1.2,0.3 1.8,0.3 0.1,0 0.3,0 0.4,0 0.5,-0.1 1,-0.2 1.6,-0.4 l -0.1,-0.9 1.2,-0.1 v 0 l -1.2,0.1 z M 294.8,204 c -0.1,-0.4 -0.1,-0.8 -0.1,-1.2 v 0 0 c -0.1,-1.6 -0.1,-3.1 0.2,-4.6 0.3,-1.5 0.8,-3 1.5,-4.4 0.9,-2.1 2.9,-3.6 5.1,-3.9 0.1,0 0.2,0 0.3,0 2.2,0.1 4.1,1.3 5.3,3.1 1.8,2.6 2.8,5.6 3,8.7 0,0.1 0,0.1 0,0.2 0.2,3 -0.4,6.1 -1.7,8.8 -0.9,2.1 -2.9,3.6 -5.1,3.9 -4,0.2 -7.7,-4.4 -8.5,-10.6 z m 1.3,15.8 9.9,-1.1 h 0.2 0.1 0.1 v 0 l 4.8,-0.5 c 0.6,4.2 4.4,29.9 2,43.9 0,0 0,0 0,0 l -17.2,0.7 c 0.6,-4.9 3.6,-31.1 0.1,-43 z m 1.4,16.5 v 0 c -0.4,0.4 -0.7,0.8 -1,1.3 v 0 c 0.3,-0.4 0.6,-0.9 1,-1.3 z m -2.4,-15.2 c 0.3,-0.5 0.6,-0.8 0.6,-0.8 l -0.9,-0.8 v 0 l 0.9,0.8 c 0,0 -0.2,0.3 -0.6,0.8 0.1,0 0.1,0 0,0 0.8,3.6 1.2,7.2 1.3,10.9 0,0.8 0,1.6 0,2.5 0,0.4 0,0.8 0,1.2 0,0 0,0 0,0 0,0 0,0 0,0 -0.6,0.7 -1.1,1.5 -1.5,2.4 -0.7,1.4 -1.2,2.9 -1.4,4.4 0,0 0,0 0,0 l 0.4,0.2 -0.4,-0.2 -4.7,-2.4 c 0.6,-6.8 2.8,-13.3 6.3,-19 z m -6.6,18.7 z m -0.6,1.1 0.5,-1.1 -0.5,1.1 0.8,0.4 z m 5.8,3 v 0 l 0.6,-1.1 v 0 z m 2.8,-6.2 c -0.2,8.5 -0.8,17.1 -1.8,25.6 v 0.1 c -0.5,-4.2 -2,-19.4 1.8,-25.7 z m -2.3,27.4 0.8,1.1 0.4,4 v 0.2 l 0.1,1.5 0.7,7.5 v 0 H 295 l -3.4,-5.1 -0.4,-7.7 3,-1.5 -0.2,-0.2 v 0 z m 6.9,57.3 h 2.9 v 0 l -7.4,8.4 -6.7,-4 v 0 c 4.6,-1.8 10.5,-4.1 11.2,-4.4 z"
   id="path2163" />
	<path
   d="m 319.9,326.8 -4.5,-0.3 h -0.5 l 6.5,11.6 11.6,-4.7 -12.4,-6.5 z m 6.5,8 -4.5,1.8 v 0 l -4.9,-8.7 v 0 l 3.2,0.2 9.9,5.2 v 0 z"
   id="path2165" />
</g>
</svg>
