<?xml version="1.0" encoding="UTF-8" standalone="no"?>
<!-- Generator: Adobe Illustrator 27.8.1, SVG Export Plug-In . SVG Version: 6.00 Build 0)  -->

<svg
   version="1.1"
   id="Layer_1"
   x="0px"
   y="0px"
   viewBox="0 0 254 220"
   xml:space="preserve"
   sodipodi:docname="GroupLeaders.svg"
   width="254"
   height="220"
   inkscape:version="1.1.2 (0a00cf5339, 2022-02-04)"
   xmlns:inkscape="http://www.inkscape.org/namespaces/inkscape"
   xmlns:sodipodi="http://sodipodi.sourceforge.net/DTD/sodipodi-0.dtd"
   xmlns:xlink="http://www.w3.org/1999/xlink"
   xmlns="http://www.w3.org/2000/svg"
   xmlns:svg="http://www.w3.org/2000/svg"><defs
   id="defs1150" /><sodipodi:namedview
   id="namedview1148"
   pagecolor="#ffffff"
   bordercolor="#666666"
   borderopacity="1.0"
   inkscape:pageshadow="2"
   inkscape:pageopacity="0.0"
   inkscape:pagecheckerboard="0"
   showgrid="false"
   inkscape:zoom="1.742"
   inkscape:cx="250"
   inkscape:cy="158.43858"
   inkscape:window-width="1916"
   inkscape:window-height="1029"
   inkscape:window-x="1920"
   inkscape:window-y="49"
   inkscape:window-maximized="1"
   inkscape:current-layer="Layer_1" />
<style
   type="text/css"
   id="style1060">
	.st0{fill:#FFFFFF;}
	.st1{clip-path:url(#SVGID_00000082353278580609934850000014450831830734247065_);}
	.st2{fill:#27AAE1;}
</style>
<path
   id="Path_1803"
   class="st0"
   d="m 260.8,279.7 h 1 l 0.2,-30.2 h -3 z" />
<path
   id="Path_1804"
   class="st0"
   d="m 253.9,279.7 h 1.2 l 3,-30.2 h -2.7 z" />
<path
   id="Path_1805"
   class="st0"
   d="m 252.6,249.2 1.3,-9.3 -0.8,-7 -1.2,16.1 z" />
<g
   id="Group_188"
   transform="matrix(3.1791909,0,0,3.1791909,-667.95668,-684.7977)">
	<g
   id="g1144">
		<defs
   id="defs1066">
			<rect
   id="SVGID_1_"
   x="232.5"
   y="215.39999"
   width="35"
   height="69.199997" />
		</defs>
		<clipPath
   id="SVGID_00000006690493677501573680000011593705983376550025_">
			<use
   xlink:href="#SVGID_1_"
   style="overflow:visible"
   id="use1068"
   x="0"
   y="0"
   width="100%"
   height="100%" />
		</clipPath>
		<g
   id="Group_187"
   clip-path="url(#SVGID_00000006690493677501573680000011593705983376550025_)">
			<path
   id="Path_1806"
   class="st0"
   d="m 255.7,229 v 0 c -3.7,0 -7.9,0 -8.9,0 l -0.1,2.3 6.2,-0.6 v -0.2 -0.2 h 0.3 c 0,0 1.6,-0.1 3.5,-0.1 v -0.4 c -0.5,-0.3 -0.8,-0.6 -1,-0.8" />
			<path
   id="Path_1807"
   class="st0"
   d="m 234.3,254.6 0.2,-4 1.1,1.2 0.5,-0.3 -0.9,-1.5 H 234 l -1,3.4 z" />
			<path
   id="Path_1808"
   class="st0"
   d="m 233.2,238.1 0.8,11.5 h 0.8 l -0.2,-11 z" />
			<path
   id="Path_1809"
   class="st0"
   d="m 234.7,238.1 2,-5.1 -0.2,-3.3 -3.3,7.8 z" />
			<path
   id="Path_1810"
   class="st0"
   d="m 257.6,229.9 c -0.2,0 -0.4,0 -0.6,-0.1 v 0.2 l 1.8,-0.1 c 0,-0.1 0,-0.3 0,-0.4 -0.4,0.3 -0.8,0.4 -1.2,0.4" />
			<path
   id="Path_1811"
   class="st0"
   d="m 263.1,283.3 3.1,-0.8 -4.2,-2.2 h -1 z" />
			<path
   id="Path_1812"
   class="st0"
   d="m 263.8,252.8 0.8,-1.2 0.5,0.7 -0.2,2.4 1,-0.4 -0.5,-3.6 -1,-0.1 -1,2 z" />
			<path
   id="Path_1813"
   class="st0"
   d="m 239.9,218.5 c -1.2,2.9 -0.6,6.3 1.6,8.6 0.1,0 0.2,0 0.2,0 1.9,0 3.4,-2.5 3.4,-5.6 0,-1.1 -0.2,-2.3 -0.7,-3.3 -1,0.3 -2,0.5 -3,0.5 -0.4,-0.1 -0.9,-0.1 -1.5,-0.2" />
			<path
   id="Path_1814"
   class="st0"
   d="m 265.7,239.2 -3.1,-7.8 v 5.3 l 1.3,2.8 z" />
			<path
   id="Path_1815"
   class="st0"
   d="m 244.3,217.7 c -0.1,-0.2 -0.2,-0.3 -0.3,-0.4 -0.8,0.2 -1.7,0.3 -2.5,0.3 -0.4,0 -0.8,0 -1.2,-0.1 -0.1,0.2 -0.2,0.4 -0.2,0.5 1.4,0.3 2.9,0.2 4.2,-0.3" />
			<path
   id="Path_1816"
   class="st0"
   d="m 244.6,280.4 0.6,-32 h -2.4 l 1.6,32 z" />
			<path
   id="Path_1817"
   class="st0"
   d="m 241.8,227.5 c -0.3,0 -0.6,0 -0.8,-0.1 v 1 h 1.8 v -1.1 c -0.4,0.2 -0.7,0.2 -1,0.2" />
			<path
   id="Path_1818"
   class="st0"
   d="m 264.4,250.1 1,0.1 0.4,-10.6 -1.8,0.3 z" />
			<path
   id="Path_1819"
   class="st0"
   d="m 259.7,232.8 -0.2,-2.4 c -2.3,0.1 -5.3,0.2 -6.2,0.2 l 2,18.4 h 6.7 v -17 l -0.1,0.5 z" />
			<path
   id="Path_1820"
   class="st0"
   d="m 259.9,229.5 0.3,2.8 h 0.2 l -0.1,-1.5 h 0.5 l 0.1,1.5 h 0.2 l -0.1,-1.5 h 0.5 l 0.1,1.5 v 0 l 0.3,-2 -0.3,-1.1 c -0.3,0 -1.1,0 -2.1,0 -0.1,0.1 -0.2,0.2 -0.3,0.3 0,0.2 0,0.5 0.1,0.7 h 0.2 v -0.4 z" />
			<path
   id="Path_1821"
   class="st0"
   d="m 241.3,215.9 c 0,0.1 -0.1,0.1 -0.1,0.2 0.5,0 1,0 1.6,0 -0.3,-0.1 -0.6,-0.2 -0.9,-0.2 -0.3,0 -0.5,0 -0.6,0" />
			<path
   id="Path_1822"
   class="st0"
   d="m 243.3,216.5 c -0.6,0.1 -1.2,0.1 -1.8,0.1 -0.2,0 -0.5,0 -0.7,0 -0.1,0.1 -0.2,0.3 -0.3,0.4 1,0.1 2.1,0 3.1,-0.2 0,0 -0.1,-0.2 -0.3,-0.3" />
			<path
   id="Path_1823"
   class="st0"
   d="m 251.1,253.5 1,-2.9 0.6,1 0.4,-0.3 -0.5,-1.6 -0.8,-0.2 -1.9,3.8 z" />
			<path
   id="Path_1824"
   class="st0"
   d="m 240.4,228.9 h -1.7 l 1,18 3.9,1 h 1.5 l 1.1,-19 c 0.1,0 -5.8,0 -5.8,0 z" />
			<path
   id="Path_1825"
   class="st0"
   d="m 237.2,283.9 2.2,-3 h -0.1 l -2.3,2.8 z" />
			<path
   id="Path_1826"
   class="st0"
   d="m 254.4,283.8 0.7,-3.6 h -1.3 l -2.6,3.1 z" />
			<path
   id="Path_1827"
   class="st0"
   d="m 249,282.7 -3.8,-1.6 3.2,1.9 z" />
			<path
   id="Path_1828"
   class="st0"
   d="m 257.6,229.4 c 1.7,0 3.1,-2.4 3.1,-5.3 0,-2.9 -1.4,-5.3 -3.1,-5.3 -1.7,0 -3.1,2.4 -3.1,5.3 0,2.9 1.4,5.3 3.1,5.3" />
			<path
   id="Path_1829"
   class="st0"
   d="m 239.6,280.4 1.8,-32 h -0.8 l -1.1,32 z" />
			<path
   id="Path_1830"
   class="st2"
   d="m 240.8,216.1 c 0.1,0 0.2,0 0.4,0 0.1,-0.1 0.1,-0.1 0.1,-0.2 -0.2,0.1 -0.4,0.1 -0.5,0.2" />
			<path
   id="Path_1831"
   class="st2"
   d="m 240.2,216.5 c -0.1,0.1 -0.3,0.3 -0.4,0.4 0.3,0.1 0.6,0.1 0.8,0.1 0.1,-0.2 0.2,-0.3 0.3,-0.4 -0.3,0 -0.5,0 -0.7,-0.1" />
			<path
   id="Path_1832"
   class="st2"
   d="m 240.4,217.5 c -0.3,0 -0.6,-0.1 -0.9,-0.2 -0.1,0.1 -0.2,0.3 -0.3,0.5 0.3,0.1 0.6,0.2 0.9,0.2 0.1,-0.1 0.2,-0.3 0.3,-0.5" />
			<path
   id="Path_1833"
   class="st2"
   d="m 239.9,218.5 c -0.3,-0.1 -0.6,-0.1 -1,-0.3 -0.4,1 -0.6,2.1 -0.6,3.2 0,3 1.4,5.4 3.2,5.6 -2.2,-2.2 -2.8,-5.6 -1.6,-8.5" />
			<path
   id="Path_1834"
   class="st2"
   d="m 239.4,280.4 1.1,-32 H 238 l 0.2,32 z" />
			<path
   id="Path_1835"
   class="st2"
   d="m 236.9,283.7 2.3,-2.8 H 238 l -3.3,1.8 z" />
			<path
   id="Path_1836"
   class="st2"
   d="M 238.8,228.9 H 237 l 1,19 h 5.7 l -3.9,-1 z" />
			<path
   id="Path_1837"
   class="st2"
   d="m 244.4,280.4 -1.6,-32 h -1 l 1.6,32 z" />
			<path
   id="Path_1838"
   class="st2"
   d="m 248.4,283 -3.2,-1.9 -0.4,-0.2 h -1 l 2.8,3 z" />
			<path
   id="Path_1839"
   class="st2"
   d="m 246.8,284.6 2.5,-1.1 -0.4,-0.3 -2.3,1.1 z" />
			<path
   id="Path_1840"
   class="st2"
   d="m 234.8,249.6 h 0.3 l 0.4,-10.6 -1,-0.4 z" />
			<path
   id="Path_1841"
   class="st2"
   d="m 235.6,238.5 1.2,-3.4 -0.1,-2 -2,5.1 z" />
			<path
   id="Path_1842"
   d="m 240.9,227.1 v 0.3 c 0.6,0.2 1.2,0.2 1.8,0 V 227 h 0.5 v 0.1 c 1.5,-0.9 2.5,-3.1 2.5,-5.7 0,-1.2 -0.2,-2.4 -0.7,-3.5 -0.1,0 -0.2,0.1 -0.4,0.2 0.4,1 0.7,2.2 0.7,3.3 0,3.1 -1.5,5.6 -3.4,5.6 -0.1,0 -0.2,0 -0.2,0 -1.8,-0.2 -3.2,-2.6 -3.2,-5.6 0,-1.1 0.2,-2.2 0.6,-3.2 -0.1,0 -0.1,0 -0.2,-0.1 l 0.2,-0.4 c 0.1,0 0.2,0.1 0.2,0.1 0.1,-0.2 0.2,-0.3 0.3,-0.5 -0.1,0 -0.3,-0.1 -0.4,-0.1 l 0.1,-0.2 c -0.9,1.3 -1.3,2.9 -1.3,4.5 0,2.6 1.1,4.9 2.6,5.7 v -0.1 z" />
			<path
   id="Path_1843"
   d="m 243.7,216.9 c 0.2,0 0.4,-0.1 0.5,-0.1 -0.1,-0.1 -0.2,-0.2 -0.3,-0.4 -0.2,0 -0.4,0.1 -0.6,0.1 0.2,0.1 0.3,0.3 0.4,0.4" />
			<path
   id="Path_1844"
   d="m 244.3,217.7 c 0.2,-0.1 0.4,-0.1 0.4,-0.2 -0.1,-0.1 -0.2,-0.3 -0.2,-0.4 -0.1,0 -0.3,0.1 -0.5,0.1 0.1,0.2 0.2,0.4 0.3,0.5" />
			<path
   id="Path_1845"
   d="m 239.8,216.9 c 0.1,-0.2 0.3,-0.3 0.4,-0.4 -0.2,0 -0.4,-0.1 -0.5,-0.1 -0.1,0.1 -0.3,0.3 -0.4,0.4 0.1,0.1 0.3,0.1 0.5,0.1" />
			<path
   id="Path_1846"
   d="m 240.8,216.1 c 0.2,-0.1 0.3,-0.1 0.5,-0.2 0.2,0 0.3,-0.1 0.5,-0.1 0.3,0 0.6,0.1 0.9,0.2 0.3,0 0.5,-0.1 0.8,-0.1 -1,-0.8 -2.4,-0.8 -3.4,0 0.2,0.2 0.4,0.2 0.7,0.2" />
			<path
   id="Path_1847"
   d="m 240.2,216.5 c 0.2,0 0.4,0.1 0.7,0.1 0.2,0 0.5,0 0.7,0 0.6,0 1.2,0 1.8,-0.1 0.2,0 0.4,-0.1 0.6,-0.1 0.2,0 0.3,0 0.3,0 l -0.1,-0.5 c 0,0 -0.3,0 -0.7,0.1 -0.2,0 -0.5,0.1 -0.8,0.1 -0.5,0 -1,0.1 -1.6,0 -0.1,0 -0.2,0 -0.4,0 -0.2,0 -0.5,-0.1 -0.7,-0.1 -0.1,0 -0.2,-0.1 -0.3,-0.1 l -0.2,0.4 v 0 c 0.3,0.1 0.5,0.2 0.7,0.2" />
			<path
   id="Path_1848"
   d="m 239.4,217.4 c 0.3,0.1 0.6,0.1 0.9,0.2 0.4,0 0.8,0.1 1.2,0.1 0.8,0 1.7,-0.1 2.5,-0.3 0.2,0 0.4,-0.1 0.5,-0.1 0.1,0 0.1,0 0.2,-0.1 l -0.2,-0.4 c -0.1,0 -0.2,0.1 -0.3,0.1 -0.1,0 -0.3,0.1 -0.5,0.1 -1,0.2 -2.1,0.2 -3.1,0.2 -0.3,0 -0.6,-0.1 -0.8,-0.1 -0.2,0 -0.3,-0.1 -0.5,-0.1 h -0.1 l -0.1,0.2 -0.1,0.2 c 0.2,-0.1 0.3,-0.1 0.4,0" />
			<path
   id="Path_1849"
   d="m 240.1,218 c -0.3,-0.1 -0.6,-0.1 -0.9,-0.2 -0.1,0 -0.2,-0.1 -0.2,-0.1 l -0.2,0.4 c 0.1,0 0.1,0 0.2,0.1 0.3,0.1 0.6,0.2 1,0.3 0.5,0.1 1.1,0.2 1.6,0.2 1,0 2,-0.2 3,-0.5 0.2,-0.1 0.4,-0.1 0.4,-0.2 h 0.1 l -0.2,-0.4 h -0.1 c -0.1,0 -0.2,0.1 -0.4,0.2 -1.4,0.4 -2.9,0.5 -4.3,0.2" />
			<path
   id="Path_1850"
   d="m 240.9,227.4 v -0.3 h -0.5 v 1.4 h 0.5 z" />
			<path
   id="Path_1851"
   d="m 242.7,227 v 1.5 h 0.5 V 227 Z" />
			<path
   id="Path_1852"
   d="M 246.8,228.5 Z" />
			<path
   id="Path_1853"
   d="m 246.5,231.3 h 0.1 l 0.1,-2.3 h -0.2 v -0.5 h -10.1 v 0.2 -0.1 l 0.4,0.2 -0.4,1 0.2,3.3 0.1,2 v 0 l 0.5,0.2 -0.4,1.1 0.6,11.9 v 0 h 0.5 v 0.2 h 3.4 v -0.3 h 0.5 v 0.2 h 3.4 v -0.2 h 0.5 v 0 l 1,-16.4 v 0 z m -1.3,16.6 h -7.3 l -1,-19 h 9.3 z" />
			<path
   id="Path_1854"
   d="m 237.3,235.2 -0.4,-0.2 v 0 l -1.2,3.4 0.2,0.1 -0.2,0.4 -0.2,-0.1 -0.4,10.6 H 234 l -0.8,-11.5 -0.3,-0.1 0.2,-0.4 0.2,0.1 3.3,-7.8 0.4,-1 -0.4,-0.2 v 0.1 l -3.8,9 0.8,12.1 v 0 l 0.5,0.1 -0.1,0.2 h 1.2 l -0.1,-0.1 0.4,-0.2 0.1,0.1 0.5,-10.9 0.9,-2.5 z" />
			<path
   id="Path_1855"
   d="m 235.1,249.9 0.1,0.1 0.9,1.5 -0.5,0.3 -1.1,-1.2 -0.2,4 -1.2,-1.2 1,-3.4 0.1,-0.2 -0.5,-0.1 v 0 l -1.1,3.8 2.2,2.1 0.2,-3.9 0.6,0.6 1.2,-0.7 -1.1,-2 -0.1,-0.1 z" />
			<path
   id="Path_1856"
   d="m 233.3,237.6 -0.2,-0.1 -0.2,0.4 0.3,0.1 1.3,0.5 1,0.4 0.2,0.1 0.2,-0.4 -0.2,-0.1 -0.9,-0.4 z" />
			<path
   id="Path_1857"
   d="m 245.2,248.2 v 0.2 l -0.6,32 h -1.1 l -1.6,-32 v -0.2 h -0.5 v 0.3 l -1.8,32 h -1.4 l -0.2,-32 v -0.2 h -0.5 v 0 l 0.2,32.3 0.1,-0.1 0.2,0.4 h -0.1 1.3 l 0.3,-0.4 0.4,0.3 -0.1,0.1 h 0.1 l 1.5,-28.2 1.4,28.2 h 0.1 l -0.1,-0.1 0.3,-0.3 0.4,0.4 h 1 v 0 l 0.2,-0.4 0.1,0.1 0.6,-32.3 v 0 z" />
			<path
   id="Path_1858"
   d="m 244.7,280.9 v 0 l 0.5,0.2 3.8,1.6 -0.6,0.3 -1.9,0.9 -2.8,-3 -0.4,-0.4 -0.3,0.3 0.1,0.1 3.4,3.6 0.2,-0.1 2.3,-1.1 1.2,-0.6 -5.1,-2.2 -0.1,-0.1 z" />
			<path
   id="Path_1859"
   d="m 239.6,280.5 -0.3,0.4 -2.2,3 -0.3,-0.1 -2.2,-1.1 3.3,-1.8 h 0.1 l -0.2,-0.4 -0.1,0.1 -4.1,2.2 3.7,1.8 2.6,-3.6 0.1,-0.1 z" />
			<path
   id="Path_1860"
   d="m 255.7,229 c 0.2,0.3 0.5,0.5 0.9,0.6 v -0.1 h 0.5 v 0.3 c 0.2,0.1 0.4,0.1 0.6,0.1 0.4,0 0.8,-0.1 1.1,-0.3 0,-0.2 0,-0.4 0,-0.5 l 0.5,-0.1 c 0,0 0,0.1 0,0.2 0.1,-0.1 0.2,-0.2 0.3,-0.3 h -0.1 v -0.5 h 0.5 c 0.9,-1.3 1.3,-2.9 1.3,-4.5 0,-3.2 -1.6,-5.8 -3.6,-5.8 -2,0 -3.6,2.6 -3.6,5.8 0,1.6 0.4,3.1 1.3,4.4 h 0.4 z m -1.2,-4.9 c 0,-2.9 1.4,-5.3 3.1,-5.3 1.7,0 3.1,2.4 3.1,5.3 0,2.9 -1.4,5.3 -3.1,5.3 -1.7,0 -3.1,-2.4 -3.1,-5.3" />
			<path
   id="Path_1861"
   d="m 259.2,229.1 -0.5,0.1 c 0,0.1 0,0.3 0,0.5 0,0.1 0,0.3 0,0.4 h 0.5 c 0,-0.2 0,-0.5 -0.1,-0.7 0.1,-0.2 0.1,-0.3 0.1,-0.3" />
			<path
   id="Path_1862"
   d="m 257,229.5 h -0.5 v 0.6 h 0.5 z" />
			<path
   id="Path_1863"
   d="m 255.4,249.3 v 0.2 h 2.7 v -0.3 h 0.9 v 0.3 h 3 v -0.2 h 0.5 v -11.6 l -0.5,-1 0.4,-0.2 v 0 -5.3 l -0.3,-0.7 -0.2,1.4 v 17 h -6.7 l -2,-18.4 c 0.9,0 3.9,-0.2 6.2,-0.2 v -0.5 h -0.2 -0.5 L 257,230 h -0.5 c -1.8,0.1 -3.4,0.1 -3.5,0.1 h -0.3 v 0.2 0 h 0.5 l -0.2,2.6 0.8,7 v 0 l 0.5,0.1 -0.3,1.9 0.8,7.4 v 0 z" />
			<path
   id="Path_1864"
   d="m 262.6,249.5 v -0.2 z" />
			<path
   id="Path_1865"
   d="m 262.4,230.1 -0.1,0.5 0.3,0.7 3.1,7.8 h 0.2 l 0.1,0.5 h -0.1 l -0.4,10.6 -1,-0.1 -0.4,-10.2 h -0.2 l -0.1,-0.5 h 0.2 l -1.3,-2.8 v 0 l -0.4,0.2 0.5,1 1,2 0.4,10.6 v -0.1 l 0.4,0.2 v 0.1 l 1,0.1 v -0.1 l 0.5,-0.1 v 0 l 0.4,-11.2 -3.7,-9.4 z" />
			<path
   id="Path_1866"
   d="m 265.4,250.6 v 0.1 l 0.5,3.6 -1,0.4 0.2,-2.4 -0.5,-0.7 -0.8,1.2 -0.4,-0.3 1,-2 v -0.1 l -0.4,-0.2 v 0.1 l -1.2,2.3 1.2,0.9 0.7,-1.1 -0.3,3 2.1,-0.9 -0.6,-4 v 0 z" />
			<path
   id="Path_1867"
   d="m 263.7,239.5 0.1,0.5 h 0.2 l 1.8,-0.3 h 0.1 l -0.1,-0.5 h -0.2 l -1.8,0.3 z" />
			<path
   id="Path_1868"
   d="m 253.9,239.9 v 0 l -1.3,9.3 -0.7,-0.1 1.2,-16.1 0.2,-2.6 h -0.5 v 0 0.2 h 0.3 v 0.5 h -0.4 l -1.4,18.1 v 0 l 0.4,0.2 -0.1,0.2 0.8,0.2 v -0.1 l 0.5,-0.1 v 0.1 l 1.1,-7.6 0.3,-1.9 z" />
			<path
   id="Path_1869"
   d="m 252.5,249.6 v 0.1 l 0.5,1.6 -0.4,0.3 -0.6,-1 -1,2.9 -1.2,-0.2 1.9,-3.8 0.1,-0.2 -0.4,-0.2 v 0 l -2.3,4.5 2.2,0.3 0.8,-2.3 0.3,0.5 1.1,-0.8 -0.6,-2 v 0 z" />
			<path
   id="Path_1870"
   d="m 260.8,279.8 0.2,0.4 h 1 -0.1 l 0.2,-0.4 0.1,0.1 0.2,-30.3 v -0.2 h -0.5 v 0.2 l -0.2,30.2 h -1 L 259,249.6 v -0.3 h -0.9 v 0.3 l -3,30.2 h -1.2 l 1.5,-30.2 v -0.2 h -0.5 v 0 l -1.5,30.6 0.1,-0.1 0.4,0.3 -0.1,0.1 h 1.3 l 0.1,-0.3 0.5,0.1 v 0.2 0 l 3,-30.5 h 0.1 l 1.7,30.5 h 0.1 l -0.1,-0.1 z" />
			<path
   id="Path_1871"
   d="m 262.2,279.8 -0.2,0.4 h 0.1 l 4.2,2.2 -3.1,0.8 -2,-3 -0.2,-0.4 -0.4,0.3 0.1,0.1 2.4,3.6 4.7,-1.2 -5.2,-2.7 z" />
			<path
   id="Path_1872"
   d="m 255.1,279.9 -0.1,0.3 -0.7,3.6 -3.2,-0.5 2.6,-3.1 0.1,-0.1 -0.4,-0.3 -0.1,0.1 -3.2,3.8 4.5,0.7 0.8,-4.1 v -0.2 z" />
			<path
   id="Path_1873"
   d="m 246.8,228.9 c 1,0 5.2,0 8.9,0 v 0 -0.5 h -0.4 c -3.6,0 -7.4,0 -8.4,0 h -0.3 v 0.5 h 0.2" />
			<path
   id="Path_1874"
   d="m 259.4,229 h 0.1 c 1,0 1.8,0 2.1,0 l 0.3,1.1 -0.3,2 v 0 0.2 h -0.5 v -0.2 h -0.2 v 0.1 h -0.5 v -0.1 h -0.2 l -0.3,-2.8 h -0.5 v 0.4 0.5 l 0.2,2.4 2.3,-0.2 0.1,-0.5 0.2,-1.4 0.1,-0.5 v -0.1 l -0.3,-1.5 h -0.2 c 0,0 -0.8,0 -1.9,0 h -0.5 z" />
			<path
   id="Path_1875"
   d="m 253.1,231.1 v -0.5 h -0.3 c -2.8,0.3 -5.6,0.6 -6.2,0.6 h -0.1 v 0.5 0 l 6.1,-0.6 h 0.5" />
			<path
   id="Path_1876"
   d="m 261,230.7 0.1,1.5 v 0.2 h 0.5 v -0.2 l -0.1,-1.5 z" />
			<path
   id="Path_1877"
   d="m 260.3,230.7 0.1,1.5 v 0.1 h 0.5 v -0.1 l -0.1,-1.5 z" />
		</g>
	</g>
</g>
</svg>
