<?xml version="1.0" encoding="UTF-8" standalone="no"?>
<!-- Generator: Adobe Illustrator 27.8.1, SVG Export Plug-In . SVG Version: 6.00 Build 0)  -->

<svg
   version="1.1"
   id="Layer_1"
   x="0px"
   y="0px"
   viewBox="0 0 254 220"
   xml:space="preserve"
   sodipodi:docname="GroupsFormed.svg"
   width="254"
   height="220"
   inkscape:version="1.1.2 (0a00cf5339, 2022-02-04)"
   xmlns:inkscape="http://www.inkscape.org/namespaces/inkscape"
   xmlns:sodipodi="http://sodipodi.sourceforge.net/DTD/sodipodi-0.dtd"
   xmlns="http://www.w3.org/2000/svg"
   xmlns:svg="http://www.w3.org/2000/svg"><defs
   id="defs2453" /><sodipodi:namedview
   id="namedview2451"
   pagecolor="#ffffff"
   bordercolor="#666666"
   borderopacity="1.0"
   inkscape:pageshadow="2"
   inkscape:pageopacity="0.0"
   inkscape:pagecheckerboard="0"
   showgrid="false"
   inkscape:zoom="1.742"
   inkscape:cx="250"
   inkscape:cy="158.43858"
   inkscape:window-width="1916"
   inkscape:window-height="1029"
   inkscape:window-x="1920"
   inkscape:window-y="49"
   inkscape:window-maximized="1"
   inkscape:current-layer="Layer_1" />
<style
   type="text/css"
   id="style1895">
	.st0{fill:#FFFFFF;}
	.st1{fill:none;}
	.st2{fill:#27AAE1;}
	.st3{fill:none;stroke:#000000;stroke-width:0;stroke-linecap:round;stroke-linejoin:round;}
</style>
<path
   id="Path_1803"
   class="st0"
   d="m 260.8,279.7 h 1 l 0.2,-30.2 h -3 z" />
<path
   id="Path_1804"
   class="st0"
   d="m 253.9,279.7 h 1.2 l 3,-30.2 h -2.7 z" />
<path
   id="Path_1805"
   class="st0"
   d="m 252.6,249.2 1.3,-9.3 -0.8,-7 -1.2,16.1 z" />
<path
   id="Path_1952"
   class="st0"
   d="m 254.5,229.3 h 1.1 l 0.7,-11.4 h -4.6 l 0.6,10.9 z" />
<path
   id="Path_1953"
   class="st0"
   d="m 257.4,230.3 h 0.6 l 0.5,-6.8 -1.3,0.5 z" />
<g
   id="g2448"
   transform="matrix(2.9769959,0,0,2.9769959,-652.97293,-612.36806)">
	<path
   class="st1"
   d="m 272.5,219.7 -0.7,-0.2 v 0 l 0.7,0.2 v 0 c -0.1,0.1 -0.3,0.3 -0.4,0.5 0.2,-0.2 0.3,-0.4 0.4,-0.5 l 1.3,0.3 v 0 z"
   id="path1902" />
	<polygon
   class="st1"
   points="266,229.4 266.2,229.1 "
   id="polygon1904" />
	<polygon
   class="st1"
   points="266.4,226.3 266.3,228.6 "
   id="polygon1906" />
	<path
   class="st1"
   d="m 266.4,226.8 c 0,0 0,0 0,0 0.2,-0.2 0.6,-0.7 1,-1.2 -0.4,0.5 -0.8,1 -1,1.2 z"
   id="path1908" />
	<polygon
   class="st1"
   points="276,248.9 272.3,248.5 "
   id="polygon1910" />
	<path
   class="st1"
   d="m 271.5,246 v -0.2 0 0.2 c 0.4,0 0.7,0 1,-0.1 v 0 c -0.2,0.1 -0.6,0.1 -1,0.1 z"
   id="path1912" />
	
		<rect
   x="277.5"
   y="229.7"
   transform="matrix(0.8151,-0.5794,0.5794,0.8151,-81.7437,203.3336)"
   class="st1"
   width="0.30000001"
   height="0"
   id="rect1914" />
	<polygon
   class="st1"
   points="272.1,248.1 272.6,246 "
   id="polygon1916" />
	<polygon
   class="st1"
   points="268.3,248.4 267.9,248.1 264.3,248.6 267.9,248.1 "
   id="polygon1918" />
	<path
   class="st1"
   d="m 267.7,245.6 v 0 0 0 0 c 0.3,0.1 0.7,0.1 1,0.2 l -0.5,1.9 v 0 l 0.5,-1.9 v 0 c -0.4,0 -0.7,-0.1 -1,-0.2 z"
   id="path1920" />
	<polygon
   class="st1"
   points="262,215.2 260.6,214.5 262,215.2 263,213.8 262.7,212.9 263,213.8 "
   id="polygon1922" />
	<path
   class="st1"
   d="m 269,219 c 0,-0.3 0,-0.7 0,-1 0,0 0,0 0,0 0,0 0,0 0,0 -0.3,0 -0.5,-0.1 -0.7,-0.1 0.2,0.1 0.5,0.1 0.7,0.2 v 0 c -0.1,0.2 -0.1,0.6 0,0.9 0,0 0,0 0,0 0.7,0 1.4,0 2.2,0.1 0,0 0,0 0,0 v 0 C 270.4,219 269.7,219 269,219 Z"
   id="path1924" />
	<polygon
   class="st1"
   points="271.2,217.9 271,217.7 "
   id="polygon1926" />
	<path
   class="st1"
   d="M 270.8,217.7 H 269 c -0.8,0 -1.5,-0.7 -1.5,-1.5 v 0 c 0,0.8 0.7,1.5 1.5,1.5 h 1.8 v 0.1 c 0,0 0,0 0,0 v -0.3 0 z"
   id="path1928" />
	<path
   class="st1"
   d="m 272.7,214.1 c -0.1,0.1 -0.2,0.2 -0.3,0.2 -0.3,0.2 -0.6,0.3 -0.9,0.3 -0.2,0 -0.4,0 -0.5,-0.1 -0.7,-0.3 -1.4,-0.3 -2.1,0 v 0 c -0.5,0.1 -1.1,0 -1.6,-0.2 0,0 0,0 0,0 v 0 c 0.5,0.2 1,0.3 1.6,0.2 0.7,-0.3 1.4,-0.3 2.1,0 0.2,0.1 0.4,0.1 0.5,0.1 0.3,0 0.6,-0.1 0.9,-0.3 v 0 c 0.2,0 0.3,-0.1 0.3,-0.2 z"
   id="path1930" />
	<path
   class="st1"
   d="m 269.3,218.6 c 0,-0.1 0,-0.1 0,-0.1 0,0 0,0.1 0,0.1 z"
   id="path1932" />
	<polygon
   class="st1"
   points="270.8,219 270.8,218.1 270.8,219 269.3,219 "
   id="polygon1934" />
	<path
   class="st1"
   d="m 267.2,214.2 c 0,0 0.1,0 0.2,0.1 -0.1,0 -0.2,-0.1 -0.2,-0.1 z"
   id="path1936" />
	<polygon
   class="st1"
   points="276.3,231.7 276.5,232.2 276.3,231.7 276.5,231 "
   id="polygon1938" />
	<path
   class="st1"
   d="m 270,209.3 v 0 0 c -0.3,-0.1 -0.6,-0.1 -0.8,-0.1 0.2,0 0.5,0 0.8,0.1 z"
   id="path1940" />
	<path
   class="st1"
   d="m 273.3,210.1 c 0.3,1.1 0.4,2.2 0.4,3.4 0.1,2.3 0.3,4.9 1.1,6 -0.2,0.1 -0.4,0.1 -0.6,0.2 v 0 c 0.2,-0.1 0.5,-0.1 0.6,-0.2 -0.8,-1.1 -1,-3.7 -1.1,-6 0,-1.2 -0.1,-2.3 -0.4,-3.4 -0.2,-0.5 -0.7,-0.7 -1.2,-0.8 0.5,0.1 1,0.3 1.2,0.8 z"
   id="path1942" />
	<path
   class="st1"
   d="m 267.1,213.8 v 0 c -0.1,0.1 -0.2,0.2 -0.2,0.3 0,0 0,0 0,0 0,-0.1 0.1,-0.2 0.2,-0.3 z"
   id="path1944" />
	<path
   class="st1"
   d="m 272.5,212.2 v 1.7 c 0,0 0,0 0,0 v -1.7 c 0,-0.8 -0.7,-1.5 -1.5,-1.5 v 0 c 0.8,0 1.4,0.7 1.5,1.5 z"
   id="path1946" />
	<path
   class="st1"
   d="m 272.8,214.7 c 0,0 0,0 0,0 v -1 c 0.2,0.1 0.3,0.2 0.3,0.4 0,0 0,0 0,0 0,-0.2 -0.2,-0.3 -0.3,-0.4 0,0 -0.1,0 -0.1,-0.1 v 0 0 c 0,0 0.1,0 0.1,0.1 z"
   id="path1948" />
	<polygon
   class="st1"
   points="267.3,213.9 267.4,214 267.3,213.9 267.2,214.2 "
   id="polygon1950" />
	<polygon
   class="st1"
   points="279,231.9 279.3,232.4 "
   id="polygon1952" />
	<path
   class="st1"
   d="m 276.6,258.6 c 0.1,0 0.1,0 0,0 v 0 c 0.1,0 0.1,0 0,0 0.1,0 0.1,0 0,0 z"
   id="path1954" />
	<polygon
   class="st1"
   points="279.3,257.1 279.1,257.3 "
   id="polygon1956" />
	<path
   class="st1"
   d="m 278.1,270.5 -0.5,-8.1 h -0.3 v 0 h 0.3 l 0.5,8.1 v 0 c 2.2,0.5 5.4,-0.6 6.1,-0.9 0,0 0,0 0,0 -0.7,0.2 -3.9,1.3 -6.1,0.9 z"
   id="path1958" />
	<path
   class="st1"
   d="m 279.4,252.9 c 0,0.1 0.1,0.3 0.1,0.4 0,-0.1 0,-0.3 -0.1,-0.4 -0.2,-0.7 -0.8,-1.1 -1.4,-1.3 0,0 0,0 0,0 0.7,0.2 1.2,0.6 1.4,1.3 z"
   id="path1960" />
	<path
   class="st1"
   d="m 275.4,268.7 v 0 0 c 0.9,-1.5 1.6,-3.1 2,-4.7 v 0 0 c -0.4,1.7 -1.1,3.3 -2,4.7 h -0.1 l -1.1,-0.5 2.3,-8.6 v 0 l -2.3,8.6 1.1,0.5 z"
   id="path1962" />
	<path
   class="st1"
   d="m 279.7,255.5 c -0.1,0.3 -0.1,0.6 -0.3,0.9 0.2,-0.5 0.3,-0.9 0.3,-1.4 0,0.2 0,0.4 0,0.5 z"
   id="path1964" />
	
		<rect
   x="274.10001"
   y="268.5"
   transform="matrix(0.9487,-0.3162,0.3162,0.9487,-70.8313,100.4494)"
   class="st1"
   width="0.1"
   height="0"
   id="rect1966" />
	<path
   class="st1"
   d="m 277.5,265 c 0,0 0,0 0,0 0,0 0,0 0,0 z"
   id="path1968" />
	<polygon
   class="st1"
   points="277.9,270.4 277.8,270.4 277.9,270.4 278,270.1 "
   id="polygon1970" />
	<path
   class="st1"
   d="m 278.2,258.2 c 0.1,-0.1 0.2,-0.2 0.3,-0.3 0.1,-0.2 0.3,-0.3 0.4,-0.5 -0.1,0.2 -0.3,0.3 -0.4,0.5 -0.1,0.1 -0.2,0.2 -0.3,0.3 z"
   id="path1972" />
	<path
   class="st1"
   d="m 275.7,269 c 0.1,-0.1 0.2,-0.3 0.3,-0.4 l 1.7,-0.6 v 0 l -1.7,0.6 c 0,0 0,0 0,0 -0.1,0.1 -0.2,0.2 -0.3,0.4 l -0.2,-0.2 v 0 z"
   id="path1974" />
	<polygon
   class="st1"
   points="271.1,269.4 271.1,271.6 "
   id="polygon1976" />
	<path
   class="st1"
   d="m 276.1,245.1 v 0 c -2.5,-6.3 -2.4,-16.5 -2.2,-21.8 v 0 c -0.3,5.2 -0.4,15.5 2.2,21.8 z"
   id="path1978" />
	<polygon
   class="st1"
   points="274.4,221 274.4,220.7 278.5,228.9 274.4,220.7 "
   id="polygon1980" />
	<path
   class="st1"
   d="m 279,257.2 c 0,0 -0.1,0.1 -0.1,0.2 0,-0.1 0.1,-0.1 0.1,-0.2 z"
   id="path1982" />
	<path
   class="st1"
   d="m 274.2,223.1 v 0 0 0 0 c 0,0.1 0,0 0,0 z"
   id="path1984" />
	<polygon
   class="st1"
   points="276.9,231.4 277.2,231.5 276.9,231.4 276.8,231.5 "
   id="polygon1986" />
	<polygon
   class="st1"
   points="276.6,230.5 277.6,229.9 "
   id="polygon1988" />
	<polygon
   class="st1"
   points=""
   id="polygon1990" />
	<path
   class="st1"
   d="m 266.6,219.5 c 1.6,-0.2 3.3,-0.2 4.9,0 l 0.2,-0.2 2.5,0.7 v 0.2 l -0.1,0.2 -2.1,2.4 v 0.1 c -2.3,2.7 -5.5,6.5 -5.7,6.6 v 0 c 0,0 0,0 0,0 -0.6,3.7 -2.5,12.8 -2.7,13.8 3.2,3 8,2.8 10.7,2.3 -2.7,0.4 -7.5,0.7 -10.7,-2.3 0.2,-1.1 2.1,-10.1 2.7,-13.8 0,0 0,0 0,0 0.1,-0.1 3.4,-4 5.7,-6.7 l 2.1,-2.3 c 0,0 0,0 0,0 l 0.1,-0.2 -0.3,2.8 c 0,0 0,0 0,0.1 l 0.3,-2.9 v -0.2 -0.2 0 0.2 l -2.5,-0.7 -0.2,0.2 c -1.6,-0.3 -3.2,-0.3 -4.9,-0.1 z"
   id="path1992" />
	<polygon
   class="st1"
   points="261.6,209.8 260.8,209.3 260.9,208.9 260.7,208.8 260.9,208.9 260.8,209.3 261.6,209.8 261.7,210.5 "
   id="polygon1994" />
	<polygon
   class="st1"
   points="261.3,210.1 261.3,210 "
   id="polygon1996" />
	<polygon
   class="st1"
   points="261.4,211.3 260.6,210 260.7,209.7 260.5,209.6 260.6,209.3 260.5,209.6 260.7,209.7 260.6,210 261.4,211.3 260.9,214.3 "
   id="polygon1998" />
	<path
   class="st1"
   d="m 262.8,209 c 0,0 0,0 0,0 0,0 0,0 0,0 z"
   id="path2000" />
	<polygon
   class="st1"
   points="260.9,208.6 261.6,206.1 260.9,208.6 262.2,209.2 262.4,210 262.1,210.1 262.4,210 262.2,209.2 "
   id="polygon2002" />
	<polygon
   class="st1"
   points="250,223.7 249.9,223.8 "
   id="polygon2004" />
	
		<rect
   x="251.3"
   y="229.60001"
   transform="matrix(1,-0.00725935,0.00725935,1,-1.7297,1.8308)"
   class="st1"
   width="0"
   height="19.1"
   id="rect2006" />
	<polygon
   class="st1"
   points="253.2,229.6 252.5,242.5 253.2,229.6 253.3,229.4 253.2,229.4 "
   id="polygon2008" />
	<polygon
   class="st1"
   points="254.5,248.8 254.3,249 254.5,248.8 254.7,249.1 255.2,249.1 255.3,249.1 254.7,249.1 "
   id="polygon2010" />
	<polygon
   class="st1"
   points="252.5,249 252.2,248.8 252,249.1 251.3,249.1 249.3,250.1 251.3,249.1 251.7,249.1 252,249.1 252.2,248.8 "
   id="polygon2012" />
	<polygon
   class="st1"
   points="249.4,250.2 250.8,250.8 "
   id="polygon2014" />
	<path
   class="st1"
   d="m 272.9,269.1 c 1.7,0.1 3.3,0.4 4.9,1 v 0 c -1.6,-0.6 -3.3,-0.9 -4.9,-1 z"
   id="path2016" />
	<polygon
   class="st1"
   points="255.2,248.8 255.6,229.6 255.6,229.4 255.6,229.6 "
   id="polygon2018" />
	
		<rect
   x="256.29999"
   y="250.60001"
   transform="matrix(0.7682,-0.6402,0.6402,0.7682,-100.8422,222.5839)"
   class="st1"
   width="1.3"
   height="0"
   id="rect2020" />
	<polygon
   class="st1"
   points="258.4,223.4 257.1,223.9 257.4,230.3 258,230.3 "
   id="polygon2022" />
	<rect
   x="256.5"
   y="231"
   transform="matrix(0.4945,-0.8692,0.8692,0.4945,-70.8619,340.2161)"
   class="st1"
   width="1"
   height="0"
   id="rect2024" />
	<polygon
   class="st1"
   points="257,224 256.9,223.7 "
   id="polygon2026" />
	<path
   class="st1"
   d="m 244.5,253.2 c -0.2,0.7 -0.3,1.3 -0.2,2 0,-0.6 0,-1.3 0.2,-2 z"
   id="path2028" />
	<polygon
   class="st1"
   points="255.3,249 255.4,248.8 "
   id="polygon2030" />
	<path
   class="st1"
   d="m 245.4,258.2 c 0,0 0,0 0,0 0,0 0,0 0,0 0,0 0,0 0,0 z"
   id="path2032" />
	<path
   class="st1"
   d="m 246.7,264 v 0 l 0.1,-1.6 h -0.3 v 0 h 0.3 l -0.1,1.6 h -0.2 v 0 h 0.2 v 0 c 0.4,1.7 1.1,3.3 2,4.7 v 0 h 0.1 v 0 h -0.1 c -1,-1.4 -1.6,-3 -2,-4.7 z"
   id="path2034" />
	<path
   class="st1"
   d="m 245.5,270.5 c -2.2,0.3 -5,-0.7 -5.6,-0.9 1.3,-7.9 3.2,-11 3.5,-11.6 v 0 0 c -0.4,0.6 -2.2,3.7 -3.5,11.6 0.6,0.2 3.4,1.2 5.6,0.9 z"
   id="path2036" />
	<polygon
   class="st1"
   points="245,257.3 244.7,257.1 245,257.3 244.8,257.5 244.8,257.7 244.8,257.5 244.9,257.5 "
   id="polygon2038" />
	<polygon
   class="st1"
   points="258,230.4 258,230.6 "
   id="polygon2040" />
	<path
   class="st1"
   d="m 248.4,269 c -0.1,-0.1 -0.2,-0.3 -0.3,-0.4 -0.7,-1.1 -1.2,-2.4 -1.5,-3.6 -0.1,-0.3 -0.2,-0.6 -0.2,-0.9 v 0 c 0.1,0.3 0.1,0.6 0.2,0.9 l -0.2,3 v 0 l 0.2,-3 c 0.4,1.3 0.9,2.5 1.5,3.6 v 0 c 0.1,0.1 0.2,0.2 0.3,0.4 z"
   id="path2042" />
	<path
   class="st1"
   d="m 246.1,270.8 h 0.1 v -0.3 c 1.6,-0.6 3.3,-0.9 5,-1 v -0.3 c 0,0 0,0 0,0 v 0.3 c -1.7,0.1 -3.4,0.4 -5,1 v 0 0.3 h -0.1 c -0.5,0.1 -1,0.2 -1.4,0.2 -0.8,0 -1.5,-0.1 -2.3,-0.3 0.8,0.1 1.5,0.2 2.3,0.3 0.5,-0.1 0.9,-0.1 1.4,-0.2 z"
   id="path2044" />
	<path
   class="st1"
   d="m 245.7,258 c 0.2,0.3 0.5,0.5 0.9,0.6 0.3,0.1 0.5,0.1 0.8,0 -0.7,0.1 -1.3,-0.1 -1.7,-0.6 z"
   id="path2046" />
	<path
   class="st1"
   d="m 245.5,257.8 c -0.5,-0.6 -0.8,-1.3 -1,-2 0.1,0.8 0.5,1.4 1,2 z"
   id="path2048" />
	<path
   class="st1"
   d="m 248.8,257.3 c -0.2,0.6 -0.7,1.1 -1.4,1.3 0.7,-0.1 1.2,-0.6 1.4,-1.3 0.6,-1.7 0.3,-3.7 -1,-5 -0.3,-0.3 -0.7,-0.6 -1.1,-0.7 0.4,0.1 0.8,0.3 1.1,0.7 1.3,1.4 1.6,3.3 1,5 z"
   id="path2050" />
	<path
   class="st1"
   d="m 252.9,271.7 c -0.4,0.3 -3.2,2.4 -4.9,2.4 -2,0 -6.6,-0.6 -7.1,-1.4 -0.4,-0.8 -0.7,-1.7 -0.8,-2.6 0,0 0,0 0,0 0,0 0,0 0,0 0.2,0.9 0.4,1.8 0.8,2.6 0.5,0.8 5,1.5 7.1,1.4 1.7,0 4.5,-2.1 4.9,-2.4 v -2.2 0 z"
   id="path2052" />
	<path
   class="st1"
   d="m 246.9,268.5 -0.5,-0.2 -0.1,1.8 c -0.1,0 -0.2,0.1 -0.2,0.1 l 0.1,0.3 v 0 l -0.1,-0.3 c 0,0 0.1,0 0.2,-0.1 0,0 0,0 0,0 l 0.1,-1.8 z"
   id="path2054" />
	<polygon
   class="st1"
   points="251.8,211.2 251.7,211.5 "
   id="polygon2056" />
	<path
   class="st1"
   d="m 255.3,211.1 c 0,0 -0.1,0.1 -0.3,0.1 v 0 c 0.2,0 0.3,-0.1 0.3,-0.1 z"
   id="path2058" />
	<path
   class="st1"
   d="m 252.6,210.5 c -0.1,0.1 -0.2,0.1 -0.2,0.2 v 0 c 0,-0.1 0.1,-0.1 0.2,-0.2 z"
   id="path2060" />
	<path
   class="st1"
   d="m 253.3,210.1 c 0,0 0,0.1 -0.1,0.1 0,0 0,0 0,0 0.1,0 0.1,0 0.1,-0.1 0,0 0,0 0,0 z"
   id="path2062" />
	<path
   class="st1"
   d="m 253,210.8 c 0,-0.1 0.1,-0.2 0.1,-0.2 0,0 -0.1,0.1 -0.1,0.2 0,0 0,0 0,0 z"
   id="path2064" />
	<polygon
   class="st1"
   points=""
   id="polygon2066" />
	<path
   class="st1"
   d="m 269,217.9 c 0,0 0,-0.1 0,0 0,-0.1 0,0 0,0 z"
   id="path2068" />
	<path
   class="st1"
   d="m 253.3,210.1 c 0.1,0 0.1,0 0.2,0 0.2,0 0.3,0 0.5,0.1 0,0 0,0 0,0 -0.2,-0.1 -0.3,-0.1 -0.5,-0.1 -0.1,0 -0.1,0 -0.2,0 z"
   id="path2070" />
	<path
   class="st1"
   d="m 267.2,213.4 v 0 c 0,0 0,0 0,0 v 0 c -0.1,0 -0.1,0 0,0 0,0 0,0 0,0 z"
   id="path2072" />
	<path
   class="st1"
   d="m 272.6,214.9 c 0,0 0,0 0,0 l 0.2,0.2 v 1.1 c 0,0.9 -0.7,1.7 -1.6,1.8 v 0 c 0.9,-0.1 1.6,-0.9 1.6,-1.8 v -1.1 0 0 z"
   id="path2074" />
	
		<rect
   x="257.79999"
   y="230.89999"
   transform="matrix(0.6839,-0.7295,0.7295,0.6839,-87.8365,261.4211)"
   class="st1"
   width="0"
   height="2.4000001"
   id="rect2076" />
	<path
   class="st1"
   d="m 270.9,210.4 c 1,0 1.9,0.8 1.9,1.9 v 1.1 c 0,0 0,0 0,0 v -1.1 c 0,-1.1 -0.9,-1.9 -1.9,-1.9 H 269 c -0.4,0 -0.7,0.1 -1,0.3 0.3,-0.2 0.7,-0.3 1,-0.3 z"
   id="path2078" />
	<path
   class="st1"
   d="m 272.8,215.1 v 0 c 0.5,-0.3 0.7,-0.7 0.6,-1 0,-0.2 -0.2,-0.4 -0.3,-0.5 0.1,0.1 0.3,0.3 0.3,0.5 0.1,0.3 -0.1,0.6 -0.6,1 z"
   id="path2080" />
	<path
   class="st1"
   d="m 267.2,215.1 v 0 c -0.5,-0.4 -0.6,-0.7 -0.6,-1 0,-0.1 0.1,-0.3 0.2,-0.4 -0.1,0.1 -0.2,0.2 -0.2,0.4 -0.1,0.3 0.1,0.6 0.6,1 z"
   id="path2082" />
	<polygon
   class="st1"
   points="256.2,217.9 251.6,217.9 252.2,228.8 254.5,229.3 251.2,229.3 255.6,229.3 "
   id="polygon2084" />
	<rect
   x="250.5"
   y="221.60001"
   class="st1"
   width="0"
   height="0"
   id="rect2086" />
	
		<rect
   x="247.7"
   y="221.39999"
   transform="matrix(0.3158,-0.9488,0.9488,0.3158,-39.1868,388.5051)"
   class="st1"
   width="4.0999999"
   height="0"
   id="rect2088" />
	<polygon
   class="st1"
   points="250.4,218.5 250.6,217.8 250.4,218.5 248.5,223.1 248.3,223.1 248.2,223.4 248.3,223.1 248.5,223.1 "
   id="polygon2090" />
	<polygon
   class="st1"
   points=""
   id="polygon2092" />
	<polygon
   class="st1"
   points="256.2,217.8 256.5,218.5 256.3,221.6 256.5,218.5 "
   id="polygon2094" />
	<polygon
   class="st1"
   points="248.4,223.4 249.1,223.7 249.8,223.9 249.5,230.3 249.8,223.9 249.1,223.7 248.4,223.4 248.9,230.3 "
   id="polygon2096" />
	<path
   class="st1"
   d="m 253.5,217.1 c 0,0 0,0 0,0 -0.1,0 -0.3,0 -0.5,-0.1 v 0 c 0.2,0.1 0.4,0.1 0.5,0.1 z"
   id="path2098" />
	<path
   class="st1"
   d="m 252,211.3 c 0,0 0,0 0,0 0,0 0,0 0,0 0.2,0.1 0.5,0.1 0.8,0.2 v 0 c 0.4,0 0.8,0 1.2,0 -0.4,0 -0.8,0 -1.1,0 0,-0.1 0.1,-0.2 0.1,-0.3 0.2,0 0.4,0 0.5,0 0,0 0,0 0,0 -0.2,0 -0.3,0 -0.5,0 0,0 0,0 0,0 0,0.1 -0.1,0.2 -0.1,0.3 -0.4,-0.1 -0.7,-0.2 -0.9,-0.2 z"
   id="path2100" />
	<path
   class="st1"
   d="m 254.1,217 c -0.1,0 -0.3,0.1 -0.4,0.1 0.1,0 0.2,0 0.4,-0.1 z"
   id="path2102" />
	<rect
   x="248.60001"
   y="232.5"
   transform="matrix(0.6845,-0.729,0.729,0.6845,-91.3704,254.7602)"
   class="st1"
   width="0"
   height="1"
   id="rect2104" />
	<polygon
   class="st1"
   points="250.1,231.5 249.8,231.6 249.1,230.9 249.8,231.6 "
   id="polygon2106" />
	<path
   class="st1"
   d="m 291.3,230.6 c 0.1,0 0.1,0 0,0 0.1,0 0.1,0 0,0 0,0 0,0 0,0 z"
   id="path2108" />
	<path
   class="st1"
   d="m 283.9,255.1 -2,-0.8 c 1.3,-0.6 3.1,-1.3 3.4,-1.3 v 0 c -0.3,0.1 -2.1,0.8 -3.4,1.3 l 2,0.8 1.6,-1.9 z"
   id="path2110" />
	<polygon
   class="st1"
   points="282.4,253.7 281.2,252.5 "
   id="polygon2112" />
	<polygon
   class="st1"
   points="285.2,252.6 285.2,252.9 "
   id="polygon2114" />
	<path
   class="st1"
   d="m 292.2,230.8 c -0.1,0 -0.1,0 -0.2,0 0.1,0 0.1,0 0.2,0 z"
   id="path2116" />
	<path
   class="st1"
   d="m 294.7,241 c -0.3,0 -1.3,0.2 -2.3,0.3 l 1.4,-5.8 v 0 l -1.4,5.8 -0.1,0.3 c 1,-0.1 1.9,-0.2 2.3,-0.3 v 0 h 0.2 0.1 v 0 h -0.1 -0.2 c -0.4,0 -1.4,0.2 -2.3,0.3 l 0.1,-0.3 c 1.1,-0.1 2,-0.2 2.3,-0.3 0.5,-5.8 -0.2,-9.1 -0.4,-9.6 0,0 0,0 0,0 0.2,0.5 1,3.8 0.4,9.6 z"
   id="path2118" />
	<path
   class="st1"
   d="m 293.9,229.8 v 0 c -0.1,0.2 -0.2,0.3 -0.4,0.5 0.2,-0.1 0.3,-0.3 0.4,-0.5 0.5,-0.8 0.8,-1.7 0.8,-2.6 0,-1.3 -0.4,-2.4 -1,-3.1 0.6,0.7 1,1.8 1,3.1 0,0.9 -0.3,1.8 -0.8,2.6 z"
   id="path2120" />
	<polygon
   class="st1"
   points="296.1,245.6 295.8,245.6 295.8,245.7 294.4,245.8 295.8,245.8 295.8,245.6 "
   id="polygon2122" />
	<polygon
   class="st1"
   points=""
   id="polygon2124" />
	<polygon
   class="st1"
   points="288.3,246.1 288,246.1 286.8,246.2 287.6,255.1 288,255.1 287.6,255.1 286.8,246.2 288,246.1 "
   id="polygon2126" />
	<polygon
   class="st1"
   points="290.8,242.6 290.9,241.8 290.2,241.9 289.9,241.9 290.2,241.9 290.9,241.8 "
   id="polygon2128" />
	<polygon
   class="st1"
   points="286.1,246.2 285.5,246.2 286.1,246.2 285.9,252.6 286.1,246.2 286.1,246.1 286.4,246.1 286.1,246.1 "
   id="polygon2130" />
	<polygon
   class="st1"
   points="288.2,250.9 288.2,251 "
   id="polygon2132" />
	<path
   class="st1"
   d="m 292.4,231.8 c 0.2,-0.1 0.4,-0.1 0.5,-0.2 -0.2,0 -0.3,0.1 -0.5,0.2 v 0 0.2 0 z"
   id="path2134" />
	<path
   class="st1"
   d="m 293.2,230.9 v -0.2 0 0.2 c -0.3,0.2 -0.6,0.2 -0.9,0.3 v 0 c 0.3,-0.1 0.6,-0.2 0.9,-0.3 z"
   id="path2136" />
	<path
   class="st1"
   d="m 293.3,231.4 v 0 c -0.1,0 -0.3,0.1 -0.4,0.2 0.2,-0.1 0.3,-0.1 0.4,-0.2 z"
   id="path2138" />
	<polygon
   class="st1"
   points="288.3,250.1 294.3,250.1 288.2,250.1 288.2,249.8 288.2,250.1 "
   id="polygon2140" />
	<polygon
   class="st1"
   points="294.1,245.7 294.1,245.8 288.3,246.1 288.3,249.8 294.3,249.8 294.1,245.8 294.1,245.7 294.4,245.7 "
   id="polygon2142" />
	<path
   class="st1"
   d="m 290.9,230.2 c 0,0 0,0 0,0 0,0 0,0 0,0 z"
   id="path2144" />
	<path
   class="st1"
   d="m 293,230.6 c -0.1,0 -0.2,0.1 -0.3,0.1 0.1,0 0.2,0 0.3,-0.1 z"
   id="path2146" />
	<path
   class="st1"
   d="m 291.8,230.8 c -0.1,0 -0.1,0 -0.2,0 0.1,-0.1 0.2,-0.1 0.2,0 z"
   id="path2148" />
	<path
   class="st1"
   d="m 293.5,230.3 c -0.1,0.1 -0.3,0.2 -0.5,0.3 0.2,-0.1 0.4,-0.2 0.5,-0.3 z"
   id="path2150" />
	<path
   class="st1"
   d="m 292.6,230.8 c -0.1,0 -0.2,0 -0.3,0 0.1,0 0.2,0 0.3,0 z"
   id="path2152" />
	<path
   class="st1"
   d="m 282.4,253.7 v 0 c 0.9,-0.4 2.2,-0.9 2.7,-1 0,0 0,0 0,0 v -0.4 h 0.1 v -0.3 0 0.3 h -0.1 v 0.4 c -0.5,0.1 -1.8,0.6 -2.7,1 z"
   id="path2154" />
	
		<rect
   x="237.3"
   y="245"
   transform="matrix(0.08129036,-0.9967,0.9967,0.08129036,-26.137,461.6194)"
   class="st1"
   width="0.2"
   height="0"
   id="rect2156" />
	<polygon
   class="st1"
   points="235.9,248.6 235.9,245 230.1,244.7 229.9,248.6 236,248.6 "
   id="polygon2158" />
	<polygon
   class="st1"
   points="238.5,251.8 239.5,253 "
   id="polygon2160" />
	<polygon
   class="st1"
   points="229.8,244.7 229.3,253.9 229.8,244.7 229.8,244.6 "
   id="polygon2162" />
	<polygon
   class="st1"
   points="238.4,244.8 238.5,243.4 238.4,244.8 227.9,244.3 227.9,242.8 227.9,244.3 "
   id="polygon2164" />
	<path
   class="st1"
   d="m 229.5,226.1 c 0,-0.9 0.2,-1.8 0.7,-2.6 0.3,-0.6 1,-1 1.7,-1.1 0.5,0 1,0.2 1.4,0.6 -0.4,-0.4 -0.9,-0.6 -1.4,-0.6 -0.7,0.1 -1.3,0.5 -1.7,1.1 -0.5,0.8 -0.8,1.7 -0.7,2.6 0,0.5 0.1,1 0.3,1.5 -0.2,-0.5 -0.3,-1 -0.3,-1.5 z"
   id="path2166" />
	<rect
   x="228.10001"
   y="242.8"
   class="st1"
   width="0"
   height="0"
   id="rect2168" />
	<polygon
   class="st1"
   points="296,243.9 294.5,243.9 294.5,243.9 296,243.9 296,243.9 296,243.9 296.3,243.9 296.3,245.4 296.3,245.4 296.3,243.9 296.1,243.9 294.6,243.9 291.9,243.8 291.8,243.8 285.6,243.6 291.9,243.8 294.5,243.9 296,243.9 "
   id="polygon2170" />
	<path
   class="st1"
   d="m 238.9,251.8 0.1,-0.3 c 0,0 0,0 0,0 l -0.1,0.3 v 0 0 c 0.3,0.1 2.1,0.8 3.4,1.3 v 0 c -1.3,-0.5 -3.1,-1.2 -3.4,-1.3 z"
   id="path2172" />
	<polygon
   class="st1"
   points="239.1,251.5 239.2,251.2 239,251.2 239.1,250.8 239,251.2 239.2,251.2 "
   id="polygon2174" />
	<polygon
   class="st1"
   points="239.2,251.2 242.9,251.4 "
   id="polygon2176" />
	<polygon
   class="st1"
   points="234,240.8 234.3,240.8 "
   id="polygon2178" />
	<polygon
   class="st1"
   points="233.2,240.4 233.3,240.7 234,240.8 233.3,240.7 "
   id="polygon2180" />
	<polygon
   class="st1"
   points="236,242.3 238.9,242.2 "
   id="polygon2182" />
	<polygon
   class="st1"
   points="238.1,245.1 238.3,251.5 "
   id="polygon2184" />
	<polygon
   class="st1"
   points="235.8,241.7 233.6,241.5 "
   id="polygon2186" />
	<polygon
   class="st1"
   points="231.9,241.1 231.8,240.5 "
   id="polygon2188" />
	<polygon
   class="st1"
   points="230.3,234.4 231.7,240.2 231.8,240.5 231.7,240.2 "
   id="polygon2190" />
	<path
   class="st1"
   d="m 233.8,240.4 v 0 c -0.8,-2.9 -1.2,-6 -1.1,-9.1 -1.2,-0.5 -2.5,-1 -2.9,-1.1 0,0 0,0 0,0 0.4,0.1 1.7,0.6 2.9,1.1 -0.1,3.1 0.2,6.2 1.1,9.1 z"
   id="path2192" />
	<polygon
   class="st1"
   points="231.5,232.2 233.1,241.8 235,241.9 233.1,241.8 "
   id="polygon2194" />
	<polygon
   class="st1"
   points="235,242.3 235.6,242.3 "
   id="polygon2196" />
	<polygon
   class="st1"
   points="292.7,233.4 291.1,242.9 292.7,233.4 292.3,233.3 "
   id="polygon2198" />
	<rect
   x="256"
   y="276"
   transform="matrix(0.8042,-0.5944,0.5944,0.8042,-114.2259,206.2835)"
   class="st1"
   width="0"
   height="1.1"
   id="rect2200" />
	<polygon
   class="st1"
   points="279.2,257.5 279.6,258.1 "
   id="polygon2202" />
	<polygon
   class="st1"
   points="294.9,243.6 296.1,228.2 298,228.2 296.2,240.6 298,228.2 296.1,228.2 "
   id="polygon2204" />
	<polygon
   class="st1"
   points="291,241.5 290.4,241.5 291,241.5 292.2,233.9 "
   id="polygon2206" />
	<path
   class="st1"
   d="m 262.3,255.4 c 1.5,0 2.7,1.8 2.7,4.1 0,1.4 -0.5,2.7 -1.2,3.4 0.7,-0.7 1.2,-2 1.2,-3.4 0,-2.3 -1.2,-4.1 -2.7,-4.1 -0.6,0 -1.1,0.3 -1.5,0.7 0.4,-0.4 0.9,-0.7 1.5,-0.7 z"
   id="path2208" />
	<polygon
   class="st1"
   points="291.7,243.5 291.6,243.7 "
   id="polygon2210" />
	<polygon
   class="st1"
   points="294.9,243.6 294.6,243.5 292,243.5 294.6,243.5 "
   id="polygon2212" />
	<path
   class="st1"
   d="m 266.3,266.5 3.2,9.4 3.1,0.7 c -0.1,0.2 -0.1,0.4 -0.2,0.5 v 0 c 0.1,-0.2 0.2,-0.4 0.2,-0.5 l -3.1,-0.7 z"
   id="path2214" />
	<polygon
   class="st1"
   points="266.7,270.9 266.4,271 "
   id="polygon2216" />
	<path
   class="st1"
   d="m 265.2,276.6 c 0.8,-0.2 1.4,-0.4 1.7,-0.5 l -0.2,-1.8 0.2,1.8 c -0.2,0.1 -0.8,0.3 -1.7,0.5 z"
   id="path2218" />
	<path
   class="st1"
   d="m 278.7,258.1 v 0 c 0.2,-0.2 0.4,-0.4 0.5,-0.6 -0.1,0.2 -0.3,0.4 -0.5,0.6 z"
   id="path2220" />
	<path
   class="st1"
   d="m 257.3,276.1 v 0 c 0.1,0 0.1,0 0,0 0.1,0 0.1,0 0,0 z"
   id="path2222" />
	<polygon
   class="st1"
   points="268.5,276 266.7,270.9 "
   id="polygon2224" />
	<path
   class="st1"
   d="m 288.9,243.1 h -0.3 c 0,0.1 0,0.1 -0.1,0.2 v 0 c 0,-0.1 0,-0.2 0.1,-0.2 z"
   id="path2226" />
	<path
   class="st1"
   d="m 283.9,270 c 0,0 0,0 0,0 0,-0.2 0.1,-0.3 0.1,-0.3 v 0 c 0,0.1 0,0.2 -0.1,0.3 z"
   id="path2228" />
	<path
   class="st1"
   d="m 261.2,277.5 c 0.7,0 1.5,-0.1 2.2,-0.2 0.9,-0.1 1.7,-0.3 2.5,-0.5 l -1,2 c -2,0.5 -4.1,0.5 -6.1,0 v 0 c 2,0.5 4.1,0.5 6.1,0 l 1,-2 v 0 c -0.8,0.2 -1.7,0.4 -2.5,0.5 -0.7,0.1 -1.5,0.1 -2.2,0.2 -1.1,0 -2.2,-0.2 -3.2,-0.6 l -0.2,-0.4 -0.3,0.1 v 0 l 0.3,-0.1 0.2,0.4 c 1,0.4 2.1,0.6 3.2,0.6 z"
   id="path2230" />
	<polygon
   class="st1"
   points=""
   id="polygon2232" />
	<polygon
   class="st1"
   points="293.6,235.4 293.8,235.5 "
   id="polygon2234" />
	<path
   class="st0"
   d="m 233.3,240.7 0.1,0.8 h 0.2 l 2.2,0.2 v 0 0 0.1 c 0,0 0.1,0.2 0.1,0.4 l 3,-0.1 v 0 0 l -0.2,2.9 h -0.6 l 0.2,6.4 h 0.6 l 1.3,-10.6 -5.9,-0.1 v 0 0 0 h -0.2 v 0 0 0 0 z"
   id="path2236" />
	<path
   class="st0"
   d="m 253.3,210.1 v 0 c 0,0 0,0.1 -0.1,0.1 0.3,0 0.5,0 0.8,0 -0.2,-0.1 -0.3,-0.1 -0.5,-0.1 -0.1,0 -0.1,0 -0.2,0 z"
   id="path2238" />
	<path
   class="st0"
   d="m 235,242.3 h 0.6 c 0,-0.1 0,-0.2 -0.1,-0.3 l -0.6,-0.1 -1.8,-0.2 -1.6,-9.5 v 0 0 l 0.3,-0.1 1.4,8.2 v 0 0 0 l 0.6,0.1 c -0.9,-2.9 -1.2,-6 -1.1,-9.1 -1.2,-0.5 -2.5,-1 -2.9,-1.1 -0.2,0.5 -0.8,3.4 -0.5,8.4 l 0.1,1.3 c 0.3,0 1.3,0.2 2.2,0.3 l -1.4,-5.8 v 0 0 l 0.3,-0.1 1.9,8 v 0 0 0 z"
   id="path2240" />
	<path
   class="st0"
   d="m 229.4,239.9 v 0 c 0,0 0,0 0,0 0,-0.4 -0.1,-0.9 -0.1,-1.3 v -0.3 c 0,0.1 0,0.2 0,0.3 l 0.1,1.3 c 0,0 0,0 0,0 z"
   id="path2242" />
	<polygon
   class="st0"
   points=""
   id="polygon2244" />
	<path
   class="st0"
   d="m 231.8,240.5 c -0.9,-0.1 -1.9,-0.2 -2.3,-0.3 v 0 c 0,0 0,0 0,0 v 0 l 0.2,2.2 2.6,-0.1 -0.3,-1.3 z"
   id="path2246" />
	<polygon
   class="st0"
   points="228.4,242.5 229.3,242.4 228.1,227.1 226.2,227.1 "
   id="polygon2248" />
	<path
   class="st0"
   d="m 254.1,217 c -0.1,0 -0.3,0.1 -0.4,0.1 0,0 -0.1,0 -0.1,0 0,0 0,0 0,0 v 0 c -0.2,0 -0.3,0 -0.5,-0.1 v 0.6 h 1 v 0 0 z"
   id="path2250" />
	<polygon
   class="st0"
   points="258,230.6 257.3,230.6 256.8,231.5 257.1,231.6 257.7,230.9 257.9,233.3 258.6,232.6 "
   id="polygon2252" />
	<path
   class="st0"
   d="m 253.4,211.1 c 0,0 0,0 0,0 -0.2,0 -0.3,0 -0.5,0 0,0.1 -0.1,0.2 -0.1,0.3 0.4,0 0.8,0 1.1,0 0.4,0 0.8,-0.1 1.1,-0.2 0,0 0,0 0,0 v 0 c 0,-0.1 -0.1,-0.2 -0.1,-0.2 -0.5,0.1 -1,0.1 -1.5,0.1 0,0 0,0 0,0 z"
   id="path2254" />
	<path
   class="st0"
   d="m 253,210.8 c 0.6,0 1.1,0 1.7,-0.1 -0.1,-0.1 -0.1,-0.1 -0.2,-0.2 v 0 c -0.4,0 -0.7,0.1 -1.1,0.1 -0.1,0 -0.2,0 -0.3,0 0,0 -0.1,0.1 -0.1,0.2 0,0 0,0 0,0 z"
   id="path2256" />
	<path
   class="st0"
   d="m 253.4,211.8 c -0.2,0 -0.5,0 -0.7,-0.1 -0.6,1.7 -0.3,3.6 0.8,5.1 0,0 0,0 0,0 0,0 0,0 0,0 0,0 0.1,0 0.1,0 1.1,0 2,-1.5 2,-3.3 0,-0.7 -0.1,-1.3 -0.4,-2 0,0 0,0 0,0 -0.6,0.2 -1.2,0.3 -1.8,0.3 z"
   id="path2258" />
	<path
   class="st0"
   d="m 239.1,251.5 c 0.5,0.1 1.8,0.7 2.7,1 v 0 l 1.1,-1.2 -3.8,-0.3 z"
   id="path2260" />
	<path
   class="st0"
   d="m 248,274.1 c 1.7,0 4.5,-2.1 4.9,-2.4 v -2.2 l -2.9,-1 v 0 l -1.3,0.6 -1.8,-0.7 -0.5,-0.2 -0.1,1.8 c 1.6,-0.5 3.2,-0.9 4.9,-1 v 0 c 0,0 0,0 0,0 v 0.3 c -1.7,0.1 -3.4,0.4 -5,1 v 0.3 h -0.1 c -0.5,0.1 -1,0.2 -1.4,0.2 -0.8,0 -1.5,-0.1 -2.3,-0.3 -0.8,-0.1 -1.5,-0.4 -2.2,-0.6 0.2,0.9 0.4,1.8 0.8,2.6 0.4,1 5,1.6 7,1.6 z"
   id="path2262" />
	<path
   class="st0"
   d="m 244.8,257.7 -0.3,0.4 1.7,0.7 c -0.3,-0.1 -0.5,-0.3 -0.7,-0.5 0,0 0,0 -0.1,-0.1 0,0 0,0 0,0 0,0 0,0 0,0 -0.2,-0.2 -0.4,-0.4 -0.5,-0.6 v 0 z"
   id="path2264" />
	<path
   class="st0"
   d="m 239,251.8 v 0 h -0.5 l 1,1.2 0.8,1 2,-0.8 c -1.3,-0.6 -3.1,-1.3 -3.3,-1.4 z"
   id="path2266" />
	<path
   class="st0"
   d="m 244.4,255.2 c 0,0.1 0,0.2 0,0.3 v 0 c 0,0.1 0,0.2 0.1,0.3 0.2,0.7 0.5,1.4 1,2 0,0 0.1,0.1 0.1,0.1 0,0 0.1,0 0.1,0.1 0.4,0.5 1.1,0.7 1.7,0.6 0,0 0,0 0.1,0 0.7,-0.2 1.2,-0.7 1.4,-1.3 0.6,-1.7 0.3,-3.7 -1,-5 -0.3,-0.3 -0.7,-0.6 -1.1,-0.7 -0.1,0 -0.3,-0.1 -0.4,-0.1 -0.1,0 -0.2,0 -0.3,0 -0.7,0.2 -1.2,0.7 -1.4,1.3 0,0.1 -0.1,0.2 -0.1,0.3 -0.3,0.8 -0.3,1.5 -0.2,2.1 z"
   id="path2268" />
	<path
   class="st0"
   d="m 246.6,264.9 -0.2,3 1.7,0.6 c 0,0 0,0 0,0 v 0 c -0.6,-1.1 -1.2,-2.3 -1.5,-3.6 z"
   id="path2270" />
	<polygon
   class="st0"
   points="229.3,253.9 229.8,244.7 228.4,244.6 228.4,253.9 "
   id="polygon2272" />
	<polygon
   class="st0"
   points="227.9,242.8 227.9,244.3 238.4,244.8 238.5,243.4 238.6,242.5 232.3,242.7 229.6,242.8 228.1,242.8 "
   id="polygon2274" />
	<path
   class="st0"
   d="m 230.8,230.3 c 0.3,0.1 0.6,0.2 1,0.4 v -0.6 c -0.3,0 -0.6,-0.1 -0.9,-0.3 z"
   id="path2276" />
	<path
   class="st0"
   d="m 230.1,223.5 c -0.5,0.8 -0.7,1.7 -0.7,2.6 0,0.5 0.1,1 0.3,1.5 0.4,1.3 1.3,2.1 2.3,2.1 0.7,-0.1 1.3,-0.5 1.7,-1.1 0.5,-0.8 0.7,-1.7 0.7,-2.6 0,-1.3 -0.5,-2.4 -1.2,-3 -0.4,-0.4 -0.9,-0.6 -1.4,-0.6 -0.7,0 -1.3,0.5 -1.7,1.1 z"
   id="path2278" />
	<polygon
   class="st0"
   points="229.8,249.6 235.9,249.8 235.9,249 229.9,249 "
   id="polygon2280" />
	<polygon
   class="st0"
   points="237.3,245.1 236.2,245 236.2,254 236.6,254 "
   id="polygon2282" />
	<polygon
   class="st0"
   points="272.3,248.5 272,248.8 274.7,250.3 276,248.9 "
   id="polygon2284" />
	<path
   class="st0"
   d="m 269,219 c 0,-0.3 0,-0.7 0,-1 v 0 c -0.3,0 -0.5,-0.1 -0.7,-0.2 -0.7,-0.3 -1.1,-0.9 -1.1,-1.7 v -1.1 0 0 c -0.4,-0.3 -0.6,-0.7 -0.6,-1 0,-0.1 0.1,-0.3 0.2,-0.4 0.1,-0.1 0.2,-0.2 0.4,-0.3 v 0 c 0,0 0,0 0,0 v -1.2 c 0,-0.6 0.3,-1.2 0.8,-1.5 0.3,-0.2 0.7,-0.3 1,-0.3 h 1.9 c 1,0 1.9,0.8 1.9,1.9 v 1.1 c 0,0 0.2,0.1 0.3,0.2 0.1,0.1 0.3,0.3 0.3,0.5 0,0.3 -0.2,0.7 -0.6,1 v 0 0 0 0 1.1 c 0,0.9 -0.7,1.7 -1.6,1.8 v 1.1 0 c 1,0 2,0.2 3,0.5 v 0 c 0.2,-0.1 0.5,-0.1 0.6,-0.2 -0.8,-1.1 -1,-3.7 -1.1,-6 0,-1.1 -0.1,-2.3 -0.4,-3.4 -0.2,-0.5 -0.7,-0.7 -1.2,-0.8 -1,-0.2 -2.1,0 -2.1,0 v 0 0 0 0 c -0.3,0 -0.5,-0.1 -0.8,-0.1 -0.3,0 -0.5,0 -0.8,0 -1.1,0.1 -1.7,0.6 -1.8,1.4 -0.2,1.2 -0.3,2.4 -0.3,3.6 v 0 c 0,1.6 -0.2,3.1 -0.4,4.6 l 0.8,0.3 c 0,0 0,0 0,0 v 0 c 0,0.2 1,0.1 2.3,0.1 z"
   id="path2286" />
	<path
   class="st0"
   d="m 270.8,218.1 c -0.5,0.1 -1.1,0.1 -1.6,0 0,0.1 0,0.2 0,0.3 0,0 0,0.1 0,0.1 0,0.1 0,0.2 0,0.4 h 1.5 v -0.8 z"
   id="path2288" />
	<path
   class="st0"
   d="m 266.9,214.1 c 0,0.2 0.1,0.4 0.2,0.5 v -0.9 c -0.1,0.2 -0.2,0.3 -0.2,0.4 z"
   id="path2290" />
	<path
   class="st0"
   d="m 267.7,245.6 0.5,2.1 h 0.1 l 0.5,-1.9 c -0.5,0 -0.8,-0.1 -1.1,-0.2 z"
   id="path2292" />
	<polygon
   class="st0"
   points="257.5,250.3 257.8,250.1 255.3,249.1 255.2,249.1 "
   id="polygon2294" />
	<path
   class="st0"
   d="m 272.1,220.2 c 0.2,-0.2 0.3,-0.4 0.4,-0.5 v 0 l -0.7,-0.2 -5.4,6.8 v 0 c 0,0 0,0 0,0 v 0 c 0,0.2 0,0.3 0,0.5 0.2,-0.2 0.6,-0.7 1,-1.2 1.4,-1.6 3.6,-4.2 4.7,-5.4 z"
   id="path2296" />
	<path
   class="st0"
   d="m 266.6,219.5 v 0 0 c 0,0.7 -0.1,4 -0.2,6.3 l 5.1,-6.4 v 0 c -1.6,-0.1 -3.2,-0.1 -4.9,0.1 z"
   id="path2298" />
	<path
   class="st0"
   d="m 273.9,223.1 v 0 c 0.1,-1.3 0.1,-2.3 0.2,-2.8 l -2.1,2.3 c -2.3,2.7 -5.6,6.6 -5.7,6.7 0,0 0,0 0,0 -0.6,3.7 -2.5,12.8 -2.7,13.8 3.2,3 8,2.8 10.7,2.3 0.9,-0.1 1.6,-0.3 1.8,-0.4 v 0 c -2.6,-6.3 -2.5,-16.5 -2.2,-21.8 v 0 -0.1 0 -0.1 c 0,0 0,0 0,-0.1 z"
   id="path2300" />
	<polygon
   class="st0"
   points="266.3,219.4 264.3,218.7 263.8,213.4 262.7,212.9 263,213.8 262,215.2 260.6,214.5 260.7,213.6 258.9,215.3 263.2,222.2 266.1,221.5 "
   id="polygon2302" />
	<polygon
   class="st0"
   points="264.3,248.6 265.5,249.9 268.3,248.4 267.9,248.1 "
   id="polygon2304" />
	<path
   class="st0"
   d="m 271.1,214.5 c -0.7,-0.3 -1.4,-0.3 -2.1,0 -0.5,0.1 -1.1,0 -1.6,-0.2 v 1.8 c 0,0.8 0.7,1.5 1.5,1.5 h 1.9 v -0.2 0 0 l 0.2,0.2 v 0 0 c 0.8,0 1.5,-0.7 1.5,-1.5 v -1.8 c -0.3,0.2 -0.6,0.3 -0.9,0.3 -0.2,0 -0.4,0 -0.5,-0.1 z"
   id="path2306" />
	<path
   class="st0"
   d="m 267.4,212.2 v 1.7 0 0 0 c 0.5,0.2 1,0.3 1.5,0.2 0.7,-0.3 1.5,-0.3 2.3,0 0.4,0.2 0.9,0.1 1.3,-0.3 v -1.7 c 0,-0.8 -0.7,-1.5 -1.5,-1.5 h -2 c -0.9,0.1 -1.6,0.8 -1.6,1.6 z"
   id="path2308" />
	<path
   class="st0"
   d="m 272.8,213.7 v 1 c 0.2,-0.2 0.4,-0.4 0.3,-0.6 0,-0.2 -0.2,-0.3 -0.3,-0.4 z"
   id="path2310" />
	<path
   class="st0"
   d="m 271.5,246 0.5,2.1 h 0.1 l 0.5,-2.2 c -0.3,0.1 -0.7,0.1 -1.1,0.1 z"
   id="path2312" />
	<polygon
   class="st0"
   points="248.5,223.1 249.1,223.4 250.4,219.5 250.4,218.5 "
   id="polygon2314" />
	<polygon
   class="st0"
   points="249,233.3 249.1,230.9 249.8,231.6 250.1,231.5 249.6,230.6 248.9,230.6 248.3,232.6 "
   id="polygon2316" />
	<polygon
   class="st0"
   points="255.2,248.8 255.6,229.6 254.4,229.6 254.9,248.8 "
   id="polygon2318" />
	<polygon
   class="st0"
   points="251.2,250.3 252,249.1 251.7,249.1 "
   id="polygon2320" />
	<polygon
   class="st0"
   points="252.4,229.6 251.8,248.8 252.2,248.8 252.5,242.5 253.2,229.6 "
   id="polygon2322" />
	<polygon
   class="st0"
   points="249.2,230.3 249.1,223.7 248.4,223.4 248.9,230.3 "
   id="polygon2324" />
	<polygon
   class="st0"
   points="277.6,229.9 276.6,230.5 277.5,232 278.9,232.6 279.3,232.4 279,231.9 "
   id="polygon2326" />
	<path
   class="st0"
   d="m 261.4,211.3 -0.5,3 0.9,0.5 0.8,-1 -0.6,-2.4 1.2,-2 -0.2,-0.4 c -0.1,0 -0.1,0.1 -0.2,0.1 0,0 -0.1,0 -0.1,0 0,0 -0.1,0.1 -0.1,0.1 -0.1,0.1 -0.2,0.1 -1,-0.7 v 0 -2.2 h -0.1 l -0.6,2.5 1.3,0.6 0.2,0.9 -0.3,0.1 v 0 0 l -0.2,-0.7 -1.1,-0.5 -0.1,0.5 0.8,0.4 0.2,0.7 v 0 0 l -0.3,0.1 -0.1,-0.5 v -0.1 l -0.6,-0.3 v 0 l -0.1,0.3 z"
   id="path2328" />
	<path
   class="st0"
   d="m 245.5,270.5 c 0.1,0 0.3,0 0.4,-0.1 l 0.5,-8.1 v 0 0 h 0.3 l -0.1,1.6 v 0 c 0.4,1.7 1.1,3.3 2,4.7 h 0.1 l 1.1,-0.5 -2.3,-8.6 -4.1,-1.6 c -0.4,0.6 -2.2,3.7 -3.5,11.6 0.6,0.3 3.4,1.3 5.6,1 z"
   id="path2330" />
	<path
   class="st0"
   d="m 274.4,221 -0.2,2.1 v 0 c 0,0 0,0 0,0.1 v 0 l 1,7.8 3.3,-2.1 -4.1,-8.2 z"
   id="path2332" />
	<polygon
   class="st0"
   points="276.5,231 276.3,231.7 276.5,232.2 276.6,232.2 276.8,231.5 "
   id="polygon2334" />
	<polygon
   class="st0"
   points="256.5,218.5 256.3,221.6 257,223.6 258.4,223.1 "
   id="polygon2336" />
	<path
   class="st0"
   d="m 283.9,270 c -1.5,0.5 -3,0.8 -4.5,0.9 -0.5,0 -1,0 -1.4,-0.2 h -0.1 v -0.3 0 0 0 c -1.6,-0.6 -3.3,-0.9 -5,-1 v -0.3 c 0,0 0,0 0,0 v 0 c 1.7,0.1 3.3,0.4 4.9,1 l -0.1,-1.8 -2.4,0.9 -1.3,-0.6 v 0 0 0 l -2.9,1 v 2.2 c 0.4,0.3 3.2,2.4 4.9,2.4 2,0 6.6,-0.6 7.1,-1.4 0.4,-1 0.6,-1.9 0.8,-2.8 0,0 0,0 0,0 0,0 0,0 0,0 z"
   id="path2338" />
	<polygon
   class="st0"
   points="288.3,250.9 294.3,250.7 294.3,250.1 288.3,250.1 "
   id="polygon2340" />
	<polygon
   class="st0"
   points="287.6,255.1 288,255.1 288,246.1 286.8,246.2 "
   id="polygon2342" />
	<path
   class="st0"
   d="m 278.2,258.2 c 0.1,-0.1 0.2,-0.2 0.3,-0.3 0.1,-0.2 0.3,-0.3 0.4,-0.5 0,0 0,0 0,0 0,0 0.1,-0.1 0.1,-0.2 0.2,-0.3 0.3,-0.5 0.4,-0.8 0.1,-0.3 0.2,-0.6 0.3,-0.9 v 0 c 0,-0.2 0.1,-0.3 0.1,-0.5 0,-0.6 0,-1.2 -0.2,-1.7 0,-0.1 -0.1,-0.3 -0.1,-0.4 -0.2,-0.7 -0.8,-1.1 -1.4,-1.3 -0.1,0 -0.2,0 -0.3,0 -0.6,0 -1.1,0.3 -1.5,0.7 -1.2,1.4 -1.6,3.3 -1,5 0.2,0.6 0.7,1.1 1.4,1.3 0,0 0.1,0 0.1,0 0.4,0.1 0.9,-0.1 1.4,-0.4 z"
   id="path2344" />
	<path
   class="st0"
   d="m 275.3,268.8 h 0.1 c 0.9,-1.5 1.6,-3.1 2,-4.7 l -0.1,-1.6 v 0 0 h 0.3 l 0.5,8.1 c 2.2,0.5 5.4,-0.6 6.1,-0.9 -1.3,-7.9 -3.2,-11 -3.5,-11.6 l -4.1,1.6 -2.3,8.6 z"
   id="path2346" />
	<path
   class="st0"
   d="m 278.7,258.1 v 0 0 c 0,0 0,0 0,0 v 0 c -0.2,0.2 -0.5,0.4 -0.8,0.6 l 1.6,-0.6 v 0 l -0.3,-0.6 c -0.1,0.2 -0.3,0.4 -0.5,0.6 z"
   id="path2348" />
	<path
   class="st0"
   d="m 283.9,255.1 1.6,-1.9 0.2,-0.3 h -0.5 v 0 0 0 0 0 0 c -0.3,0.1 -2.1,0.8 -3.4,1.3 z"
   id="path2350" />
	<path
   class="st0"
   d="m 277.5,265 c 0,0 0,0 0,0 -0.4,1.3 -0.9,2.4 -1.5,3.6 l 1.7,-0.6 z"
   id="path2352" />
	<path
   class="st0"
   d="m 292.9,231.6 c 0.2,-0.1 0.3,-0.1 0.4,-0.2 v 0 l -0.1,-0.5 c -0.3,0.2 -0.6,0.2 -0.9,0.3 v 0 0.7 c 0.3,-0.2 0.4,-0.3 0.6,-0.3 0,0 0,0 0,0 z"
   id="path2354" />
	<path
   class="st0"
   d="m 292.4,241.6 -0.4,1.8 2.6,0.1 v 0 0 l 0.2,-2.2 c -0.4,0.1 -1.4,0.2 -2.4,0.3 z"
   id="path2356" />
	<polygon
   class="st0"
   points="294.4,245.8 294.9,255 295.8,255 295.8,245.8 "
   id="polygon2358" />
	<path
   class="st0"
   d="m 292.3,230.8 c 0.1,0 0.2,0 0.3,0 0,0 0.1,0 0.1,0 0.1,0 0.2,-0.1 0.3,-0.1 0,0 0,0 0,0 0.2,-0.1 0.4,-0.2 0.5,-0.3 0,0 0,0 0,0 0.1,-0.1 0.3,-0.3 0.4,-0.5 v 0 c 0.5,-0.8 0.8,-1.7 0.8,-2.6 0,-1.3 -0.4,-2.4 -1,-3.1 -0.4,-0.4 -0.8,-0.6 -1.3,-0.7 -1.3,0 -2.5,1.6 -2.5,3.6 0,0.9 0.2,1.8 0.7,2.6 v 0 c 0.1,0.2 0.2,0.3 0.3,0.5 0,0 0,0 0,0 0.1,0.1 0.3,0.3 0.5,0.3 0,0 0.1,0 0.1,0 0.1,0 0.1,0.1 0.2,0.1 0.1,0 0.1,0 0.2,0 0.1,0 0.1,0 0.2,0 0.1,0 0.1,0 0.2,0 -0.1,0.2 0,0.2 0,0.2 z"
   id="path2360" />
	<path
   class="st0"
   d="m 285,252.7 v -0.4 0 l -3.8,0.2 1.1,1.2 c 1,-0.4 2.3,-0.9 2.7,-1 z"
   id="path2362" />
	<path
   class="st0"
   d="m 265.2,276.6 c 0.8,-0.2 1.4,-0.4 1.7,-0.5 l -0.2,-1.8 -0.9,-9.2 c -2.3,-1.4 -5.2,-1.4 -7.5,0 l -1,11 c 0,0 0.1,0 0.1,0 2.2,1.6 5.7,1 7.8,0.5 z"
   id="path2364" />
	<path
   class="st0"
   d="m 292.5,241.3 c 1,-0.1 1.9,-0.2 2.3,-0.3 0.5,-5.8 -0.2,-9.1 -0.4,-9.6 -0.4,0.1 -1.7,0.6 -2.9,1.1 0.2,3.1 -0.2,6.1 -1.1,9.1 l 0.6,-0.1 1.3,-7.5 0.1,-0.6 v 0 0 l 0.3,0.1 -1.6,9.5 v 0 0 l -2.2,0.2 h -0.3 c 0,0.1 0,0.1 -0.1,0.2 l 3.1,0.1 v 0 0 l 1.9,-8 v 0 0 h 0.2 0.1 v 0 0 z"
   id="path2366" />
	<polygon
   class="st0"
   points="291.9,243.8 285.6,243.6 285.8,245.9 296.3,245.4 296.3,243.9 296,243.9 294.5,243.9 "
   id="polygon2368" />
	<path
   class="st0"
   d="m 285.5,246.2 v 0 0 l -0.2,-3 3,0.1 v 0 0 c 0.1,-0.2 0.1,-0.4 0.1,-0.4 v -0.1 l 2.4,-0.2 v 0 l 0.1,-0.8 -0.8,0.1 h -0.3 v 0 0 0 l -5.9,0.1 1.3,10.6 h 0.6 l 0.2,-6.4 z"
   id="path2370" />
	<path
   class="st0"
   d="m 254.8,276.9 v 0 l 1,0.5 0.4,-0.3 -0.5,-1 v 0 0 l 1.8,-5.3 v 0 l 0.4,-4.2 -3.1,9.3 -3.1,0.7 c 0.1,0.2 0.1,0.4 0.2,0.5 0.9,-0.1 1.9,-0.2 2.9,-0.2 z"
   id="path2372" />
	<polygon
   class="st0"
   points="294.9,243.6 295.8,243.6 296.2,240.6 298,228.2 296.1,228.2 "
   id="polygon2374" />
	<path
   class="st0"
   d="m 262.3,255.4 c -0.6,0 -1.1,0.3 -1.5,0.7 -0.7,0.7 -1.2,2 -1.2,3.4 0,2.3 1.2,4.1 2.7,4.1 0.6,0 1.1,-0.3 1.5,-0.7 0.7,-0.7 1.2,-2 1.2,-3.4 0,-2.3 -1.2,-4.1 -2.7,-4.1 z"
   id="path2376" />
	<path
   class="st0"
   d="m 269.5,275.8 -3.2,-9.4 0.4,4.4 v 0 0 0 l 1.8,5.1 v 0 0 l -0.5,1 0.4,0.3 0.9,-0.5 v 0 c 1,0 1.9,0.1 2.9,0.3 0.1,-0.2 0.2,-0.4 0.2,-0.5 z"
   id="path2378" />
	<path
   class="st0"
   d="m 265,278.8 1,-2 c -0.8,0.2 -1.7,0.4 -2.5,0.5 -0.7,0.1 -1.5,0.2 -2.2,0.2 -1.1,0 -2.2,-0.2 -3.2,-0.6 v 0 l 0.9,1.9 c 1.9,0.4 3.9,0.4 6,0 z"
   id="path2380" />
	<path
   class="st2"
   d="m 253,210.2 c 0.1,0 0.2,0 0.3,0 0,0 0,0 0,0 0,0 0,-0.1 0.1,-0.1 -0.2,0.1 -0.3,0.1 -0.4,0.1 z"
   id="path2382" />
	<path
   class="st2"
   d="m 252.7,211.7 c 0,0 0,0 0,0 -0.3,0 -0.5,-0.1 -0.8,-0.2 -0.3,0.6 -0.4,1.3 -0.4,1.9 0,1.8 0.9,3.2 1.9,3.3 0,0 0,0 0,0 -1.1,-1.4 -1.3,-3.3 -0.7,-5 z"
   id="path2384" />
	<path
   class="st2"
   d="m 252,211.3 c 0.2,0.1 0.5,0.1 0.8,0.2 0,-0.1 0.1,-0.2 0.1,-0.3 -0.2,0 -0.5,-0.1 -0.7,-0.1 0,0 0,0 0,0 0,0 0,0 0,0 -0.1,0 -0.2,0.1 -0.2,0.2 z"
   id="path2386" />
	<polygon
   class="st2"
   points=""
   id="polygon2388" />
	<path
   class="st2"
   d="m 252.3,210.7 v 0 c 0.2,0 0.4,0.1 0.6,0.1 0,-0.1 0.1,-0.2 0.1,-0.2 -0.2,0 -0.4,0 -0.5,-0.1 v 0 c 0,0.1 -0.1,0.1 -0.2,0.2 z"
   id="path2390" />
	<polygon
   class="st2"
   points="250.7,217.9 251.2,229.3 254.5,229.3 252.2,228.8 251.6,217.9 "
   id="polygon2392" />
	<polygon
   class="st2"
   points="248.6,250.5 250.6,251.4 250.8,251.2 248.9,250.3 "
   id="polygon2394" />
	<polygon
   class="st2"
   points="252.4,229.6 251.3,229.6 251.4,248.8 251.8,248.8 "
   id="polygon2396" />
	<polygon
   class="st2"
   points="251.2,250.3 251.7,249.1 251.3,249.1 249.3,250.1 249.4,250.2 250.8,250.8 "
   id="polygon2398" />
	<polygon
   class="st2"
   points="253.6,229.6 254.5,248.8 254.9,248.8 254.4,229.6 "
   id="polygon2400" />
	<polygon
   class="st2"
   points="256.4,250.8 257.5,250.3 255.2,249.1 254.7,249.1 "
   id="polygon2402" />
	<polygon
   class="st2"
   points="257.9,250.5 256.3,251.2 255.6,250.4 255.1,249.9 256.2,251.4 258,250.5 "
   id="polygon2404" />
	<polygon
   class="st2"
   points="249.8,223.9 249.1,223.7 249.2,230.3 249.5,230.3 "
   id="polygon2406" />
	<polygon
   class="st2"
   points="249.8,223.6 250.5,221.6 250.4,219.5 249.1,223.4 "
   id="polygon2408" />
	<path
   class="st2"
   d="m 272.1,220.2 c -1,1.2 -3.3,3.8 -4.6,5.4 -0.5,0.5 -0.8,1 -1,1.2 0,0 0,0 0,0 0,0.5 0,0.9 0,1.1 v 0 c 0,0.2 0,0.4 0,0.6 l 7.4,-8.4 -1.3,-0.3 c -0.2,0 -0.3,0.2 -0.5,0.4 z"
   id="path2410" />
	<path
   class="st2"
   d="m 266.3,229.3 c 0.2,-0.1 3.4,-3.9 5.7,-6.6 l -5.7,6.4 v 0 c 0,0 -0.1,0.1 0,0.2 -0.1,0 0,0 0,0 z"
   id="path2412" />
	<path
   d="m 252.9,211.1 c 0,0 0,0 0,0 0.2,0 0.4,0 0.5,0 0,0 0,0 0,0 0.5,0 1,-0.1 1.5,-0.2 0.1,0 0.2,0 0.3,-0.1 0,0 0.1,0 0.1,0 l -0.2,-0.3 c 0,0 -0.1,0 -0.1,0 0,0 0,0 0,0 -0.1,-0.1 -0.1,-0.1 -0.2,-0.2 -0.1,0 -0.2,0 -0.4,0.1 0.1,0.1 0.1,0.1 0.2,0.2 0,0 0,0 0,0 -0.6,0.1 -1.1,0.1 -1.7,0.1 0,0 0,0 0,0 0,0 0,0 0,0 -0.2,0 -0.4,0 -0.6,-0.1 v 0 0 c 0.1,-0.1 0.1,-0.2 0.2,-0.2 v 0 0 c 0,0 0,0 0,0 -0.1,0 -0.2,0 -0.3,-0.1 v 0 c 0.1,0 0.2,0.1 0.3,0.1 v 0 c 0.2,0 0.3,0.1 0.5,0.1 0.1,0 0.2,0 0.3,0 0.4,0 0.7,0 1.1,-0.1 0.2,0 0.3,0 0.4,-0.1 h 0.1 l -0.1,-0.3 c 0,0 -0.2,0 -0.4,0.1 0,0 0,0 0,0 -0.6,-0.5 -1.5,-0.5 -2.1,0 0,0 0,0 0,0 0,0 -0.1,0 -0.1,0 l -0.1,0.2 v 0 c -0.1,0.1 -0.2,0.2 -0.2,0.3 0,0 0,0 0,0 v 0 0.1 l -0.1,0.2 c 0.1,0 0.2,0 0.2,0.1 v 0 c 0.4,0.1 0.6,0.1 0.9,0.1 z m 1.1,-0.9 c 0,0 0,0 0,0 -0.3,0 -0.5,0 -0.8,0 0,0 0,0 0,0 0,0 0,0 0,0 -0.1,0 -0.2,0 -0.3,0 0.1,0 0.2,-0.1 0.3,-0.1 0,0 0,0 0,0 0.1,0 0.1,0 0.2,0 0.3,0 0.5,0.1 0.6,0.1 z"
   id="path2414" />
	<path
   d="m 255,211.2 c 0,0 0,0 0,0 -0.4,0.1 -0.8,0.2 -1.1,0.2 -0.4,0 -0.8,0 -1.2,0 v 0 c -0.3,0 -0.5,-0.1 -0.8,-0.2 0,0 0,0 0,0 0,0 0,0 0,0 0,-0.1 0.1,-0.2 0.1,-0.2 0,0 0,0 0,0 -0.1,0 -0.2,0 -0.2,-0.1 l 0.1,-0.2 c -0.5,0.8 -0.8,1.8 -0.8,2.7 -0.1,1.3 0.5,2.6 1.6,3.4 v -0.1 h 0.3 v 0 h -0.3 v 0.8 h 0.3 v -0.5 0 c 0.2,0.1 0.3,0.1 0.5,0.1 0,0 0.1,0 0.1,0 0.1,0 0.3,0 0.4,-0.1 v 0 0.6 0 h 0.3 v -0.8 H 254 v 0 h 0.3 v 0.1 c 1,-0.8 1.6,-2.1 1.5,-3.4 0,-0.7 -0.1,-1.4 -0.4,-2.1 0,0 -0.1,0.1 -0.3,0.1 0.3,0.6 0.4,1.3 0.4,2 0,1.8 -0.9,3.3 -2,3.3 0,0 -0.1,0 -0.1,0 -1.1,-0.1 -1.9,-1.6 -1.9,-3.3 0,-0.7 0.1,-1.3 0.4,-1.9 0,0 0,0 0,0 0.3,0.1 0.5,0.1 0.8,0.2 0,0 0,0 0,0 0.2,0 0.5,0.1 0.7,0.1 0.6,0 1.2,-0.1 1.8,-0.3 0,0 0,0 0,0 0.2,-0.1 0.3,-0.1 0.3,-0.1 l -0.1,-0.3 v 0 c 0,-0.1 -0.1,-0.1 -0.1,-0.2 -0.1,0 -0.2,0.1 -0.3,0.1 -0.1,0 0,0 0,0.1 0.1,0 0.2,-0.1 0.3,-0.1 0,0 -0.1,0.1 -0.3,0.1 v 0 c 0,0 0,0 0,0 v 0 c 0,0 0,0 0,0 z m -3.2,0 c 0,0 0,0 0,0 l -0.1,0.3 z"
   id="path2416" />
	<path
   d="m 248.6,230.4 v 0 l -0.7,2.3 1.4,1.3 0.1,-2.3 0.4,0.4 0.7,-0.4 -0.7,-1.2 v -0.1 l -0.3,0.2 v 0 l 0.3,-0.2 v 0.1 l 0.3,-6.5 0.5,-1.4 0.4,7 v 0 l 0.1,19.4 h 0.1 l 0.1,0.3 v 0 l -0.1,-0.3 h -0.1 l -2.5,1.3 0.3,0.1 1.9,0.9 h 0.1 l 1.6,-2.2 v 0 h 0.1 l 0.9,-16.6 0.8,16.6 h 0.1 v 0 l 0.8,0.8 0.5,0.5 0.8,0.8 v 0 l 1.5,-0.8 0.7,-0.3 -3.1,-1.3 h -0.1 v 0 h 0.1 l 0.4,-19.4 v 0 l 0.4,-7 -0.3,-0.7 v 0 l 0.3,0.7 0.5,1.4 0.3,6.5 v -0.1 0 0.1 l -0.7,1.2 0.7,0.4 0.3,-0.4 0.1,2.3 1.3,-1.3 -0.6,-2.3 v 0 l 0.5,-7.2 v 0 l -2.2,-5.4 v -0.1 0 0.1 -0.2 h -6.2 v 0.1 0 l -2.2,5.4 0.4,7.5 0.3,0.1 v 0 z m 1.3,-6.6 0.1,-0.2 v 0 z m 2.1,25.3 -0.9,1.2 v 0 l -0.4,0.5 v 0 l -1.3,-0.7 -0.1,-0.1 v 0 l 2,-1 v 0 l 0.7,0.1 0.2,-0.3 0.3,0.2 v 0 l -0.3,-0.2 z m 0.5,-6.6 -0.3,6.3 h -0.4 v 0 h -0.4 v 0 l -0.1,-19.1 v 0 h 1.2 0.8 v 0 -0.2 0 0.2 z m 5.3,7.6 -0.3,0.1 v 0 l -1.1,0.6 v 0 l -1.7,-1.8 -0.2,-0.3 -0.2,0.2 v 0 l 0.2,-0.2 0.2,0.3 h 0.5 v 0 z m -2.5,-1.1 v 0 l 0.1,-0.2 z m -0.1,-0.2 v 0 h -0.3 -0.4 l -1,-19.1 h 0.8 1.2 v 0 -0.2 0 0.2 z m 2.2,-18.5 -0.3,-6.3 v 0 l 1.3,-0.5 -0.5,6.8 z m -0.5,-6.6 v 0 0 l 0.1,0.3 v 0 z m 0.8,7.2 v 0 l -0.7,0.7 -0.3,-0.1 v 0 l 0.5,-0.9 v 0 h 0.7 v -0.1 0 0.1 0 l 0.6,2 -0.7,0.7 v 0 z m 0.9,-7.8 z m -2.4,-5.3 0.3,0.7 1.9,4.6 -1.4,0.5 v 0 l -0.7,-2 v 0 0 l 0.2,-3.1 z m 0,0.1 -0.7,11.4 h -4.3 v 0 l -0.6,-11.4 h 0.9 v 0 z m -7.9,5.2 0.2,0.1 1.9,-4.6 0.3,-0.6 v 0 l -0.3,0.6 0.1,1 v 0 l 0.1,2.1 v 0 0 0 0 0 l -0.7,2 v 0 l -0.7,-0.3 v 0 0 l -0.7,-0.2 -0.2,-0.1 -0.1,0.3 v 0 z m 0.1,0.3 v 0 l 0.7,0.2 0.7,0.2 -0.3,6.3 v 0 h -0.3 -0.3 v 0 z m 1.2,7.2 v 0 l 0.5,0.9 v 0 l -0.2,0.1 -0.7,-0.7 v 0 l -0.1,2.4 v 0 l -0.7,-0.7 v 0 l 0.6,-2 v 0 z"
   id="path2418" />
	<path
   d="m 269,218 c 0,0 0,0 0,0 0,0.4 0,0.7 0,1 0.7,0 1.4,0 2.2,0 v -1 0 c 0.9,-0.1 1.6,-0.9 1.6,-1.8 v -1.1 l -0.2,-0.2 c 0,0 0,0 0,0 l 0.2,0.2 v 0 0 0 c 0.5,-0.4 0.7,-0.7 0.6,-1 0,-0.2 -0.2,-0.4 -0.3,-0.5 -0.1,-0.1 -0.3,-0.2 -0.3,-0.2 0,0 0,0 0,0 v -1.1 c 0,-1 -0.8,-1.9 -1.9,-1.9 H 269 c -0.4,0 -0.7,0.1 -1,0.3 -0.5,0.3 -0.8,0.9 -0.8,1.5 v 1.2 c 0,0 0,0 0,0 0,0 0.1,0 0.1,0 v 0 c 0,0 0,0 -0.1,0 0,0 0,0 0,0 -0.1,0.1 -0.3,0.2 -0.4,0.3 -0.1,0.1 -0.2,0.2 -0.2,0.4 0,0.3 0.1,0.7 0.6,1 v 0 0 0 0 1.1 c 0,0.8 0.5,1.4 1.1,1.7 0.2,0.1 0.4,0.1 0.7,0.1 0,0 0,0 0,0 z m 0,-0.1 c 0,0 0,-0.1 0,0 0,-0.1 0,0 0,0 z m 0.1,-0.1 c 0,0 0,0 0,0 v 0 c 0,0 0,0 0,0 z m 1.7,1.2 h -1.5 c 0,0 0,0 0,0 0,-0.1 0,-0.2 0,-0.4 0,-0.1 0,-0.1 0,-0.1 0,-0.1 0,-0.2 0,-0.3 0.5,0.1 1.1,0.1 1.6,0 0,0 0,0 0,0 v 0.8 z m 1.7,-4.7 v 0 1.8 c 0,0.8 -0.6,1.5 -1.5,1.5 v 0 l 0.2,0.2 v 0 l -0.2,-0.2 v 0 l -0.2,-0.2 v 0 0.3 c 0,0 0,0 0,0 v -0.1 H 269 c -0.8,0 -1.5,-0.7 -1.5,-1.5 v 0 -1.8 0 c 0,0 0,0 0,0 0.5,0.2 1,0.3 1.6,0.2 v 0 c 0.7,-0.3 1.4,-0.3 2.1,0 0.2,0.1 0.4,0.1 0.5,0.1 0.2,0 0.5,-0.1 0.8,-0.3 0.1,-0.1 0.2,-0.1 0.3,-0.2 v 0 c -0.1,0.1 -0.2,0.2 -0.3,0.2 z m -5.3,-0.1 c 0,0 0.1,0 0.2,0.1 -0.1,0 -0.2,-0.1 -0.2,-0.1 z m 5.5,-0.6 v 0 c 0,0 0.1,0.1 0.1,0.1 0.2,0.1 0.3,0.2 0.3,0.4 0,0 0,0 0,0 0,0.2 -0.1,0.4 -0.3,0.6 0,0 0,0 0,0 v -1 c -0.1,0 -0.1,0 -0.1,-0.1 z m -1.8,-2.9 v 0 c 0.8,0 1.5,0.7 1.5,1.5 v 1.7 c 0,0 0,0 0,0 -0.4,0.3 -0.9,0.4 -1.3,0.3 -0.7,-0.3 -1.5,-0.3 -2.3,0 -0.5,0.1 -1,0 -1.5,-0.2 v 0 h -0.1 l -0.1,0.3 c 0,0 0,0 0,0 l 0.1,-0.3 h 0.1 v 0 -1.7 c 0,-0.8 0.7,-1.5 1.5,-1.5 h 2.1 z m -3.8,3.1 v 0 0.9 c -0.2,-0.1 -0.2,-0.3 -0.2,-0.5 0,0 0,0 0,0 0,-0.2 0.1,-0.3 0.2,-0.4 z"
   id="path2420" />
	<path
   d="m 273.9,223.1 v -0.2 l 0.3,-2.8 -0.1,0.2 c 0,0 0,0 0,0 -0.1,0.5 -0.2,1.5 -0.2,2.8 z"
   id="path2422" />
	<path
   d="m 263.2,222.2 -4.3,-6.9 1.8,-1.7 0.1,-0.4 -0.1,-0.1 -2.2,2.1 4.5,7.3 3.2,-0.8 v 0 c 0,1.4 -0.1,3.1 -0.1,4.5 v 0 0 l -0.1,2.7 v 0 c -0.5,3.6 -2.7,14.1 -2.8,14.2 v 0.1 l 0.1,0.1 c 1.2,1.1 2.6,1.9 4.2,2.3 v 0 h -0.1 l 0.5,2.2 h 0.1 -0.1 l -4.2,0.5 1.9,2 3.3,-1.8 -0.4,-0.4 h 0.1 l 0.5,-2.2 v -0.1 l -0.3,-0.1 v 0 l 0.3,0.1 v 0.1 c 0.7,0.1 1.4,0.1 2.1,0.1 h 0.1 v 0 l 0.6,2.4 h 0.1 l -0.4,0.4 3.3,1.8 1.9,-2 -4.2,-0.5 h -0.2 l -0.3,0.3 0.3,-0.3 h 0.2 l 0.5,-2.2 h -0.2 -0.1 v 0 h 0.1 c 1.2,-0.1 2.4,-0.3 3.6,-0.6 l 0.2,-0.1 -0.1,-0.2 c -2.3,-5.6 -2.5,-14.4 -2.3,-20 l 0.8,6.4 1.3,-0.8 v -0.2 h 0.2 l 0.1,-0.1 v 0 l -0.1,0.1 h 0.2 v 0 h -0.1 -0.2 v 0.2 l -0.3,1 0.3,0.8 h 0.5 l 0.3,-0.6 v 0 l 0.2,0.3 1.7,0.7 0.8,-0.5 -1.9,-2.7 v 0 l 1.1,-0.7 -4.5,-9.1 v 0 -0.1 -0.1 0 0.1 0.1 c 0.4,-0.1 0.7,-0.2 0.7,-0.2 l 0.3,-0.1 -0.2,-0.2 c -0.9,-0.8 -1,-3.7 -1.2,-6 0,-1.2 -0.1,-2.3 -0.4,-3.5 -0.7,-1.5 -3.3,-1 -3.6,-1 -1,-0.2 -2.1,-0.1 -3,0.4 -0.4,0.3 -0.7,0.7 -0.8,1.2 -0.2,1.2 -0.3,2.4 -0.3,3.6 0,1.5 -0.2,3 -0.4,4.5 l 0.3,0.1 c 0,0 0,0 0,0 0.3,-1.5 0.4,-3.1 0.4,-4.6 v 0 c 0,-1.2 0.1,-2.4 0.3,-3.6 0.1,-0.8 0.8,-1.3 1.8,-1.4 0.3,0 0.5,0 0.8,0 0.3,0 0.5,0 0.8,0.1 v 0 0 0 c 0,0 1.2,-0.2 2.1,0 0.5,0.1 1,0.3 1.2,0.8 0.3,1.1 0.4,2.2 0.4,3.4 0.1,2.3 0.3,4.9 1.1,6 -0.2,0.1 -0.4,0.1 -0.6,0.2 v 0 0 c -1,-0.3 -2,-0.5 -3,-0.5 0,0 0,0 0,0 -0.8,-0.1 -1.5,-0.1 -2.2,0 0,0 0,0 0,0 -1.3,0 -2.3,0.1 -2.5,0.1 v 0 l 0.1,0.1 -0.3,2.5 v 0 l 0.3,-2.5 -0.1,-0.1 -0.8,-0.3 -0.3,-0.1 -0.8,-0.3 -0.4,-5.3 -1.5,-0.6 v 0 l -0.3,-1.2 1.2,-2.1 -0.4,-0.9 -0.2,0.1 c 0,0 -0.3,0.2 -0.5,0.3 -0.2,-0.2 -0.4,-0.4 -0.6,-0.6 v -2.4 h -0.6 l -1.1,4.3 0.9,1.4 -0.3,1.8 -0.1,0.4 v 0 l -0.2,0.9 v 0 l 1.4,0.7 1,-1.3 -0.2,-0.9 v 0 l 1.1,0.4 0.5,5.3 2,0.7 -0.2,2 v 0 z m 10.6,-2.1 -7.4,8.4 c 0,-0.2 0,-0.4 0,-0.6 v 0 c 0,-0.3 0,-0.7 0,-1.1 0,0 0,0 0,0 0,0 0,0 0,0 0,-0.1 0,-0.3 0,-0.5 v 0 0 l -0.1,2.2 v 0 l 0.1,-2.2 v 0 0 l 5.4,-6.8 v 0 l 0.7,0.2 z m -7.6,9 -0.3,0.3 v 0 z m 2.1,19.3 -2.7,1.5 -1.3,-1.3 v 0 l 3.7,-0.5 z m -0.1,-0.6 v 0 0 l -0.5,-2.1 v 0 -0.1 0 0.1 c 0.3,0.1 0.7,0.1 1,0.2 v 0 z m 7.8,1.1 v 0 l -1.3,1.3 -2.7,-1.5 0.3,-0.3 v 0 z m -3.9,-0.8 v 0 0 l -0.6,-2.1 v 0 -0.2 0 0.2 c 0.4,0 0.7,0 1,-0.1 v 0 z m 5.4,-18.3 v 0 l 0.3,-0.2 v 0 z m -0.7,1.7 v 0 l -0.3,0.6 v 0 0 l -0.2,-0.5 0.2,-0.8 v 0 0 l 0.3,0.7 v 0 l 0.1,-0.1 0.3,0.1 v 0 l -0.3,-0.1 z m 2.5,0.9 -0.4,0.2 -1.5,-0.6 -0.9,-1.5 v 0 0 l 1,-0.6 v 0 0 l 1.5,2.1 z m -0.8,-3.5 v 0 l -3.3,2.1 -1,-7.8 v 0 0 0 0 l 0.2,-2.1 v -0.3 z m -6.9,-9.5 0.2,-0.2 2.5,0.7 v -0.2 0 0.2 0.2 L 274,223 v 0.1 0.1 0 0 0 c -0.3,5.3 -0.4,15.5 2.2,21.8 v 0 0 c -0.3,0.1 -1,0.3 -1.8,0.4 -2.7,0.4 -7.5,0.7 -10.7,-2.3 0.2,-1.1 2.1,-10.1 2.7,-13.8 0,-0.1 0,-0.2 0,-0.2 v 0 l 5.7,-6.4 v -0.1 l 2.1,-2.4 0.1,-0.2 v -0.2 l -2.5,-0.7 -0.2,0.3 v 0 l -5.1,6.4 c 0.1,-2.4 0.2,-5.6 0.2,-6.3 v 0 0 c 1.6,-0.2 3.2,-0.2 4.9,-0.1 z m -10.2,-8.1 -0.8,-1.4 0.1,-0.3 -0.2,-0.1 0.1,-0.3 v 0 l -0.1,0.3 0.2,0.1 v 0 l 0.6,0.3 v 0 0.1 l 0.1,0.5 0.3,-0.1 v 0 l -0.2,-0.7 -0.8,-0.4 v 0 l 0.1,-0.5 -0.2,-0.1 v 0 l 0.2,0.1 v 0 l 1.1,0.5 0.2,0.7 v 0 l 0.3,-0.1 -0.2,-0.9 -1.3,-0.6 0.6,-2.5 v 0 h 0.1 v 2.2 0 c 0.8,0.9 0.9,0.8 1,0.7 0,0 0.1,0 0.1,-0.1 0,0 0.1,0 0.1,0 0.1,0 0.1,-0.1 0.2,-0.1 l 0.2,0.4 -1.2,2 0.6,2.4 -0.8,1 -0.9,-0.5 v 0 z"
   id="path2424" />
	<path
   d="m 265.1,279.1 v 0 l 1.2,-2.5 v -0.1 l -0.3,-0.1 v 0 l 0.3,0.1 v 0.1 c 0.5,-0.2 0.8,-0.3 0.8,-0.3 h 0.1 l -0.4,-4.1 1.3,3.8 -0.5,1.1 0.8,0.6 1,-0.5 c 1.2,0.1 2.6,0.2 2.8,0.3 0,0 0.1,0 0.1,0 0.1,0 0.2,0 0.5,-0.9 l 0.1,-0.2 -3.3,-0.8 -3.6,-10.5 -0.3,0.1 v 0 l 0.3,-0.1 v -0.2 h -0.1 c -0.9,-0.6 -2,-1 -3,-1.1 1.3,-0.5 2.3,-2.2 2.3,-4.3 0,-2.4 -1.4,-4.4 -3,-4.4 -1.7,0 -3,2 -3,4.4 0,2.1 1,3.8 2.3,4.3 v 0 c -1.2,0.1 -2.4,0.5 -3.4,1.1 H 258 v 0.2 0 l -3.5,10.4 -3.3,0.8 0.1,0.2 c 0.3,0.9 0.4,0.9 0.5,0.9 0,0 0.1,0 0.1,0 0.2,-0.1 1.6,-0.2 2.8,-0.3 l 1,0.5 0.8,-0.6 -0.5,-1.1 1.3,-3.9 0.4,-1.2 -0.3,-0.1 v 0 l -1.8,5.3 v 0 l 0.5,1 v 0 l -0.4,0.3 -0.9,-0.5 v 0 c -1,0 -1.9,0.1 -2.9,0.3 -0.1,-0.2 -0.2,-0.3 -0.2,-0.5 0,0 0,0 0,0 l 3.1,-0.7 3.1,-9.3 0.4,-1.3 -0.3,-0.1 v 0 l 0.3,0.1 -0.4,1.3 -0.4,4.2 0.3,0.1 -0.4,1.2 -0.4,4.2 0.1,0.1 c 0.1,0.1 0.3,0.2 0.4,0.3 v 0 l 1.2,2.5 h 0.1 c 1,0.3 2,0.4 3,0.4 v 0 c 1.1,-0.2 2.2,-0.3 3.3,-0.5 z m 1.3,-8.1 0.3,-0.1 z m 6.2,5.6 c -0.1,0.2 -0.1,0.4 -0.2,0.5 v 0 c -1,-0.1 -1.9,-0.2 -2.9,-0.3 v 0 l -0.9,0.5 -0.4,-0.3 0.5,-1 v 0 l -1.8,-5.1 v 0 0 0 l -0.4,-4.4 v 0 l 3.2,9.4 z m -10.3,-21.2 c 1.5,0 2.7,1.8 2.7,4.1 0,1.4 -0.5,2.7 -1.2,3.4 -0.4,0.4 -1,0.7 -1.5,0.7 -1.5,0 -2.7,-1.8 -2.7,-4.1 0,-1.4 0.5,-2.7 1.2,-3.4 0.4,-0.4 0.9,-0.7 1.5,-0.7 z m -5,20.7 1,-11 c 2.3,-1.4 5.2,-1.4 7.5,0 l 0.9,9.2 0.2,1.8 c -0.2,0.1 -0.9,0.3 -1.7,0.5 -2.1,0.5 -5.6,1.1 -7.9,-0.5 0.1,0 0.1,0 0,0 z m 0.2,0.4 v 0 l 0.3,-0.1 0.2,0.4 c 1,0.4 2.1,0.7 3.2,0.6 0.7,0 1.5,-0.1 2.2,-0.2 0.9,-0.1 1.7,-0.3 2.5,-0.5 v 0 l -1,2 c -2,0.5 -4.1,0.5 -6.1,0 v 0 l -0.9,-1.9 v 0 l -0.2,-0.4 z"
   id="path2426" />
	<path
   d="m 279.7,252.8 c -0.3,-1.1 -1.5,-1.8 -2.7,-1.5 -0.4,0.1 -0.8,0.4 -1.1,0.7 -1.3,1.5 -1.7,3.5 -1,5.4 0.3,0.7 0.9,1.3 1.7,1.5 0.1,0 0.2,0 0.4,0 0.2,0 0.4,0 0.5,-0.1 l -1.2,0.5 -2.4,8.8 -3.1,1 v 2.6 h 0.1 c 0.1,0.1 3.2,2.5 5.2,2.5 h 0.1 c 2,0 6.6,-0.6 7.2,-1.6 0.4,-0.9 0.7,-1.9 0.9,-2.9 0,0 0,-0.1 0,-0.1 v 0 c 0,0 0,0 0,0.1 l 0.2,-0.1 h 0.1 v -0.1 c -1.4,-8.9 -3.6,-11.9 -3.7,-12 v 0 l -0.1,-0.1 -0.9,0.4 -0.5,-0.8 v 0 c 0.3,-0.5 0.5,-1 0.6,-1.6 0.2,-0.7 0.1,-1.7 -0.3,-2.6 z m -3,5.8 c 0,0 0,0 0,0 -0.7,-0.2 -1.2,-0.7 -1.4,-1.3 -0.6,-1.7 -0.3,-3.7 1,-5 0.4,-0.4 0.9,-0.7 1.5,-0.7 0.1,0 0.2,0 0.3,0 0,0 0,0 0,0 0.7,0.2 1.2,0.7 1.4,1.3 0,0.1 0.1,0.3 0.1,0.4 0.2,0.6 0.2,1.2 0.2,1.7 0,0.5 -0.2,1 -0.3,1.4 -0.1,0.3 -0.2,0.5 -0.4,0.8 0,0 -0.1,0.1 -0.1,0.2 0,0 0,0 0,0 -0.1,0.2 -0.2,0.3 -0.4,0.5 -0.1,0.1 -0.2,0.2 -0.3,0.3 -0.6,0.3 -1.1,0.5 -1.6,0.4 0,0 0,0 0,0 z m 2.6,-1.5 v 0 l -0.3,0.2 z m -2.7,2.5 v 0 l 4.1,-1.6 c 0.4,0.6 2.2,3.7 3.5,11.6 0,0 0,0 0,0 -0.7,0.2 -3.8,1.4 -6.1,0.9 v 0 l -0.5,-8.1 h -0.3 v 0 l 0.1,1.6 v 0 0 c -0.4,1.7 -1.1,3.2 -2,4.7 v 0 0 h -0.1 l -1.1,-0.5 z m -1.2,9.2 0.3,0.2 c 0.1,-0.1 0.2,-0.3 0.3,-0.4 0,0 0,0 0,0 0.6,-1.1 1.1,-2.3 1.5,-3.5 0,0 0,0 0,0 v 0 l 0.2,2.9 v 0 l -1.7,0.6 c -0.1,0.1 -0.2,0.3 -0.3,0.4 z m 8.5,1.2 c -0.2,0.9 -0.4,1.8 -0.8,2.6 -0.5,0.8 -5,1.5 -7.1,1.4 -1.7,0 -4.5,-2.1 -4.9,-2.4 v -2.2 0 l 2.9,-1 v 0 h 0.1 v 0 H 274 v 0 l 1.3,0.6 2.4,-0.9 0.1,1.8 v 0 c -1.6,-0.5 -3.2,-0.9 -4.9,-1 0,0 0,0 0,0 v 0.3 c 1.7,0.1 3.4,0.4 5,1 v 0 h 0.1 l 0.1,-0.3 c 0,0 0,0 0,0 l -0.1,0.3 h -0.1 v 0 0.3 h 0.1 c 0.5,0.1 1,0.2 1.4,0.2 1.5,0.1 3.1,-0.2 4.5,-0.7 0,0 0,0 0,0 0,-0.2 0.1,-0.3 0.1,-0.3 v 0 c 0,0.1 0,0.2 -0.1,0.3 z m -4.3,-11.9 v 0 0 l -1.6,0.6 c 0.3,-0.1 0.5,-0.3 0.8,-0.6 v 0 0 0 0 c 0.2,-0.2 0.4,-0.4 0.5,-0.6 z"
   id="path2428" />
	<polygon
   points="294.5,243.9 296,243.9 "
   id="polygon2430" />
	<path
   d="m 295.8,227.9 -0.6,7.4 c 0,-0.5 -0.1,-1 -0.1,-1.4 0,0 -0.3,-2.7 -0.6,-2.8 0,0 -0.1,0 -0.9,0.2 v 0.1 l -0.3,0.1 v 0 l 0.3,-0.1 v -0.1 l -0.1,-0.6 c 0.3,-0.2 0.5,-0.4 0.7,-0.7 0.6,-0.8 0.9,-1.8 0.9,-2.8 0.1,-2.2 -1.1,-4 -2.6,-4.1 -1.5,0 -2.8,1.7 -2.9,3.9 0,1 0.2,2 0.7,2.8 0.4,0.7 1,1.1 1.8,1.2 v 0 0 0.1 0.8 0 l -0.8,0.3 h -0.1 v 0.1 c 0.2,3.1 -0.2,6.2 -1.1,9.2 h 0.1 v 0.2 -0.2 h -0.1 l -6.3,0.1 1.2,10.4 v 0 l -4.4,0.3 1.5,1.6 0.2,0.2 0.2,-0.2 v 0 l -0.2,0.2 -0.2,-0.2 -0.7,0.3 -0.4,0.1 2.9,1.2 2.2,-2.5 v -0.1 l -0.2,-0.2 0.2,0.2 v 0.1 h 0.1 l 0.2,-6.7 v 0 h 0.1 v -0.1 h 0.3 v 0 h -0.3 v 0.1 l 0.8,9.2 h 1 v -4.2 h -0.2 v 0 h 0.2 l 6,-0.2 h 0.2 v 0 h -0.2 l 0.2,4.3 h 1.5 v -9.6 h 0.5 v -2.1 H 296 l 2.2,-15.7 z m -1,13.1 c -0.3,0 -1.3,0.2 -2.3,0.3 l -0.1,0.3 c 1,-0.1 1.9,-0.2 2.3,-0.3 h 0.2 0.1 v 0 h -0.1 -0.2 v 0 l -0.2,2.2 v 0 h 0.3 l 1.2,-15.3 h 1.9 l -1.8,12.4 -0.4,3 v 0 h -0.9 v 0 h -0.3 l -2.6,-0.1 v 0 l 0.4,-1.8 v 0 l 0.1,-0.3 1.4,-5.8 v 0 h -0.1 -0.2 v 0 l -1.9,8 v 0 l -0.1,0.2 v 0 l 0.1,-0.2 v 0 l -3.1,-0.1 v 0 c 0,-0.1 0,-0.2 0.1,-0.2 h 0.3 l 2.2,-0.2 v 0 l 1.6,-9.5 -0.3,-0.1 v 0 l -0.1,0.6 -1.3,7.5 -0.6,0.1 c 0,0 0,0 0,0 0.9,-2.9 1.2,-6 1.1,-9.1 1.2,-0.5 2.5,-1 2.9,-1.1 0,0 0,0 0,0 0.1,0.4 0.9,3.7 0.4,9.5 z m -6.6,9.1 v -0.3 0 0.3 h 6.1 v 0 0.6 l -6,0.2 v -0.8 z m 0.1,-4 5.8,-0.3 v -0.2 h 0.3 v 0 h -0.3 v 0.2 l 0.2,3.9 h -6 z m 4.1,-14.3 v 0 -0.7 0 0 c 0.3,0 0.6,-0.1 0.9,-0.3 v -0.2 0 0.2 0 l 0.1,0.5 v 0 0 c -0.1,0 -0.3,0.1 -0.4,0.2 0,0 0,0 0,0 -0.3,0.1 -0.4,0.2 -0.6,0.3 v 0.2 0 z m -0.4,-1 c -0.1,0 -0.1,0 -0.2,0 -0.1,0 -0.1,0 -0.2,0 -0.1,0 -0.1,-0.1 -0.2,-0.1 0,0 -0.1,0 -0.1,0 0,0 0,0 0,0 -0.2,-0.1 -0.3,-0.2 -0.5,-0.3 0,0 0,0 0,0 -0.1,-0.1 -0.2,-0.3 -0.3,-0.5 v 0 c -0.5,-0.8 -0.7,-1.7 -0.7,-2.6 0.1,-2 1.2,-3.6 2.5,-3.6 0.5,0 1,0.3 1.3,0.7 0.6,0.7 1,1.8 1,3.1 0,0.9 -0.3,1.8 -0.8,2.6 -0.1,0.2 -0.2,0.3 -0.4,0.5 0,0 0,0 0,0 -0.1,0.1 -0.3,0.3 -0.5,0.3 0,0 0,0 0,0 -0.1,0 -0.2,0.1 -0.3,0.1 0,0 -0.1,0 -0.1,0 -0.1,0 -0.2,0 -0.3,0 0,0 -0.1,0 -0.1,0 0,-0.2 0,-0.2 -0.1,-0.2 z m -10.8,21.7 v 0 l 3.8,-0.2 v 0 h 0.1 v -0.3 0 0.3 H 285 v 0.4 c 0,0 0,0 0,0 -0.5,0.1 -1.7,0.7 -2.7,1 v 0 z m 2.7,2.6 -2,-0.8 c 1.3,-0.6 3.1,-1.3 3.4,-1.3 v 0 0 0 l -0.1,-0.3 c 0,0 0,0 0,0 l 0.1,0.3 v 0 h 0.5 l -0.2,0.3 z m 2.2,-9 v 0.1 l -0.2,6.4 v 0 h -0.6 L 284,242 l 5.9,-0.1 v 0 0 h 0.3 l 0.8,-0.1 v 0 l -0.1,0.8 v 0 l -2.4,0.2 v 0.1 c 0,0 -0.1,0.2 -0.1,0.4 v 0 0.1 0 -0.1 0 l -3,-0.1 0.2,2.9 v 0 h 0.6 -0.1 0.3 v 0 z m 1.9,0 v 9 0 h -0.4 l -0.7,-8.9 v 0 l 1.1,-0.1 v 0 l 0.3,-0.1 v 0 z m 0.2,4.8 z m 7.9,-5.3 h -0.3 v 0.2 9.2 h -0.9 l -0.5,-9.2 v 0 0 l 1.4,-0.1 v -0.2 z m 0.2,-0.2 v 0 l -10.5,0.5 -0.2,-2.3 v 0 l 6.2,0.2 h 0.1 v 0 0 l 2.6,0.1 h 1.5 0.2 v 1.5 z"
   id="path2432" />
	<line
   class="st3"
   x1="285.20001"
   y1="252.89999"
   x2="285.20001"
   y2="252.89999"
   id="line2434" />
	<path
   d="m 244.2,258 v 0 l -0.9,-0.4 -0.1,0.1 c -0.1,0.1 -2.2,3 -3.7,12 v 0.1 h 0.1 l 0.2,0.1 c 0,-0.1 0,-0.1 0,-0.1 l 0.3,-0.1 c 0,0 0,0 0,0 l -0.3,0.1 v 0.1 c 0.2,1 0.5,2 0.9,2.9 0.6,1 5.2,1.6 7.2,1.6 h 0.1 c 2,0 5,-2.4 5.2,-2.5 l 0.1,-0.1 v -2.6 l -3.1,-1 h -0.1 l -0.1,0.3 v 0 l 0.1,-0.3 h 0.1 l -2.4,-8.8 -1.2,-0.5 c 0.2,0.1 0.4,0.1 0.6,0.1 0.1,0 0.2,0 0.4,0 0.8,-0.2 1.4,-0.8 1.7,-1.5 0.7,-1.8 0.3,-3.9 -1,-5.4 -0.7,-0.9 -2.1,-1.1 -3,-0.4 -0.4,0.3 -0.6,0.7 -0.7,1.1 -0.4,0.9 -0.4,1.9 -0.2,2.8 0.1,0.6 0.3,1.1 0.6,1.6 v 0 z m 0.5,-0.9 v 0 l 0.3,0.2 -0.1,0.2 c 0,0 0,0 0,0 0.1,0.2 0.3,0.4 0.5,0.6 0,0 0,0 0,0 0,0 0,0 0.1,0.1 0.2,0.2 0.5,0.4 0.7,0.5 l -1.7,-0.7 0.3,-0.4 0.1,-0.1 0.1,-0.2 z m -4.9,12.5 c 1.3,-7.9 3.2,-11 3.5,-11.6 v 0 0 l 4.1,1.6 2.3,8.6 -1.1,0.5 v 0 h -0.1 v 0 c -0.9,-1.5 -1.6,-3.1 -2,-4.7 v 0 h -0.1 v 0 h 0.1 l 0.1,-1.6 h -0.3 v 0 l -0.5,8.1 c -0.1,0 -0.3,0.1 -0.4,0.1 -2.1,0.2 -4.9,-0.8 -5.6,-1 z m 8.3,-1 -1.7,-0.6 v 0 l 0.2,-3 c -0.1,-0.3 -0.2,-0.6 -0.2,-0.9 v 0 c 0.1,0.3 0.1,0.6 0.2,0.9 0.3,1.2 0.9,2.4 1.5,3.6 0.1,0.1 0.2,0.3 0.3,0.4 v 0 c -0.1,-0.2 -0.2,-0.3 -0.3,-0.4 0,0 0,0 0,0 z m 4.8,3.1 c -0.4,0.3 -3.2,2.4 -4.9,2.4 -2,0 -6.6,-0.6 -7.1,-1.4 -0.4,-0.8 -0.7,-1.7 -0.8,-2.6 0,0 0,0 0,0 0,0 0,0 0,0 0.7,0.3 1.5,0.5 2.2,0.6 0.8,0.1 1.5,0.2 2.3,0.3 0.5,0 1,0 1.4,-0.2 h 0.1 v -0.3 0 c 1.6,-0.6 3.3,-0.9 5,-1 v -0.3 0 c -1.7,0.1 -3.3,0.4 -4.9,1 0,0 0,0 0,0 -0.1,0 -0.2,0.1 -0.2,0.1 l 0.1,0.3 v 0 l -0.1,-0.3 c 0,0 0.1,0 0.2,-0.1 l 0.1,-1.8 0.5,0.2 1.8,0.7 1.3,-0.6 v 0 l 2.9,1 v 0 2 z m -8.4,-18.5 c 0,-0.1 0.1,-0.2 0.1,-0.3 0.2,-0.7 0.8,-1.1 1.4,-1.3 0.1,0 0.2,0 0.3,0 0.1,0 0.3,0 0.4,0.1 0.4,0.1 0.8,0.3 1.1,0.7 1.2,1.4 1.6,3.3 1,5 -0.2,0.7 -0.7,1.2 -1.4,1.3 0,0 0,0 -0.1,0 -0.3,0 -0.5,0 -0.8,0 -0.4,-0.1 -0.7,-0.3 -0.9,-0.6 0,0 -0.1,0 -0.1,-0.1 0,0 -0.1,-0.1 -0.1,-0.1 -0.5,-0.6 -0.8,-1.2 -1,-2 0,-0.1 -0.1,-0.2 -0.1,-0.3 v 0 c 0,-0.1 0,-0.2 0,-0.3 0,-0.8 0,-1.4 0.2,-2.1 z"
   id="path2436" />
	<path
   d="m 229.4,239.9 c 0,0 0,0 0,0 l -0.1,-1.3 c 0.1,0.5 0.1,0.9 0.1,1.3 z"
   id="path2438" />
	<path
   d="m 229.8,230.3 c 0,0 0,0 0,0 0.4,0.1 1.7,0.6 2.9,1.1 -0.2,3.1 0.2,6.1 1.1,9.1 v 0 l -0.6,-0.1 v 0 l 0.1,0.3 0.7,0.1 v 0 0 0 0 0 0 h 0.2 v 0 0 l 5.9,0.1 -1.3,10.6 h -0.6 v 0 l -0.2,-6.4 v 0 0 h 0.6 l 0.2,-2.9 v 0 l -3,0.1 c 0,0 0,0 0,0 -0.1,-0.2 -0.1,-0.4 -0.1,-0.4 v -0.1 0 l -2.2,-0.2 h -0.2 l -0.1,-0.8 v 0 l -0.1,-0.3 v 0 l -1.4,-8.2 -0.3,0.1 v 0 l 1.6,9.5 1.8,0.2 0.6,0.1 c 0,0.1 0,0.2 0.1,0.3 0,0 0,0 0,0 h -0.6 l -2.5,0.1 v 0 h -0.3 l -2.6,0.1 h -0.3 -0.9 -0.3 -0.5 v 2.1 h 0.5 v -0.2 0 9.7 h 1.5 l 0.2,-4.3 h -0.2 v 0 h 0.2 l 6,0.2 h 0.2 v -0.3 h -0.2 l -6,-0.2 h -0.2 v 0 h 0.2 v -0.6 h 6 v 0 0.8 h 0.2 v 0.3 h -0.2 v 4.2 h 1 l 0.8,-9.2 h 0.1 l 0.2,6.7 h 0.1 v -0.1 l 0.2,-0.2 -0.2,0.2 v 0.1 l 2.2,2.5 2.9,-1.2 -0.4,-0.1 -0.7,-0.3 -0.2,0.2 -0.2,-0.2 v 0 l 0.2,0.2 0.2,-0.2 1.5,-1.6 -4.4,-0.3 v 0 l 1.2,-10.3 -6.3,-0.1 v 0 c -0.9,-3 -1.3,-6.1 -1.1,-9.2 v -0.1 h -0.1 l -0.8,-0.3 -0.3,-0.1 c 0,0 0,0 0,0 -0.4,-0.1 -0.7,-0.3 -1,-0.4 v 0 l 0.1,-0.5 v 0 0 c 0.3,0.1 0.6,0.2 0.9,0.3 V 230 h 0.3 v 0 h -0.3 v 0.2 0.6 l 0.3,0.1 v -0.8 0 c 0.7,-0.1 1.4,-0.6 1.8,-1.2 0.5,-0.8 0.7,-1.8 0.7,-2.8 -0.1,-2.2 -1.3,-3.9 -2.8,-3.9 -0.8,0.1 -1.5,0.5 -1.9,1.2 -0.5,0.8 -0.7,1.8 -0.7,2.8 0,1.3 0.5,2.6 1.5,3.4 v -0.1 l 0.3,0.1 v 0 l -0.3,-0.1 v 0.1 l -0.1,0.6 c -0.8,-0.3 -0.8,-0.2 -0.9,-0.2 -0.3,0.1 -0.6,2.7 -0.6,2.8 0,0.4 -0.1,0.9 -0.1,1.4 l 0.3,4.2 v 0.3 c -0.1,-5.1 0.5,-7.9 0.7,-8.4 z m -1.9,14 v -1.5 0 h 0.2 v 0 0 0 0 h 1.5 v 0 l 2.6,-0.1 v 0 l 6.3,-0.2 -0.1,0.9 -0.1,1.4 z m 1.4,9.6 v 0 h -0.9 v -9.2 l 1.3,0.1 v 0 -0.1 0 0.1 z m 6.7,-5.3 h -6.1 l 0.2,-3.9 5.8,0.3 v 0 0 3.7 z m 0.6,5.4 h -0.4 v -9 l 1.1,0.1 v 0 -0.2 0 0.2 z m 5.7,-0.9 v 0 l -2,0.8 -0.8,-1 -1,-1.2 v 0 h 0.5 l 0.1,-0.3 c 0,0 0,0 0,0 l -0.1,0.3 v 0 c 0.2,0.2 2,0.9 3.3,1.4 z m 0.6,-1.7 v 0 l -1.1,1.2 v 0 c -0.9,-0.4 -2.2,-0.9 -2.7,-1 0,0 0,0 0,0 v -0.4 h -0.2 v -0.3 0 0.3 h 0.1 z m -12.8,-27.9 c 0.3,-0.6 1,-1 1.7,-1.1 0.5,0 1,0.2 1.4,0.6 0.7,0.6 1.1,1.7 1.2,3 0,0.9 -0.2,1.8 -0.7,2.6 -0.3,0.6 -1,1 -1.7,1.1 -1,0 -1.9,-0.8 -2.3,-2.1 -0.1,-0.4 -0.2,-0.9 -0.3,-1.5 0,-0.9 0.3,-1.8 0.7,-2.6 z"
   id="path2440" />
	<path
   d="m 230.6,234.3 -0.3,0.1 v 0 l 1.4,5.8 0.1,0.3 v 0 0 0 0 l -0.1,-0.3 c 0,0 0,0 0,0 -1,-0.1 -1.9,-0.2 -2.2,-0.3 v 0 0.3 0 c 0.4,0 1.4,0.2 2.3,0.3 0,0 0,0 0,0 l 0.1,0.6 0.3,1.3 v 0 h 0.3 v 0 z"
   id="path2442" />
	<line
   class="st3"
   x1="238.89999"
   y1="251.8"
   x2="239"
   y2="251.8"
   id="line2444" />
	<polygon
   points="225.8,226.8 228.1,242.5 228.4,242.5 226.2,227.1 228.1,227.1 229.3,242.4 229.6,242.4 229.4,240.2 229.4,239.9 229.3,238.6 229,234.1 228.4,226.8 "
   id="polygon2446" />
</g>
</svg>
