<?xml version="1.0" encoding="utf-8"?>
<!-- Generator: Adobe Illustrator 27.9.0, SVG Export Plug-In . SVG Version: 6.00 Build 0)  -->
<svg version="1.1" id="Layer_1" xmlns="http://www.w3.org/2000/svg" xmlns:xlink="http://www.w3.org/1999/xlink" x="0px" y="0px"
	 viewBox="0 0 149.1 124.7" style="enable-background:new 0 0 149.1 124.7;" xml:space="preserve">
<style type="text/css">
	.st0{fill:none;}
	.st1{fill:#FFFFFF;}
	.st2{fill:#27AAE1;}
</style>
<g>
	<path class="st0" d="M100.2,56.7L100.2,56.7l0.9-0.5l0,0L100.2,56.7c-0.1,0-0.1,0-0.2-0.1c-0.1,0-0.1,0-0.2-0.1
		c0.1,0,0.1,0,0.2,0.1C100.1,56.6,100.1,56.7,100.2,56.7z"/>
	<path class="st0" d="M104.1,82L104.1,82c0.1,0,0.2,0,0.3,0l0,0C104.3,82,104.2,82,104.1,82z"/>
	<polygon class="st0" points="74.3,85.6 74.3,85.6 73.9,84.7 	"/>
	<path class="st0" d="M110,57.4c-0.1,2.3-0.3,4.7-0.4,7.1c0,0,0,0,0,0l0,0C109.7,62,109.9,59.7,110,57.4C110,57.4,110,57.4,110,57.4
		c-4.3-1.9-7.9-5-10.5-8.9l0,0C102.1,52.4,105.7,55.5,110,57.4z"/>
	<polygon class="st0" points="80.5,83 80.5,83 80,74.8 	"/>
	<polygon class="st0" points="73.7,86.6 73.7,86.6 74,86 	"/>
	<path class="st0" d="M118.4,61.4c2-0.7,4-1.3,6.1-2c0.5-0.2,1-0.3,1.5-0.5c-0.5,0.2-1,0.3-1.5,0.5
		C122.4,60.1,120.4,60.8,118.4,61.4C118.4,61.4,118.4,61.4,118.4,61.4z"/>
	<path class="st0" d="M124.5,59.5c-0.5-1.1-1.1-2.6-1.6-3.7C123.4,56.9,124,58.4,124.5,59.5z"/>
	<path class="st0" d="M21.9,59C16,63.2,2.8,75.2,4.4,97.4l0,0C2.8,75.2,16,63.2,21.9,59z"/>
	<polygon class="st0" points="77.1,94.5 73.3,103.4 64.3,91.2 64.6,73.1 64.6,73.1 64.6,73.1 64.3,91.2 64.3,91.2 73.3,103.4 
		77.1,94.6 	"/>
	<path class="st0" d="M23.6,57.9C23.6,57.9,23.6,57.9,23.6,57.9c-0.2,1.1-0.4,2.8-0.7,5C19.5,65.5,8.2,75.9,9.3,96.1l0,0
		C8.2,75.9,19.5,65.5,22.9,62.9c0,0,0,0,0,0C23.2,60.7,23.4,59,23.6,57.9c0.6-0.4,0.9-0.6,1-0.6l0,0C24.5,57.3,24.1,57.5,23.6,57.9z
		"/>
	<polygon class="st0" points="110.1,56.2 110.1,56.2 111.5,56.3 111.5,56.3 	"/>
	<path class="st0" d="M114.8,58.5L114.8,58.5c-1.1-0.1-2.2-0.2-3.2-0.5c0-0.5,0.1-1.1,0.1-1.6h0c0,0.5-0.1,1.1-0.1,1.6
		c-0.1,1.9-0.2,3.9-0.3,5.9c0,0.4,0,0.7-0.1,1.1l0,0.3l0,0l0-0.3c0-0.4,0-0.7,0.1-1.1c0.1-2,0.2-4,0.3-5.9v0
		C112.6,58.2,113.7,58.4,114.8,58.5c0.3,0.6,1.3,2.2,2,3.5c0,0,0,0,0,0C116.1,60.7,115.2,59,114.8,58.5z"/>
	<path class="st0" d="M127.1,45.7c0,0.2-0.1,0.4-0.1,0.6C127,46.1,127,45.9,127.1,45.7z"/>
	<polygon class="st0" points="73,91.1 74.4,89.3 74.4,89.3 74.4,89.3 73,91.1 	"/>
	<path class="st0" d="M103.9,10.1c8.3-2.6,18.3,5.7,22.3,18.4c1.9,6,2.1,11.9,1,16.8c1.1-4.9,0.9-10.8-1-16.8
		C122.2,15.8,112.3,7.5,103.9,10.1c-5.8,1.8-9.3,8.5-9.4,16.8C94.7,18.6,98.1,11.9,103.9,10.1z"/>
	<path class="st0" d="M107.5,83.8l0.1-1.6l-0.2,0c-0.1,0-0.2,0-0.3,0c0.1,0,0.2,0,0.3,0l0.2,0L107.5,83.8L107.5,83.8z"/>
	<path class="st0" d="M87.9,59.6C87.9,59.6,87.9,59.6,87.9,59.6c2.7,0.1,3.7,0,5-0.7C91.6,59.6,90.6,59.7,87.9,59.6z"/>
	<path class="st0" d="M98.4,57.8c0.2,0,0.4,0.1,0.6,0.1c0.2,0,0.3,0.1,0.5,0.2l0,0c-0.2-0.1-0.3-0.1-0.5-0.2
		C98.8,57.9,98.6,57.9,98.4,57.8z"/>
	<polygon class="st0" points="106.4,65.6 106.4,65.6 106.6,82.1 106.6,82.1 	"/>
	<path class="st0" d="M87.9,58c3.2,0.1,3.5,0,5.1-1c2.2-1.5,5.4-0.8,6.3-0.6c0.1,0,0.1,0,0.2,0.1c-0.1,0-0.1-0.1-0.2-0.1
		c-0.9-0.2-4.1-0.9-6.3,0.6C91.5,58,91.1,58.1,87.9,58c-2.5,0.1-4.8,1-6.8,2.5l1,1.3c0,0,0,0,0,0l-1-1.3C83.1,59,85.5,58.1,87.9,58z
		"/>
	<path class="st0" d="M122.9,55.8C122.9,55.8,122.9,55.8,122.9,55.8c-1.2,0.9-2.5,1.7-4,2.1c-0.7,0.2-1.5,0.4-2.3,0.5
		c-0.3-0.6-0.6-1-0.6-1l-1.4,0.8l0,0l1.4-0.8l0.6,1c0.8-0.1,1.5-0.2,2.3-0.5C120.4,57.5,121.7,56.7,122.9,55.8z"/>
	<path class="st0" d="M35.4,62.8c-1-0.2-1.9-0.3-2.9-0.4C33.4,62.5,34.4,62.6,35.4,62.8z"/>
	<polygon class="st0" points="46.4,58.3 46.4,58.3 46.4,58.3 	"/>
	<path class="st0" d="M48.7,60.6c5.3,1.5,10.5,3.4,15.5,5.6l0.5,0.2l0,0.3l-0.1-0.2l0,0l0.1,0.2l7,13.7l-7-13.7l0-0.3l-0.5-0.2
		C59.2,63.9,54,62.1,48.7,60.6L48.7,60.6c-0.5-0.2-1.1-0.3-1.6-0.4l0.1-0.6l-0.1,0.6C47.7,60.3,48.2,60.4,48.7,60.6z"/>
	<path class="st0" d="M63,70.6L63,70.6c-1.8-0.7-8.9-3.3-16.9-5.5C54.2,67.3,61.2,69.9,63,70.6z"/>
	<path class="st0" d="M45.4,64.9c-1.4-0.4-2.7-0.7-4.1-1C42.7,64.2,44.1,64.6,45.4,64.9z"/>
	<path class="st0" d="M47.3,61.9l-10.8-2.6c0,0,0,0,0,0L47.3,61.9C47.3,61.9,47.3,61.9,47.3,61.9z"/>
	<path class="st0" d="M15.2,95.2L15.2,95.2c0-0.2,0-0.5,0-0.7l0,0C15.1,94.7,15.2,95,15.2,95.2z"/>
	<path class="st0" d="M58.4,52.6c-0.1,0-0.3,0-0.4-0.1l0,0C58.1,52.6,58.2,52.6,58.4,52.6C58.4,52.6,58.4,52.6,58.4,52.6
		C58.4,52.6,58.4,52.6,58.4,52.6z"/>
	<polygon class="st0" points="49.1,58 49.2,57.5 49.2,57.5 49.1,58 49,58.8 49.1,58 	"/>
	<path class="st0" d="M77.2,57.2c-5.6-2-11.5-3.5-17.4-4.4C65.7,53.7,71.6,55.2,77.2,57.2L77.2,57.2z"/>
	<polygon class="st0" points="20.4,93.1 20.4,93.3 20.4,93.1 	"/>
	<polygon class="st0" points="58.1,51 58.1,51.2 58.1,51 	"/>
	<polygon class="st0" points="17.2,84.7 17.2,84.8 17.9,84.8 17.9,84.7 	"/>
	<polygon class="st0" points="21.4,84.7 20.5,84.7 20.5,84.8 21.4,84.8 21.4,83.1 21.4,83.1 	"/>
	<path class="st0" d="M32.5,62.3c-1.4-0.2-2.8-0.3-4.1-0.3C29.7,62.1,31,62.2,32.5,62.3z"/>
	<path class="st0" d="M21.9,77.5c0.3-0.3,0.5-0.5,0.8-0.8l0,0C22.4,77,22.1,77.3,21.9,77.5z"/>
	<path class="st0" d="M24.6,62.1c0.3-2.1,0.5-3.7,0.6-4.6c0,0,0,0,0,0C25.1,58.4,24.9,60,24.6,62.1c-1.4,10.9-4.3,35.8-3.9,53.3l0,0
		C20.3,97.9,23.2,73,24.6,62.1z"/>
	<path class="st0" d="M116.1,63.1L116.1,63.1c0,0,0.1,0.3,0.2,0.8l0,0C116.2,63.4,116.1,63.1,116.1,63.1z"/>
	<path class="st0" d="M143.8,99c0.3-7.8-0.1-15.5-1.4-23.2C143.5,82.5,144.1,90.4,143.8,99z"/>
	<path class="st0" d="M143.8,99.2c0,0.5-0.1,1-0.1,1.6C143.8,100.2,143.8,99.7,143.8,99.2z"/>
	<path class="st0" d="M62.5,17.8c0-0.2-0.1-0.3-0.1-0.5C62.4,17.4,62.4,17.6,62.5,17.8z"/>
	<path class="st0" d="M62.6,19.3C62.6,19.3,62.6,19.3,62.6,19.3c0-0.5-0.1-1-0.1-1.6C62.5,18.3,62.6,18.8,62.6,19.3z"/>
	<path class="st0" d="M62.2,16.2C62.2,16.2,62.2,16.2,62.2,16.2L62.2,16.2C62.2,16.2,62.2,16.2,62.2,16.2c0.6,0.1,1.3,0.1,1.9,0.1
		c0.4,1,0.7,2.1,0.9,3.2c0,0,0,0,0,0c0.5,0,1.1,0.1,1.6,0.1l0,0c-0.5,0-1.1-0.1-1.6-0.1c-0.3-1.1-0.6-2.2-0.9-3.2l0,0
		C63.5,16.3,62.9,16.2,62.2,16.2c-2.1-0.2-4.1-0.6-6.2-1.1C58.1,15.6,60.1,16,62.2,16.2C62.2,16.2,62.2,16.2,62.2,16.2z"/>
	<path class="st0" d="M58.5,14c-0.4-0.1-0.8-0.2-1.1-0.3C57.7,13.8,58.1,13.9,58.5,14z"/>
	<path class="st0" d="M65.9,25.1C65.9,25.1,65.9,25.1,65.9,25.1C65.9,25.1,65.9,25.1,65.9,25.1c-0.1-1.3-0.2-2.7-0.5-4c0,0,0,0,0,0
		c-0.9,0-1.8-0.1-2.6-0.2c0.8,0.1,1.7,0.1,2.6,0.2C65.7,22.5,65.8,23.8,65.9,25.1z"/>
	<path class="st0" d="M40.2,28.8c-2.8-2.4-5.2-5.2-7.1-8.3c0.2-0.7,0.5-1.3,0.8-2c4,4.6,12.9,12.7,26.2,12.7l0,0c0,0,0,0,0,0
		c-13.3,0-22.2-8.1-26.2-12.7v0c-0.3,0.7-0.5,1.3-0.8,2C35,23.6,37.4,26.4,40.2,28.8c6.1,5.2,13,7,20.4,5.5c0,0,0,0,0,0c0,0,0,0,0,0
		C53.2,35.8,46.3,33.9,40.2,28.8z"/>
	<path class="st0" d="M63,11L63,11c-0.5,0-1-0.1-1.5-0.1c0,0,0,0,0,0C62,11,62.5,11,63,11z"/>
	<path class="st0" d="M32.7,17.1c0.3,0.4,0.7,0.9,1.1,1.4C33.4,18,33.1,17.5,32.7,17.1z"/>
	<path class="st0" d="M61.7,29.5C61.7,29.5,61.7,29.5,61.7,29.5c0.1-0.5,0.2-0.9,0.3-1.4c0.1-0.5,0.1-0.9,0.2-1.3l0,0
		c-0.1,0.4-0.1,0.9-0.2,1.3C61.9,28.6,61.8,29,61.7,29.5z"/>
	<path class="st0" d="M62.4,25.2c0.2-1.4,0.3-2.8,0.3-4.2l0,0C62.7,22.4,62.6,23.8,62.4,25.2L62.4,25.2z"/>
	<path class="st0" d="M63.9,26.8c-0.6,0-1.1,0-1.7,0C62.8,26.8,63.3,26.8,63.9,26.8C63.9,26.8,63.9,26.8,63.9,26.8z"/>
	<polygon class="st0" points="66.7,19.9 66.6,21.2 66.6,21.2 	"/>
	<path class="st0" d="M58.7,9c-2.4-2.5-5.5-4.1-8.9-4.6c0,0,0,0,0,0C53.2,4.9,56.3,6.5,58.7,9C58.7,9,58.7,9,58.7,9z"/>
	<path class="st0" d="M106.7,84.5l0-0.8c0,0,0,0,0,0c-0.2,0-0.5,0-0.7,0l0,0c0.2,0,0.5,0,0.7,0L106.7,84.5L106.7,84.5l1.6,1.8v0
		L106.7,84.5z"/>
	<polygon class="st0" points="113.7,94.6 113.7,94.6 97.2,76.6 86.6,63.3 86.5,63.3 97.2,76.6 	"/>
	<path class="st0" d="M112.9,112.5L112.9,112.5L112.9,112.5c0.1-0.1,0.1-0.2,0.2-0.4l0,0C113.1,112.3,113,112.4,112.9,112.5z"/>
	<polygon class="st0" points="81.3,84.5 81.3,84.5 77.9,92.6 75.5,87.8 75.5,87.8 75.2,87.2 76.8,84.7 76.8,84.7 75.2,87.2 
		75.2,87.2 75.5,87.8 77.9,92.6 78.7,94.2 77.3,94.9 77.3,94.9 78.7,94.2 77.9,92.6 	"/>
	<path class="st1" d="M113.7,94.6l-16.5-18L86.5,63.3l-0.8,0.5l3.9,7.1l-2.9,4.9l7.2,4.3l19,32.4c0.1-0.1,0.1-0.3,0.2-0.4l0,0
		c2-4.5,3.3-9.3,3.6-14.3L113.7,94.6L113.7,94.6z"/>
	<path class="st1" d="M143.7,100.7c0-0.5,0.1-1,0.1-1.6c0-0.1,0-0.1,0-0.2c0.3-8.5-0.4-16.5-1.4-23.2c-0.2-1.5-0.5-3-0.8-4.4
		c-0.9-4.7-2.3-9.3-4.1-13.7c-4.7,0.8-14.2,3.9-21.3,6.3c0,0,0,0,0,0l0,0c0,0,0,0,0,0c1.2,6.1,1.9,12.2,2.3,18.4
		c0.8,14.2-0.8,25.1-4.9,32.3l-0.7,1.2l29.9-6.2c0,0,0,0,0,0h0C143.3,106.6,143.6,103.7,143.7,100.7z"/>
	<path class="st1" d="M108.1,66.7l0.2,19.5l0,0v0l0,0l8.7,9.4c1-13.4-1.5-27.5-2.2-31.3C111.6,65.5,109.1,66.3,108.1,66.7z"/>
	<path class="st1" d="M58.7,9c0.5,0.1,0.9,0.1,1.4,0.2c-2-2.5-4.9-4.1-8.1-4.6c-0.5-0.1-1.1-0.1-1.6-0.1c-0.2,0-0.5,0-0.7,0
		C53.2,4.9,56.3,6.5,58.7,9C58.7,9,58.7,9,58.7,9z"/>
	<path class="st1" d="M47.2,60.1l0.1-0.6l0.2-1.2c-0.4,0-0.7,0-1.1,0c0,0,0,0,0,0c0,0,0,0,0,0l0,0c-0.6,0-1.2,0-1.8-0.1
		c-2.3-0.3-4.5-1.2-6.3-2.6l-0.3,2.3c0,0,0,0,0,0l0,0C40.7,58.5,43.8,59.2,47.2,60.1C47.2,60.1,47.2,60.1,47.2,60.1z"/>
	<path class="st1" d="M126.2,28.5c-4-12.8-14-21-22.3-18.4c-5.8,1.8-9.3,8.5-9.4,16.8c-0.1,3.5,0.5,7.3,1.6,11.1
		c2.9,9.3,9.1,16.3,15.4,18.3l0,0c0,0,0,0,0,0l0,0l0.1,0c0,0,0,0,0,0c2.2,0.7,4.5,0.8,6.8,0.1c4.1-1.3,7.1-5.1,8.5-10.1
		c0.1-0.2,0.1-0.4,0.1-0.6c0-0.1,0.1-0.3,0.1-0.4C128.3,40.4,128.1,34.5,126.2,28.5z"/>
	<path class="st1" d="M106.4,65.6L106.4,65.6l0.5-0.2c0.2-0.1,1.2-0.4,2.7-0.9c0.1-2.4,0.3-4.8,0.4-7.1c-4.3-1.9-7.9-5-10.5-8.8
		l0.1,0.2c-10,2.4-17.7,5.4-20.8,8.2L80,74.8l0.5,8.2c1.8-0.2,6.3-0.8,12.7-1l-0.4-0.7l-8.2-4.9l3.2-5.5l-4.2-7.6l3.2-2.2l11.5,14.4
		l6,6.5c0,0,0,0,0,0l0,0c0,0,0,0,0,0c0.7,0,1.5,0,2.2,0.1c0,0,0,0,0,0L106.4,65.6L106.4,65.6z M99.4,58.1
		C99.4,58.1,99.4,58.1,99.4,58.1L99.4,58.1c-0.2-0.1-0.3-0.1-0.5-0.2c-0.2,0-0.4-0.1-0.6-0.1c-1.4-0.3-3.2-0.3-4.4,0.5
		c-0.4,0.2-0.7,0.4-1,0.6c-1.3,0.7-2.3,0.7-5,0.7c-2.1,0.2-4.1,0.9-5.8,2.2l0,0c0,0,0,0,0,0l-1-1.3c2-1.5,4.3-2.4,6.8-2.5
		c3.2,0.1,3.5,0,5.1-1c2.2-1.5,5.4-0.8,6.3-0.6c0.1,0,0.1,0.1,0.2,0.1c0.1,0,0.2,0.1,0.3,0.1c0.1,0,0.1,0,0.2,0.1
		c0.1,0,0.1,0,0.2,0.1l0.9-0.5l0,0l0,0l0.8,1.4C100.6,58.3,100.3,58.5,99.4,58.1z"/>
	<polygon class="st1" points="61.5,10.9 61.5,10.9 61.5,10.9 61.5,10.9 61.5,10.9 	"/>
	<path class="st1" d="M61.5,10.9L61.5,10.9c-0.5,0-0.9-0.1-1.4-0.1c0.7,1.1,1.3,2.4,1.7,3.7c0.6,0.1,1.2,0.1,1.7,0.2
		C62.9,13.4,62.2,12.1,61.5,10.9C61.5,10.9,61.5,10.9,61.5,10.9z"/>
	<path class="st1" d="M118.9,57.9c-0.7,0.2-1.5,0.4-2.3,0.5l0,0c0.5,0.9,1.2,2.1,1.7,3c2-0.7,4-1.3,6-2c-0.5-1.1-1.1-2.6-1.6-3.7
		C121.7,56.7,120.4,57.5,118.9,57.9z"/>
	<path class="st1" d="M111.6,57.9L111.6,57.9c-0.1,1.9-0.2,3.9-0.3,5.9c1.6-0.6,3.5-1.2,5.6-1.9c-0.7-1.3-1.7-2.9-2-3.5
		C113.7,58.4,112.6,58.2,111.6,57.9z"/>
	<polygon class="st1" points="75.5,87.8 75.5,87.8 75.5,87.8 77.7,84.7 76.8,84.7 75.2,87.2 	"/>
	<polygon class="st1" points="73.9,84.7 74.3,85.6 74.3,85.6 74.9,84.7 	"/>
	<polygon class="st1" points="64.6,73.1 73,91.1 74.4,89.3 64.7,70.1 64.6,73.1 64.6,73.1 	"/>
	<polygon class="st1" points="47.8,56.6 47.8,56.6 47.8,56.6 	"/>
	<path class="st1" d="M47.8,56.6c8-0.9,15.3-9.9,17.6-21.9c-1.7,0.6-3.4,1-5.1,1.3C57.4,46.9,53.5,54.2,47.8,56.6z"/>
	<path class="st1" d="M62.4,25.2c1.1,0,2.3,0,3.5,0c-0.1-1.3-0.3-2.7-0.5-4c-0.9,0-1.8-0.1-2.6-0.2c-0.1,0-0.1,0-0.2,0
		C62.7,22.4,62.6,23.8,62.4,25.2C62.4,25.2,62.4,25.2,62.4,25.2z"/>
	<path class="st1" d="M60.7,34.3C60.7,34.3,60.7,34.3,60.7,34.3c1.7-0.3,3.4-0.8,5-1.4c0,0,0,0,0,0c0.1-0.7,0.2-1.5,0.2-2.2
		c-1.5,0.3-3,0.4-4.5,0.5l0,0C61.1,32.2,60.9,33.3,60.7,34.3L60.7,34.3z"/>
	<polygon class="st1" points="62.2,16.2 62.2,16.2 62.2,16.2 	"/>
	<path class="st1" d="M62.2,16.2C62.2,16.2,62.2,16.2,62.2,16.2C62.2,16.2,62.2,16.2,62.2,16.2c0.1,0.4,0.1,0.7,0.2,1.1
		c0,0.2,0.1,0.3,0.1,0.5c0,0,0,0,0,0c0.1,0.5,0.1,1,0.2,1.6c0,0,0,0,0,0c0.8,0.1,1.6,0.1,2.5,0.2c-0.3-1.1-0.6-2.2-0.9-3.2
		C63.5,16.3,62.9,16.2,62.2,16.2z"/>
	<path class="st1" d="M62.2,26.8c-0.1,0.4-0.1,0.9-0.2,1.3c-0.1,0.5-0.2,0.9-0.3,1.4c1.4-0.1,2.9-0.2,4.3-0.5c0,0,0,0,0,0
		c0-0.7,0-1.5,0-2.2c0,0,0,0,0,0c0,0,0,0,0,0l0,0c-0.7,0-1.4,0.1-2.1,0.1c0,0,0,0,0,0c0,0,0,0,0,0C63.3,26.8,62.8,26.8,62.2,26.8
		L62.2,26.8C62.2,26.8,62.2,26.8,62.2,26.8z"/>
	<path class="st1" d="M64.2,66.1l0.5,0.2l0,0.3l7,13.7l1.4,2.7h5.8l-1.7-25.9c-5.6-2-11.5-3.5-17.4-4.4c-0.5-0.1-1-0.1-1.5-0.2
		c0,0,0,0,0,0c0,0,0,0,0,0c-2.5,2.7-5.7,4.6-9.2,5.4l0,0h0L49,58.8l-0.3,1.8c0,0,0,0,0,0l0,0C54,62.1,59.2,63.9,64.2,66.1z"/>
	<path class="st1" d="M22.9,62.9c0.3-2.2,0.5-3.9,0.7-5c-0.4,0.3-1,0.7-1.7,1.1C16,63.2,2.8,75.2,4.4,97.4l4.9-1.3l0,0
		C8.2,75.9,19.5,65.5,22.9,62.9z"/>
	<path class="st1" d="M105.9,83.7l0.7,0.8l0-0.8C106.4,83.7,106.2,83.7,105.9,83.7z"/>
	<path class="st1" d="M21.1,78.4c-1.1,1.4-2,3-2.7,4.7h2.2C20.8,81.5,21,79.9,21.1,78.4z"/>
	<path class="st1" d="M28.3,62c1.3,0,2.7,0.2,4.1,0.3c0.9,0.1,1.9,0.3,2.9,0.4c2,0.3,4,0.7,5.9,1.2c1.4,0.3,2.8,0.7,4.1,1
		c0.2,0.1,0.5,0.1,0.7,0.2c8.1,2.2,15.1,4.8,16.9,5.5l0.1-3.2c-5.1-2.2-10.3-4-15.6-5.5c-0.1,0-0.1,0-0.2,0l-10.9-2.6
		c0,0-0.1,0-0.1,0c-5.4-1.1-9.5-1.6-11.1-1.7c-0.1,0.9-0.3,2.5-0.6,4.6C25.8,62,27,62,28.3,62z"/>
	<path class="st2" d="M34.6,16.9c3.7,4.4,12.9,13.3,27.1,12.6c0,0,0,0,0,0c0.1-0.5,0.2-0.9,0.3-1.4c0.1-0.5,0.1-0.9,0.2-1.3
		C49,26.2,39.7,19.2,35.5,15.2c0,0,0,0,0,0c0,0,0,0,0,0C35.2,15.8,34.9,16.3,34.6,16.9z"/>
	<polygon class="st2" points="62.2,26.8 62.2,26.8 62.2,26.8 62.2,26.8 	"/>
	<path class="st2" d="M36.4,13.8C36.4,13.8,36.4,13.8,36.4,13.8c3.9,3.7,13,10.8,26.1,11.4c0.2-1.4,0.3-2.8,0.3-4.2
		c-15-1.3-22.1-6.5-24.8-9.2c0,0,0,0,0,0c0,0,0,0,0,0C37.3,12.4,36.8,13.1,36.4,13.8z"/>
	<path class="st2" d="M60.1,31.1c-13.3,0-22.2-8.1-26.2-12.7c-0.3,0.7-0.5,1.3-0.8,2c2,3.1,4.4,5.9,7.1,8.3c6.1,5.2,13,7,20.4,5.5h0
		c0.2-1,0.5-2.1,0.7-3.2c0,0,0,0,0,0C60.9,31.1,60.5,31.1,60.1,31.1L60.1,31.1z"/>
	<polygon class="st2" points="60.2,36 60.2,36 60.2,36 	"/>
	<path class="st2" d="M31.2,28.2c-0.7,4.1-0.5,8.2,0.3,12.2c0.5,2.4,1.3,4.7,2.3,7c2.6,5.3,6.5,8.6,11,9.2c0.5,0.1,1.1,0.1,1.6,0.1
		c0.5,0,0.9,0,1.4-0.1c5.7-2.4,9.6-9.7,12.5-20.6c-1.4,0.2-2.9,0.4-4.3,0.4c-11.9,0-19.7-8.5-23.5-14c0,0,0,0,0,0c0,0,0,0,0,0
		C31.9,24.3,31.5,26.2,31.2,28.2z"/>
	<path class="st2" d="M38.9,10.4C38.9,10.4,38.9,10.4,38.9,10.4c2.4,2.5,9.2,7.6,23.7,9c0-0.5-0.1-1-0.1-1.6c0,0,0,0,0,0
		c0-0.2-0.1-0.3-0.1-0.5c-0.1-0.4-0.1-0.7-0.2-1.1c0,0,0,0,0,0c-2.1-0.2-4.1-0.6-6.2-1.1c-6.5-1.7-12.4-4.6-15.4-6.2
		c0,0-0.1,0-0.1-0.1C40,9.2,39.4,9.8,38.9,10.4z"/>
	<path class="st2" d="M49.7,4.5c-1.8,0.1-3.5,0.6-5.1,1.4c4.6,1.4,9.3,2.5,14,3.2C56.3,6.5,53.2,4.9,49.7,4.5z"/>
	<path class="st2" d="M41.9,7.6c3.2,1.7,9.1,4.6,15.5,6.1c0.4,0.1,0.8,0.2,1.1,0.3c0.1,0,0.2,0.1,0.3,0.1c1,0.2,2,0.4,3,0.5
		c-0.4-1.3-1-2.5-1.7-3.7c-2.4-0.3-4.9-0.7-7.3-1.2c-3.4-0.7-6.7-1.6-10-2.7l0,0c0,0,0,0,0,0C42.5,7.2,42.2,7.4,41.9,7.6
		C41.9,7.6,41.9,7.6,41.9,7.6z"/>
	<path class="st2" d="M9.3,96.1l5.8-1.6c0,0,0,0,0,0l0,0c0,0,0,0,0,0v0c-0.6-12,4.9-17.6,6.3-18.8c0.5-5,1.1-9.5,1.5-12.8
		C19.5,65.5,8.2,75.9,9.3,96.1z"/>
	<path class="st2" d="M17.9,84.7C17.9,84.7,17.9,84.7,17.9,84.7L17.9,84.7c-0.9,3-1.3,6.2-1.1,9.3l3.1-0.8l0,0
		c0.2-2.9,0.4-5.7,0.7-8.5h0c0,0,0,0,0,0H17.9z"/>
	<polygon class="st2" points="73,91.1 64.6,73.1 64.6,73.1 64.3,91.2 73.3,103.4 77.1,94.5 77.1,94.5 74.4,89.3 73,91.1 	"/>
	<path class="st2" d="M75.5,87.8l2.4,4.8l3.4-8c-0.9,0.1-1.4,0.2-1.4,0.2l0,0v0h0L79,84.9l0-0.1h-1.3h0L75.5,87.8L75.5,87.8z"/>
	<path class="st2" d="M63,70.6L63,70.6c-1.8-0.7-8.9-3.3-16.9-5.5c-0.2-0.1-0.5-0.1-0.7-0.2c-1.4-0.4-2.7-0.7-4.1-1
		c-2-0.5-4-0.9-5.9-1.2c-1-0.2-1.9-0.3-2.9-0.4c-1.4-0.2-2.8-0.3-4.1-0.3c-1.3,0-2.6,0-3.7,0.1c-1.4,10.9-4.3,35.8-3.9,53.3l0,0
		c0,0,0,0,0,0l-0.7,0c0.4,0.1,26,4.8,43,2l-0.9,0L63,70.6z"/>
	<path d="M52.8,9.6c2.4,0.5,4.8,0.9,7.3,1.2c0,0,0,0,0,0c0.5,0,0.9,0.1,1.4,0.1l0,0c0,0,0,0,0,0c0,0,0,0,0,0c0,0,0,0,0,0
		c0,0,0,0,0,0c0.5,0,1,0.1,1.5,0.1l0,0c-0.5,0-1-0.1-1.5-0.1c0,0,0,0,0,0c0.8,1.2,1.5,2.4,2,3.7c0,0,0,0,0,0c0.6,0,1.2,0.1,1.7,0
		c-0.6-1.5-1.3-2.9-2.2-4.3l0,0l0-1c-0.3,0-0.5,0-0.8,0c0,0,0,0,0,0C60,6,56.3,3.6,52.3,3c-3.4-0.4-6.8,0.4-9.7,2.2
		c-0.4-0.1-0.7-0.2-0.7-0.2l-0.3,0.9l-0.2,0.6c0.1,0,0.6,0.2,1.5,0.5l0,0l0,0C46.1,8.1,49.4,8.9,52.8,9.6z M49.7,4.5
		C49.8,4.5,49.8,4.5,49.7,4.5c0.2,0,0.5,0,0.7,0c0.5,0,1.1,0,1.6,0.1c3.2,0.5,6,2.2,8.1,4.6c-0.5,0-0.9-0.1-1.4-0.2c0,0,0,0,0,0
		c0,0,0,0,0,0c-4.7-0.7-9.4-1.7-14-3.2C46.3,5.1,48,4.6,49.7,4.5z"/>
	<path d="M63.9,26.8c0.7,0,1.4,0,2.1-0.1c0,0,0,0,0,0c0.5,0,1.1-0.1,1.6-0.1l0.1,0L67.6,25h0c-0.2-3-0.8-5.9-1.7-8.7c0,0,0,0,0,0
		c0.3,0,0.6,0,0.9,0l-0.1-1.6c-0.5,0-0.9,0-1.4,0c-0.6,0-1.2,0-1.7,0c-0.6,0-1.1-0.1-1.7-0.2c-1-0.1-2-0.3-3-0.5
		c-0.1,0-0.2-0.1-0.3-0.1c-0.4-0.1-0.8-0.2-1.1-0.3C51,12.2,45,9.3,41.9,7.6c0,0,0,0,0,0c0.3-0.2,0.6-0.5,0.9-0.7c0,0,0,0,0,0
		c-0.8-0.3-1.4-0.5-1.5-0.5l0.2-0.6c-0.4,0.3-0.8,0.6-1.2,0.9c-0.5-0.3-0.8-0.5-0.8-0.5l-0.8,1.4c0,0,0.2,0.1,0.4,0.2
		c0.3,0.2,0.8,0.5,1.5,0.8l0,0c0,0,0.1,0,0.1,0.1c3,1.6,8.9,4.6,15.4,6.2c2,0.5,4.1,0.9,6.2,1.1c0.6,0.1,1.3,0.1,1.9,0.1l0,0
		c0.4,1,0.7,2.1,0.9,3.2c0.5,0,1.1,0.1,1.6,0.1l0,0c-0.5,0-1.1-0.1-1.6-0.1c0,0,0,0,0,0c-0.8,0-1.7-0.1-2.5-0.2c0,0,0,0,0,0
		c0,0,0,0,0,0c-14.5-1.3-21.3-6.4-23.7-8.9c0,0,0,0,0.1-0.1c0.5-0.6,1.1-1.1,1.6-1.6c-0.7-0.4-1.2-0.6-1.5-0.8
		c-0.4,0.4-0.9,0.8-1.3,1.3c0,0,0,0,0,0c-0.1-0.1-0.1-0.1-0.1-0.2l-1.4,0.9c0.1,0.2,0.3,0.4,0.4,0.6c0.3,0.4,0.7,0.8,1.1,1.2l0,0
		c0,0,0,0,0,0c2.8,2.8,9.9,7.9,24.8,9.2l0,0c0.1,0,0.1,0,0.2,0c0.8,0.1,1.7,0.1,2.6,0.2c0,0,0,0,0,0c0.2,1.3,0.4,2.6,0.5,4
		c0,0,0,0,0,0c0,0,0,0,0,0c-1.2,0.1-2.4,0.1-3.5,0c0,0,0,0,0,0h0c-13.1-0.5-22.2-7.6-26.1-11.4c0,0,0,0,0,0c0.5-0.7,1-1.4,1.5-2.1
		c0,0,0,0,0,0c-0.4-0.4-0.8-0.8-1.1-1.2c-0.5,0.7-1.1,1.4-1.5,2.1c0,0,0,0,0,0c-0.6-0.6-0.9-1-1-1.1l-1.3,1c0,0,0.5,0.6,1.3,1.5
		c0.3,0.3,0.7,0.7,1.2,1.2c4.2,3.9,13.5,11,26.7,11.6C62.8,26.8,63.3,26.8,63.9,26.8C63.9,26.8,63.9,26.8,63.9,26.8z M66.7,19.9
		l0,1.3c0,0,0,0,0,0L66.7,19.9z"/>
	<path d="M33.9,18.5c4,4.6,12.9,12.7,26.2,12.7c0,0,0,0,0,0c0.4,0,0.9,0,1.3,0c0,0,0,0,0,0c1.5-0.1,3-0.2,4.5-0.5
		c0.5-0.1,1.1-0.2,1.6-0.3c0.1,0,0.2,0,0.4-0.1l-0.3-1.3l-0.1-0.3c0,0,0,0,0,0l0.1,0.3c0-0.8,0-1.5,0-2.3c-0.5,0-1.1,0.1-1.6,0.1
		c0,0,0,0,0,0c0,0.7,0,1.5,0,2.2c0,0,0,0,0,0c-1.4,0.3-2.8,0.4-4.3,0.5c0,0,0,0,0,0c0,0,0,0,0,0c-14.2,0.7-23.4-8.2-27.1-12.6
		c0.3-0.6,0.6-1.1,0.9-1.6c0,0,0,0,0,0c-0.5-0.4-0.9-0.8-1.2-1.2c-0.3,0.5-0.5,0.9-0.8,1.4c-0.4-0.6-0.7-0.9-0.7-1l-1.4,0.9
		c0,0,0.5,0.7,1.3,1.7C33.1,17.5,33.4,18,33.9,18.5L33.9,18.5z"/>
	<path d="M32,18.7c-0.5-0.9-0.8-1.5-0.8-1.5l-1.5,0.7c0.5,0.9,1,1.9,1.5,2.7c0.3,0.5,0.7,1.1,1.1,1.8v0c3.8,5.5,11.5,14,23.5,14
		c1.4,0,2.9-0.1,4.3-0.4c1.7-0.3,3.4-0.7,5.1-1.3c0.6-0.2,1.2-0.4,1.8-0.7c0.3-0.1,0.6-0.2,0.9-0.4l-0.6-1.5l0,0
		c0.1-0.6,0.1-1.3,0.2-1.9c-0.6,0.1-1.1,0.2-1.6,0.3c0,0,0,0,0,0c-0.1,0.7-0.1,1.5-0.2,2.2c0,0,0,0,0,0c-1.6,0.6-3.3,1.1-5,1.4
		c0,0,0,0,0,0c-7.5,1.5-14.3-0.4-20.4-5.5c-2.8-2.4-5.2-5.2-7.1-8.3c0.2-0.7,0.5-1.3,0.8-2c-0.4-0.5-0.8-1-1.1-1.4
		C32.5,17.6,32.3,18.2,32,18.7C32,18.7,32,18.7,32,18.7z"/>
	<path d="M138.5,55.8l-0.6,0.1c-4,0.8-8,1.8-11.9,3.1c-0.6-1.3-1.4-3.2-1.8-4.4c-0.2-0.6-0.4-1-0.4-1l-1.5,0.6c0,0,0,0,0,0l1.5-0.6
		c0,0,0.2,0.4,0.4,1c5.3-5.5,6.9-16,3.6-26.6c-4.3-13.6-15.2-22.4-24.3-19.5c-9.1,2.9-13.1,16.3-8.9,29.9c1,3.1,2.3,6.1,4.1,8.9
		l0.5-0.1l0,0l-0.5,0.1c-5.2,1.3-16.4,4.3-20.9,8.4c-0.1,0.1-0.3,0.2-0.4,0.4l-0.3,0.3l0,0l0.3-0.3c0.1-0.1,0.3-0.2,0.4-0.4
		c-5.9-2.1-11.9-3.6-18.1-4.5c3.9-4.9,6.5-10.8,7.4-17.1c-0.6,0.2-1.2,0.5-1.8,0.7c-2.2,12-9.6,21-17.6,21.9
		c-0.5,0.1-0.9,0.1-1.4,0.1c-0.5,0-1.1,0-1.6-0.1c-4.5-0.6-8.5-3.9-11-9.2c-1-2.3-1.8-4.6-2.3-7c-0.8-4-0.9-8.1-0.3-12.2
		c0.3-2,0.7-3.9,1.3-5.8c0,0,0,0,0,0c-0.4-0.6-0.8-1.2-1.1-1.8c-0.8,2.4-1.4,4.8-1.7,7.3c-1,7.3-0.1,14.5,2.7,20.2
		c1.1,2.3,2.6,4.4,4.5,6.2l0.1-0.5l0,0l-0.1,0.5l-0.5,3.2c0.5,0.1,1,0.2,1.6,0.3c0,0,0,0,0,0l0.3-2.3c1.9,1.4,4,2.3,6.3,2.6
		c0.6,0.1,1.2,0.1,1.8,0.1c0,0,0,0,0,0c0,0,0,0,0,0c0.4,0,0.7,0,1.1,0l-0.2,1.2l-0.1,0.6c0.5,0.1,1,0.3,1.6,0.4c0,0,0,0,0,0l0.3-1.8
		l0.1-0.8l0.1-0.6l0,0L49.1,58l0,0c3.6-0.8,6.8-2.7,9.2-5.4c0,0,0,0,0,0c-0.1,0-0.3,0-0.4-0.1l0,0c0.1,0,0.3,0,0.4,0.1c0,0,0,0,0,0
		c0.5,0.1,1,0.1,1.5,0.2c5.9,0.9,11.8,2.3,17.4,4.4l0,0l1.7,25.9h-5.8l-1.4-2.7l-7-13.7l-0.1-0.2l0,0l0.1,0.2l0-0.3l-0.5-0.2
		c-5-2.2-10.2-4.1-15.5-5.6c-0.5-0.2-1.1-0.3-1.6-0.4c0,0,0,0,0,0c-3.3-0.9-6.4-1.6-9.3-2.2c0,0,0,0,0,0c-0.5-0.1-1.1-0.2-1.6-0.3
		c-7-1.4-11.6-1.8-11.7-1.8l-0.8-0.1l0,0.2l0.7,1.3L23.8,56l0-0.1C23.5,56,0.2,68.5,2.9,98.5l0.1,1L19.7,95l1.1-0.3l0,0L19.7,95
		c-0.5,7.1-0.7,14.3-0.6,20.5l0.9,0l0,0l0.7,0c0,0,0,0,0,0c-0.4-17.4,2.5-42.4,3.9-53.2c0.3-2.1,0.5-3.7,0.6-4.6c0,0,0,0,0,0
		c1.6,0.2,5.7,0.7,11.1,1.7c0,0,0.1,0,0.1,0c0,0,0,0,0,0l10.8,2.6c0,0,0,0,0,0c0.1,0,0.1,0,0.2,0c5.3,1.5,10.5,3.3,15.6,5.5L63,70.6
		v0l0,0l-0.8,46.8l0.9,0l0,0l0.7,0l0.4-23.6l-1.4-1.9l1.3-1l0,0l-1.3,1l1.4,1.9l9.5,12.8l9.4-22.3c-0.7,0.1-1.4,0.2-1.8,0.2l0,0
		c0.5-0.1,1.1-0.1,1.8-0.2c2.4-0.3,6.2-0.6,11-0.7h0l18.9,32.2l0,0l0.7-1.2c4.1-7.2,5.8-18,4.9-32.3c-0.4-6.2-1.2-12.3-2.3-18.4
		c0,0,0,0,0,0c-0.1-0.5-0.2-0.7-0.2-0.8l0,0c0,0,0.1,0.3,0.2,0.8c0,0,0,0,0,0c7.1-2.4,16.6-5.5,21.3-6.3c1.8,4.4,3.2,9,4.1,13.7
		c0.3,1.5,0.6,3,0.8,4.4c1.2,7.7,1.7,15.5,1.4,23.2c0,0.1,0,0.1,0,0.2c0,0.5,0,1-0.1,1.6c-0.2,2.9-0.4,5.9-0.8,8.8h0l1.6,0.2
		c4.2-32.1-5.6-53.2-5.7-53.4L138.5,55.8z M58.1,51L58.1,51l0,0.2L58.1,51z M21.1,78.4c-0.2,1.5-0.3,3.1-0.5,4.7h-2.2
		C19.1,81.4,20,79.8,21.1,78.4z M20.4,93.1L20.4,93.1l0.1,0.2L20.4,93.1z M21.4,84.8h-0.9h0c-0.2,2.8-0.5,5.6-0.7,8.5l0,0l-3.1,0.8
		c-0.2-3.1,0.2-6.3,1.1-9.3h0h-0.7v0h0.7h2.7L21.4,84.8l0-1.6h0V84.8z M21.9,77.5c0.3-0.3,0.5-0.5,0.8-0.8l0,0
		C22.4,77,22.1,77.3,21.9,77.5z M23.6,57.9c-0.2,1.1-0.4,2.8-0.7,5c0,0,0,0,0,0c-0.4,3.3-1,7.8-1.5,12.8c-1.4,1.2-6.8,6.8-6.3,18.8
		v0c0,0,0,0,0,0c0,0.2,0,0.5,0,0.7l0,0c0-0.2,0-0.5,0-0.7c0,0,0,0,0,0l-5.8,1.6l0,0l0,0l-4.9,1.3l0,0C2.8,75.2,16,63.2,21.9,59
		C22.5,58.6,23.1,58.2,23.6,57.9C23.6,57.9,23.6,57.9,23.6,57.9c0.6-0.4,0.9-0.6,1-0.6l0,0C24.5,57.4,24.1,57.5,23.6,57.9z
		 M124.5,59.5c0.5-0.2,1-0.3,1.5-0.5C125.4,59.2,124.9,59.3,124.5,59.5c-2,0.6-4.1,1.3-6,2c0,0,0,0,0,0c-0.5-0.9-1.2-2.2-1.7-3l0,0
		l-0.6-1l-1.4,0.8l0,0l1.4-0.8c0,0,0.2,0.4,0.6,1c0.8-0.1,1.5-0.2,2.3-0.5c1.4-0.5,2.8-1.2,4-2.1c0,0,0,0,0,0
		C123.4,56.9,124,58.4,124.5,59.5z M73.7,86.6L74,86L73.7,86.6L73.7,86.6z M74.3,85.6L74.3,85.6l-0.4-0.8h1L74.3,85.6L74.3,85.6z
		 M106.6,82.1C106.6,82.1,106.6,82.1,106.6,82.1c-0.8,0-1.5-0.1-2.2-0.1c0,0,0,0,0,0c-0.1,0-0.2,0-0.3,0v0c0.1,0,0.2,0,0.3,0
		c0,0,0,0,0,0l-6-6.5L86.9,61.1l-3.2,2.2l4.2,7.6l-3.2,5.5l8.2,4.9l0.4,0.7c-6.4,0.2-10.9,0.7-12.7,1c0,0,0,0,0,0L80,74.8l-1.2-17.9
		c3-2.8,10.7-5.8,20.8-8.2l-0.1-0.2l0,0c2.6,3.9,6.2,7,10.5,8.8c0,0,0,0,0,0c-0.1,2.3-0.3,4.7-0.4,7.1l0,0c0,0,0,0,0,0
		c-1.5,0.5-2.5,0.9-2.7,0.9l-0.5,0.2v0L106.6,82.1C106.6,82.1,106.6,82.1,106.6,82.1z M107.4,82.1c-0.1,0-0.2,0-0.3,0
		C107.2,82.1,107.3,82.1,107.4,82.1l0.2,0l-0.1,1.6l0,0l0.1-1.6L107.4,82.1z M111.3,63.9c0,0.4,0,0.7-0.1,1.1l0,0.3l0,0l0-0.3
		C111.2,64.6,111.3,64.2,111.3,63.9c0.1-2,0.2-4,0.3-5.9c0-0.6,0.1-1.1,0.1-1.6h0c0,0.5-0.1,1.1-0.1,1.6c1.1,0.3,2.1,0.5,3.2,0.5
		l0,0c0.3,0.6,1.3,2.2,2,3.5c0,0,0,0,0,0C114.8,62.7,112.8,63.3,111.3,63.9z M104,10.1c8.3-2.6,18.3,5.7,22.3,18.4
		c1.9,6,2.1,11.9,1,16.8c0,0.1-0.1,0.3-0.1,0.4c0,0.2-0.1,0.4-0.1,0.6c-1.4,5-4.4,8.8-8.5,10.1c-2.2,0.7-4.6,0.6-6.8-0.1
		c0,0,0,0,0,0l-0.1,0l0,0l-1.5-0.1c0,0,0,0,0,0l1.5,0.1l0,0c-6.3-2-12.5-9-15.4-18.3c-1.2-3.8-1.7-7.6-1.6-11.1
		C94.7,18.6,98.1,11.9,104,10.1z M73.3,103.4l-9-12.3l0,0l0.3-18v0l0.1-3l9.7,19.1l0,0l0,0l2.7,5.3l0,0l0,0L73.3,103.4z M77.3,94.9
		L77.3,94.9l1.4-0.7l-0.8-1.6l-2.4-4.8l-0.3-0.6l0,0l1.6-2.5h0h0.9h0H79l0,0.1l0.8-0.1h0v0l0,0c0,0,0.5-0.1,1.4-0.2c0,0,0,0,0,0
		l-3.4,8.1l0.8,1.6L77.3,94.9z M113.1,112.1c-0.1,0.1-0.1,0.2-0.2,0.4l0,0l0,0l-19-32.4l-7.2-4.3l2.9-4.9l-3.9-7.1l0.8-0.5l0,0
		l10.6,13.3l16.5,18l3,3.3C116.4,102.8,115.1,107.6,113.1,112.1z M116.9,95.7l-8.7-9.4l0,0l-1.6-1.8l0,0l-0.7-0.8l0,0
		c0.2,0,0.5,0,0.7,0c0,0,0,0,0,0l0,0.8l1.6,1.8l0,0l-0.2-19.5c1-0.4,3.5-1.3,6.7-2.3C115.5,68.2,117.9,82.3,116.9,95.7z"/>
	<path d="M101,56.2l-0.9,0.5h0c-0.1,0-0.1,0-0.2-0.1c0,0-0.1,0-0.2-0.1c-0.1,0-0.2-0.1-0.3-0.1c-0.1,0-0.1,0-0.2-0.1
		c-0.9-0.2-4.1-0.9-6.3,0.6c-1.6,1-1.9,1.1-5.1,1c-2.5,0.1-4.8,1-6.8,2.5l1,1.3l0,0c1.7-1.3,3.7-2,5.8-2.2c0,0,0,0,0,0
		c2.7,0.1,3.7,0,5-0.7c0.3-0.2,0.6-0.4,1-0.6c1.2-0.8,3-0.8,4.4-0.5c0.2,0,0.4,0.1,0.6,0.1c0.2,0,0.3,0.1,0.5,0.2c0,0,0,0,0,0
		c0.8,0.3,1.2,0.2,2.4-0.5L101,56.2L101,56.2z"/>
</g>
</svg>
