<?xml version="1.0" encoding="UTF-8" standalone="no"?>
<svg
   version="1"
   width="100"
   height="100"
   id="svg6"
   sodipodi:docname="handswithyeast.svg"
   inkscape:version="1.1.2 (0a00cf5339, 2022-02-04)"
   xmlns:inkscape="http://www.inkscape.org/namespaces/inkscape"
   xmlns:sodipodi="http://sodipodi.sourceforge.net/DTD/sodipodi-0.dtd"
   xmlns="http://www.w3.org/2000/svg"
   xmlns:svg="http://www.w3.org/2000/svg">
  <defs
     id="defs10" />
  <sodipodi:namedview
     id="namedview8"
     pagecolor="#ffffff"
     bordercolor="#666666"
     borderopacity="1.0"
     inkscape:pageshadow="2"
     inkscape:pageopacity="0.0"
     inkscape:pagecheckerboard="0"
     showgrid="false"
     inkscape:zoom="3.0243056"
     inkscape:cx="49.102181"
     inkscape:cy="67.453502"
     inkscape:window-width="1916"
     inkscape:window-height="1029"
     inkscape:window-x="1920"
     inkscape:window-y="49"
     inkscape:window-maximized="1"
     inkscape:current-layer="svg6" />
  <g
     id="g834"
     transform="translate(0,-92.513233)">
    <path
       fill="none"
       stroke="#000000"
       stroke-width="2"
       stroke-miterlimit="10"
       d="m 5.8487794,96.9 6.6999996,41.8 -7.9999996,11.5 18.2999996,26.7 10.5,0.8 4.2,-6.4 0.1,-32.6 10.8,-4 -2,-9 -13.1,6.7 -6.9,-39.5 m 67.7,4 -6.8,41.8 8.1,11.5 -18.3,26.7 -10.5,0.8 -4.2,-6.4 -0.1,-32.6 -10.8,-4 1.9,-9 13.2,6.7 6.8,-39.5"
       id="path2" />
    <path
       fill="none"
       stroke="#000000"
       stroke-width="2"
       stroke-miterlimit="10"
       d="m 7.5461008,151.5 c -1.7,2 -4.5,6.3 -5.5,12.3 -1.29999999,8.7 5.7,12.3 6.7,16.3 1,4 8.6000002,14.3 15.1000002,10.3 6.5,-4 12.6,-5 14.9,-5 2.3,0 9.6,-3.3 9.6,-3.3 l 22.6,5 c 0,0 16.9,-1.3 19,-2.5 2.1,-1.2 5.8,-4.8 7.4,-12.5 1.7,-7.7 0,-17.3 0,-17.3 0,0 -0.8,-1.2 -1.8,-2.8 m -38.3,-15.5 h -6.6 c -1.2,0 -2.8,-0.3 -4.4,-0.6 m -17.1,41.4 -11.2,-20.7 m 16.7,21.1 -11,-25 m 13.7,21 -6,-21.6 m 33.9,21.6 5.9,-21.6 m -3.2,25.6 11,-25 m -5.5,24.6 11.2,-20.7 m -71.4,20.9 c 0,0 0,4.7 2.2,7 m 0,-11.2 c 0,0 0.5,7.5 5,11.2 m 31.7,-41.2 c 0,0 3.7,-0.4 6.1,0 m 1.6,4.8 c -0.4,-0.3 -7.8,-2.3 -10.1,-1.3 m -2.5,23 c 0,0 4.3,3.5 7.2,3.1 m -8.9,0.8 c 0.5,0 4.8,3.2 7.1,3.1 m 34.5,3.2 c 0,0 3.4,-3.2 3.6,-6.4 m -8.1,7.7 c 0,0 5.1,-5.6 4.6,-11.3"
       id="path4" />
  </g>
</svg>
