<?xml version="1.0" encoding="UTF-8" standalone="no"?>
<!-- Generator: Adobe Illustrator 28.0.0, SVG Export Plug-In . SVG Version: 6.00 Build 0)  -->

<svg
   version="1.1"
   id="Layer_1"
   x="0px"
   y="0px"
   viewBox="0 0 386 291"
   style="enable-background:new 0 0 386 291;"
   xml:space="preserve"
   sodipodi:docname="HowZumeWorks-videothumbnail-01.svg"
   inkscape:version="1.1.2 (0a00cf5339, 2022-02-04)"
   xmlns:inkscape="http://www.inkscape.org/namespaces/inkscape"
   xmlns:sodipodi="http://sodipodi.sourceforge.net/DTD/sodipodi-0.dtd"
   xmlns="http://www.w3.org/2000/svg"
   xmlns:svg="http://www.w3.org/2000/svg"><defs
   id="defs167" /><sodipodi:namedview
   id="namedview165"
   pagecolor="#ffffff"
   bordercolor="#666666"
   borderopacity="1.0"
   inkscape:pageshadow="2"
   inkscape:pageopacity="0.0"
   inkscape:pagecheckerboard="0"
   showgrid="false"
   inkscape:zoom="1.4965636"
   inkscape:cx="150.01033"
   inkscape:cy="77.510907"
   inkscape:window-width="1916"
   inkscape:window-height="1029"
   inkscape:window-x="1920"
   inkscape:window-y="49"
   inkscape:window-maximized="1"
   inkscape:current-layer="Layer_1" />
<style
   type="text/css"
   id="style2">
	.st0{fill:#27AAE1;}
	.st1{fill:#1A1A1A;}
	.st2{fill:#FFFFFF;}
	.st3{fill:none;}
	.st4{font-family:'Poppins-SemiBold';}
	.st5{font-size:16.6191px;}
</style>
<path
   class="st0"
   d="M354.9,271.2H44.4c-7.9,0-14.2-6.4-14.2-14.2V44.5c0-7.9,6.4-14.2,14.2-14.2h310.5c7.9,0,14.2,6.4,14.2,14.2  V257C369.2,264.8,362.8,271.2,354.9,271.2z"
   id="path4" />
<g
   id="g18">
	<g
   id="g10">
		<path
   class="st1"
   d="M34.7,259.7c-7.6,0-13.8-6.2-13.8-13.8V33.5c0-7.6,6.2-13.8,13.8-13.8h310.5c7.6,0,13.8,6.2,13.8,13.8V246    c0,7.6-6.2,13.8-13.8,13.8L34.7,259.7L34.7,259.7z"
   id="path6" />
		<path
   d="M345.2,20.2c7.3,0,13.2,5.9,13.2,13.2V246c0,7.3-5.9,13.2-13.2,13.2H34.7c-7.3,0-13.2-5.9-13.2-13.2V33.5    c0-7.3,5.9-13.2,13.2-13.2L345.2,20.2 M345.2,19.2H34.7c-7.9,0-14.2,6.4-14.2,14.2V246c0,7.9,6.4,14.2,14.2,14.2h310.5    c7.9,0,14.2-6.4,14.2-14.2V33.5C359.4,25.6,353,19.2,345.2,19.2L345.2,19.2z"
   id="path8" />
	</g>
	<g
   id="g16">
		<path
   class="st2"
   d="M45.2,249.7c-7.6,0-13.8-6.2-13.8-13.8V43.5c0-7.6,6.2-13.8,13.8-13.8h289.5c7.6,0,13.8,6.2,13.8,13.8V236    c0,7.6-6.2,13.8-13.8,13.8H45.2V249.7z"
   id="path12" />
		<path
   d="M334.7,30.2c7.3,0,13.2,5.9,13.2,13.2V236c0,7.3-5.9,13.2-13.2,13.2H45.2c-7.3,0-13.2-5.9-13.2-13.2V43.5    c0-7.3,5.9-13.2,13.2-13.2L334.7,30.2 M334.7,29.2H45.2c-7.9,0-14.2,6.4-14.2,14.2V236c0,7.9,6.4,14.2,14.2,14.2h289.5    c7.9,0,14.2-6.4,14.2-14.2V43.5C348.9,35.6,342.5,29.2,334.7,29.2L334.7,29.2z"
   id="path14" />
	</g>
</g>
<g
   id="g94">
	<g
   id="Layer_2_00000057142794718658598510000006375487494279603118_">
		<g
   id="g22">
			<path
   class="st0"
   d="M182.5,97.4c0,0-7.1-17.5-6.8-17.5s19.3-1.6,19.3-1.2c0,0.4-2.3,5.2-2.3,5.2l-11.1,0.2l3.8,9L182.5,97.4z"
   id="path20" />
		</g>
		<g
   id="g26">
			<path
   class="st0"
   d="M198.6,78.7h8c0,0-25.9,49.8-25.3,50c0.6,0.2,17.8-1.6,17.8-1.6l-5.2-11.1l5.1-8l10.1,26.9l-38.6,0.9     L198.6,78.7z"
   id="path24" />
		</g>
		<g
   id="g30">
			<path
   class="st0"
   d="M214.1,80.3c0,0.3,1.4,50.4,1.4,50.4l2.7,3.8h12.2c0,0,1.5-1.9,1.7-2.1s-0.4-6.9-0.4-6.9l-11.9,0.1     l-0.4-46.8L214.1,80.3z"
   id="path28" />
		</g>
		<g
   id="g34">
			<polygon
   class="st0"
   points="235.7,76 234.4,128.6 237.8,126.2 239.1,76.8    "
   id="polygon32" />
		</g>
		<g
   id="g38">
			<path
   class="st0"
   d="M229.9,65.9c-0.4,0.5-8,10.1-8,10.1l5.3,0.8L233,67L229.9,65.9z"
   id="path36" />
		</g>
		<g
   id="g42">
			<path
   class="st0"
   d="M249.2,76.8l-1.6,58l4.2-1.5l1.9-27l8.2,20.7h3.6l16.3-48.9l-6-1.3l-12.3,45.9l-10.4-32.8v-6.1     c0,0,0.8-6.9,0.4-6.9C253.1,76.8,249.2,76.8,249.2,76.8z"
   id="path40" />
		</g>
		<g
   id="g46">
			<path
   class="st0"
   d="M282.2,79.3c-0.3,0-5.4,14.4-5.4,14.4l-0.5,41.1l8.3,2.3L282.2,79.3z"
   id="path44" />
		</g>
		<g
   id="g50">
			<path
   class="st0"
   d="M311.3,77.6l-21,1c0,0,1,56.9,1.6,57c0.5,0.1,23,0,23,0l0.8-8.7l-21,3.8c0,0-0.1-20.3,0.2-20.4     c0.3-0.2,11.2-0.3,11.2-0.3l0.5-6.5l-12.9,1.7L293,82.7l16.2-0.6l1.4-0.1L311.3,77.6z"
   id="path48" />
		</g>
	</g>
	<g
   id="Layer_1_00000181059265386019061400000012308230036582817715_">
		<g
   id="g55">
			<path
   d="M183,100.9c-0.1,0-0.1,0-0.2,0l-0.4-0.1v-0.4c-0.3-1-5.1-13.2-8.4-21.3l-0.3-0.7l24.3-1.6l-3,7.4h-11.6l3.7,10.6L187,95     C183.9,100.2,183.4,100.9,183,100.9z M182.3,100.3L182.3,100.3L182.3,100.3z M175.3,79.4c5.2,12.9,7.1,17.8,7.8,19.7     c0.6-1,1.6-2.7,2.6-4.4L181.6,83h12.5l2-5L175.3,79.4z"
   id="path53" />
		</g>
		<g
   id="g59">
			<path
   d="M171.7,138.3l29-63.5v2.1h8.5l-0.4,0.8c-19.2,39.1-24.4,49.4-25.9,52.2c2.7-0.1,11.1-0.8,17.2-1.4l-8.3-12.1l7.3-9.2     l11.2,28.7L171.7,138.3z M200.4,78l-26.9,59l35.1-2.1l-9.9-25.4l-5.5,7l8.9,13l-1,0.1c0,0-4.8,0.4-9.6,0.8     c-10.1,0.8-10.1,0.8-10.2,0.2l-0.1-0.4l0.3-0.2c1.2-2,18.6-37.4,25.8-52C207.3,78,200.4,78,200.4,78z"
   id="path57" />
		</g>
		<g
   id="g63">
			<path
   d="M229.2,135.9c-1.7,0-4.1-0.1-7.9-0.2c-0.7,0-1.2-0.1-1.3-0.1c-0.6,0-1.2-0.7-3.6-5c-0.8-1.3-1.8-3.2-2.1-3.4     c-0.4-0.3-0.7-0.6-0.9-24.6c-0.1-11.8-0.1-23.8-0.1-24.3v-0.6l8.4,0.6v0.5c0,0.4,0.4,41.9,0.5,46.8c1.3,0.2,6.2,0.1,10.8-0.1     c0.2-13.6,0.8-47.5,0.6-48.7c0-0.4,0.1-0.6,0.4-0.8c1.1-0.8,5.1,0.3,6.8,0.9l0.4,0.1l-1.3,50l-0.1,0.2c-2.5,2.9-6.6,7.6-6.9,8.2     C232.7,135.7,232.5,135.9,229.2,135.9z M231.8,134.8L231.8,134.8L231.8,134.8z M220.2,134.5c0.2,0,0.7,0,1.2,0.1     c6.2,0.3,9.7,0.3,10.4,0.1c0.8-1.2,5.2-6.2,6.8-8.1l1.3-48.8c-2.3-0.7-4.6-1.1-5.2-1c0.1,3.1-0.6,47.3-0.6,49.2v0.5h-0.5     c-11.6,0.6-12.1,0.1-12.3-0.1l-0.2-0.2v-0.3c0-1.8-0.4-41.6-0.5-46.7l-6.1-0.4c0,18.3,0.2,45.3,0.7,47.5c0.4,0.4,1,1.5,2.3,3.6     C218.4,131.7,219.7,134.1,220.2,134.5z M215.2,126.5L215.2,126.5L215.2,126.5z M215,126.3L215,126.3L215,126.3z"
   id="path61" />
		</g>
		<g
   id="g67">
			<rect
   x="233"
   y="126"
   width="1.2"
   height="7.5"
   id="rect65" />
		</g>
		<g
   id="g71">
			<path
   d="M218.7,132.7l-1-0.6c0.1-0.2,3.1-5.6,3.5-6.4l1,0.6C221.7,127.1,218.7,132.6,218.7,132.7z"
   id="path69" />
		</g>
		<g
   id="g75">
			<path
   d="M246.8,136h-0.1c-0.6-0.1-0.6-0.1-0.6-9.6c0-4.8,0-11.5,0-19.9c0-14.5,0.1-29,0.1-29v-0.6h9.3l-2.6,58.1L246.8,136z      M247.3,78c-0.1,15.2-0.2,51.7,0,56.7l4.5-0.7l2.5-56C254.3,78,247.3,78,247.3,78z"
   id="path73" />
		</g>
		<g
   id="g79">
			<path
   d="M267.9,128.2H263l-9.6-26l1.1-0.4l9.4,25.3h3.3c5.3-16,14.9-44.8,16.4-49.2c-1.4-0.2-5.1-0.7-7.7-1     c-2.9,11.5-10,39.7-10.2,40.8v0.5h-0.5c-0.6,0.1-0.6,0.1-2.3-5.8c-0.9-3.2-2.2-7.5-3.4-11.9c-2.5-8.6-4.9-17.2-4.9-17.2l1.1-0.3     c3.2,11.1,7.7,27,9.4,32.4c1.7-7,7.2-29,9.8-39.3l0.1-0.5l0.5,0.1c9.4,1,9.4,1.1,9.4,1.7c0,0.1,0,0.3-16.7,50.4L267.9,128.2z"
   id="path77" />
		</g>
		<g
   id="g83">
			<polygon
   points="285.5,136 277.6,134.8 278.4,93 279.6,93 278.8,133.8 284.3,134.7 283.5,77.4 284.7,77.4    "
   id="polygon81" />
		</g>
		<g
   id="g87">
			<path
   d="M291,136l-2.4-59.1l25.7-2.4l-1.1,8.7l-18.5,0.5l0.9,19.3c5.5-0.6,13.4-1.4,14.1-1.6c0.2-0.1,0.5,0,0.7,0.2     c0.6,0.5,0.6,3.3,0.1,8.3l-0.1,0.5l-14.7-0.2l0.8,18.8l20.7-3.7v9.5L291,136z M289.8,77.9l2.3,56.8l23.8-1.1v-7l-20.6,3.7     l-0.9-21.4l14.9,0.2c0.3-2.7,0.5-5.7,0.3-6.7c-2.3,0.4-13.2,1.5-14.5,1.6l-0.6,0.1l-1-21.7l18.7-0.5l0.8-6.3L289.8,77.9z"
   id="path85" />
		</g>
		<g
   id="g91">
			<path
   d="M228.7,76.8h-0.3c-6.9-0.1-7.1-0.7-7.2-1c-0.1-0.3,0-0.5,0.2-0.7c0.4-0.4,4.6-5.8,7.2-9.3l0.2-0.3l5.9,0.8L228.7,76.8z      M222.6,75.3c1.1,0.2,3.4,0.3,5.4,0.3l4.8-8.5l-3.6-0.5C228.2,68.1,224.1,73.5,222.6,75.3z"
   id="path89" />
		</g>
	</g>
</g>
<g
   id="g160">
	<polygon
   class="st3"
   points="57.1,79.1 57.6,81 58.9,80.3 58.9,73.7 57.5,73.5 57.5,75.8 44.5,77.2 45,77.7  "
   id="polygon96" />
	<path
   class="st3"
   d="M99.5,211h1.5l-1.4-75.4l-3.7,0.4C95.9,136.6,96.3,180.7,99.5,211z"
   id="path98" />
	<polygon
   class="st3"
   points="58.1,82.5 64.8,105.1 65,105 66.3,101.9 59.1,81.9  "
   id="polygon100" />
	<path
   class="st3"
   d="M87.5,57.9c4.1-0.6,7.5-1.8,9.7-2.7c-0.3-0.3-0.7-0.7-1.1-0.9c-2,0.5-5,1.3-8.1,1.9   C87.9,56.7,87.7,57.3,87.5,57.9z"
   id="path102" />
	<path
   class="st3"
   d="M94,88.7c-3.5,0.6-6.8,1.3-9.2,1.8l7.3,40.6l8.8,2.7l9.3-1.1l-1.7-46c-2.2,0.1-5.6,0.5-9.2,1.1l0,0L94,88.7z"
   id="path104" />
	<polygon
   class="st3"
   points="94.8,222.1 95.3,222.2 100.7,212.9 100.6,212.9  "
   id="polygon106" />
	<path
   class="st3"
   d="M97.1,83.5c-1,0.6-2.1,0.9-3.3,1c-0.3,0-0.6,0-0.8,0c-0.1,0-0.2,0-0.4,0l0.7,2.7c1.4-0.3,2.9-0.5,4.3-0.8   L97.1,83.5z"
   id="path108" />
	<polygon
   class="st3"
   points="67.1,104 81.2,97.2 80.2,92.1 67.8,102.3  "
   id="polygon110" />
	<path
   class="st3"
   d="M107.2,134.7c1.2,4.8,8.1,33.9,8.2,74.7l1.7-0.1c0.1-6.8,0.2-57.8-6.6-75L107.2,134.7z"
   id="path112" />
	<polygon
   class="st3"
   points="131.5,68.8 128.8,68.8 130.2,91.3 137.5,97.3  "
   id="polygon114" />
	<path
   class="st3"
   d="M86.7,61.4c5.3-0.7,9.6-2.9,12-4.3c-0.1-0.2-0.3-0.4-0.4-0.6c-2.3,1-6.3,2.4-11.2,3.1   C87,60.1,86.9,60.7,86.7,61.4z"
   id="path116" />
	<polygon
   class="st3"
   points="129.8,62.6 129,60.6 126.8,61.3 128.5,67.3 132.1,67.3 140.4,65.5 143.7,62.5  "
   id="polygon118" />
	<path
   class="st3"
   d="M92.6,83c0.3,0,0.7,0,1,0c5.5-0.6,9.4-7.8,8.5-16.2c-0.3-3.2-1.3-6.1-2.6-8.4c-2.6,1.6-7.2,4-13.1,4.6   C85.5,69.7,86,78,92.6,83z"
   id="path120" />
	<polygon
   class="st3"
   points="129.1,92.4 110.1,87 110.4,95.1 137,98.9  "
   id="polygon122" />
	<polygon
   class="st3"
   points="116.8,211.4 129.3,219.2 130.8,218.7 118.1,211.2  "
   id="polygon124" />
	<path
   class="st3"
   d="M88.6,54.4c2.1-0.4,4.1-0.9,5.7-1.3c-1-0.4-2-0.7-3-0.7c-0.2,0-0.4,0-0.7,0c-0.5,0-1,0.2-1.4,0.3   C89,53.2,88.8,53.8,88.6,54.4z"
   id="path126" />
	<path
   class="st0"
   d="M86.5,63c-1,0.1-1.9,0.2-3,0.2c-0.4,0-0.8,0-1.3,0c-0.3,1.8-0.3,3.7-0.2,5.7c0.4,4.1,1.9,7.9,4.1,10.6   c1.9,2.3,4.2,3.6,6.4,3.7C86,78,85.5,69.7,86.5,63z"
   id="path128" />
	<path
   class="st0"
   d="M84.6,56.7c-0.3,0.5-0.6,1-0.9,1.6c1.3-0.1,2.6-0.2,3.8-0.4c0.2-0.6,0.3-1.2,0.5-1.7   C86.9,56.3,85.7,56.5,84.6,56.7z"
   id="path130" />
	<path
   class="st0"
   d="M83,59.8c-0.2,0.5-0.4,1.1-0.5,1.7c1.5,0.1,2.9,0,4.2-0.2c0.1-0.6,0.2-1.3,0.4-1.8   C85.8,59.7,84.4,59.8,83,59.8z"
   id="path132" />
	<path
   class="st0"
   d="M86,54.9c0.9-0.1,1.8-0.3,2.6-0.5c0.2-0.6,0.4-1.2,0.6-1.6C88,53.2,86.9,53.9,86,54.9z"
   id="path134" />
	<path
   class="st0"
   d="M84.8,90.6c-1.4,0.3-2.5,0.5-3.2,0.7l8.5,43.9l10.9-1.3l-8.8-2.7L84.8,90.6z"
   id="path136" />
	<path
   class="st0"
   d="M90.4,136.7c0.4,6.4,3.2,53.9,8.1,74.3h1c-3.2-30.3-3.6-74.4-3.6-75L90.4,136.7z"
   id="path138" />
	<path
   class="st0"
   d="M104,135c0.6,3.7,9.7,59.9,10.6,74.4h0.8c-0.2-40.8-7-69.9-8.2-74.7L104,135z"
   id="path140" />
	<polygon
   class="st0"
   points="58.1,82.5 57.1,83.1 62.7,110.9 65,105 64.8,105.1  "
   id="polygon142" />
	<polygon
   class="st0"
   points="64,111.9 82.1,101.9 81.2,97.2 67.1,104  "
   id="polygon144" />
	<polygon
   class="st0"
   points="45,77.7 46.3,79.3 56.1,81.8 57.6,81 57.1,79.1  "
   id="polygon146" />
	<polygon
   class="st0"
   points="93.6,223.9 93.9,223.5 89.8,222.6  "
   id="polygon148" />
	<polygon
   class="st0"
   points="98.4,212.6 85.1,220.1 94.8,222.1 100.6,212.9  "
   id="polygon150" />
	<polygon
   class="st0"
   points="115.4,225.2 117.6,224.7 113.9,214.7  "
   id="polygon152" />
	<polygon
   class="st0"
   points="132.6,221.3 131,220.3 119.1,224.4  "
   id="polygon154" />
	<polygon
   class="st0"
   points="114.5,211.7 118.6,222.9 129.3,219.2 116.8,211.4  "
   id="polygon156" />
	<path
   d="M147.9,61l-17.1,0.1l-0.9-2.4l-5.1,1.6l2.4,7.9l1.4,22.4l-18.5-5.3v-0.2h-0.7c-2.3-0.1-6.1,0.4-10.3,1.1l-0.6-3.8   c3.7-3.1,5.9-9.2,5.3-15.9c-0.3-3.4-1.4-6.6-2.9-9.1c0.6-0.4,0.9-0.7,0.9-0.7l-1-1.2c0,0-0.3,0.2-0.8,0.6c-0.1-0.1-0.2-0.2-0.3-0.3   c0.3-0.2,0.5-0.3,0.6-0.3l-0.7-1.4c0,0-0.3,0.2-0.9,0.4c-0.3-0.3-0.5-0.5-0.8-0.8c0.4-0.1,0.7-0.2,0.7-0.2L98.1,52   c0,0-0.7,0.2-1.8,0.5c-1.8-1.2-3.9-1.8-6-1.6c-2.7,0.3-5,1.8-6.7,4.2c-1.1,0.1-2.1,0.2-3,0.2v1.6c0.6,0,1.3,0,2-0.1   c-0.2,0.5-0.5,0.9-0.7,1.4c-0.4,0-0.8,0-1.3,0l-0.1,1.6c0.3,0,0.5,0,0.8,0c-0.2,0.5-0.3,1.1-0.4,1.6c-0.6-0.1-1.1-0.1-1.7-0.2   L79,62.8c0.6,0.1,1.1,0.2,1.7,0.2c-0.3,1.9-0.4,3.9-0.2,5.9c0.4,4.4,2,8.5,4.5,11.4c1.8,2.1,3.8,3.5,6,4l0.8,3.3   C86,88.7,81,89.8,80.6,89.9l-0.7,0.2l0.1,0.3l-12.4,10.2l-7-19.5l0,0v-8.7L56,71.7v2.8L41.5,76l3.9,4.7l10.2,2.7l6.3,31.5   l20.5-11.3l6.4,33.2c0.3,6,3.2,54.4,8.2,74.9l-16.4,9.2l9.1,1.9l4.1,0.8l2.2,0.5l7.1-12.3l-0.6-0.1l-1.4-75.7l1.4-0.1   c1.1,6.8,10,61.8,10.5,74.5v0.1l-0.7,0.1l1.6,4.3l3.6,10l0.1,0.2l1.4-0.5l11.9-4.1l3.5-1.2l-15.8-9.4c0.1-5.4,0.5-58.6-6.8-76.4   l-1.3-36.6l29.4,4.1l-6.8-32.2l8-1.7L147.9,61z M108.6,86.7l1.7,46l-9.3,1.1l-10.9,1.3l-8.5-43.9c0.7-0.1,1.8-0.4,3.2-0.7   c2.4-0.5,5.8-1.2,9.2-1.8l5.3-0.9l0,0C103,87.2,106.3,86.8,108.6,86.7z M101,211h-1.5h-1c-4.9-20.4-7.7-67.9-8.1-74.3L96,136   l3.7-0.4L101,211z M102.2,66.7c0.8,8.4-3,15.7-8.5,16.2c-0.3,0-0.7,0-1,0c-2.3-0.1-4.5-1.4-6.4-3.7c-2.2-2.7-3.7-6.5-4.1-10.6   c-0.2-2-0.1-3.9,0.2-5.7c0.4,0,0.9,0,1.3,0c1,0,2-0.1,3-0.2c5.9-0.6,10.5-3,13.1-4.6C100.9,60.7,101.9,63.6,102.2,66.7z M98.7,57   c-2.4,1.5-6.6,3.7-12,4.3c-1.3,0.2-2.7,0.2-4.2,0.2c0.1-0.6,0.3-1.2,0.5-1.7c1.4,0,2.8-0.2,4.1-0.3c4.9-0.6,8.9-2.1,11.2-3.1   C98.5,56.6,98.6,56.8,98.7,57z M97.2,55.2c-2.2,0.9-5.6,2-9.7,2.7c-1.2,0.2-2.5,0.3-3.8,0.4c0.3-0.6,0.5-1.1,0.9-1.6   c1.2-0.1,2.3-0.3,3.5-0.5c3.1-0.6,6.1-1.3,8.1-1.9C96.5,54.6,96.9,54.9,97.2,55.2z M90.6,52.5c0.2,0,0.4,0,0.7,0c1,0,2,0.2,3,0.7   c-1.6,0.4-3.6,0.9-5.7,1.3c-0.9,0.2-1.8,0.3-2.6,0.5c0.9-1,2-1.7,3.2-2.1C89.6,52.7,90.1,52.6,90.6,52.5z M92.6,84.5   c0.1,0,0.2,0,0.4,0c0.3,0,0.6,0,0.8,0c1.2-0.1,2.2-0.5,3.3-1l0.5,3c-1.4,0.2-2.9,0.5-4.3,0.8L92.6,84.5z M81.2,97.2l0.9,4.6   l-18.1,10l3.1-7.9l0.7-1.7L80.2,92L81.2,97.2z M65,105l-2.3,5.9l-5.6-27.8l1-0.6l1.1-0.6l7.1,19.9L65,105z M57.5,75.8v-2.4l1.4,0.2   v6.6L57.6,81l-1.5,0.8l-9.9-2.6L45,77.7l-0.4-0.5L57.5,75.8z M95.3,222.2l-0.5-0.1l-9.7-2l13.3-7.5l2.2,0.3h0.1L95.3,222.2z    M129.3,219.2l-10.7,3.7l-4.1-11.2l2.3-0.3l1.3-0.2l12.7,7.6L129.3,219.2z M117.1,209.3l-1.7,0.1h-0.8c-0.9-14.5-10-70.7-10.6-74.4   l3.2-0.4l3.3-0.4C117.3,151.5,117.1,202.6,117.1,209.3z M110.1,87l18.9,5.4l7.9,6.5l-26.6-3.8L110.1,87z M130.2,91.3l-1.4-22.5h2.7   l6,28.5L130.2,91.3z M132.1,67.3h-3.5l-1.8-5.9l2.2-0.7l0.8,2l14-0.1l-3.4,2.9L132.1,67.3z"
   id="path158" />
</g>

</svg>
