<?xml version="1.0" encoding="utf-8"?>
<!-- Generator: Adobe Illustrator 27.8.1, SVG Export Plug-In . SVG Version: 6.00 Build 0)  -->
<svg version="1.1" id="Layer_1" xmlns="http://www.w3.org/2000/svg" xmlns:xlink="http://www.w3.org/1999/xlink" x="0px" y="0px"
	 viewBox="0 0 500 500" style="enable-background:new 0 0 500 500;" xml:space="preserve">
<style type="text/css">
	.st0{fill:none;}
	.st1{fill:#27AAE1;}
</style>
<g>
	<polygon class="st0" points="244.8,251.5 244.8,237.9 255.7,244.2 244.8,237.9 243.9,237.4 243.9,262.7 244.8,262.2 	"/>
	<polygon class="st0" points="265.9,250.1 265.9,250.1 244.8,262.2 	"/>
	<path class="st0" d="M250,221.3c-15.9,0-28.7,12.9-28.7,28.7s12.9,28.7,28.7,28.7c15.9,0,28.7-12.9,28.7-28.7
		C278.7,234.1,265.9,221.3,250,221.3z M257,258.2l-12.2,7.3v-1.2l23.5-13.6l1,0.6L257,258.2z M268.4,250.8l-23.5,13.6L242,266v-31.9
		l27.6,15.9L268.4,250.8z"/>
	<polygon class="st1" points="244.8,251.5 244.8,262.2 265.9,250.1 255.7,244.2 244.8,237.9 	"/>
	<polygon class="st1" points="244.8,264.4 244.8,265.5 257,258.2 269.3,251.4 268.4,250.8 	"/>
	<path d="M250,219.4c-16.9,0-30.6,13.7-30.6,30.6s13.7,30.6,30.6,30.6s30.6-13.7,30.6-30.6C280.6,233.1,266.9,219.4,250,219.4z
		 M250,278.7c-15.9,0-28.7-12.9-28.7-28.7s12.9-28.7,28.7-28.7c15.9,0,28.7,12.9,28.7,28.7C278.7,265.9,265.9,278.7,250,278.7z"/>
	<path d="M242,266l2.8-1.6l23.5-13.6l1.3-0.7L242,234.1V266z M243.9,237.4l0.9,0.5l10.8,6.3l10.2,5.9l0,0l-21,12.1l-0.9,0.5V237.4z"
		/>
</g>
</svg>
