<?xml version="1.0" encoding="utf-8"?>
<!-- Generator: Adobe Illustrator 28.0.0, SVG Export Plug-In . SVG Version: 6.00 Build 0)  -->
<svg version="1.1" id="Layer_1" xmlns="http://www.w3.org/2000/svg" xmlns:xlink="http://www.w3.org/1999/xlink" x="0px" y="0px"
	 viewBox="0 0 377.2 457.4" style="enable-background:new 0 0 377.2 457.4;" xml:space="preserve">
<style type="text/css">
	.st0{fill:none;}
	.st1{fill:#FFFFFF;}
	.st2{fill:#27AAE1;}
</style>
<g>
	<path class="st0" d="M147.7,196.4c1.3-14.9,2.4-29.2,2.9-42.1l-40.4,31.3c9.6,4.6,23.8,9.9,37.4,9.1L147.7,196.4z"/>
	<path class="st1" d="M78,88.2C78,88.2,78,88.2,78,88.2c-0.9-0.8-1.9-1.6-2.9-2.2c-6.6,3.3-15.2,4.9-21.4,5.6
		c-0.6,0.1-1.1,0.1-1.6,0.2l0,0c0.6-0.1,1.1-0.1,1.7-0.2c-0.2,0.7-0.3,1.4-0.5,2.2c-0.6,0-1.1,0.1-1.7,0.1l0,0.1
		c0.5,0,1.1,0,1.6-0.1C61.7,93.4,70.1,91.4,78,88.2z"/>
	<path class="st1" d="M147.4,198.7c-1,0.1-2,0.1-3,0.1c-3.8,0-7.6-0.4-11.3-1.1L121.9,208c7.7,1,16.4,1.1,24.7-1.3
		c-0.1,0.9-0.2,1.8-0.3,2.8l0,0c0.1-0.9,0.2-1.8,0.3-2.7C146.9,204.1,147.1,201.4,147.4,198.7z"/>
	<path class="st1" d="M173,70.7c8-3,12.7-1.3,17.6,0.4c1.5,0.5,3,1.1,4.7,1.5c3.9,0.9,7.9,1,11.8,0.3V54.3c0-12-9.7-21.7-21.7-21.7
		h-8.5c-12,0-21.7,9.7-21.7,21.7v17.3c-0.1,0-0.2,0-0.4-0.1c0.1,0,0.2,0,0.3,0.1C158.5,72.2,166.3,73.2,173,70.7z"/>
	<path class="st1" d="M80.9,161v7.7c5.5-0.4,11.1-0.3,16.6,0.2l1.7,0.2l0.3,10.6c1.3,0.8,3.6,2.2,6.8,3.9l44.5-34.5
		c0.2-8.6,0.2-16.4-0.2-23.3L89,153.2C86.8,156.2,84.1,158.9,80.9,161z"/>
	<path class="st1" d="M186.3,123.8l-16.7,0.4V124c-6.8,0.2-12.3,0.5-15.1,0.7c1.1,19.4-0.5,46.8-3.3,74.9
		c11.7-23.3,36.5-64.3,43.4-75.6C191.8,123.9,189.1,123.8,186.3,123.8z"/>
	<path class="st1" d="M44.1,103.8c1.4,0.1,3.1,0.1,5,0.1C47.2,103.9,45.6,103.9,44.1,103.8z"/>
	<path class="st1" d="M151.2,77.2c0.3,0.2,0.7,0.4,1.1,0.6C151.9,77.6,151.6,77.4,151.2,77.2z"/>
	<path class="st1" d="M151.2,72.3V67c-0.7,0.9-1.1,2.1-1.1,3.2C150.2,71,150.6,71.7,151.2,72.3z"/>
	<path class="st1" d="M46.2,97.9c1.1,0.1,2.3,0.1,3.6,0.1c0.9,0,1.8,0,2.7-0.1c-0.1,0.6-0.2,1.2-0.3,1.8c0.1,0,0.1,0,0.2,0
		c10.7-0.2,21.3-2,31.5-5.2c-0.8-1.2-1.7-2.3-2.7-3.5c-9.1,4-18.8,6.3-28.7,6.8c-0.9,0.1-1.8,0.1-2.7,0.1
		C48.5,97.9,47.3,97.9,46.2,97.9c-0.3,0.5-0.5,1.1-0.8,1.8c0,0,0,0,0,0C45.6,99.1,45.9,98.5,46.2,97.9z"/>
	<path class="st1" d="M30.8,281.6L30.8,281.6c-4.2-19-4.9-38.6-2-57.9l-0.1-0.1l-5.1-5.7l-2.8-3l2.7,3.1c-3.5,17.8-3.9,40.4,6,63.9
		L30.8,281.6z"/>
	<path class="st1" d="M30.3,285.9l-1.5,12.5l6.1,12.4l4.6-1.5l1.7-0.6l-1.7,0.6c-3.1-7.6-5.6-15.5-7.6-23.5l4.3-0.5l2,9.2l3,14.2
		l-3-14.3l-2-9.2l-4.3,0.5L30.3,285.9z"/>
	<path class="st1" d="M63.4,163.4l1.5,6.8c1.6-0.2,3.3-0.3,5.1-0.5h0.1l6.6-0.8v-5.8c-1.5,0.6-3.1,1-4.8,1.2
		c-0.8,0.1-1.5,0.1-2.2,0.1C67.6,164.4,65.5,164.1,63.4,163.4z"/>
	<path class="st1" d="M44.1,103.8c-1.9,6.7-2.5,13.7-1.7,20.6c0,0,0,0,0,0c0,0,0,0,0,0C41.7,117.5,42.2,110.5,44.1,103.8z"/>
	<path class="st1" d="M64.6,159.5c-1.1-0.4-2.1-0.8-3.1-1.3C62.5,158.7,63.6,159.2,64.6,159.5z"/>
	<path class="st1" d="M64.6,159.5L64.6,159.5c2.2,0.8,4.6,1,7,0.8c13.8-1.5,23.3-20,21.1-41.2c-0.7-7.4-3-14.6-6.6-21.1
		c-12.6,4.5-25.3,5.7-34.5,5.9C49.3,121.5,49.8,145.4,64.6,159.5z"/>
	<path class="st1" d="M42.2,99.6c0.9,0.1,1.9,0.1,3.1,0.1C44.2,99.6,43.1,99.6,42.2,99.6z"/>
	<path class="st1" d="M53.7,87.6c0.4-0.4,0.8-0.7,1.2-1c0,0.3-0.1,0.6-0.2,0.9c0,0,0,0,0.1,0c5.3-0.6,10.6-1.9,15.6-3.7
		C68.7,83.3,67,83,65.3,83c-0.5,0-1.1,0-1.7,0.1c-3.1,0.4-6.1,1.5-8.6,3.4c-0.5,0.4-1,0.8-1.4,1.1C53.7,87.6,53.7,87.6,53.7,87.6
		C53.7,87.6,53.7,87.6,53.7,87.6z"/>
	<path class="st1" d="M74.3,82c0.2-0.1,0.4-0.2,0.6-0.3C74.6,81.8,74.4,81.9,74.3,82z"/>
	<path class="st1" d="M41.8,211.1c1-1.6,2.2-3.2,3.4-4.7C43.9,207.9,42.8,209.4,41.8,211.1z"/>
	<path class="st1" d="M47.6,88.4c1.4,0,3.5-0.2,5.9-0.5C51.1,88.2,49,88.3,47.6,88.4z"/>
	<path class="st1" d="M190,120c-1.4-0.1-2.7-0.1-4-0.1C187.4,119.9,188.7,120,190,120z"/>
	<path class="st1" d="M176.8,108.9h8.5c12,0,21.7-9.7,21.7-21.7V76.8c-1.7,0.3-3.4,0.4-5.1,0.4c-2.6,0-5.1-0.3-7.6-0.9
		c-1.8-0.5-3.4-1.1-5-1.6c-4.7-1.7-8.2-2.9-14.9-0.4c-7.2,2.7-15.2,1.9-19.3,1.2c-0.3,0-0.6-0.1-0.8-0.1c0.3,0,0.5,0.1,0.8,0.1v11.7
		C155.1,99.2,164.8,108.9,176.8,108.9z"/>
	<path class="st1" d="M29.6,218.6c3.2-17.1,8.3-28.3,10-31.6l-0.1-0.1l-3.4-4.3c-5.1,9.7-9,19.9-11.5,30.6L29.6,218.6l1.6,1.9
		l1.6,1.7c0,0,0-0.1,0-0.1l-1.5-1.6L29.6,218.6z"/>
	<path class="st1" d="M199.1,124.3c-0.1,0-0.1,0.1-0.1,0.1C199.1,124.4,199.1,124.3,199.1,124.3z"/>
	<path class="st1" d="M185.4,113h-8.5c-1.2,0-2.3,0-3.4-0.2v7.2c4-0.1,8.2-0.2,12.5-0.1l0.8-7C186.3,113,185.9,113,185.4,113z"/>
	<path class="st1" d="M199.1,124.3c3.3,0.2,7.7,0.7,10.9,1.2C206.8,125,202.3,124.4,199.1,124.3z"/>
	<path class="st1" d="M207,76.8c0.3,0,0.5,0,0.8-0.1C207.5,76.7,207.3,76.8,207,76.8z"/>
	<path class="st1" d="M169.6,120.1v-8.2c-10.9-3.2-18.4-13.2-18.4-24.6V77.2l0,0c-3.2-1.7-4.9-4-5.1-6.6c-0.3-4.3,3.4-7.9,5.1-9.4
		v-6.9c0-14.2,11.5-25.7,25.7-25.7h8.5c14.2,0,25.7,11.5,25.7,25.7v33c0,12.1-8.5,22.5-20.3,25.1L190,120c2.5,0.1,5,0.2,7.5,0.3h0.5
		c4.1,0,11,1,14.4,1.5c13.5-3.6,18.1-13.8,19.1-16.8c-3.6-6.3-7-26.1-11-51.1c-1.2-7.7-2.4-15-3.4-20.4c-0.5-3.5-2.6-6.5-5.5-8.4
		c-10.2-6.8-29.7-2.9-29.9-2.9l-0.5,0.1l-0.5-0.1c-7.1-2-26.4-5.9-31.1,0.5c-3.6,4.8-7.9,33.4-11,54.2c-2.3,15.7-4,26.4-5.3,31
		c5.2,2.7,22.6,11.7,30.4,12.4C165.5,120.2,167.5,120.2,169.6,120.1z"/>
	<path class="st1" d="M150,212.7l52.4-88c0,0,0,0,0,0c-1.1-0.1-2.2-0.2-3.4-0.3c-5.3,8.6-41.5,68.2-48.9,87.1L150,212.7z"/>
	<path class="st1" d="M90.1,415.4h0.3l5.8-120.6c-2.7,0.2-6.3,0.4-10.4,0.6L90.1,415.4z"/>
	<polygon class="st1" points="191.5,365.4 195.4,365.1 195.4,365 	"/>
	<polygon class="st1" points="200,417.4 198,423.2 237.6,438.3 245.9,420.2 209.4,417.4 	"/>
	<path class="st1" d="M79.9,295.6c-0.2,0-0.4,0-0.6,0l7.9,119.8h0.1l-7.9-119.8C79.6,295.6,79.7,295.6,79.9,295.6z"/>
	<polygon class="st1" points="86.5,420.5 93.6,419.6 115.5,433.6 99.1,436.2 99.1,436.2 115.6,433.6 117.7,433.3 94.7,419.4 
		93.5,419.6 	"/>
	<path class="st1" d="M82.2,295.5c1.2,0,2.5-0.1,3.6-0.1C84.6,295.5,83.4,295.5,82.2,295.5z"/>
	<path class="st1" d="M100.2,202.2c5.5,2.1,11.1,3.8,16.8,4.9l11.4-10.5c-10.1-2.7-19.8-6.8-28.8-12.1L100.2,202.2z"/>
	<path class="st1" d="M70.2,173.5c-3.2,0.3-6.1,0.6-8.6,0.9l-1.2,0.2l0,0L63,188l-7.5,4.1l-4.2,4.3l4.7,95.1
		c15.2,0.9,36.7-0.4,42.9-0.9l-3.8-117.9C88.2,172.2,78.4,172.7,70.2,173.5z M61.9,174.5c2.4-0.4,5.4-0.7,8.5-1L61.9,174.5z"/>
	<path class="st1" d="M49.1,290.8c-0.4-10.3-2.8-67-4-97C46.2,223.8,48.7,280.5,49.1,290.8z"/>
	<path class="st1" d="M160.7,413.4h8.4l2.6-46.2c-5.7-0.4-11.4-1.1-17-2.1L160.7,413.4z"/>
	<path class="st1" d="M49.1,191.2l-6.4-11.9l3.5-1.9l6.4,11.9l1.7-0.9l-4.4-13.2l3.7-1.3l4.2,12.5l0.8-0.5l-3.7-19.3l3.9-0.7
		l0.9,4.8c0.5,0,0.8-0.1,1.2-0.1c0,0,0.1,0,0.1,0l-1.9-9.1c-1.1-0.6-2.2-1.3-3.2-2.1l-10.1,0.5L36,176.2l12.3,15.4L49.1,191.2z"/>
	<polygon class="st1" points="144.8,438 169,419.6 169,417.6 131.5,421.9 	"/>
	<polygon class="st1" points="319.8,126.8 320.8,126.8 320.8,142.1 340.4,144.6 345,131.1 355.9,129.9 357,126.8 357,126.7 
		319.8,126.7 	"/>
	<path class="st1" d="M99.6,184.5c-1.9-1.2-3.1-2-3.3-2.1C96.5,182.6,97.7,183.4,99.6,184.5z"/>
	<path class="st1" d="M195.7,367.2l4.7,46.3h7.3l3.9-48.6c-5.3,1-10.5,1.8-15.9,2.2L195.7,367.2z"/>
	<path class="st1" d="M56.3,295.4c-2.4-0.1-4.7-0.3-6.8-0.6l0,0C51.6,295.1,53.8,295.3,56.3,295.4l6.3,120h0.1h1.8l5.3-119.7
		c-0.4,0-0.7,0-1.1,0C64.4,295.7,60.2,295.6,56.3,295.4z"/>
	<path class="st1" d="M217.1,132.6l-0.3,0.5l-3.3,5.2l-67.2,106.3c-0.8,6.7-1.7,13.3-2.5,19.5c-3.7,27.9-11.4,78.1-14,90.4
		c55.5,19,96.2,3.2,103.2,0.1c1-50-14.1-174.6-19.4-216.3l3.3-5.2c0.3,2.9,0.8,6.5,1.3,10.6l98.7,31.3v-48.9H216.3L217.1,132.6z"/>
	<polygon class="st1" points="40.2,426 34.5,427.7 35.8,428.3 35.8,428.3 40.2,426.1 57.8,421 61.9,421 62,420.9 57.8,420.9 	"/>
	<path class="st2" d="M53.8,91.6c-0.6,0.1-1.2,0.1-1.7,0.2c-0.9,0.1-1.7,0.2-2.5,0.2c-0.5,0.6-0.9,1.3-1.3,1.9c1,0,2.1,0,3.3,0
		c0.6,0,1.1,0,1.7-0.1C53.5,93,53.6,92.3,53.8,91.6z"/>
	<path class="st2" d="M56.9,155c0.1,0,0.1,0.1,0.1,0.1c0,0,0,0,0.1,0.1c0.1,0.1,0.2,0.2,0.3,0.3c1,0.8,2,1.5,3.1,2.1
		c0.3,0.2,0.7,0.4,1,0.6c1,0.5,2,0.9,3.1,1.3c0,0,0,0,0,0c-14.8-14.1-15.3-38-13-55.6c-0.9,0-1.7,0-2.5,0c-1.9,0-3.6,0-5-0.1
		c-1.9,6.7-2.4,13.7-1.7,20.6c0,0,0,0,0,0c0.4,3.2,1,6.4,1.8,9.4C46,140.4,49,146.4,53,151C54.2,152.5,55.5,153.9,56.9,155z"/>
	<path class="st2" d="M53.7,87.6c0.3,0,0.6-0.1,1-0.1c0.1-0.3,0.2-0.6,0.2-0.9C54.5,86.9,54.1,87.2,53.7,87.6z"/>
	<path class="st2" d="M49.8,98c-1.3,0-2.5,0-3.6-0.1c-0.3,0.6-0.6,1.2-0.8,1.8c0.1,0,0.1,0,0.2,0c1.9,0.1,4.1,0.1,6.6,0
		c0.1-0.6,0.2-1.2,0.3-1.8C51.6,98,50.7,98,49.8,98z"/>
	<path class="st2" d="M30.9,281.6l2.6-0.6c-2-9-3.3-18.3-3.7-27.6c-0.5-8.9,0.1-17.8,1.8-26.5l-1.3-1.5l-1.5-1.7
		C25.9,243,26.6,262.6,30.9,281.6z"/>
	<path class="st2" d="M55.5,192.1l-8.2,4.5l-2.2-2.8c1.2,30,3.6,86.7,4,97c2.1,0.3,4.4,0.5,6.9,0.7l-4.7-95.1L55.5,192.1z"/>
	<path class="st2" d="M39.5,187c-1.6,3.3-6.8,14.5-10,31.6l1.7,1.9l1.5,1.6c1.2-4.3,2.9-8.4,5.2-12.3c1.1-1.8,2.3-3.5,3.4-5.2
		c-0.2-6-0.4-11.5-0.6-16L39.5,187z"/>
	<path class="st2" d="M36.2,285.3l-4.3,0.5c2,8,4.5,15.9,7.6,23.5l1.7-0.6l-3-14.2L36.2,285.3z"/>
	<polygon class="st2" points="51.9,438.3 50.7,439.7 41,435.2 31.3,430.7 31.2,430.7 28.6,432 51.6,443.5 69.6,422.1 67.2,421 
		67.2,421.1 	"/>
	<path class="st2" d="M49.5,294.8l9.9,120.6h3.2l-6.4-120C53.8,295.3,51.6,295.1,49.5,294.8z"/>
	<polygon class="st2" points="40.2,426.1 35.8,428.3 49.7,434.7 61.9,421 57.8,421 	"/>
	<path class="st2" d="M82.2,295.5c-0.7,0-1.5,0-2.3,0.1c-0.2,0-0.4,0-0.5,0l7.9,119.8h2.8l-4.3-120
		C84.6,295.5,83.4,295.5,82.2,295.5z"/>
	<polygon class="st2" points="93.6,419.6 86.5,420.5 99.1,436.2 115.5,433.6 	"/>
	<polygon class="st2" points="97.5,440.5 97.5,440.5 97.4,440.5 84.5,424.3 93.7,443.5 122.9,438.4 120.7,436.9 120.7,436.9 	"/>
	<path class="st2" d="M147.4,235.3l65.3-103.1c-0.4-2.8-0.6-4.9-0.9-6.1c-0.3,0.1-0.5,0.1-0.8,0.2l-0.1-0.5
		c-2.6-0.5-5.4-0.8-8.5-1.1l-52.4,88L147.4,235.3z"/>
	<path d="M70.4,173.5c-3.1,0.3-6.1,0.6-8.5,1L70.4,173.5z"/>
	<path d="M320.9,123.2v-1.1h-0.1h-105l0-0.1h6.3c6.4-3.8,11.3-9.8,13.6-16.9l0.2-0.9l-0.5-0.8c-3.5-4.8-7.7-31.1-10.8-50.3
		c-1.3-7.8-2.4-15.1-3.5-20.5c-0.8-4.5-3.4-8.5-7.2-10.9c-10.7-7.2-29.1-4.2-32.4-3.6c-4.4-1.2-28-7.3-34.9,2
		c-3.9,5.3-7.3,26.5-11.7,56c-2.1,14.2-4.4,29-5.7,31.7l-0.8,1.7l1.7,0.9c7.1,3.8,14.4,7.3,21.9,10.4l-1.5,0.1v0.6l-58,25.7
		c3.7-8,5.4-18,4.3-28.7c-0.8-7.8-3.1-15.3-6.8-22.1c0.6-0.2,1.1-0.4,1.7-0.7l-1.6-3.6c-0.7,0.3-1.5,0.6-2.2,0.9
		c-0.1,0-0.1,0.1-0.2,0.1c-0.9-1.3-1.8-2.5-2.8-3.6c0.6-0.3,1.1-0.5,1.7-0.8l-1.8-3.5c-0.9,0.5-1.8,0.9-2.7,1.3
		c-5.6-5.2-12.2-8-19-7.2c-3.4,0.4-6.6,1.6-9.4,3.5c0,0-0.1,0-0.1,0.1c-2.3,1.5-4.3,3.4-6,5.5c1.4-0.1,3.5-0.2,5.9-0.5
		c-2.4,0.3-4.5,0.5-5.9,0.5c-1.2,0.1-2,0.1-2,0.1v2.3c-0.6,0.9-1.2,1.9-1.7,2.8c1.1,0.1,2.6,0.2,4.3,0.3c0.4-0.7,0.9-1.3,1.3-1.9
		c0.8-0.1,1.6-0.1,2.6-0.2c0.5-0.1,1.1-0.1,1.6-0.2c6.2-0.7,14.8-2.3,21.4-5.6c1,0.6,2,1.4,3,2.2c0,0,0,0-0.1,0
		c-7.9,3.2-16.3,5.2-24.8,5.7c-0.6,0-1.1,0-1.6,0.1c-1.2,0-2.4,0-3.4,0c-1.8,0-3.2-0.2-4.3-0.3c-1.7-0.2-2.8-0.4-2.8-0.4l-0.9,3.8
		c0.1,0,0.8,0.2,1.9,0.3c-0.3,0.7-0.6,1.4-0.8,2.1c-1.6-0.1-2.5-0.2-2.5-0.2l-0.5,3.9c0.2,0,0.9,0.1,2,0.2
		c-1.8,6.9-2.4,14.1-1.6,21.2c1.2,11.2,5.2,21.5,11.4,28.9c0.6,0.7,1.2,1.3,1.8,1.9l-8.1,0.4l-12.6,20.6l2.3,2.9
		c-4.8,8.4-28.9,54.7-7.1,105.1l-1.8,14.7l8.1,16.5l13-4.2L39.2,281l-1.6,0.2c-1.5-6.4-10-46.5,4.2-70.1c1-1.7,2.1-3.2,3.4-4.7
		c-1.2,1.5-2.4,3.1-3.4,4.7c1.4,34.3,3.4,80.9,3.4,81.4v0.1v0.2l0.1,1.3h0.1l10.1,123.5l-32.3,9.3l8,3.8l0.1,0l9.7,4.5l9.7,4.5
		l1.2-1.4l15.3-17.2l0.1-0.1l3.5-3.9h-2.4l5.2-121.3l0.1-1.8l-3.9-0.2l4,0.2l-0.1,1.8c0.6,0,1.2,0,1.8,0l8,121.2l-4.3,0.5l5.4,6.8
		l12.9,16.2l0,0l23.2-3.6l0,0l8.4-1.3l-33.4-20.2l-1.3,0.2l5.8-121c0.6,0,1-0.1,1.2-0.1l1.9-0.1l-2.9-87.8
		c5.4,2.1,17.6,6.1,31.3,6.1c4.9,0,9.8-0.6,14.5-1.8c0-0.5,0.1-1,0.1-1.4c0.1-0.9,0.2-1.8,0.3-2.8c-8.3,2.4-17,2.3-24.7,1.3
		l11.2-10.3c3.7,0.7,7.5,1.1,11.3,1.1c1,0,2,0,3-0.1c-0.3,2.7-0.5,5.4-0.8,8.1c-0.1,0.9-0.2,1.8-0.3,2.7c-0.1,0.5-0.1,1-0.1,1.5
		c-7,66-19.3,137.4-20.5,144.1l-1.8,1.8l3,1c7.8,2.7,15.7,4.9,23.8,6.6l6.2,50.7l-33,3.8l20.3,24.6l28.8-21.9v-6l2.7-48l0.1-1.7
		l-0.1,1.8c2.6,0.1,5.1,0.2,7.6,0.2c3,0,5.8-0.1,8.5-0.2l4.8,47.2l0.1,0.5l-3.7,10.3l46.6,17.8l12.2-26.6l-40.2-3l4.1-49.5
		c12.6-2.8,19.8-6.4,20-6.4l1.1-0.5v-1.2c1.2-45.9-12-158.5-18.1-208l102.1,32.3v-34.3l22.3,2.9l4.9-14.2l10.9-1.2l3.7-10.7H320.9z
		 M133.3,107.9c1.3-4.6,3-15.3,5.3-31c3.1-20.8,7.4-49.4,11-54.2c4.7-6.4,24-2.5,31.1-0.5l0.5,0.1l0.5-0.1c0.2,0,19.7-3.9,29.9,2.9
		c2.9,1.9,5,4.9,5.5,8.4c1,5.4,2.2,12.7,3.4,20.4c4,25,7.4,44.8,11,51.1c-1,3-5.6,13.2-19.1,16.8c-3.4-0.5-10.3-1.5-14.4-1.5h-0.5
		c-2.5-0.1-5-0.2-7.5-0.3c-1.3,0-2.6-0.1-4-0.1c-4.3-0.1-8.5,0-12.5,0.1v-7.2c1.1,0.2,2.2,0.2,3.4,0.2h8.5c0.5,0,0.9,0,1.4-0.1
		l-0.8,7c1.3,0,2.6,0,4,0.1l0.8-7.6c11.8-2.6,20.3-13,20.3-25.1v-33c0-14.2-11.5-25.7-25.7-25.7h-8.5c-14.2,0-25.7,11.5-25.7,25.7
		v6.9c-1.7,1.5-5.4,5.1-5.1,9.4c0.2,2.6,1.9,4.9,5.1,6.6l0,0v10.1c0,11.4,7.5,21.4,18.4,24.6v8.2c-2.1,0.1-4.1,0.1-5.9,0.2
		C155.9,119.6,138.5,110.6,133.3,107.9z M202.4,124.7C202.4,124.7,202.4,124.7,202.4,124.7c3.1,0.3,5.9,0.6,8.5,1.1l0.1,0.5
		c0.3-0.1,0.5-0.1,0.8-0.2c0.3,1.2,0.5,3.3,0.9,6.1l-65.3,103.1l2.6-22.6l0.1-1.2c7.4-18.9,43.6-78.5,48.9-87.1c0,0,0-0.1,0.1-0.1
		c3.2,0.1,7.7,0.7,10.9,1.2c-3.2-0.5-7.6-1-10.9-1.2c0,0,0,0.1-0.1,0.1C200.2,124.5,201.3,124.6,202.4,124.7z M154.3,75.4
		c0.3,0,0.5,0.1,0.8,0.1c4.1,0.7,12.1,1.5,19.3-1.2c6.7-2.5,10.2-1.3,14.9,0.4c1.6,0.5,3.2,1.1,5,1.6c2.5,0.6,5,0.9,7.6,0.9
		c1.7,0,3.4-0.1,5.1-0.4c0.3,0,0.5-0.1,0.8-0.1c-0.3,0.1-0.5,0.1-0.8,0.1v10.4c0,12-9.7,21.7-21.7,21.7h-8.5
		c-12,0-21.7-9.7-21.7-21.7V75.5C154.8,75.5,154.5,75.4,154.3,75.4z M154.8,71.5c0.1,0,0.2,0,0.4,0.1V54.3c0-12,9.7-21.7,21.7-21.7
		h8.5c12,0,21.7,9.7,21.7,21.7v18.6c-3.9,0.7-7.9,0.6-11.8-0.3c-1.7-0.4-3.2-1-4.7-1.5c-4.9-1.7-9.6-3.4-17.6-0.4
		c-6.7,2.5-14.5,1.5-17.9,0.9C155,71.6,154.9,71.6,154.8,71.5z M152.3,77.8c-0.4-0.2-0.8-0.4-1.1-0.6
		C151.6,77.4,151.9,77.6,152.3,77.8z M151.2,67v5.3c-0.6-0.6-1-1.3-1.1-2.1C150.1,69.1,150.5,67.9,151.2,67z M154.5,124.7
		c2.8-0.2,8.3-0.5,15.1-0.7v0.2l16.7-0.4c2.8,0,5.5,0.1,8.3,0.2c-6.9,11.3-31.7,52.3-43.4,75.6C154,171.5,155.6,144.1,154.5,124.7z
		 M150.6,125.8c0.4,6.9,0.4,14.7,0.2,23.3l-44.5,34.5c-3.2-1.7-5.5-3.1-6.8-3.9l-0.3-10.6l-1.7-0.2c-5.5-0.5-11.1-0.6-16.6-0.2V161
		c3.2-2.1,5.9-4.8,8.1-7.8L150.6,125.8z M74.9,81.7c-0.2,0.1-0.4,0.2-0.6,0.3C74.4,81.9,74.6,81.8,74.9,81.7z M55,86.5
		c2.5-1.9,5.5-3,8.6-3.4c0.6-0.1,1.2-0.1,1.7-0.1c1.7,0,3.4,0.3,5.1,0.8c-5,1.8-10.3,3.1-15.6,3.7c0,0,0,0-0.1,0
		c-0.4,0-0.7,0.1-1,0.1c0,0,0,0,0,0c0,0,0,0-0.1,0C54,87.3,54.5,86.9,55,86.5z M46.2,97.8c1.1,0.1,2.3,0.1,3.6,0.1
		c0.9,0,1.8,0,2.7-0.1c9.9-0.5,19.6-2.8,28.7-6.8c1,1.2,1.9,2.3,2.7,3.5c-10.1,3.3-20.8,5-31.5,5.2c-0.1,0-0.1,0-0.2,0
		c-2.5,0.1-4.8,0.1-6.6,0c-0.1,0-0.1,0-0.2,0c0,0,0,0,0,0C45.7,99,45.9,98.4,46.2,97.8z M45.3,99.7c-1.1,0-2.2-0.1-3.1-0.1
		C43.1,99.6,44.2,99.6,45.3,99.7z M44.2,133.8c-0.8-3-1.4-6.2-1.8-9.4c0,0,0,0,0,0c-0.8-6.9-0.2-13.9,1.7-20.6
		c1.5,0.1,3.1,0.1,5,0.1c0.8,0,1.6,0,2.5,0c9.2-0.2,21.9-1.4,34.5-5.9c3.6,6.5,5.9,13.7,6.6,21.1c2.2,21.2-7.3,39.7-21.1,41.2
		c-2.4,0.2-4.8,0-7-0.8l0,0c0,0,0,0,0,0c-1-0.3-2.1-0.8-3.1-1.3c-0.3-0.2-0.7-0.4-1-0.6c-1-0.6-2.1-1.3-3.1-2.1
		c-0.1-0.1-0.2-0.2-0.3-0.3c0,0-0.1-0.1-0.1-0.1c0,0,0-0.1-0.1-0.1c-1.4-1.1-2.7-2.5-3.9-4C49,146.4,46,140.4,44.2,133.8z
		 M76.7,163.1v5.8l-6.6,0.8H70c-1.8,0.2-3.5,0.3-5.1,0.5l-1.5-6.8c2.1,0.7,4.2,1,6.3,1c0.7,0,1.4,0,2.2-0.1
		C73.6,164.1,75.2,163.7,76.7,163.1z M23.5,218l-2.7-3.1l2.8,3l5.1,5.7l0.1,0.1l1.5,1.7l1.3,1.5c-1.7,8.7-2.3,17.6-1.8,26.5
		c0.4,9.3,1.7,18.6,3.7,27.6l-2.6,0.6l-0.1,0l-1.3,0.3C19.6,258.4,20,235.8,23.5,218z M36.2,285.2l2,9.2l3,14.3l-1.7,0.6l-4.6,1.5
		l-6.1-12.4l1.5-12.5l1.6-0.2L36.2,285.2z M38,209.8c-2.3,3.9-4,8-5.2,12.3c0,0,0,0.1,0,0.1l-1.6-1.7l-1.7-1.9l-4.9-5.4
		c2.5-10.7,6.4-20.9,11.5-30.6l3.4,4.3l0.1,0.1l1.2,1.6c0.2,4.5,0.4,10,0.6,16C40.3,206.3,39.1,208,38,209.8z M36,176.2l9.8-16.3
		l10.1-0.5c1,0.8,2.1,1.5,3.2,2.1l1.9,9.1c0,0-0.1,0-0.1,0c-0.4,0-0.8,0.1-1.2,0.1l-0.9-4.8l-3.9,0.7l3.7,19.3l-0.8,0.5l-4.2-12.5
		l-3.7,1.3l4.4,13.2l-1.7,0.9l-6.4-11.9l-3.5,1.9l6.4,11.9l-0.8,0.4L36,176.2z M61.9,421l-12.2,13.7l-13.9-6.4h0l-1.3-0.6l5.7-1.7
		l17.6-5.1H62L61.9,421z M64.5,415.4h-1.8h-0.1h-3.2l-9.9-120.6l0,0c2.1,0.3,4.4,0.5,6.8,0.6c3.9,0.2,8.1,0.3,12.4,0.3
		c0.4,0,0.7,0,1.1,0L64.5,415.4z M94.7,419.4l23,13.9l-2.1,0.3l-16.5,2.6l0,0l-12.6-15.7l7-0.9L94.7,419.4z M90.4,415.4h-0.3h-2.8
		h-0.1l-7.9-119.8c0.2,0,0.4,0,0.6,0c0.8,0,1.5-0.1,2.3-0.1c1.2,0,2.4-0.1,3.6-0.1c4.1-0.2,7.7-0.4,10.4-0.6L90.4,415.4z M56,291.5
		c-2.5-0.2-4.8-0.4-6.9-0.7c-0.4-10.3-2.9-67-4-97l2.2,2.8l8.2-4.5L63,188l-2.6-13.4l0,0l1.2-0.2c2.5-0.3,5.4-0.6,8.6-0.9
		c8.2-0.8,18-1.3,24.9-0.8l3.8,117.9C92.7,291.1,71.2,292.4,56,291.5z M117,207.1c-5.7-1.1-11.3-2.8-16.8-4.9l-0.6-17.7
		c-1.9-1.1-3.1-1.9-3.3-2.1c0.2,0.1,1.4,0.9,3.3,2.1c9,5.3,18.7,9.4,28.8,12.1L117,207.1z M110.2,185.6l40.4-31.3
		c-0.5,12.9-1.6,27.2-2.9,42.1l-0.1-1.7C134,195.5,119.8,190.2,110.2,185.6z M169,419.6L144.8,438l-13.3-16.1l37.5-4.3V419.6z
		 M169.1,413.4h-8.4l-6-48.3c5.6,1,11.3,1.7,17,2.1L169.1,413.4z M191.5,365.4l3.9-0.4l0,0.1L191.5,365.4z M245.9,420.2l-8.3,18.1
		L198,423.2l2-5.8h9.4L245.9,420.2z M207.7,413.5h-7.3l-4.7-46.3l0-0.1c5.4-0.4,10.6-1.2,15.9-2.2L207.7,413.5z M316.9,175
		l-98.7-31.3c-0.5-4.1-1-7.7-1.3-10.6l-3.3,5.2C218.9,180,234,304.6,233,354.6c-7,3.1-47.7,18.9-103.2-0.1
		c2.6-12.3,10.3-62.5,14-90.4c0.8-6.2,1.7-12.8,2.5-19.5l67.2-106.3l3.3-5.2l0.3-0.5l-0.8-6.5h100.6V175z M357,126.8l-1.1,3.1
		l-10.9,1.2l-4.6,13.5l-19.6-2.5v-15.3h-1v-0.1H357V126.8z"/>
</g>
</svg>
