<?xml version="1.0" encoding="utf-8"?>
<!-- Generator: Adobe Illustrator 27.8.1, SVG Export Plug-In . SVG Version: 6.00 Build 0)  -->
<svg version="1.1" id="Layer_1" xmlns="http://www.w3.org/2000/svg" xmlns:xlink="http://www.w3.org/1999/xlink" x="0px" y="0px"
	 viewBox="50 0 400 500" xml:space="preserve">
<style type="text/css">
	.st0{fill:none;}
	.st1{fill:#27AAE1;}
</style>
<g>
	<polygon class="st0" points="110.6,126.3 110.6,126.3 110.6,126.3 	"/>
	<path class="st0" d="M156.3,119.1c-1.2,0.5-2.4,0.9-3.6,1.4C153.9,120.1,155.1,119.6,156.3,119.1z"/>
	<path class="st0" d="M239.5,93.2c8.1-3,12.7-1.3,17.6,0.4c1.5,0.5,3,1.1,4.7,1.5c3.8,1,7.9,1.1,11.8,0.3c0.1,0,0.2,0,0.3-0.1
		c-0.1,0-0.2,0-0.3,0.1V76.9c0-12-9.7-21.7-21.7-21.7h-8.5c-12,0-21.7,9.7-21.7,21.7v17.2c-1-0.2-1.6-0.3-1.7-0.4l0,0
		c0,0,0.7,0.2,1.7,0.4C225,94.7,232.8,95.7,239.5,93.2z"/>
	<path class="st0" d="M155,175.9L155,175.9l0.5-0.2c-2.2,3.2-5,5.9-8.2,7.9v-1h0v0v8.7c0,0,0,0,0,0c5.5-0.4,11.1-0.3,16.6,0.2
		l1.7,0.2l0.3,10.6c1.2,0.8,3.6,2.2,6.8,3.9l-1,0.7l0,0l1-0.7l44.5-34.5l0.3-0.2l-0.3,0.2c0.2-8.6,0.2-16.4-0.2-23.3l-61.6,27.3
		L155,175.9z"/>
	<path class="st0" d="M230.2,142.9c1.8-0.1,3.8-0.1,5.9-0.2V133h4l-4,0v1.5c-10.9-3.2-18.4-13.3-18.4-24.6V99.8
		c0.4,0.2,0.7,0.4,1.1,0.6l1.2-2.6l-1.2,2.6c-0.4-0.2-0.8-0.4-1.1-0.6c-3.1-1.8-4.8-4-5.1-6.6c-0.4-4.3,3.3-7.9,5.1-9.4v-6.9
		c0-14.2,11.5-25.7,25.7-25.7h8.5c14.2,0,25.7,11.5,25.7,25.7v33c0,12.1-8.5,22.6-20.3,25.1l-0.8,7.6c-1.3,0-2.6-0.1-4-0.1l0.8-7
		l0.2-2.1l0,0l-0.2,2.1c-0.5,0-0.9,0.1-1.4,0.1h-8.5c-1.1,0-2.2-0.1-3.4-0.2v7.2c0,0,0,0,0,0c4-0.1,8.2-0.1,12.5-0.1
		c1.3,0,2.6,0,4,0.1c2.5,0.1,5,0.2,7.5,0.3h0.6c4.1,0,11,1,14.4,1.5l0,0c13.5-3.6,18-13.9,19.1-16.8c-3.5-6.3-6.9-26.1-11-51.1
		c-1.3-7.7-2.4-15-3.4-20.4c-0.6-3.5-2.6-6.5-5.5-8.4c-10.1-6.8-29.7-2.9-29.9-2.9l-0.5,0.1l-0.5-0.1c-7.1-2-26.4-5.9-31.1,0.5
		c-3.6,4.9-7.9,33.4-11,54.2c-2.4,15.7-4,26.4-5.4,31C204.9,133.2,222.3,142.2,230.2,142.9C230.2,142.9,230.2,142.9,230.2,142.9z"/>
	<path class="st0" d="M217.7,95v-5.3c0.9-1.2,1.9-2.3,3.1-3.2l0,0c-1.2,0.9-2.3,2-3.1,3.2c-0.7,0.9-1.1,2-1.1,3.2
		C216.7,93.7,217.1,94.4,217.7,95z"/>
	<path class="st0" d="M275,95.2C275,95.2,275,95.2,275,95.2C275,95.2,275,95.2,275,95.2l1.1,3.8c0,0,0,0,0,0L275,95.2z"/>
	<polygon class="st0" points="102.7,307.9 102.6,307.9 102.7,307.9 	"/>
	<polygon class="st0" points="98.2,249.5 98.8,250.2 98.8,250.2 98.2,249.5 96.9,248 98.2,249.5 	"/>
	<path class="st0" d="M96.1,304.5l1.3-0.3l0,0c-4.3-19-5-38.7-2.2-58l0,0l-5.1-5.7l-2.8-3l0,0l2.7,3C86.6,258.5,86.2,281,96.1,304.5
		z"/>
	<polygon class="st0" points="93.2,305 93,306.7 93.2,305 	"/>
	<path class="st0" d="M123.4,177.6c-1.4-1.1-2.7-2.5-4-4c-3.9-4.7-6.9-10.6-8.7-17.3c1.8,6.7,4.8,12.6,8.7,17.3
		C120.7,175.2,122,176.5,123.4,177.6z"/>
	<path class="st0" d="M123.9,178.1c-0.1-0.1-0.2-0.2-0.3-0.3C123.7,177.9,123.8,178,123.9,178.1z"/>
	<path class="st0" d="M131.1,182c-1-0.3-2.1-0.8-3.1-1.3C129,181.3,130.1,181.7,131.1,182c2.3,0.7,4.7,1,7,0.8
		c13.9-1.5,23.4-19.9,21.1-41.2c-0.7-7.4-3-14.6-6.6-21.1c0,0,0,0,0,0c-12.6,4.4-25.3,5.7-34.5,5.9
		C115.8,144.1,116.3,167.9,131.1,182z"/>
	<path class="st0" d="M243.4,131.6h8.5c12,0,21.7-9.7,21.7-21.7V99.5c0.3,0,0.5-0.1,0.8-0.1c-0.3,0.1-0.5,0.1-0.8,0.1
		c-1.7,0.3-3.4,0.4-5.1,0.4c-2.6,0-5.1-0.3-7.6-0.9c-1.9-0.5-3.5-1.1-5-1.6c-4.8-1.7-8.2-2.9-14.9-0.4c-7.2,2.7-15.2,1.9-19.3,1.2
		v11.8C221.7,121.9,231.4,131.6,243.4,131.6z"/>
	<polygon class="st0" points="188.4,230.6 185.4,233.3 185.4,233.3 188.4,230.6 188.4,230.6 	"/>
	<path class="st0" d="M141.4,104.3L141.4,104.3c-0.2,0.1-0.4,0.2-0.6,0.3C140.9,104.5,141.1,104.4,141.4,104.3z"/>
	<path class="st0" d="M220.1,97.8c0.4,0.1,1,0.2,1.6,0.3C221,98,220.5,97.9,220.1,97.8z"/>
	<path class="st0" d="M120.1,110.3c0.4,0,0.7-0.1,1.1-0.1c5.3-0.6,10.6-1.9,15.6-3.7c0.5-0.2,0.9-0.4,1.4-0.6
		c-0.5,0.2-0.9,0.4-1.4,0.6c-1.6-0.5-3.3-0.8-5.1-0.8c-0.6,0-1.2,0-1.7,0.1c-3.1,0.4-6.1,1.5-8.6,3.4c-0.1,0.3-0.2,0.6-0.2,1
		C120.9,110.2,120.5,110.2,120.1,110.3z"/>
	<path class="st0" d="M143.3,107.7C143.3,107.7,143.4,107.7,143.3,107.7L143.3,107.7C143.4,107.7,143.3,107.7,143.3,107.7z"/>
	<polygon class="st0" points="116.3,120.6 116.3,120.6 116.3,120.6 	"/>
	<polygon class="st0" points="124,439.6 122,440.2 124,439.6 	"/>
	<polygon class="st0" points="217.7,171.4 217.7,171.4 217.9,171.7 	"/>
	<path class="st0" d="M278.4,148.6L278.4,148.6c-0.3,0.1-0.5,0.1-0.8,0.2l0,0C277.9,148.7,278.1,148.7,278.4,148.6z"/>
	<polygon class="st0" points="278.8,148.4 279.5,154.3 279.2,154.8 279.2,154.8 279.5,154.3 278.8,148.4 	"/>
	<path class="st0" d="M269,147.2c3.1,0.3,5.9,0.6,8.5,1.1l0,0C274.9,147.9,272.1,147.5,269,147.2c-1.1-0.1-2.3-0.2-3.4-0.3
		c-5.3,8.6-41.5,68.3-48.9,87.1l-0.1,1.2l-2.6,22.6l0,0l2.6-22.6L269,147.2z"/>
	<path class="st0" d="M276.5,148.1c-3.2-0.5-7.6-1-10.9-1.2l0,0c0,0,0,0.1-0.1,0.1c0,0,0-0.1,0.1-0.1
		C268.9,147,273.3,147.6,276.5,148.1z"/>
	<path class="st0" d="M261.1,146.7c-2.7-0.1-5.5-0.2-8.3-0.2c0,0,0,0,0,0l-16.7,0.4v-0.2c0,0,0,0,0,0c-6.8,0.2-12.3,0.5-15.1,0.7
		c1.1,19.3-0.5,46.8-3.2,75C229.4,199.1,254.2,158,261.1,146.7z"/>
	<polygon class="st0" points="162.7,316.7 162.7,316.4 166.7,316.6 166.7,316.6 162.7,316.4 	"/>
	<path class="st0" d="M214.1,219c1.4-14.9,2.4-29.2,2.9-42.1l3-2.3l0,0l-3,2.3l-40.4,31.3l-2.4,1.9l0,0l2.4-1.9
		c9.6,4.6,23.8,9.9,37.3,9L214.1,219z"/>
	<path class="st0" d="M238.2,389.8c-5.7-0.4-11.3-1.1-17-2.1v0l5.9,48.3h8.4L238.2,389.8z"/>
	<polygon class="st0" points="220.8,384.8 220.8,384.8 221.2,387.6 	"/>
	<polygon class="st0" points="211.3,460.6 235.5,442.2 235.5,440.2 198,444.5 	"/>
	<polygon class="st0" points="153,443.1 153,443.1 160.1,442.2 182,456.2 182,456.2 184.2,455.9 161.3,442.1 160.1,442.2 	"/>
	<path class="st0" d="M194.9,219.2c-10.1-2.7-19.8-6.7-28.8-12.1c-1.9-1.1-3.1-1.9-3.3-2.1l0,0c0.2,0.1,1.4,0.9,3.3,2.1l0.6,17.7
		c-0.7-0.3-1.2-0.5-1.2-0.5l-1,2.2l1-2.2c0,0,0.4,0.2,1.2,0.5c5.4,2.1,11,3.8,16.8,4.9L194.9,219.2l2.8-2.6l2.7,2.9l0,0l-2.7-2.9
		L194.9,219.2z"/>
	<path class="st0" d="M152.3,318c-2,0.1-4.2,0.2-6.5,0.2l-0.1-1.9l-3.9,0.3l0,0l3.9-0.3l0.1,1.9l7.9,119.8h3.2l5.8-120.6l0,0
		C160,317.6,156.4,317.8,152.3,318z M153.7,438l-7.9-119.8c2.2-0.1,4.4-0.2,6.5-0.2l4.2,120.1H153.7z"/>
	<path class="st0" d="M161.8,195.3c-6.9-0.6-16.7,0-24.9,0.8c-3.2,0.3-6.1,0.6-8.6,0.9l-1.3,0.2l-0.7-3.9c0.4,0,0.8-0.1,1.3-0.1
		c1.2-0.1,2.6-0.3,3.9-0.4c1.7-0.2,3.4-0.4,5.2-0.5c0,0,0.1,0,0.1,0l6.6-0.8v-5.8c-1.6,0.6-3.2,1-4.8,1.2c-0.7,0.1-1.4,0.1-2.2,0.1
		c-2.2,0-4.3-0.4-6.3-1l-0.7-3.4l0,0l0.7,3.4l1.5,6.8c-1.4,0.1-2.7,0.3-3.9,0.4l-1.9-9.1c-1.1-0.6-2.2-1.3-3.2-2.1l0.5,0l0,0l-0.5,0
		l-10.1,0.5l-9.8,16.3l12.3,15.4l0.8-0.4l-6.4-11.9l3.5-1.9l6.4,11.9l0.9,1.7l-3.5,1.9l0,0l3.5-1.9l-0.9-1.7l1.7-0.9l0,0l-4.4-13.2
		l3.7-1.3l4.2,12.5l0.3,0.9l-0.3-0.9l0.8-0.5l-3.7-19.3l3.9-0.7l0.9,4.8l0.7,3.9l2.6,13.4l-7.5,4.1l0,0l-4.1,4.3l4.7,95.1
		c0,0,0,0,0,0c15.1,1,36.7-0.4,43.1-0.8L161.8,195.3z M128.4,197.1L128.4,197.1c2.5-0.4,5.4-0.7,8.5-1L128.4,197.1z"/>
	<path class="st0" d="M262.2,389.8l-0.2-2.1L258,388l0,0l3.9-0.4L262.2,389.8l4.7,46.3h7.3l4-48.5l0,0
		C272.9,388.6,267.5,389.3,262.2,389.8z"/>
	<polygon class="st0" points="278.4,384.9 279.9,385 278.4,384.9 	"/>
	<polygon class="st0" points="386.3,145.5 386.3,145.5 386.3,149.4 387.3,149.4 387.3,164.7 387.3,164.7 406.9,167.2 411.5,153.7
		422.4,152.5 423.5,149.4 386.3,149.4 	"/>
	<polygon class="st0" points="266.5,440 266.6,439.8 266.5,440 264.5,445.8 304,460.8 312.4,442.8 275.9,440 	"/>
	<polygon class="st0" points="263.1,437.7 263.3,437.4 263.3,437.4 	"/>
	<polygon class="st0" points="238.3,388.1 238.4,388.1 238.3,388.1 	"/>
	<path class="st0" d="M102.7,205.2l-0.5-0.6L102.7,205.2c-5.1,9.7-9,19.9-11.5,30.6l4.9,5.4l0,0c3.2-17.2,8.4-28.5,10-31.7
		L102.7,205.2z"/>
	<polygon class="st0" points="106.7,448.7 124.3,443.6 128.5,443.6 128.5,443.6 124.3,443.6 106.7,448.7 101,450.3 102.3,450.9
		102.3,450.9 	"/>
	<path class="st0" d="M107.7,331.3l-1.7,0.6c-3.1-7.7-5.6-15.5-7.6-23.5h0l-1.6,0.2l-1.5,12.5l6.1,12.4l4.6-1.5L107.7,331.3l-3-14.2
		L107.7,331.3z"/>
	<path class="st0" d="M107.4,211.2L107.4,211.2c0.2,4.5,0.4,10,0.6,16c-1.3,1.7-2.5,3.4-3.5,5.2c1.1-1.8,2.2-3.6,3.5-5.2
		c0,0,0,0,0,0C107.8,221.2,107.6,215.7,107.4,211.2z"/>
	<path class="st0" d="M135.1,318.4c-4.3,0-8.5-0.1-12.4-0.3c-2.5-0.1-4.8-0.4-6.8-0.6l-0.2-2.5l-3.9,0.3l0,0l3.9-0.3l0.2,2.5l0,0
		c2.1,0.3,4.4,0.5,6.8,0.6l6.4,120h1.8l5.2-119.7l0,0C135.8,318.4,135.5,318.4,135.1,318.4z"/>
	<polygon class="st0" points="99.3,244.9 99.3,244.9 97.8,243.1 	"/>
	<path class="st1" d="M116.1,114.6c-0.5,0.6-0.9,1.3-1.3,1.9c1.5,0,3.2,0,5-0.1c0.2-0.8,0.3-1.5,0.5-2.2
		C118.7,114.4,117.3,114.5,116.1,114.6L116.1,114.6z"/>
	<path class="st1" d="M123.4,177.6c0.1,0.1,0.1,0.1,0.2,0.2c0.1,0.1,0.2,0.2,0.3,0.3c1.3,1.1,2.7,2,4.1,2.7c1,0.5,2,0.9,3.1,1.3
		c-14.8-14.1-15.3-38-13-55.6c0,0,0,0,0,0c-0.9,0-1.7,0-2.5,0c-1.9,0-3.6,0-5-0.1c0,0,0,0,0,0l0,0c0,0,0,0,0,0c0,0,0,0,0,0l0,0
		c0,0,0,0,0,0c-1.9,6.7-2.4,13.7-1.7,20.6c0.3,3.3,0.9,6.4,1.8,9.4c1.8,6.7,4.8,12.6,8.7,17.3C120.7,175.2,122,176.5,123.4,177.6z"
		/>
	<path class="st1" d="M120.1,110.3c0.4,0,0.7-0.1,1.1-0.1c0.1-0.3,0.2-0.7,0.2-1C121,109.5,120.5,109.9,120.1,110.3
		C120.1,110.3,120.1,110.3,120.1,110.3C120.1,110.3,120.1,110.3,120.1,110.3z"/>
	<path class="st1" d="M116.3,120.6L116.3,120.6C116.3,120.6,116.3,120.6,116.3,120.6C116.3,120.6,116.3,120.6,116.3,120.6
		c-1.3,0-2.5,0-3.6-0.1c-0.3,0.6-0.6,1.3-0.8,1.9c2,0.1,4.3,0.1,6.8,0c0.1-0.6,0.2-1.3,0.3-1.9c0,0,0,0,0,0
		C118.1,120.6,117.2,120.6,116.3,120.6z"/>
	<path class="st1" d="M97.4,304.2l2.7-0.6c-2-9.1-3.2-18.3-3.7-27.6c-0.5-8.9,0.1-17.8,1.8-26.5l-1.3-1.5l-1.6-1.8
		C92.4,265.5,93.1,285.2,97.4,304.2z"/>
	<path class="st1" d="M122,214.7l-8.2,4.5l-2.2-2.8c1.2,30,3.6,86.7,4,97c2.1,0.3,4.4,0.5,6.9,0.7l-4.7-95.1L122,214.7z"/>
	<path class="st1" d="M107.4,211.2L107.4,211.2l-1.3-1.7l0,0c-1.6,3.2-6.8,14.5-10,31.7l1.7,1.9l1.6,1.7c1.2-4.4,2.9-8.6,5.2-12.4
		c1.1-1.8,2.2-3.6,3.5-5.2C107.8,221.2,107.6,215.7,107.4,211.2z"/>
	<path class="st1" d="M107.7,331.3l-3-14.2l-2-9.2l0,0l-4.3,0.5c2,8,4.5,15.9,7.6,23.5L107.7,331.3z"/>
	<polygon class="st1" points="107.5,457.7 97.8,453.2 95.1,454.6 118.1,466.1 136.1,444.7 133.7,443.6 118.4,460.8 117.2,462.2 	"/>
	<path class="st1" d="M115.9,317.4l9.9,120.6h3.3l-6.4-120C120.3,317.9,118,317.7,115.9,317.4z"/>
	<polygon class="st1" points="106.7,448.7 102.3,450.9 116.2,457.4 128.5,443.6 124.3,443.6 	"/>
	<path class="st1" d="M145.9,318.2l7.9,119.8h2.8L152.3,318C150.3,318.1,148.1,318.1,145.9,318.2z"/>
	<polygon class="st1" points="153,443.1 165.5,458.8 182,456.2 160.1,442.2 	"/>
	<polygon class="st1" points="151,446.9 160.2,466.1 160.2,466.1 189.4,461 187.1,459.4 163.9,463.1 163.9,463.1 163.9,463.1 	"/>
	<path class="st1" d="M279.2,154.8c-0.4-2.8-0.6-4.9-0.8-6.2l0,0c-0.3,0.1-0.5,0.1-0.8,0.2l0,0l-0.1-0.5c0,0,0,0,0,0l0,0l0,0
		c0,0,0,0,0,0l0,0c-2.5-0.5-5.4-0.8-8.5-1.1l-52.5,88.1l-2.6,22.6L279.2,154.8L279.2,154.8C279.2,154.8,279.2,154.8,279.2,154.8
		L279.2,154.8z"/>
	<path d="M150.4,117.1L150.4,117.1c1.3-0.4,2.5-0.9,3.8-1.4c-0.9-1.3-1.8-2.5-2.8-3.6c0,0,0,0,0,0c0.6-0.3,1.1-0.5,1.7-0.8l-1.8-3.5
		c-0.9,0.5-1.9,0.9-2.8,1.3c-1.3,0.6-2.7,1.2-4,1.7c-7.9,3.2-16.3,5.2-24.8,5.7c-1.9,0.1-3.6,0.1-5,0.1c-1.8,0-3.2-0.2-4.3-0.3
		c-1.7-0.2-2.8-0.4-2.8-0.4l-0.9,3.8c0.1,0,0.8,0.2,1.9,0.3c1,0.1,2.4,0.3,4.1,0.4v0c-1.7-0.1-3.1-0.3-4.1-0.4
		c-0.3,0.7-0.6,1.4-0.8,2.1c1.1,0.1,2.5,0.1,4.1,0.2c0.3-0.7,0.5-1.3,0.8-1.9h0c1.1,0.1,2.3,0.1,3.6,0.1c0,0,0,0,0,0c0,0,0,0,0,0
		c0.9,0,1.8,0,2.7-0.1c0,0,0,0,0,0c9.9-0.5,19.6-2.8,28.7-6.8c0.2-0.1,0.3-0.1,0.5-0.2c-0.2,0.1-0.3,0.1-0.5,0.2
		C148.7,114.8,149.6,115.9,150.4,117.1z"/>
	<path d="M112.1,113.4c-0.6,0.9-1.2,1.9-1.7,2.8c1.1,0.1,2.6,0.2,4.3,0.3v0c0.4-0.7,0.9-1.3,1.3-1.9c-0.6,0-1.1,0.1-1.5,0.1
		c0.5,0,1-0.1,1.5-0.1c1.2-0.1,2.6-0.2,4.2-0.4c6.2-0.7,14.8-2.3,21.4-5.6c1,0.6,2,1.4,3,2.2c1.3-0.5,2.6-1.1,4-1.7
		c-5.6-5.2-12.2-8-19-7.2c-3.4,0.4-6.6,1.6-9.4,3.5c0,0-0.1,0-0.1,0.1c-2.3,1.5-4.3,3.4-6,5.5c1.4-0.1,3.5-0.2,5.9-0.5l0,0
		c-2.4,0.3-4.5,0.5-5.9,0.5c-1.2,0.1-2,0.1-2,0.1L112.1,113.4l0,1.4c0,0,0.1,0,0.1,0c-0.1,0-0.1,0-0.1,0L112.1,113.4z M143.3,107.7
		C143.3,107.7,143.4,107.7,143.3,107.7L143.3,107.7C143.4,107.7,143.3,107.7,143.3,107.7z M141.4,104.3c-0.2,0.1-0.4,0.2-0.6,0.3
		C140.9,104.5,141.1,104.4,141.4,104.3L141.4,104.3z M121.5,109.1c2.5-1.9,5.5-3,8.6-3.4c0.6-0.1,1.2-0.1,1.7-0.1
		c1.7,0,3.4,0.3,5.1,0.8c0.5-0.2,0.9-0.4,1.4-0.6c-0.5,0.2-0.9,0.4-1.4,0.6c-5,1.8-10.3,3.1-15.6,3.7c-0.4,0-0.8,0.1-1.1,0.1
		c0,0,0,0-0.1,0c0,0,0,0,0,0C120.5,109.9,121,109.5,121.5,109.1z"/>
	<path d="M128.4,197.1l8.5-1C133.8,196.4,130.8,196.7,128.4,197.1L128.4,197.1z"/>
	<path d="M387.3,144.7h-105l0.5,4h100.6v48.9l-98.7-31.3l0,0c-0.5-4.1-1-7.7-1.3-10.6l-3.3,5.2c5.3,41.7,20.4,166.3,19.4,216.3
		c-7,3.1-47.7,18.9-103.2-0.1c2.6-12.3,10.3-62.5,14-90.4c0.8-6.2,1.7-12.8,2.5-19.5l-4.7,7.4l0,0l4.7-7.4L280,160.9l3.3-5.2
		l0.3-0.5l-0.8-6.6l-0.5-4h-1.6l-0.1,0c0.1,0,0.1,0,0.2,0h7.8c6.4-3.8,11.3-9.8,13.6-16.9l0.2-0.9l-0.5-0.8
		c-3.5-4.8-7.7-31.1-10.8-50.3c-1.3-7.8-2.4-15.1-3.5-20.5c-0.8-4.5-3.4-8.5-7.2-10.9c-10.7-7.2-29.1-4.2-32.4-3.6
		c-4.4-1.2-28-7.3-34.9,2c-3.9,5.3-7.3,26.5-11.7,56c-2.1,14.2-4.4,29-5.7,31.7l-0.8,1.7l1.7,0.9c7.1,3.8,14.4,7.3,21.9,10.4
		l-1.5,0.1l0,0.6l1.3-0.6l1.6,3.6l0,0l-1.6-3.6l-1.3,0.6l-58,25.7c3.7-8,5.4-18,4.3-28.7c-0.8-7.8-3.1-15.3-6.8-22.1
		c0.6-0.2,1.1-0.4,1.7-0.7l-1.6-3.6c-0.7,0.3-1.5,0.6-2.2,0.9c-1.3,0.5-2.5,1-3.8,1.4c-10.2,3.3-20.9,5.1-31.7,5.3
		c-2.6,0.1-4.9,0.1-6.8,0c-1.6,0-3-0.1-4.1-0.2c-1.7-0.1-2.7-0.2-2.7-0.2l-0.5,3.9c0.2,0,0.9,0.1,2,0.2c0,0,0,0,0,0
		c-1.8,6.9-2.4,14.1-1.6,21.2c1.2,11.2,5.2,21.5,11.4,28.9c0.6,0.7,1.2,1.3,1.8,1.9l-8.1,0.4L97.7,199l2.3,2.9
		c-4.8,8.4-28.9,54.7-7.1,105.1l-1.8,14.7l8.1,16.5l13-4.2l-6.5-30.4l-1.6,0.2l0,0c-1.5-6.4-10-46.5,4.2-70.1c1-1.7,2.1-3.2,3.4-4.7
		l0,0l-3-2.5c0,0,0,0,0,0l3,2.5c-1.2,1.5-2.4,3.1-3.4,4.7c1.4,34.3,3.4,80.9,3.4,81.4l0,0.1l0,0l0,0.2l0.1,1.3l0.1,0l0,0L122,440.2
		l2-0.6v0l-2,0.6l-32.3,9.3l8.1,3.8l9.7,4.5l9.7,4.5l1.2-1.4l15.3-17.2l3.6-4h-2.4l5.2-121.3l0.1-1.8l-3.9-0.2l0,0l4,0.2l-0.1,1.8
		c0.6,0,1.2,0,1.8,0l0,0l8,121.2l4.7-0.6l-4.7,0.6l-4.3,0.5l5.4,6.8l0,0l12.9,16.2l0,0l23.2-3.6l8.4-1.3L162.2,438l-1.3,0.2l5.8-121
		l0,0c0.6,0,1-0.1,1.2-0.1l1.9-0.1l-2.9-87.8c5.4,2.1,17.6,6.1,31.3,6.1c4.9,0,9.8-0.6,14.5-1.8c0.1-1.4,0.3-2.8,0.4-4.2
		c-8.3,2.4-17,2.3-24.7,1.3l-3,2.8l0,0l3-2.8l0,0c0,0,0,0,0,0l0,0l0,0l11.2-10.3l0,0c3.7,0.7,7.5,1.1,11.3,1.1c1,0,2,0,3-0.1
		c0,0,0,0,0,0c-0.3,2.7-0.5,5.4-0.8,8.1c-0.1,1.4-0.3,2.8-0.4,4.2c-7,66-19.3,137.4-20.5,144.1l-1.8,1.8l3,1
		c7.8,2.7,15.7,4.9,23.8,6.6l6.2,50.7l11.5-1.3l-11.5,1.3l-33,3.8l20.3,24.6l28.8-21.9v-8.3l0,0v2.3l2.7-48l0.1-1.7l0,0l-0.1,1.8
		c2.6,0.1,5.1,0.2,7.6,0.2c3,0,5.8-0.1,8.5-0.2l0,0l4.9,47.7l-3.7,10.3l46.6,17.8l12.2-26.6l-40.2-3l-2-0.1l0,0l2,0.1l4.1-49.5
		l0.1-1.5l0,0l-0.1,1.5c12.6-2.8,19.8-6.4,20-6.4l1.1-0.5l0-1.2c1.2-45.9-12-158.5-18.1-208l-2.8-0.9l1.2-3.8l0.6,0.2l-0.6-0.2
		l-1.2,3.8l2.8,0.9l102.1,32.3v-34.3l-2.2-0.3l0.5-3.9l0,0l-0.5,3.9l2.2,0.3l22.3,2.9l4.9-14.2l10.9-1.2l3.7-10.7l-41.7,0V144.7z
		 M217.7,171.4l0.3,0.3L217.7,171.4L217.7,171.4z M221,147.3c2.8-0.2,8.3-0.5,15.1-0.7c0,0,0,0,0,0v0.2l16.7-0.4c0,0,0,0,0,0
		c2.8,0,5.5,0.1,8.3,0.2c-6.9,11.3-31.7,52.3-43.4,75.6C220.5,194.1,222.1,166.7,221,147.3z M279.2,154.8L279.2,154.8l-65.3,103.1
		l0,0l2.6-22.6l0.1-1.2c7.4-18.9,43.6-78.5,48.9-87.1c0,0,0-0.1,0.1-0.1l0,0c3.2,0.1,7.7,0.7,10.9,1.2c-3.2-0.5-7.6-1-10.9-1.2
		c0,0,0,0.1-0.1,0.1c1.2,0.1,2.3,0.2,3.4,0.3c3.1,0.3,5.9,0.6,8.5,1.1l0,0l0,0c0,0,0,0,0,0l0,0l0,0c0,0,0,0,0,0l0.1,0.5
		c0.3-0.1,0.5-0.1,0.8-0.2l0,0l0,0C278.6,149.9,278.8,152,279.2,154.8L279.2,154.8l0.3-0.5l-0.7-5.9c0,0,0,0,0,0l0.7,5.9
		L279.2,154.8z M205.1,99.5c3.1-20.8,7.4-49.4,11-54.2c4.7-6.4,24-2.5,31.1-0.5l0.5,0.1l0.5-0.1c0.2,0,19.7-3.9,29.9,2.9
		c2.9,1.9,5,4.9,5.5,8.4c1,5.4,2.2,12.7,3.4,20.4c4,25,7.4,44.8,11,51.1c-1,3-5.6,13.2-19.1,16.8l0,0c-3.4-0.5-10.3-1.5-14.4-1.5
		H264c-2.5-0.1-5-0.2-7.5-0.3c-1.3,0-2.6-0.1-4-0.1c-4.3-0.1-8.5,0-12.5,0.1c0,0,0,0,0,0v-7.2c1.1,0.2,2.2,0.2,3.4,0.2h8.5
		c0.5,0,0.9,0,1.4-0.1l0.2-2.1l0,0l-0.2,2.1l-0.8,7c1.3,0,2.6,0,4,0.1l0.8-7.6c11.8-2.6,20.3-13,20.3-25.1v-33
		c0-14.2-11.5-25.7-25.7-25.7h-8.5c-14.2,0-25.7,11.5-25.7,25.7v6.9c-1.7,1.5-5.4,5.1-5.1,9.4c0.2,2.6,1.9,4.9,5.1,6.6
		c0.4,0.2,0.7,0.4,1.1,0.6l1.2-2.6c0.4,0.1,1,0.2,1.6,0.3c4.1,0.7,12.1,1.5,19.3-1.2c6.7-2.5,10.2-1.3,14.9,0.4
		c1.6,0.5,3.2,1.1,5,1.6c2.5,0.6,5,0.9,7.6,0.9c1.7,0,3.4-0.1,5.1-0.4c0.3,0,0.5-0.1,0.8-0.1c-0.3,0.1-0.5,0.1-0.8,0.1v10.4
		c0,12-9.7,21.7-21.7,21.7h-8.5c-12,0-21.7-9.7-21.7-21.7V98.1c-0.6-0.1-1.2-0.2-1.6-0.3l-1.2,2.6c-0.4-0.2-0.8-0.4-1.1-0.6v10.1
		c0,11.4,7.5,21.4,18.4,24.6V133l4,0h-4v9.7c-2.1,0.1-4.1,0.1-5.9,0.2c0,0,0,0,0,0c-7.8-0.7-25.2-9.7-30.4-12.4
		C201.1,125.9,202.8,115.2,205.1,99.5z M275,95.2C275,95.2,275,95.2,275,95.2C275,95.2,275,95.2,275,95.2l1.1,3.8c0,0,0,0,0,0
		L275,95.2z M217.7,89.6c0.9-1.2,1.9-2.3,3.1-3.2l0,0C219.6,87.3,218.6,88.4,217.7,89.6l0,5.3c-0.6-0.6-1-1.3-1.1-2.1
		C216.6,91.7,217,90.5,217.7,89.6z M220,93.8L220,93.8c0,0,0.6,0.2,1.7,0.4V76.9c0-12,9.7-21.7,21.7-21.7h8.5
		c12,0,21.7,9.7,21.7,21.7v18.6c0.1,0,0.2,0,0.3-0.1c-0.1,0-0.2,0-0.3,0.1c-3.9,0.7-7.9,0.6-11.8-0.3c-1.7-0.4-3.2-1-4.7-1.5
		c-4.9-1.7-9.6-3.4-17.6-0.4c-6.7,2.5-14.5,1.5-17.9,0.9C220.6,93.9,220,93.8,220,93.8z M217.1,148.4c0.4,6.9,0.4,14.7,0.2,23.3
		l0.3-0.2l-0.3,0.2l-44.5,34.5l-1,0.7l0,0l1-0.7c-3.2-1.7-5.5-3.1-6.8-3.9l-0.3-10.6l-1.7-0.2c-5.5-0.5-11.1-0.6-16.6-0.2
		c0,0,0,0,0,0v-8.7v0h0v1c3.2-2.1,6-4.8,8.2-7.9L155,176l0,0l0.5-0.2L217.1,148.4z M156.3,119.1c-1.2,0.5-2.4,0.9-3.6,1.4
		C153.9,120.1,155.1,119.6,156.3,119.1z M110.7,156.4c-0.8-3-1.4-6.2-1.8-9.4c-0.8-6.9-0.2-13.9,1.7-20.6c0,0,0,0,0,0l0,0
		c0,0,0,0,0,0c0,0,0,0,0,0l0,0l0,0c0,0,0,0,0,0c1.5,0.1,3.1,0.1,5,0.1c0.8,0,1.7,0,2.5,0c0,0,0,0,0,0c9.2-0.2,21.9-1.4,34.5-5.9
		c0,0,0,0,0,0c3.6,6.5,5.9,13.7,6.6,21.1c2.2,21.2-7.3,39.7-21.1,41.2c-2.4,0.2-4.8,0-7-0.8c-1-0.3-2.1-0.8-3.1-1.3
		c-1.4-0.7-2.8-1.6-4.1-2.7c-0.1-0.1-0.2-0.2-0.3-0.3c-0.1-0.1-0.1-0.1-0.2-0.2c-1.4-1.1-2.7-2.5-3.9-4
		C115.5,169,112.5,163,110.7,156.4z M87.3,237.5L87.3,237.5l2.8,3l5.1,5.7l0,0l1.6,1.8l1.3,1.5l0.6,0.7l0,0l-0.6-0.7c0,0,0,0,0,0
		c-1.7,8.7-2.3,17.6-1.8,26.5c0.4,9.3,1.7,18.6,3.7,27.6l-2.7,0.6l0,0l-1.3,0.3c-9.9-23.5-9.5-46.1-6-63.9L87.3,237.5z M93.2,305
		L93.2,305l-0.2,1.7L93.2,305z M107.7,331.3l-1.7,0.6l-4.6,1.5l-6.1-12.4l1.5-12.5l1.6-0.2h0l4.3-0.5l0,0l0,0l2,9.2L107.7,331.3z
		 M104.5,232.4c-2.3,3.9-4,8.1-5.2,12.4c0,0,0,0,0,0l-1.6-1.7l-1.7-1.9l0,0l-4.9-5.4c2.5-10.7,6.4-20.9,11.5-30.6l-0.5-0.6l0.5,0.6
		l3.4,4.3l0,0l1.3,1.7l0,0l0,0c0.2,4.5,0.4,10,0.6,16c0,0,0,0,0,0C106.8,228.9,105.6,230.6,104.5,232.4z M101,450.3l5.7-1.7
		l17.6-5.1h4.2l0,0l-12.3,13.8l-13.9-6.4l0,0L101,450.3z M131,438h-1.8h-3.3l-9.9-120.6l0,0l-0.2-2.5l-3.9,0.3l0,0l3.9-0.3l0.2,2.5
		c2.1,0.3,4.4,0.5,6.8,0.6c3.9,0.2,8.1,0.3,12.4,0.3c0.4,0,0.7,0,1.1,0l0,0L131,438z M122.5,314.1
		C122.5,314.1,122.5,314.1,122.5,314.1c-2.5-0.2-4.8-0.4-6.9-0.7c-0.4-10.3-2.9-67-4-97l2.2,2.8l8.2-4.5l0,0l7.5-4.1l-2.6-13.4
		l-0.7-3.9l-0.9-4.8l-3.9,0.7l3.7,19.3l-0.8,0.5l0.3,0.9l-0.3-0.9l-4.2-12.5l-3.7,1.3l4.4,13.2l0,0l-1.7,0.9l0.9,1.7l-3.5,1.9l0,0
		l3.5-1.9l-0.9-1.7l-6.4-11.9l-3.5,1.9l6.4,11.9l-0.8,0.4l-12.3-15.4l9.8-16.3l10.1-0.5l0.5,0l0,0l-0.5,0c1,0.8,2.1,1.5,3.2,2.1
		l1.9,9.1c1.2-0.1,2.6-0.3,3.9-0.4l-1.5-6.8l-0.7-3.4l0,0l0.7,3.4c2.1,0.7,4.2,1,6.3,1c0.7,0,1.4,0,2.2-0.1c1.7-0.2,3.3-0.6,4.8-1.2
		v5.8l-6.6,0.8c0,0-0.1,0-0.1,0c-1.8,0.2-3.6,0.3-5.2,0.5c-1.4,0.1-2.7,0.3-3.9,0.4c-0.4,0-0.8,0.1-1.3,0.1l0.7,3.9l1.3-0.2
		c2.5-0.3,5.4-0.6,8.6-0.9c8.2-0.8,18-1.3,24.9-0.8l3.8,117.9C159.2,313.7,137.7,315,122.5,314.1z M184.2,455.9l-2.1,0.3l0,0
		l-16.5,2.6L153,443.1l0,0l7-0.9l1.2-0.2L184.2,455.9z M156.9,438h-3.2l-7.9-119.8l-0.1-1.9l-3.9,0.3l0,0l3.9-0.3l0.1,1.9
		c2.2-0.1,4.4-0.1,6.5-0.2c4.1-0.2,7.7-0.4,10.4-0.6l0,0L156.9,438z M166.7,316.6l-3.9-0.2l0,0.4l0-0.4L166.7,316.6L166.7,316.6z
		 M200.4,219.5l-2.7-2.9l-2.8,2.6l-11.4,10.5c-5.7-1.1-11.3-2.8-16.8-4.9c-0.7-0.3-1.2-0.5-1.2-0.5l-1,2.2l1-2.2
		c0,0,0.4,0.2,1.2,0.5l-0.6-17.7c-1.9-1.1-3.1-1.9-3.3-2.1l0,0c0.2,0.1,1.4,0.9,3.3,2.1c9,5.3,18.7,9.4,28.8,12.1l2.8-2.6
		L200.4,219.5L200.4,219.5z M176.7,208.2l-2.4,1.9l0,0L176.7,208.2l40.4-31.3l3-2.3l0,0l-3,2.3c-0.5,12.9-1.6,27.2-2.9,42.1
		l-0.1-1.7C200.5,218.1,186.3,212.8,176.7,208.2z M235.5,442.2l-24.2,18.4L198,444.5l37.5-4.3L235.5,442.2z M220.8,384.8l0.3,2.8
		L220.8,384.8L220.8,384.8z M221.2,387.7L221.2,387.7c5.6,1,11.3,1.7,17,2.1l-2.6,46.2h-8.4L221.2,387.7z M238.3,388.1L238.3,388.1
		l0.2,0L238.3,388.1z M312.4,442.8l-8.3,18.1l-39.6-15.1l2-5.8l0.1-0.2l-0.1,0.2h9.4L312.4,442.8z M263.1,437.7l0.1-0.3l0,0
		L263.1,437.7z M274.2,436.1h-7.3l-4.7-46.3l-0.2-2.1L258,388l0,0l3.9-0.4l0.2,2.1c5.4-0.4,10.7-1.2,16-2.2l0,0L274.2,436.1z
		 M278.4,384.9L278.4,384.9l1.5,0.1L278.4,384.9z M423.5,149.4l-1.1,3.1l-10.9,1.2l-4.6,13.5l-19.6-2.5l0,0v-15.3h-1v-4h0v3.9H423.5
		z"/>
</g>
</svg>
