<?xml version="1.0" encoding="UTF-8" standalone="no"?>
<!-- Generator: Adobe Illustrator 27.8.1, SVG Export Plug-In . SVG Version: 6.00 Build 0)  -->

<svg
   version="1.1"
   id="Layer_1"
   x="0px"
   y="0px"
   viewBox="0 0 211.3 171"
   xml:space="preserve"
   sodipodi:docname="JoinATraining.svg"
   width="211.3"
   height="171"
   inkscape:version="1.1.2 (0a00cf5339, 2022-02-04)"
   xmlns:inkscape="http://www.inkscape.org/namespaces/inkscape"
   xmlns:sodipodi="http://sodipodi.sourceforge.net/DTD/sodipodi-0.dtd"
   xmlns:xlink="http://www.w3.org/1999/xlink"
   xmlns="http://www.w3.org/2000/svg"
   xmlns:svg="http://www.w3.org/2000/svg"><defs
   id="defs90" /><sodipodi:namedview
   id="namedview88"
   pagecolor="#ffffff"
   bordercolor="#666666"
   borderopacity="1.0"
   inkscape:pageshadow="2"
   inkscape:pageopacity="0.0"
   inkscape:pagecheckerboard="0"
   showgrid="false"
   inkscape:zoom="1.742"
   inkscape:cx="112.22732"
   inkscape:cy="66.590126"
   inkscape:window-width="1916"
   inkscape:window-height="1029"
   inkscape:window-x="1920"
   inkscape:window-y="49"
   inkscape:window-maximized="1"
   inkscape:current-layer="Layer_1" />
<style
   type="text/css"
   id="style2">
	.st0{clip-path:url(#SVGID_00000063592709813893908180000014586522589975326650_);}
	.st1{fill:#FFFFFF;}
	.st2{fill:#27AAE1;}
</style>
<g
   id="g85"
   transform="translate(-144.1704,-164.57834)">
	<defs
   id="defs5">
		<rect
   id="SVGID_1_"
   x="144.2"
   y="164.5"
   width="211.7"
   height="171.10001" />
	</defs>
	<clipPath
   id="SVGID_00000066487150772109204960000010330342122619478444_">
		<use
   xlink:href="#SVGID_1_"
   style="overflow:visible"
   id="use7"
   x="0"
   y="0"
   width="100%"
   height="100%" />
	</clipPath>
	<g
   id="Group_23"
   clip-path="url(#SVGID_00000066487150772109204960000010330342122619478444_)">
		<path
   id="Path_417"
   class="st1"
   d="m 307.6,331.8 2.6,-76.1 34.4,-12.6 c 0,0 13.2,37.8 7.4,79.5 z" />
		<path
   id="Path_418"
   class="st1"
   d="m 217.3,167 c -0.8,-0.1 -1.6,-0.2 -2.4,-0.2 -0.3,0 -0.7,0 -1,0 5.1,0.7 9.7,3.1 13.3,6.8 0.7,0.1 1.4,0.2 2.1,0.2 -3,-3.6 -7.3,-6 -12,-6.8" />
		<path
   id="Path_419"
   class="st1"
   d="m 208.9,246.7 c -0.9,0 -1.8,-0.1 -2.7,-0.2 -3.4,-0.5 -6.6,-1.8 -9.4,-3.9 l -0.5,3.5 c 4.2,0.9 8.8,1.9 13.7,3.3 l 0.4,-2.8 c -0.4,0.1 -1,0.1 -1.5,0.1" />
		<path
   id="Path_420"
   class="st1"
   d="m 305.7,243.7 c 3.2,1.1 6.7,1.1 10,0.1 12.3,-3.8 17.5,-22.4 11.6,-41.3 -5.9,-18.9 -20.7,-31.2 -33,-27.3 -12.3,3.8 -17.5,22.4 -11.6,41.3 4.3,13.8 13.4,24.1 22.8,27.1 l 0.2,0.1 c 0,-0.1 0,0 0,0" />
		<path
   id="Path_421"
   class="st1"
   d="m 287.7,232.2 0.1,0.3 c -14.9,3.5 -26.3,8 -30.8,12.1 l 2.5,38.6 c 2.7,-0.4 9.3,-1.1 18.8,-1.4 l -0.7,-1.1 -12.1,-7.3 4.8,-8.1 -6.2,-11.3 4.8,-3.3 17.1,21.3 8.8,9.6 c 1.1,0 2.2,0.1 3.3,0.1 l -0.3,-24.5 0.8,-0.3 c 0.3,-0.1 1.7,-0.6 3.9,-1.4 0.2,-3.6 0.4,-7.1 0.6,-10.5 -5.6,-2 -11,-6.6 -15.4,-12.8 m -0.2,14.2 c -0.2,-0.1 -0.5,-0.2 -0.7,-0.2 -2.2,-0.6 -5.4,-0.8 -7.4,0.6 -3,1.9 -4,2 -9,1.9 -4.4,0 -8.5,3.2 -8.6,3.2 l -1.5,-1.9 c 0.2,-0.2 4.8,-3.7 10.1,-3.7 4.8,0.1 5.3,0 7.6,-1.5 3.3,-2.2 8,-1.2 9.3,-0.9 0.3,0.1 0.6,0.2 1,0.3 0.1,0 0.2,0.1 0.2,0.1 l 1.3,-0.7 1.1,2.1 c -1.6,0.9 -2.1,1.2 -3.4,0.7" />
		<path
   id="Path_422"
   class="st1"
   d="m 229.2,176.3 c 1.1,1.7 1.9,3.5 2.5,5.5 0.9,0.1 1.7,0.2 2.6,0.2 -0.8,-1.9 -1.8,-3.8 -3,-5.5 -0.7,-0.1 -1.4,-0.1 -2.1,-0.2" />
		<path
   id="Path_423"
   class="st1"
   d="m 316.4,246.1 c -1.1,0.3 -2.2,0.6 -3.3,0.7 0.7,1.3 1.8,3.1 2.6,4.5 2.9,-1 5.9,-2 9,-2.9 -0.7,-1.6 -1.6,-3.8 -2.3,-5.5 -1.9,1.5 -3.9,2.5 -6,3.2" />
		<path
   id="Path_424"
   class="st1"
   d="m 305.5,246.1 c -0.2,2.8 -0.3,5.8 -0.5,8.8 2.3,-0.8 5.2,-1.8 8.3,-2.8 -1.1,-1.9 -2.5,-4.3 -3,-5.2 -1.6,-0.1 -3.2,-0.3 -4.8,-0.8" />
		<path
   id="Path_425"
   class="st1"
   d="m 252,290.3 3.2,-4.5 H 254 l -2.4,3.7 z" />
		<path
   id="Path_426"
   class="st1"
   d="m 251.1,285.8 h -1.4 l 0.6,1.2 z" />
		<path
   id="Path_427"
   class="st1"
   d="m 250.4,292.5 -14.4,-28.3 -0.1,4.4 12.5,26.7 z" />
		<path
   id="Path_428"
   class="st1"
   d="m 211,244.2 c 11.9,-1.4 22.7,-14.7 26,-32.5 -2.5,0.9 -5,1.5 -7.6,1.9 -4.1,16.1 -10,27 -18.4,30.6" />
		<path
   id="Path_429"
   class="st1"
   d="m 233.1,191.3 c 0,2.1 -0.1,4.1 -0.4,6.2 1.7,0.1 3.4,0.1 5.2,0 -0.1,-2 -0.4,-3.9 -0.7,-5.9 -1.4,-0.1 -2.8,-0.2 -4.1,-0.3" />
		<path
   id="Path_430"
   class="st1"
   d="m 231.1,206.4 c -0.3,1.6 -0.7,3.2 -1.1,4.7 2.5,-0.5 5,-1.2 7.4,-2.1 0.2,-1.1 0.3,-2.2 0.4,-3.3 -2.2,0.4 -4.4,0.6 -6.7,0.7" />
		<path
   id="Path_431"
   class="st1"
   d="m 232.4,184.3 c 0.3,1.5 0.5,3.1 0.6,4.7 1.2,0.1 2.4,0.2 3.7,0.3 -0.4,-1.6 -0.8,-3.2 -1.4,-4.7 -1,-0.2 -2,-0.2 -2.9,-0.3" />
		<path
   id="Path_432"
   class="st1"
   d="m 238,199.9 c -1,0.1 -2.1,0.1 -3.1,0.1 -0.9,0 -1.7,0 -2.5,-0.1 -0.1,0.6 -0.2,1.3 -0.3,2 -0.1,0.7 -0.3,1.4 -0.4,2.1 2.1,-0.1 4.2,-0.4 6.3,-0.7 0,-1.2 0,-2.3 0,-3.4" />
		<path
   id="Path_433"
   class="st1"
   d="m 213,246.3 -0.6,3.8 c 7.8,2.2 15.5,5 23,8.3 l 0.7,0.3 v 0.5 l 12.4,24.3 h 8.6 l -2.5,-38.4 c -9,-3.3 -18.4,-5.5 -27.9,-6.8 -3.7,3.9 -8.5,6.7 -13.7,8" />
		<path
   id="Path_434"
   class="st1"
   d="m 146.8,304.6 7.2,-1.9 c -1.6,-29.8 15.2,-45.3 20.1,-49.2 0.4,-3.2 0.7,-5.7 1,-7.4 -6.3,3.9 -31,21.7 -28.3,58.5" />
		<path
   id="Path_435"
   class="st1"
   d="m 298.2,285.5 v -1.1 c -0.4,0 -0.7,0 -1.1,-0.1 z" />
		<path
   id="Path_436"
   class="st1"
   d="m 310.2,255.7 c -4.7,1.6 -8.3,2.9 -9.9,3.5 l 0.3,29 12.8,14 c 1.5,-20 -2.1,-40.9 -3.2,-46.5" />
		<path
   id="Path_437"
   class="st1"
   d="m 170.8,283.4 c 0.2,-2.4 0.4,-4.7 0.7,-7 -1.7,2.1 -3,4.5 -4,7 z" />
		<path
   id="Path_438"
   class="st1"
   d="m 268.4,254 -1.2,0.8 5.8,10.5 -4.3,7.2 10.6,6.4 28.2,48 c 3.1,-6.2 4.8,-13.8 5.6,-21.7 l -29,-31.6 z" />
		<path
   id="Path_439"
   class="st1"
   d="m 233.6,264.9 0.1,-4.7 c -7.5,-3.2 -15.3,-6 -23.1,-8.2 L 194,248 c -8,-1.6 -14.1,-2.3 -16.4,-2.6 -0.2,1.3 -0.5,3.7 -0.9,6.8 18.3,-1.6 51.8,10.7 56.9,12.7" />
		<path
   id="Path_440"
   class="st2"
   d="m 232.3,199.9 c -19.5,-0.8 -33.3,-11.3 -39.5,-17.1 -0.5,0.8 -0.9,1.6 -1.3,2.4 5.4,6.5 19.1,19.8 40.1,18.7 0.1,-0.7 0.3,-1.4 0.4,-2.1 0.2,-0.6 0.2,-1.2 0.3,-1.9" />
		<path
   id="Path_441"
   class="st2"
   d="m 233.1,191.3 c -22.2,-1.9 -32.7,-9.6 -36.8,-13.7 -0.8,1 -1.5,2 -2.2,3.1 5.8,5.5 19.3,16.1 38.6,16.8 0.2,-2 0.4,-4.1 0.4,-6.2" />
		<path
   id="Path_442"
   class="st2"
   d="m 229.2,206.4 c -19.7,0 -32.9,-12 -38.8,-18.8 -0.4,1 -0.8,2 -1.2,3 2.9,4.6 6.5,8.7 10.6,12.3 9,7.6 19.2,10.4 30.3,8.2 0.4,-1.5 0.7,-3.1 1.1,-4.7 -0.7,0 -1.4,0 -2,0" />
		<path
   id="Path_443"
   class="st2"
   d="m 229.4,213.7 c -2.1,0.3 -4.2,0.5 -6.4,0.5 -17.7,0 -29.2,-12.6 -34.8,-20.7 -0.8,2.8 -1.5,5.6 -1.9,8.5 -1.4,10.4 -0.1,20.5 3.8,28.5 3.8,7.8 9.6,12.7 16.3,13.6 0.8,0.1 1.6,0.2 2.4,0.2 0.7,0 1.4,0 2,-0.1 8.6,-3.6 14.5,-14.4 18.6,-30.5" />
		<path
   id="Path_444"
   class="st2"
   d="m 200.3,173.2 c -0.8,0.7 -1.6,1.5 -2.4,2.4 0,0 -0.1,0.1 -0.1,0.1 3.7,3.7 13.6,11.2 35.2,13.2 -0.1,-1.6 -0.3,-3.1 -0.6,-4.7 -13.2,-1.2 -26.5,-7.9 -32.1,-11" />
		<path
   id="Path_445"
   class="st2"
   d="m 213.9,166.9 c -2.6,0.2 -5.2,0.9 -7.5,2.1 6.8,2.1 13.7,3.7 20.8,4.7 -3.6,-3.7 -8.2,-6.1 -13.3,-6.8" />
		<path
   id="Path_446"
   class="st2"
   d="m 203.6,170.6 c -0.5,0.3 -0.9,0.6 -1.4,1 5.8,3.1 17.8,8.8 29.5,10.2 -0.6,-1.9 -1.4,-3.8 -2.5,-5.5 -8.7,-1 -17.3,-2.9 -25.6,-5.7" />
		<path
   id="Path_447"
   class="st2"
   d="m 154,302.6 8.6,-2.3 c -0.8,-17.8 7.2,-26 9.3,-27.8 0.8,-7.5 1.6,-14.1 2.2,-19 -4.9,3.8 -21.7,19.3 -20.1,49.1" />
		<path
   id="Path_448"
   class="st2"
   d="m 165,299.7 4.6,-1.2 c 0.3,-4.3 0.6,-8.5 1,-12.6 h -3.9 c -1.4,4.4 -1.9,9.1 -1.7,13.8" />
		<path
   id="Path_449"
   class="st2"
   d="m 248.4,295.3 -12.5,-26.7 -0.5,26.7 13.4,18.2 5.5,-13.1 -4,-7.8 z" />
		<path
   id="Path_450"
   class="st2"
   d="m 258.5,285.8 -1.2,0.2 v -0.2 h -2 l -3.2,4.5 3.6,7.1 5,-11.9 c -1.4,0.2 -2.1,0.3 -2.2,0.3 z" />
		<path
   id="Path_451"
   class="st2"
   d="m 233.6,264.9 c -5.1,-2 -38.6,-14.3 -56.9,-12.6 -2.1,16.1 -6.4,53.1 -5.7,78.9 h -1.1 v 0 c 0,0 38.4,7.2 63.8,3 h -1.3 z" />
		<path
   id="Path_452"
   d="m 231.3,176.5 c 1.2,1.7 2.2,3.6 3,5.5 0.9,0.1 1.7,0.1 2.6,0.1 -0.9,-2.2 -2,-4.3 -3.3,-6.3 v 0.9 c -0.8,-0.1 -1.6,-0.2 -2.3,-0.2" />
		<path
   id="Path_453"
   d="m 194.1,180.7 c 0.7,-1.1 1.4,-2.1 2.2,-3.1 -0.6,-0.6 -1.1,-1.2 -1.6,-1.8 -0.8,1 -1.6,2.1 -2.3,3.2 0.4,0.5 1,1.1 1.7,1.7" />
		<path
   id="Path_454"
   d="m 197.2,240.4 -0.3,2.2 c 2.7,2.1 6,3.4 9.4,3.9 0.9,0.1 1.8,0.2 2.7,0.2 0.5,0 1.1,0 1.6,-0.1 l 0.2,-1.5 2.4,0.4 -0.1,0.8 c 5.3,-1.3 10,-4 13.7,-8 -0.2,0 -0.4,-0.1 -0.6,-0.1 l 0.3,-2.4 c 0.8,0.1 1.6,0.2 2.3,0.3 5.3,-6.4 9.4,-15.2 11,-25.3 -0.9,0.4 -1.7,0.7 -2.6,1 -3.3,17.7 -14.2,31.1 -26,32.5 -0.7,0.1 -1.4,0.1 -2,0.1 -0.8,0 -1.6,-0.1 -2.4,-0.2 -6.7,-0.9 -12.5,-5.8 -16.3,-13.6 -3.9,-8 -5.2,-18.1 -3.8,-28.5 0.4,-2.9 1,-5.7 1.9,-8.5 -0.6,-0.9 -1.2,-1.8 -1.7,-2.6 -1.2,3.5 -2,7.1 -2.5,10.8 -1.5,10.9 -0.1,21.5 4,29.9 1.6,3.5 3.9,6.6 6.6,9.2 l 0.1,-0.7 z" />
		<path
   id="Path_455"
   d="m 238,203.2 c 0.8,-0.1 1.5,-0.3 2.3,-0.5 l 0.1,0.4 c 0,-1.2 0,-2.3 0,-3.4 -0.8,0.1 -1.6,0.1 -2.4,0.2 0,1.1 0,2.2 0,3.3" />
		<path
   id="Path_456"
   d="m 235.2,184.4 c 0.6,1.6 1,3.1 1.4,4.7 0.8,0 1.6,0.1 2.4,0.1 l -0.1,2.4 c -0.6,0 -1.2,-0.1 -1.8,-0.1 0.4,1.9 0.6,3.9 0.7,5.9 0.8,0 1.6,-0.1 2.4,-0.2 -0.3,-4.4 -1.1,-8.7 -2.5,-12.9 -0.4,0 -0.7,0 -1.1,0 -0.4,0.2 -0.9,0.2 -1.4,0.1" />
		<path
   id="Path_457"
   d="m 237.5,209 c 0.8,-0.3 1.7,-0.6 2.5,-1 0.1,-0.9 0.2,-1.9 0.3,-2.8 -0.8,0.2 -1.6,0.3 -2.4,0.5 -0.2,1.1 -0.3,2.2 -0.4,3.3" />
		<path
   id="Path_458"
   d="m 202.2,171.6 c 0.4,-0.3 0.9,-0.7 1.4,-1 -1.3,-0.4 -2,-0.7 -2.2,-0.7 l 0.3,-0.9 c -0.6,0.4 -1.2,0.9 -1.8,1.4 0.6,0.2 1.4,0.7 2.3,1.2" />
		<path
   id="Path_459"
   d="m 206.4,169 c 2.3,-1.2 4.9,-1.9 7.5,-2.1 0.3,0 0.7,0 1,0 0.8,0 1.6,0.1 2.4,0.2 4.7,0.8 8.9,3.2 12,6.9 1.1,0.1 2.2,0.2 3.2,0.3 -3.9,-5.2 -9,-8.7 -14.8,-9.5 -5,-0.6 -10.1,0.5 -14.4,3.3 0.7,0.1 1.8,0.4 3.1,0.9" />
		<path
   id="Path_460"
   d="m 191.5,185.3 c 0.4,-0.8 0.8,-1.6 1.3,-2.4 -0.7,-0.6 -1.3,-1.2 -1.8,-1.7 -0.4,0.7 -0.8,1.4 -1.2,2.1 0.5,0.4 1,1.1 1.7,2" />
		<path
   id="Path_461"
   d="m 189.2,190.6 c 0.4,-1 0.7,-2 1.2,-3 -0.7,-0.8 -1.2,-1.4 -1.7,-2 -0.4,0.8 -0.7,1.6 -1,2.4 0.4,0.7 0.9,1.6 1.5,2.6" />
		<path
   id="Path_462"
   d="m 197.8,175.7 c 0,0 0.1,-0.1 0.1,-0.1 0.8,-0.9 1.6,-1.7 2.4,-2.4 -1,-0.5 -1.7,-1 -2.2,-1.2 -0.6,0.6 -1.3,1.3 -1.9,1.9 0.5,0.7 1,1.3 1.6,1.8" />
		<path
   id="Path_463"
   d="m 287.7,232.2 c 4.4,6.2 9.8,10.8 15.5,13.1 0,-0.6 0.1,-1.2 0.1,-1.8 l 2.2,0.1 c -9.4,-3 -18.5,-13.3 -22.8,-27.1 -5.9,-18.9 -0.7,-37.4 11.6,-41.3 12.3,-3.8 27.1,8.4 33,27.3 5.9,18.9 0.7,37.4 -11.6,41.3 -3.3,1 -6.8,0.9 -10,-0.1 0,0.8 -0.1,1.6 -0.1,2.4 1.6,0.5 3.2,0.7 4.8,0.8 l -0.2,-0.3 2.1,-1.2 c 0,0 0.3,0.6 0.8,1.4 1.1,-0.1 2.3,-0.3 3.3,-0.7 2.1,-0.7 4.1,-1.8 5.9,-3.2 -0.5,-1.3 -0.9,-2.3 -0.9,-2.3 l 2.2,-0.9 c 0,0 0.2,0.6 0.6,1.5 7.8,-8.1 10.3,-23.6 5.4,-39.4 -6.3,-20.2 -22.5,-33.1 -36,-28.9 -13.5,4.2 -19.4,24.1 -13.1,44.3 1.4,4.6 3.5,9 6.1,13.1 l 0.7,-0.2 z" />
		<path
   id="Path_464"
   d="m 203.6,170.6 c 8.3,2.8 16.9,4.7 25.6,5.7 0.7,0.1 1.4,0.1 2,0.2 0.8,0.1 1.5,0.1 2.3,0.1 v -0.9 l 0.1,-1.5 c -0.4,0 -0.8,0 -1.1,-0.1 -1.1,-0.1 -2.1,-0.2 -3.2,-0.3 -0.7,-0.1 -1.4,-0.2 -2.1,-0.2 -7,-1 -14,-2.6 -20.8,-4.7 -1.3,-0.4 -2.4,-0.8 -3.1,-1 -0.6,-0.2 -1,-0.3 -1,-0.4 l -0.5,1.4 -0.3,0.9 c 0.1,0.1 0.8,0.4 2.1,0.8" />
		<path
   id="Path_465"
   d="m 200.3,173.2 c 5.6,3.1 19,9.7 32.1,11 1,0.1 1.9,0.2 2.9,0.2 0.5,0 0.9,0 1.4,0 0.4,0 0.7,0 1.1,0 0.4,0 0.9,0 1.3,0 L 239,182 c -0.7,0 -1.4,0.1 -2,0.1 -0.9,0 -1.7,0 -2.6,-0.1 -0.8,-0.1 -1.7,-0.1 -2.6,-0.2 -11.7,-1.4 -23.7,-7.1 -29.5,-10.2 -0.9,-0.5 -1.7,-0.9 -2.3,-1.3 -0.7,-0.4 -1.2,-0.7 -1.2,-0.7 l -1.3,2 c 0.1,0 0.3,0.2 0.6,0.3 0.5,0.4 1.2,0.8 2.2,1.3" />
		<path
   id="Path_466"
   d="m 196.2,177.6 c 4.1,4.1 14.6,11.8 36.8,13.7 1.3,0.1 2.7,0.2 4.1,0.3 0.6,0 1.2,0.1 1.8,0.1 l 0.1,-2.4 c -0.8,0 -1.6,-0.1 -2.4,-0.1 -1.3,-0.1 -2.5,-0.2 -3.7,-0.3 -21.6,-2 -31.5,-9.5 -35.2,-13.2 -0.6,-0.6 -1.1,-1.2 -1.6,-1.8 -0.1,-0.1 -0.2,-0.2 -0.2,-0.2 l -2,1.3 c 0.2,0.3 0.4,0.6 0.6,0.9 0.6,0.6 1.2,1.2 1.7,1.7" />
		<path
   id="Path_467"
   d="m 192.8,182.8 c 6.2,5.8 20,16.3 39.5,17.1 0.8,0 1.7,0.1 2.5,0.1 1,0 2.1,0 3.1,-0.1 0.8,0 1.6,-0.1 2.4,-0.2 0.1,0 0.1,0 0.2,0 l -0.2,-2.4 v 0 c -0.8,0.1 -1.6,0.1 -2.4,0.2 -1.8,0.1 -3.5,0.1 -5.2,0 -19.4,-0.8 -32.9,-11.3 -38.6,-16.8 -0.7,-0.6 -1.3,-1.2 -1.7,-1.7 -0.9,-0.9 -1.4,-1.5 -1.4,-1.6 l -1.9,1.5 c 0,0 0.7,0.9 2,2.2 0.4,0.5 1,1.1 1.7,1.7" />
		<path
   id="Path_468"
   d="m 190.4,187.6 c 5.9,6.8 19.1,18.8 38.8,18.8 0.6,0 1.3,0 1.9,-0.1 2.2,-0.1 4.5,-0.3 6.7,-0.7 0.8,-0.1 1.6,-0.3 2.4,-0.5 0.2,0 0.4,-0.1 0.5,-0.1 l -0.4,-1.9 -0.1,-0.4 c -0.8,0.2 -1.5,0.3 -2.3,0.5 -2.1,0.4 -4.2,0.6 -6.3,0.7 -21,1.1 -34.7,-12.2 -40.1,-18.7 -0.7,-0.8 -1.2,-1.5 -1.6,-2.1 -0.6,-0.9 -1,-1.4 -1,-1.4 l -2,1.3 c 0,0.1 0.7,1 1.9,2.6 0.4,0.6 0.9,1.3 1.6,2" />
		<path
   id="Path_469"
   d="m 188.3,193.5 c 5.6,8.1 17.1,20.7 34.8,20.7 2.1,0 4.3,-0.2 6.4,-0.5 2.6,-0.4 5.1,-1.1 7.6,-1.9 0.9,-0.3 1.7,-0.6 2.6,-1 0.5,-0.2 0.9,-0.4 1.4,-0.6 l -1,-2.2 H 240 c -0.9,0.4 -1.7,0.7 -2.5,1 -2.4,0.9 -4.9,1.6 -7.4,2.1 -11.1,2.2 -21.2,-0.6 -30.3,-8.2 -4.1,-3.5 -7.7,-7.7 -10.6,-12.3 -0.6,-1 -1.1,-1.9 -1.6,-2.6 -0.7,-1.3 -1.1,-2.2 -1.1,-2.2 l -2.2,1 c 0.7,1.4 1.4,2.8 2.3,4.1 0.5,0.8 1.1,1.6 1.7,2.6" />
		<path
   id="Path_470"
   d="m 196.9,242.6 0.3,-2.2 -2.4,-0.3 -0.1,0.7 -0.7,4.8 c 0.8,0.1 1.5,0.3 2.4,0.5 z" />
		<path
   id="Path_471"
   d="m 194,248 16.5,3.9 c -6,-1.6 -11.6,-2.9 -16.5,-3.9" />
		<path
   id="Path_472"
   d="m 213.1,245.4 -2.4,-0.4 -0.2,1.5 -0.4,2.8 c 0.8,0.2 1.5,0.4 2.3,0.7 l 0.6,-3.8 z" />
		<path
   id="Path_473"
   d="m 321.3,240.7 c 0,0 0.4,1 0.9,2.3 0.7,1.6 1.6,3.8 2.3,5.5 0.8,-0.2 1.5,-0.5 2.3,-0.7 -0.8,-1.9 -2,-4.7 -2.7,-6.5 -0.4,-0.9 -0.6,-1.5 -0.6,-1.5 z" />
		<path
   id="Path_474"
   d="m 312.2,245.4 -2.1,1.2 0.2,0.3 c 0.5,0.9 1.9,3.3 3,5.2 0.8,-0.3 1.5,-0.5 2.3,-0.8 -0.8,-1.4 -1.8,-3.2 -2.6,-4.5 -0.4,-0.9 -0.8,-1.4 -0.8,-1.4" />
		<path
   id="Path_475"
   d="m 233.3,296.5 1.9,-1.4 0.2,0.3 0.5,-26.7 0.1,-4.4 -2.2,-4.3 2.1,-1.1 0.1,0.3 v -0.5 l -0.7,-0.3 c -7.5,-3.3 -15.1,-6 -23,-8.3 -0.8,-0.2 -1.6,-0.4 -2.3,-0.7 -4.9,-1.4 -9.6,-2.4 -13.7,-3.3 -0.8,-0.2 -1.6,-0.3 -2.4,-0.5 -10.3,-2 -17.2,-2.6 -17.3,-2.6 l -1.1,-0.1 -0.1,0.4 1,2 c 0,0 -0.6,0.3 -1.4,0.8 -0.2,1.6 -0.6,4.2 -1,7.4 -0.6,5 -1.4,11.5 -2.2,19 0.3,-0.2 0.4,-0.4 0.5,-0.4 l 1.4,1.9 c -0.9,0.7 -1.6,1.5 -2.3,2.4 -0.2,2.3 -0.5,4.6 -0.7,7 h 1.1 v 2.4 h -1.3 c -0.4,4.1 -0.7,8.3 -1,12.6 l 0.8,-0.2 0.6,2.3 -1.6,0.4 c -0.7,10.6 -1.1,21.1 -0.9,30.3 h 1.3 1.1 c -0.6,-25.8 3.7,-62.8 5.7,-78.9 0.4,-3.2 0.7,-5.5 0.9,-6.8 2.4,0.2 8.4,1 16.4,2.6 4.9,1 10.5,2.2 16.5,3.9 7.9,2.2 15.6,4.9 23.1,8.2 l -0.1,4.7 -1.2,69.3 h 1.3 1.1 l 0.6,-35 z" />
		<path
   id="Path_476"
   d="m 345.4,243 -0.9,0.1 c -3.9,0.5 -10.6,2.4 -17.7,4.6 -0.8,0.2 -1.5,0.5 -2.3,0.7 -3,1 -6.1,1.9 -9,2.9 -0.8,0.3 -1.6,0.5 -2.3,0.8 -3.1,1 -5.9,2 -8.3,2.8 0,0.5 -0.1,1.1 -0.1,1.6 v 0.4 l -2.4,-0.1 v -0.4 -0.6 c -2.2,0.8 -3.7,1.3 -3.9,1.4 l -0.8,0.3 0.3,24.5 c 0.4,0 0.8,0 1.1,0.1 h 0.3 l -0.2,2.4 h -0.3 c -0.3,0 -0.6,0 -1,-0.1 v 1.1 l 2.4,2.6 -0.3,-29 c 1.6,-0.6 5.2,-1.9 9.9,-3.5 -0.2,-0.9 -0.3,-1.4 -0.3,-1.4 l 2.3,-0.5 c 0,0 0.1,0.4 0.2,1.2 10.5,-3.6 24.6,-8.1 31.5,-9.3 2.7,6.6 4.7,13.4 6.1,20.3 3.8,18.6 4.4,37.8 1.8,56.6 l 2.4,0.3 c 6.2,-47.6 -8.3,-78.8 -8.5,-79.1 z" />
		<path
   id="Path_477"
   d="m 171,300.5 -0.6,-2.3 -0.8,0.2 -4.6,1.2 c 0,0.5 0,1 0.1,1.5 l -2.4,0.2 c 0,-0.4 0,-0.7 -0.1,-1.1 l -8.6,2.3 -7.2,1.9 c -2.6,-36.7 22.1,-54.6 28.3,-58.5 0.9,-0.5 1.4,-0.8 1.4,-0.8 l -1,-2 -0.1,-0.1 c -0.4,0.2 -34.9,18.6 -30.9,63.1 l 0.1,1.4 24.8,-6.6 z" />
		<path
   id="Path_478"
   d="m 162.6,300.3 c 0,0.4 0,0.7 0.1,1.1 l 2.4,-0.2 c 0,-0.5 -0.1,-1 -0.1,-1.6 -0.2,-4.7 0.3,-9.3 1.7,-13.8 h -1 v -2.4 h 1.8 c 1,-2.5 2.3,-4.9 4,-7 0.7,-0.9 1.5,-1.7 2.3,-2.4 l -1.4,-1.9 c 0,0 -0.2,0.2 -0.5,0.4 -2.1,1.8 -10.1,10 -9.3,27.8" />
		<path
   id="Path_479"
   d="m 165.7,283.4 v 2.4 h 6.2 v -2.4 z" />
		<path
   id="Path_480"
   d="m 260.6,285.5 -5,11.9 1.2,2.3 -2.1,1.1 -0.3,-0.5 -5.5,13.1 -13.4,-18.2 -0.2,-0.3 -1.9,1.4 2.1,2.8 14,19 13.9,-33.1 c -1.1,0.3 -2,0.4 -2.8,0.5" />
		<path
   id="Path_481"
   d="m 251.6,289.5 -0.2,0.3 -2,-1.3 1,-1.5 -0.6,-1.2 h -1.9 v -2.4 h 0.7 l -12.4,-24.3 -0.1,-0.3 -2.1,1.1 2.2,4.3 14.4,28.3 4,7.8 0.3,0.5 2.1,-1.1 -1.2,-2.3 -3.6,-7.1 z" />
		<path
   id="Path_482"
   d="m 249.4,288.5 2,1.3 0.2,-0.3 2.4,-3.7 h -2.9 l -0.8,1.2 z" />
		<path
   id="Path_483"
   d="m 309.9,254.2 c 0,0 0.1,0.6 0.3,1.4 1.1,5.6 4.7,26.5 3.3,46.4 l -12.8,-14 -2.4,-2.6 -1.1,-1.2 c -0.9,-0.1 -1.8,-0.1 -2.7,-0.1 v -2.4 c 0.1,0 0.3,0 0.4,0 l -8.8,-9.6 -17.1,-21.3 -4.8,3.3 6.2,11.3 -4.8,8.1 12.1,7.3 0.6,1.1 c 0.7,0 1.3,0 2,-0.1 l 0.1,2.4 c -0.2,0 -0.4,0 -0.7,0 l 28,47.6 1,-1.8 c 6.1,-10.6 8.5,-26.7 7.3,-47.8 -0.6,-9.2 -1.7,-18.3 -3.4,-27.3 -0.1,-0.7 -0.2,-1.1 -0.2,-1.2 z m -2.4,72.8 -28.2,-48 -10.6,-6.4 4.3,-7.2 -5.8,-10.5 1.2,-0.8 15.8,19.7 29,31.6 c -0.8,7.8 -2.6,15.4 -5.7,21.6" />
		<path
   id="Path_484"
   d="m 226,238.2 c 0.2,0 0.4,0.1 0.6,0.1 9.5,1.2 18.9,3.5 27.9,6.8 l -0.1,-1.3 0.4,-0.4 c 0.2,-0.2 0.4,-0.4 0.6,-0.5 -8.7,-3.1 -17.7,-5.4 -26.8,-6.7 -0.8,-0.1 -1.5,-0.2 -2.3,-0.3 z" />
		<path
   id="Path_485"
   d="m 258.5,285.8 h -1.2 v 0.2 z" />
		<path
   id="Path_486"
   d="m 280.3,281.8 c -0.7,0 -1.3,0 -2,0.1 -9.5,0.3 -16.1,1.1 -18.8,1.4 L 257,244.7 c 4.5,-4.1 15.9,-8.6 30.8,-12.1 l -0.1,-0.3 -0.5,-2 -0.7,0.2 c -7.7,1.9 -24.3,6.4 -31,12.4 -0.2,0.2 -0.4,0.4 -0.6,0.5 l -0.4,0.4 0.1,1.3 2.5,38.4 h 1.4 v 2.4 h 0.1 c 0,0 0.8,-0.1 2.1,-0.3 0.7,-0.1 1.6,-0.2 2.7,-0.3 3.6,-0.4 9.2,-0.8 16.3,-1 h 0.7 z" />
		<path
   id="Path_487"
   d="m 305.7,243.7 c 0,0 0,-0.1 0,0 l -0.2,-0.1 -2.2,-0.1 c 0,0.6 -0.1,1.2 -0.1,1.8 -0.2,3.4 -0.4,6.9 -0.6,10.5 v 0.6 0.4 l 2.4,0.1 v -0.4 c 0,-0.5 0.1,-1.1 0.1,-1.6 0.2,-3 0.3,-6 0.5,-8.8 0,-0.8 0,-1.6 0.1,-2.4" />
		<path
   id="Path_488"
   d="m 247.8,283.4 v 2.4 h 10.7 v -2.4 z" />
		<path
   id="Path_489"
   d="m 294.4,281.8 v 2.4 c 0.9,0 1.8,0 2.7,0.1 0.4,0 0.7,0 1.1,0.1 0.3,0 0.6,0 1,0.1 h 0.3 l 0.2,-2.4 h -0.3 c -0.4,0 -0.8,0 -1.1,-0.1 -1.1,-0.1 -2.2,-0.1 -3.3,-0.1 -0.3,-0.1 -0.4,-0.1 -0.6,-0.1" />
		<path
   id="Path_490"
   d="m 288.6,244.3 c -0.1,0 -0.2,-0.1 -0.2,-0.1 -0.2,-0.1 -0.5,-0.2 -1,-0.3 -1.4,-0.4 -6.1,-1.4 -9.3,0.9 -2.4,1.5 -2.9,1.6 -7.6,1.5 -5.3,0 -9.9,3.6 -10.1,3.7 l 1.5,1.9 c 0,0 4.2,-3.2 8.6,-3.2 5,0.1 6,0 9,-1.9 2,-1.3 5.2,-1.1 7.4,-0.6 0.2,0.1 0.5,0.2 0.7,0.3 1.3,0.5 1.7,0.2 3.5,-0.7 l -1.1,-2.1 c -0.6,0.2 -1.3,0.5 -1.4,0.6" />
	</g>
</g>
</svg>
