<?xml version="1.0" encoding="utf-8"?>
<!-- Generator: Adobe Illustrator 27.9.0, SVG Export Plug-In . SVG Version: 6.00 Build 0)  -->
<svg version="1.1" id="Layer_1" xmlns="http://www.w3.org/2000/svg" xmlns:xlink="http://www.w3.org/1999/xlink" x="0px" y="0px"
	 viewBox="0 0 64.1 93.7" style="enable-background:new 0 0 64.1 93.7;" xml:space="preserve">
<style type="text/css">
	.st0{clip-path:url(#SVGID_00000094577470831798107210000008983093497265564801_);}
	.st1{fill:#FFFFFF;}
	.st2{fill:#27AAE1;}
</style>
<g>
	<defs>
		<rect id="SVGID_1_" x="1.6" y="2.5" width="60" height="88.8"/>
	</defs>
	<clipPath id="SVGID_00000054953928639366322870000008570685480304835971_">
		<use xlink:href="#SVGID_1_"  style="overflow:visible;"/>
	</clipPath>
	<g id="Group_359" style="clip-path:url(#SVGID_00000054953928639366322870000008570685480304835971_);">
		<path id="Path_2620" class="st1" d="M31.6,4.2C16,4.2,3.4,16.9,3.3,32.5l28.3,55.1l28.3-55.1C59.9,16.8,47.3,4.2,31.6,4.2"/>
		<path id="Path_2621" d="M31.6,91.3l-30-58.4v-0.4c0-16.6,13.4-30,30-30s30,13.4,30,30v0.4L31.6,91.3z M5.1,32.1l26.6,51.8
			l26.6-51.8C58,17.4,45.9,5.7,31.2,5.9C16.9,6.1,5.3,17.7,5.1,32.1"/>
		<path id="Path_2622" class="st2" d="M31.6,14.9c8,0,14.5,6.5,14.5,14.5s-6.5,14.5-14.5,14.5s-14.5-6.5-14.5-14.5c0,0,0,0,0,0
			C17.2,21.4,23.7,14.9,31.6,14.9"/>
		<path id="Path_2623" d="M31.6,45.5c-8.9,0-16.2-7.2-16.2-16.2s7.2-16.2,16.2-16.2s16.2,7.2,16.2,16.2c0,0,0,0,0,0
			C47.8,38.3,40.6,45.5,31.6,45.5 M31.6,16.6c-7,0-12.8,5.7-12.8,12.8s5.7,12.8,12.8,12.8s12.7-5.7,12.7-12.8
			C44.4,22.3,38.7,16.6,31.6,16.6"/>
	</g>
</g>
</svg>
