<?xml version="1.0" encoding="utf-8"?>
<!-- Generator: Adobe Illustrator 28.0.0, SVG Export Plug-In . SVG Version: 6.00 Build 0)  -->
<svg version="1.1" id="Layer_1" xmlns="http://www.w3.org/2000/svg" xmlns:xlink="http://www.w3.org/1999/xlink" x="0px" y="0px"
	 viewBox="0 0 179 208.9" style="enable-background:new 0 0 179 208.9;" xml:space="preserve">
<style type="text/css">
	.st0{clip-path:url(#SVGID_00000165197682976675391910000001530313554973236927_);}
	.st1{fill:#FFFFFF;}
	.st2{fill:#27AAE1;}
</style>
<g>
	<defs>
		<rect id="SVGID_1_" x="42.3" y="11.1" width="94.5" height="186.8"/>
	</defs>
	<clipPath id="SVGID_00000081614956134966100520000000550648628669451671_">
		<use xlink:href="#SVGID_1_"  style="overflow:visible;"/>
	</clipPath>
	<g id="Group_688" style="clip-path:url(#SVGID_00000081614956134966100520000000550648628669451671_);">
		<path id="Path_4775" class="st1" d="M72.6,15.1c-0.3-0.4-0.7-0.7-1-1c-1.6,0.2-3.2,0.3-4.8,0.3c-0.6,0-1.3,0-1.9-0.1
			c-0.2,0.4-0.5,0.8-0.7,1.2C66.9,15.8,69.8,15.6,72.6,15.1"/>
		<path id="Path_4776" class="st1" d="M128.4,104.7l2.6,0.3l1.1-28.5l-4.8,0.7L128.4,104.7z"/>
		<path id="Path_4777" class="st1" d="M127,75.9l4.8-0.7l-8.4-21.2v14.3L127,75.9z"/>
		<path id="Path_4778" class="st1" d="M128.2,105.9l-2.7,5.3l1.2,0.9l2.2-3.4l1.3,1.9l-0.6,6.5l2.7-1.2l-1.4-9.6L128.2,105.9z"/>
		<path id="Path_4779" class="st1" d="M122.2,102V56l-0.2,1.4l-6.2,0.6l-0.6-6.4c-6.2,0.2-14.3,0.6-16.7,0.7L104,102H122.2z"/>
		<path id="Path_4780" class="st1" d="M46.3,104.6l-2.6,9.1l3.3,3.2l0.6-10.7l3,3.2l1.3-0.7l-2.3-4.1H46.3z"/>
		<path id="Path_4781" class="st1" d="M54.1,195.5l0.8,0.4l5.8-8.1h-0.4L54.1,195.5z"/>
		<path id="Path_4782" class="st1" d="M60.8,186.5h0.5l4.7-86.4h-2.3L60.8,186.5z"/>
		<path id="Path_4783" class="st1" d="M110,48.9c4.6,0,8.4-6.5,8.4-14.4s-3.8-14.4-8.4-14.4s-8.4,6.5-8.4,14.4S105.4,48.9,110,48.9"
			/>
		<path id="Path_4784" class="st1" d="M66.6,42.5c0.2,0,0.4,0,0.6,0c5.1,0,9.3-6.8,9.3-15.1c0-3.1-0.6-6.1-1.8-8.9
			c-2.6,0.8-5.3,1.3-8,1.3c-1.5,0-2.9-0.1-4.4-0.4C60.1,25.5,59.1,34.2,66.6,42.5"/>
		<path id="Path_4785" class="st1" d="M63.5,16.8c-0.2,0.5-0.4,0.9-0.7,1.5c3.8,0.6,7.7,0.3,11.3-0.8c-0.2-0.4-0.5-0.8-0.7-1.2
			c-2.2,0.5-4.5,0.7-6.8,0.7C65.6,16.9,64.5,16.9,63.5,16.8"/>
		<path id="Path_4786" class="st1" d="M69.8,13c-0.8-0.4-1.6-0.6-2.5-0.6c-0.4,0-0.9,0.1-1.3,0.2c-0.1,0.2-0.2,0.3-0.4,0.5
			C67,13.1,68.4,13.1,69.8,13"/>
		<path id="Path_4787" class="st1" d="M48.5,103.3l-0.6-29.6l-3.6-1.3l2.1,31H48.5z"/>
		<path id="Path_4788" class="st1" d="M114.3,48.5c0,0.5,0.1,1.2,0.1,1.8l0.6,0l-0.1-1.1l1.3-0.1l0.7,7.5l0.6-0.1l-0.3-4.1l1.3-0.1
			l0.3,4.1l0.6-0.1l-0.2-4l1.3-0.1l0.2,3.9l0.1,0l0.8-5.4l-0.7-3c-0.9,0-3-0.1-5.8-0.1C114.9,48.1,114.6,48.3,114.3,48.5"/>
		<path id="Path_4789" class="st1" d="M69.8,43.4C68.3,44,66.6,44,65,43.5v2.8h4.8V43.4z"/>
		<path id="Path_4790" class="st1" d="M53.2,49.8L44.4,71l3.8,1.4l5.5-13.7L53.2,49.8z"/>
		<path id="Path_4791" class="st1" d="M74.5,186.5h0.3l1.7-86.4h-6.4L74.5,186.5z"/>
		<path id="Path_4792" class="st1" d="M94.6,102.1l1.8,0.3l3.6-25l-2.1-18.8L94.6,102.1z"/>
		<path id="Path_4793" class="st1" d="M94.3,103.3l-5.1,10.1l3.2,0.4l2.7-7.9l1.5,2.7l1.1-0.8l-1.2-4.3L94.3,103.3z"/>
		<path id="Path_4794" class="st1" d="M100,184.7h3.4l8-81.5H104L100,184.7z"/>
		<path id="Path_4795" class="st1" d="M121.5,184.7l0.6-81.5h-8.1l4.6,81.5H121.5z"/>
		<path id="Path_4796" class="st1" d="M122,186h-2.7l5.4,8.2l8.5-2.2L122,186z"/>
		<path id="Path_4797" class="st1" d="M86.8,192.7l-10.3-4.4l8.8,5.1L86.8,192.7z"/>
		<path id="Path_4798" class="st1" d="M63.7,47.6h-4.6l2.7,48.7l10.5,2.6h4.2l3-51.3H63.7z"/>
		<path id="Path_4799" class="st1" d="M92.5,194.5l8.7,1.3l1.9-9.8h-3.5L92.5,194.5z"/>
		<path id="Path_4800" class="st1" d="M113.1,49.4c-0.9,0.5-2,0.8-3.1,0.8c-0.5,0-1.1-0.1-1.6-0.2v0.6c1.6-0.1,3.2-0.1,4.8-0.2
			C113.1,50.1,113.1,49.7,113.1,49.4"/>
		<path id="Path_4801" class="st1" d="M97.1,51.7L97.1,51l0.7,0c0.1,0,4.4-0.2,9.3-0.4v-1.2c-0.9-0.4-1.7-1-2.3-1.7v0
			c-10-0.1-21.2-0.1-23.9-0.1l-0.4,6.3c1.6-0.2,9-0.9,16.6-1.7L97.1,51.7z"/>
		<path id="Path_4802" class="st2" d="M66,12.5c-0.5,0.1-0.9,0.3-1.3,0.5c0.3,0,0.6,0.1,1,0.1C65.7,12.9,65.9,12.7,66,12.5"/>
		<path id="Path_4803" class="st2" d="M61,16.3c-0.3,0.4-0.5,0.8-0.7,1.2c0.8,0.3,1.7,0.5,2.5,0.6c0.2-0.5,0.4-1,0.7-1.5
			C62.7,16.7,61.8,16.5,61,16.3"/>
		<path id="Path_4804" class="st2" d="M64.8,14.3c-0.6,0-1.2-0.1-1.8-0.2c-0.4,0.3-0.8,0.7-1.1,1.1c0.7,0.1,1.5,0.2,2.2,0.3
			C64.3,15.1,64.6,14.7,64.8,14.3"/>
		<path id="Path_4805" class="st2" d="M62.3,19.4c-0.9-0.2-1.7-0.4-2.6-0.7c-1.2,2.8-1.7,5.7-1.7,8.7c0,8,3.8,14.5,8.6,15.1
			C59.1,34.2,60.1,25.5,62.3,19.4"/>
		<path id="Path_4806" class="st2" d="M59.1,47.6h-4.8L57,98.9h15.5l-10.5-2.6L59.1,47.6z"/>
		<path id="Path_4807" class="st2" d="M57,100.2l0.6,86.4h3.2l3-86.4H57z"/>
		<path id="Path_4808" class="st2" d="M57.1,187.8l-9,4.8l6,2.9l6.2-7.7H57.1z"/>
		<path id="Path_4809" class="st2" d="M67.4,100.2l4.3,86.4h2.8l-4.4-86.4H67.4z"/>
		<path id="Path_4810" class="st2" d="M72.6,187.8l7.6,8.1l5-2.4l-8.8-5.1l-1.2-0.5H72.6z"/>
		<path id="Path_4811" class="st2" d="M81,197.8l6.8-2.9l-1.2-0.7l-6.2,3L81,197.8z"/>
		<path id="Path_4812" class="st2" d="M49.3,103.3l1.2-28.7l-2.6-1l0.6,29.6L49.3,103.3z"/>
		<path id="Path_4813" class="st2" d="M48.2,72.4l2.6,1l3.2-9.3l-0.3-5.4L48.2,72.4z"/>
		<path id="Path_4814" d="M122.8,185l0.6-81.7h0V71.3l2.6,5.5l1.1,28.5l-3.2,6.3l3.2,2.4l1.9-2.9l-0.7,8l5.6-2.4l-1.6-10.9l1.2-30.1
			l-10-25.3l-0.5,0.2l-0.9-4.1l-0.5,0c0,0-2.1,0-5.2-0.1c2.4-3.5,3.6-7.7,3.5-12c0-8.6-4.4-15.7-9.7-15.7s-9.7,7-9.7,15.7
			c-0.1,4.2,1.1,8.4,3.4,11.9c-9.6-0.1-20.1-0.1-22.8-0.1l0,0h-9.9v-3.5c3.9-2.4,6.7-8.3,6.7-15.3c0-3.2-0.6-6.4-1.9-9.3l0.1-0.1
			l-0.5-1.2c0,0-0.1,0-0.2,0.1c-0.2-0.4-0.4-0.7-0.6-1.1c0.2-0.1,0.4-0.1,0.6-0.2l-0.6-1.1c-0.2,0.1-0.5,0.2-0.7,0.2
			c-0.3-0.3-0.5-0.7-0.8-1c0.4-0.1,0.7-0.1,0.8-0.1l-0.2-1.3c0,0-0.7,0.1-1.8,0.3c-2.7-2.2-6.5-2.2-9.2,0c-0.3-0.1-0.6-0.1-0.8-0.2
			l-0.4,1.2l0.1,0c-0.4,0.4-0.7,0.8-1,1.2c-0.1,0-0.1,0-0.2-0.1l-0.2,0.6c-2.3,3.6-3.5,7.8-3.4,12.1c0,7.1,2.9,13.2,7,15.4v3.4H53
			l0,0.5L42.9,71.3l2.2,32.6l-2.9,10.3l5.9,5.7l0.6-10.5l1.6,1.7l3.2-1.9l-3.1-5.3l1.2-29.5l2.3-6.8l1.6,32l0.6,87.3l-11.1,5.9
			l10,4.8l7-9.7h0.3l4.2-76l3.8,76h0.3l9.1,9.7l0.4-0.2l6.2-3l3.3-1.6l-13.8-5.9l1.7-87.2l2.6-44.4c0.9-0.1,8.6-0.9,16.6-1.7
			l-3.7,49l-6.1,12.1l6,0.8l2.1-6.1l0.8,1.4l3-2.1l-1.6-5.4l2.9-20.6l2.2,20.1l-4,82.5l-8.6,10.3l12.2,1.8l2.2-11.2h0.1l8.1-82.3
			h0.2l4.7,82.3h0.3l6.4,9.7l12.6-3.3L122.8,185z M131,105l-2.6-0.3l-1.1-27.5l4.8-0.7L131,105z M132.4,116l-2.7,1.2l0.6-6.5
			l-1.3-1.9l-2.2,3.4l-1.2-0.9l2.7-5.3l2.8,0.4L132.4,116z M131.8,75.2l-4.8,0.7l-3.6-7.6V54.1L131.8,75.2z M120.9,47.8l0.7,3
			l-0.8,5.4l-0.1,0l-0.2-3.9l-1.3,0.1l0.2,4l-0.6,0.1l-0.3-4.1l-1.3,0.1l0.3,4.1l-0.6,0.1l-0.7-7.5l-1.3,0.1l0.1,1.1l-0.6,0
			c0-0.6-0.1-1.3-0.1-1.8c0.3-0.2,0.6-0.5,0.8-0.8C117.9,47.8,120,47.8,120.9,47.8 M108.4,49.9c0.5,0.1,1.1,0.2,1.6,0.2
			c1.1,0,2.1-0.3,3.1-0.8c0,0.3,0.1,0.7,0.1,1c-1.6,0.1-3.2,0.1-4.8,0.2L108.4,49.9z M101.6,34.5c0-7.9,3.8-14.4,8.4-14.4
			s8.4,6.5,8.4,14.4s-3.8,14.4-8.4,14.4S101.6,42.4,101.6,34.5 M74.2,17.4c-3.7,1.1-7.6,1.4-11.3,0.8c-0.9-0.2-1.7-0.4-2.5-0.6
			c0.2-0.4,0.5-0.8,0.7-1.2c0.8,0.2,1.6,0.3,2.5,0.4c1,0.1,2.1,0.2,3.2,0.2c2.3,0,4.6-0.2,6.8-0.7C73.7,16.6,73.9,17,74.2,17.4
			 M66,12.5c0.4-0.1,0.9-0.2,1.3-0.2c0.9,0,1.7,0.2,2.5,0.6c-1.4,0.1-2.8,0.2-4.2,0.1c-0.3,0-0.7,0-1-0.1C65,12.8,65.5,12.6,66,12.5
			 M63,14.1c0.6,0.1,1.2,0.2,1.8,0.2c0.6,0,1.3,0.1,1.9,0.1c1.6,0,3.2-0.1,4.8-0.3c0.4,0.3,0.7,0.7,1,1c-2.8,0.5-5.6,0.7-8.5,0.4
			c-0.7-0.1-1.5-0.2-2.2-0.3C62.2,14.8,62.6,14.4,63,14.1 M58,27.5c0-3,0.6-6,1.7-8.7c0.9,0.3,1.7,0.5,2.6,0.7
			c1.4,0.3,2.9,0.4,4.4,0.4c2.7,0,5.4-0.4,8-1.3c1.2,2.8,1.8,5.8,1.8,8.9c0,8.3-4.2,15.1-9.3,15.1c-0.2,0-0.4,0-0.6,0
			C61.8,42,58,35.5,58,27.5 M65,43.5c1.5,0.5,3.2,0.5,4.8-0.1v2.9H65L65,43.5z M44.3,72.3l3.6,1.3l2.6,1l-1.2,28.7h-2.9L44.3,72.3z
			 M51.9,108.7l-1.3,0.7l-3-3.2L47,116.9l-3.3-3.2l2.6-9.1h3.2L51.9,108.7z M50.7,73.4l-2.6-1L44.4,71l8.8-21.2l0.4,8.8l0.3,5.4
			L50.7,73.4z M54.9,195.9l-0.8-0.4l-6-2.9l9-4.8h3.5L54.9,195.9z M61.3,186.5h-3.7L57,100.2h9.1L61.3,186.5z M76.5,188.3l10.3,4.4
			l-1.5,0.7l-5,2.4l-7.6-8.1h2.7L76.5,188.3z M74.8,186.5h-3.1l-4.3-86.4h9.1L74.8,186.5z M76.6,98.9H57l-2.6-51.3h25.2L76.6,98.9z
			 M80.5,53.9l0.4-6.3c2.7,0,14,0.1,23.9,0.1v0c0.7,0.7,1.5,1.3,2.3,1.8v1.2c-5,0.2-9.3,0.4-9.3,0.4l-0.7,0l0.1,0.6l0,0.5
			C89.5,52.9,82,53.7,80.5,53.9 M97.7,108l-1.1,0.8l-1.5-2.7l-2.7,7.9l-3.2-0.4l5.1-10.1l2.2,0.4L97.7,108z M96.4,102.4l-1.8-0.3
			l3.3-43.5l2.1,18.8L96.4,102.4z M98.5,52.3c2.4-0.1,10.5-0.4,16.7-0.7l0.6,6.4l6.2-0.6l0.2-1.4V102H104L98.5,52.3z M101.3,195.8
			l-8.7-1.3l7.1-8.5h3.5L101.3,195.8z M103.4,184.7H100l4-81.5h7.4L103.4,184.7z M114.1,103.2h8.1l-0.6,81.5h-2.8L114.1,103.2z
			 M119.3,186h2.7l11.3,6l-8.5,2.2L119.3,186z"/>
	</g>
</g>
</svg>
