<?xml version="1.0" encoding="UTF-8" standalone="no"?>
<svg
   id="Layer_1"
   viewBox="0 0 397 981"
   version="1.1"
   sodipodi:docname="multiply.svg"
   inkscape:version="1.1.2 (0a00cf5339, 2022-02-04)"
   xmlns:inkscape="http://www.inkscape.org/namespaces/inkscape"
   xmlns:sodipodi="http://sodipodi.sourceforge.net/DTD/sodipodi-0.dtd"
   xmlns="http://www.w3.org/2000/svg"
   xmlns:svg="http://www.w3.org/2000/svg">
  <sodipodi:namedview
     id="namedview347"
     pagecolor="#ffffff"
     bordercolor="#666666"
     borderopacity="1.0"
     inkscape:pageshadow="2"
     inkscape:pageopacity="0.0"
     inkscape:pagecheckerboard="0"
     showgrid="false"
     inkscape:zoom="0.71083508"
     inkscape:cx="225.79077"
     inkscape:cy="469.86989"
     inkscape:window-width="1916"
     inkscape:window-height="1029"
     inkscape:window-x="1920"
     inkscape:window-y="49"
     inkscape:window-maximized="1"
     inkscape:current-layer="Layer_1" />
  <defs
     id="defs4">
    <style
       id="style2">.cls-1{fill:none;}.cls-2{fill:#8acdea;}</style>
  </defs>
  <path
     class="cls-1"
     d="m 274.62347,371.66 -0.43,-1.77 c 0.26,0.02 0.52,0.05 0.78,0.05 v 0 c 0.34,0 0.68,-0.02 1.02,-0.06 0.57,-0.07 1.11,-0.21 1.64,-0.38 v 1.81 l -3,0.35 z"
     id="path6" />
  <path
     class="cls-1"
     d="m 265.44347,357.97 c -0.91,-6.27 2.25,-11.84 7.04,-12.42 v 0 c 4.79,-0.58 9.42,4.05 10.32,10.32 0.91,6.27 -2.25,11.84 -7.04,12.42 -4.79,0.58 -9.42,-4.05 -10.32,-10.32 z"
     id="path8" />
  <path
     class="cls-1"
     d="m 284.40347,577.15 2.45,1.06 c -0.04,9.03 2.99,21.75 9.01,37.83 3.86,10.31 7.79,18.8 8.9,21.16 l -1.98,1.08 c -22.18,-19.53 -26.73,-55.08 -27.26,-60.07 2.47,-0.3 6.16,-0.75 8.88,-1.06 z"
     id="path10" />
  <path
     class="cls-1"
     d="m 249.49347,403.57 -0.91,-2.09 c 11.28,-4.31 15.79,-13.73 17.53,-19.48 l 1.72,9.31 c -6.07,10.8 -15.85,12.11 -18.34,12.26 z"
     id="path12" />
  <path
     class="cls-1"
     d="m 273.77347,413.99 h 13.35 c -4.51,28.91 3.63,58.27 5.3,63.83 l -4.48,0.39 c -10.62,-20.08 -13.71,-57.79 -14.17,-64.22 z"
     id="path14" />
  <path
     class="cls-1"
     d="m 274.96347,439.07 c -4.04,6.17 -10.49,35.31 -11.59,40.41 l -4.16,-0.38 c 0.75,-5.66 5.47,-39.73 12.97,-62.88 0.36,4.38 1.19,12.98 2.78,22.86 z"
     id="path16" />
  <polygon
     class="cls-1"
     points="137.11,404.67 137.95,407.02 144.22,408.34 146.19,401.32 141.32,400.03 138.34,401.8 137.09,404.68 "
     id="polygon18"
     transform="matrix(-1,0,0,1,385.18347,0)" />
  <polygon
     class="cls-1"
     points="122.04,484.35 137.06,486.46 141.41,481.18 126.97,480.61 122.04,481.06 "
     id="polygon20"
     transform="matrix(-1,0,0,1,385.18347,0)" />
  <polygon
     class="cls-1"
     points="92.16,479.38 91.04,481.03 102.82,485.57 108.32,482.51 97.48,479.94 97.51,479.84 "
     id="polygon22"
     transform="matrix(-1,0,0,1,385.18347,0)" />
  <path
     class="cls-1"
     d="m 255.73347,637.59 c 2.72,-26.57 15.76,-55.16 17.62,-59.12 0.12,-0.01 0.27,-0.03 0.43,-0.05 0.17,1.57 0.69,5.72 1.9,11.32 -2.59,5.17 -15.32,42.54 -17.37,48.59 l -2.57,-0.74 z"
     id="path24" />
  <path
     class="cls-1"
     d="m 306.00347,638.38 3.55,3.12 c -3.39,2.8 -7,5.71 -7.88,6.31 -1.23,-0.03 -6.83,-0.21 -10.81,-0.33 l 12.04,-7.4 z"
     id="path26" />
  <path
     class="cls-1"
     d="m 243.13347,555.02 -3.95,1.52 c -0.97,-0.73 -3.41,-2.56 -4.68,-3.46 0.55,-0.89 1.56,-2.53 2.24,-3.65 l 2.11,-2.57 5.15,2.95 v 2.27 l -0.87,2.95 z"
     id="path28" />
  <path
     class="cls-1"
     d="m 271.38347,532.81 c -2.55,0.43 -5.16,-0.34 -7.06,-2.09 -2.45,-2.11 -4.18,-4.93 -4.95,-8.07 -1.74,-6.66 0.82,-12.95 5.7,-14.02 v 0 c 4.88,-1.07 10.27,3.49 12.01,10.16 1.74,6.67 -0.82,12.95 -5.7,14.02 z"
     id="path30" />
  <path
     class="cls-1"
     d="m 254.68347,638.97 3.27,0.94 v 4.07 c -2.28,-0.26 -8.08,-0.91 -12.67,-1.33 l -5.7,-0.32 0.42,-4.26 c 6.02,0.42 14.67,1.01 14.67,1.01 v -0.1 z"
     id="path32" />
  <polygon
     class="cls-1"
     points="125.48,561.85 140.26,555.12 139.69,553.19 126.24,556.88 120.62,546.24 118.74,554.35 118.74,554.34 "
     id="polygon34"
     transform="matrix(-1,0,0,1,385.18347,0)" />
  <path
     class="cls-1"
     d="m 284.93347,545.08 c -0.33,-2.77 -0.61,-5.09 -0.79,-6.59 l 14.74,10.34 -0.85,3.64 -13.1,-7.38 z"
     id="path36" />
  <polygon
     class="cls-1"
     points="91.17,570.76 90.24,575.46 93.41,578.57 98.89,576.2 94.07,570.1 "
     id="polygon38"
     transform="matrix(-1,0,0,1,385.18347,0)" />
  <polygon
     class="cls-1"
     points="93.5,568.58 91.88,551.67 87.54,554.12 91.07,569.13 "
     id="polygon40"
     transform="matrix(-1,0,0,1,385.18347,0)" />
  <path
     class="cls-1"
     d="m 285.17347,547.09 6.46,3.64 -1.73,18.18 -1.85,2.34 c -0.69,-5.86 -1.93,-16.27 -2.87,-24.16 z"
     id="path42" />
  <path
     class="cls-1"
     d="m 284.69347,575.5 c -3.53,0.4 -9.15,1.09 -11.23,1.34 l -8.46,-36.39 c 4.92,-2.68 14.49,-2.93 17.26,-2.94 0.52,4.37 3.31,27.65 4.25,35.68 l -1.82,2.3 z"
     id="path44" />
  <path
     class="cls-1"
     d="m 208.55347,260.78 c -0.52,1.47 -1.12,3.07 -1.43,3.77 h -7.52 l -1.08,-4.73 3.82,-2.56 3.17,-0.69 3.05,4.2 z"
     id="path46" />
  <path
     class="cls-1"
     d="m 64.153471,354.44 c -0.91,-6.27 2.25,-11.84 7.04,-12.42 0.27,-0.03 0.54,-0.05 0.81,-0.05 2.16,0.07 4.21,0.98 5.71,2.55 2.09,2.12 3.43,4.87 3.81,7.82 0.48,2.9 -0.03,5.88 -1.46,8.46 -1.12,2.13 -3.19,3.6 -5.58,3.96 -4.79,0.58 -9.42,-4.05 -10.32,-10.32 z"
     id="path48" />
  <path
     class="cls-1"
     d="m 195.90347,234.62 c -1.63,-3.07 -3.38,-5.41 -5.24,-6.94 l -0.11,0.12 0.24,-12.28 c 1.97,2.21 5.76,7.07 8.94,14.63 z"
     id="path50" />
  <path
     class="cls-1"
     d="m 150.45347,244.9 -0.91,-2.09 c 11.36,-4.34 15.85,-13.86 17.57,-19.61 l 1.73,9.35 c -6.06,10.88 -15.89,12.19 -18.39,12.34 z"
     id="path52" />
  <path
     class="cls-1"
     d="m 73.393471,368.2 -0.45,-1.82 c 0.24,0.02 0.49,0.04 0.73,0.04 v 0 c 0.34,0 0.68,-0.02 1.02,-0.07 0.58,-0.08 1.15,-0.23 1.69,-0.42 v 1.91 l -3,0.35 z"
     id="path54" />
  <path
     class="cls-1"
     d="m 174.53347,253.72 -0.04,-0.2 c 0,0 0,-0.02 0.01,-0.03 h -0.02 c 0,0 -3.82,-20.69 -3.82,-20.69 0.04,-0.08 0.09,-0.15 0.13,-0.23 l -0.19,-0.08 -2.52,-13.61 c 0.03,-0.21 0.04,-0.33 0.04,-0.35 h -0.11 c 0,0 -0.42,-2.29 -0.42,-2.29 7.77,-2.1 18.4,-2.08 21.46,-2.02 l -0.79,39.49 h -13.75 z"
     id="path56" />
  <path
     class="cls-1"
     d="m 72.543471,410.52 h 13.35 c -4.51,28.91 3.64,58.27 5.31,63.83 l -4.48,0.39 c -10.62,-20.08 -13.71,-57.79 -14.17,-64.22 z"
     id="path58" />
  <polygon
     class="cls-1"
     points="323.27,480.88 338.35,483.05 342.66,477.71 328.23,477.14 323.27,477.6 "
     id="polygon60"
     transform="matrix(-1,0,0,1,385.18347,0)" />
  <path
     class="cls-1"
     d="m 73.723471,435.53 c -4.04,6.02 -10.52,35.35 -11.64,40.47 l -4.16,-0.38 c 0.75,-5.67 5.49,-39.87 13.02,-63.02 0.35,4.32 1.18,12.97 2.78,22.93 z"
     id="path62" />
  <path
     class="cls-1"
     d="m 273.51347,412.39 v -0.05 c 0,0 0.02,-0.08 0.03,-0.12 l -0.07,-0.02 -3.82,-20.64 c 0.05,-0.11 0.12,-0.2 0.17,-0.31 l -0.25,-0.11 -2.48,-13.4 c 0.05,-0.32 0.07,-0.51 0.07,-0.53 h -0.17 c 0,0 -0.42,-2.29 -0.42,-2.29 7.77,-2.1 18.4,-2.08 21.46,-2.02 l -0.79,39.49 h -13.75 z"
     id="path64" />
  <polygon
     class="cls-1"
     points="338.4,401.27 339.18,403.55 345.45,404.87 347.47,397.85 342.55,396.56 339.65,398.29 338.35,401.28 "
     id="polygon66"
     transform="matrix(-1,0,0,1,385.18347,0)" />
  <path
     class="cls-1"
     d="m 166.46347,199.23 c -0.91,-6.27 2.25,-11.84 7.04,-12.42 0.27,-0.03 0.54,-0.05 0.81,-0.05 v 0 c 2.16,0.07 4.21,0.99 5.71,2.55 2.09,2.12 3.43,4.87 3.81,7.82 0.48,2.9 -0.04,5.88 -1.46,8.45 -1.12,2.13 -3.19,3.6 -5.58,3.96 -4.78,0.58 -9.42,-4.05 -10.32,-10.32 z"
     id="path68" />
  <polygon
     class="cls-1"
     points="236.15,246 236.99,248.34 243.26,249.67 245.23,242.64 240.3,241.36 237.43,243.02 236.13,246 "
     id="polygon70"
     transform="matrix(-1,0,0,1,385.18347,0)" />
  <path
     class="cls-1"
     d="m 175.63347,212.94 -0.47,-1.78 c 0.28,0.03 0.55,0.05 0.83,0.05 v 0 c 0.34,0 0.68,-0.03 1.02,-0.07 0.56,-0.08 1.1,-0.22 1.63,-0.39 v 1.84 z"
     id="path72" />
  <path
     class="cls-1"
     d="m 294.92347,393.32 c -1.63,-3.05 -3.37,-5.38 -5.22,-6.91 l -0.18,0.18 0.25,-12.4 c 1.53,1.68 2.92,3.49 4.13,5.42 1.89,2.95 3.51,6.05 4.87,9.26 z"
     id="path74" />
  <path
     class="cls-1"
     d="m 307.59347,419.46 c -0.52,1.47 -1.12,3.08 -1.43,3.77 h -7.52 l -1.08,-4.73 3.84,-2.57 3.13,-0.68 z"
     id="path76" />
  <path
     class="cls-1"
     d="m 175.96347,280.28 c -4.04,6.03 -10.52,35.35 -11.63,40.47 l -4.16,-0.38 c 0.75,-5.67 5.49,-39.86 13.02,-63.02 0.35,4.3 1.17,12.95 2.77,22.93 z"
     id="path78" />
  <polygon
     class="cls-1"
     points="221.02,325.67 236.1,327.79 240.45,322.45 225.99,321.88 221.02,322.34 "
     id="polygon80"
     transform="matrix(-1,0,0,1,385.18347,0)" />
  <polygon
     class="cls-1"
     points="191.14,320.7 190.08,322.3 201.8,326.85 207.34,323.78 196.52,321.26 196.55,321.17 "
     id="polygon82"
     transform="matrix(-1,0,0,1,385.18347,0)" />
  <path
     class="cls-1"
     d="m 174.79347,255.32 h 13.35 c -4.51,28.91 3.64,58.27 5.31,63.83 l -4.48,0.39 c -10.62,-20.08 -13.71,-57.79 -14.17,-64.22 z"
     id="path84" />
  <polygon
     class="cls-1"
     points="293.38,475.91 292.27,477.56 304.05,482.11 309.6,479.04 298.77,476.47 298.79,476.38 "
     id="polygon86"
     transform="matrix(-1,0,0,1,385.18347,0)" />
  <path
     class="cls-1"
     d="m 149.34347,796.27 c 2.71,-26.46 15.65,-54.92 17.59,-59.06 0.13,-0.02 0.28,-0.03 0.46,-0.06 0.18,1.6 0.7,5.73 1.89,11.27 -2.59,5.18 -15.32,42.53 -17.37,48.59 z"
     id="path88" />
  <polygon
     class="cls-1"
     points="320.18,225.29 318.28,233.47 318.28,233.47 325.07,240.98 339.81,234.25 339.27,232.32 325.84,236.01 "
     id="polygon90"
     transform="matrix(-1,0,0,1,385.18347,0)" />
  <path
     class="cls-1"
     d="m 37.153471,228.55 2.11,-2.57 5.15,2.95 v 2.27 l -0.82,2.95 -3.94,1.52 c -0.98,-0.74 -3.46,-2.6 -4.73,-3.49 0.55,-0.89 1.54,-2.51 2.22,-3.62 z"
     id="path92" />
  <path
     class="cls-1"
     d="m 74.243471,257.55 c 0.17,1.56 0.69,5.68 1.88,11.24 -2.5,4.87 -15.34,42.58 -17.41,48.67 l -2.57,-0.74 c 2.72,-26.55 15.74,-55.11 17.61,-59.11 0.13,-0.02 0.3,-0.04 0.49,-0.06 z"
     id="path94" />
  <path
     class="cls-1"
     d="m 55.153471,318.11 3.27,0.94 v 4.06 c -2.28,-0.26 -8.08,-0.91 -12.67,-1.33 l -5.7,-0.32 0.42,-4.26 c 6.02,0.42 14.67,1.01 14.67,1.01 v -0.09 z"
     id="path96" />
  <path
     class="cls-1"
     d="m 85.983471,541.12 c -0.33,-2.78 -0.61,-5.11 -0.79,-6.63 l 14.74,10.39 -0.86,3.66 z"
     id="path98" />
  <path
     class="cls-1"
     d="m 86.223471,543.14 6.45,3.66 -1.78,18.17 -1.8,2.28 c -0.69,-5.85 -1.93,-16.23 -2.87,-24.11 z"
     id="path100" />
  <path
     class="cls-1"
     d="m 84.873471,256.28 2.44,1.06 c -0.04,9.03 2.99,21.75 9.01,37.83 3.859999,10.31 7.789999,18.8 8.899999,21.16 l -1.98,1.08 C 81.063471,297.88 76.523471,262.34 75.983471,257.34 c 2.47,-0.3 6.17,-0.75 8.89,-1.06 z"
     id="path102" />
  <path
     class="cls-1"
     d="m 85.733471,571.5 c -3.53,0.4 -9.15,1.09 -11.23,1.34 l -8.46,-36.39 c 4.92,-2.68 14.49,-2.93 17.26,-2.94 0.52,4.37 3.31,27.64 4.25,35.67 l -1.82,2.31 z"
     id="path104" />
  <path
     class="cls-1"
     d="m 71.323471,532.69 -0.56,-2.14 c 0.07,0 0.14,0.01 0.22,0.02 v 0 c 0.62,0 1.24,-0.07 1.85,-0.2 0.45,-0.11 0.88,-0.26 1.3,-0.43 l 0.47,2.15 z"
     id="path106" />
  <polygon
     class="cls-1"
     points="292.5,564.62 290.85,547.74 286.51,550.2 290.03,565.14 "
     id="polygon108"
     transform="matrix(-1,0,0,1,385.18347,0)" />
  <path
     class="cls-1"
     d="m 71.853471,211.93 c -2.55,0.43 -5.16,-0.34 -7.06,-2.09 -2.45,-2.11 -4.18,-4.93 -4.95,-8.07 -0.87,-3.05 -0.72,-6.29 0.43,-9.24 0.86,-2.37 2.83,-4.16 5.27,-4.78 v 0 c 2.55,-0.43 5.16,0.34 7.06,2.09 2.45,2.11 4.18,4.93 4.95,8.07 0.87,3.05 0.72,6.29 -0.43,9.24 -0.86,2.37 -2.83,4.16 -5.27,4.78 z"
     id="path110" />
  <path
     class="cls-1"
     d="m 85.153471,254.63 c -3.53,0.4 -9.15,1.09 -11.22,1.34 l -8.46,-36.39 c 4.92,-2.68 14.49,-2.93 17.26,-2.94 0.52,4.37 3.31,27.6 4.25,35.65 l -1.82,2.33 z"
     id="path112" />
  <path
     class="cls-1"
     d="m 70.743471,215.82 -0.56,-2.14 c 0.07,0 0.15,0.01 0.22,0.02 v 0 c 0.62,0 1.24,-0.07 1.85,-0.2 0.45,-0.11 0.87,-0.26 1.29,-0.42 l 0.47,2.15 -3.28,0.6 z"
     id="path114" />
  <path
     class="cls-1"
     d="m 85.403471,224.24 c -0.33,-2.78 -0.61,-5.1 -0.79,-6.61 l 14.74,10.38 -0.85,3.61 z"
     id="path116" />
  <polygon
     class="cls-1"
     points="290.71,249.89 289.83,254.59 292.95,257.7 298.43,255.33 293.66,249.23 "
     id="polygon118"
     transform="matrix(-1,0,0,1,385.18347,0)" />
  <path
     class="cls-1"
     d="m 106.46347,317.51 3.55,3.12 c -3.39,2.8 -7,5.71 -7.88,6.31 -1.23,-0.03 -6.829999,-0.21 -10.809999,-0.33 l 12.049999,-7.4 3.09,-1.69 z"
     id="path120" />
  <polygon
     class="cls-1"
     points="293.09,247.71 291.43,230.83 287.08,233.28 290.61,248.26 "
     id="polygon122"
     transform="matrix(-1,0,0,1,385.18347,0)" />
  <path
     class="cls-1"
     d="m 85.643471,226.26 6.45,3.64 -1.78,18.15 -1.8,2.3 c -0.69,-5.86 -1.92,-16.22 -2.87,-24.09 z"
     id="path124" />
  <path
     class="cls-1"
     d="m 72.423471,528.81 c -2.55,0.43 -5.16,-0.34 -7.06,-2.09 -2.45,-2.11 -4.18,-4.93 -4.95,-8.07 -0.87,-3.05 -0.72,-6.29 0.43,-9.24 0.86,-2.37 2.83,-4.16 5.27,-4.78 0.47,-0.1 0.95,-0.15 1.43,-0.15 2.08,0.07 4.07,0.86 5.62,2.24 2.45,2.11 4.18,4.93 4.95,8.07 0.87,3.05 0.72,6.29 -0.43,9.24 -0.85,2.37 -2.83,4.16 -5.27,4.78 z"
     id="path126" />
  <polygon
     class="cls-1"
     points="199.89,727.31 198.27,710.39 193.92,712.85 197.41,727.86 "
     id="polygon128"
     transform="matrix(-1,0,0,1,385.18347,0)" />
  <path
     class="cls-1"
     d="m 178.31347,734.23 c -3.53,0.4 -9.17,1.09 -11.25,1.35 l -8.46,-36.39 c 4.93,-2.68 14.49,-2.93 17.26,-2.94 0.52,4.37 3.32,27.68 4.25,35.69 z"
     id="path130" />
  <path
     class="cls-1"
     d="m 178.77347,705.77 6.47,3.67 -1.73,18.2 -1.85,2.35 c -0.69,-5.87 -1.94,-16.32 -2.88,-24.22 z"
     id="path132" />
  <polygon
     class="cls-1"
     points="290.12,566.76 289.24,571.45 292.37,574.57 297.84,572.2 293.07,566.15 "
     id="polygon134"
     transform="matrix(-1,0,0,1,385.18347,0)" />
  <path
     class="cls-1"
     d="m 196.84347,798.57 2.77,-1.52 3.61,3.17 c -3.39,2.8 -7,5.71 -7.88,6.31 -1.23,-0.03 -6.83,-0.21 -10.81,-0.33 l 12.35,-7.58 -0.03,-0.05 z"
     id="path136" />
  <path
     class="cls-1"
     d="m 136.73347,713.77 -3.88,1.49 c -0.99,-0.74 -3.49,-2.62 -4.75,-3.51 0.55,-0.89 1.56,-2.54 2.25,-3.66 l 2.11,-2.57 5.15,2.95 v 2.26 z"
     id="path138" />
  <path
     class="cls-1"
     d="m 178.16347,735.86 2.29,1 c -0.04,9.03 2.99,21.76 9.01,37.86 3.86,10.31 7.79,18.8 8.9,21.16 l -1.98,1.08 c -22.11,-19.47 -26.7,-54.85 -27.26,-60.02 2.51,-0.31 6.3,-0.77 9.03,-1.08 z"
     id="path140" />
  <polygon
     class="cls-1"
     points="197.5,729.49 196.62,734.12 199.8,737.24 205.22,734.87 200.45,728.83 "
     id="polygon142"
     transform="matrix(-1,0,0,1,385.18347,0)" />
  <path
     class="cls-1"
     d="m 178.53347,703.75 c -0.33,-2.74 -0.6,-5.04 -0.78,-6.53 l 14.74,10.34 -0.84,3.63 z"
     id="path144" />
  <polygon
     class="cls-1"
     points="246.66,713.85 246.08,711.87 232.63,715.56 227.02,704.93 225.14,713.03 231.87,720.53 "
     id="polygon146"
     transform="matrix(-1,0,0,1,385.18347,0)" />
  <path
     class="cls-1"
     d="m 148.35347,797.66 3.27,0.94 v 4.05 c -2.28,-0.26 -8.08,-0.91 -12.67,-1.33 l -5.7,-0.32 0.42,-4.26 c 6.02,0.42 14.67,1.01 14.67,1.01 v -0.09 z"
     id="path148" />
  <path
     class="cls-1"
     d="m 55.733471,634.98 3.27,0.94 v 4.06 c -2.28,-0.26 -8.08,-0.91 -12.67,-1.33 l -5.7,-0.32 0.42,-4.26 c 6.02,0.42 14.67,1.01 14.67,1.01 v -0.09 z"
     id="path150" />
  <path
     class="cls-1"
     d="m 85.453471,573.15 2.44,1.06 c -0.04,9.03 2.99,21.75 9.01,37.83 3.859999,10.31 7.789999,18.8 8.899999,21.16 l -1.98,1.08 C 81.643471,614.75 77.103471,579.2 76.563471,574.21 c 2.47,-0.3 6.17,-0.75 8.89,-1.06 z"
     id="path152" />
  <path
     class="cls-1"
     d="m 107.04347,634.38 3.55,3.12 c -3.39,2.8 -7,5.71 -7.88,6.31 -1.23,-0.03 -6.829999,-0.21 -10.809999,-0.33 l 12.059999,-7.41 z"
     id="path154" />
  <path
     class="cls-1"
     d="m 74.823471,574.42 c 0.17,1.56 0.68,5.68 1.88,11.24 -2.5,4.88 -15.34,42.58 -17.41,48.67 l -2.57,-0.74 c 2.72,-26.55 15.74,-55.12 17.61,-59.11 0.13,-0.02 0.3,-0.04 0.49,-0.06 z"
     id="path156" />
  <polygon
     class="cls-1"
     points="319.6,542.16 317.69,550.34 317.7,550.34 324.49,557.85 339.23,551.11 338.69,549.19 325.25,552.88 "
     id="polygon158"
     transform="matrix(-1,0,0,1,385.18347,0)" />
  <path
     class="cls-1"
     d="m 164.99347,691.54 c -2.55,0.43 -5.16,-0.34 -7.06,-2.09 -2.45,-2.11 -4.18,-4.93 -4.95,-8.07 -1.74,-6.67 0.82,-12.95 5.7,-14.02 v 0 c 4.88,-1.07 10.27,3.49 12.01,10.16 0.87,3.05 0.72,6.29 -0.43,9.24 -0.86,2.37 -2.83,4.16 -5.27,4.78 z"
     id="path160" />
  <path
     class="cls-1"
     d="m 163.94347,695.37 -0.58,-2.09 c 0.06,0 0.12,0.01 0.19,0.01 v 0 c 0.62,0 1.24,-0.07 1.85,-0.2 0.45,-0.11 0.87,-0.26 1.29,-0.43 l 0.47,2.14 -3.22,0.56 z"
     id="path162" />
  <path
     class="cls-1"
     d="m 37.743471,545.42 2.11,-2.57 5.15,2.95 v 2.25 l -0.84,3.03 -3.92,1.51 c -0.99,-0.74 -3.48,-2.62 -4.74,-3.51 0.55,-0.89 1.56,-2.54 2.25,-3.66 z"
     id="path164" />
  <path
     class="cls-1"
     d="m 270.27347,536.69 -0.56,-2.14 c 0.08,0 0.15,0.01 0.23,0.02 v 0 c 0.62,0 1.24,-0.07 1.85,-0.2 0.45,-0.1 0.88,-0.24 1.3,-0.41 l 0.46,2.13 z"
     id="path166" />
  <path
     class="cls-1"
     d="m 68.873471,854.27 c -4.88,1.07 -10.27,-3.49 -12.01,-10.16 -1.74,-6.67 0.82,-12.95 5.7,-14.02 0.47,-0.1 0.95,-0.15 1.43,-0.15 v 0 c 2.08,0.07 4.07,0.86 5.62,2.24 2.45,2.11 4.18,4.93 4.95,8.07 1.74,6.67 -0.82,12.95 -5.7,14.02 z"
     id="path168" />
  <path
     class="cls-1"
     d="m 82.173471,896.9 c -3.53,0.4 -9.2,1.09 -11.28,1.35 l -8.46,-36.39 c 4.92,-2.68 14.49,-2.93 17.26,-2.94 0.53,4.38 3.32,27.73 4.25,35.72 z"
     id="path170" />
  <path
     class="cls-1"
     d="m 74.533471,49.01 v 0 c 0,0 0,0 0,0 0.35,0 0.7,-0.02 1.04,-0.06 0.59,-0.07 1.15,-0.22 1.7,-0.4 v 1.89 l -3,0.35 -0.45,-1.83 c 0.24,0.02 0.47,0.05 0.71,0.05 0,0 0,0 0,0 z"
     id="path172" />
  <path
     class="cls-1"
     d="m 82.383471,34.95 c 0.91,6.27 -2.25,11.84 -7.04,12.42 -2.44,0.21 -4.84,-0.71 -6.51,-2.5 -2.09,-2.12 -3.43,-4.87 -3.81,-7.82 -0.91,-6.27 2.25,-11.84 7.04,-12.42 4.78,-0.58 9.42,4.05 10.32,10.32 z"
     id="path174" />
  <path
     class="cls-1"
     d="m 67.753471,858.09 -0.58,-2.09 c 0.1,0 0.19,0.02 0.29,0.02 v 0 c 0.61,0 1.22,-0.06 1.81,-0.19 0.45,-0.1 0.89,-0.25 1.31,-0.41 l 0.45,2.08 -3.29,0.6 z"
     id="path176" />
  <path
     class="cls-1"
     d="m 82.603471,868.49 6.51,3.67 -1.78,18.15 -1.85,2.37 c -0.69,-5.86 -1.93,-16.29 -2.88,-24.18 z"
     id="path178" />
  <polygon
     class="cls-1"
     points="293.68,892.16 292.8,896.85 295.93,899.92 301.4,897.59 296.64,891.51 "
     id="polygon180"
     transform="matrix(-1,0,0,1,385.18347,0)" />
  <path
     class="cls-1"
     d="m 82.363471,866.48 c -0.33,-2.76 -0.61,-5.08 -0.79,-6.58 l 14.74,10.34 -0.84,3.63 z"
     id="path182" />
  <polygon
     class="cls-1"
     points="296.06,889.99 294.4,873.11 290.1,875.53 293.59,890.54 "
     id="polygon184"
     transform="matrix(-1,0,0,1,385.18347,0)" />
  <polygon
     class="cls-1"
     points="292.51,158.51 291.4,160.16 303.18,164.71 308.72,161.63 297.89,159.07 297.92,158.98 "
     id="polygon186"
     transform="matrix(-1,0,0,1,385.18347,0)" />
  <path
     class="cls-1"
     d="m 103.49347,959.79 3.55,3.12 c -3.39,2.8 -7,5.71 -7.879999,6.31 -1.23,-0.03 -6.83,-0.21 -10.81,-0.33 l 12.029999,-7.39 3.12,-1.71 z"
     id="path188" />
  <path
     class="cls-1"
     d="m 73.423471,93.12 h 13.35 c -4.51,28.91 3.64,58.27 5.31,63.83 l -4.48,0.39 c -10.62,-20.08 -13.71,-57.79 -14.17,-64.22 z"
     id="path190" />
  <path
     class="cls-1"
     d="m 93.553471,58.74 c 1.89,2.95 3.51,6.05 4.87,9.26 l -3.85,4.45 c -1.63,-3.05 -3.37,-5.38 -5.22,-6.91 l -0.17,0.18 0.25,-12.4 c 1.53,1.68 2.92,3.49 4.13,5.42 z"
     id="path192" />
  <polygon
     class="cls-1"
     points="322.39,163.48 337.47,165.59 341.77,160.31 327.36,159.74 322.39,160.19 "
     id="polygon194"
     transform="matrix(-1,0,0,1,385.18347,0)" />
  <path
     class="cls-1"
     d="m 49.083471,82.7 -0.91,-2.09 c 11.36,-4.34 15.85,-13.86 17.57,-19.61 l 1.73,9.35 c -6.06,10.88 -15.89,12.19 -18.39,12.34 z"
     id="path196" />
  <path
     class="cls-1"
     d="m 48.213471,400.11 -0.91,-2.09 c 11.36,-4.34 15.85,-13.86 17.57,-19.6 l 1.73,9.35 c -6.06,10.88 -15.89,12.19 -18.39,12.34 z"
     id="path198" />
  <path
     class="cls-1"
     d="m 74.603471,118.13 c -4.04,6.02 -10.52,35.35 -11.64,40.47 l -4.16,-0.38 c 0.75,-5.67 5.49,-39.87 13.02,-63.03 0.35,4.32 1.18,12.97 2.78,22.93 z"
     id="path200" />
  <polygon
     class="cls-1"
     points="337.52,83.87 338.31,86.15 344.58,87.47 346.59,80.45 341.67,79.16 338.77,80.89 337.47,83.88 "
     id="polygon202"
     transform="matrix(-1,0,0,1,385.18347,0)" />
  <polygon
     class="cls-1"
     points="330.33,798.82 345.4,800.93 349.7,795.65 335.31,795.08 330.33,795.53 "
     id="polygon204"
     transform="matrix(-1,0,0,1,385.18347,0)" />
  <path
     class="cls-1"
     d="m 66.663471,753.47 c -4.04,6.01 -10.53,35.36 -11.64,40.48 l -4.16,-0.38 c 0.75,-5.67 5.49,-39.87 13.02,-63.02 0.35,4.32 1.18,12.97 2.78,22.93 z"
     id="path206" />
  <path
     class="cls-1"
     d="m 81.873471,898.54 2.46,1.05 c -0.04,9.03 2.99,21.76 9.01,37.85 3.86,10.31 7.789999,18.8 8.899999,21.16 l -1.98,1.08 C 78.063471,940.14 73.533471,904.56 73.003471,899.6 c 2.48,-0.3 6.17,-0.75 8.87,-1.06 z"
     id="path208" />
  <path
     class="cls-1"
     d="m 61.303471,705.63 -2.52,-13.62 c 0.03,-0.2 0.04,-0.33 0.04,-0.34 h -0.11 c 0,0 -0.42,-2.29 -0.42,-2.29 7.77,-2.1 18.4,-2.08 21.46,-2.02 l -0.79,39.49 h -13.75 l -0.03,-0.16 c 0,0 0,0 0,-0.01 v 0 c 0,0 -3.84,-20.74 -3.84,-20.74 0.04,-0.08 0.09,-0.15 0.13,-0.23 l -0.19,-0.08 z"
     id="path210" />
  <polygon
     class="cls-1"
     points="300.45,793.85 299.33,795.5 311.11,800.05 316.66,796.97 305.83,794.41 305.85,794.32 "
     id="polygon212"
     transform="matrix(-1,0,0,1,385.18347,0)" />
  <path
     class="cls-1"
     d="m 65.483471,728.46 h 13.35 c -4.51,28.91 3.64,58.28 5.3,63.83 l -4.48,0.39 c -10.62,-20.08 -13.71,-57.79 -14.17,-64.22 z"
     id="path214" />
  <path
     class="cls-1"
     d="m 40.233471,715.95 c 11.36,-4.35 15.85,-13.87 17.57,-19.61 l 1.73,9.36 c -6.06,10.88 -15.89,12.19 -18.39,12.35 l -0.91,-2.09 z"
     id="path216" />
  <polygon
     class="cls-1"
     points="346.74,716.16 345.44,719.15 345.45,719.14 346.29,721.49 352.52,722.81 354.53,715.79 349.61,714.5 "
     id="polygon218"
     transform="matrix(-1,0,0,1,385.18347,0)" />
  <path
     class="cls-1"
     d="m 107.18347,98.58 c -0.52,1.47 -1.12,3.08 -1.43,3.77 h -7.519999 l -1.08,-4.73 3.809999,-2.55 3.17,-0.69 z"
     id="path220" />
  <path
     class="cls-1"
     d="m 34.173471,870.83 2.11,-2.57 5.15,2.95 v 2.28 l -0.87,2.96 -3.88,1.5 c -0.98,-0.74 -3.46,-2.6 -4.73,-3.49 0.55,-0.89 1.54,-2.51 2.22,-3.62 z"
     id="path222" />
  <polygon
     class="cls-1"
     points="323.19,867.65 321.31,875.75 328.05,883.2 342.83,876.52 342.26,874.59 328.81,878.28 "
     id="polygon224"
     transform="matrix(-1,0,0,1,385.18347,0)" />
  <path
     class="cls-1"
     d="m 71.263471,899.82 c 0.17,1.55 0.68,5.68 1.88,11.25 -2.5,4.87 -15.35,42.59 -17.41,48.67 l -2.57,-0.74 c 2.72,-26.57 15.76,-55.16 17.62,-59.12 0.14,-0.02 0.3,-0.04 0.49,-0.06 z"
     id="path226" />
  <path
     class="cls-1"
     d="m 52.173471,960.39 3.27,0.94 v 4.06 c -2.28,-0.26 -8.08,-0.91 -12.67,-1.33 l -5.7,-0.32 0.42,-4.26 c 6.02,0.42 14.67,1.01 14.67,1.01 v -0.09 z"
     id="path228" />
  <path
     class="cls-1"
     d="m 99.243471,733.92 c -0.52,1.48 -1.12,3.08 -1.43,3.77 h -7.52 l -1.08,-4.72 3.8,-2.54 3.19,-0.69 3.04,4.19 z"
     id="path230" />
  <path
     class="cls-1"
     d="m 60.903471,680.26 c -2.09,-2.12 -3.43,-4.87 -3.81,-7.82 -0.91,-6.27 2.25,-11.84 7.04,-12.42 v 0 c 4.79,-0.58 9.41,4.05 10.32,10.32 0.48,2.9 -0.03,5.88 -1.46,8.45 -1.12,2.13 -3.19,3.6 -5.58,3.96 -2.44,0.21 -4.84,-0.71 -6.51,-2.5 z"
     id="path232" />
  <path
     class="cls-1"
     d="m 85.553471,694.08 c 1.89,2.95 3.51,6.05 4.87,9.26 l -3.83,4.48 c -1.63,-3.07 -3.38,-5.41 -5.24,-6.94 l -0.11,0.12 0.24,-12.28 c 1.51,1.66 2.87,3.46 4.07,5.36 z"
     id="path234" />
  <path
     class="cls-1"
     d="m 66.313471,686.13 -0.46,-1.78 c 0.25,0.02 0.49,0.05 0.74,0.05 v 0 c 0.35,0 0.7,-0.02 1.04,-0.06 0.58,-0.08 1.14,-0.23 1.68,-0.41 v 1.84 l -3.01,0.35 z"
     id="path236" />
  <path
     class="cls-1"
     d="m 87.693471,52.03 -0.79,39.49 h -13.75 l -0.03,-0.16 c 0,0 0,0 0,-0.01 v 0 c 0,0 -3.84,-20.74 -3.84,-20.74 0.04,-0.08 0.09,-0.15 0.13,-0.23 l -0.19,-0.08 -2.52,-13.61 c 0.03,-0.21 0.04,-0.34 0.04,-0.35 h -0.11 c 0,0 -0.42,-2.29 -0.42,-2.29 7.77,-2.1 18.4,-2.08 21.46,-2.02 z"
     id="path238" />
  <path
     class="cls-1"
     d="m 180.52347,388.38 6.46,3.66 -1.73,18.2 -1.85,2.35 c -0.69,-5.87 -1.94,-16.31 -2.88,-24.21 z"
     id="path240" />
  <path
     class="cls-1"
     d="m 165.69347,377.97 -0.58,-2.1 c 0.08,0 0.15,0.01 0.23,0.01 v 0 c 0.61,0 1.22,-0.06 1.81,-0.19 0.45,-0.1 0.88,-0.24 1.3,-0.41 l 0.46,2.13 z"
     id="path242" />
  <path
     class="cls-1"
     d="m 180.06347,416.82 c -3.53,0.4 -9.16,1.09 -11.24,1.35 l -8.46,-36.39 c 4.92,-2.68 14.49,-2.93 17.26,-2.94 0.52,4.37 3.32,27.68 4.25,35.69 z"
     id="path244" />
  <path
     class="cls-1"
     d="m 166.74347,374.13 c -4.88,1.07 -10.27,-3.49 -12.01,-10.16 -1.74,-6.66 0.82,-12.95 5.7,-14.02 0.47,-0.1 0.96,-0.16 1.44,-0.16 v 0 c 4.46,0 9,4.3 10.57,10.31 1.74,6.66 -0.82,12.95 -5.7,14.02 z"
     id="path246" />
  <path
     class="cls-1"
     d="m 166.58347,530.34 -0.47,-1.79 c 0.27,0.03 0.54,0.05 0.81,0.06 v 0 c 0.35,0 0.7,-0.02 1.04,-0.06 0.56,-0.08 1.1,-0.22 1.63,-0.39 v 1.83 z"
     id="path248" />
  <polygon
     class="cls-1"
     points="195.75,412.08 194.87,416.72 198.05,419.84 203.47,417.47 198.71,411.43 "
     id="polygon250"
     transform="matrix(-1,0,0,1,385.18347,0)" />
  <polygon
     class="cls-1"
     points="198.14,409.9 196.52,392.99 192.17,395.45 195.66,410.45 "
     id="polygon252"
     transform="matrix(-1,0,0,1,385.18347,0)" />
  <path
     class="cls-1"
     d="m 180.28347,386.36 c -0.33,-2.75 -0.6,-5.05 -0.78,-6.54 l 14.74,10.34 -0.84,3.63 -13.11,-7.43 z"
     id="path254" />
  <path
     class="cls-1"
     d="m 161.22347,524.46 c -2.09,-2.12 -3.43,-4.87 -3.81,-7.82 -0.91,-6.27 2.25,-11.84 7.04,-12.42 v 0 c 4.78,-0.58 9.42,4.05 10.32,10.32 0.48,2.9 -0.04,5.88 -1.46,8.46 -1.12,2.13 -3.19,3.6 -5.58,3.96 -2.44,0.21 -4.84,-0.71 -6.51,-2.5 z"
     id="path256" />
  <path
     class="cls-1"
     d="m 199.50347,578.18 c -0.52,1.48 -1.12,3.08 -1.43,3.77 h -7.52 l -1.08,-4.73 3.81,-2.55 3.17,-0.69 3.04,4.2 z"
     id="path258" />
  <path
     class="cls-1"
     d="m 198.62347,481.16 2.78,-1.52 3.57,3.14 c -3.39,2.8 -7,5.71 -7.88,6.31 -1.24,-0.04 -6.83,-0.21 -10.81,-0.34 l 12.35,-7.58 v 0 z"
     id="path260" />
  <polygon
     class="cls-1"
     points="245.2,563.4 246.03,565.75 252.31,567.07 254.28,560.05 249.34,558.76 246.48,560.42 245.18,563.41 "
     id="polygon262"
     transform="matrix(-1,0,0,1,385.18347,0)" />
  <path
     class="cls-1"
     d="m 165.74347,572.72 h 13.35 c -4.51,28.91 3.64,58.28 5.31,63.83 l -4.48,0.39 c -10.62,-20.08 -13.71,-57.79 -14.17,-64.22 z"
     id="path264" />
  <path
     class="cls-1"
     d="m 165.49347,571.12 -0.03,-0.17 c 0,0 0,0 0,-0.01 v 0 c 0,0 -3.84,-20.74 -3.84,-20.74 0.04,-0.08 0.09,-0.15 0.13,-0.23 l -0.19,-0.08 -2.52,-13.62 c 0.03,-0.2 0.04,-0.33 0.04,-0.34 h -0.11 c 0,0 -0.42,-2.29 -0.42,-2.29 7.77,-2.1 18.4,-2.08 21.46,-2.02 l -0.79,39.49 h -13.75 z"
     id="path266" />
  <path
     class="cls-1"
     d="m 185.82347,538.28 c 1.89,2.95 3.51,6.05 4.87,9.27 l -3.83,4.47 c -1.63,-3.07 -3.38,-5.41 -5.24,-6.94 l -0.11,0.12 0.24,-12.27 c 1.51,1.66 2.87,3.45 4.07,5.36 z"
     id="path268" />
  <polygon
     class="cls-1"
     points="230.06,643.08 245.14,645.19 249.5,639.86 235.45,639.3 230.06,639.79 "
     id="polygon270"
     transform="matrix(-1,0,0,1,385.18347,0)" />
  <polygon
     class="cls-1"
     points="200.18,638.11 199.12,639.71 210.84,644.25 216.38,641.19 205.56,638.67 205.59,638.58 "
     id="polygon272"
     transform="matrix(-1,0,0,1,385.18347,0)" />
  <path
     class="cls-1"
     d="m 151.13347,637.82 c 0.75,-5.67 5.49,-39.87 13.02,-63.03 0.35,4.32 1.18,12.97 2.78,22.93 -4.04,6.01 -10.53,35.36 -11.64,40.48 z"
     id="path274" />
  <path
     class="cls-1"
     d="m 169.14347,419.75 c 0.18,1.61 0.7,5.73 1.89,11.27 -2.59,5.18 -15.32,42.53 -17.37,48.59 l -2.57,-0.74 c 2.71,-26.45 15.65,-54.91 17.59,-59.06 0.13,-0.02 0.28,-0.04 0.46,-0.06 z"
     id="path276" />
  <path
     class="cls-1"
     d="m 106.30347,415.99 c -0.52,1.47 -1.12,3.08 -1.43,3.77 h -7.519999 l -1.08,-4.73 3.819999,-2.56 3.16,-0.69 3.05,4.2 z"
     id="path278" />
  <path
     class="cls-1"
     d="m 141.41347,562.3 -0.91,-2.09 c 11.36,-4.34 15.85,-13.87 17.57,-19.61 l 1.73,9.36 c -6.06,10.88 -15.89,12.19 -18.39,12.35 z"
     id="path280" />
  <path
     class="cls-1"
     d="m 132.10347,390.7 2.11,-2.57 5.15,2.95 v 2.26 l -0.9,3.04 -3.86,1.49 c -0.99,-0.74 -3.48,-2.62 -4.74,-3.51 0.55,-0.89 1.56,-2.54 2.25,-3.66 z"
     id="path282" />
  <path
     class="cls-1"
     d="m 72.283471,408.92 -0.03,-0.16 c 0,0 0,0 0,-0.01 v 0 c 0,0 -3.83,-20.73 -3.83,-20.73 0.04,-0.08 0.09,-0.15 0.13,-0.24 l -0.19,-0.08 -2.52,-13.6 c 0.03,-0.21 0.04,-0.34 0.04,-0.36 h -0.11 c 0,0 -0.42,-2.29 -0.42,-2.29 7.77,-2.1 18.4,-2.08 21.46,-2.02 l -0.79,39.49 h -13.75 z"
     id="path284" />
  <path
     class="cls-1"
     d="m 93.693471,389.85 c -1.63,-3.05 -3.37,-5.38 -5.22,-6.91 l -0.17,0.18 0.25,-12.4 c 1.53,1.68 2.92,3.49 4.13,5.42 1.89,2.95 3.51,6.05 4.87,9.26 l -3.85,4.45 z"
     id="path286" />
  <polygon
     class="cls-1"
     points="225.27,387.53 223.39,395.62 230.12,403.12 244.9,396.39 244.33,394.46 230.88,398.15 "
     id="polygon288"
     transform="matrix(-1,0,0,1,385.18347,0)" />
  <path
     class="cls-1"
     d="m 179.91347,418.45 2.29,1 c -0.04,9.03 2.99,21.76 9.01,37.85 3.86,10.31 7.79,18.8 8.9,21.16 l -1.98,1.09 c -22.11,-19.46 -26.7,-54.84 -27.26,-60.02 2.51,-0.31 6.3,-0.77 9.03,-1.08 z"
     id="path290" />
  <path
     class="cls-1"
     d="m 150.10347,480.26 3.27,0.94 v 4.05 c -2.28,-0.26 -8.08,-0.91 -12.67,-1.33 l -5.7,-0.32 0.42,-4.26 c 6.02,0.42 14.67,1.01 14.67,1.01 v -0.09 z"
     id="path292" />
  <rect
     class="cls-2"
     x="-495.39163"
     y="288.48825"
     width="52.389999"
     height="2.1300001"
     transform="matrix(-0.93162781,-0.36341384,-0.36341384,0.93162781,0,0)"
     id="rect294" />
  <path
     class="cls-2"
     d="m 304.69347,405.23 c 0.42,3.26 0.88,6.91 0.98,8.68 l 3.84,5.3 -0.13,0.36 c -1.83,5.25 -1.98,5.25 -2.7,5.25 v 0 c 0,0 -9.47,0 -9.47,0 l -1.6,-7.01 4.52,-3.02 c -0.55,-2.02 -2.48,-9.18 -3.53,-13.09 l 1.7,-0.38 c 1.01,3.78 2.85,10.6 3.47,12.88 l 2.13,-0.46 c -0.13,-1.81 -0.58,-5.38 -0.96,-8.32 -0.3,-2.36 -0.56,-4.39 -0.64,-5.35 -0.69,-3.22 -1.65,-6.38 -2.83,-9.44 l -3.73,4.31 c 0.89,1.85 1.74,3.9 2.55,6.21 l -1.67,0.48 c -2.15,-6.12 -4.54,-10.53 -7.14,-13.16 l -0.51,25.5 h -0.1 c -5.02,31.65 5.4,63.98 5.5,64.31 l 0.03,0.1 2.28,3.38 -14.48,5.59 -9.79,-5.46 13.8,-3.27 c -5.22,-10.02 -8.63,-24.19 -10.8,-36.79 -4.22,9.42 -10.42,38.33 -10.49,38.65 l -0.04,0.19 v 5.04 l -17.54,2.47 -6.97,-8.48 17.08,-0.68 c 0.73,-5.52 5.95,-43.44 14.25,-66.82 l -3.4,-18.37 c -2.82,4.29 -6.86,7.66 -11.65,9.63 -2.24,0.94 -4.63,1.49 -7.05,1.66 l 0.13,0.04 -1.15,3.2 -8.9,1.88 -2.82,-10.04 7.27,-1.92 3.22,1.91 c 14.43,-5.18 17.46,-19.2 17.98,-22.45 l -0.73,-3.94 0.72,-0.21 c 2.36,-0.7 4.98,-1.19 7.6,-1.54 l -0.6,-2.44 0.22,-0.04 c -4.36,-1.24 -8.03,-5.71 -8.85,-11.4 -1.03,-7.14 2.8,-13.52 8.54,-14.21 5.74,-0.69 11.25,4.55 12.29,11.7 0.81,5.62 -1.39,10.75 -5.16,13.03 v 2.78 c 5.19,-0.3 9.3,-0.16 9.61,-0.15 l 0.85,0.03 v 0.44 c 0.9,0.85 10.24,9.91 14.21,28.01 l -0.86,0.16 0.87,-0.06 c 0.07,0.9 0.34,3.05 0.63,5.33 z m -21.89,-49.36 c -0.91,-6.27 -5.54,-10.9 -10.32,-10.32 v 0 c -4.79,0.58 -7.94,6.15 -7.04,12.41 0.91,6.27 5.53,10.9 10.32,10.32 4.79,-0.58 7.94,-6.15 7.04,-12.42 z m -6.81,14 c -0.34,0.04 -0.68,0.06 -1.02,0.06 v 0 c -0.26,0 -0.52,-0.02 -0.78,-0.05 l 0.43,1.77 3,-0.35 v -1.81 c -0.53,0.17 -1.07,0.31 -1.64,0.38 z m 11.13,44.11 h -13.35 c 0.46,6.43 3.55,44.14 14.17,64.22 l 4.48,-0.39 c -1.67,-5.56 -9.82,-34.92 -5.3,-63.83 z m -4.76,71.59 11.78,-4.54 -1.11,-1.65 -5.35,0.47 0.03,0.09 -10.84,2.57 5.5,3.07 z m -34.24,0.89 15.02,-2.12 v -3.29 l -4.94,-0.45 -14.43,0.57 4.35,5.28 z m 15.25,-6.99 c 1.11,-5.1 7.55,-34.24 11.59,-40.41 -1.59,-9.88 -2.42,-18.48 -2.78,-22.86 -7.5,23.15 -12.22,57.23 -12.97,62.88 l 4.16,0.38 z m -19.51,-79.44 -4.87,1.28 1.97,7.03 6.27,-1.32 0.84,-2.34 h 0.01 c 0,0 -1.25,-2.87 -1.25,-2.87 l -2.98,-1.77 z m 4.73,1.45 0.91,2.09 c 2.5,-0.15 12.28,-1.46 18.34,-12.26 l -1.72,-9.31 c -1.75,5.75 -6.25,15.17 -17.53,19.48 z m 18,-26.56 0.42,2.27 h 0.17 c 0,0 -0.02,0.22 -0.07,0.54 l 2.48,13.4 0.25,0.11 c -0.05,0.11 -0.12,0.21 -0.17,0.31 l 3.82,20.64 0.07,0.02 c 0,0 -0.03,0.08 -0.04,0.12 v 0.05 h 13.76 l 0.79,-39.49 c -3.06,-0.06 -13.69,-0.08 -21.46,2.02 z m 23.19,-0.73 -0.25,12.4 0.18,-0.18 c 1.85,1.53 3.59,3.86 5.22,6.91 l 3.85,-4.45 c -1.36,-3.21 -2.98,-6.31 -4.87,-9.26 -1.21,-1.93 -2.6,-3.74 -4.13,-5.42 z m 11.63,41.74 -3.84,2.57 1.08,4.73 h 7.52 c 0.31,-0.7 0.91,-2.3 1.43,-3.77 l -3.06,-4.21 z"
     id="path296" />
  <polygon
     class="cls-2"
     points="81.96,576.54 82.75,574.54 29.35,556.89 28.55,558.9 "
     id="polygon298"
     transform="matrix(-1,0,0,1,385.18347,0)" />
  <path
     class="cls-2"
     d="m 258.71347,645.68 c -0.08,0 -7.82,-0.91 -13.58,-1.44 l -7.46,-0.42 0.74,-7.47 0.86,0.06 c 4.97,0.35 12.31,0.85 14.72,1.01 2.81,-27.41 16.47,-56.88 17.85,-59.81 l -4.94,-21.27 -6.74,7.51 -16.25,-7.4 -5.02,1.94 -0.41,-0.31 c 0,0 -4.65,-3.51 -5.61,-4.12 l 0.53,-0.69 -0.05,-0.03 -0.72,-0.42 c 0.13,-0.19 1.66,-2.69 2.6,-4.22 l 0.06,-0.09 3.11,-3.79 7.34,4.2 v 2.67 l 12.26,3.36 5.95,-11.27 -0.92,-3.96 0.49,-0.3 c 1.41,-0.88 3.21,-1.53 5.13,-2.03 l -0.82,-3.1 c -1.73,-0.39 -3.34,-1.2 -4.69,-2.38 -2.71,-2.32 -4.63,-5.43 -5.48,-8.89 -1.96,-7.52 1.17,-14.68 7,-15.95 5.83,-1.27 12.16,3.82 14.12,11.34 1.61,6.15 -0.2,12.05 -4.1,14.7 l 0.69,3.15 c 4.05,-0.41 7.41,-0.35 7.69,-0.35 l 0.77,0.02 0.04,0.35 16.95,11.89 -5.16,21.95 1.16,5.84 -4.65,4.56 -3.57,-1.55 c 0.32,20.61 16.66,55.28 17.97,58.04 l 0.19,-0.18 5.35,4.7 -0.7,0.57 c -8.83,7.3 -9.1,7.3 -9.52,7.3 v 0 c -0.35,0 -12.43,-0.38 -13.8,-0.42 l -2.7,-0.09 15.86,-9.74 c -14.67,-13.11 -21.69,-33.01 -24.93,-46.58 -4.17,10.33 -16.47,46.59 -16.61,46.99 l -0.02,0.05 v 6.17 l -0.99,-0.11 z m 18.37,-126.89 c -1.74,-6.66 -7.13,-11.22 -12.01,-10.16 v 0 c -4.88,1.07 -7.44,7.35 -5.7,14.02 0.77,3.14 2.5,5.96 4.95,8.07 1.9,1.75 4.51,2.52 7.06,2.09 4.88,-1.07 7.44,-7.35 5.7,-14.02 z m -5.29,15.57 c -0.61,0.13 -1.23,0.2 -1.85,0.2 v 0 c -0.08,0 -0.15,-0.01 -0.23,-0.02 l 0.56,2.14 3.28,-0.6 -0.46,-2.13 c -0.42,0.17 -0.85,0.31 -1.3,0.41 z m -32.2,107.96 5.7,0.32 c 4.59,0.42 10.39,1.07 12.67,1.33 v -4.07 l -3.27,-0.94 v 0.1 c 0,0 -8.66,-0.58 -14.67,-1.01 l -0.42,4.26 z m -0.74,-95.47 -2.11,2.57 c -0.69,1.12 -1.69,2.76 -2.24,3.65 1.28,0.91 3.71,2.73 4.68,3.46 l 3.95,-1.52 0.87,-2.95 v -2.27 l -5.15,-2.95 z m 20.09,10.03 -13.45,-3.69 -0.57,1.93 14.78,6.73 6.74,-7.51 v 0 c 0,0 -1.89,-8.11 -1.89,-8.11 l -5.62,10.64 z m 23.32,-19.36 c -2.77,0.01 -12.33,0.26 -17.26,2.94 l 8.46,36.39 c 2.08,-0.25 7.7,-0.94 11.23,-1.34 l 1.82,-2.3 c -0.94,-8.03 -3.73,-31.31 -4.25,-35.68 z m 7.64,31.39 1.73,-18.18 -6.46,-3.64 c 0.94,7.89 2.19,18.3 2.87,24.16 l 1.85,-2.34 z m 1.79,-0.33 2.42,0.55 3.53,-15.01 -4.34,-2.45 z m -7.55,-30.09 c 0.18,1.5 0.46,3.82 0.79,6.59 l 13.1,7.38 0.85,-3.64 -14.74,-10.34 z m 10.8,36.97 -0.93,-4.7 -2.9,-0.65 -4.82,6.09 5.47,2.38 3.17,-3.12 z m 6.72,72.35 c 0.88,-0.6 4.49,-3.51 7.88,-6.31 l -3.55,-3.12 -3.1,1.7 -12.04,7.4 c 3.98,0.13 9.57,0.3 10.81,0.33 z m 1.11,-9.53 1.98,-1.08 c -1.11,-2.35 -5.04,-10.84 -8.9,-21.16 -6.02,-16.08 -9.05,-28.8 -9.01,-37.83 l -2.45,-1.06 c -2.72,0.31 -6.42,0.76 -8.88,1.06 0.53,4.99 5.08,40.54 27.26,60.07 z m -27.1,-48.54 c -1.21,-5.6 -1.73,-9.76 -1.9,-11.32 -0.16,0.02 -0.31,0.04 -0.43,0.05 -1.85,3.96 -14.9,32.55 -17.62,59.12 l 2.57,0.74 c 2.06,-6.05 14.79,-43.42 17.37,-48.59 z"
     id="path300" />
  <polygon
     class="cls-2"
     points="179.64,283 177.6,281.97 127.15,364.62 129.18,365.65 "
     id="polygon302"
     transform="matrix(-1,0,0,1,385.18347,0)" />
  <path
     class="cls-2"
     d="m 205.70347,246.55 c 0.42,3.31 0.9,7.03 0.99,8.77 l 3.78,5.21 -0.13,0.36 c -1.83,5.25 -1.98,5.25 -2.7,5.25 v 0 c 0,0 -9.47,0 -9.47,0 l -1.6,-7.01 4.57,-3.05 c -0.56,-2.07 -2.48,-9.17 -3.52,-13.06 l 1.7,-0.38 c 1.01,3.78 2.85,10.6 3.47,12.88 l 2.13,-0.46 c -0.13,-1.81 -0.58,-5.38 -0.96,-8.32 -0.3,-2.36 -0.56,-4.4 -0.64,-5.36 h -0.05 c -0.77,-3.49 -1.75,-6.65 -2.84,-9.47 l -3.72,4.35 c 0.88,1.84 1.73,3.88 2.53,6.17 l -1.67,0.49 c -2.13,-6.08 -4.51,-10.47 -7.08,-13.1 l -0.51,25.5 h -0.1 c -5.02,31.65 5.4,63.98 5.5,64.31 l 0.03,0.1 2.22,3.33 -14.42,5.59 -9.87,-5.47 13.87,-3.23 c -5.24,-10.05 -8.65,-24.28 -10.81,-36.91 -4.16,9.2 -10.28,37.58 -10.52,38.68 v 0 5.33 l -17.6,2.47 -6.96,-8.53 17.07,-0.68 c 0.73,-5.51 5.96,-43.54 14.28,-66.91 l -3.38,-18.29 c -2.82,4.32 -6.88,7.72 -11.69,9.7 -2.24,0.94 -4.63,1.49 -7.05,1.66 l 0.13,0.04 -1.15,3.2 -8.9,1.88 -2.82,-10.05 7.32,-1.91 3.24,1.88 c 14.62,-5.3 17.49,-19.71 17.92,-22.59 l -0.7,-3.77 0.72,-0.21 c 2.36,-0.7 4.99,-1.19 7.6,-1.54 l -0.65,-2.48 0.28,-0.06 c -4.36,-1.24 -8.03,-5.71 -8.85,-11.41 -1.03,-7.14 2.8,-13.52 8.54,-14.21 2.99,-0.29 5.95,0.82 8.02,2.99 2.34,2.36 3.83,5.41 4.27,8.7 0.53,3.24 -0.06,6.55 -1.65,9.42 -0.82,1.53 -2.05,2.76 -3.51,3.61 v 2.83 c 5.19,-0.3 9.3,-0.16 9.61,-0.15 l 0.85,0.03 v 0.44 c 1.24,1.19 10.26,10.25 14.15,27.95 l -1.33,0.24 1.4,-0.09 c 0.07,0.9 0.34,3.05 0.63,5.33 z m -23.35,-40.96 c 1.42,-2.57 1.94,-5.55 1.46,-8.45 -0.38,-2.95 -1.72,-5.7 -3.81,-7.82 -1.49,-1.57 -3.54,-2.48 -5.71,-2.55 v 0 c -0.27,0 -0.54,0.01 -0.81,0.04 -4.79,0.58 -7.94,6.15 -7.04,12.42 0.9,6.27 5.54,10.9 10.32,10.32 2.38,-0.36 4.46,-1.83 5.58,-3.96 z m -5.35,5.55 c -0.34,0.04 -0.68,0.06 -1.02,0.06 v 0 c -0.28,0 -0.55,-0.02 -0.83,-0.04 l 0.47,1.78 3.01,-0.35 v -1.84 c -0.53,0.17 -1.07,0.32 -1.63,0.39 z m 11.13,44.18 h -13.35 c 0.46,6.44 3.55,44.14 14.17,64.22 l 4.48,-0.39 c -1.67,-5.56 -9.82,-34.92 -5.31,-63.83 z m -4.76,71.53 11.73,-4.55 -1.07,-1.6 -5.41,0.47 0.02,0.09 -10.82,2.52 5.54,3.07 z m -34.29,0.94 15.08,-2.12 v -3.33 l -4.97,-0.45 -14.46,0.57 4.36,5.34 z m 15.25,-7.04 c 1.11,-5.12 7.59,-34.44 11.63,-40.47 -1.6,-9.97 -2.43,-18.63 -2.77,-22.93 -7.52,23.16 -12.26,57.35 -13.02,63.02 z m -19.45,-79.39 -4.93,1.29 1.97,7.02 6.27,-1.32 0.84,-2.34 h 0.01 c 0,0 -1.3,-2.98 -1.3,-2.98 l -2.87,-1.66 z m 4.66,1.45 0.91,2.09 c 2.5,-0.15 12.33,-1.47 18.39,-12.34 l -1.73,-9.35 c -1.72,5.74 -6.21,15.26 -17.57,19.61 z m 18.06,-26.56 0.42,2.28 h 0.11 c 0,0 -0.02,0.15 -0.04,0.36 l 2.52,13.61 0.19,0.08 c -0.04,0.08 -0.09,0.15 -0.13,0.23 l 3.82,20.68 h 0.02 c 0,0 0,0.02 -0.01,0.03 l 0.04,0.2 h 13.75 l 0.79,-39.49 c -3.06,-0.06 -13.69,-0.08 -21.46,2.02 z m 23.19,-0.73 -0.24,12.28 0.11,-0.12 c 1.86,1.53 3.61,3.87 5.24,6.94 l 3.83,-4.47 c -3.18,-7.56 -6.97,-12.42 -8.94,-14.63 z m 11.55,41.75 -3.82,2.56 1.08,4.73 h 7.52 c 0.31,-0.7 0.91,-2.3 1.43,-3.77 l -3.05,-4.2 -3.17,0.69 z"
     id="path304" />
  <path
     class="cls-2"
     d="m 250.42347,441.34 c -2.73,0 -29.68,9.79 -46.07,15.98 v 0 c 0,0 -0.89,-1.97 -0.89,-1.97 10.34,-3.91 44.33,-16.62 47.34,-16.12 l -0.41,2.1 c 0,0 0.04,0 0.06,0 h -0.02 z"
     id="path306" />
  <path
     class="cls-2"
     d="m 128.01347,394.09 c 0.13,-0.19 1.66,-2.69 2.6,-4.23 l 0.06,-0.09 3.11,-3.79 7.34,4.2 v 2.67 l 12.25,3.36 5.94,-11.25 -0.91,-3.93 0.49,-0.3 c 1.42,-0.88 3.24,-1.55 5.2,-2.04 l -0.85,-3.07 c -4.51,-1.06 -8.68,-5.43 -10.21,-11.28 -1.96,-7.52 1.18,-14.68 7,-15.95 5.83,-1.27 12.16,3.82 14.12,11.34 1.61,6.15 -0.2,12.05 -4.1,14.69 l 0.69,3.15 c 4.05,-0.41 7.41,-0.35 7.69,-0.34 l 0.77,0.02 0.04,0.36 16.95,11.89 -5.1,21.94 1.1,5.79 -4.65,4.56 -3.57,-1.56 c 0.32,20.69 16.78,55.57 17.99,58.1 l 0.23,-0.22 5.34,4.7 -0.7,0.58 c -8.83,7.3 -9.1,7.3 -9.52,7.3 v 0 c -0.41,0 -12.43,-0.38 -13.8,-0.42 l -2.7,-0.09 15.83,-9.72 c -14.69,-13.11 -21.71,-33.02 -24.96,-46.6 -4.05,10.04 -15.79,44.57 -16.56,46.86 v 6.35 l -0.99,-0.11 c -0.08,0 -7.82,-0.91 -13.57,-1.44 l -7.46,-0.42 0.74,-7.47 0.86,0.06 c 4.92,0.35 12.19,0.84 14.66,1.01 2.81,-27.36 16.41,-56.76 17.84,-59.78 l -4.95,-21.27 -6.73,7.49 -16.16,-7.36 -5.06,1.95 -0.41,-0.31 c 0,0 -4.65,-3.51 -5.61,-4.12 l 0.54,-0.7 -0.1,-0.06 -0.73,-0.42 z m 44.43,-33.98 c -1.57,-6.01 -6.11,-10.31 -10.57,-10.31 v 0 c -0.48,0 -0.97,0.05 -1.44,0.15 -4.88,1.07 -7.44,7.35 -5.7,14.02 1.74,6.66 7.13,11.22 12.01,10.16 4.88,-1.07 7.44,-7.35 5.7,-14.02 z m -5.29,15.57 c -0.6,0.13 -1.2,0.19 -1.81,0.19 v 0 c -0.08,0 -0.15,-0.01 -0.23,-0.01 l 0.58,2.1 3.22,-0.56 -0.46,-2.13 c -0.42,0.17 -0.85,0.31 -1.3,0.41 z m 10.48,3.15 c -2.77,0.01 -12.33,0.26 -17.26,2.94 l 8.46,36.39 c 2.08,-0.25 7.71,-0.94 11.24,-1.35 l 1.81,-2.29 c -0.93,-8.02 -3.73,-31.32 -4.25,-35.69 z m 7.64,31.4 1.73,-18.2 -6.46,-3.66 c 0.95,7.9 2.19,18.34 2.88,24.21 z m 1.79,-0.34 2.48,0.55 3.49,-15 -4.35,-2.47 -1.61,16.92 z m -7.55,-30.09 c 0.18,1.5 0.46,3.8 0.78,6.54 l 13.11,7.43 0.84,-3.63 -14.74,-10.34 z m 10.81,36.91 -0.88,-4.64 -2.96,-0.66 -4.76,6.04 5.42,2.37 3.17,-3.12 z m 6.78,72.36 c 0.88,-0.6 4.49,-3.51 7.88,-6.31 l -3.57,-3.14 -2.78,1.52 v 0 c 0,0 -12.35,7.59 -12.35,7.59 3.98,0.13 9.57,0.3 10.81,0.34 z m 1.05,-9.53 1.98,-1.09 c -1.11,-2.35 -5.04,-10.84 -8.9,-21.16 -6.02,-16.09 -9.05,-28.82 -9.01,-37.85 l -2.29,-1 c -2.73,0.31 -6.52,0.77 -9.03,1.08 0.56,5.18 5.15,40.56 27.26,60.02 z m -63.13,4.04 5.7,0.32 c 4.59,0.42 10.39,1.07 12.67,1.33 v -4.05 l -3.27,-0.94 v 0.09 c 0,0 -8.66,-0.58 -14.67,-1.01 l -0.42,4.26 z m 18.66,-3.99 c 2.06,-6.05 14.78,-43.4 17.37,-48.59 -1.2,-5.54 -1.72,-9.66 -1.89,-11.27 -0.18,0.02 -0.33,0.04 -0.46,0.06 -1.94,4.15 -14.88,32.61 -17.59,59.06 z m 1.4,-76.48 6.73,-7.5 -1.88,-8.09 -5.61,10.62 -13.45,-3.69 -0.57,1.93 z m -20.46,-5.26 3.86,-1.49 0.9,-3.04 v -2.26 l -5.15,-2.95 -2.11,2.57 c -0.69,1.13 -1.7,2.78 -2.25,3.66 1.26,0.89 3.76,2.76 4.74,3.51 z"
     id="path308" />
  <polygon
     class="cls-2"
     points="137.77,603.54 138.76,605.47 184.5,585.84 183.51,583.91 "
     id="polygon310"
     transform="matrix(-1,0,0,1,385.18347,0)" />
  <path
     class="cls-2"
     d="m 139.26347,646.92 -6.96,-8.53 17.08,-0.68 c 0.76,-5.7 5.98,-43.58 14.28,-66.88 l -3.39,-18.33 c -2.82,4.32 -6.88,7.72 -11.7,9.7 -2.24,0.94 -4.62,1.49 -7.04,1.66 l 0.12,0.04 -1.15,3.2 -8.9,1.88 -2.82,-10.04 7.32,-1.91 3.24,1.88 c 14.62,-5.31 17.49,-19.71 17.92,-22.59 l -0.7,-3.77 0.72,-0.21 c 2.36,-0.7 4.98,-1.19 7.6,-1.53 l -0.65,-2.48 0.28,-0.06 c -1.73,-0.47 -3.32,-1.39 -4.58,-2.7 -2.34,-2.36 -3.84,-5.41 -4.27,-8.71 -1.03,-7.14 2.8,-13.52 8.54,-14.21 5.74,-0.69 11.26,4.55 12.29,11.7 0.52,3.24 -0.06,6.55 -1.65,9.42 -0.82,1.53 -2.05,2.77 -3.52,3.62 v 2.82 c 5.19,-0.3 9.3,-0.16 9.61,-0.15 l 0.85,0.03 v 0.44 c 1.22,1.17 10.26,10.22 14.15,27.96 l -1.36,0.25 1.43,-0.09 c 0.07,0.9 0.34,3.05 0.63,5.33 0.42,3.31 0.9,7.02 0.99,8.76 l 3.78,5.21 -0.13,0.36 c -1.83,5.25 -1.98,5.25 -2.7,5.25 v 0 c 0,0 -9.47,0 -9.47,0 l -1.6,-7.01 4.57,-3.05 c -0.56,-2.07 -2.48,-9.17 -3.52,-13.06 l 1.7,-0.38 c 1.01,3.78 2.85,10.6 3.47,12.88 l 2.13,-0.46 c -0.13,-1.81 -0.58,-5.38 -0.96,-8.32 -0.3,-2.37 -0.56,-4.41 -0.64,-5.36 h -0.05 c -0.69,-3.23 -1.65,-6.39 -2.84,-9.47 l -3.72,4.34 c 0.88,1.84 1.73,3.88 2.53,6.17 l -1.67,0.49 c -2.13,-6.08 -4.51,-10.47 -7.08,-13.1 l -0.51,25.5 h -0.1 c -5.02,31.66 5.4,63.98 5.5,64.31 l 0.02,0.07 2.23,3.35 -14.42,5.59 -9.87,-5.47 13.87,-3.23 c -5.23,-10.04 -8.64,-24.25 -10.81,-36.87 -4.12,9.09 -10.16,37.01 -10.51,38.65 v 5.32 l -17.6,2.47 z m 34.05,-123.92 c 1.42,-2.57 1.94,-5.55 1.46,-8.46 -0.91,-6.27 -5.54,-10.9 -10.32,-10.32 v 0 c -4.79,0.58 -7.94,6.15 -7.04,12.42 0.38,2.95 1.72,5.7 3.81,7.82 1.67,1.79 4.07,2.71 6.51,2.5 2.38,-0.36 4.46,-1.83 5.58,-3.96 z m -5.35,5.55 c -0.35,0.04 -0.7,0.06 -1.04,0.06 v 0 c -0.27,0 -0.54,-0.03 -0.81,-0.06 l 0.47,1.79 3.01,-0.35 v -1.83 c -0.53,0.17 -1.07,0.32 -1.63,0.39 z m 25.32,46.13 -3.81,2.55 1.08,4.73 h 7.52 c 0.31,-0.69 0.91,-2.3 1.43,-3.77 l -3.04,-4.2 -3.17,0.69 z m -53.25,70.52 15.08,-2.12 v -3.28 l -5.38,-0.49 -14.05,0.56 4.36,5.34 z m -4.2,-86.44 -4.93,1.29 1.97,7.02 6.27,-1.32 0.84,-2.34 h 0.02 c 0,0 -1.3,-2.98 -1.3,-2.98 l -2.87,-1.66 z m 4.66,1.45 0.91,2.09 c 2.5,-0.15 12.33,-1.47 18.39,-12.35 l -1.73,-9.36 c -1.72,5.74 -6.21,15.26 -17.57,19.61 z m 18.06,-26.56 0.42,2.28 h 0.11 c 0,0 -0.01,0.15 -0.04,0.35 l 2.52,13.62 0.19,0.08 c -0.04,0.08 -0.09,0.15 -0.13,0.23 l 3.84,20.74 v 0 c 0,0 0,0 0,0.01 l 0.03,0.17 h 13.75 l 0.79,-39.49 c -3.06,-0.05 -13.69,-0.08 -21.46,2.02 z m 23.06,11.44 c 1.86,1.53 3.61,3.87 5.24,6.94 l 3.83,-4.47 c -1.36,-3.21 -2.98,-6.32 -4.87,-9.27 -1.2,-1.91 -2.56,-3.7 -4.07,-5.36 l -0.24,12.27 0.11,-0.12 z m -2.53,27.64 h -13.35 c 0.46,6.43 3.55,44.14 14.17,64.22 l 4.48,-0.39 c -1.67,-5.56 -9.82,-34.92 -5.31,-63.83 z m -4.75,71.53 11.73,-4.55 -1.06,-1.6 -5.41,0.47 0.03,0.09 -10.82,2.52 5.54,3.07 z m -10.19,-69.46 c -7.53,23.16 -12.26,57.36 -13.02,63.03 l 4.16,0.38 c 1.11,-5.12 7.6,-34.47 11.64,-40.48 -1.6,-9.96 -2.43,-18.6 -2.78,-22.93 z"
     id="path312" />
  <polygon
     class="cls-2"
     points="150.7,648.01 148.81,649.27 188.73,699.17 190.61,697.91 "
     id="polygon314"
     transform="matrix(-1,0,0,1,385.18347,0)" />
  <path
     class="cls-2"
     d="m 152.38347,804.35 c -0.08,0 -7.82,-0.91 -13.57,-1.44 l -7.46,-0.42 0.74,-7.47 0.86,0.06 c 4.92,0.35 12.19,0.84 14.66,1.01 2.81,-27.36 16.42,-56.76 17.84,-59.78 l -4.95,-21.27 -6.73,7.5 -16.23,-7.33 -4.99,1.92 -0.41,-0.31 c 0,0 -4.65,-3.51 -5.61,-4.12 l 0.54,-0.7 -0.1,-0.06 -0.73,-0.43 c 0.13,-0.19 1.66,-2.69 2.6,-4.23 l 0.06,-0.09 3.11,-3.79 7.34,4.2 v 2.68 l 12.25,3.36 5.94,-11.26 -0.91,-3.93 0.49,-0.3 c 1.42,-0.88 3.24,-1.54 5.2,-2.04 l -0.85,-3.08 c -1.74,-0.39 -3.36,-1.2 -4.72,-2.39 -2.71,-2.32 -4.63,-5.43 -5.48,-8.89 -1.96,-7.52 1.17,-14.68 7,-15.95 5.83,-1.27 12.16,3.82 14.12,11.34 0.95,3.36 0.78,6.94 -0.5,10.19 -0.7,1.87 -1.97,3.43 -3.6,4.49 l 0.69,3.16 c 4.05,-0.41 7.41,-0.35 7.68,-0.35 l 0.77,0.02 0.04,0.36 16.95,11.89 -5.1,21.94 1.1,5.8 -4.65,4.56 -3.57,-1.56 c 0.32,20.84 17.04,56.1 18.01,58.14 l 0.21,-0.2 5.35,4.7 -0.7,0.57 c -8.83,7.3 -9.1,7.3 -9.52,7.3 v 0 c -0.41,0 -12.43,-0.38 -13.8,-0.42 l -2.7,-0.09 15.86,-9.74 c -14.71,-13.1 -21.74,-33.04 -24.99,-46.63 -4.05,10.04 -15.79,44.57 -16.56,46.87 v 6.34 l -0.99,-0.11 z m 17.88,-117.59 c 1.15,-2.95 1.3,-6.2 0.43,-9.24 -1.74,-6.67 -7.13,-11.22 -12.01,-10.16 v 0 c -4.88,1.06 -7.44,7.35 -5.7,14.02 0.77,3.14 2.5,5.96 4.95,8.07 1.9,1.75 4.51,2.52 7.06,2.09 2.44,-0.62 4.41,-2.41 5.27,-4.78 z m -4.86,6.33 c -0.61,0.13 -1.23,0.2 -1.85,0.2 v 0 c -0.06,0 -0.12,-0.01 -0.19,-0.01 l 0.58,2.09 3.22,-0.56 -0.47,-2.14 c -0.42,0.17 -0.85,0.32 -1.29,0.43 z m -32.15,107.9 5.7,0.32 c 4.59,0.42 10.39,1.07 12.67,1.33 v -4.05 l -3.27,-0.94 v 0.09 c 0,0 -8.66,-0.58 -14.67,-1.01 l -0.42,4.26 z m -0.79,-95.47 -2.11,2.57 c -0.69,1.13 -1.7,2.78 -2.25,3.66 1.26,0.89 3.76,2.76 4.75,3.51 l 3.88,-1.49 0.88,-3.04 v -2.26 z m 20.08,10.03 -13.45,-3.69 -0.58,1.98 14.78,6.68 6.73,-7.5 -1.88,-8.1 -5.61,10.63 z m 23.32,-19.31 c -2.77,0.01 -12.33,0.26 -17.26,2.94 l 8.46,36.39 c 2.08,-0.26 7.72,-0.94 11.25,-1.35 l 1.8,-2.29 c -0.93,-8.01 -3.73,-31.32 -4.25,-35.69 z m 7.64,31.4 1.73,-18.2 -6.47,-3.67 c 0.95,7.9 2.19,18.35 2.88,24.22 l 1.85,-2.35 z m 1.79,-0.33 2.48,0.55 3.49,-15 -4.35,-2.47 -1.61,16.92 z m -7.55,-30.09 c 0.18,1.49 0.45,3.79 0.78,6.53 l 13.12,7.44 0.84,-3.63 z m 10.81,36.91 -0.88,-4.64 -2.96,-0.66 -4.76,6.04 5.42,2.37 3.17,-3.12 z m 6.77,72.41 c 0.88,-0.6 4.49,-3.51 7.88,-6.31 l -3.61,-3.17 -2.77,1.52 0.03,0.05 -12.35,7.58 c 3.98,0.13 9.57,0.3 10.81,0.33 z m 1.05,-9.58 1.98,-1.08 c -1.11,-2.35 -5.04,-10.84 -8.9,-21.16 -6.02,-16.1 -9.05,-28.83 -9.01,-37.86 l -2.29,-1 c -2.73,0.31 -6.52,0.77 -9.03,1.08 0.56,5.17 5.14,40.56 27.26,60.02 z m -28.99,-59.81 c -0.18,0.02 -0.33,0.04 -0.46,0.06 -1.94,4.14 -14.88,32.6 -17.59,59.06 l 2.57,0.74 c 2.06,-6.05 14.78,-43.41 17.37,-48.59 -1.2,-5.54 -1.72,-9.67 -1.89,-11.27 z"
     id="path316" />
  <polygon
     class="cls-2"
     points="230.36,204.03 232.34,205.16 285.44,127.82 283.47,126.69 "
     id="polygon318"
     transform="matrix(-1,0,0,1,385.18347,0)" />
  <path
     class="cls-2"
     d="m 84.123471,34.74 c 0.81,5.59 -1.37,10.69 -5.1,12.99 v 2.87 c 5.19,-0.3 9.3,-0.16 9.61,-0.15 l 0.85,0.03 v 0.44 c 0.9,0.85 10.24,9.9 14.209999,28.01 l -0.82,0.15 0.83,-0.05 c 0.07,0.9 0.34,3.05 0.63,5.32 0.42,3.31 0.9,7.04 0.99,8.77 l 3.78,5.21 -0.13,0.36 c -1.83,5.25 -1.98,5.25 -2.7,5.25 v 0 c 0,0 -9.469999,0 -9.469999,0 l -1.6,-7.01 4.57,-3.05 c -0.56,-2.07 -2.48,-9.17 -3.52,-13.06 l 1.7,-0.38 c 1.01,3.78 2.849999,10.6 3.469999,12.88 l 2.13,-0.46 c -0.13,-1.81 -0.58,-5.39 -0.96,-8.32 -0.3,-2.35 -0.56,-4.38 -0.64,-5.35 -0.69,-3.22 -1.65,-6.37 -2.829999,-9.44 l -3.73,4.32 c 0.89,1.85 1.74,3.9 2.55,6.21 l -1.67,0.49 c -2.15,-6.12 -4.54,-10.53 -7.14,-13.15 l -0.51,25.5 h -0.1 c -5.02,31.67 5.4,63.98 5.5,64.31 l 0.03,0.1 2.28,3.38 -14.48,5.59 -9.86,-5.46 13.86,-3.28 c -5.23,-10.04 -8.64,-24.25 -10.81,-36.87 -4.17,9.21 -10.31,37.72 -10.52,38.69 v 0 5.27 l -17.6,2.47 -6.9,-8.48 17.01,-0.68 c 0.73,-5.52 5.96,-43.56 14.29,-66.93 l -3.39,-18.33 c -2.82,4.32 -6.88,7.72 -11.7,9.7 -2.28,0.95 -4.7,1.51 -7.17,1.67 l 0.25,0.07 -1.08,3.16 -8.9,1.88 -2.89,-10.04 7.34,-1.92 3.19,1.89 c 14.68,-5.3 17.54,-19.71 17.97,-22.61 l -0.7,-3.77 0.72,-0.21 c 2.36,-0.7 4.98,-1.19 7.6,-1.53 l -0.6,-2.43 0.32,-0.06 c -1.79,-0.46 -3.43,-1.39 -4.74,-2.74 -2.34,-2.36 -3.83,-5.41 -4.27,-8.7 -1.03,-7.15 2.8,-13.52 8.54,-14.22 0.36,-0.04 0.71,-0.06 1.07,-0.06 v 0 c 5.34,0.03 10.24,5.06 11.21,11.76 z m 16.849999,60.34 -3.809999,2.55 1.08,4.73 h 7.519999 c 0.31,-0.7 0.91,-2.3 1.43,-3.77 l -3.05,-4.2 z M 89.363471,65.55 c 1.85,1.53 3.59,3.86 5.22,6.91 l 3.85,-4.45 c -1.36,-3.21 -2.98,-6.31 -4.87,-9.26 -1.21,-1.93 -2.6,-3.74 -4.13,-5.42 l -0.25,12.4 0.17,-0.18 z m -2.58,27.58 h -13.35 c 0.46,6.44 3.55,44.14 14.17,64.22 l 4.48,-0.39 c -1.67,-5.56 -9.82,-34.92 -5.31,-63.83 z m -4.76,71.59 11.78,-4.55 -1.11,-1.65 -5.41,0.47 0.03,0.09 -10.83,2.56 5.55,3.07 z m -34.29,0.89 15.08,-2.12 v -3.28 l -4.97,-0.45 -14.41,0.57 z m 15.25,-6.99 c 1.12,-5.12 7.6,-34.45 11.64,-40.47 -1.6,-9.96 -2.43,-18.61 -2.78,-22.93 -7.53,23.16 -12.26,57.36 -13.02,63.03 l 4.16,0.38 z m -19.45,-79.44 -4.92,1.29 2.02,7.02 6.27,-1.32 0.78,-2.28 h 0.05 c 0,0 -1.3,-2.98 -1.3,-2.98 z m 4.67,1.45 0.91,2.09 c 2.5,-0.15 12.33,-1.47 18.39,-12.34 l -1.73,-9.35 c -1.72,5.74 -6.21,15.26 -17.57,19.61 z m 18.48,-24.28 h 0.11 c 0,0 -0.02,0.15 -0.04,0.36 l 2.52,13.61 0.19,0.08 c -0.04,0.08 -0.09,0.15 -0.13,0.23 l 3.84,20.74 v 0 c 0,0 0,0.01 0,0.01 l 0.03,0.16 h 13.75 l 0.79,-39.49 c -3.06,-0.06 -13.69,-0.08 -21.46,2.02 l 0.42,2.28 z m 7.62,-5.53 3,-0.35 v -1.89 c -0.54,0.18 -1.11,0.33 -1.7,0.4 -0.35,0.04 -0.7,0.06 -1.04,0.06 -0.24,0 -0.47,-0.03 -0.71,-0.05 z m -9.24,-13.75 c 0.38,2.95 1.72,5.7 3.81,7.82 1.67,1.79 4.07,2.71 6.51,2.5 4.79,-0.58 7.94,-6.15 7.04,-12.42 -0.9,-6.27 -5.54,-10.9 -10.32,-10.32 -4.79,0.58 -7.94,6.15 -7.04,12.42 z"
     id="path320" />
  <polygon
     class="cls-2"
     points="310.65,49.01 310.65,49.01 "
     id="polygon322"
     transform="matrix(-1,0,0,1,385.18347,0)" />
  <polygon
     class="cls-2"
     points="238.26,277.76 237.28,279.7 278.71,297.3 279.7,295.36 "
     id="polygon324"
     transform="matrix(-1,0,0,1,385.18347,0)" />
  <path
     class="cls-2"
     d="m 33.053471,231.95 c 0.13,-0.19 1.66,-2.69 2.6,-4.22 l 0.06,-0.09 3.11,-3.79 7.34,4.2 v 2.68 l 12.25,3.36 5.99,-11.35 -0.9,-3.89 0.49,-0.3 c 1.41,-0.88 3.21,-1.53 5.13,-2.03 l -0.81,-3.1 c -1.73,-0.39 -3.35,-1.2 -4.7,-2.38 -2.71,-2.32 -4.63,-5.43 -5.48,-8.89 -0.95,-3.36 -0.78,-6.94 0.5,-10.19 1.07,-2.88 3.51,-5.03 6.49,-5.75 3.1,-0.57 6.3,0.34 8.64,2.46 2.71,2.32 4.63,5.42 5.49,8.88 0.95,3.36 0.78,6.94 -0.5,10.19 -0.7,1.87 -1.97,3.43 -3.6,4.49 l 0.69,3.16 c 4.05,-0.41 7.41,-0.35 7.69,-0.34 l 0.77,0.02 0.04,0.36 16.949999,11.94 -5.159999,21.89 1.09,5.83 -4.58,4.56 -3.58,-1.55 c 0.32,20.61 16.659999,55.29 17.969999,58.05 l 0.19,-0.18 5.34,4.7 -0.7,0.58 c -8.83,7.3 -9.1,7.3 -9.52,7.3 v 0 c -0.35,0 -12.429999,-0.38 -13.799999,-0.42 l -2.7,-0.09 15.859999,-9.74 C 87.003471,305.17 79.983471,285.21 76.743471,271.63 c -4.02,9.93 -15.83,44.69 -16.6,46.96 v 6.34 l -0.99,-0.11 c -0.08,0 -7.82,-0.91 -13.58,-1.44 l -7.46,-0.42 0.74,-7.47 0.86,0.06 c 4.92,0.35 12.19,0.84 14.66,1.01 2.84,-27.66 16.72,-57.43 17.89,-59.88 l -4.93,-21.19 -6.8,7.51 -16.19,-7.4 -5.02,1.94 -0.41,-0.31 c 0,0 -4.65,-3.51 -5.61,-4.12 l 0.52,-0.67 -0.08,-0.05 -0.72,-0.42 z m 44.06,-24.79 c 1.15,-2.95 1.3,-6.2 0.43,-9.24 -0.77,-3.14 -2.5,-5.96 -4.95,-8.07 -1.9,-1.75 -4.51,-2.52 -7.06,-2.09 v 0 c -2.44,0.62 -4.41,2.41 -5.27,4.78 -1.15,2.95 -1.3,6.2 -0.43,9.24 0.77,3.14 2.5,5.96 4.95,8.07 1.9,1.75 4.51,2.52 7.06,2.09 2.44,-0.62 4.41,-2.41 5.27,-4.78 z m -4.86,6.33 c -0.61,0.13 -1.23,0.2 -1.85,0.2 v 0 c -0.07,0 -0.15,0 -0.22,-0.01 l 0.56,2.14 3.28,-0.6 -0.47,-2.15 c -0.42,0.17 -0.85,0.32 -1.29,0.42 z m 10.47,3.16 c -2.77,0.01 -12.33,0.26 -17.26,2.94 l 8.46,36.39 c 2.08,-0.26 7.69,-0.94 11.22,-1.34 l 1.82,-2.33 c -0.94,-8.05 -3.72,-31.29 -4.25,-35.65 z m 7.58,31.4 1.78,-18.15 -6.45,-3.64 c 0.94,7.86 2.18,18.23 2.87,24.09 z m 1.79,-0.33 2.48,0.55 3.53,-14.98 -4.35,-2.45 z m -7.49,-30.09 c 0.18,1.51 0.46,3.84 0.79,6.61 l 13.1,7.38 0.85,-3.61 z m 10.75,36.96 -0.88,-4.7 -2.95,-0.65 -4.77,6.09 5.47,2.38 3.12,-3.11 z m 6.779999,72.35 c 0.88,-0.6 4.49,-3.51 7.88,-6.31 l -3.55,-3.12 -3.09,1.69 -12.049999,7.4 c 3.98,0.12 9.569999,0.3 10.809999,0.33 z m 1.11,-9.53 1.98,-1.08 c -1.11,-2.35 -5.04,-10.84 -8.899999,-21.16 -6.02,-16.08 -9.05,-28.8 -9.01,-37.83 l -2.44,-1.06 c -2.72,0.31 -6.42,0.76 -8.89,1.06 0.54,5 5.08,40.54 27.259999,60.07 z m -63.189999,4.04 5.7,0.32 c 4.59,0.42 10.39,1.07 12.67,1.33 v -4.06 l -3.27,-0.94 v 0.09 c 0,0 -8.66,-0.58 -14.67,-1.01 l -0.42,4.26 z m 18.66,-3.99 c 2.07,-6.08 14.92,-43.79 17.41,-48.67 -1.2,-5.56 -1.71,-9.68 -1.88,-11.24 -0.2,0.02 -0.36,0.04 -0.49,0.06 -1.87,4 -14.89,32.56 -17.61,59.11 z m 1.4,-76.48 6.79,-7.51 v 0 c 0,0 -1.9,-8.18 -1.9,-8.18 l -5.66,10.72 -13.44,-3.69 -0.54,1.93 14.74,6.73 z m -20.46,-5.31 3.94,-1.52 0.82,-2.95 v -2.27 l -5.15,-2.95 -2.11,2.57 c -0.68,1.11 -1.67,2.73 -2.22,3.62 1.27,0.9 3.74,2.75 4.73,3.49 z"
     id="path326" />
  <rect
     class="cls-2"
     x="-145.43347"
     y="429.67001"
     width="44.709999"
     height="2.1300001"
     id="rect328"
     transform="scale(-1,1)" />
  <path
     class="cls-2"
     d="m 103.46347,401.76 c 0.42,3.31 0.9,7.04 0.99,8.77 l 3.78,5.21 -0.13,0.36 c -1.83,5.25 -1.98,5.25 -2.7,5.25 v 0 c 0,0 -9.469999,0 -9.469999,0 l -1.6,-7.01 4.57,-3.05 c -0.56,-2.07 -2.48,-9.17 -3.52,-13.06 l 1.7,-0.38 c 1.01,3.78 2.85,10.6 3.469999,12.88 l 2.13,-0.46 c -0.13,-1.81 -0.58,-5.39 -0.96,-8.32 -0.3,-2.35 -0.56,-4.38 -0.64,-5.35 -0.69,-3.22 -1.649999,-6.38 -2.829999,-9.44 l -3.73,4.32 c 0.89,1.85 1.74,3.91 2.55,6.22 l -1.67,0.48 c -2.15,-6.12 -4.54,-10.53 -7.14,-13.15 l -0.51,25.5 h -0.1 c -5.02,31.67 5.4,63.98 5.5,64.31 l 0.03,0.1 2.28,3.38 -14.48,5.59 -9.86,-5.46 13.86,-3.28 c -5.23,-10.04 -8.64,-24.25 -10.81,-36.87 -4.17,9.22 -10.32,37.75 -10.52,38.69 v 0 5.27 l -17.6,2.52 -6.9,-8.53 17.01,-0.68 c 0.73,-5.51 5.96,-43.56 14.29,-66.93 l -3.39,-18.33 c -2.82,4.32 -6.88,7.72 -11.69,9.7 -2.28,0.95 -4.7,1.51 -7.16,1.67 l 0.24,0.07 -1.08,3.16 -8.91,1.88 -2.89,-10.04 7.34,-1.91 3.19,1.89 c 14.65,-5.29 17.53,-19.7 17.97,-22.6 l -0.7,-3.77 0.72,-0.21 c 2.36,-0.7 4.98,-1.19 7.6,-1.53 l -0.6,-2.44 0.3,-0.06 c -4.42,-1.18 -8.16,-5.69 -8.99,-11.45 -1.03,-7.14 2.8,-13.52 8.54,-14.21 2.99,-0.29 5.95,0.82 8.02,2.99 2.34,2.36 3.84,5.41 4.27,8.7 0.53,3.24 -0.06,6.55 -1.65,9.42 -0.81,1.51 -2.02,2.73 -3.45,3.58 v 2.87 c 5.19,-0.3 9.3,-0.16 9.61,-0.15 l 0.85,0.03 v 0.44 c 0.9,0.85 10.24,9.9 14.209999,28.01 l -0.82,0.15 0.83,-0.05 c 0.07,0.9 0.34,3.05 0.63,5.32 z M 80.053471,360.81 c 1.42,-2.57 1.94,-5.55 1.46,-8.46 -0.38,-2.95 -1.72,-5.7 -3.81,-7.82 -1.49,-1.57 -3.54,-2.48 -5.71,-2.55 -0.27,0 -0.54,0.02 -0.81,0.05 -4.79,0.58 -7.94,6.15 -7.04,12.42 0.9,6.27 5.53,10.9 10.32,10.32 2.38,-0.36 4.46,-1.83 5.58,-3.96 z m -5.35,5.55 c -0.34,0.04 -0.68,0.06 -1.02,0.06 v 0 c -0.24,0 -0.49,-0.02 -0.73,-0.04 l 0.45,1.82 3,-0.35 v -1.91 c -0.55,0.19 -1.11,0.33 -1.69,0.42 z m 11.19,44.17 h -13.35 c 0.46,6.44 3.55,44.14 14.17,64.22 l 4.48,-0.39 c -1.67,-5.56 -9.82,-34.92 -5.31,-63.83 z m -4.76,71.59 11.78,-4.55 -1.11,-1.65 -5.41,0.47 0.03,0.09 -10.83,2.57 5.55,3.07 z m -34.29,0.94 15.08,-2.17 v -3.29 l -4.96,-0.45 -14.43,0.57 4.31,5.33 z m 15.25,-7.04 c 1.12,-5.12 7.6,-34.45 11.64,-40.47 -1.6,-9.96 -2.43,-18.61 -2.78,-22.93 -7.52,23.16 -12.26,57.36 -13.02,63.02 z m -19.45,-79.44 -4.92,1.28 2.02,7.03 6.27,-1.32 0.78,-2.28 h 0.05 c 0,0 -1.3,-2.98 -1.3,-2.98 z m 4.67,1.45 0.91,2.09 c 2.5,-0.15 12.33,-1.47 18.39,-12.34 l -1.73,-9.35 c -1.72,5.74 -6.21,15.26 -17.57,19.6 z m 18.05,-26.56 0.42,2.28 h 0.11 c 0,0 -0.02,0.15 -0.04,0.36 l 2.52,13.6 0.19,0.08 c -0.04,0.08 -0.09,0.16 -0.13,0.24 l 3.83,20.73 v 0 c 0,0 0,0.01 0,0.01 l 0.03,0.16 h 13.75 l 0.79,-39.49 c -3.06,-0.06 -13.69,-0.08 -21.46,2.02 z m 23.19,-0.73 -0.25,12.4 0.17,-0.18 c 1.85,1.53 3.59,3.86 5.22,6.91 l 3.85,-4.45 c -1.36,-3.21 -2.98,-6.31 -4.87,-9.26 -1.21,-1.93 -2.6,-3.74 -4.13,-5.42 z m 11.539999,41.76 -3.819999,2.56 1.08,4.73 h 7.519999 c 0.31,-0.7 0.91,-2.3 1.43,-3.77 l -3.05,-4.2 -3.16,0.69 z"
     id="path330" />
  <rect
     class="cls-2"
     x="-148.23347"
     y="593.63"
     width="46.16"
     height="2.1300001"
     id="rect332"
     transform="scale(-1,1)" />
  <path
     class="cls-2"
     d="m 33.643471,548.82 c 0.13,-0.19 1.66,-2.69 2.6,-4.22 l 0.06,-0.09 3.11,-3.79 7.34,4.2 v 2.67 l 12.25,3.36 5.99,-11.35 -0.9,-3.89 0.49,-0.3 c 1.41,-0.88 3.21,-1.53 5.14,-2.03 l -0.81,-3.09 c -1.73,-0.39 -3.35,-1.2 -4.7,-2.38 -2.71,-2.32 -4.63,-5.42 -5.48,-8.89 -0.95,-3.36 -0.78,-6.94 0.5,-10.19 1.07,-2.88 3.51,-5.04 6.49,-5.76 3.1,-0.57 6.3,0.34 8.64,2.46 2.71,2.32 4.63,5.42 5.48,8.89 0.95,3.36 0.78,6.94 -0.5,10.19 -0.7,1.87 -1.97,3.42 -3.59,4.49 l 0.69,3.16 c 4.05,-0.41 7.41,-0.35 7.69,-0.35 l 0.77,0.02 0.04,0.35 16.949999,11.95 -5.159999,21.89 1.1,5.84 -4.58,4.56 -3.58,-1.55 c 0.32,20.61 16.659999,55.3 17.969999,58.05 l 0.19,-0.18 5.34,4.7 -0.7,0.57 c -8.83,7.3 -9.1,7.3 -9.52,7.3 v 0 c -0.36,0 -12.429999,-0.38 -13.799999,-0.42 l -2.7,-0.09 15.859999,-9.74 C 87.613471,622.03 80.593471,602.07 77.353471,588.49 c -4.02,9.93 -15.83,44.69 -16.6,46.96 v 6.34 l -0.99,-0.11 c -0.08,0 -7.82,-0.91 -13.57,-1.44 l -7.46,-0.42 0.74,-7.47 0.86,0.06 c 4.92,0.35 12.19,0.84 14.66,1.01 2.84,-27.66 16.72,-57.42 17.89,-59.88 l -4.93,-21.19 -6.8,7.51 -16.13,-7.37 -5.08,1.96 -0.41,-0.31 c 0,0 -4.65,-3.51 -5.61,-4.12 l 0.54,-0.7 -0.11,-0.07 -0.72,-0.42 z m 44.05,-24.78 c 1.15,-2.95 1.3,-6.2 0.43,-9.24 -0.77,-3.14 -2.5,-5.96 -4.95,-8.07 -1.56,-1.38 -3.55,-2.17 -5.62,-2.24 -0.48,0 -0.96,0.05 -1.43,0.15 -2.44,0.62 -4.41,2.41 -5.27,4.78 -1.15,2.95 -1.3,6.2 -0.43,9.24 0.77,3.14 2.5,5.96 4.95,8.07 1.9,1.75 4.51,2.52 7.06,2.09 2.44,-0.62 4.41,-2.41 5.27,-4.78 z m -4.86,6.33 c -0.61,0.13 -1.23,0.2 -1.85,0.2 v 0 c -0.07,0 -0.14,-0.01 -0.22,-0.02 l 0.56,2.14 3.28,-0.6 -0.47,-2.15 c -0.42,0.17 -0.85,0.32 -1.3,0.43 z m 10.48,3.15 c -2.77,0.01 -12.33,0.26 -17.26,2.94 l 8.46,36.39 c 2.08,-0.25 7.69,-0.94 11.23,-1.34 l 1.82,-2.31 c -0.94,-8.03 -3.73,-31.3 -4.25,-35.67 z m 7.58,31.44 1.78,-18.17 -6.45,-3.66 c 0.94,7.88 2.18,18.25 2.87,24.11 z m 1.79,-0.34 2.48,0.52 3.52,-14.94 -4.34,-2.46 z m -7.49,-30.13 c 0.18,1.51 0.46,3.84 0.79,6.63 l 13.09,7.42 0.86,-3.66 z m 10.75,36.96 -0.88,-4.69 -2.95,-0.62 -4.77,6.05 5.47,2.38 3.12,-3.12 z m 6.779999,72.35 c 0.88,-0.6 4.49,-3.51 7.88,-6.31 l -3.55,-3.12 -3.08,1.69 -12.059999,7.41 c 3.98,0.13 9.569999,0.3 10.809999,0.33 z m 1.11,-9.53 1.98,-1.08 c -1.11,-2.35 -5.04,-10.84 -8.899999,-21.16 -6.02,-16.09 -9.05,-28.81 -9.01,-37.83 l -2.44,-1.06 c -2.72,0.31 -6.42,0.76 -8.89,1.06 0.54,4.99 5.08,40.54 27.259999,60.07 z m -63.189999,4.04 5.7,0.32 c 4.59,0.42 10.39,1.07 12.67,1.33 v -4.06 l -3.27,-0.94 v 0.09 c 0,0 -8.66,-0.58 -14.67,-1.01 l -0.42,4.26 z m 18.66,-4 c 2.07,-6.08 14.91,-43.78 17.41,-48.67 -1.2,-5.56 -1.71,-9.68 -1.88,-11.24 -0.19,0.02 -0.36,0.04 -0.49,0.06 -1.87,3.99 -14.89,32.56 -17.61,59.11 z m 1.4,-76.48 6.79,-7.51 v 0 c 0,0 -1.9,-8.18 -1.9,-8.18 l -5.66,10.72 -13.44,-3.69 -0.54,1.93 14.74,6.74 z m -20.46,-5.26 3.92,-1.51 0.84,-3.03 v -2.25 l -5.15,-2.95 -2.11,2.57 c -0.69,1.13 -1.7,2.78 -2.25,3.66 1.26,0.89 3.76,2.76 4.74,3.51 z"
     id="path334" />
  <path
     class="cls-2"
     d="m 140.77347,756.84 -1.42,1.69 c 0,0 0.03,0.02 0.04,0.03 -1.71,-0.93 -28.53,-9.36 -46.159999,-14.8 l 0.75,-2.02 c 10.589999,3.27 45.239999,14.01 46.789999,15.1 z"
     id="path336" />
  <polygon
     class="cls-2"
     points="245.79,758.56 245.78,758.56 245.78,758.57 "
     id="polygon338"
     transform="matrix(-1,0,0,1,385.18347,0)" />
  <path
     class="cls-2"
     d="m 28.523471,714.68 7.33,-1.91 3.24,1.88 c 14.65,-5.32 17.5,-19.72 17.92,-22.59 l -0.7,-3.76 0.72,-0.21 c 2.36,-0.7 4.98,-1.19 7.59,-1.53 l -0.65,-2.48 0.14,-0.03 c -1.69,-0.48 -3.25,-1.39 -4.49,-2.67 -2.34,-2.36 -3.83,-5.41 -4.27,-8.7 -1.03,-7.14 2.8,-13.52 8.54,-14.21 5.74,-0.69 11.25,4.56 12.29,11.7 0.52,3.24 -0.06,6.55 -1.65,9.42 -0.81,1.51 -2.02,2.73 -3.46,3.58 v 2.8 c 5.19,-0.3 9.3,-0.16 9.61,-0.15 l 0.85,0.03 v 0.49 c 1.21,1.16 10.26,10.22 14.15,27.96 l -0.93,0.17 1,-0.06 c 0.07,0.9 0.34,3.05 0.63,5.33 0.42,3.3 0.89,7.01 0.99,8.75 l 3.779999,5.21 -0.13,0.36 c -1.829999,5.25 -1.979999,5.25 -2.699999,5.25 v 0 c 0,0 -9.47,0 -9.47,0 l -1.6,-7.01 4.57,-3.05 c -0.56,-2.07 -2.48,-9.16 -3.52,-13.05 l 1.7,-0.38 c 1.01,3.78 2.85,10.6 3.47,12.88 l 2.13,-0.46 c -0.13,-1.81 -0.58,-5.38 -0.96,-8.32 -0.3,-2.33 -0.55,-4.34 -0.63,-5.31 h -0.05 c -0.69,-3.23 -1.65,-6.39 -2.84,-9.47 l -3.72,4.35 c 0.88,1.84 1.73,3.88 2.53,6.17 l -1.67,0.49 c -2.13,-6.08 -4.51,-10.47 -7.08,-13.1 l -0.51,25.44 h -0.1 c -5.02,31.66 5.4,63.98 5.5,64.31 l 0.03,0.09 2.28,3.39 -14.48,5.59 -9.86,-5.46 13.86,-3.28 c -5.23,-10.04 -8.64,-24.25 -10.81,-36.87 -4.17,9.21 -10.31,37.7 -10.52,38.69 v 0 5.27 l -17.6,2.47 -6.9,-8.48 17.01,-0.68 c 0.73,-5.52 5.96,-43.56 14.29,-66.93 l -3.39,-18.33 c -2.82,4.32 -6.88,7.72 -11.7,9.7 -2.24,0.94 -4.62,1.49 -7.04,1.66 l 0.12,0.04 -1.14,3.2 -8.84,1.88 -2.88,-10.04 v 0 z m 44.47,-35.88 c 1.42,-2.57 1.94,-5.55 1.46,-8.45 -0.91,-6.27 -5.53,-10.9 -10.32,-10.32 v 0 c -4.79,0.58 -7.94,6.15 -7.04,12.42 0.38,2.95 1.72,5.7 3.81,7.82 1.67,1.79 4.07,2.71 6.51,2.5 2.38,-0.36 4.46,-1.83 5.58,-3.96 z m -5.35,5.55 c -0.35,0.04 -0.7,0.06 -1.04,0.06 v 0 c -0.25,-0.01 -0.5,-0.03 -0.74,-0.06 l 0.46,1.78 3.01,-0.35 v -1.84 c -0.54,0.18 -1.1,0.33 -1.68,0.41 z m 25.37,46.07 -3.8,2.54 1.08,4.72 h 7.52 c 0.31,-0.69 0.91,-2.3 1.43,-3.77 l -3.04,-4.19 -3.19,0.69 z m -11.66,-29.54 c 1.86,1.53 3.6,3.87 5.24,6.94 l 3.83,-4.48 c -1.36,-3.21 -2.98,-6.32 -4.87,-9.26 -1.2,-1.91 -2.56,-3.7 -4.07,-5.36 l -0.24,12.28 z m -2.53,27.58 h -13.35 c 0.46,6.43 3.55,44.14 14.17,64.22 l 4.48,-0.39 c -1.67,-5.56 -9.82,-34.93 -5.3,-63.83 z m -4.76,71.59 11.78,-4.55 -1.11,-1.65 -5.41,0.47 0.03,0.09 -10.83,2.56 5.55,3.07 z m -34.29,0.89 15.08,-2.12 v -3.28 l -4.98,-0.46 -14.4,0.57 4.3,5.28 z m 15.25,-6.99 c 1.11,-5.12 7.6,-34.47 11.64,-40.48 -1.6,-9.96 -2.43,-18.61 -2.78,-22.93 -7.52,23.16 -12.26,57.35 -13.02,63.02 l 4.16,0.38 z m 10.17,-67.26 v 0 c 0,0 0,0 0,0.01 l 0.03,0.16 h 13.75 l 0.79,-39.49 c -3.06,-0.06 -13.69,-0.08 -21.46,2.02 l 0.42,2.28 h 0.11 c 0,0 -0.01,0.15 -0.04,0.35 l 2.52,13.62 0.19,0.08 c -0.04,0.08 -0.09,0.15 -0.13,0.23 l 3.84,20.74 z m -5.65,-20.99 -1.73,-9.36 c -1.72,5.74 -6.21,15.26 -17.57,19.61 l 0.91,2.09 c 2.5,-0.15 12.33,-1.47 18.39,-12.35 z m -26.87,17.11 6.22,-1.32 0.84,-2.34 h 0.01 c 0,0 -1.3,-2.99 -1.3,-2.99 l -2.87,-1.66 -4.93,1.29 2.02,7.02 z"
     id="path340" />
  <polygon
     class="cls-2"
     points="249.12,811.39 247.38,812.81 290.7,857.28 292.44,855.86 "
     id="polygon342"
     transform="matrix(-1,0,0,1,385.18347,0)" />
  <path
     class="cls-2"
     d="m 30.083471,874.22 c 0.13,-0.19 1.66,-2.69 2.6,-4.22 l 0.06,-0.09 3.1,-3.79 7.34,4.2 v 2.67 l 12.26,3.36 5.95,-11.27 -0.92,-3.97 0.49,-0.3 c 1.42,-0.88 3.24,-1.54 5.18,-2.04 l -0.84,-3.04 c -4.49,-1.09 -8.62,-5.44 -10.14,-11.26 -1.96,-7.52 1.17,-14.68 7,-15.95 3.1,-0.57 6.3,0.34 8.64,2.45 2.71,2.32 4.63,5.43 5.48,8.89 1.6,6.15 -0.2,12.04 -4.09,14.69 l 0.68,3.1 c 4.02,-0.4 7.36,-0.34 7.63,-0.34 l 0.77,0.02 0.04,0.36 16.95,11.89 -5.1,21.94 1.09,5.84 -4.58,4.5 -3.57,-1.52 c 0.31,20.6 16.649999,55.3 17.969999,58.07 l 0.19,-0.18 5.35,4.7 -0.7,0.57 c -8.83,7.3 -9.099999,7.3 -9.519999,7.3 v 0 c -0.41,0 -12.43,-0.38 -13.8,-0.42 l -2.7,-0.09 15.86,-9.74 c -14.7,-13.13 -21.72,-33.09 -24.96,-46.67 -4.02,9.93 -15.83,44.69 -16.6,46.96 v 6.34 l -0.99,-0.11 c -0.08,0 -7.82,-0.91 -13.57,-1.44 l -7.46,-0.42 0.74,-7.47 0.86,0.06 c 4.92,0.35 12.19,0.84 14.66,1.01 2.81,-27.41 16.47,-56.87 17.85,-59.8 l -4.95,-21.27 -6.74,7.45 -16.23,-7.33 -4.99,1.93 -0.41,-0.31 c 0,0 -4.65,-3.51 -5.61,-4.12 l 0.52,-0.67 -0.09,-0.05 -0.71,-0.42 z m 44.49,-33.97 c -0.77,-3.14 -2.5,-5.96 -4.95,-8.07 -1.56,-1.38 -3.55,-2.17 -5.62,-2.24 v 0 c -0.48,0 -0.96,0.05 -1.43,0.15 -4.88,1.06 -7.44,7.35 -5.7,14.02 1.74,6.67 7.13,11.22 12.01,10.16 4.88,-1.07 7.44,-7.35 5.7,-14.02 z m -5.29,15.57 c -0.6,0.13 -1.2,0.19 -1.81,0.19 v 0 c -0.1,0 -0.19,-0.01 -0.29,-0.02 l 0.58,2.09 3.29,-0.6 -0.45,-2.08 c -0.42,0.17 -0.85,0.32 -1.31,0.41 z m 10.41,3.1 c -2.77,0.01 -12.33,0.26 -17.26,2.94 l 8.46,36.39 c 2.09,-0.26 7.76,-0.95 11.28,-1.35 l 1.77,-2.26 c -0.93,-7.99 -3.73,-31.34 -4.25,-35.72 z m 7.64,31.39 1.78,-18.15 -6.51,-3.67 c 0.95,7.9 2.19,18.33 2.88,24.18 l 1.85,-2.37 z m 1.79,-0.33 2.48,0.55 3.49,-15 -4.3,-2.43 -1.66,16.88 z m -7.55,-30.09 c 0.18,1.5 0.46,3.82 0.79,6.58 l 13.11,7.39 0.84,-3.63 z m 10.81,36.96 -0.88,-4.69 -2.95,-0.66 -4.76,6.08 5.47,2.33 3.12,-3.07 z m 6.78,72.36 c 0.879999,-0.6 4.489999,-3.51 7.879999,-6.31 l -3.55,-3.12 -3.12,1.71 -12.029999,7.39 c 3.98,0.13 9.57,0.3 10.81,0.33 z m 1.109999,-9.53 1.98,-1.08 c -1.11,-2.35 -5.039999,-10.84 -8.899999,-21.16 -6.02,-16.09 -9.05,-28.82 -9.01,-37.85 l -2.46,-1.05 c -2.71,0.31 -6.39,0.76 -8.87,1.06 0.53,4.96 5.07,40.54 27.259999,60.08 z m -63.189999,4.04 5.7,0.32 c 4.59,0.42 10.39,1.07 12.67,1.33 v -4.06 l -3.27,-0.94 v 0.09 c 0,0 -8.66,-0.58 -14.67,-1.01 l -0.42,4.26 z m 18.66,-3.99 c 2.07,-6.08 14.92,-43.79 17.41,-48.67 -1.2,-5.57 -1.71,-9.7 -1.88,-11.25 -0.19,0.02 -0.35,0.04 -0.49,0.06 -1.85,3.96 -14.9,32.55 -17.62,59.12 l 2.57,0.74 z m 1.4,-76.53 6.74,-7.46 -1.88,-8.1 -5.61,10.63 -13.45,-3.69 -0.57,1.93 14.78,6.68 z m -20.46,-5.26 3.88,-1.5 0.87,-2.96 v -2.28 l -5.15,-2.95 -2.11,2.57 c -0.68,1.11 -1.67,2.73 -2.22,3.62 1.27,0.9 3.74,2.75 4.73,3.49 z"
     id="path344" />
</svg>
