<?xml version="1.0" encoding="UTF-8"?><svg id="Layer_1" xmlns="http://www.w3.org/2000/svg" viewBox="0 0 397 981"><defs><style>#Layer_1{transform:scaleX(-1)}.cls-1{fill:none;}.cls-2{fill:#8acdea;}</style></defs><path class="cls-1" d="m110.56,371.66l.43-1.77c-.26.02-.52.05-.78.05h0c-.34,0-.68-.02-1.02-.06-.57-.07-1.11-.21-1.64-.38v1.81l3,.35Z"/><path class="cls-1" d="m119.74,357.97c.91-6.27-2.25-11.84-7.04-12.42h0c-4.79-.58-9.42,4.05-10.32,10.32-.91,6.27,2.25,11.84,7.04,12.42s9.42-4.05,10.32-10.32Z"/><path class="cls-1" d="m100.78,577.15l-2.45,1.06c.04,9.03-2.99,21.75-9.01,37.83-3.86,10.31-7.79,18.8-8.9,21.16l1.98,1.08c22.18-19.53,26.73-55.08,27.26-60.07-2.47-.3-6.16-.75-8.88-1.06Z"/><path class="cls-1" d="m135.69,403.57l.91-2.09c-11.28-4.31-15.79-13.73-17.53-19.48l-1.72,9.31c6.07,10.8,15.85,12.11,18.34,12.26Z"/><path class="cls-1" d="m111.41,413.99h-13.35c4.51,28.91-3.63,58.27-5.3,63.83l4.48.39c10.62-20.08,13.71-57.79,14.17-64.22Z"/><path class="cls-1" d="m110.22,439.07c4.04,6.17,10.49,35.31,11.59,40.41l4.16-.38c-.75-5.66-5.47-39.73-12.97-62.88-.36,4.38-1.19,12.98-2.78,22.86Z"/><polygon class="cls-1" points="137.09 404.68 137.11 404.67 137.95 407.02 144.22 408.34 146.19 401.32 141.32 400.03 138.34 401.8 137.09 404.68"/><polygon class="cls-1" points="122.04 481.06 122.04 484.35 137.06 486.46 141.41 481.18 126.97 480.61 122.04 481.06"/><polygon class="cls-1" points="97.51 479.84 92.16 479.38 91.04 481.03 102.82 485.57 108.32 482.51 97.48 479.94 97.51 479.84"/><path class="cls-1" d="m129.45,637.59c-2.72-26.57-15.76-55.16-17.62-59.12-.12-.01-.27-.03-.43-.05-.17,1.57-.69,5.72-1.9,11.32,2.59,5.17,15.32,42.54,17.37,48.59l2.57-.74Z"/><path class="cls-1" d="m79.18,638.38l-3.55,3.12c3.39,2.8,7,5.71,7.88,6.31,1.23-.03,6.83-.21,10.81-.33l-12.04-7.4-3.1-1.7Z"/><path class="cls-1" d="m142.05,555.02l3.95,1.52c.97-.73,3.41-2.56,4.68-3.46-.55-.89-1.56-2.53-2.24-3.65l-2.11-2.57-5.15,2.95v2.27l.87,2.95Z"/><path class="cls-1" d="m113.8,532.81c2.55.43,5.16-.34,7.06-2.09,2.45-2.11,4.18-4.93,4.95-8.07,1.74-6.66-.82-12.95-5.7-14.02h0c-4.88-1.07-10.27,3.49-12.01,10.16s.82,12.95,5.7,14.02Z"/><path class="cls-1" d="m130.5,638.97l-3.27.94v4.07c2.28-.26,8.08-.91,12.67-1.33l5.7-.32-.42-4.26c-6.02.42-14.67,1.01-14.67,1.01v-.1Z"/><polygon class="cls-1" points="118.74 554.34 125.48 561.85 140.26 555.12 139.69 553.19 126.24 556.88 120.62 546.24 118.74 554.35 118.74 554.34"/><path class="cls-1" d="m100.25,545.08c.33-2.77.61-5.09.79-6.59l-14.74,10.34.85,3.64,13.1-7.38Z"/><polygon class="cls-1" points="94.07 570.1 91.17 570.76 90.24 575.46 93.41 578.57 98.89 576.2 94.07 570.1"/><polygon class="cls-1" points="91.07 569.13 93.5 568.58 91.88 551.67 87.54 554.12 91.07 569.13"/><path class="cls-1" d="m100.01,547.09l-6.46,3.64,1.73,18.18,1.85,2.34c.69-5.86,1.93-16.27,2.87-24.16Z"/><path class="cls-1" d="m100.49,575.5c3.53.4,9.15,1.09,11.23,1.34l8.46-36.39c-4.92-2.68-14.49-2.93-17.26-2.94-.52,4.37-3.31,27.65-4.25,35.68l1.82,2.3Z"/><path class="cls-1" d="m176.63,260.78c.52,1.47,1.12,3.07,1.43,3.77h7.52l1.08-4.73-3.82-2.56-3.17-.69-3.05,4.2Z"/><path class="cls-1" d="m321.03,354.44c.91-6.27-2.25-11.84-7.04-12.42-.27-.03-.54-.05-.81-.05-2.16.07-4.21.98-5.71,2.55-2.09,2.12-3.43,4.87-3.81,7.82-.48,2.9.03,5.88,1.46,8.46,1.12,2.13,3.19,3.6,5.58,3.96,4.79.58,9.42-4.05,10.32-10.32Z"/><path class="cls-1" d="m189.28,234.62c1.63-3.07,3.38-5.41,5.24-6.94l.11.12-.24-12.28c-1.97,2.21-5.76,7.07-8.94,14.63l3.83,4.47Z"/><path class="cls-1" d="m234.73,244.9l.91-2.09c-11.36-4.34-15.85-13.86-17.57-19.61l-1.73,9.35c6.06,10.88,15.89,12.19,18.39,12.34Z"/><path class="cls-1" d="m311.79,368.2l.45-1.82c-.24.02-.49.04-.73.04h0c-.34,0-.68-.02-1.02-.07-.58-.08-1.15-.23-1.69-.42v1.91l3,.35Z"/><path class="cls-1" d="m210.65,253.72l.04-.2s0-.02-.01-.03h.02s3.82-20.69,3.82-20.69c-.04-.08-.09-.15-.13-.23l.19-.08,2.52-13.61c-.03-.21-.04-.33-.04-.35h.11s.42-2.29.42-2.29c-7.77-2.1-18.4-2.08-21.46-2.02l.79,39.49h13.75Z"/><path class="cls-1" d="m312.64,410.52h-13.35c4.51,28.91-3.64,58.27-5.31,63.83l4.48.39c10.62-20.08,13.71-57.79,14.17-64.22Z"/><polygon class="cls-1" points="323.27 477.6 323.27 480.88 338.35 483.05 342.66 477.71 328.23 477.14 323.27 477.6"/><path class="cls-1" d="m311.46,435.53c4.04,6.02,10.52,35.35,11.64,40.47l4.16-.38c-.75-5.67-5.49-39.87-13.02-63.02-.35,4.32-1.18,12.97-2.78,22.93Z"/><path class="cls-1" d="m111.67,412.39v-.05s-.02-.08-.03-.12l.07-.02,3.82-20.64c-.05-.11-.12-.2-.17-.31l.25-.11,2.48-13.4c-.05-.32-.07-.51-.07-.53h.17s.42-2.29.42-2.29c-7.77-2.1-18.4-2.08-21.46-2.02l.79,39.49h13.75Z"/><polygon class="cls-1" points="338.35 401.28 338.4 401.27 339.18 403.55 345.45 404.87 347.47 397.85 342.55 396.56 339.65 398.29 338.35 401.28"/><path class="cls-1" d="m218.72,199.23c.91-6.27-2.25-11.84-7.04-12.42-.27-.03-.54-.05-.81-.05h0c-2.16.07-4.21.99-5.71,2.55-2.09,2.12-3.43,4.87-3.81,7.82-.48,2.9.04,5.88,1.46,8.45,1.12,2.13,3.19,3.6,5.58,3.96,4.78.58,9.42-4.05,10.32-10.32Z"/><polygon class="cls-1" points="236.13 246 236.15 246 236.99 248.34 243.26 249.67 245.23 242.64 240.3 241.36 237.43 243.02 236.13 246"/><path class="cls-1" d="m209.55,212.94l.47-1.78c-.28.03-.55.05-.83.05h0c-.34,0-.68-.03-1.02-.07-.56-.08-1.1-.22-1.63-.39v1.84l3.01.35Z"/><path class="cls-1" d="m90.26,393.32c1.63-3.05,3.37-5.38,5.22-6.91l.18.18-.25-12.4c-1.53,1.68-2.92,3.49-4.13,5.42-1.89,2.95-3.51,6.05-4.87,9.26l3.85,4.45Z"/><path class="cls-1" d="m77.59,419.46c.52,1.47,1.12,3.08,1.43,3.77h7.52l1.08-4.73-3.84-2.57-3.13-.68-3.06,4.21Z"/><path class="cls-1" d="m209.22,280.28c4.04,6.03,10.52,35.35,11.63,40.47l4.16-.38c-.75-5.67-5.49-39.86-13.02-63.02-.35,4.3-1.17,12.95-2.77,22.93Z"/><polygon class="cls-1" points="221.02 322.34 221.02 325.67 236.1 327.79 240.45 322.45 225.99 321.88 221.02 322.34"/><polygon class="cls-1" points="196.55 321.17 191.14 320.7 190.08 322.3 201.8 326.85 207.34 323.78 196.52 321.26 196.55 321.17"/><path class="cls-1" d="m210.39,255.32h-13.35c4.51,28.91-3.64,58.27-5.31,63.83l4.48.39c10.62-20.08,13.71-57.79,14.17-64.22Z"/><polygon class="cls-1" points="298.79 476.38 293.38 475.91 292.27 477.56 304.05 482.11 309.6 479.04 298.77 476.47 298.79 476.38"/><path class="cls-1" d="m235.84,796.27c-2.71-26.46-15.65-54.92-17.59-59.06-.13-.02-.28-.03-.46-.06-.18,1.6-.7,5.73-1.89,11.27,2.59,5.18,15.32,42.53,17.37,48.59l2.57-.74Z"/><polygon class="cls-1" points="325.84 236.01 320.18 225.29 318.28 233.47 318.28 233.47 325.07 240.98 339.81 234.25 339.27 232.32 325.84 236.01"/><path class="cls-1" d="m348.03,228.55l-2.11-2.57-5.15,2.95v2.27l.82,2.95,3.94,1.52c.98-.74,3.46-2.6,4.73-3.49-.55-.89-1.54-2.51-2.22-3.62Z"/><path class="cls-1" d="m310.94,257.55c-.17,1.56-.69,5.68-1.88,11.24,2.5,4.87,15.34,42.58,17.41,48.67l2.57-.74c-2.72-26.55-15.74-55.11-17.61-59.11-.13-.02-.3-.04-.49-.06Z"/><path class="cls-1" d="m330.03,318.11l-3.27.94v4.06c2.28-.26,8.08-.91,12.67-1.33l5.7-.32-.42-4.26c-6.02.42-14.67,1.01-14.67,1.01v-.09Z"/><path class="cls-1" d="m299.2,541.12c.33-2.78.61-5.11.79-6.63l-14.74,10.39.86,3.66,13.09-7.42Z"/><path class="cls-1" d="m298.96,543.14l-6.45,3.66,1.78,18.17,1.8,2.28c.69-5.85,1.93-16.23,2.87-24.11Z"/><path class="cls-1" d="m300.31,256.28l-2.44,1.06c.04,9.03-2.99,21.75-9.01,37.83-3.86,10.31-7.79,18.8-8.9,21.16l1.98,1.08c22.18-19.53,26.72-55.07,27.26-60.07-2.47-.3-6.17-.75-8.89-1.06Z"/><path class="cls-1" d="m299.45,571.5c3.53.4,9.15,1.09,11.23,1.34l8.46-36.39c-4.92-2.68-14.49-2.93-17.26-2.94-.52,4.37-3.31,27.64-4.25,35.67l1.82,2.31Z"/><path class="cls-1" d="m313.86,532.69l.56-2.14c-.07,0-.14.01-.22.02h0c-.62,0-1.24-.07-1.85-.2-.45-.11-.88-.26-1.3-.43l-.47,2.15,3.28.6Z"/><polygon class="cls-1" points="290.03 565.14 292.5 564.62 290.85 547.74 286.51 550.2 290.03 565.14"/><path class="cls-1" d="m313.33,211.93c2.55.43,5.16-.34,7.06-2.09,2.45-2.11,4.18-4.93,4.95-8.07.87-3.05.72-6.29-.43-9.24-.86-2.37-2.83-4.16-5.27-4.78h0c-2.55-.43-5.16.34-7.06,2.09-2.45,2.11-4.18,4.93-4.95,8.07-.87,3.05-.72,6.29.43,9.24.86,2.37,2.83,4.16,5.27,4.78Z"/><path class="cls-1" d="m300.03,254.63c3.53.4,9.15,1.09,11.22,1.34l8.46-36.39c-4.92-2.68-14.49-2.93-17.26-2.94-.52,4.37-3.31,27.6-4.25,35.65l1.82,2.33Z"/><path class="cls-1" d="m314.44,215.82l.56-2.14c-.07,0-.15.01-.22.02h0c-.62,0-1.24-.07-1.85-.2-.45-.11-.87-.26-1.29-.42l-.47,2.15,3.28.6Z"/><path class="cls-1" d="m299.78,224.24c.33-2.78.61-5.1.79-6.61l-14.74,10.38.85,3.61,13.1-7.38Z"/><polygon class="cls-1" points="293.66 249.23 290.71 249.89 289.83 254.59 292.95 257.7 298.43 255.33 293.66 249.23"/><path class="cls-1" d="m278.72,317.51l-3.55,3.12c3.39,2.8,7,5.71,7.88,6.31,1.23-.03,6.83-.21,10.81-.33l-12.05-7.4-3.09-1.69Z"/><polygon class="cls-1" points="290.61 248.26 293.09 247.71 291.43 230.83 287.08 233.28 290.61 248.26"/><path class="cls-1" d="m299.54,226.26l-6.45,3.64,1.78,18.15,1.8,2.3c.69-5.86,1.92-16.22,2.87-24.09Z"/><path class="cls-1" d="m312.76,528.81c2.55.43,5.16-.34,7.06-2.09,2.45-2.11,4.18-4.93,4.95-8.07.87-3.05.72-6.29-.43-9.24-.86-2.37-2.83-4.16-5.27-4.78-.47-.1-.95-.15-1.43-.15-2.08.07-4.07.86-5.62,2.24-2.45,2.11-4.18,4.93-4.95,8.07-.87,3.05-.72,6.29.43,9.24.85,2.37,2.83,4.16,5.27,4.78Z"/><polygon class="cls-1" points="197.41 727.86 199.89 727.31 198.27 710.39 193.92 712.85 197.41 727.86"/><path class="cls-1" d="m206.87,734.23c3.53.4,9.17,1.09,11.25,1.35l8.46-36.39c-4.93-2.68-14.49-2.93-17.26-2.94-.52,4.37-3.32,27.68-4.25,35.69l1.8,2.29Z"/><path class="cls-1" d="m206.41,705.77l-6.47,3.67,1.73,18.2,1.85,2.35c.69-5.87,1.94-16.32,2.88-24.22Z"/><polygon class="cls-1" points="293.07 566.15 290.12 566.76 289.24 571.45 292.37 574.57 297.84 572.2 293.07 566.15"/><path class="cls-1" d="m188.34,798.57l-2.77-1.52-3.61,3.17c3.39,2.8,7,5.71,7.88,6.31,1.23-.03,6.83-.21,10.81-.33l-12.35-7.58.03-.05Z"/><path class="cls-1" d="m248.45,713.77l3.88,1.49c.99-.74,3.49-2.62,4.75-3.51-.55-.89-1.56-2.54-2.25-3.66l-2.11-2.57-5.15,2.95v2.26l.88,3.04Z"/><path class="cls-1" d="m207.02,735.86l-2.29,1c.04,9.03-2.99,21.76-9.01,37.86-3.86,10.31-7.79,18.8-8.9,21.16l1.98,1.08c22.11-19.47,26.7-54.85,27.26-60.02-2.51-.31-6.3-.77-9.03-1.08Z"/><polygon class="cls-1" points="200.45 728.83 197.5 729.49 196.62 734.12 199.8 737.24 205.22 734.87 200.45 728.83"/><path class="cls-1" d="m206.65,703.75c.33-2.74.6-5.04.78-6.53l-14.74,10.34.84,3.63,13.12-7.44Z"/><polygon class="cls-1" points="231.87 720.53 246.66 713.85 246.08 711.87 232.63 715.56 227.02 704.93 225.14 713.03 231.87 720.53"/><path class="cls-1" d="m236.83,797.66l-3.27.94v4.05c2.28-.26,8.08-.91,12.67-1.33l5.7-.32-.42-4.26c-6.02.42-14.67,1.01-14.67,1.01v-.09Z"/><path class="cls-1" d="m329.45,634.98l-3.27.94v4.06c2.28-.26,8.08-.91,12.67-1.33l5.7-.32-.42-4.26c-6.02.42-14.67,1.01-14.67,1.01v-.09Z"/><path class="cls-1" d="m299.73,573.15l-2.44,1.06c.04,9.03-2.99,21.75-9.01,37.83-3.86,10.31-7.79,18.8-8.9,21.16l1.98,1.08c22.18-19.53,26.72-55.08,27.26-60.07-2.47-.3-6.17-.75-8.89-1.06Z"/><path class="cls-1" d="m278.14,634.38l-3.55,3.12c3.39,2.8,7,5.71,7.88,6.31,1.23-.03,6.83-.21,10.81-.33l-12.06-7.41-3.08-1.69Z"/><path class="cls-1" d="m310.36,574.42c-.17,1.56-.68,5.68-1.88,11.24,2.5,4.88,15.34,42.58,17.41,48.67l2.57-.74c-2.72-26.55-15.74-55.12-17.61-59.11-.13-.02-.3-.04-.49-.06Z"/><polygon class="cls-1" points="325.25 552.88 319.6 542.16 317.69 550.34 317.7 550.34 324.49 557.85 339.23 551.11 338.69 549.19 325.25 552.88"/><path class="cls-1" d="m220.19,691.54c2.55.43,5.16-.34,7.06-2.09,2.45-2.11,4.18-4.93,4.95-8.07,1.74-6.67-.82-12.95-5.7-14.02h0c-4.88-1.07-10.27,3.49-12.01,10.16-.87,3.05-.72,6.29.43,9.24.86,2.37,2.83,4.16,5.27,4.78Z"/><path class="cls-1" d="m221.24,695.37l.58-2.09c-.06,0-.12.01-.19.01h0c-.62,0-1.24-.07-1.85-.2-.45-.11-.87-.26-1.29-.43l-.47,2.14,3.22.56Z"/><path class="cls-1" d="m347.44,545.42l-2.11-2.57-5.15,2.95v2.25l.84,3.03,3.92,1.51c.99-.74,3.48-2.62,4.74-3.51-.55-.89-1.56-2.54-2.25-3.66Z"/><path class="cls-1" d="m114.91,536.69l.56-2.14c-.08,0-.15.01-.23.02h0c-.62,0-1.24-.07-1.85-.2-.45-.1-.88-.24-1.3-.41l-.46,2.13,3.28.6Z"/><path class="cls-1" d="m316.31,854.27c4.88,1.07,10.27-3.49,12.01-10.16s-.82-12.95-5.7-14.02c-.47-.1-.95-.15-1.43-.15h0c-2.08.07-4.07.86-5.62,2.24-2.45,2.11-4.18,4.93-4.95,8.07-1.74,6.67.82,12.95,5.7,14.02Z"/><path class="cls-1" d="m303.01,896.9c3.53.4,9.2,1.09,11.28,1.35l8.46-36.39c-4.92-2.68-14.49-2.93-17.26-2.94-.53,4.38-3.32,27.73-4.25,35.72l1.77,2.26Z"/><path class="cls-1" d="m310.65,49.01h0s0,0,0,0c-.35,0-.7-.02-1.04-.06-.59-.07-1.15-.22-1.7-.4v1.89l3,.35.45-1.83c-.24.02-.47.05-.71.05,0,0,0,0,0,0Z"/><path class="cls-1" d="m302.8,34.95c-.91,6.27,2.25,11.84,7.04,12.42,2.44.21,4.84-.71,6.51-2.5,2.09-2.12,3.43-4.87,3.81-7.82.91-6.27-2.25-11.84-7.04-12.42-4.78-.58-9.42,4.05-10.32,10.32Z"/><path class="cls-1" d="m317.43,858.09l.58-2.09c-.1,0-.19.02-.29.02h0c-.61,0-1.22-.06-1.81-.19-.45-.1-.89-.25-1.31-.41l-.45,2.08,3.29.6Z"/><path class="cls-1" d="m302.58,868.49l-6.51,3.67,1.78,18.15,1.85,2.37c.69-5.86,1.93-16.29,2.88-24.18Z"/><polygon class="cls-1" points="296.64 891.51 293.68 892.16 292.8 896.85 295.93 899.92 301.4 897.59 296.64 891.51"/><path class="cls-1" d="m302.82,866.48c.33-2.76.61-5.08.79-6.58l-14.74,10.34.84,3.63,13.11-7.39Z"/><polygon class="cls-1" points="293.59 890.54 296.06 889.99 294.4 873.11 290.1 875.53 293.59 890.54"/><polygon class="cls-1" points="297.92 158.98 292.51 158.51 291.4 160.16 303.18 164.71 308.72 161.63 297.89 159.07 297.92 158.98"/><path class="cls-1" d="m281.69,959.79l-3.55,3.12c3.39,2.8,7,5.71,7.88,6.31,1.23-.03,6.83-.21,10.81-.33l-12.03-7.39-3.12-1.71Z"/><path class="cls-1" d="m311.76,93.12h-13.35c4.51,28.91-3.64,58.27-5.31,63.83l4.48.39c10.62-20.08,13.71-57.79,14.17-64.22Z"/><path class="cls-1" d="m291.63,58.74c-1.89,2.95-3.51,6.05-4.87,9.26l3.85,4.45c1.63-3.05,3.37-5.38,5.22-6.91l.17.18-.25-12.4c-1.53,1.68-2.92,3.49-4.13,5.42Z"/><polygon class="cls-1" points="322.39 160.19 322.39 163.48 337.47 165.59 341.77 160.31 327.36 159.74 322.39 160.19"/><path class="cls-1" d="m336.1,82.7l.91-2.09c-11.36-4.34-15.85-13.86-17.57-19.61l-1.73,9.35c6.06,10.88,15.89,12.19,18.39,12.34Z"/><path class="cls-1" d="m336.97,400.11l.91-2.09c-11.36-4.34-15.85-13.86-17.57-19.6l-1.73,9.35c6.06,10.88,15.89,12.19,18.39,12.34Z"/><path class="cls-1" d="m310.58,118.13c4.04,6.02,10.52,35.35,11.64,40.47l4.16-.38c-.75-5.67-5.49-39.87-13.02-63.03-.35,4.32-1.18,12.97-2.78,22.93Z"/><polygon class="cls-1" points="337.47 83.88 337.52 83.87 338.31 86.15 344.58 87.47 346.59 80.45 341.67 79.16 338.77 80.89 337.47 83.88"/><polygon class="cls-1" points="330.33 795.53 330.33 798.82 345.4 800.93 349.7 795.65 335.31 795.08 330.33 795.53"/><path class="cls-1" d="m318.52,753.47c4.04,6.01,10.53,35.36,11.64,40.48l4.16-.38c-.75-5.67-5.49-39.87-13.02-63.02-.35,4.32-1.18,12.97-2.78,22.93Z"/><path class="cls-1" d="m303.31,898.54l-2.46,1.05c.04,9.03-2.99,21.76-9.01,37.85-3.86,10.31-7.79,18.8-8.9,21.16l1.98,1.08c22.2-19.54,26.73-55.12,27.26-60.08-2.48-.3-6.17-.75-8.87-1.06Z"/><path class="cls-1" d="m323.88,705.63l2.52-13.62c-.03-.2-.04-.33-.04-.34h.11s.42-2.29.42-2.29c-7.77-2.1-18.4-2.08-21.46-2.02l.79,39.49h13.75l.03-.16s0,0,0-.01h0s3.84-20.74,3.84-20.74c-.04-.08-.09-.15-.13-.23l.19-.08Z"/><polygon class="cls-1" points="305.85 794.32 300.45 793.85 299.33 795.5 311.11 800.05 316.66 796.97 305.83 794.41 305.85 794.32"/><path class="cls-1" d="m319.7,728.46h-13.35c4.51,28.91-3.64,58.28-5.3,63.83l4.48.39c10.62-20.08,13.71-57.79,14.17-64.22Z"/><path class="cls-1" d="m344.95,715.95c-11.36-4.35-15.85-13.87-17.57-19.61l-1.73,9.36c6.06,10.88,15.89,12.19,18.39,12.35l.91-2.09Z"/><polygon class="cls-1" points="349.61 714.5 346.74 716.16 345.44 719.15 345.45 719.14 346.29 721.49 352.52 722.81 354.53 715.79 349.61 714.5"/><path class="cls-1" d="m278,98.58c.52,1.47,1.12,3.08,1.43,3.77h7.52l1.08-4.73-3.81-2.55-3.17-.69-3.05,4.2Z"/><path class="cls-1" d="m351.01,870.83l-2.11-2.57-5.15,2.95v2.28l.87,2.96,3.88,1.5c.98-.74,3.46-2.6,4.73-3.49-.55-.89-1.54-2.51-2.22-3.62Z"/><polygon class="cls-1" points="328.81 878.28 323.19 867.65 321.31 875.75 328.05 883.2 342.83 876.52 342.26 874.59 328.81 878.28"/><path class="cls-1" d="m313.92,899.82c-.17,1.55-.68,5.68-1.88,11.25,2.5,4.87,15.35,42.59,17.41,48.67l2.57-.74c-2.72-26.57-15.76-55.16-17.62-59.12-.14-.02-.3-.04-.49-.06Z"/><path class="cls-1" d="m333.01,960.39l-3.27.94v4.06c2.28-.26,8.08-.91,12.67-1.33l5.7-.32-.42-4.26c-6.02.42-14.67,1.01-14.67,1.01v-.09Z"/><path class="cls-1" d="m285.94,733.92c.52,1.48,1.12,3.08,1.43,3.77h7.52l1.08-4.72-3.8-2.54-3.19-.69-3.04,4.19Z"/><path class="cls-1" d="m324.28,680.26c2.09-2.12,3.43-4.87,3.81-7.82.91-6.27-2.25-11.84-7.04-12.42h0c-4.79-.58-9.41,4.05-10.32,10.32-.48,2.9.03,5.88,1.46,8.45,1.12,2.13,3.19,3.6,5.58,3.96,2.44.21,4.84-.71,6.51-2.5Z"/><path class="cls-1" d="m299.63,694.08c-1.89,2.95-3.51,6.05-4.87,9.26l3.83,4.48c1.63-3.07,3.38-5.41,5.24-6.94l.11.12-.24-12.28c-1.51,1.66-2.87,3.46-4.07,5.36Z"/><path class="cls-1" d="m318.87,686.13l.46-1.78c-.25.02-.49.05-.74.05h0c-.35,0-.7-.02-1.04-.06-.58-.08-1.14-.23-1.68-.41v1.84l3.01.35Z"/><path class="cls-1" d="m297.49,52.03l.79,39.49h13.75l.03-.16s0,0,0-.01h0s3.84-20.74,3.84-20.74c-.04-.08-.09-.15-.13-.23l.19-.08,2.52-13.61c-.03-.21-.04-.34-.04-.35h.11s.42-2.29.42-2.29c-7.77-2.1-18.4-2.08-21.46-2.02Z"/><path class="cls-1" d="m204.66,388.38l-6.46,3.66,1.73,18.2,1.85,2.35c.69-5.87,1.94-16.31,2.88-24.21Z"/><path class="cls-1" d="m219.49,377.97l.58-2.1c-.08,0-.15.01-.23.01h0c-.61,0-1.22-.06-1.81-.19-.45-.1-.88-.24-1.3-.41l-.46,2.13,3.22.56Z"/><path class="cls-1" d="m205.12,416.82c3.53.4,9.16,1.09,11.24,1.35l8.46-36.39c-4.92-2.68-14.49-2.93-17.26-2.94-.52,4.37-3.32,27.68-4.25,35.69l1.81,2.29Z"/><path class="cls-1" d="m218.44,374.13c4.88,1.07,10.27-3.49,12.01-10.16,1.74-6.66-.82-12.95-5.7-14.02-.47-.1-.96-.16-1.44-.16h0c-4.46,0-9,4.3-10.57,10.31-1.74,6.66.82,12.95,5.7,14.02Z"/><path class="cls-1" d="m218.6,530.34l.47-1.79c-.27.03-.54.05-.81.06h0c-.35,0-.7-.02-1.04-.06-.56-.08-1.1-.22-1.63-.39v1.83l3.01.35Z"/><polygon class="cls-1" points="198.71 411.43 195.75 412.08 194.87 416.72 198.05 419.84 203.47 417.47 198.71 411.43"/><polygon class="cls-1" points="195.66 410.45 198.14 409.9 196.52 392.99 192.17 395.45 195.66 410.45"/><path class="cls-1" d="m204.9,386.36c.33-2.75.6-5.05.78-6.54l-14.74,10.34.84,3.63,13.11-7.43Z"/><path class="cls-1" d="m223.96,524.46c2.09-2.12,3.43-4.87,3.81-7.82.91-6.27-2.25-11.84-7.04-12.42h0c-4.78-.58-9.42,4.05-10.32,10.32-.48,2.9.04,5.88,1.46,8.46,1.12,2.13,3.19,3.6,5.58,3.96,2.44.21,4.84-.71,6.51-2.5Z"/><path class="cls-1" d="m185.68,578.18c.52,1.48,1.12,3.08,1.43,3.77h7.52l1.08-4.73-3.81-2.55-3.17-.69-3.04,4.2Z"/><path class="cls-1" d="m186.56,481.16l-2.78-1.52-3.57,3.14c3.39,2.8,7,5.71,7.88,6.31,1.24-.04,6.83-.21,10.81-.34l-12.35-7.58h0Z"/><polygon class="cls-1" points="245.18 563.41 245.2 563.4 246.03 565.75 252.31 567.07 254.28 560.05 249.34 558.76 246.48 560.42 245.18 563.41"/><path class="cls-1" d="m219.44,572.72h-13.35c4.51,28.91-3.64,58.28-5.31,63.83l4.48.39c10.62-20.08,13.71-57.79,14.17-64.22Z"/><path class="cls-1" d="m219.69,571.12l.03-.17s0,0,0-.01h0s3.84-20.74,3.84-20.74c-.04-.08-.09-.15-.13-.23l.19-.08,2.52-13.62c-.03-.2-.04-.33-.04-.34h.11s.42-2.29.42-2.29c-7.77-2.1-18.4-2.08-21.46-2.02l.79,39.49h13.75Z"/><path class="cls-1" d="m199.36,538.28c-1.89,2.95-3.51,6.05-4.87,9.27l3.83,4.47c1.63-3.07,3.38-5.41,5.24-6.94l.11.12-.24-12.27c-1.51,1.66-2.87,3.45-4.07,5.36Z"/><polygon class="cls-1" points="230.06 639.79 230.06 643.08 245.14 645.19 249.5 639.86 235.45 639.3 230.06 639.79"/><polygon class="cls-1" points="205.59 638.58 200.18 638.11 199.12 639.71 210.84 644.25 216.38 641.19 205.56 638.67 205.59 638.58"/><path class="cls-1" d="m234.05,637.82c-.75-5.67-5.49-39.87-13.02-63.03-.35,4.32-1.18,12.97-2.78,22.93,4.04,6.01,10.53,35.36,11.64,40.48l4.16-.38Z"/><path class="cls-1" d="m216.04,419.75c-.18,1.61-.7,5.73-1.89,11.27,2.59,5.18,15.32,42.53,17.37,48.59l2.57-.74c-2.71-26.45-15.65-54.91-17.59-59.06-.13-.02-.28-.04-.46-.06Z"/><path class="cls-1" d="m278.88,415.99c.52,1.47,1.12,3.08,1.43,3.77h7.52l1.08-4.73-3.82-2.56-3.16-.69-3.05,4.2Z"/><path class="cls-1" d="m243.77,562.3l.91-2.09c-11.36-4.34-15.85-13.87-17.57-19.61l-1.73,9.36c6.06,10.88,15.89,12.19,18.39,12.35Z"/><path class="cls-1" d="m253.08,390.7l-2.11-2.57-5.15,2.95v2.26l.9,3.04,3.86,1.49c.99-.74,3.48-2.62,4.74-3.51-.55-.89-1.56-2.54-2.25-3.66Z"/><path class="cls-1" d="m312.9,408.92l.03-.16s0,0,0-.01h0s3.83-20.73,3.83-20.73c-.04-.08-.09-.15-.13-.24l.19-.08,2.52-13.6c-.03-.21-.04-.34-.04-.36h.11s.42-2.29.42-2.29c-7.77-2.1-18.4-2.08-21.46-2.02l.79,39.49h13.75Z"/><path class="cls-1" d="m291.49,389.85c1.63-3.05,3.37-5.38,5.22-6.91l.17.18-.25-12.4c-1.53,1.68-2.92,3.49-4.13,5.42-1.89,2.95-3.51,6.05-4.87,9.26l3.85,4.45Z"/><polygon class="cls-1" points="230.88 398.15 225.27 387.53 223.39 395.62 230.12 403.12 244.9 396.39 244.33 394.46 230.88 398.15"/><path class="cls-1" d="m205.27,418.45l-2.29,1c.04,9.03-2.99,21.76-9.01,37.85-3.86,10.31-7.79,18.8-8.9,21.16l1.98,1.09c22.11-19.46,26.7-54.84,27.26-60.02-2.51-.31-6.3-.77-9.03-1.08Z"/><path class="cls-1" d="m235.08,480.26l-3.27.94v4.05c2.28-.26,8.08-.91,12.67-1.33l5.7-.32-.42-4.26c-6.02.42-14.67,1.01-14.67,1.01v-.09Z"/><rect class="cls-2" x="27.12" y="439.19" width="52.39" height="2.13" transform="translate(-156.37 49.49) rotate(-21.31)"/><path class="cls-2" d="m80.49,405.23c-.42,3.26-.88,6.91-.98,8.68l-3.84,5.3.13.36c1.83,5.25,1.98,5.25,2.7,5.25h0s9.47,0,9.47,0l1.6-7.01-4.52-3.02c.55-2.02,2.48-9.18,3.53-13.09l-1.7-.38c-1.01,3.78-2.85,10.6-3.47,12.88l-2.13-.46c.13-1.81.58-5.38.96-8.32.3-2.36.56-4.39.64-5.35.69-3.22,1.65-6.38,2.83-9.44l3.73,4.31c-.89,1.85-1.74,3.9-2.55,6.21l1.67.48c2.15-6.12,4.54-10.53,7.14-13.16l.51,25.5h.1c5.02,31.65-5.4,63.98-5.5,64.31l-.03.1-2.28,3.38,14.48,5.59,9.79-5.46-13.8-3.27c5.22-10.02,8.63-24.19,10.8-36.79,4.22,9.42,10.42,38.33,10.49,38.65l.04.19v5.04l17.54,2.47,6.97-8.48-17.08-.68c-.73-5.52-5.95-43.44-14.25-66.82l3.4-18.37c2.82,4.29,6.86,7.66,11.65,9.63,2.24.94,4.63,1.49,7.05,1.66l-.13.04,1.15,3.2,8.9,1.88,2.82-10.04-7.27-1.92-3.22,1.91c-14.43-5.18-17.46-19.2-17.98-22.45l.73-3.94-.72-.21c-2.36-.7-4.98-1.19-7.6-1.54l.6-2.44-.22-.04c4.36-1.24,8.03-5.71,8.85-11.4,1.03-7.14-2.8-13.52-8.54-14.21-5.74-.69-11.25,4.55-12.29,11.7-.81,5.62,1.39,10.75,5.16,13.03v2.78c-5.19-.3-9.3-.16-9.61-.15l-.85.03v.44c-.9.85-10.24,9.91-14.21,28.01l.86.16-.87-.06c-.07.9-.34,3.05-.63,5.33Zm21.89-49.36c.91-6.27,5.54-10.9,10.32-10.32h0c4.79.58,7.94,6.15,7.04,12.41-.91,6.27-5.53,10.9-10.32,10.32s-7.94-6.15-7.04-12.42Zm6.81,14c.34.04.68.06,1.02.06h0c.26,0,.52-.02.78-.05l-.43,1.77-3-.35v-1.81c.53.17,1.07.31,1.64.38Zm-11.13,44.11h13.35c-.46,6.43-3.55,44.14-14.17,64.22l-4.48-.39c1.67-5.56,9.82-34.92,5.3-63.83Zm4.76,71.59l-11.78-4.54,1.11-1.65,5.35.47-.03.09,10.84,2.57-5.5,3.07Zm34.24.89l-15.02-2.12v-3.29l4.94-.45,14.43.57-4.35,5.28Zm-15.25-6.99c-1.11-5.1-7.55-34.24-11.59-40.41,1.59-9.88,2.42-18.48,2.78-22.86,7.5,23.15,12.22,57.23,12.97,62.88l-4.16.38Zm19.51-79.44l4.87,1.28-1.97,7.03-6.27-1.32-.84-2.34h-.01s1.25-2.87,1.25-2.87l2.98-1.77Zm-4.73,1.45l-.91,2.09c-2.5-.15-12.28-1.46-18.34-12.26l1.72-9.31c1.75,5.75,6.25,15.17,17.53,19.48Zm-18-26.56l-.42,2.27h-.17s.02.22.07.54l-2.48,13.4-.25.11c.05.11.12.21.17.31l-3.82,20.64-.07.02s.03.08.04.12v.05h-13.76l-.79-39.49c3.06-.06,13.69-.08,21.46,2.02Zm-23.19-.73l.25,12.4-.18-.18c-1.85,1.53-3.59,3.86-5.22,6.91l-3.85-4.45c1.36-3.21,2.98-6.31,4.87-9.26,1.21-1.93,2.6-3.74,4.13-5.42Zm-11.63,41.74l3.84,2.57-1.08,4.73h-7.52c-.31-.7-.91-2.3-1.43-3.77l3.06-4.21,3.13.68Z"/><polygon class="cls-2" points="28.55 558.9 81.96 576.54 82.75 574.54 29.35 556.89 28.55 558.9"/><path class="cls-2" d="m126.47,645.68c.08,0,7.82-.91,13.58-1.44l7.46-.42-.74-7.47-.86.06c-4.97.35-12.31.85-14.72,1.01-2.81-27.41-16.47-56.88-17.85-59.81l4.94-21.27,6.74,7.51,16.25-7.4,5.02,1.94.41-.31s4.65-3.51,5.61-4.12l-.53-.69.05-.03.72-.42c-.13-.19-1.66-2.69-2.6-4.22l-.06-.09-3.11-3.79-7.34,4.2v2.67l-12.26,3.36-5.95-11.27.92-3.96-.49-.3c-1.41-.88-3.21-1.53-5.13-2.03l.82-3.1c1.73-.39,3.34-1.2,4.69-2.38,2.71-2.32,4.63-5.43,5.48-8.89,1.96-7.52-1.17-14.68-7-15.95s-12.16,3.82-14.12,11.34c-1.61,6.15.2,12.05,4.1,14.7l-.69,3.15c-4.05-.41-7.41-.35-7.69-.35l-.77.02-.04.35-16.95,11.89,5.16,21.95-1.16,5.84,4.65,4.56,3.57-1.55c-.32,20.61-16.66,55.28-17.97,58.04l-.19-.18-5.35,4.7.7.57c8.83,7.3,9.1,7.3,9.52,7.3h0c.35,0,12.43-.38,13.8-.42l2.7-.09-15.86-9.74c14.67-13.11,21.69-33.01,24.93-46.58,4.17,10.33,16.47,46.59,16.61,46.99l.02.05v6.17l.99-.11Zm-18.37-126.89c1.74-6.66,7.13-11.22,12.01-10.16h0c4.88,1.07,7.44,7.35,5.7,14.02-.77,3.14-2.5,5.96-4.95,8.07-1.9,1.75-4.51,2.52-7.06,2.09-4.88-1.07-7.44-7.35-5.7-14.02Zm5.29,15.57c.61.13,1.23.2,1.85.2h0c.08,0,.15-.01.23-.02l-.56,2.14-3.28-.6.46-2.13c.42.17.85.31,1.3.41Zm32.2,107.96l-5.7.32c-4.59.42-10.39,1.07-12.67,1.33v-4.07l3.27-.94v.1s8.66-.58,14.67-1.01l.42,4.26Zm.74-95.47l2.11,2.57c.69,1.12,1.69,2.76,2.24,3.65-1.28.91-3.71,2.73-4.68,3.46l-3.95-1.52-.87-2.95v-2.27l5.15-2.95Zm-20.09,10.03l13.45-3.69.57,1.93-14.78,6.73-6.74-7.51h0s1.89-8.11,1.89-8.11l5.62,10.64Zm-23.32-19.36c2.77.01,12.33.26,17.26,2.94l-8.46,36.39c-2.08-.25-7.7-.94-11.23-1.34l-1.82-2.3c.94-8.03,3.73-31.31,4.25-35.68Zm-7.64,31.39l-1.73-18.18,6.46-3.64c-.94,7.89-2.19,18.3-2.87,24.16l-1.85-2.34Zm-1.79-.33l-2.42.55-3.53-15.01,4.34-2.45,1.61,16.91Zm7.55-30.09c-.18,1.5-.46,3.82-.79,6.59l-13.1,7.38-.85-3.64,14.74-10.34Zm-10.8,36.97l.93-4.7,2.9-.65,4.82,6.09-5.47,2.38-3.17-3.12Zm-6.72,72.35c-.88-.6-4.49-3.51-7.88-6.31l3.55-3.12,3.1,1.7,12.04,7.4c-3.98.13-9.57.3-10.81.33Zm-1.11-9.53l-1.98-1.08c1.11-2.35,5.04-10.84,8.9-21.16,6.02-16.08,9.05-28.8,9.01-37.83l2.45-1.06c2.72.31,6.42.76,8.88,1.06-.53,4.99-5.08,40.54-27.26,60.07Zm27.1-48.54c1.21-5.6,1.73-9.76,1.9-11.32.16.02.31.04.43.05,1.85,3.96,14.9,32.55,17.62,59.12l-2.57.74c-2.06-6.05-14.79-43.42-17.37-48.59Z"/><polygon class="cls-2" points="129.18 365.65 179.64 283 177.6 281.97 127.15 364.62 129.18 365.65"/><path class="cls-2" d="m179.48,246.55c-.42,3.31-.9,7.03-.99,8.77l-3.78,5.21.13.36c1.83,5.25,1.98,5.25,2.7,5.25h0s9.47,0,9.47,0l1.6-7.01-4.57-3.05c.56-2.07,2.48-9.17,3.52-13.06l-1.7-.38c-1.01,3.78-2.85,10.6-3.47,12.88l-2.13-.46c.13-1.81.58-5.38.96-8.32.3-2.36.56-4.4.64-5.36h.05c.77-3.49,1.75-6.65,2.84-9.47l3.72,4.35c-.88,1.84-1.73,3.88-2.53,6.17l1.67.49c2.13-6.08,4.51-10.47,7.08-13.1l.51,25.5h.1c5.02,31.65-5.4,63.98-5.5,64.31l-.03.1-2.22,3.33,14.42,5.59,9.87-5.47-13.87-3.23c5.24-10.05,8.65-24.28,10.81-36.91,4.16,9.2,10.28,37.58,10.52,38.68h0v5.33l17.6,2.47,6.96-8.53-17.07-.68c-.73-5.51-5.96-43.54-14.28-66.91l3.38-18.29c2.82,4.32,6.88,7.72,11.69,9.7,2.24.94,4.63,1.49,7.05,1.66l-.13.04,1.15,3.2,8.9,1.88,2.82-10.05-7.32-1.91-3.24,1.88c-14.62-5.3-17.49-19.71-17.92-22.59l.7-3.77-.72-.21c-2.36-.7-4.99-1.19-7.6-1.54l.65-2.48-.28-.06c4.36-1.24,8.03-5.71,8.85-11.41,1.03-7.14-2.8-13.52-8.54-14.21-2.99-.29-5.95.82-8.02,2.99-2.34,2.36-3.83,5.41-4.27,8.7-.53,3.24.06,6.55,1.65,9.42.82,1.53,2.05,2.76,3.51,3.61v2.83c-5.19-.3-9.3-.16-9.61-.15l-.85.03v.44c-1.24,1.19-10.26,10.25-14.15,27.95l1.33.24-1.4-.09c-.07.9-.34,3.05-.63,5.33Zm23.35-40.96c-1.42-2.57-1.94-5.55-1.46-8.45.38-2.95,1.72-5.7,3.81-7.82,1.49-1.57,3.54-2.48,5.71-2.55h0c.27,0,.54.01.81.04,4.79.58,7.94,6.15,7.04,12.42-.9,6.27-5.54,10.9-10.32,10.32-2.38-.36-4.46-1.83-5.58-3.96Zm5.35,5.55c.34.04.68.06,1.02.06h0c.28,0,.55-.02.83-.04l-.47,1.78-3.01-.35v-1.84c.53.17,1.07.32,1.63.39Zm-11.13,44.18h13.35c-.46,6.44-3.55,44.14-14.17,64.22l-4.48-.39c1.67-5.56,9.82-34.92,5.31-63.83Zm4.76,71.53l-11.73-4.55,1.07-1.6,5.41.47-.02.09,10.82,2.52-5.54,3.07Zm34.29.94l-15.08-2.12v-3.33l4.97-.45,14.46.57-4.36,5.34Zm-15.25-7.04c-1.11-5.12-7.59-34.44-11.63-40.47,1.6-9.97,2.43-18.63,2.77-22.93,7.52,23.16,12.26,57.35,13.02,63.02l-4.16.38Zm19.45-79.39l4.93,1.29-1.97,7.02-6.27-1.32-.84-2.34h-.01s1.3-2.98,1.3-2.98l2.87-1.66Zm-4.66,1.45l-.91,2.09c-2.5-.15-12.33-1.47-18.39-12.34l1.73-9.35c1.72,5.74,6.21,15.26,17.57,19.61Zm-18.06-26.56l-.42,2.28h-.11s.02.15.04.36l-2.52,13.61-.19.08c.04.08.09.15.13.23l-3.82,20.68h-.02s0,.02.01.03l-.04.2h-13.75l-.79-39.49c3.06-.06,13.69-.08,21.46,2.02Zm-23.19-.73l.24,12.28-.11-.12c-1.86,1.53-3.61,3.87-5.24,6.94l-3.83-4.47c3.18-7.56,6.97-12.42,8.94-14.63Zm-11.55,41.75l3.82,2.56-1.08,4.73h-7.52c-.31-.7-.91-2.3-1.43-3.77l3.05-4.2,3.17.69Z"/><path class="cls-2" d="m134.76,441.34c2.73,0,29.68,9.79,46.07,15.98h0s.89-1.97.89-1.97c-10.34-3.91-44.33-16.62-47.34-16.12l.41,2.1s-.04,0-.06,0h.02Z"/><path class="cls-2" d="m257.17,394.09c-.13-.19-1.66-2.69-2.6-4.23l-.06-.09-3.11-3.79-7.34,4.2v2.67l-12.25,3.36-5.94-11.25.91-3.93-.49-.3c-1.42-.88-3.24-1.55-5.2-2.04l.85-3.07c4.51-1.06,8.68-5.43,10.21-11.28,1.96-7.52-1.18-14.68-7-15.95-5.83-1.27-12.16,3.82-14.12,11.34-1.61,6.15.2,12.05,4.1,14.69l-.69,3.15c-4.05-.41-7.41-.35-7.69-.34l-.77.02-.04.36-16.95,11.89,5.1,21.94-1.1,5.79,4.65,4.56,3.57-1.56c-.32,20.69-16.78,55.57-17.99,58.1l-.23-.22-5.34,4.7.7.58c8.83,7.3,9.1,7.3,9.52,7.3h0c.41,0,12.43-.38,13.8-.42l2.7-.09-15.83-9.72c14.69-13.11,21.71-33.02,24.96-46.6,4.05,10.04,15.79,44.57,16.56,46.86v6.35l.99-.11c.08,0,7.82-.91,13.57-1.44l7.46-.42-.74-7.47-.86.06c-4.92.35-12.19.84-14.66,1.01-2.81-27.36-16.41-56.76-17.84-59.78l4.95-21.27,6.73,7.49,16.16-7.36,5.06,1.95.41-.31s4.65-3.51,5.61-4.12l-.54-.7.1-.06.73-.42Zm-44.43-33.98c1.57-6.01,6.11-10.31,10.57-10.31h0c.48,0,.97.05,1.44.15,4.88,1.07,7.44,7.35,5.7,14.02-1.74,6.66-7.13,11.22-12.01,10.16-4.88-1.07-7.44-7.35-5.7-14.02Zm5.29,15.57c.6.13,1.2.19,1.81.19h0c.08,0,.15-.01.23-.01l-.58,2.1-3.22-.56.46-2.13c.42.17.85.31,1.3.41Zm-10.48,3.15c2.77.01,12.33.26,17.26,2.94l-8.46,36.39c-2.08-.25-7.71-.94-11.24-1.35l-1.81-2.29c.93-8.02,3.73-31.32,4.25-35.69Zm-7.64,31.4l-1.73-18.2,6.46-3.66c-.95,7.9-2.19,18.34-2.88,24.21l-1.85-2.35Zm-1.79-.34l-2.48.55-3.49-15,4.35-2.47,1.61,16.92Zm7.55-30.09c-.18,1.5-.46,3.8-.78,6.54l-13.11,7.43-.84-3.63,14.74-10.34Zm-10.81,36.91l.88-4.64,2.96-.66,4.76,6.04-5.42,2.37-3.17-3.12Zm-6.78,72.36c-.88-.6-4.49-3.51-7.88-6.31l3.57-3.14,2.78,1.52h0s12.35,7.59,12.35,7.59c-3.98.13-9.57.3-10.81.34Zm-1.05-9.53l-1.98-1.09c1.11-2.35,5.04-10.84,8.9-21.16,6.02-16.09,9.05-28.82,9.01-37.85l2.29-1c2.73.31,6.52.77,9.03,1.08-.56,5.18-5.15,40.56-27.26,60.02Zm63.13,4.04l-5.7.32c-4.59.42-10.39,1.07-12.67,1.33v-4.05l3.27-.94v.09s8.66-.58,14.67-1.01l.42,4.26Zm-18.66-3.99c-2.06-6.05-14.78-43.4-17.37-48.59,1.2-5.54,1.72-9.66,1.89-11.27.18.02.33.04.46.06,1.94,4.15,14.88,32.61,17.59,59.06l-2.57.74Zm-1.4-76.48l-6.73-7.5,1.88-8.09,5.61,10.62,13.45-3.69.57,1.93-14.78,6.73Zm20.46-5.26l-3.86-1.49-.9-3.04v-2.26l5.15-2.95,2.11,2.57c.69,1.13,1.7,2.78,2.25,3.66-1.26.89-3.76,2.76-4.74,3.51Z"/><polygon class="cls-2" points="183.51 583.91 137.77 603.54 138.76 605.47 184.5 585.84 183.51 583.91"/><path class="cls-2" d="m245.92,646.92l6.96-8.53-17.08-.68c-.76-5.7-5.98-43.58-14.28-66.88l3.39-18.33c2.82,4.32,6.88,7.72,11.7,9.7,2.24.94,4.62,1.49,7.04,1.66l-.12.04,1.15,3.2,8.9,1.88,2.82-10.04-7.32-1.91-3.24,1.88c-14.62-5.31-17.49-19.71-17.92-22.59l.7-3.77-.72-.21c-2.36-.7-4.98-1.19-7.6-1.53l.65-2.48-.28-.06c1.73-.47,3.32-1.39,4.58-2.7,2.34-2.36,3.84-5.41,4.27-8.71,1.03-7.14-2.8-13.52-8.54-14.21-5.74-.69-11.26,4.55-12.29,11.7-.52,3.24.06,6.55,1.65,9.42.82,1.53,2.05,2.77,3.52,3.62v2.82c-5.19-.3-9.3-.16-9.61-.15l-.85.03v.44c-1.22,1.17-10.26,10.22-14.15,27.96l1.36.25-1.43-.09c-.07.9-.34,3.05-.63,5.33-.42,3.31-.9,7.02-.99,8.76l-3.78,5.21.13.36c1.83,5.25,1.98,5.25,2.7,5.25h0s9.47,0,9.47,0l1.6-7.01-4.57-3.05c.56-2.07,2.48-9.17,3.52-13.06l-1.7-.38c-1.01,3.78-2.85,10.6-3.47,12.88l-2.13-.46c.13-1.81.58-5.38.96-8.32.3-2.37.56-4.41.64-5.36h.05c.69-3.23,1.65-6.39,2.84-9.47l3.72,4.34c-.88,1.84-1.73,3.88-2.53,6.17l1.67.49c2.13-6.08,4.51-10.47,7.08-13.1l.51,25.5h.1c5.02,31.66-5.4,63.98-5.5,64.31l-.02.07-2.23,3.35,14.42,5.59,9.87-5.47-13.87-3.23c5.23-10.04,8.64-24.25,10.81-36.87,4.12,9.09,10.16,37.01,10.51,38.65v5.32l17.6,2.47Zm-34.05-123.92c-1.42-2.57-1.94-5.55-1.46-8.46.91-6.27,5.54-10.9,10.32-10.32h0c4.79.58,7.94,6.15,7.04,12.42-.38,2.95-1.72,5.7-3.81,7.82-1.67,1.79-4.07,2.71-6.51,2.5-2.38-.36-4.46-1.83-5.58-3.96Zm5.35,5.55c.35.04.7.06,1.04.06h0c.27,0,.54-.03.81-.06l-.47,1.79-3.01-.35v-1.83c.53.17,1.07.32,1.63.39Zm-25.32,46.13l3.81,2.55-1.08,4.73h-7.52c-.31-.69-.91-2.3-1.43-3.77l3.04-4.2,3.17.69Zm53.25,70.52l-15.08-2.12v-3.28l5.38-.49,14.05.56-4.36,5.34Zm4.2-86.44l4.93,1.29-1.97,7.02-6.27-1.32-.84-2.34h-.02s1.3-2.98,1.3-2.98l2.87-1.66Zm-4.66,1.45l-.91,2.09c-2.5-.15-12.33-1.47-18.39-12.35l1.73-9.36c1.72,5.74,6.21,15.26,17.57,19.61Zm-18.06-26.56l-.42,2.28h-.11s.01.15.04.35l-2.52,13.62-.19.08c.04.08.09.15.13.23l-3.84,20.74h0s0,0,0,.01l-.03.17h-13.75l-.79-39.49c3.06-.05,13.69-.08,21.46,2.02Zm-23.06,11.44c-1.86,1.53-3.61,3.87-5.24,6.94l-3.83-4.47c1.36-3.21,2.98-6.32,4.87-9.27,1.2-1.91,2.56-3.7,4.07-5.36l.24,12.27-.11-.12Zm2.53,27.64h13.35c-.46,6.43-3.55,44.14-14.17,64.22l-4.48-.39c1.67-5.56,9.82-34.92,5.31-63.83Zm4.75,71.53l-11.73-4.55,1.06-1.6,5.41.47-.03.09,10.82,2.52-5.54,3.07Zm10.19-69.46c7.53,23.16,12.26,57.36,13.02,63.03l-4.16.38c-1.11-5.12-7.6-34.47-11.64-40.48,1.6-9.96,2.43-18.6,2.78-22.93Z"/><polygon class="cls-2" points="190.61 697.91 150.7 648.01 148.81 649.27 188.73 699.17 190.61 697.91"/><path class="cls-2" d="m232.8,804.35c.08,0,7.82-.91,13.57-1.44l7.46-.42-.74-7.47-.86.06c-4.92.35-12.19.84-14.66,1.01-2.81-27.36-16.42-56.76-17.84-59.78l4.95-21.27,6.73,7.5,16.23-7.33,4.99,1.92.41-.31s4.65-3.51,5.61-4.12l-.54-.7.1-.06.73-.43c-.13-.19-1.66-2.69-2.6-4.23l-.06-.09-3.11-3.79-7.34,4.2v2.68l-12.25,3.36-5.94-11.26.91-3.93-.49-.3c-1.42-.88-3.24-1.54-5.2-2.04l.85-3.08c1.74-.39,3.36-1.2,4.72-2.39,2.71-2.32,4.63-5.43,5.48-8.89,1.96-7.52-1.17-14.68-7-15.95s-12.16,3.82-14.12,11.34c-.95,3.36-.78,6.94.5,10.19.7,1.87,1.97,3.43,3.6,4.49l-.69,3.16c-4.05-.41-7.41-.35-7.68-.35l-.77.02-.04.36-16.95,11.89,5.1,21.94-1.1,5.8,4.65,4.56,3.57-1.56c-.32,20.84-17.04,56.1-18.01,58.14l-.21-.2-5.35,4.7.7.57c8.83,7.3,9.1,7.3,9.52,7.3h0c.41,0,12.43-.38,13.8-.42l2.7-.09-15.86-9.74c14.71-13.1,21.74-33.04,24.99-46.63,4.05,10.04,15.79,44.57,16.56,46.87v6.34l.99-.11Zm-17.88-117.59c-1.15-2.95-1.3-6.2-.43-9.24,1.74-6.67,7.13-11.22,12.01-10.16h0c4.88,1.06,7.44,7.35,5.7,14.02-.77,3.14-2.5,5.96-4.95,8.07-1.9,1.75-4.51,2.52-7.06,2.09-2.44-.62-4.41-2.41-5.27-4.78Zm4.86,6.33c.61.13,1.23.2,1.85.2h0c.06,0,.12-.01.19-.01l-.58,2.09-3.22-.56.47-2.14c.42.17.85.32,1.29.43Zm32.15,107.9l-5.7.32c-4.59.42-10.39,1.07-12.67,1.33v-4.05l3.27-.94v.09s8.66-.58,14.67-1.01l.42,4.26Zm.79-95.47l2.11,2.57c.69,1.13,1.7,2.78,2.25,3.66-1.26.89-3.76,2.76-4.75,3.51l-3.88-1.49-.88-3.04v-2.26l5.15-2.95Zm-20.08,10.03l13.45-3.69.58,1.98-14.78,6.68-6.73-7.5,1.88-8.1,5.61,10.63Zm-23.32-19.31c2.77.01,12.33.26,17.26,2.94l-8.46,36.39c-2.08-.26-7.72-.94-11.25-1.35l-1.8-2.29c.93-8.01,3.73-31.32,4.25-35.69Zm-7.64,31.4l-1.73-18.2,6.47-3.67c-.95,7.9-2.19,18.35-2.88,24.22l-1.85-2.35Zm-1.79-.33l-2.48.55-3.49-15,4.35-2.47,1.61,16.92Zm7.55-30.09c-.18,1.49-.45,3.79-.78,6.53l-13.12,7.44-.84-3.63,14.74-10.34Zm-10.81,36.91l.88-4.64,2.96-.66,4.76,6.04-5.42,2.37-3.17-3.12Zm-6.77,72.41c-.88-.6-4.49-3.51-7.88-6.31l3.61-3.17,2.77,1.52-.03.05,12.35,7.58c-3.98.13-9.57.3-10.81.33Zm-1.05-9.58l-1.98-1.08c1.11-2.35,5.04-10.84,8.9-21.16,6.02-16.1,9.05-28.83,9.01-37.86l2.29-1c2.73.31,6.52.77,9.03,1.08-.56,5.17-5.14,40.56-27.26,60.02Zm28.99-59.81c.18.02.33.04.46.06,1.94,4.14,14.88,32.6,17.59,59.06l-2.57.74c-2.06-6.05-14.78-43.41-17.37-48.59,1.2-5.54,1.72-9.67,1.89-11.27Z"/><polygon class="cls-2" points="283.47 126.69 230.36 204.03 232.34 205.16 285.44 127.82 283.47 126.69"/><path class="cls-2" d="m301.06,34.74c-.81,5.59,1.37,10.69,5.1,12.99v2.87c-5.19-.3-9.3-.16-9.61-.15l-.85.03v.44c-.9.85-10.24,9.9-14.21,28.01l.82.15-.83-.05c-.07.9-.34,3.05-.63,5.32-.42,3.31-.9,7.04-.99,8.77l-3.78,5.21.13.36c1.83,5.25,1.98,5.25,2.7,5.25h0s9.47,0,9.47,0l1.6-7.01-4.57-3.05c.56-2.07,2.48-9.17,3.52-13.06l-1.7-.38c-1.01,3.78-2.85,10.6-3.47,12.88l-2.13-.46c.13-1.81.58-5.39.96-8.32.3-2.35.56-4.38.64-5.35.69-3.22,1.65-6.37,2.83-9.44l3.73,4.32c-.89,1.85-1.74,3.9-2.55,6.21l1.67.49c2.15-6.12,4.54-10.53,7.14-13.15l.51,25.5h.1c5.02,31.67-5.4,63.98-5.5,64.31l-.03.1-2.28,3.38,14.48,5.59,9.86-5.46-13.86-3.28c5.23-10.04,8.64-24.25,10.81-36.87,4.17,9.21,10.31,37.72,10.52,38.69h0v5.27l17.6,2.47,6.9-8.48-17.01-.68c-.73-5.52-5.96-43.56-14.29-66.93l3.39-18.33c2.82,4.32,6.88,7.72,11.7,9.7,2.28.95,4.7,1.51,7.17,1.67l-.25.07,1.08,3.16,8.9,1.88,2.89-10.04-7.34-1.92-3.19,1.89c-14.68-5.3-17.54-19.71-17.97-22.61l.7-3.77-.72-.21c-2.36-.7-4.98-1.19-7.6-1.53l.6-2.43-.32-.06c1.79-.46,3.43-1.39,4.74-2.74,2.34-2.36,3.83-5.41,4.27-8.7,1.03-7.15-2.8-13.52-8.54-14.22-.36-.04-.71-.06-1.07-.06h0c-5.34.03-10.24,5.06-11.21,11.76Zm-16.85,60.34l3.81,2.55-1.08,4.73h-7.52c-.31-.7-.91-2.3-1.43-3.77l3.05-4.2,3.17.69Zm11.61-29.53c-1.85,1.53-3.59,3.86-5.22,6.91l-3.85-4.45c1.36-3.21,2.98-6.31,4.87-9.26,1.21-1.93,2.6-3.74,4.13-5.42l.25,12.4-.17-.18Zm2.58,27.58h13.35c-.46,6.44-3.55,44.14-14.17,64.22l-4.48-.39c1.67-5.56,9.82-34.92,5.31-63.83Zm4.76,71.59l-11.78-4.55,1.11-1.65,5.41.47-.03.09,10.83,2.56-5.55,3.07Zm34.29.89l-15.08-2.12v-3.28l4.97-.45,14.41.57-4.3,5.28Zm-15.25-6.99c-1.12-5.12-7.6-34.45-11.64-40.47,1.6-9.96,2.43-18.61,2.78-22.93,7.53,23.16,12.26,57.36,13.02,63.03l-4.16.38Zm19.45-79.44l4.92,1.29-2.02,7.02-6.27-1.32-.78-2.28h-.05s1.3-2.98,1.3-2.98l2.9-1.73Zm-4.67,1.45l-.91,2.09c-2.5-.15-12.33-1.47-18.39-12.34l1.73-9.35c1.72,5.74,6.21,15.26,17.57,19.61Zm-18.48-24.28h-.11s.02.15.04.36l-2.52,13.61-.19.08c.04.08.09.15.13.23l-3.84,20.74h0s0,.01,0,.01l-.03.16h-13.75l-.79-39.49c3.06-.06,13.69-.08,21.46,2.02l-.42,2.28Zm-7.62-5.53l-3-.35v-1.89c.54.18,1.11.33,1.7.4.35.04.7.06,1.04.06.24,0,.47-.03.71-.05l-.45,1.83Zm9.24-13.75c-.38,2.95-1.72,5.7-3.81,7.82-1.67,1.79-4.07,2.71-6.51,2.5-4.79-.58-7.94-6.15-7.04-12.42.9-6.27,5.54-10.9,10.32-10.32,4.79.58,7.94,6.15,7.04,12.42Z"/><polygon class="cls-2" points="310.65 49.01 310.65 49.01 310.65 49.01 310.65 49.01"/><polygon class="cls-2" points="279.7 295.36 238.26 277.76 237.28 279.7 278.71 297.3 279.7 295.36"/><path class="cls-2" d="m352.13,231.95c-.13-.19-1.66-2.69-2.6-4.22l-.06-.09-3.11-3.79-7.34,4.2v2.68l-12.25,3.36-5.99-11.35.9-3.89-.49-.3c-1.41-.88-3.21-1.53-5.13-2.03l.81-3.1c1.73-.39,3.35-1.2,4.7-2.38,2.71-2.32,4.63-5.43,5.48-8.89.95-3.36.78-6.94-.5-10.19-1.07-2.88-3.51-5.03-6.49-5.75-3.1-.57-6.3.34-8.64,2.46-2.71,2.32-4.63,5.42-5.49,8.88-.95,3.36-.78,6.94.5,10.19.7,1.87,1.97,3.43,3.6,4.49l-.69,3.16c-4.05-.41-7.41-.35-7.69-.34l-.77.02-.04.36-16.95,11.94,5.16,21.89-1.09,5.83,4.58,4.56,3.58-1.55c-.32,20.61-16.66,55.29-17.97,58.05l-.19-.18-5.34,4.7.7.58c8.83,7.3,9.1,7.3,9.52,7.3h0c.35,0,12.43-.38,13.8-.42l2.7-.09-15.86-9.74c14.7-13.13,21.72-33.09,24.96-46.67,4.02,9.93,15.83,44.69,16.6,46.96v6.34l.99-.11c.08,0,7.82-.91,13.58-1.44l7.46-.42-.74-7.47-.86.06c-4.92.35-12.19.84-14.66,1.01-2.84-27.66-16.72-57.43-17.89-59.88l4.93-21.19,6.8,7.51,16.19-7.4,5.02,1.94.41-.31s4.65-3.51,5.61-4.12l-.52-.67.08-.05.72-.42Zm-44.06-24.79c-1.15-2.95-1.3-6.2-.43-9.24.77-3.14,2.5-5.96,4.95-8.07,1.9-1.75,4.51-2.52,7.06-2.09h0c2.44.62,4.41,2.41,5.27,4.78,1.15,2.95,1.3,6.2.43,9.24-.77,3.14-2.5,5.96-4.95,8.07-1.9,1.75-4.51,2.52-7.06,2.09-2.44-.62-4.41-2.41-5.27-4.78Zm4.86,6.33c.61.13,1.23.2,1.85.2h0c.07,0,.15,0,.22-.01l-.56,2.14-3.28-.6.47-2.15c.42.17.85.32,1.29.42Zm-10.47,3.16c2.77.01,12.33.26,17.26,2.94l-8.46,36.39c-2.08-.26-7.69-.94-11.22-1.34l-1.82-2.33c.94-8.05,3.72-31.29,4.25-35.65Zm-7.58,31.4l-1.78-18.15,6.45-3.64c-.94,7.86-2.18,18.23-2.87,24.09l-1.8-2.3Zm-1.79-.33l-2.48.55-3.53-14.98,4.35-2.45,1.66,16.88Zm7.49-30.09c-.18,1.51-.46,3.84-.79,6.61l-13.1,7.38-.85-3.61,14.74-10.38Zm-10.75,36.96l.88-4.7,2.95-.65,4.77,6.09-5.47,2.38-3.12-3.11Zm-6.78,72.35c-.88-.6-4.49-3.51-7.88-6.31l3.55-3.12,3.09,1.69,12.05,7.4c-3.98.12-9.57.3-10.81.33Zm-1.11-9.53l-1.98-1.08c1.11-2.35,5.04-10.84,8.9-21.16,6.02-16.08,9.05-28.8,9.01-37.83l2.44-1.06c2.72.31,6.42.76,8.89,1.06-.54,5-5.08,40.54-27.26,60.07Zm63.19,4.04l-5.7.32c-4.59.42-10.39,1.07-12.67,1.33v-4.06l3.27-.94v.09s8.66-.58,14.67-1.01l.42,4.26Zm-18.66-3.99c-2.07-6.08-14.92-43.79-17.41-48.67,1.2-5.56,1.71-9.68,1.88-11.24.2.02.36.04.49.06,1.87,4,14.89,32.56,17.61,59.11l-2.57.74Zm-1.4-76.48l-6.79-7.51h0s1.9-8.18,1.9-8.18l5.66,10.72,13.44-3.69.54,1.93-14.74,6.73Zm20.46-5.31l-3.94-1.52-.82-2.95v-2.27l5.15-2.95,2.11,2.57c.68,1.11,1.67,2.73,2.22,3.62-1.27.9-3.74,2.75-4.73,3.49Z"/><rect class="cls-2" x="239.75" y="429.67" width="44.71" height="2.13"/><path class="cls-2" d="m281.72,401.76c-.42,3.31-.9,7.04-.99,8.77l-3.78,5.21.13.36c1.83,5.25,1.98,5.25,2.7,5.25h0s9.47,0,9.47,0l1.6-7.01-4.57-3.05c.56-2.07,2.48-9.17,3.52-13.06l-1.7-.38c-1.01,3.78-2.85,10.6-3.47,12.88l-2.13-.46c.13-1.81.58-5.39.96-8.32.3-2.35.56-4.38.64-5.35.69-3.22,1.65-6.38,2.83-9.44l3.73,4.32c-.89,1.85-1.74,3.91-2.55,6.22l1.67.48c2.15-6.12,4.54-10.53,7.14-13.15l.51,25.5h.1c5.02,31.67-5.4,63.98-5.5,64.31l-.03.1-2.28,3.38,14.48,5.59,9.86-5.46-13.86-3.28c5.23-10.04,8.64-24.25,10.81-36.87,4.17,9.22,10.32,37.75,10.52,38.69h0v5.27l17.6,2.52,6.9-8.53-17.01-.68c-.73-5.51-5.96-43.56-14.29-66.93l3.39-18.33c2.82,4.32,6.88,7.72,11.69,9.7,2.28.95,4.7,1.51,7.16,1.67l-.24.07,1.08,3.16,8.91,1.88,2.89-10.04-7.34-1.91-3.19,1.89c-14.65-5.29-17.53-19.7-17.97-22.6l.7-3.77-.72-.21c-2.36-.7-4.98-1.19-7.6-1.53l.6-2.44-.3-.06c4.42-1.18,8.16-5.69,8.99-11.45,1.03-7.14-2.8-13.52-8.54-14.21-2.99-.29-5.95.82-8.02,2.99-2.34,2.36-3.84,5.41-4.27,8.7-.53,3.24.06,6.55,1.65,9.42.81,1.51,2.02,2.73,3.45,3.58v2.87c-5.19-.3-9.3-.16-9.61-.15l-.85.03v.44c-.9.85-10.24,9.9-14.21,28.01l.82.15-.83-.05c-.07.9-.34,3.05-.63,5.32Zm23.41-40.95c-1.42-2.57-1.94-5.55-1.46-8.46.38-2.95,1.72-5.7,3.81-7.82,1.49-1.57,3.54-2.48,5.71-2.55.27,0,.54.02.81.05,4.79.58,7.94,6.15,7.04,12.42-.9,6.27-5.53,10.9-10.32,10.32-2.38-.36-4.46-1.83-5.58-3.96Zm5.35,5.55c.34.04.68.06,1.02.06h0c.24,0,.49-.02.73-.04l-.45,1.82-3-.35v-1.91c.55.19,1.11.33,1.69.42Zm-11.19,44.17h13.35c-.46,6.44-3.55,44.14-14.17,64.22l-4.48-.39c1.67-5.56,9.82-34.92,5.31-63.83Zm4.76,71.59l-11.78-4.55,1.11-1.65,5.41.47-.03.09,10.83,2.57-5.55,3.07Zm34.29.94l-15.08-2.17v-3.29l4.96-.45,14.43.57-4.31,5.33Zm-15.25-7.04c-1.12-5.12-7.6-34.45-11.64-40.47,1.6-9.96,2.43-18.61,2.78-22.93,7.52,23.16,12.26,57.36,13.02,63.02l-4.16.38Zm19.45-79.44l4.92,1.28-2.02,7.03-6.27-1.32-.78-2.28h-.05s1.3-2.98,1.3-2.98l2.9-1.73Zm-4.67,1.45l-.91,2.09c-2.5-.15-12.33-1.47-18.39-12.34l1.73-9.35c1.72,5.74,6.21,15.26,17.57,19.6Zm-18.05-26.56l-.42,2.28h-.11s.02.15.04.36l-2.52,13.6-.19.08c.04.08.09.16.13.24l-3.83,20.73h0s0,.01,0,.01l-.03.16h-13.75l-.79-39.49c3.06-.06,13.69-.08,21.46,2.02Zm-23.19-.73l.25,12.4-.17-.18c-1.85,1.53-3.59,3.86-5.22,6.91l-3.85-4.45c1.36-3.21,2.98-6.31,4.87-9.26,1.21-1.93,2.6-3.74,4.13-5.42Zm-11.54,41.76l3.82,2.56-1.08,4.73h-7.52c-.31-.7-.91-2.3-1.43-3.77l3.05-4.2,3.16.69Z"/><rect class="cls-2" x="236.95" y="593.63" width="46.16" height="2.13"/><path class="cls-2" d="m351.54,548.82c-.13-.19-1.66-2.69-2.6-4.22l-.06-.09-3.11-3.79-7.34,4.2v2.67l-12.25,3.36-5.99-11.35.9-3.89-.49-.3c-1.41-.88-3.21-1.53-5.14-2.03l.81-3.09c1.73-.39,3.35-1.2,4.7-2.38,2.71-2.32,4.63-5.42,5.48-8.89.95-3.36.78-6.94-.5-10.19-1.07-2.88-3.51-5.04-6.49-5.76-3.1-.57-6.3.34-8.64,2.46-2.71,2.32-4.63,5.42-5.48,8.89-.95,3.36-.78,6.94.5,10.19.7,1.87,1.97,3.42,3.59,4.49l-.69,3.16c-4.05-.41-7.41-.35-7.69-.35l-.77.02-.04.35-16.95,11.95,5.16,21.89-1.1,5.84,4.58,4.56,3.58-1.55c-.32,20.61-16.66,55.3-17.97,58.05l-.19-.18-5.34,4.7.7.57c8.83,7.3,9.1,7.3,9.52,7.3h0c.36,0,12.43-.38,13.8-.42l2.7-.09-15.86-9.74c14.7-13.13,21.72-33.09,24.96-46.67,4.02,9.93,15.83,44.69,16.6,46.96v6.34l.99-.11c.08,0,7.82-.91,13.57-1.44l7.46-.42-.74-7.47-.86.06c-4.92.35-12.19.84-14.66,1.01-2.84-27.66-16.72-57.42-17.89-59.88l4.93-21.19,6.8,7.51,16.13-7.37,5.08,1.96.41-.31s4.65-3.51,5.61-4.12l-.54-.7.11-.07.72-.42Zm-44.05-24.78c-1.15-2.95-1.3-6.2-.43-9.24.77-3.14,2.5-5.96,4.95-8.07,1.56-1.38,3.55-2.17,5.62-2.24.48,0,.96.05,1.43.15,2.44.62,4.41,2.41,5.27,4.78,1.15,2.95,1.3,6.2.43,9.24-.77,3.14-2.5,5.96-4.95,8.07-1.9,1.75-4.51,2.52-7.06,2.09-2.44-.62-4.41-2.41-5.27-4.78Zm4.86,6.33c.61.13,1.23.2,1.85.2h0c.07,0,.14-.01.22-.02l-.56,2.14-3.28-.6.47-2.15c.42.17.85.32,1.3.43Zm-10.48,3.15c2.77.01,12.33.26,17.26,2.94l-8.46,36.39c-2.08-.25-7.69-.94-11.23-1.34l-1.82-2.31c.94-8.03,3.73-31.3,4.25-35.67Zm-7.58,31.44l-1.78-18.17,6.45-3.66c-.94,7.88-2.18,18.25-2.87,24.11l-1.8-2.28Zm-1.79-.34l-2.48.52-3.52-14.94,4.34-2.46,1.66,16.88Zm7.49-30.13c-.18,1.51-.46,3.84-.79,6.63l-13.09,7.42-.86-3.66,14.74-10.39Zm-10.75,36.96l.88-4.69,2.95-.62,4.77,6.05-5.47,2.38-3.12-3.12Zm-6.78,72.35c-.88-.6-4.49-3.51-7.88-6.31l3.55-3.12,3.08,1.69,12.06,7.41c-3.98.13-9.57.3-10.81.33Zm-1.11-9.53l-1.98-1.08c1.11-2.35,5.04-10.84,8.9-21.16,6.02-16.09,9.05-28.81,9.01-37.83l2.44-1.06c2.72.31,6.42.76,8.89,1.06-.54,4.99-5.08,40.54-27.26,60.07Zm63.19,4.04l-5.7.32c-4.59.42-10.39,1.07-12.67,1.33v-4.06l3.27-.94v.09s8.66-.58,14.67-1.01l.42,4.26Zm-18.66-4c-2.07-6.08-14.91-43.78-17.41-48.67,1.2-5.56,1.71-9.68,1.88-11.24.19.02.36.04.49.06,1.87,3.99,14.89,32.56,17.61,59.11l-2.57.74Zm-1.4-76.48l-6.79-7.51h0s1.9-8.18,1.9-8.18l5.66,10.72,13.44-3.69.54,1.93-14.74,6.74Zm20.46-5.26l-3.92-1.51-.84-3.03v-2.25l5.15-2.95,2.11,2.57c.69,1.13,1.7,2.78,2.25,3.66-1.26.89-3.76,2.76-4.74,3.51Z"/><path class="cls-2" d="m244.41,756.84l1.42,1.69s-.03.02-.04.03c1.71-.93,28.53-9.36,46.16-14.8l-.75-2.02c-10.59,3.27-45.24,14.01-46.79,15.1Z"/><polygon class="cls-2" points="245.78 758.57 245.79 758.56 245.78 758.56 245.78 758.57"/><path class="cls-2" d="m356.66,714.68l-7.33-1.91-3.24,1.88c-14.65-5.32-17.5-19.72-17.92-22.59l.7-3.76-.72-.21c-2.36-.7-4.98-1.19-7.59-1.53l.65-2.48-.14-.03c1.69-.48,3.25-1.39,4.49-2.67,2.34-2.36,3.83-5.41,4.27-8.7,1.03-7.14-2.8-13.52-8.54-14.21s-11.25,4.56-12.29,11.7c-.52,3.24.06,6.55,1.65,9.42.81,1.51,2.02,2.73,3.46,3.58v2.8c-5.19-.3-9.3-.16-9.61-.15l-.85.03v.49c-1.21,1.16-10.26,10.22-14.15,27.96l.93.17-1-.06c-.07.9-.34,3.05-.63,5.33-.42,3.3-.89,7.01-.99,8.75l-3.78,5.21.13.36c1.83,5.25,1.98,5.25,2.7,5.25h0s9.47,0,9.47,0l1.6-7.01-4.57-3.05c.56-2.07,2.48-9.16,3.52-13.05l-1.7-.38c-1.01,3.78-2.85,10.6-3.47,12.88l-2.13-.46c.13-1.81.58-5.38.96-8.32.3-2.33.55-4.34.63-5.31h.05c.69-3.23,1.65-6.39,2.84-9.47l3.72,4.35c-.88,1.84-1.73,3.88-2.53,6.17l1.67.49c2.13-6.08,4.51-10.47,7.08-13.1l.51,25.44h.1c5.02,31.66-5.4,63.98-5.5,64.31l-.03.09-2.28,3.39,14.48,5.59,9.86-5.46-13.86-3.28c5.23-10.04,8.64-24.25,10.81-36.87,4.17,9.21,10.31,37.7,10.52,38.69h0v5.27l17.6,2.47,6.9-8.48-17.01-.68c-.73-5.52-5.96-43.56-14.29-66.93l3.39-18.33c2.82,4.32,6.88,7.72,11.7,9.7,2.24.94,4.62,1.49,7.04,1.66l-.12.04,1.14,3.2,8.84,1.88,2.88-10.04h0Zm-44.47-35.88c-1.42-2.57-1.94-5.55-1.46-8.45.91-6.27,5.53-10.9,10.32-10.32h0c4.79.58,7.94,6.15,7.04,12.42-.38,2.95-1.72,5.7-3.81,7.82-1.67,1.79-4.07,2.71-6.51,2.5-2.38-.36-4.46-1.83-5.58-3.96Zm5.35,5.55c.35.04.7.06,1.04.06h0c.25-.01.5-.03.74-.06l-.46,1.78-3.01-.35v-1.84c.54.18,1.1.33,1.68.41Zm-25.37,46.07l3.8,2.54-1.08,4.72h-7.52c-.31-.69-.91-2.3-1.43-3.77l3.04-4.19,3.19.69Zm11.66-29.54c-1.86,1.53-3.6,3.87-5.24,6.94l-3.83-4.48c1.36-3.21,2.98-6.32,4.87-9.26,1.2-1.91,2.56-3.7,4.07-5.36l.24,12.28-.11-.12Zm2.53,27.58h13.35c-.46,6.43-3.55,44.14-14.17,64.22l-4.48-.39c1.67-5.56,9.82-34.93,5.3-63.83Zm4.76,71.59l-11.78-4.55,1.11-1.65,5.41.47-.03.09,10.83,2.56-5.55,3.07Zm34.29.89l-15.08-2.12v-3.28l4.98-.46,14.4.57-4.3,5.28Zm-15.25-6.99c-1.11-5.12-7.6-34.47-11.64-40.48,1.6-9.96,2.43-18.61,2.78-22.93,7.52,23.16,12.26,57.35,13.02,63.02l-4.16.38Zm-10.17-67.26h0s0,0,0,.01l-.03.16h-13.75l-.79-39.49c3.06-.06,13.69-.08,21.46,2.02l-.42,2.28h-.11s.01.15.04.35l-2.52,13.62-.19.08c.04.08.09.15.13.23l-3.84,20.74Zm5.65-20.99l1.73-9.36c1.72,5.74,6.21,15.26,17.57,19.61l-.91,2.09c-2.5-.15-12.33-1.47-18.39-12.35Zm26.87,17.11l-6.22-1.32-.84-2.34h-.01s1.3-2.99,1.3-2.99l2.87-1.66,4.93,1.29-2.02,7.02Z"/><polygon class="cls-2" points="292.44 855.86 249.12 811.39 247.38 812.81 290.7 857.28 292.44 855.86"/><path class="cls-2" d="m355.1,874.22c-.13-.19-1.66-2.69-2.6-4.22l-.06-.09-3.1-3.79-7.34,4.2v2.67l-12.26,3.36-5.95-11.27.92-3.97-.49-.3c-1.42-.88-3.24-1.54-5.18-2.04l.84-3.04c4.49-1.09,8.62-5.44,10.14-11.26,1.96-7.52-1.17-14.68-7-15.95-3.1-.57-6.3.34-8.64,2.45-2.71,2.32-4.63,5.43-5.48,8.89-1.6,6.15.2,12.04,4.09,14.69l-.68,3.1c-4.02-.4-7.36-.34-7.63-.34l-.77.02-.04.36-16.95,11.89,5.1,21.94-1.09,5.84,4.58,4.5,3.57-1.52c-.31,20.6-16.65,55.3-17.97,58.07l-.19-.18-5.35,4.7.7.57c8.83,7.3,9.1,7.3,9.52,7.3h0c.41,0,12.43-.38,13.8-.42l2.7-.09-15.86-9.74c14.7-13.13,21.72-33.09,24.96-46.67,4.02,9.93,15.83,44.69,16.6,46.96v6.34l.99-.11c.08,0,7.82-.91,13.57-1.44l7.46-.42-.74-7.47-.86.06c-4.92.35-12.19.84-14.66,1.01-2.81-27.41-16.47-56.87-17.85-59.8l4.95-21.27,6.74,7.45,16.23-7.33,4.99,1.93.41-.31s4.65-3.51,5.61-4.12l-.52-.67.09-.05.71-.42Zm-44.49-33.97c.77-3.14,2.5-5.96,4.95-8.07,1.56-1.38,3.55-2.17,5.62-2.24h0c.48,0,.96.05,1.43.15,4.88,1.06,7.44,7.35,5.7,14.02s-7.13,11.22-12.01,10.16c-4.88-1.07-7.44-7.35-5.7-14.02Zm5.29,15.57c.6.13,1.2.19,1.81.19h0c.1,0,.19-.01.29-.02l-.58,2.09-3.29-.6.45-2.08c.42.17.85.32,1.31.41Zm-10.41,3.1c2.77.01,12.33.26,17.26,2.94l-8.46,36.39c-2.09-.26-7.76-.95-11.28-1.35l-1.77-2.26c.93-7.99,3.73-31.34,4.25-35.72Zm-7.64,31.39l-1.78-18.15,6.51-3.67c-.95,7.9-2.19,18.33-2.88,24.18l-1.85-2.37Zm-1.79-.33l-2.48.55-3.49-15,4.3-2.43,1.66,16.88Zm7.55-30.09c-.18,1.5-.46,3.82-.79,6.58l-13.11,7.39-.84-3.63,14.74-10.34Zm-10.81,36.96l.88-4.69,2.95-.66,4.76,6.08-5.47,2.33-3.12-3.07Zm-6.78,72.36c-.88-.6-4.49-3.51-7.88-6.31l3.55-3.12,3.12,1.71,12.03,7.39c-3.98.13-9.57.3-10.81.33Zm-1.11-9.53l-1.98-1.08c1.11-2.35,5.04-10.84,8.9-21.16,6.02-16.09,9.05-28.82,9.01-37.85l2.46-1.05c2.71.31,6.39.76,8.87,1.06-.53,4.96-5.07,40.54-27.26,60.08Zm63.19,4.04l-5.7.32c-4.59.42-10.39,1.07-12.67,1.33v-4.06l3.27-.94v.09s8.66-.58,14.67-1.01l.42,4.26Zm-18.66-3.99c-2.07-6.08-14.92-43.79-17.41-48.67,1.2-5.57,1.71-9.7,1.88-11.25.19.02.35.04.49.06,1.85,3.96,14.9,32.55,17.62,59.12l-2.57.74Zm-1.4-76.53l-6.74-7.46,1.88-8.1,5.61,10.63,13.45-3.69.57,1.93-14.78,6.68Zm20.46-5.26l-3.88-1.5-.87-2.96v-2.28l5.15-2.95,2.11,2.57c.68,1.11,1.67,2.73,2.22,3.62-1.27.9-3.74,2.75-4.73,3.49Z"/></svg>