<?xml version="1.0" encoding="utf-8"?>
<!-- Generator: Adobe Illustrator 27.8.1, SVG Export Plug-In . SVG Version: 6.00 Build 0)  -->
<svg version="1.1" id="Layer_1" xmlns="http://www.w3.org/2000/svg" xmlns:xlink="http://www.w3.org/1999/xlink" x="0px" y="0px"
	 viewBox="0 0 500 500" style="enable-background:new 0 0 500 500;" xml:space="preserve">
<style type="text/css">
	.st0{fill:none;}
	.st1{fill:#27AAE1;}
	.st2{fill:#010101;}
</style>
<g>
	<path class="st0" d="M216.3,186.5c0.4-2.9-1-5.5-3.3-5.8l0,0c-2.2-0.3-4.4,1.9-4.8,4.8s1,5.5,3.3,5.8
		C213.7,191.5,215.8,189.4,216.3,186.5z"/>
	<path class="st0" d="M212.4,212.4h-6.2c2.1,13.4-1.7,27-2.5,29.6l2.1,0.2C210.8,232.8,212.2,215.4,212.4,212.4z"/>
	<path class="st0" d="M212,192.8l0.2-0.8c-0.1,0-0.2,0-0.4,0l0,0c-0.2,0-0.3,0-0.5,0c-0.3,0-0.5-0.1-0.8-0.2v0.8L212,192.8z"/>
	<path class="st0" d="M207.5,288l-1.1,0.5c0,4.2-1.4,10.1-4.2,17.5c-1.8,4.8-3.6,8.7-4.1,9.8l0.9,0.5c10.3-9.1,12.4-25.5,12.6-27.8
		C210.4,288.3,208.7,288.1,207.5,288z"/>
	<path class="st0" d="M220.7,316c-1.3-12.3-7.3-25.6-8.2-27.4c-0.1,0-0.1,0-0.2,0c-0.1,0.7-0.3,2.6-0.9,5.2c1.2,2.4,7.1,19.7,8,22.5
		L220.7,316z"/>
	<polygon class="st0" points="206,242.9 203.5,242.7 203,243.5 208.4,245.6 211,244.1 205.9,243 	"/>
	<path class="st0" d="M211.8,224c1.9,2.9,4.9,16.4,5.4,18.7l1.9-0.2c-0.3-2.6-2.5-18.4-6-29.1C213,215.5,212.6,219.4,211.8,224z"/>
	<polygon class="st0" points="224.3,208.1 224.3,208.1 224.7,209.2 227.6,209.8 228.5,206.5 226.2,205.9 224.9,206.8 	"/>
	<polygon class="st0" points="217.3,243.5 217.3,245 224.3,246 226.3,243.5 219.6,243.3 	"/>
	<path class="st0" d="M197.5,316.4l-1.6,1.4c1.6,1.3,3.2,2.6,3.7,2.9c0.6,0,3.2-0.1,5-0.2l-5.6-3.4L197.5,316.4z"/>
	<path class="st0" d="M226.6,277.7l1.8,0.7c0.5-0.3,1.6-1.2,2.2-1.6c-0.3-0.4-0.7-1.2-1-1.7l-1-1.2l-2.4,1.4v1.1L226.6,277.7z"/>
	<path class="st0" d="M221.2,316.6l-1.5,0.4v1.9c1.1-0.1,3.7-0.4,5.9-0.6l2.6-0.1l-0.2-2C225.2,316.4,221.2,316.7,221.2,316.6
		L221.2,316.6z"/>
	<path class="st0" d="M223.6,207.6l0.4-1c-5.2-2-7.3-6.4-8.1-9l-0.8,4.3C218,206.9,222.5,207.5,223.6,207.6z"/>
	<polygon class="st0" points="204.4,284.7 203,285 202.6,287.2 204.1,288.7 206.6,287.5 	"/>
	<path class="st0" d="M214,269.2l0.3-1c0,0-0.1,0-0.1,0v0c-0.3,0-0.6,0-0.9-0.1c-0.2,0-0.4-0.1-0.6-0.2l-0.2,1L214,269.2z"/>
	<polygon class="st0" points="215.8,277.4 218.9,280.9 225.8,277.8 225.5,276.9 219.3,278.6 216.7,273.7 215.8,277.4 	"/>
	<path class="st0" d="M207.2,273.1c0.2-1.3,0.3-2.4,0.4-3.1l-6.8,4.8l0.4,1.7L207.2,273.1z"/>
	<polygon class="st0" points="203,284.3 204.1,284 203.3,276.2 201.3,277.3 	"/>
	<path class="st0" d="M207.1,274.1l-3,1.7l0.8,8.4l0.9,1.1C206.1,282.5,206.7,277.7,207.1,274.1z"/>
	<path class="st0" d="M207.3,287.2c1.6,0.2,4.2,0.5,5.2,0.6l3.9-16.9c-2.3-1.2-6.7-1.4-8-1.4c-0.2,2-1.5,12.8-2,16.5L207.3,287.2z"
		/>
	<path class="st0" d="M202.6,202.8c0.8-1.4,1.6-2.5,2.4-3.2l0.1,0.1L205,194c-0.7,0.8-1.4,1.6-1.9,2.5c-0.9,1.4-1.6,2.8-2.2,4.3
		L202.6,202.8z"/>
	<path class="st0" d="M242.6,141.4c0.2,0.7,0.5,1.4,0.7,1.7h3.5l0.5-2.2l-1.8-1.2l-1.5-0.3L242.6,141.4z"/>
	<path class="st0" d="M305.2,191.2l0.2-0.9c-0.1,0-0.2,0-0.3,0l0,0c-0.2,0-0.3,0-0.5,0c-0.3,0-0.5-0.1-0.8-0.2v0.9L305.2,191.2z"/>
	<path class="st0" d="M213.5,267.4c1.2,0.2,2.4-0.2,3.3-1c1.1-1,1.9-2.3,2.3-3.7c0.8-3.1-0.4-6-2.6-6.5h0c-2.3-0.5-4.8,1.6-5.6,4.7
		C210.1,264,211.2,267,213.5,267.4z"/>
	<path class="st0" d="M248.5,129.3c0.8-1.4,1.6-2.5,2.4-3.2l0.1,0.1l-0.1-5.7c-0.9,1-2.7,3.3-4.1,6.8L248.5,129.3z"/>
	<path class="st0" d="M305.1,222.4c1.9,2.8,4.9,16.4,5.4,18.7l1.9-0.2c-0.3-2.6-2.5-18.5-6-29.2
		C306.2,213.8,305.8,217.8,305.1,222.4z"/>
	<polygon class="st0" points="310.5,241.9 310.5,243.4 317.5,244.4 319.5,241.9 312.8,241.7 	"/>
	<path class="st0" d="M258.4,138.2L258.4,138.2c0-0.1,0-0.1,0-0.1l0,0l1.8-9.6c0,0,0-0.1-0.1-0.1l0.1,0l1.2-6.3c0-0.1,0-0.2,0-0.2
		l0.1,0l0.2-1.1c-3.6-1-8.5-1-9.9-0.9l0.4,18.3H258.4z"/>
	<path class="st0" d="M305.6,210.8h-6.2c2.1,13.4-1.7,27-2.5,29.6l2.1,0.2C304,231.2,305.4,213.8,305.6,210.8z"/>
	<polygon class="st0" points="299.2,241.3 296.7,241.1 296.2,241.9 301.6,244 304.2,242.5 299.2,241.4 	"/>
	<path class="st0" d="M309.5,184.8c0.4-2.9-1-5.5-3.3-5.8c-0.1,0-0.2,0-0.4,0c-1,0-2,0.5-2.6,1.2c-1,1-1.6,2.3-1.8,3.6
		c-0.2,1.3,0,2.7,0.7,3.9c0.5,1,1.5,1.7,2.6,1.8C306.9,189.9,309.1,187.7,309.5,184.8z"/>
	<path class="st0" d="M257.9,119.3l0.2-0.8c-0.1,0-0.3,0-0.4,0l0,0c-0.2,0-0.3,0-0.5,0c-0.3,0-0.5-0.1-0.8-0.2v0.9L257.9,119.3z"/>
	<path class="st0" d="M258.2,138.9h-6.2c2.1,13.4-1.7,27-2.5,29.6l2.1,0.2C256.6,159.3,258,141.9,258.2,138.9z"/>
	<path class="st0" d="M269.5,134.1l0.4-1c-5.3-2-7.3-6.4-8.1-9.1l-0.8,4.3C263.8,133.4,268.4,134,269.5,134.1z"/>
	<path class="st0" d="M196.7,214.9c0.2,0.7,0.5,1.4,0.7,1.7h3.5l0.5-2.2l-1.8-1.2l-1.5-0.3L196.7,214.9z"/>
	<path class="st0" d="M262.1,112.9c0.4-2.9-1-5.5-3.3-5.8c-0.1,0-0.2,0-0.4,0l0,0c-1,0-2,0.5-2.6,1.2c-1,1-1.6,2.3-1.8,3.6
		c-0.2,1.3,0,2.7,0.7,3.9c0.5,1,1.5,1.7,2.6,1.8C259.5,118,261.7,115.8,262.1,112.9z"/>
	<path class="st0" d="M257.7,150.5c1.9,2.8,4.9,16.4,5.4,18.7l1.9-0.2c-0.3-2.6-2.5-18.5-6-29.2
		C258.8,141.8,258.4,145.8,257.7,150.5z"/>
	<polygon class="st0" points="251.8,169.4 249.3,169.2 248.8,169.9 254.3,172 256.8,170.6 251.8,169.5 	"/>
	<polygon class="st0" points="270.2,134.6 270.2,134.6 270.6,135.7 273.5,136.3 274.4,133 272.1,132.4 270.8,133.2 	"/>
	<polygon class="st0" points="263.2,170 263.2,171.5 270.2,172.5 272.2,170 265.5,169.7 	"/>
	<path class="st0" d="M299.8,138.6c1.6,0.2,4.2,0.5,5.2,0.6l3.9-16.9c-2.3-1.2-6.7-1.4-8-1.4c-0.2,2-1.5,12.8-2,16.5L299.8,138.6z"
		/>
	<polygon class="st0" points="311.7,130 309.1,125 308.2,128.8 308.2,128.8 311.4,132.3 318.2,129.1 317.9,128.3 	"/>
	<path class="st0" d="M322,126.5l-1-1.2l-2.4,1.4v1.1l0.4,1.4l1.8,0.7c0.5-0.3,1.6-1.2,2.2-1.6C322.8,127.8,322.3,127,322,126.5z"/>
	<path class="st0" d="M299.9,139.4l-1.1,0.5c0,4.2-1.4,10.1-4.2,17.5c-1.8,4.8-3.6,8.7-4.1,9.8l0.9,0.5c10.3-9,12.4-25.5,12.6-27.8
		C302.9,139.7,301.2,139.5,299.9,139.4z"/>
	<path class="st0" d="M305.7,265.6c1.2,0.2,2.4-0.2,3.3-1c1.1-1,1.9-2.3,2.3-3.7c0.4-1.4,0.3-2.9-0.2-4.3c-0.4-1.1-1.3-1.9-2.4-2.2
		c-0.2,0-0.4-0.1-0.7-0.1c-1,0-1.9,0.4-2.6,1c-1.1,1-1.9,2.3-2.3,3.7c-0.4,1.4-0.3,2.9,0.2,4.3C303.6,264.5,304.5,265.3,305.7,265.6
		z"/>
	<path class="st0" d="M313.7,168l-1.5,0.4v1.9c1.1-0.1,3.7-0.4,5.9-0.6l2.6-0.1l-0.2-2C317.7,167.8,313.7,168,313.7,168L313.7,168z"
		/>
	<path class="st0" d="M304.8,139.9c-0.1,0.7-0.3,2.6-0.9,5.2c1.2,2.3,7.1,19.7,8.1,22.5l1.2-0.3c-1.3-12.3-7.3-25.5-8.2-27.4
		C305,140,304.9,140,304.8,139.9z"/>
	<path class="st0" d="M306.2,267.4l0.3-1c0,0-0.1,0-0.1,0v0c-0.3,0-0.6,0-0.9-0.1c-0.2-0.1-0.4-0.1-0.6-0.2l-0.2,1L306.2,267.4z"/>
	<polygon class="st0" points="295.1,282.4 296.3,282.2 295.5,274.4 293.5,275.5 	"/>
	<path class="st0" d="M299.4,271.3c0.2-1.3,0.3-2.4,0.4-3.1l-6.8,4.8l0.4,1.7L299.4,271.3z"/>
	<path class="st0" d="M299.5,285.4c1.6,0.2,4.2,0.5,5.2,0.6l3.9-16.9c-2.3-1.2-6.7-1.4-8-1.4c-0.2,2-1.5,12.8-2,16.5L299.5,285.4z"
		/>
	<path class="st0" d="M299.3,272.2l-3,1.7l0.8,8.4l0.8,1.1C298.3,280.7,298.8,275.9,299.3,272.2z"/>
	<path class="st0" d="M305.9,118.8c1.2,0.2,2.4-0.2,3.3-1c1.1-1,1.9-2.3,2.3-3.7c0.4-1.4,0.3-2.9-0.2-4.3c-0.4-1.1-1.3-1.9-2.4-2.2
		h0c-1.2-0.2-2.4,0.2-3.3,1c-1.1,1-1.9,2.3-2.3,3.7c-0.4,1.4-0.3,2.9,0.2,4.3C303.9,117.7,304.8,118.5,305.9,118.8z"/>
	<polygon class="st0" points="317.5,206.5 317.5,206.5 317.9,207.6 320.8,208.2 321.7,204.9 319.5,204.3 318.1,205.1 	"/>
	<path class="st0" d="M306.4,120.6l0.3-1c0,0-0.1,0-0.1,0l0,0c-0.3,0-0.6,0-0.9-0.1c-0.2,0-0.4-0.1-0.6-0.2l-0.2,1L306.4,120.6z"/>
	<path class="st0" d="M289.9,167.7l-1.6,1.4c1.6,1.3,3.2,2.6,3.7,2.9c0.6,0,3.2-0.1,5-0.2l-5.6-3.4L289.9,167.7z"/>
	<path class="st0" d="M299.7,124.5c0.2-1.3,0.3-2.4,0.4-3.1l-6.8,4.8l0.4,1.7L299.7,124.5z"/>
	<path class="st0" d="M299.5,125.4l-3,1.7l0.8,8.4l0.8,1.1C298.5,133.9,299.1,129.1,299.5,125.4z"/>
	<polygon class="st0" points="296.8,136.1 295.4,136.4 295,138.6 296.5,140 299,138.9 	"/>
	<polygon class="st0" points="295.4,135.6 296.6,135.4 295.8,127.6 293.8,128.7 	"/>
	<polygon class="st0" points="268.2,354.4 275,351.3 274.8,350.4 268.5,352.1 265.9,347.2 265.1,350.9 	"/>
	<path class="st0" d="M275.9,351.3l1.8,0.7c0.5-0.3,1.6-1.2,2.2-1.6c-0.3-0.4-0.7-1.2-1-1.7l-1-1.2l-2.4,1.4v1L275.9,351.3z"/>
	<path class="st0" d="M256.4,347.6l-3,1.7l0.8,8.4l0.9,1.1C255.4,356.1,256,351.2,256.4,347.6z"/>
	<polygon class="st0" points="252.2,357.8 253.4,357.5 252.6,349.7 250.6,350.9 	"/>
	<path class="st0" d="M270,389.5c-1.3-12.3-7.3-25.4-8.1-27.4c-0.1,0-0.1,0-0.2,0c-0.1,0.7-0.3,2.6-0.9,5.2c1.2,2.4,7.1,19.7,8,22.5
		L270,389.5z"/>
	<path class="st0" d="M256.6,360.8c1.6,0.2,4.2,0.5,5.2,0.6l3.9-16.9c-2.3-1.2-6.7-1.4-8-1.4c-0.2,2-1.5,12.8-2,16.5L256.6,360.8z"
		/>
	<path class="st0" d="M256.7,361.5l-1.1,0.5c0,4.2-1.4,10.1-4.2,17.5c-1.8,4.8-3.6,8.7-4.1,9.8l0.9,0.5c10.3-9,12.4-25.4,12.6-27.8
		C259.7,361.9,257.9,361.7,256.7,361.5z"/>
	<polygon class="st0" points="296.5,282.9 295.2,283.2 294.8,285.4 296.2,286.8 298.8,285.7 	"/>
	<path class="st0" d="M256.5,346.6c0.2-1.3,0.3-2.3,0.4-3l-6.8,4.8l0.4,1.7L256.5,346.6z"/>
	<polygon class="st0" points="253.6,358.3 252.3,358.6 251.9,360.7 253.3,362.2 255.8,361.1 	"/>
	<path class="st0" d="M248,390.6l-1.3-0.7l-1.7,1.5c1.6,1.3,3.2,2.6,3.7,2.9c0.6,0,3.2-0.1,5-0.2L248,390.6L248,390.6z"/>
	<path class="st0" d="M313.4,314.8l-1.5,0.4v1.9c1.1-0.1,3.7-0.4,5.9-0.6l2.6-0.1l-0.2-2C317.4,314.6,313.4,314.8,313.4,314.8
		L313.4,314.8z"/>
	<path class="st0" d="M299.6,286.1l-1.1,0.5c0,4.2-1.4,10.1-4.2,17.5c-1.8,4.8-3.6,8.7-4.1,9.8l0.9,0.5
		c10.3-9.1,12.4-25.5,12.6-27.8C302.6,286.5,300.9,286.3,299.6,286.1z"/>
	<path class="st0" d="M289.6,314.5l-1.6,1.4c1.6,1.3,3.2,2.6,3.7,2.9c0.6,0,3.2-0.1,5-0.2l-5.6-3.4L289.6,314.5z"/>
	<path class="st0" d="M304.5,286.7c-0.1,0.7-0.3,2.6-0.9,5.2c1.2,2.3,7.1,19.7,8.1,22.5l1.2-0.3c-1.3-12.3-7.3-25.5-8.2-27.4
		C304.7,286.7,304.6,286.7,304.5,286.7z"/>
	<path class="st0" d="M262.8,341c1.2,0.2,2.4-0.2,3.3-1c1.1-1,1.9-2.3,2.3-3.7c0.8-3.1-0.4-6-2.6-6.5h0c-2.3-0.5-4.8,1.6-5.6,4.7
		c-0.4,1.4-0.3,2.9,0.2,4.3C260.7,339.9,261.7,340.7,262.8,341z"/>
	<path class="st0" d="M270.5,390.1l-1.5,0.4v1.9c1.1-0.1,3.7-0.4,5.9-0.6l2.6-0.1l-0.2-2C274.5,389.9,270.5,390.2,270.5,390.1
		L270.5,390.1z"/>
	<path class="st0" d="M263.3,342.8l0.3-1c0,0-0.1,0-0.1,0l0,0c-0.3,0-0.6,0-0.9-0.1c-0.2,0-0.4-0.1-0.6-0.2l-0.2,1L263.3,342.8z"/>
	<polygon class="st0" points="311.5,276.7 308.8,271.8 307.9,275.6 307.9,275.6 311.1,279.1 317.9,275.9 317.7,275 	"/>
	<path class="st0" d="M321.7,273.3l-1-1.2l-2.4,1.4v1l0.4,1.4l1.8,0.7c0.5-0.3,1.6-1.2,2.2-1.6C322.5,274.6,322,273.8,321.7,273.3z"
		/>
	<path class="st0" d="M212.5,211.7L212.5,211.7C212.5,211.6,212.5,211.6,212.5,211.7L212.5,211.7l1.8-9.7c0,0-0.1-0.1-0.1-0.1
		l0.1-0.1l1.1-6.2c0-0.1,0-0.2,0-0.2l0.1,0l0.2-1.1c-3.6-1-8.5-1-9.9-0.9l0.4,18.3H212.5z"/>
	<path class="st0" d="M291.3,465.2l-1.6,1.4c1.6,1.3,3.2,2.6,3.7,2.9c0.6,0,3.2-0.1,5-0.2l-5.6-3.4L291.3,465.2z"/>
	<path class="st0" d="M307.8,418.1l0.3-1c0,0-0.1,0-0.1,0l0,0c-0.3,0-0.6,0-0.8-0.1c-0.2,0-0.4-0.1-0.6-0.2l-0.2,1L307.8,418.1z"/>
	<path class="st0" d="M307.3,416.4c2.3,0.5,4.8-1.6,5.6-4.7c0.8-3.1-0.4-6-2.6-6.5c-0.2,0-0.4-0.1-0.7-0.1v0c-1,0-1.9,0.4-2.6,1
		c-1.1,1-1.9,2.3-2.3,3.7C303.9,413,305,415.9,307.3,416.4z"/>
	<path class="st0" d="M301.1,36.8c-0.4,2.9,1,5.5,3.3,5.8c1.1,0.1,2.2-0.3,3-1.2c1-1,1.6-2.3,1.8-3.6c0.4-2.9-1-5.5-3.3-5.8
		C303.6,31.8,301.5,33.9,301.1,36.8z"/>
	<path class="st0" d="M300.9,422.9l-3,1.7l0.8,8.4l0.9,1.1C299.9,431.4,300.5,426.6,300.9,422.9z"/>
	<polygon class="st0" points="298.2,433.6 296.8,433.9 296.4,436.1 297.9,437.5 300.4,436.4 	"/>
	<path class="st0" d="M301.1,422c0.2-1.3,0.3-2.4,0.4-3l-6.8,4.8l0.4,1.7L301.1,422z"/>
	<path class="st0" d="M304.7,43.3L304.7,43.3C304.7,43.3,304.7,43.3,304.7,43.3c-0.2,0-0.3,0-0.5,0c-0.3,0-0.5-0.1-0.8-0.2V44
		l1.4,0.2l0.2-0.9C304.9,43.3,304.8,43.3,304.7,43.3C304.7,43.3,304.7,43.3,304.7,43.3z"/>
	<polygon class="st0" points="296.8,433.2 297.9,432.9 297.2,425.1 295.2,426.2 	"/>
	<path class="st0" d="M301.1,436.1c1.6,0.2,4.3,0.5,5.2,0.6l3.9-16.9c-2.3-1.2-6.7-1.4-8-1.4c-0.2,2-1.5,12.9-2,16.5L301.1,436.1z"
		/>
	<polygon class="st0" points="310.1,94.8 310.1,96.4 317.1,97.3 319.1,94.9 312.4,94.6 	"/>
	<path class="st0" d="M305.2,63.8H299c2.1,13.4-1.7,27-2.5,29.6l2.1,0.2C303.6,84.2,305,66.7,305.2,63.8z"/>
	<polygon class="st0" points="298.8,94.3 296.3,94.1 295.8,94.8 301.2,96.9 303.8,95.5 298.8,94.3 	"/>
	<path class="st0" d="M295.9,47.8c-0.9,1.4-1.6,2.8-2.2,4.3l1.8,2.1c0.8-1.4,1.6-2.5,2.4-3.2l0.1,0.1l-0.1-5.7
		C297.1,46.1,296.4,47,295.9,47.8z"/>
	<path class="st0" d="M316.5,58.9l0.4-1c-5.3-2-7.3-6.4-8.1-9.1l-0.8,4.3C310.8,58.3,315.3,58.9,316.5,58.9z"/>
	<path class="st0" d="M298.6,44.7L299,63h6.4l0-0.1c0,0,0,0,0,0l0,0l1.8-9.6c0,0,0-0.1-0.1-0.1l0.1,0l1.2-6.3c0-0.1,0-0.2,0-0.2
		l0.1,0l0.2-1.1C304.9,44.7,300,44.7,298.6,44.7z"/>
	<path class="st0" d="M304.7,75.4c1.9,2.8,4.9,16.4,5.4,18.7l1.9-0.2c-0.3-2.6-2.5-18.5-6-29.2C305.8,66.7,305.4,70.7,304.7,75.4z"
		/>
	<polygon class="st0" points="317.1,59.5 317.1,59.5 317.5,60.5 320.4,61.2 321.3,57.9 319.1,57.3 317.7,58.1 	"/>
	<path class="st0" d="M308.5,338.5l0.2-0.8c-0.1,0-0.2,0-0.3,0v0c-0.2,0-0.3,0-0.5,0c-0.3,0-0.5-0.1-0.8-0.2v0.9L308.5,338.5z"/>
	<polygon class="st0" points="313.8,389.2 313.8,390.7 320.8,391.7 322.8,389.2 316.1,388.9 	"/>
	<path class="st0" d="M310.8,347.5l1.2-6.3c0-0.1,0-0.2,0-0.2l0,0l0.2-1.1c-3.6-1-8.5-1-9.9-0.9l0.4,18.3h6.4l0-0.1c0,0,0,0,0,0l0,0
		l1.8-9.6C310.8,347.6,310.7,347.6,310.8,347.5L310.8,347.5z"/>
	<path class="st0" d="M308.3,369.7c1.9,2.8,4.9,16.4,5.4,18.8l1.9-0.2c-0.3-2.6-2.5-18.5-6-29.2C309.5,361,309.1,365,308.3,369.7z"
		/>
	<polygon class="st0" points="302.5,388.6 300,388.4 299.4,389.1 304.9,391.2 307.5,389.8 302.5,388.6 	"/>
	<polygon class="st0" points="322.7,351.6 321.4,352.4 320.8,353.8 320.8,353.8 321.2,354.9 324.1,355.5 325,352.2 	"/>
	<path class="st0" d="M320.6,352.3c-5.3-2-7.3-6.4-8.1-9.1l-0.8,4.3c2.8,5,7.4,5.7,8.5,5.7L320.6,352.3z"/>
	<path class="st0" d="M308.9,358.1h-6.2c2.1,13.4-1.7,27-2.5,29.6l2.1,0.2C307.2,378.5,308.7,361,308.9,358.1z"/>
	<path class="st0" d="M311,335.8c1-1,1.6-2.3,1.8-3.6c0.4-2.9-1-5.5-3.3-5.8v0c-2.2-0.3-4.4,1.9-4.8,4.8c-0.2,1.3,0,2.7,0.7,3.9
		c0.5,1,1.5,1.7,2.6,1.8C309.1,337,310.2,336.6,311,335.8z"/>
	<path class="st0" d="M323.4,424l-1-1.2l-2.4,1.4v1.1l0.4,1.4l1.8,0.7c0.5-0.3,1.6-1.2,2.2-1.6C324.2,425.3,323.7,424.5,323.4,424z"
		/>
	<path class="st0" d="M306.2,437.5c-0.1,0.7-0.3,2.6-0.9,5.2c1.2,2.3,7.1,19.7,8.1,22.5l1.2-0.3c-1.3-12.3-7.3-25.6-8.2-27.4
		C306.4,437.5,306.3,437.5,306.2,437.5z"/>
	<polygon class="st0" points="313.1,427.5 310.5,422.6 309.6,426.3 312.7,429.8 319.6,426.7 319.3,425.8 	"/>
	<path class="st0" d="M315,465.5l-1.5,0.4v1.9c1.1-0.1,3.7-0.4,5.9-0.6l2.6-0.1l-0.2-2C319.1,465.3,315,465.6,315,465.5L315,465.5z"
		/>
	<path class="st0" d="M293.2,360.6c0.2,0.7,0.5,1.4,0.7,1.7h3.5l0.5-2.2l-1.8-1.2l-1.5-0.3L293.2,360.6z"/>
	<path class="st0" d="M299.6,342.2c-0.9,1.4-1.6,2.8-2.2,4.3l1.8,2.1c0.8-1.4,1.6-2.5,2.4-3.2l0.1,0.1l-0.1-5.6
		C300.8,340.5,300.1,341.3,299.6,342.2z"/>
	<path class="st0" d="M289.6,66.3c0.2,0.7,0.5,1.4,0.7,1.7h3.5l0.5-2.2l-1.8-1.2l-1.5-0.3L289.6,66.3z"/>
	<path class="st0" d="M301.3,436.9l-1.1,0.5c0,4.2-1.4,10.1-4.2,17.5c-1.8,4.8-3.6,8.7-4.1,9.8l0.9,0.5
		c10.3-9.1,12.4-25.5,12.6-27.8C304.2,437.2,302.5,437,301.3,436.9z"/>
	<path class="st0" d="M278,201.6l-1-1.2l-2.4,1.4v1l0.4,1.4l1.8,0.7c0.5-0.3,1.6-1.2,2.2-1.6C278.8,202.9,278.3,202.1,278,201.6z"/>
	<path class="st0" d="M290,213.3c0.2,0.7,0.5,1.4,0.7,1.7h3.5l0.5-2.2l-1.8-1.2l-1.5-0.3L290,213.3z"/>
	<path class="st0" d="M262.5,195.7l0.3-1c0,0-0.1,0-0.1,0v0c-0.3,0-0.6,0-0.8-0.1c-0.2,0-0.4-0.1-0.6-0.2l-0.2,1L262.5,195.7z"/>
	<path class="st0" d="M269.2,316.1c-0.3-2.6-2.5-18.5-6-29.2c-0.2,2-0.5,6-1.3,10.6c1.9,2.8,4.9,16.4,5.4,18.8L269.2,316.1z"/>
	<path class="st0" d="M305.7,210.1L305.7,210.1C305.7,210,305.7,210,305.7,210.1L305.7,210.1l1.8-9.7c0,0,0-0.1-0.1-0.1l0.1,0
		l1.2-6.3c0-0.1,0-0.2,0-0.2l0.1,0l0.2-1.1c-3.6-1-8.5-1-9.9-0.9l0.4,18.3H305.7z"/>
	<path class="st0" d="M262,193.9c2.3,0.5,4.8-1.6,5.6-4.7c0.8-3.1-0.4-6-2.6-6.5c-0.2,0-0.4-0.1-0.7-0.1l0,0c-2.1,0-4.2,2-4.9,4.8
		C258.5,190.5,259.7,193.5,262,193.9z"/>
	<polygon class="st0" points="251.4,210.8 252.6,210.5 251.8,202.7 249.8,203.8 	"/>
	<path class="st0" d="M255.7,199.6c0.2-1.3,0.3-2.3,0.4-3l-6.8,4.8l0.4,1.7L255.7,199.6z"/>
	<path class="st0" d="M255.8,213.7c1.6,0.2,4.2,0.5,5.2,0.6l3.9-16.9c-2.3-1.2-6.7-1.4-8-1.4c-0.2,2-1.5,12.8-2,16.5L255.8,213.7z"
		/>
	<path class="st0" d="M262,266.3l0.2-0.8c-0.1,0-0.3,0-0.4,0c-0.2,0-0.3,0-0.5,0c-0.3,0-0.5-0.1-0.8-0.2v0.8L262,266.3z"/>
	<polygon class="st0" points="256,316.4 253.5,316.2 253,317 258.5,319.1 261,317.7 256,316.5 	"/>
	<path class="st0" d="M273.7,281.1l0.4-1c-5.3-2-7.3-6.4-8.1-9.1l-0.8,4.3C268,280.4,272.5,281,273.7,281.1z"/>
	<polygon class="st0" points="274.4,281.6 274.4,281.6 274.8,282.7 277.7,283.3 278.6,280.1 276.3,279.5 275,280.2 	"/>
	<polygon class="st0" points="267.4,317 267.4,318.5 274.3,319.5 276.4,317 269.8,316.8 	"/>
	<path class="st0" d="M246.8,288.5c0.2,0.7,0.5,1.4,0.7,1.7h3.5l0.5-2.2l-1.8-1.2l-1.5-0.3L246.8,288.5z"/>
	<polygon class="st0" points="252.8,211.2 251.5,211.5 251.1,213.7 252.5,215.1 255,214 	"/>
	<path class="st0" d="M262.6,285.2L262.6,285.2C262.6,285.1,262.6,285.1,262.6,285.2L262.6,285.2l1.8-9.7c0,0,0-0.1-0.1-0.1l0.1,0
		l1.2-6.3c0-0.1,0-0.2,0-0.2l0,0l0.2-1.1c-3.6-1-8.5-1-9.9-0.9l0.4,18.3H262.6z"/>
	<path class="st0" d="M262.4,285.9h-6.2c2.1,13.4-1.7,27-2.5,29.6l2.1,0.2C260.8,306.4,262.2,288.9,262.4,285.9z"/>
	<path class="st0" d="M264.5,263.6c1-1,1.6-2.3,1.8-3.6c0.4-2.9-1-5.5-3.3-5.8l0,0c-2.2-0.3-4.4,1.9-4.8,4.8c-0.2,1.3,0,2.7,0.7,3.9
		c0.5,1,1.5,1.7,2.6,1.8C262.6,264.8,263.8,264.4,264.5,263.6z"/>
	<path class="st0" d="M253.1,270c-0.9,1.4-1.6,2.8-2.3,4.3l1.8,2.1c0.8-1.4,1.6-2.5,2.4-3.2l0.1,0.1l-0.1-5.6
		C254.3,268.3,253.7,269.1,253.1,270z"/>
	<path class="st0" d="M255.6,200.5l-3,1.7l0.8,8.4l0.9,1.1C254.6,209,255.1,204.2,255.6,200.5z"/>
	<polygon class="st0" points="267.7,205.1 265.1,200.2 264.3,203.9 267.4,207.4 274.2,204.3 274,203.4 	"/>
	<path class="st0" d="M316.9,206l0.4-1c-5.3-2-7.3-6.4-8.1-9.1l-0.8,4.3C311.2,205.3,315.7,205.9,316.9,206z"/>
	<path class="st0" d="M269.7,243.1l-1.5,0.4v1.9c1.1-0.1,3.7-0.4,5.9-0.6l2.6-0.1l-0.2-2C273.7,242.9,269.7,243.1,269.7,243.1
		L269.7,243.1z"/>
	<path class="st0" d="M260.9,215.1c-0.1,0.7-0.3,2.6-0.9,5.2c1.2,2.4,7.1,19.7,8,22.5l1.2-0.3c-1.3-12.3-7.2-25.4-8.1-27.4
		C261,215.1,260.9,215.1,260.9,215.1z"/>
	<path class="st0" d="M295.8,201.2c0.8-1.4,1.6-2.5,2.4-3.2l0.1,0.1l-0.1-5.7c-0.7,0.8-1.4,1.6-1.9,2.5c-0.9,1.4-1.6,2.8-2.2,4.3
		L295.8,201.2z"/>
	<path class="st0" d="M255.9,214.5l-1.1,0.5c0,4.2-1.4,10.1-4.2,17.5c-1.8,4.8-3.6,8.7-4.1,9.8l0.9,0.5c10.2-9,12.4-25.4,12.6-27.8
		C258.9,214.8,257.1,214.6,255.9,214.5z"/>
	<path class="st0" d="M247.2,243.5l-1.3-0.7l-1.7,1.5c1.6,1.3,3.2,2.6,3.7,2.9c0.6,0,3.2-0.1,5-0.2L247.2,243.5L247.2,243.5z"/>
	
		<rect x="173.3" y="224.1" transform="matrix(0.9316 -0.3635 0.3635 0.9316 -68.9443 82.7822)" class="st1" width="24.3" height="1"/>
	<path class="st2" d="M198.1,208.4c-0.2,1.5-0.4,3.2-0.5,4l-1.8,2.5l0.1,0.2c0.8,2.4,0.9,2.4,1.3,2.4l0,0h4.4l0.7-3.2l-2.1-1.4
		c0.3-0.9,1.1-4.3,1.6-6.1l-0.8-0.2c-0.5,1.8-1.3,4.9-1.6,6l-1-0.2c0.1-0.8,0.3-2.5,0.4-3.9c0.1-1.1,0.3-2,0.3-2.5
		c0.3-1.5,0.8-2.9,1.3-4.4l1.7,2c-0.4,0.9-0.8,1.8-1.2,2.9l0.8,0.2c1-2.8,2.1-4.9,3.3-6.1l0.2,11.8h0c2.3,14.7-2.5,29.6-2.5,29.8
		l0,0l-1.1,1.6l6.7,2.6l4.5-2.5l-6.4-1.5c2.4-4.6,4-11.2,5-17c2,4.4,4.8,17.8,4.9,17.9l0,0.1v2.3l8.1,1.1l3.2-3.9l-7.9-0.3
		c-0.3-2.5-2.8-20.1-6.6-30.9l1.6-8.5c1.3,2,3.2,3.5,5.4,4.5c1,0.4,2.1,0.7,3.3,0.8l-0.1,0l0.5,1.5l4.1,0.9l1.3-4.7l-3.4-0.9
		l-1.5,0.9c-6.7-2.4-8.1-8.9-8.3-10.4l0.3-1.8l-0.3-0.1c-1.1-0.3-2.3-0.6-3.5-0.7l0.3-1.1l-0.1,0c2-0.6,3.7-2.6,4.1-5.3
		c0.5-3.3-1.3-6.3-4-6.6c-2.7-0.3-5.2,2.1-5.7,5.4c-0.4,2.6,0.6,5,2.4,6v1.3c-2.4-0.1-4.3-0.1-4.5-0.1l-0.4,0l0,0.2
		c-0.4,0.4-4.7,4.6-6.6,13l0.4,0.1l-0.4,0C198.3,206.3,198.2,207.3,198.1,208.4z M208.2,185.5c0.4-2.9,2.6-5,4.8-4.8l0,0
		c2.2,0.3,3.7,2.8,3.3,5.8s-2.6,5-4.8,4.8C209.3,191,207.8,188.4,208.2,185.5z M211.4,192c0.2,0,0.3,0,0.5,0l0,0c0.1,0,0.2,0,0.4,0
		l-0.2,0.8l-1.4-0.2v-0.8C210.9,191.9,211.1,191.9,211.4,192z M206.2,212.4h6.2c-0.2,3-1.6,20.4-6.6,29.7l-2.1-0.2
		C204.5,239.4,208.3,225.8,206.2,212.4z M208.4,245.6l-5.5-2.1l0.5-0.8l2.5,0.2l0,0l5,1.2L208.4,245.6z M224.3,246l-7-1v-1.5
		l2.3-0.2l6.7,0.3L224.3,246z M217.2,242.7c-0.5-2.4-3.5-15.9-5.4-18.7c0.7-4.6,1.1-8.6,1.3-10.6c3.5,10.7,5.7,26.5,6,29.1
		L217.2,242.7z M226.2,205.9l2.3,0.6l-0.9,3.3l-2.9-0.6l-0.4-1.1l0,0l0.6-1.3L226.2,205.9z M224.1,206.6l-0.4,1
		c-1.2-0.1-5.7-0.7-8.5-5.7l0.8-4.3C216.7,200.2,218.8,204.6,224.1,206.6z M215.7,194.3l-0.2,1.1l-0.1,0c0,0,0,0.1,0,0.2l-1.1,6.2
		l-0.1,0.1c0,0,0.1,0.1,0.1,0.1l-1.8,9.6l0,0c0,0,0,0,0,0.1l0,0h-6.4l-0.4-18.3C207.2,193.3,212.1,193.3,215.7,194.3z M205,194
		l0.1,5.7l-0.1-0.1c-0.9,0.7-1.7,1.8-2.4,3.2l-1.8-2.1c0.6-1.5,1.4-2.9,2.2-4.3C203.6,195.6,204.3,194.8,205,194z M199.6,213.3
		l1.8,1.2l-0.5,2.2h-3.5c-0.1-0.3-0.4-1.1-0.7-1.7l1.4-2L199.6,213.3z"/>
	<polygon class="st1" points="174,279.5 198.7,287.7 199.1,286.8 174.4,278.6 	"/>
	<path class="st2" d="M219.4,319.7c0,0,3.6-0.4,6.3-0.7l3.5-0.2l-0.3-3.5l-0.4,0c-2.3,0.2-5.7,0.4-6.8,0.5
		c-1.3-12.7-7.6-26.4-8.3-27.7l2.3-9.9l3.1,3.5l7.5-3.4l2.3,0.9l0.2-0.1c0,0,2.2-1.6,2.6-1.9l-0.2-0.3l0,0l0.3-0.2
		c-0.1-0.1-0.8-1.2-1.2-2l0,0l-1.4-1.8l-3.4,1.9v1.2l-5.7,1.6l-2.8-5.2l0.4-1.8l-0.2-0.1c-0.7-0.4-1.5-0.7-2.4-0.9l0.4-1.4
		c0.8-0.2,1.5-0.6,2.2-1.1c1.3-1.1,2.1-2.5,2.5-4.1c0.9-3.5-0.5-6.8-3.2-7.4c-2.7-0.6-5.6,1.8-6.5,5.3c-0.7,2.9,0.1,5.6,1.9,6.8
		l-0.3,1.5c-1.9-0.2-3.4-0.2-3.6-0.2l-0.4,0l0,0.2l-7.9,5.5l2.4,10.2l-0.5,2.7l2.2,2.1l1.7-0.7c-0.1,9.5-7.7,25.6-8.3,26.9l-0.1-0.1
		l-2.5,2.2l0.3,0.3c4.1,3.4,4.2,3.4,4.4,3.4v0c0.2,0,5.8-0.2,6.4-0.2l1.3,0l-7.4-4.5c6.8-6.1,10.1-15.3,11.6-21.6
		c1.9,4.8,7.6,21.6,7.7,21.8l0,0v2.9L219.4,319.7z M210.9,261c0.8-3.1,3.3-5.2,5.6-4.7h0c2.3,0.5,3.4,3.4,2.6,6.5
		c-0.4,1.5-1.2,2.8-2.3,3.7c-0.9,0.8-2.1,1.2-3.3,1C211.2,267,210.1,264,210.9,261z M213.3,268.2c0.3,0.1,0.6,0.1,0.9,0.1v0
		c0,0,0.1,0,0.1,0l-0.3,1l-1.5-0.3l0.2-1C212.9,268.1,213.1,268.1,213.3,268.2z M228.2,318.2l-2.6,0.1c-2.1,0.2-4.8,0.5-5.9,0.6
		v-1.9l1.5-0.4l0,0c0,0,4-0.3,6.8-0.5L228.2,318.2z M228.6,274l1,1.2c0.3,0.5,0.8,1.3,1,1.7c-0.6,0.4-1.7,1.3-2.2,1.6l-1.8-0.7
		l-0.4-1.4v-1.1L228.6,274z M219.3,278.6l6.2-1.7l0.3,0.9l-6.8,3.1l-3.1-3.5l0,0l0.9-3.8L219.3,278.6z M208.5,269.6
		c1.3,0,5.7,0.1,8,1.4l-3.9,16.9c-1-0.1-3.6-0.4-5.2-0.6l-0.8-1.1C206.9,282.4,208.2,271.7,208.5,269.6z M204.9,284.2l-0.8-8.4
		l3-1.7c-0.4,3.7-1,8.5-1.3,11.2L204.9,284.2z M204.1,284l-1.1,0.3l-1.6-7l2-1.1L204.1,284z M207.6,270.1c-0.1,0.7-0.2,1.8-0.4,3.1
		l-6.1,3.4l-0.4-1.7L207.6,270.1z M202.6,287.2l0.4-2.2l1.3-0.3l2.2,2.8l-2.5,1.1L202.6,287.2z M199.5,320.7
		c-0.4-0.3-2.1-1.6-3.7-2.9l1.6-1.4l1.4,0.8l5.6,3.4C202.6,320.6,200,320.7,199.5,320.7z M199,316.3l-0.9-0.5c0.5-1.1,2.3-5,4.1-9.8
		c2.8-7.5,4.2-13.3,4.2-17.5l1.1-0.5c1.3,0.1,3,0.4,4.1,0.5C211.3,290.8,209.2,307.3,199,316.3z M211.5,293.8
		c0.6-2.6,0.8-4.5,0.9-5.2c0.1,0,0.1,0,0.2,0c0.9,1.8,6.9,15.1,8.2,27.4l-1.2,0.3C218.6,313.5,212.7,296.2,211.5,293.8z"/>
	<polygon class="st1" points="220.6,190 244,151.7 243.1,151.3 219.7,189.5 	"/>
	<path class="st2" d="M243.9,134.8c-0.2,1.5-0.4,3.3-0.5,4.1l-1.8,2.4l0.1,0.2c0.8,2.4,0.9,2.4,1.3,2.4l0,0h4.4l0.7-3.2l-2.1-1.4
		c0.3-1,1.1-4.2,1.6-6l-0.8-0.2c-0.5,1.8-1.3,4.9-1.6,6l-1-0.2c0.1-0.8,0.3-2.5,0.4-3.9c0.1-1.1,0.3-2,0.3-2.5l0,0
		c0.4-1.6,0.8-3.1,1.3-4.4l1.7,2c-0.4,0.9-0.8,1.8-1.2,2.9l0.8,0.2c1-2.8,2.1-4.8,3.3-6.1l0.2,11.8h0c2.3,14.7-2.5,29.6-2.5,29.8
		l0,0l-1,1.5l6.7,2.6l4.6-2.5l-6.4-1.5c2.4-4.7,4-11.2,5-17.1c1.9,4.3,4.8,17.4,4.9,17.9h0v2.5l8.2,1.1l3.2-4l-7.9-0.3
		c-0.3-2.5-2.8-20.2-6.6-31l1.6-8.5c1.3,2,3.2,3.6,5.4,4.5c1,0.4,2.1,0.7,3.3,0.8l-0.1,0l0.5,1.5l4.1,0.9l1.3-4.7l-3.4-0.9l-1.5,0.9
		c-6.8-2.5-8.1-9.2-8.3-10.5l0.3-1.7l-0.3-0.1c-1.1-0.3-2.3-0.6-3.5-0.7l0.3-1.1l-0.2,0c2-0.6,3.7-2.6,4.1-5.3
		c0.5-3.3-1.3-6.3-4-6.6c-1.4-0.1-2.8,0.4-3.7,1.4c-1.1,1.1-1.8,2.5-2,4c-0.2,1.5,0,3,0.8,4.4c0.4,0.7,1,1.3,1.6,1.7v1.3
		c-2.4-0.1-4.3-0.1-4.5-0.1l-0.4,0l0,0.2c-0.6,0.5-4.8,4.7-6.6,12.9l0.6,0.1l-0.6,0C244.2,132.8,244.1,133.8,243.9,134.8z
		 M254.7,115.9c-0.7-1.2-0.9-2.6-0.7-3.9c0.2-1.4,0.8-2.6,1.8-3.6c0.7-0.7,1.6-1.1,2.6-1.2l0,0c0.1,0,0.2,0,0.4,0
		c2.2,0.3,3.7,2.8,3.3,5.8c-0.4,2.9-2.6,5-4.8,4.8C256.2,117.5,255.3,116.9,254.7,115.9z M257.2,118.4c0.2,0,0.3,0,0.5,0l0,0
		c0.1,0,0.3,0,0.4,0l-0.2,0.8l-1.4-0.2v-0.9C256.7,118.3,257,118.4,257.2,118.4z M252.1,138.9h6.2c-0.2,3-1.6,20.4-6.6,29.7
		l-2.1-0.2C250.4,165.9,254.2,152.3,252.1,138.9z M254.3,172l-5.4-2.1l0.5-0.7l2.5,0.2l0,0l5,1.2L254.3,172z M270.2,172.5l-7-1V170
		l2.3-0.2l6.7,0.3L270.2,172.5z M263.1,169.2c-0.5-2.4-3.5-16-5.4-18.7c0.7-4.6,1.1-8.6,1.3-10.6c3.5,10.7,5.7,26.6,6,29.2
		L263.1,169.2z M272.1,132.4l2.3,0.6l-0.9,3.3l-2.9-0.6l-0.4-1.1l0,0l0.6-1.4L272.1,132.4z M269.9,133.1l-0.4,1
		c-1.2-0.1-5.7-0.7-8.5-5.7l0.8-4.3C262.6,126.7,264.7,131.1,269.9,133.1z M261.6,120.8l-0.2,1.1l-0.1,0c0,0,0,0.1,0,0.2l-1.2,6.3
		l-0.1,0c0,0,0,0.1,0.1,0.1l-1.8,9.6l0,0c0,0,0,0,0,0l0,0.1H252l-0.4-18.3C253,119.8,258,119.8,261.6,120.8z M250.8,120.5l0.1,5.7
		l-0.1-0.1c-0.9,0.7-1.7,1.8-2.4,3.2l-1.8-2.1C248.2,123.7,249.9,121.5,250.8,120.5z M245.5,139.8l1.8,1.2l-0.5,2.2h-3.5
		c-0.1-0.3-0.4-1.1-0.7-1.7l1.4-1.9L245.5,139.8z"/>
	<path class="st1" d="M223.2,225.1c1.3,0,13.7,4.5,21.3,7.4v0l0.4-0.9c-4.8-1.8-20.5-7.7-21.9-7.5L223.2,225.1
		C223.2,225.1,223.2,225.1,223.2,225.1L223.2,225.1z"/>
	<path class="st2" d="M279.9,203.2c-0.1-0.1-0.8-1.2-1.2-2l0,0l-1.4-1.8l-3.4,1.9v1.2l-5.7,1.6l-2.8-5.2l0.4-1.8l-0.2-0.1
		c-0.7-0.4-1.5-0.7-2.4-0.9l0.4-1.4c2.1-0.5,4-2.5,4.7-5.2c0.9-3.5-0.5-6.8-3.2-7.4s-5.6,1.8-6.5,5.3c-0.7,2.8,0.1,5.6,1.9,6.8
		l-0.3,1.5c-1.9-0.2-3.4-0.2-3.6-0.2l-0.4,0l0,0.2l-7.9,5.5l2.4,10.2l-0.5,2.7l2.2,2.1l1.7-0.7c-0.1,9.6-7.8,25.7-8.3,26.9l-0.1-0.1
		l-2.5,2.2l0.3,0.3c4.1,3.4,4.2,3.4,4.4,3.4l0,0c0.2,0,5.8-0.2,6.4-0.2l1.3,0l-7.3-4.5c6.8-6.1,10.1-15.3,11.6-21.6
		c1.9,4.7,7.3,20.7,7.7,21.7v2.9l0.5-0.1c0,0,3.6-0.4,6.3-0.7l3.5-0.2l-0.3-3.5l-0.4,0c-2.3,0.2-5.6,0.4-6.8,0.5
		c-1.3-12.7-7.6-26.3-8.3-27.7l2.3-9.9l3.1,3.5l7.5-3.4l2.3,0.9l0.2-0.1c0,0,2.2-1.6,2.6-1.9l-0.3-0.3l0,0L279.9,203.2z
		 M259.3,187.5c0.7-2.8,2.8-4.8,4.9-4.8l0,0c0.2,0,0.4,0,0.7,0.1c2.3,0.5,3.4,3.4,2.6,6.5c-0.8,3.1-3.3,5.2-5.6,4.7
		S258.5,190.5,259.3,187.5z M261.8,194.7c0.3,0.1,0.6,0.1,0.8,0.1v0c0,0,0.1,0,0.1,0l-0.3,1l-1.5-0.3l0.2-1
		C261.4,194.6,261.6,194.6,261.8,194.7z M256.9,196.1c1.3,0,5.7,0.1,8,1.4l-3.9,16.9c-1-0.1-3.6-0.4-5.2-0.6l-0.8-1.1
		C255.4,209,256.7,198.2,256.9,196.1z M253.4,210.7l-0.8-8.4l3-1.7c-0.4,3.7-1,8.5-1.3,11.2L253.4,210.7z M252.6,210.5l-1.1,0.3
		l-1.6-6.9l2-1.1L252.6,210.5z M256.1,196.6c-0.1,0.7-0.2,1.8-0.4,3l-6.1,3.4l-0.4-1.7L256.1,196.6z M251.1,213.7l0.4-2.1l1.4-0.3
		l2.2,2.8l-2.5,1.1L251.1,213.7z M247.9,247.2c-0.4-0.3-2.1-1.6-3.7-2.9l1.7-1.5l1.3,0.7l0,0l5.7,3.5
		C251.1,247.1,248.5,247.2,247.9,247.2z M247.4,242.8l-0.9-0.5c0.5-1.1,2.3-5,4.1-9.8c2.8-7.5,4.2-13.3,4.2-17.5l1.1-0.5
		c1.3,0.1,3,0.4,4.2,0.5C259.8,217.4,257.7,233.8,247.4,242.8z M276.7,244.7l-2.6,0.1c-2.1,0.2-4.8,0.5-5.9,0.6v-1.9l1.5-0.4l0,0
		c0,0,4-0.3,6.8-0.5L276.7,244.7z M268,242.8c-1-2.8-6.8-20.1-8-22.5c0.6-2.6,0.8-4.5,0.9-5.2c0.1,0,0.2,0,0.2,0
		c0.9,1.9,6.9,15.1,8.1,27.4L268,242.8z M267.4,207.4l-3.1-3.5l0.9-3.7l2.6,4.9l6.2-1.7l0.3,0.9L267.4,207.4z M276.9,204.9l-1.8-0.7
		l-0.4-1.4v-1l2.4-1.4l1,1.2c0.3,0.5,0.8,1.3,1,1.7C278.5,203.7,277.3,204.6,276.9,204.9z"/>
	<polygon class="st1" points="245.8,291.1 224.6,300.2 225.1,301.1 246.3,292 	"/>
	<path class="st2" d="M274.7,320.3l3.2-4L270,316c-0.3-2.6-2.8-20.2-6.6-31l1.6-8.5c1.3,2,3.2,3.6,5.4,4.5c1,0.4,2.1,0.7,3.3,0.8
		l-0.1,0l0.5,1.5l4.1,0.9l1.3-4.7l-3.4-0.9l-1.5,0.9c-6.8-2.5-8.1-9.2-8.3-10.5l0.3-1.7l-0.3-0.1c-1.1-0.3-2.3-0.6-3.5-0.7l0.3-1.1
		l-0.2,0c0.8-0.2,1.6-0.6,2.1-1.2c1.1-1.1,1.8-2.5,2-4c0.5-3.3-1.3-6.3-4-6.6c-2.7-0.3-5.2,2.1-5.7,5.4c-0.2,1.5,0,3,0.8,4.4
		c0.4,0.7,1,1.3,1.6,1.7v1.3c-2.4-0.1-4.3-0.1-4.5-0.1l-0.4,0l0,0.2c-0.6,0.5-4.8,4.7-6.6,13l0.6,0.1l-0.7,0c0,0.4-0.2,1.4-0.3,2.5
		c-0.2,1.5-0.4,3.3-0.5,4.1l-1.8,2.4l0.1,0.2c0.8,2.4,0.9,2.4,1.3,2.4l0,0h4.4l0.7-3.2l-2.1-1.4c0.3-1,1.1-4.2,1.6-6l-0.8-0.2
		c-0.5,1.7-1.3,4.9-1.6,6l-1-0.2c0.1-0.8,0.3-2.5,0.4-3.9c0.1-1.1,0.3-2,0.3-2.5l0,0c0.3-1.5,0.8-3,1.3-4.4l1.7,2
		c-0.4,0.9-0.8,1.8-1.2,2.9l0.8,0.2c1-2.8,2.1-4.8,3.3-6.1l0.2,11.8h0c2.3,14.7-2.5,29.6-2.5,29.8l0,0l-1,1.6l6.7,2.6l4.6-2.5
		l-6.4-1.5c2.4-4.7,4-11.2,5-17.1c1.9,4.2,4.7,17.1,4.9,17.9v2.5L274.7,320.3z M258.9,262.9c-0.7-1.2-0.9-2.6-0.7-3.9
		c0.4-2.9,2.6-5,4.8-4.8l0,0c2.2,0.3,3.7,2.8,3.3,5.8c-0.2,1.4-0.8,2.6-1.8,3.6c-0.8,0.8-1.9,1.3-3,1.2
		C260.4,264.6,259.4,263.9,258.9,262.9z M261.4,265.5c0.2,0,0.3,0,0.5,0c0.1,0,0.3,0,0.4,0l-0.2,0.8l-1.4-0.2v-0.8
		C260.9,265.4,261.1,265.4,261.4,265.5z M249.7,286.8l1.8,1.2l-0.5,2.2h-3.5c-0.1-0.3-0.4-1.1-0.7-1.7l1.4-1.9L249.7,286.8z
		 M274.3,319.5l-7-1V317l2.5-0.2l6.5,0.3L274.3,319.5z M276.3,279.5l2.3,0.6l-0.9,3.3l-2.9-0.6l-0.4-1.1l0,0l0.6-1.4L276.3,279.5z
		 M274.1,280.1l-0.4,1c-1.2-0.1-5.7-0.7-8.5-5.7l0.8-4.3C266.8,273.7,268.9,278.1,274.1,280.1z M265.8,267.8l-0.2,1.1l0,0
		c0,0,0,0.1,0,0.2l-1.2,6.3l-0.1,0c0,0,0,0.1,0.1,0.1l-1.8,9.6l0,0c0,0,0,0,0,0l0,0.1h-6.4l-0.4-18.3
		C257.2,266.9,262.2,266.9,265.8,267.8z M255.1,273.1c-0.9,0.7-1.7,1.8-2.4,3.2l-1.8-2.1c0.6-1.5,1.4-2.9,2.3-4.3
		c0.5-0.9,1.2-1.7,1.9-2.4L255.1,273.1L255.1,273.1z M256.3,285.9h6.2c-0.2,3-1.6,20.4-6.6,29.7l-2.1-0.2
		C254.6,312.9,258.3,299.3,256.3,285.9z M258.5,319.1L253,317l0.5-0.7l2.5,0.2l0,0l5,1.2L258.5,319.1z M263.2,286.9
		c3.5,10.7,5.7,26.6,6,29.2l-1.9,0.2c-0.5-2.4-3.5-16-5.4-18.8C262.6,292.9,263,288.9,263.2,286.9z"/>
	<polygon class="st1" points="249.1,343.9 230.6,320.8 229.7,321.4 248.2,344.5 	"/>
	<path class="st2" d="M268.6,393.2c0,0,3.6-0.4,6.3-0.7l3.5-0.2l-0.3-3.5l-0.4,0c-2.3,0.2-5.6,0.4-6.8,0.5
		c-1.3-12.7-7.6-26.3-8.3-27.7l2.3-9.9l3.1,3.5l7.5-3.4l2.3,0.9l0.2-0.1c0,0,2.2-1.6,2.6-1.9l-0.3-0.3l0,0l0.3-0.2
		c-0.1-0.1-0.8-1.2-1.2-2l0,0l-1.4-1.8l-3.4,1.9v1.2l-5.7,1.6l-2.8-5.2l0.4-1.8l-0.2-0.1c-0.7-0.4-1.5-0.7-2.4-0.9l0.4-1.4
		c0.8-0.2,1.6-0.6,2.2-1.1c1.3-1.1,2.1-2.5,2.5-4.1c0.9-3.5-0.5-6.8-3.2-7.4c-2.7-0.6-5.6,1.8-6.5,5.3c-0.4,1.6-0.4,3.2,0.2,4.7
		c0.3,0.9,0.9,1.6,1.7,2.1l-0.3,1.5c-1.9-0.2-3.4-0.2-3.6-0.2l-0.4,0l0,0.2l-7.9,5.5l2.4,10.2l-0.5,2.7l2.2,2.1l1.7-0.7
		c-0.1,9.7-7.9,26-8.3,26.9l-0.1-0.1l-2.5,2.2l0.3,0.3c4.1,3.4,4.2,3.4,4.4,3.4l0,0c0.2,0,5.8-0.2,6.4-0.2l1.3,0l-7.4-4.5
		c6.8-6.1,10.1-15.3,11.6-21.6c1.9,4.7,7.3,20.7,7.7,21.7v2.9L268.6,393.2z M260.3,338.8c-0.5-1.4-0.6-2.9-0.2-4.3
		c0.8-3.1,3.3-5.2,5.6-4.7h0c2.3,0.5,3.4,3.4,2.6,6.5c-0.4,1.5-1.2,2.8-2.3,3.7c-0.9,0.8-2.1,1.2-3.3,1
		C261.7,340.7,260.7,339.9,260.3,338.8z M262.6,341.7c0.3,0.1,0.6,0.1,0.9,0.1l0,0c0,0,0.1,0,0.1,0l-0.3,1l-1.5-0.3l0.2-1
		C262.2,341.6,262.4,341.6,262.6,341.7z M277.5,391.7l-2.6,0.1c-2.1,0.2-4.8,0.5-5.9,0.6v-1.9l1.5-0.4l0,0c0,0,4-0.3,6.8-0.5
		L277.5,391.7z M277.9,347.5l1,1.2c0.3,0.5,0.8,1.3,1,1.7c-0.6,0.4-1.7,1.3-2.2,1.6l-1.8-0.7l-0.4-1.4v-1L277.9,347.5z M268.5,352.1
		l6.2-1.7l0.3,0.9l-6.8,3.1l-3.1-3.5l0.9-3.8L268.5,352.1z M257.7,343.2c1.3,0,5.7,0.1,8,1.4l-3.9,16.9c-1-0.1-3.6-0.4-5.2-0.6
		l-0.8-1.1C256.2,356,257.5,345.2,257.7,343.2z M254.2,357.7l-0.8-8.4l3-1.7c-0.4,3.7-1,8.5-1.3,11.2L254.2,357.7z M253.4,357.5
		l-1.1,0.3l-1.6-6.9l2-1.1L253.4,357.5z M256.9,343.6c-0.1,0.7-0.2,1.8-0.4,3l-6.1,3.4l-0.4-1.7L256.9,343.6z M251.9,360.7l0.4-2.1
		l1.4-0.3l2.2,2.8l-2.5,1.1L251.9,360.7z M248.7,394.2c-0.4-0.3-2.1-1.6-3.7-2.9l1.7-1.5l1.3,0.7l0,0l5.7,3.5
		C251.9,394.2,249.3,394.2,248.7,394.2z M248.2,389.8l-0.9-0.5c0.5-1.1,2.3-5,4.1-9.8c2.8-7.5,4.2-13.4,4.2-17.5l1.1-0.5
		c1.3,0.1,3,0.4,4.2,0.5C260.6,364.4,258.5,380.8,248.2,389.8z M261.7,362.1c0.1,0,0.2,0,0.2,0c0.9,1.9,6.9,15.1,8.1,27.4l-1.2,0.3
		c-1-2.8-6.8-20.1-8-22.5C261.3,364.8,261.6,362.8,261.7,362.1z"/>
	<polygon class="st1" points="292.1,79.3 267.5,115.1 268.4,115.7 293,79.8 	"/>
	<polygon class="st2" points="304.7,43.3 304.7,43.3 304.7,43.3 	"/>
	<path class="st2" d="M300.2,36.7c-0.4,2.6,0.6,5,2.4,6v1.3c-2.4-0.1-4.3-0.1-4.5-0.1l-0.4,0l0,0.2c-0.4,0.4-4.7,4.6-6.6,13l0.4,0.1
		l-0.4,0c0,0.4-0.2,1.4-0.3,2.5c-0.2,1.5-0.4,3.3-0.5,4.1l-1.8,2.4l0.1,0.2c0.8,2.4,0.9,2.4,1.3,2.4l0,0h4.4l0.7-3.2l-2.1-1.4
		c0.3-1,1.1-4.2,1.6-6l-0.8-0.2c-0.5,1.8-1.3,4.9-1.6,6l-1-0.2c0.1-0.8,0.3-2.5,0.4-3.9c0.1-1.1,0.3-2,0.3-2.5
		c0.3-1.5,0.8-2.9,1.3-4.4l1.7,2c-0.4,0.9-0.8,1.8-1.2,2.9l0.8,0.2c1-2.8,2.1-4.9,3.3-6.1l0.2,11.8h0c2.3,14.7-2.5,29.6-2.5,29.8
		l0,0l-1.1,1.6l6.7,2.6l4.6-2.5l-6.4-1.5c2.4-4.7,4-11.2,5-17.1c1.9,4.3,4.8,17.5,4.9,17.9h0V97l8.2,1.1l3.2-3.9l-7.9-0.3
		c-0.3-2.5-2.8-20.2-6.6-31l1.6-8.5c1.3,2,3.2,3.6,5.4,4.5c1.1,0.4,2.2,0.7,3.3,0.8l-0.1,0l0.5,1.5L321,62l1.3-4.6l-3.4-0.9
		l-1.5,0.9c-6.8-2.5-8.1-9.2-8.3-10.5l0.3-1.7l-0.3-0.1c-1.1-0.3-2.3-0.6-3.5-0.7l0.3-1.1l-0.2,0c0.8-0.2,1.6-0.6,2.2-1.3
		c1.1-1.1,1.8-2.5,2-4c0.5-3.3-1.3-6.3-4-6.6c-0.2,0-0.3,0-0.5,0h0C303,31.3,300.7,33.6,300.2,36.7z M292.4,64.7l1.8,1.2l-0.5,2.2
		h-3.5c-0.1-0.3-0.4-1.1-0.7-1.7l1.4-1.9L292.4,64.7z M297.8,51c-0.9,0.7-1.7,1.8-2.4,3.2l-1.8-2.1c0.6-1.5,1.4-2.9,2.2-4.3
		c0.6-0.9,1.2-1.7,1.9-2.5L297.8,51L297.8,51z M299,63.8h6.2c-0.2,3-1.6,20.4-6.6,29.7l-2.1-0.2C297.3,90.8,301.1,77.2,299,63.8z
		 M301.2,96.9l-5.5-2.1l0.5-0.8l2.5,0.2l0,0l5,1.2L301.2,96.9z M317.1,97.3l-7-1v-1.5l2.3-0.2l6.7,0.3L317.1,97.3z M310,94.1
		c-0.5-2.4-3.5-16-5.4-18.7c0.7-4.6,1.1-8.6,1.3-10.6c3.5,10.7,5.7,26.6,6,29.2L310,94.1z M319.1,57.3l2.3,0.6l-0.9,3.3l-2.9-0.6
		l-0.4-1.1l0,0l0.6-1.4L319.1,57.3z M316.9,58l-0.4,1c-1.2-0.1-5.7-0.7-8.5-5.7l0.8-4.3C309.6,51.6,311.6,56,316.9,58z M308.3,46.7
		L308.3,46.7c-0.1,0,0,0.1,0,0.2l-1.2,6.3l-0.1,0c0,0,0,0.1,0.1,0.1l-1.8,9.6l0,0c0,0,0,0,0,0l0,0.1H299l-0.4-18.3
		c1.4,0,6.3,0,9.9,0.9L308.3,46.7z M304.8,44.2l-1.4-0.2v-0.9c0.3,0.1,0.5,0.2,0.8,0.2c0.2,0,0.3,0,0.5,0c0.1,0,0.2,0,0.3,0
		L304.8,44.2z M309.1,37.8c-0.2,1.4-0.8,2.6-1.8,3.6c-0.8,0.8-1.9,1.3-3,1.2c-2.2-0.3-3.7-2.8-3.3-5.8c0.4-2.9,2.6-5,4.8-4.8
		C308,32.3,309.5,34.9,309.1,37.8z"/>
	<polygon class="st1" points="290.3,157.5 271.2,149.3 270.7,150.2 289.9,158.4 	"/>
	<path class="st2" d="M323.9,128.1c-0.1-0.1-0.8-1.2-1.2-2l0,0l-1.4-1.8l-3.4,1.9v1.2l-5.7,1.6l-2.8-5.3l0.4-1.8l-0.2-0.1
		c-0.7-0.4-1.5-0.7-2.4-0.9l0.4-1.4c0.8-0.2,1.6-0.6,2.2-1.1c1.3-1.1,2.1-2.5,2.5-4.1c0.4-1.6,0.4-3.2-0.2-4.7
		c-0.5-1.3-1.6-2.3-3-2.7c-1.4-0.3-2.9,0.2-4,1.1c-1.3,1.1-2.1,2.5-2.5,4.1c-0.4,1.6-0.4,3.2,0.2,4.7c0.3,0.9,0.9,1.6,1.7,2.1
		l-0.3,1.5c-1.9-0.2-3.4-0.2-3.6-0.2l-0.4,0l0,0.2l-7.9,5.5l2.4,10.1l-0.5,2.7l2.1,2.1l1.7-0.7c-0.1,9.5-7.7,25.6-8.3,26.9l-0.1-0.1
		l-2.5,2.2l0.3,0.3c4.1,3.4,4.2,3.4,4.4,3.4l0,0c0.2,0,5.8-0.2,6.4-0.2l1.3,0l-7.4-4.5c6.8-6.1,10.1-15.3,11.6-21.6
		c1.9,4.6,7.4,20.8,7.7,21.8v2.9l0.5-0.1c0,0,3.6-0.4,6.3-0.7l3.5-0.2l-0.3-3.5l-0.4,0c-2.3,0.2-5.6,0.4-6.8,0.5
		c-1.3-12.8-7.7-26.6-8.3-27.7l2.3-9.8l3.1,3.5l7.5-3.4l2.3,0.9l0.2-0.1c0,0,2.2-1.6,2.6-1.9l-0.2-0.3l0,0L323.9,128.1z
		 M303.5,116.6c-0.5-1.4-0.6-2.9-0.2-4.3c0.4-1.5,1.2-2.8,2.3-3.7c0.9-0.8,2.1-1.2,3.3-1h0c1.1,0.3,2,1.1,2.4,2.2
		c0.5,1.4,0.6,2.9,0.2,4.3c-0.4,1.5-1.2,2.8-2.3,3.7c-0.9,0.8-2.1,1.2-3.3,1C304.8,118.5,303.9,117.7,303.5,116.6z M305.7,119.5
		c0.3,0.1,0.6,0.1,0.9,0.1l0,0c0,0,0.1,0,0.1,0l-0.3,1l-1.5-0.3l0.2-1C305.3,119.4,305.5,119.5,305.7,119.5z M300.9,121
		c1.3,0,5.7,0.1,8,1.4l-3.9,16.9c-1-0.1-3.6-0.4-5.2-0.6l-0.8-1.1C299.4,133.8,300.6,123,300.9,121z M297.4,135.5l-0.8-8.4l3-1.7
		c-0.4,3.6-1,8.4-1.3,11.2L297.4,135.5z M296.6,135.4l-1.1,0.3l-1.6-6.9l2-1.1L296.6,135.4z M300,121.4c-0.1,0.7-0.2,1.8-0.4,3.1
		l-6.1,3.4l-0.4-1.7L300,121.4z M295,138.6l0.4-2.2l1.4-0.3l2.2,2.8l-2.5,1.1L295,138.6z M291.9,172.1c-0.4-0.3-2.1-1.6-3.7-2.9
		l1.6-1.4l1.4,0.8l5.6,3.4C295.1,172,292.5,172.1,291.9,172.1z M291.4,167.7l-0.9-0.5c0.5-1.1,2.3-5,4.1-9.8
		c2.8-7.5,4.2-13.3,4.2-17.5l1.1-0.5c1.3,0.1,3,0.4,4.1,0.5C303.8,142.2,301.7,158.6,291.4,167.7z M320.7,169.5l-2.6,0.1
		c-2.1,0.2-4.8,0.5-5.9,0.6v-1.9l1.5-0.4l0,0c0,0,4-0.3,6.8-0.5L320.7,169.5z M312,167.7c-1-2.8-6.9-20.3-8.1-22.5
		c0.6-2.6,0.8-4.5,0.9-5.2c0.1,0,0.2,0,0.2,0c0.9,1.9,6.9,15.1,8.2,27.4L312,167.7z M311.4,132.3l-3.1-3.5l0,0l0.9-3.8l2.6,5
		l6.2-1.7l0.2,0.9L311.4,132.3z M320.8,129.8l-1.8-0.7l-0.4-1.4v-1.1l2.4-1.4l1,1.2c0.3,0.5,0.8,1.3,1,1.7
		C322.4,128.6,321.3,129.5,320.8,129.8z"/>
	<rect x="271.8" y="219.7" class="st1" width="20.7" height="1"/>
	<path class="st2" d="M291.3,206.7c-0.2,1.5-0.4,3.3-0.5,4.1l-1.8,2.4l0.1,0.2c0.8,2.4,0.9,2.4,1.3,2.4l0,0h4.4l0.7-3.2l-2.1-1.4
		c0.3-1,1.1-4.2,1.6-6l-0.8-0.2c-0.5,1.8-1.3,4.9-1.6,6l-1-0.2c0.1-0.8,0.3-2.5,0.4-3.9c0.1-1.1,0.3-2,0.3-2.5
		c0.3-1.5,0.8-2.9,1.3-4.4l1.7,2c-0.4,0.9-0.8,1.8-1.2,2.9l0.8,0.2c1-2.8,2.1-4.9,3.3-6.1l0.2,11.8h0c2.3,14.7-2.5,29.6-2.5,29.8
		l0,0l-1.1,1.6l6.7,2.6l4.6-2.5l-6.4-1.5c2.4-4.7,4-11.2,5-17.1c1.9,4.3,4.8,17.5,4.9,17.9h0v2.4l8.2,1.2l3.2-4l-7.9-0.3
		c-0.3-2.5-2.8-20.2-6.6-31l1.6-8.5c1.3,2,3.2,3.6,5.4,4.5c1.1,0.4,2.2,0.7,3.3,0.8l-0.1,0l0.5,1.5l4.1,0.9l1.3-4.6l-3.4-0.9
		l-1.5,0.9c-6.8-2.5-8.1-9.2-8.3-10.5l0.3-1.7l-0.3-0.1c-1.1-0.3-2.3-0.6-3.5-0.7l0.3-1.1l-0.2,0c2.1-0.5,3.8-2.6,4.2-5.3
		c0.5-3.3-1.3-6.3-4-6.6c-1.4-0.1-2.8,0.4-3.7,1.4c-1.1,1.1-1.8,2.5-2,4c-0.2,1.5,0,3,0.8,4.4c0.4,0.7,0.9,1.3,1.6,1.7v1.3
		c-2.4-0.1-4.3-0.1-4.5-0.1l-0.4,0l0,0.2c-0.4,0.4-4.7,4.6-6.6,13l0.4,0.1l-0.4,0C291.5,204.7,291.4,205.7,291.3,206.7z
		 M302.1,187.8c-0.7-1.2-0.9-2.6-0.7-3.9c0.2-1.4,0.8-2.6,1.8-3.6c0.7-0.7,1.6-1.1,2.6-1.2c0.1,0,0.2,0,0.4,0
		c2.2,0.3,3.7,2.8,3.3,5.8c-0.4,2.9-2.6,5-4.8,4.8C303.6,189.4,302.7,188.8,302.1,187.8z M304.6,190.3c0.2,0,0.3,0,0.5,0l0,0
		c0.1,0,0.2,0,0.3,0l-0.2,0.9l-1.4-0.2v-0.9C304.1,190.2,304.3,190.3,304.6,190.3z M299.4,210.8h6.2c-0.2,3-1.6,20.4-6.6,29.7
		l-2.1-0.2C297.7,237.8,301.5,224.2,299.4,210.8z M301.6,244l-5.5-2.1l0.5-0.8l2.5,0.2l0,0l5,1.2L301.6,244z M317.5,244.4l-7-1v-1.5
		l2.3-0.2l6.7,0.3L317.5,244.4z M310.5,241.1c-0.5-2.4-3.5-16-5.4-18.7c0.7-4.6,1.1-8.6,1.3-10.6c3.5,10.7,5.7,26.6,6,29.2
		L310.5,241.1z M319.5,204.3l2.3,0.6l-0.9,3.3l-2.9-0.6l-0.4-1.1l0,0l0.6-1.4L319.5,204.3z M317.3,205l-0.4,1
		c-1.2-0.1-5.7-0.7-8.5-5.7l0.8-4.3C310,198.6,312,203,317.3,205z M308.9,192.7l-0.2,1.1l-0.1,0c0,0,0,0.1,0,0.2l-1.2,6.3l-0.1,0
		c0,0,0,0.1,0.1,0.1l-1.8,9.6l0,0c0,0,0,0,0,0l0,0.1h-6.4l-0.4-18.3C300.4,191.7,305.3,191.7,308.9,192.7z M298.2,192.4l0.1,5.7
		l-0.1-0.1c-0.9,0.7-1.7,1.8-2.4,3.2l-1.8-2.1c0.6-1.5,1.4-2.9,2.2-4.3C296.8,194,297.5,193.2,298.2,192.4z M292.8,211.7l1.8,1.2
		l-0.5,2.2h-3.5c-0.1-0.3-0.4-1.1-0.7-1.7l1.4-1.9L292.8,211.7z"/>
	<rect x="270.5" y="295.6" class="st1" width="21.4" height="1"/>
	<path class="st2" d="M323.6,274.9c-0.1-0.1-0.8-1.2-1.2-2l0,0l-1.4-1.8l-3.4,1.9v1.2l-5.7,1.6l-2.8-5.3l0.4-1.8l-0.2-0.1
		c-0.7-0.4-1.5-0.7-2.4-0.9l0.4-1.4c0.8-0.2,1.6-0.6,2.2-1.1c1.3-1.1,2.1-2.5,2.5-4.1c0.4-1.6,0.4-3.2-0.2-4.7
		c-0.5-1.3-1.6-2.3-3-2.7c-1.4-0.3-2.9,0.2-4,1.1c-1.3,1.1-2.1,2.5-2.5,4.1c-0.4,1.6-0.4,3.2,0.2,4.7c0.3,0.9,0.9,1.6,1.7,2.1
		l-0.3,1.5c-1.9-0.2-3.4-0.2-3.6-0.2l-0.4,0l0,0.2l-7.9,5.5l2.4,10.1l-0.5,2.7l2.1,2.1l1.7-0.7c-0.1,9.5-7.7,25.6-8.3,26.9l-0.1-0.1
		l-2.5,2.2l0.3,0.3c4.1,3.4,4.2,3.4,4.4,3.4l0,0c0.2,0,5.8-0.2,6.4-0.2l1.3,0l-7.4-4.5c6.8-6.1,10.1-15.3,11.6-21.6
		c1.9,4.6,7.4,20.8,7.7,21.8v2.9l0.5-0.1c0,0,3.6-0.4,6.3-0.7l3.5-0.2l-0.3-3.5l-0.4,0c-2.3,0.2-5.6,0.4-6.8,0.5
		c-1.3-12.8-7.7-26.6-8.3-27.7l2.3-9.8l3.1,3.5l7.5-3.4l2.4,0.9l0.2-0.1c0,0,2.2-1.6,2.6-1.9l-0.3-0.3l0.1,0L323.6,274.9z
		 M303.2,263.4c-0.5-1.4-0.6-2.9-0.2-4.3c0.4-1.5,1.2-2.8,2.3-3.7c0.7-0.6,1.6-1,2.6-1c0.2,0,0.4,0,0.7,0.1c1.1,0.3,2,1.1,2.4,2.2
		c0.5,1.4,0.6,2.9,0.2,4.3c-0.4,1.5-1.2,2.8-2.3,3.7c-0.9,0.8-2.1,1.2-3.3,1C304.5,265.3,303.6,264.5,303.2,263.4z M305.5,266.3
		c0.3,0.1,0.6,0.1,0.9,0.1v0c0,0,0.1,0,0.1,0l-0.3,1l-1.5-0.3l0.2-1C305.1,266.2,305.3,266.3,305.5,266.3z M300.6,267.8
		c1.3,0,5.7,0.1,8,1.4l-3.9,16.9c-1-0.1-3.6-0.4-5.2-0.6l-0.8-1.1C299.1,280.6,300.4,269.8,300.6,267.8z M297.1,282.3l-0.8-8.4
		l3-1.7c-0.4,3.6-1,8.5-1.3,11.2L297.1,282.3z M296.3,282.2l-1.1,0.2l-1.6-6.9l2-1.1L296.3,282.2z M299.8,268.2
		c-0.1,0.7-0.2,1.8-0.4,3.1l-6.1,3.4l-0.4-1.7L299.8,268.2z M294.8,285.4l0.4-2.2l1.4-0.3l2.2,2.8l-2.5,1.1L294.8,285.4z
		 M291.6,318.9c-0.4-0.3-2.1-1.6-3.7-2.9l1.6-1.4l1.4,0.8l5.6,3.4C294.8,318.8,292.2,318.9,291.6,318.9z M291.1,314.5l-0.9-0.5
		c0.5-1.1,2.3-5,4.1-9.8c2.8-7.5,4.2-13.3,4.2-17.5l1.1-0.5c1.3,0.1,3,0.4,4.1,0.5C303.5,288.9,301.4,305.4,291.1,314.5z
		 M320.4,316.3l-2.6,0.1c-2.1,0.2-4.8,0.5-5.9,0.6v-1.9l1.5-0.4l0,0c0,0,4-0.3,6.8-0.5L320.4,316.3z M311.7,314.5
		c-1-2.8-6.9-20.3-8.1-22.5c0.6-2.6,0.8-4.5,0.9-5.2c0.1,0,0.2,0,0.2,0c0.9,1.8,6.9,15.1,8.2,27.4L311.7,314.5z M311.1,279.1
		l-3.1-3.5l0,0l0.9-3.8l2.6,5l6.2-1.7l0.2,0.9L311.1,279.1z M320.6,276.6l-1.8-0.7l-0.4-1.4v-1l2.4-1.4l1,1.2c0.3,0.5,0.8,1.3,1,1.7
		C322.2,275.4,321,276.3,320.6,276.6z"/>
	<polygon class="st1" points="274.6,372 274.6,372 274.6,372 	"/>
	<path class="st1" d="M274,371.2l0.7,0.8c0,0,0,0,0,0c0.8-0.4,13.2-4.3,21.4-6.9l-0.3-0.9C290.8,365.7,274.7,370.7,274,371.2z"/>
	<path class="st2" d="M326,351.7l-3.4-0.9l-1.5,0.9c-6.8-2.5-8.1-9.2-8.3-10.5l0.3-1.7l-0.3-0.1c-1.1-0.3-2.3-0.5-3.5-0.7l0.3-1.2
		l-0.1,0c0.8-0.2,1.5-0.6,2.1-1.2c1.1-1.1,1.8-2.5,2-4c0.5-3.3-1.3-6.3-4-6.6c-2.7-0.3-5.2,2.1-5.7,5.4c-0.2,1.5,0,3,0.8,4.4
		c0.4,0.7,0.9,1.3,1.6,1.7v1.3c-2.4-0.1-4.3-0.1-4.5-0.1l-0.4,0l0,0.2c-0.6,0.5-4.8,4.7-6.6,13l0.4,0.1l-0.5,0
		c0,0.4-0.2,1.4-0.3,2.5c-0.2,1.5-0.4,3.2-0.5,4.1l-1.8,2.4l0.1,0.2c0.8,2.4,0.9,2.4,1.3,2.4l0,0h4.4l0.7-3.2l-2.1-1.4
		c0.3-1,1.1-4.2,1.6-6l-0.8-0.2c-0.5,1.8-1.3,4.9-1.6,6l-1-0.2c0.1-0.8,0.3-2.5,0.4-3.9c0.1-1.1,0.3-2,0.3-2.5l0,0
		c0.3-1.5,0.8-3,1.3-4.4l1.7,2c-0.4,0.9-0.8,1.8-1.2,2.9l0.8,0.2c1-2.8,2.1-4.8,3.3-6.1l0.2,11.8h0c2.3,14.7-2.5,29.6-2.5,29.8l0,0
		l-1.1,1.6l6.7,2.6l4.6-2.5l-6.4-1.5c2.4-4.7,4-11.2,5-17.1c1.9,4.3,4.8,17.5,4.9,17.9h0v2.4l8.2,1.1l3.2-3.9l-7.9-0.3
		c-0.3-2.5-2.8-20.2-6.6-31l1.6-8.5c1.3,2,3.2,3.6,5.4,4.5c1,0.4,2.1,0.7,3.3,0.8l-0.1,0l0.5,1.5l4.1,0.9L326,351.7L326,351.7z
		 M305.4,335.1c-0.7-1.2-0.9-2.6-0.7-3.9c0.4-2.9,2.6-5,4.8-4.8v0c2.2,0.3,3.7,2.8,3.3,5.8c-0.2,1.4-0.8,2.6-1.8,3.6
		c-0.8,0.8-1.9,1.3-3,1.2C306.9,336.7,305.9,336.1,305.4,335.1z M307.9,337.6c0.2,0,0.3,0,0.5,0v0c0.1,0,0.2,0,0.3,0l-0.2,0.8
		l-1.4-0.2v-0.9C307.4,337.5,307.6,337.6,307.9,337.6z M296.1,359l1.8,1.2l-0.5,2.2h-3.5c-0.1-0.3-0.4-1.1-0.7-1.7l1.4-1.9
		L296.1,359z M301.5,345.3c-0.9,0.7-1.7,1.8-2.4,3.2l-1.8-2.1c0.6-1.5,1.4-2.9,2.2-4.3c0.5-0.9,1.2-1.7,1.9-2.4L301.5,345.3
		L301.5,345.3z M302.7,358.1h6.2c-0.2,3-1.6,20.4-6.6,29.8l-2.1-0.2C301,385.1,304.8,371.5,302.7,358.1z M304.9,391.2l-5.5-2.1
		l0.5-0.8l2.5,0.2l0,0l5,1.2L304.9,391.2z M320.8,391.7l-7-1v-1.5l2.3-0.2l6.7,0.3L320.8,391.7z M313.7,388.4
		c-0.5-2.4-3.5-16-5.4-18.8c0.7-4.6,1.1-8.6,1.3-10.6c3.5,10.7,5.7,26.6,6,29.2L313.7,388.4z M309,357.3L309,357.3
		C309,357.3,309,357.3,309,357.3L309,357.3l-6.4,0.1l-0.4-18.3c1.4,0,6.3,0,9.9,0.9L312,341l0,0c0,0,0,0.1,0,0.2l-1.2,6.3l-0.1,0
		c0,0,0,0.1,0.1,0.1L309,357.3z M311.6,347.5l0.8-4.3c0.8,2.7,2.9,7.1,8.1,9.1l-0.4,1C319,353.2,314.4,352.6,311.6,347.5z
		 M324.1,355.5l-2.9-0.6l-0.4-1.1l0,0l0.6-1.4l1.3-0.8l2.3,0.6L324.1,355.5z"/>
	<polygon class="st1" points="296.3,417.1 276.2,396.5 275.4,397.2 295.4,417.8 	"/>
	<path class="st2" d="M325.3,425.6c-0.1-0.1-0.8-1.2-1.2-2l0,0l-1.4-1.8l-3.4,1.9v1.2l-5.7,1.6l-2.8-5.2l0.4-1.8l-0.2-0.1
		c-0.7-0.4-1.5-0.7-2.4-0.9l0.4-1.4c2.1-0.5,4-2.5,4.7-5.2c0.9-3.5-0.5-6.8-3.2-7.4c-1.4-0.3-2.9,0.2-4,1.1
		c-1.3,1.1-2.1,2.5-2.5,4.1c-0.7,2.8,0.1,5.6,1.9,6.8l-0.3,1.4c-1.9-0.2-3.4-0.2-3.5-0.2l-0.4,0l0,0.2l-7.9,5.5l2.4,10.2l-0.5,2.7
		l2.1,2.1l1.7-0.7c-0.1,9.5-7.7,25.6-8.3,26.9l-0.1-0.1l-2.5,2.2l0.3,0.3c4.1,3.4,4.2,3.4,4.4,3.4v0c0.2,0,5.8-0.2,6.4-0.2l1.3,0
		l-7.4-4.5c6.8-6.1,10.1-15.3,11.6-21.6c1.9,4.6,7.4,20.8,7.7,21.8v2.9l0.5-0.1c0,0,3.6-0.4,6.3-0.7l3.5-0.2l-0.3-3.5l-0.4,0
		c-2.3,0.2-5.6,0.4-6.8,0.5c-1.3-12.7-7.6-26.3-8.3-27.7l2.3-9.9l3.1,3.5l7.5-3.4l2.3,0.9l0.2-0.1c0,0,2.2-1.6,2.6-1.9l-0.2-0.3l0,0
		L325.3,425.6z M304.7,409.9c0.4-1.5,1.2-2.8,2.3-3.7c0.7-0.6,1.6-1,2.6-1v0c0.2,0,0.4,0,0.7,0.1c2.3,0.5,3.4,3.4,2.6,6.5
		c-0.8,3.1-3.3,5.2-5.6,4.7C305,415.9,303.9,413,304.7,409.9z M307.1,417.1c0.3,0.1,0.6,0.1,0.8,0.1l0,0c0,0,0.1,0,0.1,0l-0.3,1
		l-1.5-0.3l0.2-1C306.7,417,306.9,417,307.1,417.1z M302.3,418.5c1.3,0,5.7,0.1,8,1.4l-3.9,16.9c-1-0.1-3.6-0.4-5.2-0.6l-0.8-1
		C300.8,431.4,302.1,420.5,302.3,418.5z M298.8,433.1l-0.8-8.4l3-1.7c-0.4,3.7-1,8.5-1.3,11.2L298.8,433.1z M297.9,432.9l-1.1,0.3
		l-1.6-7l2-1.1L297.9,432.9z M301.4,419c-0.1,0.7-0.2,1.8-0.4,3l-6.1,3.4l-0.4-1.7L301.4,419z M296.4,436.1l0.4-2.2l1.4-0.3l2.2,2.8
		l-2.5,1.1L296.4,436.1z M293.3,469.6c-0.4-0.3-2.1-1.6-3.7-2.9l1.6-1.4l1.4,0.8l5.6,3.4C296.4,469.5,293.9,469.6,293.3,469.6z
		 M292.8,465.2l-0.9-0.5c0.5-1.1,2.3-5,4.1-9.8c2.8-7.5,4.2-13.3,4.2-17.5l1.1-0.5c1.3,0.1,3,0.4,4.1,0.5
		C305.1,439.6,303.1,456.1,292.8,465.2z M322,467.1l-2.6,0.1c-2.1,0.2-4.8,0.5-5.9,0.6V466l1.5-0.4l0,0c0,0,4-0.3,6.8-0.5L322,467.1
		z M313.4,465.2c-1-2.8-6.9-20.3-8.1-22.5c0.6-2.6,0.8-4.5,0.9-5.2c0.1,0,0.2,0,0.2,0c0.9,1.8,6.9,15.1,8.2,27.4L313.4,465.2z
		 M312.7,429.8l-3.1-3.5l0.9-3.8l2.6,4.9l6.2-1.7l0.3,0.9L312.7,429.8z M322.2,427.3l-1.8-0.7l-0.4-1.4v-1.1l2.4-1.4l1,1.2
		c0.3,0.5,0.8,1.3,1,1.7C323.8,426.1,322.7,427,322.2,427.3z"/>
</g>
</svg>
