<?xml version="1.0" encoding="UTF-8" standalone="no"?>
<!-- Generator: Adobe Illustrator 27.8.1, SVG Export Plug-In . SVG Version: 6.00 Build 0)  -->

<svg
   version="1.1"
   id="Layer_1"
   x="0px"
   y="0px"
   viewBox="0 0 172 500"
   xml:space="preserve"
   sodipodi:docname="MultiplyingDisciples-1.svg"
   width="172"
   height="500"
   inkscape:version="1.1.2 (0a00cf5339, 2022-02-04)"
   xmlns:inkscape="http://www.inkscape.org/namespaces/inkscape"
   xmlns:sodipodi="http://sodipodi.sourceforge.net/DTD/sodipodi-0.dtd"
   xmlns="http://www.w3.org/2000/svg"
   xmlns:svg="http://www.w3.org/2000/svg"><defs
   id="defs349" /><sodipodi:namedview
   id="namedview347"
   pagecolor="#ffffff"
   bordercolor="#666666"
   borderopacity="1.0"
   inkscape:pageshadow="2"
   inkscape:pageopacity="0.0"
   inkscape:pagecheckerboard="0"
   showgrid="false"
   inkscape:zoom="0.871"
   inkscape:cx="295.6372"
   inkscape:cy="378.87486"
   inkscape:window-width="1916"
   inkscape:window-height="1029"
   inkscape:window-x="1920"
   inkscape:window-y="49"
   inkscape:window-maximized="1"
   inkscape:current-layer="Layer_1" />
<style
   type="text/css"
   id="style2">
	.st0{fill:none;}
	.st1{fill:#27AAE1;}
	.st2{fill:#010101;}
</style>
<g
   id="g344"
   transform="matrix(-1,0,0,1,335.98117,0)">
	<path
   class="st0"
   d="m 216.3,186.5 c 0.4,-2.9 -1,-5.5 -3.3,-5.8 v 0 c -2.2,-0.3 -4.4,1.9 -4.8,4.8 -0.4,2.9 1,5.5 3.3,5.8 2.2,0.2 4.3,-1.9 4.8,-4.8 z"
   id="path4" />
	<path
   class="st0"
   d="m 212.4,212.4 h -6.2 c 2.1,13.4 -1.7,27 -2.5,29.6 l 2.1,0.2 c 5,-9.4 6.4,-26.8 6.6,-29.8 z"
   id="path6" />
	<path
   class="st0"
   d="m 212,192.8 0.2,-0.8 c -0.1,0 -0.2,0 -0.4,0 v 0 c -0.2,0 -0.3,0 -0.5,0 -0.3,0 -0.5,-0.1 -0.8,-0.2 v 0.8 z"
   id="path8" />
	<path
   class="st0"
   d="m 207.5,288 -1.1,0.5 c 0,4.2 -1.4,10.1 -4.2,17.5 -1.8,4.8 -3.6,8.7 -4.1,9.8 l 0.9,0.5 c 10.3,-9.1 12.4,-25.5 12.6,-27.8 -1.2,-0.2 -2.9,-0.4 -4.1,-0.5 z"
   id="path10" />
	<path
   class="st0"
   d="m 220.7,316 c -1.3,-12.3 -7.3,-25.6 -8.2,-27.4 -0.1,0 -0.1,0 -0.2,0 -0.1,0.7 -0.3,2.6 -0.9,5.2 1.2,2.4 7.1,19.7 8,22.5 z"
   id="path12" />
	<polygon
   class="st0"
   points="205.9,243 206,242.9 203.5,242.7 203,243.5 208.4,245.6 211,244.1 "
   id="polygon14" />
	<path
   class="st0"
   d="m 211.8,224 c 1.9,2.9 4.9,16.4 5.4,18.7 l 1.9,-0.2 c -0.3,-2.6 -2.5,-18.4 -6,-29.1 -0.1,2.1 -0.5,6 -1.3,10.6 z"
   id="path16" />
	<polygon
   class="st0"
   points="226.2,205.9 224.9,206.8 224.3,208.1 224.7,209.2 227.6,209.8 228.5,206.5 "
   id="polygon18" />
	<polygon
   class="st0"
   points="217.3,243.5 217.3,245 224.3,246 226.3,243.5 219.6,243.3 "
   id="polygon20" />
	<path
   class="st0"
   d="m 197.5,316.4 -1.6,1.4 c 1.6,1.3 3.2,2.6 3.7,2.9 0.6,0 3.2,-0.1 5,-0.2 l -5.6,-3.4 z"
   id="path22" />
	<path
   class="st0"
   d="m 226.6,277.7 1.8,0.7 c 0.5,-0.3 1.6,-1.2 2.2,-1.6 -0.3,-0.4 -0.7,-1.2 -1,-1.7 l -1,-1.2 -2.4,1.4 v 1.1 z"
   id="path24" />
	<path
   class="st0"
   d="m 221.2,316.6 -1.5,0.4 v 1.9 c 1.1,-0.1 3.7,-0.4 5.9,-0.6 l 2.6,-0.1 -0.2,-2 c -2.8,0.2 -6.8,0.5 -6.8,0.4 z"
   id="path26" />
	<path
   class="st0"
   d="m 223.6,207.6 0.4,-1 c -5.2,-2 -7.3,-6.4 -8.1,-9 l -0.8,4.3 c 2.9,5 7.4,5.6 8.5,5.7 z"
   id="path28" />
	<polygon
   class="st0"
   points="204.4,284.7 203,285 202.6,287.2 204.1,288.7 206.6,287.5 "
   id="polygon30" />
	<path
   class="st0"
   d="m 214,269.2 0.3,-1 c 0,0 -0.1,0 -0.1,0 v 0 c -0.3,0 -0.6,0 -0.9,-0.1 -0.2,0 -0.4,-0.1 -0.6,-0.2 l -0.2,1 z"
   id="path32" />
	<polygon
   class="st0"
   points="216.7,273.7 215.8,277.4 218.9,280.9 225.8,277.8 225.5,276.9 219.3,278.6 "
   id="polygon34" />
	<path
   class="st0"
   d="m 207.2,273.1 c 0.2,-1.3 0.3,-2.4 0.4,-3.1 l -6.8,4.8 0.4,1.7 z"
   id="path36" />
	<polygon
   class="st0"
   points="204.1,284 203.3,276.2 201.3,277.3 203,284.3 "
   id="polygon38" />
	<path
   class="st0"
   d="m 207.1,274.1 -3,1.7 0.8,8.4 0.9,1.1 c 0.3,-2.8 0.9,-7.6 1.3,-11.2 z"
   id="path40" />
	<path
   class="st0"
   d="m 207.3,287.2 c 1.6,0.2 4.2,0.5 5.2,0.6 l 3.9,-16.9 c -2.3,-1.2 -6.7,-1.4 -8,-1.4 -0.2,2 -1.5,12.8 -2,16.5 z"
   id="path42" />
	<path
   class="st0"
   d="m 202.6,202.8 c 0.8,-1.4 1.6,-2.5 2.4,-3.2 l 0.1,0.1 -0.1,-5.7 c -0.7,0.8 -1.4,1.6 -1.9,2.5 -0.9,1.4 -1.6,2.8 -2.2,4.3 z"
   id="path44" />
	<path
   class="st0"
   d="m 242.6,141.4 c 0.2,0.7 0.5,1.4 0.7,1.7 h 3.5 l 0.5,-2.2 -1.8,-1.2 -1.5,-0.3 z"
   id="path46" />
	<path
   class="st0"
   d="m 305.2,191.2 0.2,-0.9 c -0.1,0 -0.2,0 -0.3,0 v 0 c -0.2,0 -0.3,0 -0.5,0 -0.3,0 -0.5,-0.1 -0.8,-0.2 v 0.9 z"
   id="path48" />
	<path
   class="st0"
   d="m 213.5,267.4 c 1.2,0.2 2.4,-0.2 3.3,-1 1.1,-1 1.9,-2.3 2.3,-3.7 0.8,-3.1 -0.4,-6 -2.6,-6.5 v 0 c -2.3,-0.5 -4.8,1.6 -5.6,4.7 -0.8,3.1 0.3,6.1 2.6,6.5 z"
   id="path50" />
	<path
   class="st0"
   d="m 248.5,129.3 c 0.8,-1.4 1.6,-2.5 2.4,-3.2 l 0.1,0.1 -0.1,-5.7 c -0.9,1 -2.7,3.3 -4.1,6.8 z"
   id="path52" />
	<path
   class="st0"
   d="m 305.1,222.4 c 1.9,2.8 4.9,16.4 5.4,18.7 l 1.9,-0.2 c -0.3,-2.6 -2.5,-18.5 -6,-29.2 -0.2,2.1 -0.6,6.1 -1.3,10.7 z"
   id="path54" />
	<polygon
   class="st0"
   points="310.5,241.9 310.5,243.4 317.5,244.4 319.5,241.9 312.8,241.7 "
   id="polygon56" />
	<path
   class="st0"
   d="m 258.4,138.2 v 0 c 0,-0.1 0,-0.1 0,-0.1 v 0 l 1.8,-9.6 c 0,0 0,-0.1 -0.1,-0.1 h 0.1 l 1.2,-6.3 c 0,-0.1 0,-0.2 0,-0.2 h 0.1 l 0.2,-1.1 c -3.6,-1 -8.5,-1 -9.9,-0.9 l 0.4,18.3 z"
   id="path58" />
	<path
   class="st0"
   d="m 305.6,210.8 h -6.2 c 2.1,13.4 -1.7,27 -2.5,29.6 l 2.1,0.2 c 5,-9.4 6.4,-26.8 6.6,-29.8 z"
   id="path60" />
	<polygon
   class="st0"
   points="299.2,241.4 299.2,241.3 296.7,241.1 296.2,241.9 301.6,244 304.2,242.5 "
   id="polygon62" />
	<path
   class="st0"
   d="m 309.5,184.8 c 0.4,-2.9 -1,-5.5 -3.3,-5.8 -0.1,0 -0.2,0 -0.4,0 -1,0 -2,0.5 -2.6,1.2 -1,1 -1.6,2.3 -1.8,3.6 -0.2,1.3 0,2.7 0.7,3.9 0.5,1 1.5,1.7 2.6,1.8 2.2,0.4 4.4,-1.8 4.8,-4.7 z"
   id="path64" />
	<path
   class="st0"
   d="m 257.9,119.3 0.2,-0.8 c -0.1,0 -0.3,0 -0.4,0 v 0 c -0.2,0 -0.3,0 -0.5,0 -0.3,0 -0.5,-0.1 -0.8,-0.2 v 0.9 z"
   id="path66" />
	<path
   class="st0"
   d="M 258.2,138.9 H 252 c 2.1,13.4 -1.7,27 -2.5,29.6 l 2.1,0.2 c 5,-9.4 6.4,-26.8 6.6,-29.8 z"
   id="path68" />
	<path
   class="st0"
   d="m 269.5,134.1 0.4,-1 c -5.3,-2 -7.3,-6.4 -8.1,-9.1 l -0.8,4.3 c 2.8,5.1 7.4,5.7 8.5,5.8 z"
   id="path70" />
	<path
   class="st0"
   d="m 196.7,214.9 c 0.2,0.7 0.5,1.4 0.7,1.7 h 3.5 l 0.5,-2.2 -1.8,-1.2 -1.5,-0.3 z"
   id="path72" />
	<path
   class="st0"
   d="m 262.1,112.9 c 0.4,-2.9 -1,-5.5 -3.3,-5.8 -0.1,0 -0.2,0 -0.4,0 v 0 c -1,0 -2,0.5 -2.6,1.2 -1,1 -1.6,2.3 -1.8,3.6 -0.2,1.3 0,2.7 0.7,3.9 0.5,1 1.5,1.7 2.6,1.8 2.2,0.4 4.4,-1.8 4.8,-4.7 z"
   id="path74" />
	<path
   class="st0"
   d="m 257.7,150.5 c 1.9,2.8 4.9,16.4 5.4,18.7 L 265,169 c -0.3,-2.6 -2.5,-18.5 -6,-29.2 -0.2,2 -0.6,6 -1.3,10.7 z"
   id="path76" />
	<polygon
   class="st0"
   points="251.8,169.5 251.8,169.4 249.3,169.2 248.8,169.9 254.3,172 256.8,170.6 "
   id="polygon78" />
	<polygon
   class="st0"
   points="272.1,132.4 270.8,133.2 270.2,134.6 270.6,135.7 273.5,136.3 274.4,133 "
   id="polygon80" />
	<polygon
   class="st0"
   points="263.2,170 263.2,171.5 270.2,172.5 272.2,170 265.5,169.7 "
   id="polygon82" />
	<path
   class="st0"
   d="m 299.8,138.6 c 1.6,0.2 4.2,0.5 5.2,0.6 l 3.9,-16.9 c -2.3,-1.2 -6.7,-1.4 -8,-1.4 -0.2,2 -1.5,12.8 -2,16.5 z"
   id="path84" />
	<polygon
   class="st0"
   points="318.2,129.1 317.9,128.3 311.7,130 309.1,125 308.2,128.8 311.4,132.3 "
   id="polygon86" />
	<path
   class="st0"
   d="m 322,126.5 -1,-1.2 -2.4,1.4 v 1.1 l 0.4,1.4 1.8,0.7 c 0.5,-0.3 1.6,-1.2 2.2,-1.6 -0.2,-0.5 -0.7,-1.3 -1,-1.8 z"
   id="path88" />
	<path
   class="st0"
   d="m 299.9,139.4 -1.1,0.5 c 0,4.2 -1.4,10.1 -4.2,17.5 -1.8,4.8 -3.6,8.7 -4.1,9.8 l 0.9,0.5 c 10.3,-9 12.4,-25.5 12.6,-27.8 -1.1,-0.2 -2.8,-0.4 -4.1,-0.5 z"
   id="path90" />
	<path
   class="st0"
   d="m 305.7,265.6 c 1.2,0.2 2.4,-0.2 3.3,-1 1.1,-1 1.9,-2.3 2.3,-3.7 0.4,-1.4 0.3,-2.9 -0.2,-4.3 -0.4,-1.1 -1.3,-1.9 -2.4,-2.2 -0.2,0 -0.4,-0.1 -0.7,-0.1 -1,0 -1.9,0.4 -2.6,1 -1.1,1 -1.9,2.3 -2.3,3.7 -0.4,1.4 -0.3,2.9 0.2,4.3 0.3,1.2 1.2,2 2.4,2.3 z"
   id="path92" />
	<path
   class="st0"
   d="m 313.7,168 -1.5,0.4 v 1.9 c 1.1,-0.1 3.7,-0.4 5.9,-0.6 l 2.6,-0.1 -0.2,-2 c -2.8,0.2 -6.8,0.4 -6.8,0.4 z"
   id="path94" />
	<path
   class="st0"
   d="m 304.8,139.9 c -0.1,0.7 -0.3,2.6 -0.9,5.2 1.2,2.3 7.1,19.7 8.1,22.5 l 1.2,-0.3 c -1.3,-12.3 -7.3,-25.5 -8.2,-27.4 0,0.1 -0.1,0.1 -0.2,0 z"
   id="path96" />
	<path
   class="st0"
   d="m 306.2,267.4 0.3,-1 c 0,0 -0.1,0 -0.1,0 v 0 c -0.3,0 -0.6,0 -0.9,-0.1 -0.2,-0.1 -0.4,-0.1 -0.6,-0.2 l -0.2,1 z"
   id="path98" />
	<polygon
   class="st0"
   points="296.3,282.2 295.5,274.4 293.5,275.5 295.1,282.4 "
   id="polygon100" />
	<path
   class="st0"
   d="m 299.4,271.3 c 0.2,-1.3 0.3,-2.4 0.4,-3.1 l -6.8,4.8 0.4,1.7 z"
   id="path102" />
	<path
   class="st0"
   d="m 299.5,285.4 c 1.6,0.2 4.2,0.5 5.2,0.6 l 3.9,-16.9 c -2.3,-1.2 -6.7,-1.4 -8,-1.4 -0.2,2 -1.5,12.8 -2,16.5 z"
   id="path104" />
	<path
   class="st0"
   d="m 299.3,272.2 -3,1.7 0.8,8.4 0.8,1.1 c 0.4,-2.7 0.9,-7.5 1.4,-11.2 z"
   id="path106" />
	<path
   class="st0"
   d="m 305.9,118.8 c 1.2,0.2 2.4,-0.2 3.3,-1 1.1,-1 1.9,-2.3 2.3,-3.7 0.4,-1.4 0.3,-2.9 -0.2,-4.3 -0.4,-1.1 -1.3,-1.9 -2.4,-2.2 v 0 c -1.2,-0.2 -2.4,0.2 -3.3,1 -1.1,1 -1.9,2.3 -2.3,3.7 -0.4,1.4 -0.3,2.9 0.2,4.3 0.4,1.1 1.3,1.9 2.4,2.2 z"
   id="path108" />
	<polygon
   class="st0"
   points="319.5,204.3 318.1,205.1 317.5,206.5 317.9,207.6 320.8,208.2 321.7,204.9 "
   id="polygon110" />
	<path
   class="st0"
   d="m 306.4,120.6 0.3,-1 c 0,0 -0.1,0 -0.1,0 v 0 c -0.3,0 -0.6,0 -0.9,-0.1 -0.2,0 -0.4,-0.1 -0.6,-0.2 l -0.2,1 z"
   id="path112" />
	<path
   class="st0"
   d="m 289.9,167.7 -1.6,1.4 c 1.6,1.3 3.2,2.6 3.7,2.9 0.6,0 3.2,-0.1 5,-0.2 l -5.6,-3.4 z"
   id="path114" />
	<path
   class="st0"
   d="m 299.7,124.5 c 0.2,-1.3 0.3,-2.4 0.4,-3.1 l -6.8,4.8 0.4,1.7 z"
   id="path116" />
	<path
   class="st0"
   d="m 299.5,125.4 -3,1.7 0.8,8.4 0.8,1.1 c 0.4,-2.7 1,-7.5 1.4,-11.2 z"
   id="path118" />
	<polygon
   class="st0"
   points="296.8,136.1 295.4,136.4 295,138.6 296.5,140 299,138.9 "
   id="polygon120" />
	<polygon
   class="st0"
   points="296.6,135.4 295.8,127.6 293.8,128.7 295.4,135.6 "
   id="polygon122" />
	<polygon
   class="st0"
   points="265.1,350.9 268.2,354.4 275,351.3 274.8,350.4 268.5,352.1 265.9,347.2 "
   id="polygon124" />
	<path
   class="st0"
   d="m 275.9,351.3 1.8,0.7 c 0.5,-0.3 1.6,-1.2 2.2,-1.6 -0.3,-0.4 -0.7,-1.2 -1,-1.7 l -1,-1.2 -2.4,1.4 v 1 z"
   id="path126" />
	<path
   class="st0"
   d="m 256.4,347.6 -3,1.7 0.8,8.4 0.9,1.1 c 0.3,-2.7 0.9,-7.6 1.3,-11.2 z"
   id="path128" />
	<polygon
   class="st0"
   points="253.4,357.5 252.6,349.7 250.6,350.9 252.2,357.8 "
   id="polygon130" />
	<path
   class="st0"
   d="m 270,389.5 c -1.3,-12.3 -7.3,-25.4 -8.1,-27.4 -0.1,0 -0.1,0 -0.2,0 -0.1,0.7 -0.3,2.6 -0.9,5.2 1.2,2.4 7.1,19.7 8,22.5 z"
   id="path132" />
	<path
   class="st0"
   d="m 256.6,360.8 c 1.6,0.2 4.2,0.5 5.2,0.6 l 3.9,-16.9 c -2.3,-1.2 -6.7,-1.4 -8,-1.4 -0.2,2 -1.5,12.8 -2,16.5 z"
   id="path134" />
	<path
   class="st0"
   d="m 256.7,361.5 -1.1,0.5 c 0,4.2 -1.4,10.1 -4.2,17.5 -1.8,4.8 -3.6,8.7 -4.1,9.8 l 0.9,0.5 c 10.3,-9 12.4,-25.4 12.6,-27.8 -1.1,-0.1 -2.9,-0.3 -4.1,-0.5 z"
   id="path136" />
	<polygon
   class="st0"
   points="296.5,282.9 295.2,283.2 294.8,285.4 296.2,286.8 298.8,285.7 "
   id="polygon138" />
	<path
   class="st0"
   d="m 256.5,346.6 c 0.2,-1.3 0.3,-2.3 0.4,-3 l -6.8,4.8 0.4,1.7 z"
   id="path140" />
	<polygon
   class="st0"
   points="253.6,358.3 252.3,358.6 251.9,360.7 253.3,362.2 255.8,361.1 "
   id="polygon142" />
	<path
   class="st0"
   d="m 248,390.6 -1.3,-0.7 -1.7,1.5 c 1.6,1.3 3.2,2.6 3.7,2.9 0.6,0 3.2,-0.1 5,-0.2 z"
   id="path144" />
	<path
   class="st0"
   d="m 313.4,314.8 -1.5,0.4 v 1.9 c 1.1,-0.1 3.7,-0.4 5.9,-0.6 l 2.6,-0.1 -0.2,-2 c -2.8,0.2 -6.8,0.4 -6.8,0.4 z"
   id="path146" />
	<path
   class="st0"
   d="m 299.6,286.1 -1.1,0.5 c 0,4.2 -1.4,10.1 -4.2,17.5 -1.8,4.8 -3.6,8.7 -4.1,9.8 l 0.9,0.5 c 10.3,-9.1 12.4,-25.5 12.6,-27.8 -1.1,-0.1 -2.8,-0.3 -4.1,-0.5 z"
   id="path148" />
	<path
   class="st0"
   d="m 289.6,314.5 -1.6,1.4 c 1.6,1.3 3.2,2.6 3.7,2.9 0.6,0 3.2,-0.1 5,-0.2 l -5.6,-3.4 z"
   id="path150" />
	<path
   class="st0"
   d="m 304.5,286.7 c -0.1,0.7 -0.3,2.6 -0.9,5.2 1.2,2.3 7.1,19.7 8.1,22.5 l 1.2,-0.3 c -1.3,-12.3 -7.3,-25.5 -8.2,-27.4 0,0 -0.1,0 -0.2,0 z"
   id="path152" />
	<path
   class="st0"
   d="m 262.8,341 c 1.2,0.2 2.4,-0.2 3.3,-1 1.1,-1 1.9,-2.3 2.3,-3.7 0.8,-3.1 -0.4,-6 -2.6,-6.5 v 0 c -2.3,-0.5 -4.8,1.6 -5.6,4.7 -0.4,1.4 -0.3,2.9 0.2,4.3 0.3,1.1 1.3,1.9 2.4,2.2 z"
   id="path154" />
	<path
   class="st0"
   d="m 270.5,390.1 -1.5,0.4 v 1.9 c 1.1,-0.1 3.7,-0.4 5.9,-0.6 l 2.6,-0.1 -0.2,-2 c -2.8,0.2 -6.8,0.5 -6.8,0.4 z"
   id="path156" />
	<path
   class="st0"
   d="m 263.3,342.8 0.3,-1 c 0,0 -0.1,0 -0.1,0 v 0 c -0.3,0 -0.6,0 -0.9,-0.1 -0.2,0 -0.4,-0.1 -0.6,-0.2 l -0.2,1 z"
   id="path158" />
	<polygon
   class="st0"
   points="317.9,275.9 317.7,275 311.5,276.7 308.8,271.8 307.9,275.6 311.1,279.1 "
   id="polygon160" />
	<path
   class="st0"
   d="m 321.7,273.3 -1,-1.2 -2.4,1.4 v 1 l 0.4,1.4 1.8,0.7 c 0.5,-0.3 1.6,-1.2 2.2,-1.6 -0.2,-0.4 -0.7,-1.2 -1,-1.7 z"
   id="path162" />
	<path
   class="st0"
   d="m 212.5,211.7 v 0 c 0,-0.1 0,-0.1 0,0 v 0 l 1.8,-9.7 c 0,0 -0.1,-0.1 -0.1,-0.1 l 0.1,-0.1 1.1,-6.2 c 0,-0.1 0,-0.2 0,-0.2 h 0.1 l 0.2,-1.1 c -3.6,-1 -8.5,-1 -9.9,-0.9 l 0.4,18.3 z"
   id="path164" />
	<path
   class="st0"
   d="m 291.3,465.2 -1.6,1.4 c 1.6,1.3 3.2,2.6 3.7,2.9 0.6,0 3.2,-0.1 5,-0.2 l -5.6,-3.4 z"
   id="path166" />
	<path
   class="st0"
   d="m 307.8,418.1 0.3,-1 c 0,0 -0.1,0 -0.1,0 v 0 c -0.3,0 -0.6,0 -0.8,-0.1 -0.2,0 -0.4,-0.1 -0.6,-0.2 l -0.2,1 z"
   id="path168" />
	<path
   class="st0"
   d="m 307.3,416.4 c 2.3,0.5 4.8,-1.6 5.6,-4.7 0.8,-3.1 -0.4,-6 -2.6,-6.5 -0.2,0 -0.4,-0.1 -0.7,-0.1 v 0 c -1,0 -1.9,0.4 -2.6,1 -1.1,1 -1.9,2.3 -2.3,3.7 -0.8,3.2 0.3,6.1 2.6,6.6 z"
   id="path170" />
	<path
   class="st0"
   d="m 301.1,36.8 c -0.4,2.9 1,5.5 3.3,5.8 1.1,0.1 2.2,-0.3 3,-1.2 1,-1 1.6,-2.3 1.8,-3.6 0.4,-2.9 -1,-5.5 -3.3,-5.8 -2.3,-0.2 -4.4,1.9 -4.8,4.8 z"
   id="path172" />
	<path
   class="st0"
   d="m 300.9,422.9 -3,1.7 0.8,8.4 0.9,1.1 c 0.3,-2.7 0.9,-7.5 1.3,-11.2 z"
   id="path174" />
	<polygon
   class="st0"
   points="298.2,433.6 296.8,433.9 296.4,436.1 297.9,437.5 300.4,436.4 "
   id="polygon176" />
	<path
   class="st0"
   d="m 301.1,422 c 0.2,-1.3 0.3,-2.4 0.4,-3 l -6.8,4.8 0.4,1.7 z"
   id="path178" />
	<path
   class="st0"
   d="m 304.7,43.3 v 0 c 0,0 0,0 0,0 -0.2,0 -0.3,0 -0.5,0 -0.3,0 -0.5,-0.1 -0.8,-0.2 V 44 l 1.4,0.2 0.2,-0.9 c -0.1,0 -0.2,0 -0.3,0 0,0 0,0 0,0 z"
   id="path180" />
	<polygon
   class="st0"
   points="297.9,432.9 297.2,425.1 295.2,426.2 296.8,433.2 "
   id="polygon182" />
	<path
   class="st0"
   d="m 301.1,436.1 c 1.6,0.2 4.3,0.5 5.2,0.6 l 3.9,-16.9 c -2.3,-1.2 -6.7,-1.4 -8,-1.4 -0.2,2 -1.5,12.9 -2,16.5 z"
   id="path184" />
	<polygon
   class="st0"
   points="310.1,94.8 310.1,96.4 317.1,97.3 319.1,94.9 312.4,94.6 "
   id="polygon186" />
	<path
   class="st0"
   d="M 305.2,63.8 H 299 c 2.1,13.4 -1.7,27 -2.5,29.6 l 2.1,0.2 c 5,-9.4 6.4,-26.9 6.6,-29.8 z"
   id="path188" />
	<polygon
   class="st0"
   points="298.8,94.3 296.3,94.1 295.8,94.8 301.2,96.9 303.8,95.5 "
   id="polygon190" />
	<path
   class="st0"
   d="m 295.9,47.8 c -0.9,1.4 -1.6,2.8 -2.2,4.3 l 1.8,2.1 c 0.8,-1.4 1.6,-2.5 2.4,-3.2 l 0.1,0.1 -0.1,-5.7 c -0.8,0.7 -1.5,1.6 -2,2.4 z"
   id="path192" />
	<path
   class="st0"
   d="m 316.5,58.9 0.4,-1 c -5.3,-2 -7.3,-6.4 -8.1,-9.1 l -0.8,4.3 c 2.8,5.2 7.3,5.8 8.5,5.8 z"
   id="path194" />
	<path
   class="st0"
   d="M 298.6,44.7 299,63 h 6.4 v -0.1 c 0,0 0,0 0,0 v 0 l 1.8,-9.6 c 0,0 0,-0.1 -0.1,-0.1 h 0.1 l 1.2,-6.3 c 0,-0.1 0,-0.2 0,-0.2 h 0.1 l 0.2,-1.1 c -3.8,-0.9 -8.7,-0.9 -10.1,-0.9 z"
   id="path196" />
	<path
   class="st0"
   d="m 304.7,75.4 c 1.9,2.8 4.9,16.4 5.4,18.7 l 1.9,-0.2 c -0.3,-2.6 -2.5,-18.5 -6,-29.2 -0.2,2 -0.6,6 -1.3,10.7 z"
   id="path198" />
	<polygon
   class="st0"
   points="319.1,57.3 317.7,58.1 317.1,59.5 317.5,60.5 320.4,61.2 321.3,57.9 "
   id="polygon200" />
	<path
   class="st0"
   d="m 308.5,338.5 0.2,-0.8 c -0.1,0 -0.2,0 -0.3,0 v 0 c -0.2,0 -0.3,0 -0.5,0 -0.3,0 -0.5,-0.1 -0.8,-0.2 v 0.9 z"
   id="path202" />
	<polygon
   class="st0"
   points="313.8,389.2 313.8,390.7 320.8,391.7 322.8,389.2 316.1,388.9 "
   id="polygon204" />
	<path
   class="st0"
   d="m 310.8,347.5 1.2,-6.3 c 0,-0.1 0,-0.2 0,-0.2 v 0 l 0.2,-1.1 c -3.6,-1 -8.5,-1 -9.9,-0.9 l 0.4,18.3 h 6.4 v -0.1 c 0,0 0,0 0,0 v 0 l 1.8,-9.6 c -0.1,0 -0.2,0 -0.1,-0.1 z"
   id="path206" />
	<path
   class="st0"
   d="m 308.3,369.7 c 1.9,2.8 4.9,16.4 5.4,18.8 l 1.9,-0.2 c -0.3,-2.6 -2.5,-18.5 -6,-29.2 -0.1,1.9 -0.5,5.9 -1.3,10.6 z"
   id="path208" />
	<polygon
   class="st0"
   points="302.5,388.6 300,388.4 299.4,389.1 304.9,391.2 307.5,389.8 "
   id="polygon210" />
	<polygon
   class="st0"
   points="324.1,355.5 325,352.2 322.7,351.6 321.4,352.4 320.8,353.8 321.2,354.9 "
   id="polygon212" />
	<path
   class="st0"
   d="m 320.6,352.3 c -5.3,-2 -7.3,-6.4 -8.1,-9.1 l -0.8,4.3 c 2.8,5 7.4,5.7 8.5,5.7 z"
   id="path214" />
	<path
   class="st0"
   d="m 308.9,358.1 h -6.2 c 2.1,13.4 -1.7,27 -2.5,29.6 l 2.1,0.2 c 4.9,-9.4 6.4,-26.9 6.6,-29.8 z"
   id="path216" />
	<path
   class="st0"
   d="m 311,335.8 c 1,-1 1.6,-2.3 1.8,-3.6 0.4,-2.9 -1,-5.5 -3.3,-5.8 v 0 c -2.2,-0.3 -4.4,1.9 -4.8,4.8 -0.2,1.3 0,2.7 0.7,3.9 0.5,1 1.5,1.7 2.6,1.8 1.1,0.1 2.2,-0.3 3,-1.1 z"
   id="path218" />
	<path
   class="st0"
   d="m 323.4,424 -1,-1.2 -2.4,1.4 v 1.1 l 0.4,1.4 1.8,0.7 c 0.5,-0.3 1.6,-1.2 2.2,-1.6 -0.2,-0.5 -0.7,-1.3 -1,-1.8 z"
   id="path220" />
	<path
   class="st0"
   d="m 306.2,437.5 c -0.1,0.7 -0.3,2.6 -0.9,5.2 1.2,2.3 7.1,19.7 8.1,22.5 l 1.2,-0.3 c -1.3,-12.3 -7.3,-25.6 -8.2,-27.4 0,0 -0.1,0 -0.2,0 z"
   id="path222" />
	<polygon
   class="st0"
   points="319.3,425.8 313.1,427.5 310.5,422.6 309.6,426.3 312.7,429.8 319.6,426.7 "
   id="polygon224" />
	<path
   class="st0"
   d="m 315,465.5 -1.5,0.4 v 1.9 c 1.1,-0.1 3.7,-0.4 5.9,-0.6 l 2.6,-0.1 -0.2,-2 c -2.7,0.2 -6.8,0.5 -6.8,0.4 z"
   id="path226" />
	<path
   class="st0"
   d="m 293.2,360.6 c 0.2,0.7 0.5,1.4 0.7,1.7 h 3.5 l 0.5,-2.2 -1.8,-1.2 -1.5,-0.3 z"
   id="path228" />
	<path
   class="st0"
   d="m 299.6,342.2 c -0.9,1.4 -1.6,2.8 -2.2,4.3 l 1.8,2.1 c 0.8,-1.4 1.6,-2.5 2.4,-3.2 l 0.1,0.1 -0.1,-5.6 c -0.8,0.6 -1.5,1.4 -2,2.3 z"
   id="path230" />
	<path
   class="st0"
   d="m 289.6,66.3 c 0.2,0.7 0.5,1.4 0.7,1.7 h 3.5 l 0.5,-2.2 -1.8,-1.2 -1.5,-0.3 z"
   id="path232" />
	<path
   class="st0"
   d="m 301.3,436.9 -1.1,0.5 c 0,4.2 -1.4,10.1 -4.2,17.5 -1.8,4.8 -3.6,8.7 -4.1,9.8 l 0.9,0.5 c 10.3,-9.1 12.4,-25.5 12.6,-27.8 -1.2,-0.2 -2.9,-0.4 -4.1,-0.5 z"
   id="path234" />
	<path
   class="st0"
   d="m 278,201.6 -1,-1.2 -2.4,1.4 v 1 l 0.4,1.4 1.8,0.7 c 0.5,-0.3 1.6,-1.2 2.2,-1.6 -0.2,-0.4 -0.7,-1.2 -1,-1.7 z"
   id="path236" />
	<path
   class="st0"
   d="m 290,213.3 c 0.2,0.7 0.5,1.4 0.7,1.7 h 3.5 l 0.5,-2.2 -1.8,-1.2 -1.5,-0.3 z"
   id="path238" />
	<path
   class="st0"
   d="m 262.5,195.7 0.3,-1 c 0,0 -0.1,0 -0.1,0 v 0 c -0.3,0 -0.6,0 -0.8,-0.1 -0.2,0 -0.4,-0.1 -0.6,-0.2 l -0.2,1 z"
   id="path240" />
	<path
   class="st0"
   d="m 269.2,316.1 c -0.3,-2.6 -2.5,-18.5 -6,-29.2 -0.2,2 -0.5,6 -1.3,10.6 1.9,2.8 4.9,16.4 5.4,18.8 z"
   id="path242" />
	<path
   class="st0"
   d="m 305.7,210.1 v 0 c 0,-0.1 0,-0.1 0,0 v 0 l 1.8,-9.7 c 0,0 0,-0.1 -0.1,-0.1 h 0.1 l 1.2,-6.3 c 0,-0.1 0,-0.2 0,-0.2 h 0.1 l 0.2,-1.1 c -3.6,-1 -8.5,-1 -9.9,-0.9 l 0.4,18.3 z"
   id="path244" />
	<path
   class="st0"
   d="m 262,193.9 c 2.3,0.5 4.8,-1.6 5.6,-4.7 0.8,-3.1 -0.4,-6 -2.6,-6.5 -0.2,0 -0.4,-0.1 -0.7,-0.1 v 0 c -2.1,0 -4.2,2 -4.9,4.8 -0.9,3.1 0.3,6.1 2.6,6.5 z"
   id="path246" />
	<polygon
   class="st0"
   points="252.6,210.5 251.8,202.7 249.8,203.8 251.4,210.8 "
   id="polygon248" />
	<path
   class="st0"
   d="m 255.7,199.6 c 0.2,-1.3 0.3,-2.3 0.4,-3 l -6.8,4.8 0.4,1.7 z"
   id="path250" />
	<path
   class="st0"
   d="m 255.8,213.7 c 1.6,0.2 4.2,0.5 5.2,0.6 l 3.9,-16.9 c -2.3,-1.2 -6.7,-1.4 -8,-1.4 -0.2,2 -1.5,12.8 -2,16.5 z"
   id="path252" />
	<path
   class="st0"
   d="m 262,266.3 0.2,-0.8 c -0.1,0 -0.3,0 -0.4,0 -0.2,0 -0.3,0 -0.5,0 -0.3,0 -0.5,-0.1 -0.8,-0.2 v 0.8 z"
   id="path254" />
	<polygon
   class="st0"
   points="256,316.5 256,316.4 253.5,316.2 253,317 258.5,319.1 261,317.7 "
   id="polygon256" />
	<path
   class="st0"
   d="m 273.7,281.1 0.4,-1 c -5.3,-2 -7.3,-6.4 -8.1,-9.1 l -0.8,4.3 c 2.8,5.1 7.3,5.7 8.5,5.8 z"
   id="path258" />
	<polygon
   class="st0"
   points="276.3,279.5 275,280.2 274.4,281.6 274.8,282.7 277.7,283.3 278.6,280.1 "
   id="polygon260" />
	<polygon
   class="st0"
   points="267.4,317 267.4,318.5 274.3,319.5 276.4,317 269.8,316.8 "
   id="polygon262" />
	<path
   class="st0"
   d="m 246.8,288.5 c 0.2,0.7 0.5,1.4 0.7,1.7 h 3.5 l 0.5,-2.2 -1.8,-1.2 -1.5,-0.3 z"
   id="path264" />
	<polygon
   class="st0"
   points="252.8,211.2 251.5,211.5 251.1,213.7 252.5,215.1 255,214 "
   id="polygon266" />
	<path
   class="st0"
   d="m 262.6,285.2 v 0 c 0,-0.1 0,-0.1 0,0 v 0 l 1.8,-9.7 c 0,0 0,-0.1 -0.1,-0.1 h 0.1 l 1.2,-6.3 c 0,-0.1 0,-0.2 0,-0.2 v 0 l 0.2,-1.1 c -3.6,-1 -8.5,-1 -9.9,-0.9 l 0.4,18.3 z"
   id="path268" />
	<path
   class="st0"
   d="m 262.4,285.9 h -6.2 c 2.1,13.4 -1.7,27 -2.5,29.6 l 2.1,0.2 c 5,-9.3 6.4,-26.8 6.6,-29.8 z"
   id="path270" />
	<path
   class="st0"
   d="m 264.5,263.6 c 1,-1 1.6,-2.3 1.8,-3.6 0.4,-2.9 -1,-5.5 -3.3,-5.8 v 0 c -2.2,-0.3 -4.4,1.9 -4.8,4.8 -0.2,1.3 0,2.7 0.7,3.9 0.5,1 1.5,1.7 2.6,1.8 1.1,0.1 2.3,-0.3 3,-1.1 z"
   id="path272" />
	<path
   class="st0"
   d="m 253.1,270 c -0.9,1.4 -1.6,2.8 -2.3,4.3 l 1.8,2.1 c 0.8,-1.4 1.6,-2.5 2.4,-3.2 l 0.1,0.1 -0.1,-5.6 c -0.7,0.6 -1.3,1.4 -1.9,2.3 z"
   id="path274" />
	<path
   class="st0"
   d="m 255.6,200.5 -3,1.7 0.8,8.4 0.9,1.1 c 0.3,-2.7 0.8,-7.5 1.3,-11.2 z"
   id="path276" />
	<polygon
   class="st0"
   points="274,203.4 267.7,205.1 265.1,200.2 264.3,203.9 267.4,207.4 274.2,204.3 "
   id="polygon278" />
	<path
   class="st0"
   d="m 316.9,206 0.4,-1 c -5.3,-2 -7.3,-6.4 -8.1,-9.1 l -0.8,4.3 c 2.8,5.1 7.3,5.7 8.5,5.8 z"
   id="path280" />
	<path
   class="st0"
   d="m 269.7,243.1 -1.5,0.4 v 1.9 c 1.1,-0.1 3.7,-0.4 5.9,-0.6 l 2.6,-0.1 -0.2,-2 c -2.8,0.2 -6.8,0.4 -6.8,0.4 z"
   id="path282" />
	<path
   class="st0"
   d="m 260.9,215.1 c -0.1,0.7 -0.3,2.6 -0.9,5.2 1.2,2.4 7.1,19.7 8,22.5 l 1.2,-0.3 c -1.3,-12.3 -7.2,-25.4 -8.1,-27.4 -0.1,0 -0.2,0 -0.2,0 z"
   id="path284" />
	<path
   class="st0"
   d="m 295.8,201.2 c 0.8,-1.4 1.6,-2.5 2.4,-3.2 l 0.1,0.1 -0.1,-5.7 c -0.7,0.8 -1.4,1.6 -1.9,2.5 -0.9,1.4 -1.6,2.8 -2.2,4.3 z"
   id="path286" />
	<path
   class="st0"
   d="m 255.9,214.5 -1.1,0.5 c 0,4.2 -1.4,10.1 -4.2,17.5 -1.8,4.8 -3.6,8.7 -4.1,9.8 l 0.9,0.5 c 10.2,-9 12.4,-25.4 12.6,-27.8 -1.1,-0.2 -2.9,-0.4 -4.1,-0.5 z"
   id="path288" />
	<path
   class="st0"
   d="m 247.2,243.5 -1.3,-0.7 -1.7,1.5 c 1.6,1.3 3.2,2.6 3.7,2.9 0.6,0 3.2,-0.1 5,-0.2 z"
   id="path290" />
	
		<rect
   x="173.3"
   y="224.10001"
   transform="matrix(0.9316,-0.3635,0.3635,0.9316,-68.9443,82.7822)"
   class="st1"
   width="24.299999"
   height="1"
   id="rect292" />
	<path
   class="st2"
   d="m 198.1,208.4 c -0.2,1.5 -0.4,3.2 -0.5,4 l -1.8,2.5 0.1,0.2 c 0.8,2.4 0.9,2.4 1.3,2.4 v 0 h 4.4 l 0.7,-3.2 -2.1,-1.4 c 0.3,-0.9 1.1,-4.3 1.6,-6.1 l -0.8,-0.2 c -0.5,1.8 -1.3,4.9 -1.6,6 l -1,-0.2 c 0.1,-0.8 0.3,-2.5 0.4,-3.9 0.1,-1.1 0.3,-2 0.3,-2.5 0.3,-1.5 0.8,-2.9 1.3,-4.4 l 1.7,2 c -0.4,0.9 -0.8,1.8 -1.2,2.9 l 0.8,0.2 c 1,-2.8 2.1,-4.9 3.3,-6.1 l 0.2,11.8 v 0 c 2.3,14.7 -2.5,29.6 -2.5,29.8 v 0 l -1.1,1.6 6.7,2.6 4.5,-2.5 -6.4,-1.5 c 2.4,-4.6 4,-11.2 5,-17 2,4.4 4.8,17.8 4.9,17.9 v 0.1 2.3 l 8.1,1.1 3.2,-3.9 -7.9,-0.3 c -0.3,-2.5 -2.8,-20.1 -6.6,-30.9 l 1.6,-8.5 c 1.3,2 3.2,3.5 5.4,4.5 1,0.4 2.1,0.7 3.3,0.8 h -0.1 l 0.5,1.5 4.1,0.9 1.3,-4.7 -3.4,-0.9 -1.5,0.9 c -6.7,-2.4 -8.1,-8.9 -8.3,-10.4 l 0.3,-1.8 -0.3,-0.1 c -1.1,-0.3 -2.3,-0.6 -3.5,-0.7 l 0.3,-1.1 h -0.1 c 2,-0.6 3.7,-2.6 4.1,-5.3 0.5,-3.3 -1.3,-6.3 -4,-6.6 -2.7,-0.3 -5.2,2.1 -5.7,5.4 -0.4,2.6 0.6,5 2.4,6 v 1.3 c -2.4,-0.1 -4.3,-0.1 -4.5,-0.1 h -0.4 v 0.2 c -0.4,0.4 -4.7,4.6 -6.6,13 l 0.4,0.1 H 198 c 0.3,0.2 0.2,1.2 0.1,2.3 z m 10.1,-22.9 c 0.4,-2.9 2.6,-5 4.8,-4.8 v 0 c 2.2,0.3 3.7,2.8 3.3,5.8 -0.4,3 -2.6,5 -4.8,4.8 -2.2,-0.3 -3.7,-2.9 -3.3,-5.8 z m 3.2,6.5 c 0.2,0 0.3,0 0.5,0 v 0 c 0.1,0 0.2,0 0.4,0 l -0.2,0.8 -1.4,-0.2 v -0.8 c 0.2,0.1 0.4,0.1 0.7,0.2 z m -5.2,20.4 h 6.2 c -0.2,3 -1.6,20.4 -6.6,29.7 l -2.1,-0.2 c 0.8,-2.5 4.6,-16.1 2.5,-29.5 z m 2.2,33.2 -5.5,-2.1 0.5,-0.8 2.5,0.2 v 0 l 5,1.2 z m 15.9,0.4 -7,-1 v -1.5 l 2.3,-0.2 6.7,0.3 z m -7.1,-3.3 c -0.5,-2.4 -3.5,-15.9 -5.4,-18.7 0.7,-4.6 1.1,-8.6 1.3,-10.6 3.5,10.7 5.7,26.5 6,29.1 z m 9,-36.8 2.3,0.6 -0.9,3.3 -2.9,-0.6 -0.4,-1.1 v 0 l 0.6,-1.3 z m -2.1,0.7 -0.4,1 c -1.2,-0.1 -5.7,-0.7 -8.5,-5.7 l 0.8,-4.3 c 0.7,2.6 2.8,7 8.1,9 z m -8.4,-12.3 -0.2,1.1 h -0.1 c 0,0 0,0.1 0,0.2 l -1.1,6.2 -0.1,0.1 c 0,0 0.1,0.1 0.1,0.1 l -1.8,9.6 v 0 c 0,0 0,0 0,0.1 v 0 h -6.4 l -0.4,-18.3 c 1.5,-0.1 6.4,-0.1 10,0.9 z M 205,194 l 0.1,5.7 -0.1,-0.1 c -0.9,0.7 -1.7,1.8 -2.4,3.2 l -1.8,-2.1 c 0.6,-1.5 1.4,-2.9 2.2,-4.3 0.6,-0.8 1.3,-1.6 2,-2.4 z m -5.4,19.3 1.8,1.2 -0.5,2.2 h -3.5 c -0.1,-0.3 -0.4,-1.1 -0.7,-1.7 l 1.4,-2 z"
   id="path294" />
	<polygon
   class="st1"
   points="198.7,287.7 199.1,286.8 174.4,278.6 174,279.5 "
   id="polygon296" />
	<path
   class="st2"
   d="m 219.4,319.7 c 0,0 3.6,-0.4 6.3,-0.7 l 3.5,-0.2 -0.3,-3.5 h -0.4 c -2.3,0.2 -5.7,0.4 -6.8,0.5 -1.3,-12.7 -7.6,-26.4 -8.3,-27.7 l 2.3,-9.9 3.1,3.5 7.5,-3.4 2.3,0.9 0.2,-0.1 c 0,0 2.2,-1.6 2.6,-1.9 l -0.2,-0.3 v 0 l 0.3,-0.2 c -0.1,-0.1 -0.8,-1.2 -1.2,-2 v 0 l -1.4,-1.8 -3.4,1.9 v 1.2 l -5.7,1.6 -2.8,-5.2 0.4,-1.8 -0.2,-0.1 c -0.7,-0.4 -1.5,-0.7 -2.4,-0.9 l 0.4,-1.4 c 0.8,-0.2 1.5,-0.6 2.2,-1.1 1.3,-1.1 2.1,-2.5 2.5,-4.1 0.9,-3.5 -0.5,-6.8 -3.2,-7.4 -2.7,-0.6 -5.6,1.8 -6.5,5.3 -0.7,2.9 0.1,5.6 1.9,6.8 l -0.3,1.5 c -1.9,-0.2 -3.4,-0.2 -3.6,-0.2 h -0.4 v 0.2 l -7.9,5.5 2.4,10.2 -0.5,2.7 2.2,2.1 1.7,-0.7 c -0.1,9.5 -7.7,25.6 -8.3,26.9 l -0.1,-0.1 -2.5,2.2 0.3,0.3 c 4.1,3.4 4.2,3.4 4.4,3.4 v 0 c 0.2,0 5.8,-0.2 6.4,-0.2 h 1.3 l -7.4,-4.5 c 6.8,-6.1 10.1,-15.3 11.6,-21.6 1.9,4.8 7.6,21.6 7.7,21.8 v 0 2.9 z M 210.9,261 c 0.8,-3.1 3.3,-5.2 5.6,-4.7 v 0 c 2.3,0.5 3.4,3.4 2.6,6.5 -0.4,1.5 -1.2,2.8 -2.3,3.7 -0.9,0.8 -2.1,1.2 -3.3,1 -2.3,-0.5 -3.4,-3.5 -2.6,-6.5 z m 2.4,7.2 c 0.3,0.1 0.6,0.1 0.9,0.1 v 0 c 0,0 0.1,0 0.1,0 l -0.3,1 -1.5,-0.3 0.2,-1 c 0.2,0.1 0.4,0.1 0.6,0.2 z m 14.9,50 -2.6,0.1 c -2.1,0.2 -4.8,0.5 -5.9,0.6 V 317 l 1.5,-0.4 v 0 c 0,0 4,-0.3 6.8,-0.5 z m 0.4,-44.2 1,1.2 c 0.3,0.5 0.8,1.3 1,1.7 -0.6,0.4 -1.7,1.3 -2.2,1.6 l -1.8,-0.7 -0.4,-1.4 v -1.1 z m -9.3,4.6 6.2,-1.7 0.3,0.9 -6.8,3.1 -3.1,-3.5 v 0 l 0.9,-3.8 z m -10.8,-9 c 1.3,0 5.7,0.1 8,1.4 l -3.9,16.9 c -1,-0.1 -3.6,-0.4 -5.2,-0.6 l -0.8,-1.1 c 0.3,-3.8 1.6,-14.5 1.9,-16.6 z m -3.6,14.6 -0.8,-8.4 3,-1.7 c -0.4,3.7 -1,8.5 -1.3,11.2 z m -0.8,-0.2 -1.1,0.3 -1.6,-7 2,-1.1 z m 3.5,-13.9 c -0.1,0.7 -0.2,1.8 -0.4,3.1 l -6.1,3.4 -0.4,-1.7 z m -5,17.1 0.4,-2.2 1.3,-0.3 2.2,2.8 -2.5,1.1 z m -3.1,33.5 c -0.4,-0.3 -2.1,-1.6 -3.7,-2.9 l 1.6,-1.4 1.4,0.8 5.6,3.4 c -1.8,0 -4.4,0.1 -4.9,0.1 z m -0.5,-4.4 -0.9,-0.5 c 0.5,-1.1 2.3,-5 4.1,-9.8 2.8,-7.5 4.2,-13.3 4.2,-17.5 l 1.1,-0.5 c 1.3,0.1 3,0.4 4.1,0.5 -0.3,2.3 -2.4,18.8 -12.6,27.8 z m 12.5,-22.5 c 0.6,-2.6 0.8,-4.5 0.9,-5.2 0.1,0 0.1,0 0.2,0 0.9,1.8 6.9,15.1 8.2,27.4 l -1.2,0.3 c -1,-2.8 -6.9,-20.1 -8.1,-22.5 z"
   id="path298" />
	<polygon
   class="st1"
   points="244,151.7 243.1,151.3 219.7,189.5 220.6,190 "
   id="polygon300" />
	<path
   class="st2"
   d="m 243.9,134.8 c -0.2,1.5 -0.4,3.3 -0.5,4.1 l -1.8,2.4 0.1,0.2 c 0.8,2.4 0.9,2.4 1.3,2.4 v 0 h 4.4 l 0.7,-3.2 -2.1,-1.4 c 0.3,-1 1.1,-4.2 1.6,-6 l -0.8,-0.2 c -0.5,1.8 -1.3,4.9 -1.6,6 l -1,-0.2 c 0.1,-0.8 0.3,-2.5 0.4,-3.9 0.1,-1.1 0.3,-2 0.3,-2.5 v 0 c 0.4,-1.6 0.8,-3.1 1.3,-4.4 l 1.7,2 c -0.4,0.9 -0.8,1.8 -1.2,2.9 l 0.8,0.2 c 1,-2.8 2.1,-4.8 3.3,-6.1 l 0.2,11.8 v 0 c 2.3,14.7 -2.5,29.6 -2.5,29.8 v 0 l -1,1.5 6.7,2.6 4.6,-2.5 -6.4,-1.5 c 2.4,-4.7 4,-11.2 5,-17.1 1.9,4.3 4.8,17.4 4.9,17.9 v 0 2.5 l 8.2,1.1 3.2,-4 -7.9,-0.3 c -0.3,-2.5 -2.8,-20.2 -6.6,-31 l 1.6,-8.5 c 1.3,2 3.2,3.6 5.4,4.5 1,0.4 2.1,0.7 3.3,0.8 h -0.1 l 0.5,1.5 4.1,0.9 1.3,-4.7 -3.4,-0.9 -1.5,0.9 c -6.8,-2.5 -8.1,-9.2 -8.3,-10.5 l 0.3,-1.7 -0.3,-0.1 c -1.1,-0.3 -2.3,-0.6 -3.5,-0.7 l 0.3,-1.1 h -0.2 c 2,-0.6 3.7,-2.6 4.1,-5.3 0.5,-3.3 -1.3,-6.3 -4,-6.6 -1.4,-0.1 -2.8,0.4 -3.7,1.4 -1.1,1.1 -1.8,2.5 -2,4 -0.2,1.5 0,3 0.8,4.4 0.4,0.7 1,1.3 1.6,1.7 v 1.3 c -2.4,-0.1 -4.3,-0.1 -4.5,-0.1 h -0.4 v 0.2 c -0.6,0.5 -4.8,4.7 -6.6,12.9 l 0.6,0.1 H 244 c 0.2,0.5 0.1,1.5 -0.1,2.5 z m 10.8,-18.9 c -0.7,-1.2 -0.9,-2.6 -0.7,-3.9 0.2,-1.4 0.8,-2.6 1.8,-3.6 0.7,-0.7 1.6,-1.1 2.6,-1.2 v 0 c 0.1,0 0.2,0 0.4,0 2.2,0.3 3.7,2.8 3.3,5.8 -0.4,2.9 -2.6,5 -4.8,4.8 -1.1,-0.3 -2,-0.9 -2.6,-1.9 z m 2.5,2.5 c 0.2,0 0.3,0 0.5,0 v 0 c 0.1,0 0.3,0 0.4,0 l -0.2,0.8 -1.4,-0.2 v -0.9 c 0.2,0.2 0.5,0.3 0.7,0.3 z m -5.1,20.5 h 6.2 c -0.2,3 -1.6,20.4 -6.6,29.7 l -2.1,-0.2 c 0.8,-2.5 4.6,-16.1 2.5,-29.5 z m 2.2,33.1 -5.4,-2.1 0.5,-0.7 2.5,0.2 v 0 l 5,1.2 z m 15.9,0.5 -7,-1 V 170 l 2.3,-0.2 6.7,0.3 z m -7.1,-3.3 c -0.5,-2.4 -3.5,-16 -5.4,-18.7 0.7,-4.6 1.1,-8.6 1.3,-10.6 3.5,10.7 5.7,26.6 6,29.2 z m 9,-36.8 2.3,0.6 -0.9,3.3 -2.9,-0.6 -0.4,-1.1 v 0 l 0.6,-1.4 z m -2.2,0.7 -0.4,1 c -1.2,-0.1 -5.7,-0.7 -8.5,-5.7 l 0.8,-4.3 c 0.8,2.6 2.9,7 8.1,9 z m -8.3,-12.3 -0.2,1.1 h -0.1 c 0,0 0,0.1 0,0.2 l -1.2,6.3 H 260 c 0,0 0,0.1 0.1,0.1 l -1.8,9.6 v 0 c 0,0 0,0 0,0 v 0.1 H 252 l -0.4,-18.3 c 1.4,-0.1 6.4,-0.1 10,0.9 z m -10.8,-0.3 0.1,5.7 -0.1,-0.1 c -0.9,0.7 -1.7,1.8 -2.4,3.2 l -1.8,-2.1 c 1.6,-3.5 3.3,-5.7 4.2,-6.7 z m -5.3,19.3 1.8,1.2 -0.5,2.2 h -3.5 c -0.1,-0.3 -0.4,-1.1 -0.7,-1.7 l 1.4,-1.9 z"
   id="path302" />
	<path
   class="st1"
   d="m 223.2,225.1 c 1.3,0 13.7,4.5 21.3,7.4 v 0 l 0.4,-0.9 c -4.8,-1.8 -20.5,-7.7 -21.9,-7.5 l 0.2,1 c 0,0 0,0 0,0 z"
   id="path304" />
	<path
   class="st2"
   d="m 279.9,203.2 c -0.1,-0.1 -0.8,-1.2 -1.2,-2 v 0 l -1.4,-1.8 -3.4,1.9 v 1.2 l -5.7,1.6 -2.8,-5.2 0.4,-1.8 -0.2,-0.1 c -0.7,-0.4 -1.5,-0.7 -2.4,-0.9 l 0.4,-1.4 c 2.1,-0.5 4,-2.5 4.7,-5.2 0.9,-3.5 -0.5,-6.8 -3.2,-7.4 -2.7,-0.6 -5.6,1.8 -6.5,5.3 -0.7,2.8 0.1,5.6 1.9,6.8 l -0.3,1.5 c -1.9,-0.2 -3.4,-0.2 -3.6,-0.2 h -0.4 v 0.2 l -7.9,5.5 2.4,10.2 -0.5,2.7 2.2,2.1 1.7,-0.7 c -0.1,9.6 -7.8,25.7 -8.3,26.9 l -0.1,-0.1 -2.5,2.2 0.3,0.3 c 4.1,3.4 4.2,3.4 4.4,3.4 v 0 c 0.2,0 5.8,-0.2 6.4,-0.2 h 1.3 l -7.3,-4.5 c 6.8,-6.1 10.1,-15.3 11.6,-21.6 1.9,4.7 7.3,20.7 7.7,21.7 v 2.9 l 0.5,-0.1 c 0,0 3.6,-0.4 6.3,-0.7 l 3.5,-0.2 -0.3,-3.5 h -0.4 c -2.3,0.2 -5.6,0.4 -6.8,0.5 -1.3,-12.7 -7.6,-26.3 -8.3,-27.7 l 2.3,-9.9 3.1,3.5 7.5,-3.4 2.3,0.9 0.2,-0.1 c 0,0 2.2,-1.6 2.6,-1.9 l -0.3,-0.3 v 0 z m -20.6,-15.7 c 0.7,-2.8 2.8,-4.8 4.9,-4.8 v 0 c 0.2,0 0.4,0 0.7,0.1 2.3,0.5 3.4,3.4 2.6,6.5 -0.8,3.1 -3.3,5.2 -5.6,4.7 -2.3,-0.5 -3.4,-3.5 -2.6,-6.5 z m 2.5,7.2 c 0.3,0.1 0.6,0.1 0.8,0.1 v 0 c 0,0 0.1,0 0.1,0 l -0.3,1 -1.5,-0.3 0.2,-1 c 0.3,0.1 0.5,0.1 0.7,0.2 z m -4.9,1.4 c 1.3,0 5.7,0.1 8,1.4 l -3.9,16.9 c -1,-0.1 -3.6,-0.4 -5.2,-0.6 l -0.8,-1.1 c 0.4,-3.7 1.7,-14.5 1.9,-16.6 z m -3.5,14.6 -0.8,-8.4 3,-1.7 c -0.4,3.7 -1,8.5 -1.3,11.2 z m -0.8,-0.2 -1.1,0.3 -1.6,-6.9 2,-1.1 z m 3.5,-13.9 c -0.1,0.7 -0.2,1.8 -0.4,3 l -6.1,3.4 -0.4,-1.7 z m -5,17.1 0.4,-2.1 1.4,-0.3 2.2,2.8 -2.5,1.1 z m -3.2,33.5 c -0.4,-0.3 -2.1,-1.6 -3.7,-2.9 l 1.7,-1.5 1.3,0.7 v 0 l 5.7,3.5 c -1.8,0.1 -4.4,0.2 -5,0.2 z m -0.5,-4.4 -0.9,-0.5 c 0.5,-1.1 2.3,-5 4.1,-9.8 2.8,-7.5 4.2,-13.3 4.2,-17.5 l 1.1,-0.5 c 1.3,0.1 3,0.4 4.2,0.5 -0.3,2.4 -2.4,18.8 -12.7,27.8 z m 29.3,1.9 -2.6,0.1 c -2.1,0.2 -4.8,0.5 -5.9,0.6 v -1.9 l 1.5,-0.4 v 0 c 0,0 4,-0.3 6.8,-0.5 z m -8.7,-1.9 c -1,-2.8 -6.8,-20.1 -8,-22.5 0.6,-2.6 0.8,-4.5 0.9,-5.2 0.1,0 0.2,0 0.2,0 0.9,1.9 6.9,15.1 8.1,27.4 z m -0.6,-35.4 -3.1,-3.5 0.9,-3.7 2.6,4.9 6.2,-1.7 0.3,0.9 z m 9.5,-2.5 -1.8,-0.7 -0.4,-1.4 v -1 l 2.4,-1.4 1,1.2 c 0.3,0.5 0.8,1.3 1,1.7 -0.6,0.4 -1.8,1.3 -2.2,1.6 z"
   id="path306" />
	<polygon
   class="st1"
   points="224.6,300.2 225.1,301.1 246.3,292 245.8,291.1 "
   id="polygon308" />
	<path
   class="st2"
   d="m 274.7,320.3 3.2,-4 -7.9,-0.3 c -0.3,-2.6 -2.8,-20.2 -6.6,-31 l 1.6,-8.5 c 1.3,2 3.2,3.6 5.4,4.5 1,0.4 2.1,0.7 3.3,0.8 h -0.1 l 0.5,1.5 4.1,0.9 1.3,-4.7 -3.4,-0.9 -1.5,0.9 c -6.8,-2.5 -8.1,-9.2 -8.3,-10.5 l 0.3,-1.7 -0.3,-0.1 c -1.1,-0.3 -2.3,-0.6 -3.5,-0.7 l 0.3,-1.1 h -0.2 c 0.8,-0.2 1.6,-0.6 2.1,-1.2 1.1,-1.1 1.8,-2.5 2,-4 0.5,-3.3 -1.3,-6.3 -4,-6.6 -2.7,-0.3 -5.2,2.1 -5.7,5.4 -0.2,1.5 0,3 0.8,4.4 0.4,0.7 1,1.3 1.6,1.7 v 1.3 c -2.4,-0.1 -4.3,-0.1 -4.5,-0.1 h -0.4 v 0.2 c -0.6,0.5 -4.8,4.7 -6.6,13 l 0.6,0.1 h -0.7 c 0,0.4 -0.2,1.4 -0.3,2.5 -0.2,1.5 -0.4,3.3 -0.5,4.1 l -1.8,2.4 0.1,0.2 c 0.8,2.4 0.9,2.4 1.3,2.4 v 0 h 4.4 l 0.7,-3.2 -2.1,-1.4 c 0.3,-1 1.1,-4.2 1.6,-6 l -0.8,-0.2 c -0.5,1.7 -1.3,4.9 -1.6,6 l -1,-0.2 c 0.1,-0.8 0.3,-2.5 0.4,-3.9 0.1,-1.1 0.3,-2 0.3,-2.5 v 0 c 0.3,-1.5 0.8,-3 1.3,-4.4 l 1.7,2 c -0.4,0.9 -0.8,1.8 -1.2,2.9 l 0.8,0.2 c 1,-2.8 2.1,-4.8 3.3,-6.1 l 0.2,11.8 v 0 c 2.3,14.7 -2.5,29.6 -2.5,29.8 v 0 l -1,1.6 6.7,2.6 4.6,-2.5 -6.4,-1.5 c 2.4,-4.7 4,-11.2 5,-17.1 1.9,4.2 4.7,17.1 4.9,17.9 v 2.5 z m -15.8,-57.4 c -0.7,-1.2 -0.9,-2.6 -0.7,-3.9 0.4,-2.9 2.6,-5 4.8,-4.8 v 0 c 2.2,0.3 3.7,2.8 3.3,5.8 -0.2,1.4 -0.8,2.6 -1.8,3.6 -0.8,0.8 -1.9,1.3 -3,1.2 -1.1,-0.2 -2.1,-0.9 -2.6,-1.9 z m 2.5,2.6 c 0.2,0 0.3,0 0.5,0 0.1,0 0.3,0 0.4,0 l -0.2,0.8 -1.4,-0.2 v -0.8 c 0.2,0.1 0.4,0.1 0.7,0.2 z m -11.7,21.3 1.8,1.2 -0.5,2.2 h -3.5 c -0.1,-0.3 -0.4,-1.1 -0.7,-1.7 l 1.4,-1.9 z m 24.6,32.7 -7,-1 V 317 l 2.5,-0.2 6.5,0.3 z m 2,-40 2.3,0.6 -0.9,3.3 -2.9,-0.6 -0.4,-1.1 v 0 l 0.6,-1.4 z m -2.2,0.6 -0.4,1 c -1.2,-0.1 -5.7,-0.7 -8.5,-5.7 l 0.8,-4.3 c 0.8,2.6 2.9,7 8.1,9 z m -8.3,-12.3 -0.2,1.1 v 0 c 0,0 0,0.1 0,0.2 l -1.2,6.3 h -0.1 c 0,0 0,0.1 0.1,0.1 l -1.8,9.6 v 0 c 0,0 0,0 0,0 v 0.1 h -6.4 l -0.4,-18.3 c 1.4,0 6.4,0 10,0.9 z m -10.7,5.3 c -0.9,0.7 -1.7,1.8 -2.4,3.2 l -1.8,-2.1 c 0.6,-1.5 1.4,-2.9 2.3,-4.3 0.5,-0.9 1.2,-1.7 1.9,-2.4 z m 1.2,12.8 h 6.2 c -0.2,3 -1.6,20.4 -6.6,29.7 l -2.1,-0.2 c 0.8,-2.5 4.5,-16.1 2.5,-29.5 z m 2.2,33.2 -5.5,-2.1 0.5,-0.7 2.5,0.2 v 0 l 5,1.2 z m 4.7,-32.2 c 3.5,10.7 5.7,26.6 6,29.2 l -1.9,0.2 c -0.5,-2.4 -3.5,-16 -5.4,-18.8 0.7,-4.6 1.1,-8.6 1.3,-10.6 z"
   id="path310" />
	<polygon
   class="st1"
   points="230.6,320.8 229.7,321.4 248.2,344.5 249.1,343.9 "
   id="polygon312" />
	<path
   class="st2"
   d="m 268.6,393.2 c 0,0 3.6,-0.4 6.3,-0.7 l 3.5,-0.2 -0.3,-3.5 h -0.4 c -2.3,0.2 -5.6,0.4 -6.8,0.5 -1.3,-12.7 -7.6,-26.3 -8.3,-27.7 l 2.3,-9.9 3.1,3.5 7.5,-3.4 2.3,0.9 0.2,-0.1 c 0,0 2.2,-1.6 2.6,-1.9 l -0.3,-0.3 v 0 l 0.3,-0.2 c -0.1,-0.1 -0.8,-1.2 -1.2,-2 v 0 l -1.4,-1.8 -3.4,1.9 v 1.2 l -5.7,1.6 -2.8,-5.2 0.4,-1.8 -0.2,-0.1 c -0.7,-0.4 -1.5,-0.7 -2.4,-0.9 l 0.4,-1.4 c 0.8,-0.2 1.6,-0.6 2.2,-1.1 1.3,-1.1 2.1,-2.5 2.5,-4.1 0.9,-3.5 -0.5,-6.8 -3.2,-7.4 -2.7,-0.6 -5.6,1.8 -6.5,5.3 -0.4,1.6 -0.4,3.2 0.2,4.7 0.3,0.9 0.9,1.6 1.7,2.1 l -0.3,1.5 c -1.9,-0.2 -3.4,-0.2 -3.6,-0.2 h -0.4 v 0.2 l -7.9,5.5 2.4,10.2 -0.5,2.7 2.2,2.1 1.7,-0.7 c -0.1,9.7 -7.9,26 -8.3,26.9 l -0.1,-0.1 -2.5,2.2 0.3,0.3 c 4.1,3.4 4.2,3.4 4.4,3.4 v 0 c 0.2,0 5.8,-0.2 6.4,-0.2 h 1.3 l -7.4,-4.5 c 6.8,-6.1 10.1,-15.3 11.6,-21.6 1.9,4.7 7.3,20.7 7.7,21.7 v 2.9 z m -8.3,-54.4 c -0.5,-1.4 -0.6,-2.9 -0.2,-4.3 0.8,-3.1 3.3,-5.2 5.6,-4.7 v 0 c 2.3,0.5 3.4,3.4 2.6,6.5 -0.4,1.5 -1.2,2.8 -2.3,3.7 -0.9,0.8 -2.1,1.2 -3.3,1 -1,-0.3 -2,-1.1 -2.4,-2.2 z m 2.3,2.9 c 0.3,0.1 0.6,0.1 0.9,0.1 v 0 c 0,0 0.1,0 0.1,0 l -0.3,1 -1.5,-0.3 0.2,-1 c 0.2,0.1 0.4,0.1 0.6,0.2 z m 14.9,50 -2.6,0.1 c -2.1,0.2 -4.8,0.5 -5.9,0.6 v -1.9 l 1.5,-0.4 v 0 c 0,0 4,-0.3 6.8,-0.5 z m 0.4,-44.2 1,1.2 c 0.3,0.5 0.8,1.3 1,1.7 -0.6,0.4 -1.7,1.3 -2.2,1.6 l -1.8,-0.7 -0.4,-1.4 v -1 z m -9.4,4.6 6.2,-1.7 0.3,0.9 -6.8,3.1 -3.1,-3.5 0.9,-3.8 z m -10.8,-8.9 c 1.3,0 5.7,0.1 8,1.4 l -3.9,16.9 c -1,-0.1 -3.6,-0.4 -5.2,-0.6 l -0.8,-1.1 c 0.4,-3.8 1.7,-14.6 1.9,-16.6 z m -3.5,14.5 -0.8,-8.4 3,-1.7 c -0.4,3.7 -1,8.5 -1.3,11.2 z m -0.8,-0.2 -1.1,0.3 -1.6,-6.9 2,-1.1 z m 3.5,-13.9 c -0.1,0.7 -0.2,1.8 -0.4,3 l -6.1,3.4 -0.4,-1.7 z m -5,17.1 0.4,-2.1 1.4,-0.3 2.2,2.8 -2.5,1.1 z m -3.2,33.5 c -0.4,-0.3 -2.1,-1.6 -3.7,-2.9 l 1.7,-1.5 1.3,0.7 v 0 l 5.7,3.5 c -1.8,0.2 -4.4,0.2 -5,0.2 z m -0.5,-4.4 -0.9,-0.5 c 0.5,-1.1 2.3,-5 4.1,-9.8 2.8,-7.5 4.2,-13.4 4.2,-17.5 l 1.1,-0.5 c 1.3,0.1 3,0.4 4.2,0.5 -0.3,2.4 -2.4,18.8 -12.7,27.8 z m 13.5,-27.7 c 0.1,0 0.2,0 0.2,0 0.9,1.9 6.9,15.1 8.1,27.4 l -1.2,0.3 c -1,-2.8 -6.8,-20.1 -8,-22.5 0.5,-2.5 0.8,-4.5 0.9,-5.2 z"
   id="path314" />
	<polygon
   class="st1"
   points="267.5,115.1 268.4,115.7 293,79.8 292.1,79.3 "
   id="polygon316" />
	<polygon
   class="st2"
   points=""
   id="polygon318" />
	<path
   class="st2"
   d="m 300.2,36.7 c -0.4,2.6 0.6,5 2.4,6 V 44 c -2.4,-0.1 -4.3,-0.1 -4.5,-0.1 h -0.4 v 0.2 c -0.4,0.4 -4.7,4.6 -6.6,13 l 0.4,0.1 h -0.4 c 0,0.4 -0.2,1.4 -0.3,2.5 -0.2,1.5 -0.4,3.3 -0.5,4.1 l -1.8,2.4 0.1,0.2 c 0.8,2.4 0.9,2.4 1.3,2.4 v 0 h 4.4 l 0.7,-3.2 -2.1,-1.4 c 0.3,-1 1.1,-4.2 1.6,-6 L 293.7,58 c -0.5,1.8 -1.3,4.9 -1.6,6 l -1,-0.2 c 0.1,-0.8 0.3,-2.5 0.4,-3.9 0.1,-1.1 0.3,-2 0.3,-2.5 0.3,-1.5 0.8,-2.9 1.3,-4.4 l 1.7,2 c -0.4,0.9 -0.8,1.8 -1.2,2.9 l 0.8,0.2 c 1,-2.8 2.1,-4.9 3.3,-6.1 l 0.2,11.8 v 0 c 2.3,14.7 -2.5,29.6 -2.5,29.8 v 0 l -1.1,1.6 6.7,2.6 4.6,-2.5 -6.4,-1.5 c 2.4,-4.7 4,-11.2 5,-17.1 1.9,4.3 4.8,17.5 4.9,17.9 v 0 2.4 l 8.2,1.1 3.2,-3.9 -7.9,-0.3 c -0.3,-2.5 -2.8,-20.2 -6.6,-31 l 1.6,-8.5 c 1.3,2 3.2,3.6 5.4,4.5 1.1,0.4 2.2,0.7 3.3,0.8 h -0.1 l 0.5,1.5 4.3,0.8 1.3,-4.6 -3.4,-0.9 -1.5,0.9 c -6.8,-2.5 -8.1,-9.2 -8.3,-10.5 l 0.3,-1.7 -0.3,-0.1 c -1.1,-0.3 -2.3,-0.6 -3.5,-0.7 l 0.3,-1.1 h -0.2 c 0.8,-0.2 1.6,-0.6 2.2,-1.3 1.1,-1.1 1.8,-2.5 2,-4 0.5,-3.3 -1.3,-6.3 -4,-6.6 -0.2,0 -0.3,0 -0.5,0 v 0 c -2.4,-0.1 -4.7,2.2 -5.2,5.3 z m -7.8,28 1.8,1.2 -0.5,2.2 h -3.5 c -0.1,-0.3 -0.4,-1.1 -0.7,-1.7 l 1.4,-1.9 z M 297.8,51 c -0.9,0.7 -1.7,1.8 -2.4,3.2 l -1.8,-2.1 c 0.6,-1.5 1.4,-2.9 2.2,-4.3 0.6,-0.9 1.2,-1.7 1.9,-2.5 z m 1.2,12.8 h 6.2 c -0.2,3 -1.6,20.4 -6.6,29.7 l -2.1,-0.2 c 0.8,-2.5 4.6,-16.1 2.5,-29.5 z m 2.2,33.1 -5.5,-2.1 0.5,-0.8 2.5,0.2 v 0 l 5,1.2 z m 15.9,0.4 -7,-1 v -1.5 l 2.3,-0.2 6.7,0.3 z M 310,94.1 c -0.5,-2.4 -3.5,-16 -5.4,-18.7 0.7,-4.6 1.1,-8.6 1.3,-10.6 3.5,10.7 5.7,26.6 6,29.2 z m 9.1,-36.8 2.3,0.6 -0.9,3.3 -2.9,-0.6 -0.4,-1.1 v 0 l 0.6,-1.4 z m -2.2,0.7 -0.4,1 c -1.2,-0.1 -5.7,-0.7 -8.5,-5.7 l 0.8,-4.3 c 0.8,2.6 2.8,7 8.1,9 z m -8.6,-11.3 v 0 c -0.1,0 0,0.1 0,0.2 l -1.2,6.3 H 307 c 0,0 0,0.1 0.1,0.1 l -1.8,9.6 v 0 c 0,0 0,0 0,0 V 63 H 299 l -0.4,-18.3 c 1.4,0 6.3,0 9.9,0.9 z m -3.5,-2.5 -1.4,-0.2 v -0.9 c 0.3,0.1 0.5,0.2 0.8,0.2 0.2,0 0.3,0 0.5,0 0.1,0 0.2,0 0.3,0 z m 4.3,-6.4 c -0.2,1.4 -0.8,2.6 -1.8,3.6 -0.8,0.8 -1.9,1.3 -3,1.2 -2.2,-0.3 -3.7,-2.8 -3.3,-5.8 0.4,-2.9 2.6,-5 4.8,-4.8 2.2,0.3 3.7,2.9 3.3,5.8 z"
   id="path320" />
	<polygon
   class="st1"
   points="271.2,149.3 270.7,150.2 289.9,158.4 290.3,157.5 "
   id="polygon322" />
	<path
   class="st2"
   d="m 323.9,128.1 c -0.1,-0.1 -0.8,-1.2 -1.2,-2 v 0 l -1.4,-1.8 -3.4,1.9 v 1.2 l -5.7,1.6 -2.8,-5.3 0.4,-1.8 -0.2,-0.1 c -0.7,-0.4 -1.5,-0.7 -2.4,-0.9 l 0.4,-1.4 c 0.8,-0.2 1.6,-0.6 2.2,-1.1 1.3,-1.1 2.1,-2.5 2.5,-4.1 0.4,-1.6 0.4,-3.2 -0.2,-4.7 -0.5,-1.3 -1.6,-2.3 -3,-2.7 -1.4,-0.3 -2.9,0.2 -4,1.1 -1.3,1.1 -2.1,2.5 -2.5,4.1 -0.4,1.6 -0.4,3.2 0.2,4.7 0.3,0.9 0.9,1.6 1.7,2.1 l -0.3,1.5 c -1.9,-0.2 -3.4,-0.2 -3.6,-0.2 h -0.4 v 0.2 l -7.9,5.5 2.4,10.1 -0.5,2.7 2.1,2.1 1.7,-0.7 c -0.1,9.5 -7.7,25.6 -8.3,26.9 l -0.1,-0.1 -2.5,2.2 0.3,0.3 c 4.1,3.4 4.2,3.4 4.4,3.4 v 0 c 0.2,0 5.8,-0.2 6.4,-0.2 h 1.3 l -7.4,-4.5 c 6.8,-6.1 10.1,-15.3 11.6,-21.6 1.9,4.6 7.4,20.8 7.7,21.8 v 2.9 l 0.5,-0.1 c 0,0 3.6,-0.4 6.3,-0.7 l 3.5,-0.2 -0.3,-3.5 H 321 c -2.3,0.2 -5.6,0.4 -6.8,0.5 -1.3,-12.8 -7.7,-26.6 -8.3,-27.7 l 2.3,-9.8 3.1,3.5 7.5,-3.4 2.3,0.9 0.2,-0.1 c 0,0 2.2,-1.6 2.6,-1.9 l -0.2,-0.3 v 0 z m -20.4,-11.5 c -0.5,-1.4 -0.6,-2.9 -0.2,-4.3 0.4,-1.5 1.2,-2.8 2.3,-3.7 0.9,-0.8 2.1,-1.2 3.3,-1 v 0 c 1.1,0.3 2,1.1 2.4,2.2 0.5,1.4 0.6,2.9 0.2,4.3 -0.4,1.5 -1.2,2.8 -2.3,3.7 -0.9,0.8 -2.1,1.2 -3.3,1 -1.1,-0.3 -2,-1.1 -2.4,-2.2 z m 2.2,2.9 c 0.3,0.1 0.6,0.1 0.9,0.1 v 0 c 0,0 0.1,0 0.1,0 l -0.3,1 -1.5,-0.3 0.2,-1 c 0.2,0.1 0.4,0.2 0.6,0.2 z m -4.8,1.5 c 1.3,0 5.7,0.1 8,1.4 l -3.9,16.9 c -1,-0.1 -3.6,-0.4 -5.2,-0.6 l -0.8,-1.1 c 0.4,-3.8 1.6,-14.6 1.9,-16.6 z m -3.5,14.5 -0.8,-8.4 3,-1.7 c -0.4,3.6 -1,8.4 -1.3,11.2 z m -0.8,-0.1 -1.1,0.3 -1.6,-6.9 2,-1.1 z m 3.4,-14 c -0.1,0.7 -0.2,1.8 -0.4,3.1 l -6.1,3.4 -0.4,-1.7 z m -5,17.2 0.4,-2.2 1.4,-0.3 2.2,2.8 -2.5,1.1 z m -3.1,33.5 c -0.4,-0.3 -2.1,-1.6 -3.7,-2.9 l 1.6,-1.4 1.4,0.8 5.6,3.4 c -1.7,0 -4.3,0.1 -4.9,0.1 z m -0.5,-4.4 -0.9,-0.5 c 0.5,-1.1 2.3,-5 4.1,-9.8 2.8,-7.5 4.2,-13.3 4.2,-17.5 l 1.1,-0.5 c 1.3,0.1 3,0.4 4.1,0.5 -0.2,2.3 -2.3,18.7 -12.6,27.8 z m 29.3,1.8 -2.6,0.1 c -2.1,0.2 -4.8,0.5 -5.9,0.6 v -1.9 l 1.5,-0.4 v 0 c 0,0 4,-0.3 6.8,-0.5 z m -8.7,-1.8 c -1,-2.8 -6.9,-20.3 -8.1,-22.5 0.6,-2.6 0.8,-4.5 0.9,-5.2 0.1,0 0.2,0 0.2,0 0.9,1.9 6.9,15.1 8.2,27.4 z m -0.6,-35.4 -3.1,-3.5 v 0 l 0.9,-3.8 2.6,5 6.2,-1.7 0.2,0.9 z m 9.4,-2.5 -1.8,-0.7 -0.4,-1.4 v -1.1 l 2.4,-1.4 1,1.2 c 0.3,0.5 0.8,1.3 1,1.7 -0.6,0.5 -1.7,1.4 -2.2,1.7 z"
   id="path324" />
	<rect
   x="271.79999"
   y="219.7"
   class="st1"
   width="20.700001"
   height="1"
   id="rect326" />
	<path
   class="st2"
   d="m 291.3,206.7 c -0.2,1.5 -0.4,3.3 -0.5,4.1 l -1.8,2.4 0.1,0.2 c 0.8,2.4 0.9,2.4 1.3,2.4 v 0 h 4.4 l 0.7,-3.2 -2.1,-1.4 c 0.3,-1 1.1,-4.2 1.6,-6 l -0.8,-0.2 c -0.5,1.8 -1.3,4.9 -1.6,6 l -1,-0.2 c 0.1,-0.8 0.3,-2.5 0.4,-3.9 0.1,-1.1 0.3,-2 0.3,-2.5 0.3,-1.5 0.8,-2.9 1.3,-4.4 l 1.7,2 c -0.4,0.9 -0.8,1.8 -1.2,2.9 l 0.8,0.2 c 1,-2.8 2.1,-4.9 3.3,-6.1 l 0.2,11.8 v 0 c 2.3,14.7 -2.5,29.6 -2.5,29.8 v 0 l -1.1,1.6 6.7,2.6 4.6,-2.5 -6.4,-1.5 c 2.4,-4.7 4,-11.2 5,-17.1 1.9,4.3 4.8,17.5 4.9,17.9 v 0 2.4 l 8.2,1.2 3.2,-4 -7.9,-0.3 c -0.3,-2.5 -2.8,-20.2 -6.6,-31 l 1.6,-8.5 c 1.3,2 3.2,3.6 5.4,4.5 1.1,0.4 2.2,0.7 3.3,0.8 h -0.1 l 0.5,1.5 4.1,0.9 1.3,-4.6 -3.4,-0.9 -1.5,0.9 c -6.8,-2.5 -8.1,-9.2 -8.3,-10.5 l 0.3,-1.7 -0.3,-0.1 c -1.1,-0.3 -2.3,-0.6 -3.5,-0.7 l 0.3,-1.1 H 306 c 2.1,-0.5 3.8,-2.6 4.2,-5.3 0.5,-3.3 -1.3,-6.3 -4,-6.6 -1.4,-0.1 -2.8,0.4 -3.7,1.4 -1.1,1.1 -1.8,2.5 -2,4 -0.2,1.5 0,3 0.8,4.4 0.4,0.7 0.9,1.3 1.6,1.7 v 1.3 c -2.4,-0.1 -4.3,-0.1 -4.5,-0.1 H 298 v 0.2 c -0.4,0.4 -4.7,4.6 -6.6,13 l 0.4,0.1 h -0.4 c 0.1,0.2 0,1.2 -0.1,2.2 z m 10.8,-18.9 c -0.7,-1.2 -0.9,-2.6 -0.7,-3.9 0.2,-1.4 0.8,-2.6 1.8,-3.6 0.7,-0.7 1.6,-1.1 2.6,-1.2 0.1,0 0.2,0 0.4,0 2.2,0.3 3.7,2.8 3.3,5.8 -0.4,2.9 -2.6,5 -4.8,4.8 -1.1,-0.3 -2,-0.9 -2.6,-1.9 z m 2.5,2.5 c 0.2,0 0.3,0 0.5,0 v 0 c 0.1,0 0.2,0 0.3,0 l -0.2,0.9 -1.4,-0.2 v -0.9 c 0.3,0.1 0.5,0.2 0.8,0.2 z m -5.2,20.5 h 6.2 c -0.2,3 -1.6,20.4 -6.6,29.7 l -2.1,-0.2 c 0.8,-2.5 4.6,-16.1 2.5,-29.5 z m 2.2,33.2 -5.5,-2.1 0.5,-0.8 2.5,0.2 v 0 l 5,1.2 z m 15.9,0.4 -7,-1 v -1.5 l 2.3,-0.2 6.7,0.3 z m -7,-3.3 c -0.5,-2.4 -3.5,-16 -5.4,-18.7 0.7,-4.6 1.1,-8.6 1.3,-10.6 3.5,10.7 5.7,26.6 6,29.2 z m 9,-36.8 2.3,0.6 -0.9,3.3 -2.9,-0.6 -0.4,-1.1 v 0 l 0.6,-1.4 z m -2.2,0.7 -0.4,1 c -1.2,-0.1 -5.7,-0.7 -8.5,-5.7 l 0.8,-4.3 c 0.8,2.6 2.8,7 8.1,9 z m -8.4,-12.3 -0.2,1.1 h -0.1 c 0,0 0,0.1 0,0.2 l -1.2,6.3 h -0.1 c 0,0 0,0.1 0.1,0.1 l -1.8,9.6 v 0 c 0,0 0,0 0,0 v 0.1 h -6.4 l -0.4,-18.3 c 1.6,-0.1 6.5,-0.1 10.1,0.9 z m -10.7,-0.3 0.1,5.7 -0.1,-0.1 c -0.9,0.7 -1.7,1.8 -2.4,3.2 l -1.8,-2.1 c 0.6,-1.5 1.4,-2.9 2.2,-4.3 0.6,-0.8 1.3,-1.6 2,-2.4 z m -5.4,19.3 1.8,1.2 -0.5,2.2 h -3.5 c -0.1,-0.3 -0.4,-1.1 -0.7,-1.7 l 1.4,-1.9 z"
   id="path328" />
	<rect
   x="270.5"
   y="295.60001"
   class="st1"
   width="21.4"
   height="1"
   id="rect330" />
	<path
   class="st2"
   d="m 323.6,274.9 c -0.1,-0.1 -0.8,-1.2 -1.2,-2 v 0 l -1.4,-1.8 -3.4,1.9 v 1.2 l -5.7,1.6 -2.8,-5.3 0.4,-1.8 -0.2,-0.1 c -0.7,-0.4 -1.5,-0.7 -2.4,-0.9 l 0.4,-1.4 c 0.8,-0.2 1.6,-0.6 2.2,-1.1 1.3,-1.1 2.1,-2.5 2.5,-4.1 0.4,-1.6 0.4,-3.2 -0.2,-4.7 -0.5,-1.3 -1.6,-2.3 -3,-2.7 -1.4,-0.3 -2.9,0.2 -4,1.1 -1.3,1.1 -2.1,2.5 -2.5,4.1 -0.4,1.6 -0.4,3.2 0.2,4.7 0.3,0.9 0.9,1.6 1.7,2.1 l -0.3,1.5 C 302,267 300.5,267 300.3,267 h -0.4 v 0.2 l -7.9,5.5 2.4,10.1 -0.5,2.7 2.1,2.1 1.7,-0.7 c -0.1,9.5 -7.7,25.6 -8.3,26.9 l -0.1,-0.1 -2.5,2.2 0.3,0.3 c 4.1,3.4 4.2,3.4 4.4,3.4 v 0 c 0.2,0 5.8,-0.2 6.4,-0.2 h 1.3 l -7.4,-4.5 c 6.8,-6.1 10.1,-15.3 11.6,-21.6 1.9,4.6 7.4,20.8 7.7,21.8 v 2.9 l 0.5,-0.1 c 0,0 3.6,-0.4 6.3,-0.7 l 3.5,-0.2 -0.3,-3.5 h -0.4 c -2.3,0.2 -5.6,0.4 -6.8,0.5 -1.3,-12.8 -7.7,-26.6 -8.3,-27.7 l 2.3,-9.8 3.1,3.5 7.5,-3.4 2.4,0.9 0.2,-0.1 c 0,0 2.2,-1.6 2.6,-1.9 l -0.3,-0.3 h 0.1 z m -20.4,-11.5 c -0.5,-1.4 -0.6,-2.9 -0.2,-4.3 0.4,-1.5 1.2,-2.8 2.3,-3.7 0.7,-0.6 1.6,-1 2.6,-1 0.2,0 0.4,0 0.7,0.1 1.1,0.3 2,1.1 2.4,2.2 0.5,1.4 0.6,2.9 0.2,4.3 -0.4,1.5 -1.2,2.8 -2.3,3.7 -0.9,0.8 -2.1,1.2 -3.3,1 -1.1,-0.4 -2,-1.2 -2.4,-2.3 z m 2.3,2.9 c 0.3,0.1 0.6,0.1 0.9,0.1 v 0 c 0,0 0.1,0 0.1,0 l -0.3,1 -1.5,-0.3 0.2,-1 c 0.2,0.1 0.4,0.2 0.6,0.2 z m -4.9,1.5 c 1.3,0 5.7,0.1 8,1.4 l -3.9,16.9 c -1,-0.1 -3.6,-0.4 -5.2,-0.6 l -0.8,-1.1 c 0.4,-3.8 1.7,-14.6 1.9,-16.6 z m -3.5,14.5 -0.8,-8.4 3,-1.7 c -0.4,3.6 -1,8.5 -1.3,11.2 z m -0.8,-0.1 -1.1,0.2 -1.6,-6.9 2,-1.1 z m 3.5,-14 c -0.1,0.7 -0.2,1.8 -0.4,3.1 l -6.1,3.4 -0.4,-1.7 z m -5,17.2 0.4,-2.2 1.4,-0.3 2.2,2.8 -2.5,1.1 z m -3.2,33.5 c -0.4,-0.3 -2.1,-1.6 -3.7,-2.9 l 1.6,-1.4 1.4,0.8 5.6,3.4 c -1.7,0 -4.3,0.1 -4.9,0.1 z m -0.5,-4.4 -0.9,-0.5 c 0.5,-1.1 2.3,-5 4.1,-9.8 2.8,-7.5 4.2,-13.3 4.2,-17.5 l 1.1,-0.5 c 1.3,0.1 3,0.4 4.1,0.5 -0.2,2.2 -2.3,18.7 -12.6,27.8 z m 29.3,1.8 -2.6,0.1 c -2.1,0.2 -4.8,0.5 -5.9,0.6 v -1.9 l 1.5,-0.4 v 0 c 0,0 4,-0.3 6.8,-0.5 z m -8.7,-1.8 c -1,-2.8 -6.9,-20.3 -8.1,-22.5 0.6,-2.6 0.8,-4.5 0.9,-5.2 0.1,0 0.2,0 0.2,0 0.9,1.8 6.9,15.1 8.2,27.4 z m -0.6,-35.4 -3.1,-3.5 v 0 l 0.9,-3.8 2.6,5 6.2,-1.7 0.2,0.9 z m 9.5,-2.5 -1.8,-0.7 -0.4,-1.4 v -1 l 2.4,-1.4 1,1.2 c 0.3,0.5 0.8,1.3 1,1.7 -0.6,0.4 -1.8,1.3 -2.2,1.6 z"
   id="path332" />
	<polygon
   class="st1"
   points=""
   id="polygon334" />
	<path
   class="st1"
   d="m 274,371.2 0.7,0.8 c 0,0 0,0 0,0 0.8,-0.4 13.2,-4.3 21.4,-6.9 l -0.3,-0.9 c -5,1.5 -21.1,6.5 -21.8,7 z"
   id="path336" />
	<path
   class="st2"
   d="m 326,351.7 -3.4,-0.9 -1.5,0.9 c -6.8,-2.5 -8.1,-9.2 -8.3,-10.5 l 0.3,-1.7 -0.3,-0.1 c -1.1,-0.3 -2.3,-0.5 -3.5,-0.7 l 0.3,-1.2 h -0.1 c 0.8,-0.2 1.5,-0.6 2.1,-1.2 1.1,-1.1 1.8,-2.5 2,-4 0.5,-3.3 -1.3,-6.3 -4,-6.6 -2.7,-0.3 -5.2,2.1 -5.7,5.4 -0.2,1.5 0,3 0.8,4.4 0.4,0.7 0.9,1.3 1.6,1.7 v 1.3 c -2.4,-0.1 -4.3,-0.1 -4.5,-0.1 h -0.4 v 0.2 c -0.6,0.5 -4.8,4.7 -6.6,13 l 0.4,0.1 h -0.5 c 0,0.4 -0.2,1.4 -0.3,2.5 -0.2,1.5 -0.4,3.2 -0.5,4.1 l -1.8,2.4 0.1,0.2 c 0.8,2.4 0.9,2.4 1.3,2.4 v 0 h 4.4 l 0.7,-3.2 -2.1,-1.4 c 0.3,-1 1.1,-4.2 1.6,-6 l -0.8,-0.2 c -0.5,1.8 -1.3,4.9 -1.6,6 l -1,-0.2 c 0.1,-0.8 0.3,-2.5 0.4,-3.9 0.1,-1.1 0.3,-2 0.3,-2.5 v 0 c 0.3,-1.5 0.8,-3 1.3,-4.4 l 1.7,2 c -0.4,0.9 -0.8,1.8 -1.2,2.9 l 0.8,0.2 c 1,-2.8 2.1,-4.8 3.3,-6.1 l 0.2,11.8 v 0 c 2.3,14.7 -2.5,29.6 -2.5,29.8 v 0 l -1.1,1.6 6.7,2.6 4.6,-2.5 -6.4,-1.5 c 2.4,-4.7 4,-11.2 5,-17.1 1.9,4.3 4.8,17.5 4.9,17.9 v 0 2.4 l 8.2,1.1 3.2,-3.9 -7.9,-0.3 c -0.3,-2.5 -2.8,-20.2 -6.6,-31 l 1.6,-8.5 c 1.3,2 3.2,3.6 5.4,4.5 1,0.4 2.1,0.7 3.3,0.8 h -0.1 l 0.5,1.5 4.1,0.9 z m -20.6,-16.6 c -0.7,-1.2 -0.9,-2.6 -0.7,-3.9 0.4,-2.9 2.6,-5 4.8,-4.8 v 0 c 2.2,0.3 3.7,2.8 3.3,5.8 -0.2,1.4 -0.8,2.6 -1.8,3.6 -0.8,0.8 -1.9,1.3 -3,1.2 -1.1,-0.3 -2.1,-0.9 -2.6,-1.9 z m 2.5,2.5 c 0.2,0 0.3,0 0.5,0 v 0 c 0.1,0 0.2,0 0.3,0 l -0.2,0.8 -1.4,-0.2 v -0.9 c 0.3,0.2 0.5,0.3 0.8,0.3 z m -11.8,21.4 1.8,1.2 -0.5,2.2 h -3.5 c -0.1,-0.3 -0.4,-1.1 -0.7,-1.7 l 1.4,-1.9 z m 5.4,-13.7 c -0.9,0.7 -1.7,1.8 -2.4,3.2 l -1.8,-2.1 c 0.6,-1.5 1.4,-2.9 2.2,-4.3 0.5,-0.9 1.2,-1.7 1.9,-2.4 z m 1.2,12.8 h 6.2 c -0.2,3 -1.6,20.4 -6.6,29.8 l -2.1,-0.2 c 0.8,-2.6 4.6,-16.2 2.5,-29.6 z m 2.2,33.1 -5.5,-2.1 0.5,-0.8 2.5,0.2 v 0 l 5,1.2 z m 15.9,0.5 -7,-1 v -1.5 l 2.3,-0.2 6.7,0.3 z m -7.1,-3.3 c -0.5,-2.4 -3.5,-16 -5.4,-18.8 0.7,-4.6 1.1,-8.6 1.3,-10.6 3.5,10.7 5.7,26.6 6,29.2 z M 309,357.3 v 0 c 0,0 0,0 0,0 v 0 l -6.4,0.1 -0.4,-18.3 c 1.4,0 6.3,0 9.9,0.9 l -0.1,1 v 0 c 0,0 0,0.1 0,0.2 l -1.2,6.3 h -0.1 c 0,0 0,0.1 0.1,0.1 z m 2.6,-9.8 0.8,-4.3 c 0.8,2.7 2.9,7.1 8.1,9.1 l -0.4,1 c -1.1,-0.1 -5.7,-0.7 -8.5,-5.8 z m 12.5,8 -2.9,-0.6 -0.4,-1.1 v 0 l 0.6,-1.4 1.3,-0.8 2.3,0.6 z"
   id="path338" />
	<polygon
   class="st1"
   points="276.2,396.5 275.4,397.2 295.4,417.8 296.3,417.1 "
   id="polygon340" />
	<path
   class="st2"
   d="m 325.3,425.6 c -0.1,-0.1 -0.8,-1.2 -1.2,-2 v 0 l -1.4,-1.8 -3.4,1.9 v 1.2 l -5.7,1.6 -2.8,-5.2 0.4,-1.8 -0.2,-0.1 c -0.7,-0.4 -1.5,-0.7 -2.4,-0.9 l 0.4,-1.4 c 2.1,-0.5 4,-2.5 4.7,-5.2 0.9,-3.5 -0.5,-6.8 -3.2,-7.4 -1.4,-0.3 -2.9,0.2 -4,1.1 -1.3,1.1 -2.1,2.5 -2.5,4.1 -0.7,2.8 0.1,5.6 1.9,6.8 l -0.3,1.4 c -1.9,-0.2 -3.4,-0.2 -3.5,-0.2 h -0.4 v 0.2 l -7.9,5.5 2.4,10.2 -0.5,2.7 2.1,2.1 1.7,-0.7 c -0.1,9.5 -7.7,25.6 -8.3,26.9 l -0.1,-0.1 -2.5,2.2 0.3,0.3 c 4.1,3.4 4.2,3.4 4.4,3.4 v 0 c 0.2,0 5.8,-0.2 6.4,-0.2 h 1.3 l -7.4,-4.5 c 6.8,-6.1 10.1,-15.3 11.6,-21.6 1.9,4.6 7.4,20.8 7.7,21.8 v 2.9 l 0.5,-0.1 c 0,0 3.6,-0.4 6.3,-0.7 l 3.5,-0.2 -0.3,-3.5 h -0.4 c -2.3,0.2 -5.6,0.4 -6.8,0.5 -1.3,-12.7 -7.6,-26.3 -8.3,-27.7 l 2.3,-9.9 3.1,3.5 7.5,-3.4 2.3,0.9 0.2,-0.1 c 0,0 2.2,-1.6 2.6,-1.9 l -0.2,-0.3 v 0 z m -20.6,-15.7 c 0.4,-1.5 1.2,-2.8 2.3,-3.7 0.7,-0.6 1.6,-1 2.6,-1 v 0 c 0.2,0 0.4,0 0.7,0.1 2.3,0.5 3.4,3.4 2.6,6.5 -0.8,3.1 -3.3,5.2 -5.6,4.7 -2.3,-0.6 -3.4,-3.5 -2.6,-6.6 z m 2.4,7.2 c 0.3,0.1 0.6,0.1 0.8,0.1 v 0 c 0,0 0.1,0 0.1,0 l -0.3,1 -1.5,-0.3 0.2,-1 c 0.3,0.1 0.5,0.1 0.7,0.2 z m -4.8,1.4 c 1.3,0 5.7,0.1 8,1.4 l -3.9,16.9 c -1,-0.1 -3.6,-0.4 -5.2,-0.6 l -0.8,-1 c 0.4,-3.8 1.7,-14.7 1.9,-16.7 z m -3.5,14.6 -0.8,-8.4 3,-1.7 c -0.4,3.7 -1,8.5 -1.3,11.2 z m -0.9,-0.2 -1.1,0.3 -1.6,-7 2,-1.1 z m 3.5,-13.9 c -0.1,0.7 -0.2,1.8 -0.4,3 l -6.1,3.4 -0.4,-1.7 z m -5,17.1 0.4,-2.2 1.4,-0.3 2.2,2.8 -2.5,1.1 z m -3.1,33.5 c -0.4,-0.3 -2.1,-1.6 -3.7,-2.9 l 1.6,-1.4 1.4,0.8 5.6,3.4 c -1.8,0 -4.3,0.1 -4.9,0.1 z m -0.5,-4.4 -0.9,-0.5 c 0.5,-1.1 2.3,-5 4.1,-9.8 2.8,-7.5 4.2,-13.3 4.2,-17.5 l 1.1,-0.5 c 1.3,0.1 3,0.4 4.1,0.5 -0.3,2.2 -2.3,18.7 -12.6,27.8 z m 29.2,1.9 -2.6,0.1 c -2.1,0.2 -4.8,0.5 -5.9,0.6 V 466 l 1.5,-0.4 v 0 c 0,0 4,-0.3 6.8,-0.5 z m -8.6,-1.9 c -1,-2.8 -6.9,-20.3 -8.1,-22.5 0.6,-2.6 0.8,-4.5 0.9,-5.2 0.1,0 0.2,0 0.2,0 0.9,1.8 6.9,15.1 8.2,27.4 z m -0.7,-35.4 -3.1,-3.5 0.9,-3.8 2.6,4.9 6.2,-1.7 0.3,0.9 z m 9.5,-2.5 -1.8,-0.7 -0.4,-1.4 v -1.1 l 2.4,-1.4 1,1.2 c 0.3,0.5 0.8,1.3 1,1.7 -0.6,0.5 -1.7,1.4 -2.2,1.7 z"
   id="path342" />
</g>
</svg>
