<?xml version="1.0" encoding="utf-8"?>
<!-- Generator: Adobe Illustrator 27.9.0, SVG Export Plug-In . SVG Version: 6.00 Build 0)  -->
<svg version="1.1" id="Layer_1" xmlns="http://www.w3.org/2000/svg" xmlns:xlink="http://www.w3.org/1999/xlink" x="0px" y="0px"
	 viewBox="0 0 99.5 121" style="enable-background:new 0 0 99.5 121;" xml:space="preserve">
<style type="text/css">
	.st0{clip-path:url(#SVGID_00000072989883315176445140000008847927478592178367_);}
	.st1{fill:#FFFFFF;}
	.st2{fill:#009ADB;}
	.st3{fill:#090A0A;}
	.st4{fill:none;}
</style>
<g>
	<defs>
		<rect id="SVGID_1_" x="3.5" y="2.4" width="92.5" height="116"/>
	</defs>
	<clipPath id="SVGID_00000173140497939089427440000011801902144353529255_">
		<use xlink:href="#SVGID_1_"  style="overflow:visible;"/>
	</clipPath>
	<g id="Group_156" style="clip-path:url(#SVGID_00000173140497939089427440000011801902144353529255_);">
		<path id="Path_1625" class="st1" d="M90.9,37.8c0-0.3,0.5-0.7,0.5-1c-0.1,0-0.3-0.2-0.4-0.2c-0.1,0-0.2-0.6-0.3-0.6
			c-5.8,0-11.7,0.4-17.5,0.4c-1.2,0-2.5,0.9-3.7,0.6c-1.7-0.6-3.2-1.7-4.2-3.2c-5-0.1-10-0.1-15-0.1V34c-8.7,0-17.4-0.3-26.1-0.3
			c-1,0-2.3,0.5-2.9-0.5c-0.4-0.7-0.2-1.5,0.3-2c0-0.1-0.1-0.2-0.1-0.4c-0.3-0.8-0.5-1.3,0.1-2c0.6-0.7,1.6-1.2,2.5-1.2
			c6,0,12,0.2,18.1,0.2s12,0.6,18.1,0.6c0.7,0,1.5-0.3,2.1-0.3c0-6.8-0.3-13.5-0.3-20.3c-0.4,0-0.4,1.1-0.6,1.1
			c-7.7,0-15.4-1.6-23.1-1.6S22.9,8.1,15.2,8.1c-1.1,0-2.5-0.8-3.5-0.5c-1.7,0.6-2.6,3.6-2.6,5.4c0,10.4-0.6,20.7-0.6,31.1
			c0,7-0.9,14.1-0.9,21.1c0,7,1.2,14.1,1.2,21.1c0,7,0.8,14.1,0.8,21.1c0,1.4-0.1,2.6,0.8,3.7c1.3,1.5,2.8,2.7,4.7,2.7
			c7.5,0,15-1,22.5-1s15-0.4,22.5-0.4s15,1.2,22.5,1.2c1.2-0.1,2.4-0.2,3.6-0.5c2.2-0.3,3.5-1.9,4-4.2c0.3-1.4,1-2.7,1-4.1
			c0-5.9,1.1-11.8,1.1-17.8s-2.1-11.8-2.1-17.8C90.3,58.9,91,48.3,90.9,37.8 M91.2,36.8L91,36.8L91.2,36.8 M20.6,44.8
			c0.4-1,1.2-1.7,2.2-2c1-0.1,2,0.7,3,0.7c8,0,16.1-0.6,24.1-0.6v0c8.5,0,17.1,0.3,25.6,0.3c0.5,0,1,0,1.6,0.1
			c0.9,0.1,2.2,1.2,2.2,2.1c-0.1,0.6-0.4,1.1-0.9,1.3c0.3,0.3,0.5,0.7,0.5,1.1c-0.1,1-0.5,2.3-1.5,2.4c-0.8,0.1-1.6-0.5-2.3-0.5
			c-8.3,0-16.5-0.2-24.8-0.2v0.3c-8.7,0-17.4-0.3-26.1-0.3c-1,0-2.3,0.5-2.9-0.5c-0.3-0.6-0.3-1.3,0.2-1.8
			C20.8,46.4,20.5,45.6,20.6,44.8 M21,60.8c-0.1-1.1,0.5-2.5,1.6-2.7c0.4,0,0.9,0.1,1.3,0.2c8.7,0,17.3,0.7,26,0.7s17.3-0.7,26-0.7
			c0.5,0,1,0.1,1.4,0.1c0.8,0.3,1.3,1,1.4,1.8c0.1,0.5,0,1-0.3,1.4c0.3,0.3,0.5,0.7,0.5,1.1c-0.1,1-0.5,2.3-1.5,2.4
			c-0.8,0.1-1.6-0.5-2.3-0.5c-8.3,0-16.5-0.2-24.8-0.2v0.3c-8.7,0-17.4-0.3-26.1-0.3c-1,0-2.3,0.5-2.9-0.5c-0.3-0.6-0.2-1.4,0.2-1.9
			C21.3,61.6,21.1,61.2,21,60.8 M77.8,95.7c-0.8,0.1-1.6-0.5-2.3-0.5C67.2,95.2,59,95,50.7,95v0.3C42,95.4,33.3,95,24.6,95
			c-1,0-2.3,0.5-2.9-0.5c-0.3-0.5-0.3-1.2,0.1-1.7c-0.4-0.1-0.7-0.3-0.9-0.6c-0.4-1,0.1-2.2,1.1-2.6c0.2-0.1,0.5-0.2,0.8-0.2
			c2.5-0.1,5,0,7.6,0c7.5,0,15,0,22.6,0s15-0.7,22.6-0.7c0.6,0,1.1,0.7,1.6,0.8c0.8,0.1,1.4,0.7,1.4,1.5c0,0.3-0.1,0.6-0.2,1
			c0.6,0.2,1,0.7,1,1.4C79.2,94.3,78.8,95.6,77.8,95.7 M77.8,80.7c-0.8,0.1-1.6-0.5-2.3-0.5c-8.3,0-16.5-0.2-24.8-0.2v0.3
			c-8.7,0-17.4-0.3-26.1-0.3c-1,0-2.3,0.5-2.9-0.5c-0.4-0.8-0.1-1.8,0.6-2.3c-0.1-0.1-0.2-0.2-0.3-0.3c-0.7-0.6-1.6-1.1-1.3-1.9
			c0.2-0.7,1.2-0.9,2.1-0.9c0.4,0,0.8-0.4,1.2-0.4c8.6,0,17.2,0.3,25.8,0.3s17.2-0.6,25.7-0.6c0.6,0,1.1,0.7,1.7,0.8
			c1,0.3,2.2,0.7,2.1,1.6c-0.1,0.5-0.3,0.9-0.7,1.2c0.5,0.2,0.8,0.7,0.7,1.2C79.2,79.3,78.8,80.6,77.8,80.7"/>
		<path id="Path_1626" class="st2" d="M78.3,91.9c-0.2,0.7-0.6,1.4-1.3,1.4c-0.8,0.1-1.6-0.5-2.3-0.5c-8.3,0-16.5-0.2-24.8-0.2V93
			c-8.7,0-17.4-0.3-26.1-0.3c-0.7,0.1-1.3,0.1-2,0.1c-0.3,0.5-0.4,1.2-0.1,1.7c0.6,1,1.9,0.5,2.9,0.5c8.7,0,17.4,0.3,26.1,0.3V95
			c8.3,0,16.5,0.2,24.8,0.2c0.8,0,1.6,0.5,2.3,0.5c1-0.1,1.4-1.4,1.5-2.4C79.3,92.7,78.9,92.1,78.3,91.9"/>
		<path id="Path_1627" class="st2" d="M78.6,77.1c-0.5,0.3-1.1,0.5-1.8,0.6c-0.6,0.1-1.3,0.1-1.9,0.1c-8.4,0-16.7-0.4-25.1-0.4v1
			c-8.7,0-17.3-0.2-26-0.2c-0.6,0-1-0.5-1.5-1c-0.7,0.5-1,1.5-0.6,2.3c0.6,1,1.9,0.5,2.9,0.5c8.7,0,17.4,0.3,26.1,0.3v-0.3
			c8.3,0,16.5,0.2,24.8,0.2c0.8,0,1.6,0.5,2.3,0.5c1-0.1,1.4-1.4,1.5-2.4C79.3,77.8,79,77.3,78.6,77.1"/>
		<path id="Path_1628" class="st2" d="M21.3,63.8c0.6,1,1.9,0.5,2.9,0.5c8.7,0,17.4,0.3,26.1,0.3v-0.3c8.3,0,16.5,0.2,24.8,0.2
			c0.8,0,1.6,0.5,2.3,0.5c1-0.1,1.4-1.4,1.5-2.4c0-0.4-0.2-0.8-0.5-1.1c-0.3,0.3-0.6,0.4-0.9,0.5c-0.4,0.1-0.9,0.2-1.3,0.2
			c-8.8,0-17.5,0.6-26.3,0.6v-0.6c-8.9,0-17.8,0.5-26.6,0.5c-0.6,0-1.2-0.4-1.6-0.9C21.1,62.4,21,63.2,21.3,63.8"/>
		<path id="Path_1629" class="st2" d="M72.3,47.4c-8.1,0-16.1,0.4-24.2,0.4s-16.1-0.4-24.2-0.4c-0.6,0-1.5,0.3-2,0.1
			c-0.2-0.1-0.3-0.2-0.5-0.4c-0.4,0.5-0.5,1.2-0.2,1.8c0.6,1,1.9,0.5,2.9,0.5c8.7,0,17.4,0.3,26,0.3v-0.3c8.3,0,16.5,0.2,24.8,0.2
			c0.8,0,1.6,0.5,2.3,0.5c1-0.1,1.4-1.4,1.5-2.4c0-0.4-0.2-0.8-0.5-1.1c-0.4,0.3-0.9,0.4-1.4,0.5C75.3,47.2,73.8,47.4,72.3,47.4"/>
		<path id="Path_1630" class="st2" d="M21.3,33.1c0.6,1,1.9,0.5,2.9,0.5c8.7,0,17.4,0.3,26.1,0.3v-0.3c5,0,10,0.1,15,0.1
			c-0.1-0.2-0.3-0.3-0.4-0.5c-0.7-0.9-1.4,0-2.4,0c-8.9,0-17.8-1.9-26.6-1.9c-4.3,0-8.6,0.5-12.9,0.5c-0.6,0.1-1.1-0.3-1.3-0.8
			C21.1,31.6,21,32.4,21.3,33.1"/>
		<path id="Path_1631" class="st2" d="M67.2,27.5c0.4,1.6,0.4,3.3,1.9,4.2c1.2,0.7,2.6-0.2,4-0.2c4.5,0,9.1,1.3,13.7,1.3
			C86.3,31.9,66.7,12,66.1,11.9c0,0.7-0.6,1.4-0.6,2.1c0,3.6,0.4,7.2,0.4,10.8C65.9,25.8,67,26.6,67.2,27.5"/>
		<path id="Path_1632" class="st3" d="M94.9,34.6c-5.1-5.1-10.5-10-15.6-15.1S69.1,9.3,64,4.1c-0.3-0.3-0.4,0.2-0.9,0.2
			c-7.4,0-14.7-1.9-22.1-1.9S26.3,3.6,19,3.6c-2,0-4.2-0.8-6.2-0.4c-2.1,0.4-3.5,2.1-5,3.5c-2.2,2-2.6,4.2-2.6,7.1
			c0,7.7-0.6,15.4-0.6,23.2s0.1,15.4,0.1,23.2c0,7.7-1.2,15.3-1.2,23s0.8,15.3,0.8,23c0,0.9,1.2,1.6,1.4,2.5c0.6,2.6,0.6,5,2.8,6.7
			c1.7,1.3,3.5,2.7,5.5,2.7c7.7,0,15.5-1.2,23.2-1.2s15.5,1.1,23.2,1.1s15.5-0.8,23.2-0.9c1.2,0,2.7,1.5,3.9,1.2
			c2.5-0.5,4.5-2.8,6.1-4.8c1.5-2,1.8-4.4,1.8-6.9c0-7.8-0.2-15.7-0.2-23.5s0.6-15.7,0.6-23.5S96,44,96,36.1
			C96,35.5,95.3,35.1,94.9,34.6 M66.1,11.9c0.6,0.1,20.3,20,20.8,20.9c-4.6,0-9.2-1.4-13.7-1.3c-1.4,0-2.8,0.9-4,0.2
			c-1.5-0.9-1.6-2.5-1.9-4.2c-0.2-0.9-1.2-1.8-1.2-2.7c0-3.6-0.4-7.2-0.4-10.8C65.5,13.4,66.1,12.6,66.1,11.9 M91.3,104.9
			c0,1.4-0.7,2.7-1,4.1c-0.5,2.3-1.8,3.9-4,4.2c-1.2,0.2-2.4,0.4-3.6,0.5c-7.5,0-15-1.2-22.5-1.2s-15,0.4-22.5,0.4s-15,1-22.5,1
			c-2,0-3.4-1.1-4.7-2.7c-1-1.1-0.8-2.2-0.8-3.7c0-7-0.8-14.1-0.8-21.1c0-7-1.2-14.1-1.2-21.1c0-7,0.9-14.1,0.9-21.1
			c0-10.4,0.6-20.7,0.6-31.1c0-1.8,0.9-4.9,2.6-5.4c1.1-0.3,2.4,0.5,3.5,0.5c7.7,0,15.4-0.9,23.1-0.9s15.4,1.6,23.1,1.6
			c0.2,0,0.3-1.1,0.6-1.1c0,6.8,0.3,13.5,0.3,20.3c-0.6,0-1.4,0.3-2.1,0.3c-6,0-12-0.6-18.1-0.6s-12-0.2-18.1-0.2
			c-1,0-1.9,0.4-2.5,1.2c-0.6,0.6-0.4,1.2-0.1,2c0,0.1,0.1,0.3,0.1,0.4c0.2,0.6,0.7,0.9,1.3,0.8c4.3,0,8.6-0.5,12.9-0.5
			c8.9,0,17.8,2,26.6,1.9c1.1,0,1.8-0.9,2.4,0c0.1,0.2,0.2,0.3,0.4,0.5c1,1.5,2.5,2.6,4.2,3.2c1.2,0.3,2.5-0.6,3.7-0.6
			c5.8,0,11.7-0.4,17.5-0.4c0.1,0,0.2,0.6,0.3,0.6c0.1,0,0.3,0.2,0.4,0.2c0.1,0.3-0.5,0.7-0.5,1c0,10.6-0.6,21.1-0.6,31.7
			c0,5.9,2.1,11.8,2.1,17.8S91.4,99,91.3,104.9"/>
		<path id="Path_1633" class="st4" d="M91.2,36.8L91,36.8"/>
		<path id="Path_1634" class="st3" d="M23.8,92.7c8.7,0,17.4,0.3,26.1,0.3v-0.3c8.3,0,16.5,0.2,24.8,0.2c0.8,0,1.6,0.5,2.3,0.5
			c0.7-0.1,1.1-0.7,1.3-1.4c0.1-0.3,0.2-0.6,0.2-1c0-0.8-0.6-1.4-1.4-1.5c-0.6-0.1-1.1-0.8-1.6-0.8c-7.5,0-15,0.7-22.6,0.7
			s-15,0-22.6,0c-2.5,0-5-0.1-7.6,0c-1.1,0-2,0.9-2,2c0,0.3,0.1,0.5,0.2,0.8c0.2,0.3,0.5,0.6,0.9,0.6C22.5,92.8,23.2,92.8,23.8,92.7
			"/>
		<path id="Path_1635" class="st3" d="M21.8,47.5c0.6,0.2,1.4-0.1,2-0.1c8.1,0,16.1,0.4,24.2,0.4s16.1-0.4,24.2-0.4
			c1.5,0,3-0.2,4.6-0.3c0.5,0,1-0.2,1.4-0.5c0.5-0.3,0.8-0.8,0.9-1.3c0-0.8-1.3-1.9-2.2-2.1c-0.5-0.1-1-0.1-1.6-0.1
			c-8.5,0-17.1-0.3-25.6-0.3v0c-8,0-16.1,0.6-24.1,0.6c-1,0-2-0.8-3-0.7c-1,0.3-1.8,1-2.2,2c-0.1,0.8,0.2,1.7,0.8,2.3
			C21.5,47.2,21.6,47.4,21.8,47.5"/>
		<path id="Path_1636" class="st3" d="M23.8,78.2c8.7,0,17.3,0.2,26,0.2v-1c8.4,0,16.7,0.4,25.1,0.4c0.6,0,1.3-0.1,1.9-0.1
			c0.6-0.1,1.2-0.3,1.8-0.6c0.4-0.3,0.7-0.7,0.7-1.2c0.1-0.9-1.2-1.4-2.1-1.6c-0.6-0.2-1.1-0.8-1.7-0.8c-8.6,0-17.2,0.6-25.8,0.6
			S32.6,73.8,24,73.8c-0.4,0-0.8,0.4-1.2,0.4c-0.9,0-1.9,0.1-2.1,0.9c-0.3,0.8,0.7,1.3,1.3,1.9c0.1,0.1,0.2,0.2,0.3,0.3
			C22.8,77.7,23.2,78.2,23.8,78.2"/>
		<path id="Path_1637" class="st3" d="M23.2,62.8c8.9,0,17.8-0.5,26.6-0.5v0.6c8.8,0,17.5-0.6,26.3-0.6c0.4,0,0.9,0,1.3-0.2
			c0.4-0.1,0.7-0.3,0.9-0.5c0.3-0.4,0.4-0.9,0.3-1.4c-0.1-0.8-0.6-1.5-1.4-1.8c-0.5-0.1-1-0.1-1.4-0.1c-8.7,0-17.3,0.7-26,0.7
			s-17.3-0.7-26-0.7c-0.4-0.1-0.8-0.1-1.3-0.2c-1.1,0.2-1.7,1.6-1.6,2.7c0,0.4,0.2,0.8,0.5,1.1C21.9,62.4,22.5,62.7,23.2,62.8"/>
	</g>
</g>
</svg>
