<?xml version="1.0" encoding="utf-8"?>
<!-- Generator: Adobe Illustrator 27.9.0, SVG Export Plug-In . SVG Version: 6.00 Build 0)  -->
<svg version="1.1" id="Layer_1" xmlns="http://www.w3.org/2000/svg" xmlns:xlink="http://www.w3.org/1999/xlink" x="0px" y="0px"
	 viewBox="0 0 185.1 261.7" style="enable-background:new 0 0 185.1 261.7;" xml:space="preserve">
<style type="text/css">
	.st0{fill:#FFFFFF;}
	.st1{fill:#666666;}
</style>
<g>
	<rect x="0.8" y="0.5" class="st0" width="183.5" height="260.7"/>
	<path class="st1" d="M183.8,1v259.7H1.3V1H183.8 M184.8,0H0.3v261.7h184.5V0L184.8,0z"/>
</g>
<g>
	<path class="st1" d="M55.1,100.7c1,0.5,1.7,1.2,2.2,2.1s0.8,2,0.8,3.3s-0.3,2.3-0.8,3.3s-1.3,1.6-2.2,2.1c-1,0.5-2.1,0.7-3.5,0.7
		h-3.8V100h3.8C52.9,100,54.1,100.2,55.1,100.7z M55.2,109.6c0.8-0.8,1.2-2,1.2-3.5c0-1.5-0.4-2.7-1.3-3.6s-2-1.3-3.6-1.3h-2.2v9.6
		h2.2C53.2,110.9,54.4,110.5,55.2,109.6z"/>
	<path class="st1" d="M62,111.8c-0.7-0.4-1.3-1-1.7-1.7s-0.6-1.6-0.6-2.6c0-1,0.2-1.9,0.6-2.6s1-1.3,1.7-1.7
		c0.7-0.4,1.6-0.6,2.5-0.6s1.7,0.2,2.5,0.6c0.7,0.4,1.3,1,1.7,1.7s0.6,1.6,0.6,2.6s-0.2,1.9-0.7,2.6s-1,1.3-1.8,1.7
		c-0.7,0.4-1.6,0.6-2.5,0.6C63.5,112.4,62.7,112.2,62,111.8z M66,110.6c0.5-0.3,0.9-0.7,1.2-1.2c0.3-0.5,0.5-1.2,0.5-2
		c0-0.8-0.2-1.4-0.5-2c-0.3-0.5-0.7-0.9-1.2-1.2c-0.5-0.3-1-0.4-1.6-0.4c-0.6,0-1.1,0.1-1.6,0.4c-0.5,0.3-0.9,0.7-1.2,1.2
		c-0.3,0.5-0.4,1.2-0.4,2c0,0.8,0.1,1.4,0.4,2c0.3,0.5,0.7,0.9,1.1,1.2c0.5,0.3,1,0.4,1.6,0.4S65.5,110.8,66,110.6z"/>
	<path class="st1" d="M71.5,104.8c0.4-0.7,1-1.3,1.7-1.7c0.7-0.4,1.5-0.6,2.4-0.6c1.2,0,2.2,0.3,2.9,0.9c0.8,0.6,1.3,1.4,1.5,2.4
		h-1.7c-0.2-0.6-0.5-1-1-1.4c-0.5-0.3-1.1-0.5-1.8-0.5c-0.9,0-1.7,0.3-2.2,0.9s-0.8,1.5-0.8,2.7c0,1.2,0.3,2.1,0.8,2.7
		s1.3,0.9,2.2,0.9c0.7,0,1.3-0.2,1.8-0.5c0.5-0.3,0.8-0.8,1-1.4H80c-0.3,1-0.8,1.8-1.5,2.4c-0.8,0.6-1.7,0.9-2.9,0.9
		c-0.9,0-1.7-0.2-2.4-0.6c-0.7-0.4-1.3-1-1.7-1.7s-0.6-1.6-0.6-2.6C70.9,106.4,71.1,105.5,71.5,104.8z"/>
	<path class="st1" d="M90.6,102.6v9.6H89v-1.4c-0.3,0.5-0.7,0.9-1.3,1.2c-0.5,0.3-1.1,0.4-1.8,0.4c-0.7,0-1.4-0.2-2-0.5
		c-0.6-0.3-1.1-0.8-1.4-1.4c-0.3-0.6-0.5-1.4-0.5-2.3v-5.6h1.6v5.4c0,0.9,0.2,1.7,0.7,2.2c0.5,0.5,1.1,0.8,2,0.8
		c0.9,0,1.5-0.3,2-0.8c0.5-0.5,0.7-1.3,0.7-2.3v-5.3H90.6z"/>
	<path class="st1" d="M106.9,102.9c0.6,0.3,1,0.8,1.4,1.4c0.3,0.6,0.5,1.4,0.5,2.3v5.7h-1.6v-5.4c0-1-0.2-1.7-0.7-2.2
		c-0.5-0.5-1.1-0.8-1.9-0.8c-0.8,0-1.5,0.3-2,0.8c-0.5,0.5-0.7,1.3-0.7,2.3v5.3h-1.6v-5.4c0-1-0.2-1.7-0.7-2.2
		c-0.5-0.5-1.1-0.8-1.9-0.8c-0.8,0-1.5,0.3-2,0.8c-0.5,0.5-0.7,1.3-0.7,2.3v5.3h-1.6v-9.6H95v1.4c0.3-0.5,0.7-0.9,1.3-1.2
		s1.1-0.4,1.8-0.4c0.8,0,1.5,0.2,2.1,0.5c0.6,0.4,1.1,0.9,1.4,1.6c0.3-0.7,0.7-1.2,1.3-1.6c0.6-0.4,1.3-0.6,2.1-0.6
		C105.7,102.4,106.3,102.6,106.9,102.9z"/>
	<path class="st1" d="M120.2,108h-7.7c0.1,0.9,0.4,1.7,1,2.2c0.6,0.5,1.3,0.8,2.2,0.8c0.7,0,1.3-0.2,1.7-0.5c0.5-0.3,0.8-0.8,1-1.3
		h1.7c-0.3,0.9-0.8,1.7-1.5,2.3c-0.8,0.6-1.7,0.9-2.9,0.9c-0.9,0-1.7-0.2-2.5-0.6c-0.7-0.4-1.3-1-1.7-1.7c-0.4-0.8-0.6-1.6-0.6-2.6
		s0.2-1.9,0.6-2.6c0.4-0.7,1-1.3,1.7-1.7c0.7-0.4,1.5-0.6,2.5-0.6c0.9,0,1.7,0.2,2.4,0.6c0.7,0.4,1.2,0.9,1.6,1.6
		c0.4,0.7,0.6,1.5,0.6,2.4C120.2,107.3,120.2,107.7,120.2,108z M118.2,105.1c-0.3-0.4-0.6-0.8-1.1-1c-0.5-0.2-1-0.3-1.5-0.3
		c-0.8,0-1.5,0.3-2.1,0.8c-0.6,0.5-0.9,1.2-1,2.1h6.1C118.6,106.1,118.4,105.6,118.2,105.1z"/>
	<path class="st1" d="M129.9,103.5c0.7,0.7,1.1,1.7,1.1,3.1v5.7h-1.6v-5.4c0-1-0.2-1.7-0.7-2.2c-0.5-0.5-1.1-0.8-2-0.8
		c-0.8,0-1.5,0.3-2,0.8c-0.5,0.5-0.7,1.3-0.7,2.3v5.3h-1.6v-9.6h1.6v1.4c0.3-0.5,0.7-0.9,1.3-1.1c0.5-0.3,1.1-0.4,1.8-0.4
		C128.2,102.4,129.1,102.8,129.9,103.5z"/>
	<path class="st1" d="M135.5,103.9v5.7c0,0.5,0.1,0.8,0.3,1c0.2,0.2,0.5,0.3,1,0.3h1.2v1.4h-1.4c-0.9,0-1.6-0.2-2-0.6
		c-0.4-0.4-0.7-1.1-0.7-2v-5.7h-1.2v-1.3h1.2v-2.4h1.6v2.4h2.5v1.3H135.5z"/>
	<path class="st1" d="M61.9,133c-0.6-0.3-1.1-0.7-1.5-1.2c-0.4-0.5-0.6-1.1-0.6-1.8h1.7c0.1,0.6,0.3,1.1,0.7,1.4s1,0.6,1.8,0.6
		c0.8,0,1.4-0.2,1.8-0.6c0.4-0.4,0.7-0.9,0.7-1.5c0-0.5-0.1-0.8-0.4-1.1c-0.3-0.3-0.6-0.5-1-0.7s-0.9-0.3-1.6-0.5
		c-0.8-0.2-1.5-0.4-1.9-0.6c-0.5-0.2-0.9-0.5-1.2-1c-0.3-0.5-0.5-1.1-0.5-1.8c0-0.7,0.2-1.3,0.5-1.8c0.3-0.5,0.8-0.9,1.4-1.2
		c0.6-0.3,1.3-0.4,2.1-0.4c1.1,0,2.1,0.3,2.8,0.9c0.7,0.6,1.1,1.3,1.2,2.3h-1.8c-0.1-0.5-0.3-0.9-0.7-1.2s-1-0.5-1.7-0.5
		c-0.7,0-1.2,0.2-1.6,0.5c-0.4,0.3-0.6,0.8-0.6,1.4c0,0.4,0.1,0.8,0.4,1.1c0.3,0.3,0.6,0.5,0.9,0.6c0.4,0.1,0.9,0.3,1.6,0.5
		c0.8,0.2,1.5,0.4,1.9,0.7s0.9,0.6,1.3,1c0.4,0.5,0.5,1.1,0.5,1.8c0,0.6-0.2,1.2-0.5,1.7c-0.3,0.5-0.8,1-1.4,1.3
		c-0.6,0.3-1.4,0.5-2.2,0.5C63.3,133.4,62.6,133.3,61.9,133z"/>
	<path class="st1" d="M70.5,125.9c0.4-0.7,0.9-1.3,1.6-1.7s1.5-0.6,2.3-0.6c0.8,0,1.6,0.2,2.2,0.5c0.6,0.4,1.1,0.8,1.4,1.4v-1.8h1.6
		v9.6h-1.6v-1.8c-0.3,0.6-0.8,1-1.4,1.4c-0.6,0.4-1.4,0.6-2.2,0.6c-0.9,0-1.6-0.2-2.3-0.6c-0.7-0.4-1.2-1-1.6-1.8
		c-0.4-0.8-0.6-1.6-0.6-2.6C69.9,127.5,70.1,126.6,70.5,125.9z M77.6,126.6c-0.3-0.5-0.7-1-1.2-1.2s-1-0.4-1.6-0.4s-1.1,0.1-1.6,0.4
		c-0.5,0.3-0.9,0.7-1.2,1.2c-0.3,0.5-0.4,1.2-0.4,1.9c0,0.7,0.1,1.4,0.4,1.9c0.3,0.5,0.7,1,1.2,1.2s1,0.4,1.6,0.4s1.1-0.1,1.6-0.4
		s0.9-0.7,1.2-1.2c0.3-0.5,0.4-1.2,0.4-1.9C78.1,127.7,77.9,127.1,77.6,126.6z"/>
	<path class="st1" d="M96,124c0.6,0.3,1,0.8,1.4,1.4c0.3,0.6,0.5,1.4,0.5,2.3v5.7h-1.6v-5.4c0-1-0.2-1.7-0.7-2.2
		c-0.5-0.5-1.1-0.8-1.9-0.8c-0.8,0-1.5,0.3-2,0.8c-0.5,0.5-0.7,1.3-0.7,2.3v5.3h-1.6v-5.4c0-1-0.2-1.7-0.7-2.2
		c-0.5-0.5-1.1-0.8-1.9-0.8c-0.8,0-1.5,0.3-2,0.8c-0.5,0.5-0.7,1.3-0.7,2.3v5.3h-1.6v-9.6H84v1.4c0.3-0.5,0.7-0.9,1.3-1.2
		s1.1-0.4,1.8-0.4c0.8,0,1.5,0.2,2.1,0.5s1.1,0.9,1.4,1.6c0.3-0.7,0.7-1.2,1.3-1.6s1.3-0.6,2.1-0.6C94.7,123.5,95.4,123.6,96,124z"
		/>
	<path class="st1" d="M103.5,124.1c0.6-0.4,1.4-0.6,2.2-0.6c0.9,0,1.6,0.2,2.3,0.6c0.7,0.4,1.2,1,1.6,1.7c0.4,0.7,0.6,1.6,0.6,2.6
		c0,1-0.2,1.8-0.6,2.6c-0.4,0.8-0.9,1.4-1.6,1.8c-0.7,0.4-1.5,0.6-2.3,0.6c-0.8,0-1.5-0.2-2.2-0.6c-0.6-0.4-1.1-0.8-1.4-1.4v6.3
		h-1.6v-14.2h1.6v1.8C102.4,124.9,102.9,124.4,103.5,124.1z M108.2,126.5c-0.3-0.5-0.7-0.9-1.2-1.2c-0.5-0.3-1-0.4-1.6-0.4
		c-0.6,0-1.1,0.1-1.6,0.4s-0.9,0.7-1.2,1.2c-0.3,0.5-0.4,1.2-0.4,1.9c0,0.7,0.1,1.4,0.4,1.9c0.3,0.5,0.7,1,1.2,1.2s1,0.4,1.6,0.4
		c0.6,0,1.1-0.1,1.6-0.4s0.9-0.7,1.2-1.2c0.3-0.5,0.4-1.2,0.4-1.9C108.6,127.7,108.5,127.1,108.2,126.5z"/>
	<path class="st1" d="M113.9,120.3v13h-1.6v-13H113.9z"/>
	<path class="st1" d="M125.4,129.1h-7.7c0.1,0.9,0.4,1.7,1,2.2c0.6,0.5,1.3,0.8,2.2,0.8c0.7,0,1.3-0.2,1.7-0.5
		c0.5-0.3,0.8-0.8,1-1.3h1.7c-0.3,0.9-0.8,1.7-1.5,2.3c-0.8,0.6-1.7,0.9-2.9,0.9c-0.9,0-1.7-0.2-2.5-0.6c-0.7-0.4-1.3-1-1.7-1.7
		c-0.4-0.8-0.6-1.6-0.6-2.6s0.2-1.9,0.6-2.6c0.4-0.7,1-1.3,1.7-1.7c0.7-0.4,1.5-0.6,2.5-0.6c0.9,0,1.7,0.2,2.4,0.6
		c0.7,0.4,1.2,0.9,1.6,1.6c0.4,0.7,0.6,1.5,0.6,2.4C125.4,128.4,125.4,128.7,125.4,129.1z M123.4,126.2c-0.3-0.4-0.6-0.8-1.1-1
		c-0.5-0.2-1-0.3-1.5-0.3c-0.8,0-1.5,0.3-2.1,0.8c-0.6,0.5-0.9,1.2-1,2.1h6.1C123.8,127.2,123.7,126.6,123.4,126.2z"/>
	<path class="st1" d="M49,148.2c-0.7,0.7-1.8,1-3.2,1h-2.4v5.1h-1.6v-12.2h4c1.4,0,2.4,0.3,3.2,1c0.7,0.7,1.1,1.5,1.1,2.6
		C50.1,146.7,49.7,147.6,49,148.2z M47.8,147.4c0.4-0.4,0.6-0.9,0.6-1.7c0-1.5-0.9-2.3-2.6-2.3h-2.4v4.5h2.4
		C46.7,147.9,47.4,147.7,47.8,147.4z"/>
	<path class="st1" d="M53.6,141.4v13H52v-13H53.6z"/>
	<path class="st1" d="M56.4,146.9c0.4-0.7,0.9-1.3,1.6-1.7s1.5-0.6,2.3-0.6c0.8,0,1.6,0.2,2.2,0.5c0.6,0.4,1.1,0.8,1.4,1.4v-1.8h1.6
		v9.6h-1.6v-1.8c-0.3,0.6-0.8,1-1.4,1.4c-0.6,0.4-1.4,0.6-2.2,0.6c-0.9,0-1.6-0.2-2.3-0.6c-0.7-0.4-1.2-1-1.6-1.8
		c-0.4-0.8-0.6-1.6-0.6-2.6C55.8,148.5,56,147.7,56.4,146.9z M63.5,147.6c-0.3-0.5-0.7-1-1.2-1.2s-1-0.4-1.6-0.4s-1.1,0.1-1.6,0.4
		c-0.5,0.3-0.9,0.7-1.2,1.2c-0.3,0.5-0.4,1.2-0.4,1.9c0,0.7,0.1,1.4,0.4,1.9c0.3,0.5,0.7,1,1.2,1.2s1,0.4,1.6,0.4s1.1-0.1,1.6-0.4
		s0.9-0.7,1.2-1.2c0.3-0.5,0.4-1.2,0.4-1.9C63.9,148.8,63.8,148.2,63.5,147.6z"/>
	<path class="st1" d="M68.2,146.9c0.4-0.7,1-1.3,1.7-1.7s1.5-0.6,2.4-0.6c1.2,0,2.2,0.3,2.9,0.9c0.8,0.6,1.3,1.4,1.5,2.4H75
		c-0.2-0.6-0.5-1-1-1.4c-0.5-0.3-1.1-0.5-1.8-0.5c-0.9,0-1.7,0.3-2.2,0.9c-0.6,0.6-0.8,1.5-0.8,2.7c0,1.2,0.3,2.1,0.8,2.7
		s1.3,0.9,2.2,0.9c0.7,0,1.3-0.2,1.8-0.5c0.5-0.3,0.8-0.8,1-1.4h1.7c-0.3,1-0.8,1.8-1.5,2.4c-0.8,0.6-1.7,0.9-2.9,0.9
		c-0.9,0-1.7-0.2-2.4-0.6c-0.7-0.4-1.3-1-1.7-1.7s-0.6-1.6-0.6-2.6C67.6,148.5,67.8,147.7,68.2,146.9z"/>
	<path class="st1" d="M87.6,150.2h-7.7c0.1,0.9,0.4,1.7,1,2.2c0.6,0.5,1.3,0.8,2.2,0.8c0.7,0,1.3-0.2,1.7-0.5c0.5-0.3,0.8-0.8,1-1.3
		h1.7c-0.3,0.9-0.8,1.7-1.5,2.3c-0.8,0.6-1.7,0.9-2.9,0.9c-0.9,0-1.7-0.2-2.4-0.6c-0.7-0.4-1.3-1-1.7-1.7s-0.6-1.6-0.6-2.6
		s0.2-1.9,0.6-2.6c0.4-0.7,1-1.3,1.7-1.7c0.7-0.4,1.5-0.6,2.5-0.6c0.9,0,1.7,0.2,2.4,0.6c0.7,0.4,1.2,0.9,1.6,1.6
		c0.4,0.7,0.6,1.5,0.6,2.4C87.7,149.5,87.7,149.8,87.6,150.2z M85.6,147.3c-0.3-0.4-0.6-0.8-1.1-1c-0.5-0.2-1-0.3-1.5-0.3
		c-0.8,0-1.5,0.3-2.1,0.8c-0.6,0.5-0.9,1.2-1,2.1H86C86,148.2,85.9,147.7,85.6,147.3z"/>
	<path class="st1" d="M96.5,145c0.6,0.3,1,0.8,1.4,1.4c0.3,0.6,0.5,1.4,0.5,2.3v5.7h-1.6v-5.4c0-1-0.2-1.7-0.7-2.2
		c-0.5-0.5-1.1-0.8-2-0.8c-0.8,0-1.5,0.3-2,0.8c-0.5,0.5-0.7,1.3-0.7,2.3v5.3h-1.6v-13h1.6v4.7c0.3-0.5,0.8-0.9,1.3-1.1
		c0.6-0.3,1.2-0.4,1.9-0.4C95.3,144.6,95.9,144.7,96.5,145z"/>
	<path class="st1" d="M102.8,153.9c-0.7-0.4-1.3-1-1.7-1.7s-0.6-1.6-0.6-2.6c0-1,0.2-1.9,0.6-2.6s1-1.3,1.7-1.7
		c0.7-0.4,1.6-0.6,2.5-0.6s1.7,0.2,2.5,0.6c0.7,0.4,1.3,1,1.7,1.7c0.4,0.8,0.6,1.6,0.6,2.6s-0.2,1.9-0.7,2.6s-1,1.3-1.8,1.7
		c-0.7,0.4-1.6,0.6-2.5,0.6C104.3,154.5,103.5,154.3,102.8,153.9z M106.8,152.7c0.5-0.3,0.9-0.7,1.2-1.2c0.3-0.5,0.5-1.2,0.5-2
		c0-0.8-0.2-1.4-0.5-2c-0.3-0.5-0.7-0.9-1.2-1.2c-0.5-0.3-1-0.4-1.6-0.4c-0.6,0-1.1,0.1-1.6,0.4c-0.5,0.3-0.9,0.7-1.2,1.2
		c-0.3,0.5-0.4,1.2-0.4,2c0,0.8,0.1,1.4,0.4,2c0.3,0.5,0.7,0.9,1.1,1.2c0.5,0.3,1,0.4,1.6,0.4S106.3,153,106.8,152.7z"/>
	<path class="st1" d="M113.9,141.4v13h-1.6v-13H113.9z"/>
	<path class="st1" d="M116.6,146.9c0.4-0.7,0.9-1.3,1.6-1.7s1.5-0.6,2.3-0.6c0.7,0,1.4,0.2,2.1,0.5c0.6,0.3,1.1,0.8,1.5,1.4v-5.1
		h1.6v13h-1.6v-1.8c-0.3,0.6-0.8,1-1.4,1.4c-0.6,0.4-1.3,0.6-2.2,0.6c-0.9,0-1.6-0.2-2.3-0.6c-0.7-0.4-1.2-1-1.6-1.8
		c-0.4-0.8-0.6-1.6-0.6-2.6C116,148.5,116.2,147.7,116.6,146.9z M123.7,147.6c-0.3-0.5-0.7-1-1.2-1.2s-1-0.4-1.6-0.4
		c-0.6,0-1.1,0.1-1.6,0.4c-0.5,0.3-0.9,0.7-1.2,1.2c-0.3,0.5-0.4,1.2-0.4,1.9c0,0.7,0.1,1.4,0.4,1.9c0.3,0.5,0.7,1,1.2,1.2
		s1,0.4,1.6,0.4c0.6,0,1.1-0.1,1.6-0.4s0.9-0.7,1.2-1.2c0.3-0.5,0.4-1.2,0.4-1.9C124.1,148.8,124,148.2,123.7,147.6z"/>
	<path class="st1" d="M137.2,150.2h-7.7c0.1,0.9,0.4,1.7,1,2.2c0.6,0.5,1.3,0.8,2.2,0.8c0.7,0,1.3-0.2,1.7-0.5
		c0.5-0.3,0.8-0.8,1-1.3h1.7c-0.3,0.9-0.8,1.7-1.5,2.3c-0.8,0.6-1.7,0.9-2.9,0.9c-0.9,0-1.7-0.2-2.4-0.6c-0.7-0.4-1.3-1-1.7-1.7
		s-0.6-1.6-0.6-2.6s0.2-1.9,0.6-2.6c0.4-0.7,1-1.3,1.7-1.7c0.7-0.4,1.5-0.6,2.5-0.6c0.9,0,1.7,0.2,2.4,0.6c0.7,0.4,1.2,0.9,1.6,1.6
		c0.4,0.7,0.6,1.5,0.6,2.4C137.2,149.5,137.2,149.8,137.2,150.2z M135.2,147.3c-0.3-0.4-0.6-0.8-1.1-1s-1-0.3-1.5-0.3
		c-0.8,0-1.5,0.3-2.1,0.8c-0.6,0.5-0.9,1.2-1,2.1h6.1C135.6,148.2,135.4,147.7,135.2,147.3z"/>
	<path class="st1" d="M142.1,145c0.5-0.3,1.2-0.5,1.9-0.5v1.7h-0.4c-1.8,0-2.7,1-2.7,2.9v5.2h-1.6v-9.6h1.6v1.6
		C141.2,145.8,141.6,145.3,142.1,145z"/>
</g>
</svg>
