<?xml version="1.0" encoding="utf-8"?>
<!-- Generator: Adobe Illustrator 27.9.0, SVG Export Plug-In . SVG Version: 6.00 Build 0)  -->
<svg version="1.1" id="Layer_1" xmlns="http://www.w3.org/2000/svg" xmlns:xlink="http://www.w3.org/1999/xlink" x="0px" y="0px"
	 viewBox="0 0 440.5 607.4" style="enable-background:new 0 0 440.5 607.4;" xml:space="preserve">
<style type="text/css">
	.st0{clip-path:url(#SVGID_00000011718780605371795440000015013212840703694238_);}
	.st1{fill:#27AAE1;}
	.st2{clip-path:url(#SVGID_00000002351198148544897880000006364788421205463218_);}
</style>
<g id="Group_122">
	<g>
		<defs>
			<rect id="SVGID_1_" x="30.6" y="29.2" width="388.8" height="241.6"/>
		</defs>
		<clipPath id="SVGID_00000006685846661616489350000013960283182513356417_">
			<use xlink:href="#SVGID_1_"  style="overflow:visible;"/>
		</clipPath>
		<g id="Group_121" style="clip-path:url(#SVGID_00000006685846661616489350000013960283182513356417_);">
			<path id="Path_1488" class="st1" d="M238.5,89.7l-24.3,39.6l24.6-38C238.6,90.8,238.6,90.3,238.5,89.7"/>
			<path id="Path_1489" class="st1" d="M206.5,138.1l31.5-51.3l-0.4-3c-1.1-0.2-3.4-0.5-5.3-0.6l-24.8,45.4
				C207.2,131.7,206.9,134.9,206.5,138.1"/>
			<path id="Path_1490" class="st1" d="M136.2,78c2-0.7,3.8-2.5,5-5.2c1.5-3.8,2-8,1.3-12.1c-0.4-2.9-1.3-5.7-2.7-8.3
				c-0.9,0.4-1.7,0.8-2.6,1.1C140.5,60.2,142.7,69.5,136.2,78"/>
			<path id="Path_1491" class="st1" d="M134.7,49.2c0.9-0.2,1.6-0.5,2.2-0.7c-0.3-0.3-0.6-0.5-0.9-0.8c-0.6,0.2-1.3,0.3-2,0.5
				C134.3,48.5,134.5,48.8,134.7,49.2"/>
			<path id="Path_1492" class="st1" d="M133.8,46.3c-0.5-0.2-0.9-0.3-1.4-0.4c0.1,0.2,0.3,0.4,0.5,0.6
				C133.2,46.4,133.5,46.4,133.8,46.3"/>
			<path id="Path_1493" class="st1" d="M136.3,51.8c0.9-0.3,1.7-0.7,2.5-1.1c-0.2-0.2-0.4-0.5-0.5-0.7c-0.7,0.3-1.6,0.6-2.5,0.9
				C136,51.2,136.1,51.5,136.3,51.8"/>
			<path id="Path_1494" class="st1" d="M149.1,82.3l-5.1,0.7l5.3,52.1l-10.4,5.1l14.9-2.1L149.1,82.3z"/>
			<path id="Path_1495" class="st1" d="M165.3,233.7L153.9,140l-4.6,0.7l14.5,93.3L165.3,233.7z"/>
			<path id="Path_1496" class="st1" d="M179,238.9l-12.7-3.4l-0.9,0.1l8.8,6.5L179,238.9z"/>
			<path id="Path_1497" class="st1" d="M142.1,247.9l5.5,2.1l2.6-8.4l-4.1,7.6L142.1,247.9z"/>
			<path id="Path_1498" class="st1" d="M145.2,246.8l4.8-9l-1.8,0.3l-6.9,7.4L145.2,246.8z"/>
			<path id="Path_1499" class="st1" d="M150.7,235.8l-8.1-94.1l-4.8,0.7l11.3,93.7L150.7,235.8z"/>
			<path id="Path_1500" class="st1" d="M166.3,105l-14.6-13.8l0.5,5.5l11.3,9.4L166.3,105L166.3,105z"/>
			<path id="Path_1501" class="st1" d="M164.5,107.9l9.7,30.3l0.8-0.6l-8.2-30.6L164.5,107.9z"/>
			<path id="Path_1502" d="M237.9,64.7l-0.1-4.9c-0.2,0.1-0.3,0.2-0.5,0.3l-0.6-1.2c-0.2,0.1-0.5,0.1-0.9,0.2l0.1,5.7
				c0.1,2.8-1,5.5-2.9,7.5c-2,2.1-4.7,3.3-7.6,3.3l-4.2,0.1c-5.9,0.1-10.8-4.6-10.9-10.5l-0.1-5.2c-0.4-0.1-0.9-0.2-1.3-0.3l0.3-0.9
				l0.3-0.9c0,0,0.3,0.1,0.7,0.2l-0.1-9.1c-0.1-5.9,4.6-10.8,10.6-10.9l4.2-0.1h0.2c5.9,0,10.6,4.7,10.7,10.5l0.1,8.6
				c0.5-0.1,0.8-0.2,0.8-0.2L237,58c0.3-0.2,0.6-0.4,0.8-0.6l0-2.8c-0.4-0.6-0.9-1.1-1.5-1.5l1.1-1.6c0.1,0,0.2,0.1,0.4,0.3l0-3.4
				c-0.1-7-5.9-12.6-12.9-12.5c0,0,0,0,0,0l-4.2,0.1c-7,0.1-12.6,5.9-12.5,12.9l0.2,16.3c0.1,6,4.4,11.1,10.2,12.2l-0.1-0.7l1.9-0.2
				l0.1,1.2c0.2,0,0.3,0,0.5,0h0.2l4.2-0.1c0.5,0,1.1-0.1,1.6-0.1v-1.2h1.9V77c2.1-0.6,3.9-1.8,5.4-3.4
				C236.8,71.2,238,68,237.9,64.7"/>
			<path id="Path_1503" d="M236.3,53.1c0.6,0.4,1.1,0.9,1.5,1.5c0.4,0.5,0.6,1,0.7,1.7c-0.1,0.4-0.3,0.8-0.6,1.1
				c-0.3,0.2-0.5,0.4-0.8,0.6l0.2,0.7c0,0-0.2,0.1-0.4,0.1l0.6,1.2c0.2-0.1,0.3-0.2,0.5-0.3c1.4-0.6,2.3-1.9,2.5-3.4
				c0.2-2.1-1.8-3.9-2.6-4.6c-0.2-0.1-0.3-0.2-0.4-0.3L236.3,53.1z"/>
			<path id="Path_1504" d="M237,58l-0.3-1.2c0,0-0.3,0.1-0.8,0.2c-2.9,0.7-6,0.5-8.8-0.4c-4-1.5-6.2-0.7-8.7,0.3
				c-0.7,0.3-1.5,0.5-2.3,0.8c-1.9,0.5-3.9,0.6-5.8,0.3c-0.4-0.1-0.7-0.2-0.7-0.2l-0.3,0.9l-0.3,0.9c0.4,0.1,0.9,0.2,1.3,0.3
				c0.8,0.1,1.5,0.2,2.3,0.2c1.3,0,2.7-0.2,4-0.5c0.9-0.3,1.7-0.6,2.5-0.8c2.3-0.9,4-1.5,7.3-0.3c3.1,1,6.4,1.2,9.5,0.5
				c0.4-0.1,0.7-0.1,0.9-0.2c0.2-0.1,0.4-0.1,0.4-0.1L237,58z"/>
			<path id="Path_1505" d="M208.2,120.5c1.2-14.3,1.8-27.6,1.1-37c1.7-0.1,5.5-0.4,10-0.5l-0.2-2c-4.4,0.2-8.2,0.4-9.9,0.5l-0.4,1.9
				c-0.1,0-0.2-0.1-0.4-0.1l0.7,0.5c0,0-0.6,0.8-1.6,2.2c0.2,5.2,0.1,11.5-0.2,18.3l0.1-0.1l1.8,0.8l-2.1,4.7
				c-0.4,5.7-0.8,11.7-1.4,17.8l0.2-1.7C206.3,124.5,207.2,122.7,208.2,120.5"/>
			<path id="Path_1506" d="M221,81L221,81l6.1,0.2V81C225,80.9,223,81,221,81"/>
			<path id="Path_1507" d="M249.5,196.3c-3.4,1.6-23.3,9.7-50.8,0.7c0.7-4.7,4.4-28.6,7.3-54.4l-2.4,3.9l0.1-1.2
				c-3.1,27.4-7,51.8-7.1,52.3l-0.1,0.8l0.8,0.3c3.8,1.3,7.7,2.3,11.6,3l-0.1-0.7l1.9-0.3l0.2,1.3c2.8,0.5,5.6,0.8,8.4,0.9l0-0.7
				l1.9,0.1l0,0.8c0.9,0,1.8,0.1,2.7,0.1c1.8,0,3.6-0.1,5.2-0.2l-0.1-0.8l1.9-0.2l0.1,0.9c2.7-0.3,5.3-0.7,7.9-1.2l0.1-1.2l1.9,0.1
				l0,0.6c3.4-0.8,6.7-1.9,9.9-3.4l0.5-0.3l0-0.6c0.2-18.5-4.5-58.8-8.1-86.2l-2.8-6.1C244.1,131.4,249.7,176.1,249.5,196.3"/>
			<path id="Path_1508" d="M232.3,81.1c-1-0.1-2.1-0.1-3.2-0.1v2h0.1c0.4-0.7,0.7-1.1,0.8-1.3l0.3-0.5l0.5,0c0.2,0,0.7,0,1.2,0v0
				C232,81.2,232.1,81.1,232.3,81.1"/>
			<path id="Path_1509" d="M239.2,82.2L239.2,82.2L239.2,82.2l0.3,0.2l-0.1-0.4l-0.7-0.1c-0.5-0.1-1-0.2-1.5-0.3l-0.2,0.1
				C237.8,81.7,238.5,81.9,239.2,82.2"/>
			<path id="Path_1510" d="M238.5,89.7c0.1,0.5,0.1,1.1,0.2,1.6c0.5,3.5,1.1,8,1.8,13.2l1.8-0.8l0.1,0.3c-1.1-7.8-1.9-14.1-2.5-17.8
				l0,0l0.1,0.9L238.5,89.7z"/>
			<path id="Path_1511" d="M206.5,138.2L206.5,138.2c0.4-3.3,0.7-6.4,1-9.6c0.1-0.7,0.1-1.4,0.2-2.2c0,0,0,0,0,0L206.5,138.2z"/>
			<path id="Path_1512" d="M207.5,82.8l0.9,0.7c0.1,0,0.2,0.1,0.4,0.1l0.4-1.9v0c-7.4-1.5-10.1-6.2-10.7-7.6
				c1.7-3.3,3.3-13.4,5.2-26.2c0.5-3.4,1-6.7,1.4-9.1c0.3-1.7,1.2-3.2,2.7-4.2c4.9-3.4,14.6-1.6,14.7-1.6l0.2,0l0.2-0.1
				c3.2-1,13-3,15.3,0.1c1.8,2.4,4.2,16.7,5.9,27.1c1.2,7.5,2.1,12.6,2.8,14.9c-2.5,1.4-10.6,5.7-14.6,6.3c-0.1,0-0.3,0.1-0.4,0.1v0
				c1.4,0.1,3.6,0.2,5.2,0.5l0.2-0.1c3.9-1.6,7.7-3.5,11.3-5.5l0.8-0.5l-0.4-0.8c-0.6-1.3-1.7-8.1-2.9-15.2
				c-2.3-14.3-4.3-25.4-6.3-28c-3.5-4.5-15-1.4-17.2-0.8c-1.6-0.3-10.8-1.6-16,2c-1.9,1.3-3.1,3.3-3.5,5.5c-0.4,2.5-0.9,5.7-1.4,9.2
				c-1.5,9.8-3.5,23.3-5.2,25.8l-0.3,0.4l0.2,0.5c0.1,0.3,2.4,6.6,10.8,8.9L207.5,82.8"/>
			<path id="Path_1513" d="M229,81v-4.8h-1.9v5l-6.1-0.1l0-0.1l-0.4-3.3l-0.1-1.2l-1.9,0.2l0.1,0.7l0.5,3.6l0.2,2v0l9.7,0.1
				c0,0,0-0.1,0.1-0.1V81z"/>
			<path id="Path_1514" d="M206,142.6l8.1-13.2l24.3-39.6l1.6-2.6l-0.1-0.9c-1.4-1.7-2.2-2.8-2.2-2.8l1.5-1.2l0,0
				c-0.7-0.3-1.4-0.5-2.1-0.5c-1.6-0.2-3.8-0.4-5.2-0.5c-0.5,0-1,0-1.2,0l-0.5,0l-0.3,0.5c-0.1,0.1-0.3,0.6-0.8,1.3l-0.1,0.1
				l-0.1,0.1c-3.3,5.7-15.1,25.9-20.8,37.4c-1,2.1-1.9,4-2.4,5.3l-0.2,1.7l-1.8,17.6l-0.1,1.2L206,142.6z M207.7,126.4
				c3.6-9.4,21.1-39.2,23.6-43.3c0.3,0,0.7,0,1,0c1.8,0.1,3.6,0.3,5.3,0.6l0.4,3l-31.5,51.3l-0.1,0.1L207.7,126.4
				C207.7,126.4,207.7,126.4,207.7,126.4"/>
			<path id="Path_1515" d="M264.4,141.5l0.2,0.3l0.8-1.7c-0.6-0.5-0.9-0.8-0.9-0.8l1.3-1.4c0,0,0.2,0.2,0.4,0.4l1.9-4.1l-0.9-0.7
				l1.1-1.6l0.6,0.4l2.7-5.9l-0.3-0.4c-11-17.4-30-41.3-31.9-43.7c-0.1-0.1-0.2-0.2-0.2-0.2l0,0l-1.5,1.2c0,0,0.9,1.1,2.2,2.8l0,0
				c5.6,7,20.2,25.9,29.4,40.4L261,145l-18.6-41l-0.1-0.3l-1.8,0.8l0,0l0,0l2.8,6.1l17.7,39l2.6-5.7l-0.9-1.5L264.4,141.5z"/>
			<path id="Path_1516" d="M270.4,135.3l0.3-1.6l-1.8-1.3l-0.6-0.4l-1.1,1.6l0.9,0.7l7,5.1l2,1.2l-1.1,4.1l0.3,2.4
				c-0.2-0.2-0.5-0.4-0.8-0.6l-0.6,2.1c1.2,1,1.9,1.7,2,1.7l1.9,1.8l-1.6-13.6l-1.3-0.9l-0.7,1.8L270.4,135.3z"/>
			<path id="Path_1517" d="M265.8,137.9l-1.3,1.4c0,0,0.4,0.3,0.9,0.8c0.5,0.5,1.2,1.1,2,1.8l0.7-2c-0.8-0.7-1.5-1.3-1.9-1.7
				C266,138.1,265.8,137.9,265.8,137.9"/>
			<path id="Path_1518" d="M268.2,145.9l-1,0.3l-2.5-4.3l-0.2-0.3l-1.7,1l0.9,1.5l2.6,4.4l4.2-1.1l0-0.2l-2.3-2
				C268.1,145.4,268.1,145.7,268.2,145.9"/>
			<path id="Path_1519" d="M239.2,200.4l-0.1,1.2l-1.6,24l-3.5,0.1l-2.8-22.9l-0.1-0.9l-1.9,0.2l0.1,0.8l2.9,23.6l0.1-0.2l1.8,0.7
				l-0.2,0.6l4.6-0.1h0l0.1-1.9l1,0.1l1.6-24.5l0-0.6L239.2,200.4z"/>
			<path id="Path_1520" d="M219.4,202.2l0,0.7l-0.8,22.9h-4.3L211,202l-0.2-1.3l-1.9,0.3l0.1,0.7l3.5,25.1l8-1v1.1l0.8-23.8l0-0.8
				L219.4,202.2z"/>
			<path id="Path_1521" d="M212.4,226.8l-16.2,2.1l10,12l14.2-11v-4.1L212.4,226.8z M218.5,228.9l-11.9,9.3l-6.5-7.9l18.5-2.4V228.9
				z"/>
			<path id="Path_1522" d="M238.3,227.5L238.3,227.5l18,1.1l-3.9,9l-19.7-7.1l1.1-2.8l0.2-0.6l-1.8-0.7l-0.1,0.2l-1.9,5.1l23.2,8.4
				l5.8-13.2l-19.8-1.2l-1-0.1L238.3,227.5z"/>
			<path id="Path_1523" d="M207.4,104.3l-0.1,0.1l-19,41.8l-8.9-18.1c9.1-15.3,23.4-35.4,28.1-42c1-1.3,1.5-2.1,1.6-2.2l-0.7-0.5
				l-0.9-0.7l-0.3,0.4c-2.3,3.2-19.4,27-29.7,44.4l-0.3,0.5l2.9,5.8l0.7-0.5l1.2,1.5l-1,0.8l2,4c0.4-0.3,0.6-0.5,0.6-0.5l1.3,1.5
				c0,0-0.4,0.3-1,0.9l0.9,1.8l0.3-0.5l1.7,0.9l-1,1.7l2.7,5.4l18.6-41l2.1-4.7L207.4,104.3z"/>
			<path id="Path_1524" d="M170.9,153.2l1.8-1.5c0,0,0.3-0.2,0.7-0.6l-1.6-6.9L170.9,153.2z"/>
			<path id="Path_1525" d="M173.6,143.6l0.1,0.4l0.1-0.5L173.6,143.6z"/>
			<path id="Path_1526" d="M174,140.9l7-5.3l1-0.8l-1.2-1.5l-0.7,0.5l-2.2,1.7l0.4,2.1l-5,3.8l-0.6-1.9l-0.5,0.4l-0.2,2.4l2.1-1.2
				L174,140.9z"/>
			<path id="Path_1527" d="M180.4,142.6l1.5,0.2l0,0.3c0.8-0.7,1.4-1.3,1.9-1.7c0.6-0.5,1-0.9,1-0.9l-1.3-1.5c0,0-0.2,0.2-0.6,0.5
				c-0.6,0.5-1.6,1.4-2.7,2.4L180.4,142.6z"/>
			<path id="Path_1528" d="M185,142.6l-0.3,0.5l-2.3,4.2l-1-0.2l0.1-0.5l-2.2,1.7l0,0.3l4.2,0.9l2.3-4.3l1-1.7L185,142.6z"/>
			<path id="Path_1529" d="M181.9,142.8l-1.5-0.2l1.1,3.5l0.4-3L181.9,142.8z"/>
			<path id="Path_1530" d="M133,78.8l0.2,1.4c1.6,0.2,3.2-0.1,4.6-0.8l-0.2-1.5l1.9-0.3l0.1,0.5c1.5-1.3,2.6-2.9,3.4-4.7
				c1.7-4.2,2.2-8.7,1.5-13.1c-0.5-4.5-2.3-8.7-5.1-12.2c-0.4-0.5-0.9-1-1.4-1.5l0.1,0.4c-0.1,0-0.9,0.3-2,0.6
				c0.3,0.2,0.6,0.5,0.9,0.8c0.6-0.2,1.3-0.5,1.9-0.8l1.2,1.5c-0.5,0.4-1.1,0.6-1.7,0.9c0.2,0.2,0.4,0.5,0.5,0.7
				c0.8-0.4,1.3-0.7,1.3-0.7l1,1.7c-0.1,0-0.6,0.3-1.3,0.7c1.4,2.6,2.3,5.4,2.7,8.3c0.7,4.1,0.2,8.2-1.3,12.1
				c-1.2,2.7-2.9,4.5-5,5.2c-0.4,0.1-0.7,0.2-1.1,0.3c-2.5,0.4-5.1-0.9-7.4-3.6c-2.5-3.2-4.2-7.1-4.6-11.2c-0.4-2.8-0.3-5.7,0.2-8.5
				c-0.2,0-0.4-0.1-0.5-0.1l0.4-1.9c0.2,0,0.4,0.1,0.6,0.1c0.1-0.3,0.2-0.6,0.3-0.9c-0.3,0-0.6-0.1-0.9-0.1l0.3-1.9
				c0.5,0.1,1,0.1,1.5,0.2c0.2-0.4,0.4-0.7,0.7-1.1c-0.4,0-0.8-0.1-1.1-0.2l0.4-1.9c0.8,0.2,1.7,0.2,2.5,0.2
				c0.9-0.7,1.9-1.2,3.1-1.4l0,0c0.3,0,0.6-0.1,0.8-0.1c0.3,0,0.7,0,1,0.1c0.5,0.1,1,0.2,1.4,0.4c1.1-0.3,2.1-0.5,2.7-0.7
				c-1.8-1.3-4-1.9-6.2-1.6c-3.2,0.5-5.9,2.8-7.6,6.7c-1.7,4.2-2.2,8.7-1.5,13.1c0.5,4.5,2.3,8.7,5.1,12.2c1.3,1.6,3,2.9,4.9,3.8
				l-0.1-0.6L133,78.8z"/>
			<path id="Path_1531" d="M133.8,46.3c-0.3,0.1-0.6,0.1-0.9,0.2c-1.8,0.4-3.6,0.7-5.4,0.7c-0.8,0-1.7,0-2.5-0.2l-0.4,1.9
				c0.4,0.1,0.8,0.1,1.1,0.2c0.4,0,0.9,0.1,1.3,0.1c2.4-0.1,4.8-0.4,7.1-1c0.8-0.2,1.4-0.4,2-0.5c1.1-0.3,1.9-0.6,2-0.6l-0.1-0.4
				l-0.5-1.5c0,0-0.4,0.1-1,0.3C135.8,45.8,134.9,46,133.8,46.3"/>
			<path id="Path_1532" d="M125,50.2c-0.5,0-1-0.1-1.5-0.2l-0.3,1.9c0.3,0,0.6,0.1,0.9,0.1c0.8,0.1,1.6,0.1,2.5,0.1
				c3.1,0,6.2-0.5,9.2-1.4c1-0.3,1.9-0.6,2.5-0.9c0.6-0.2,1.2-0.5,1.7-0.9l-1.2-1.5c-0.6,0.3-1.2,0.6-1.9,0.8
				c-0.6,0.2-1.4,0.5-2.2,0.7C131.5,50.1,128.3,50.4,125,50.2"/>
			<path id="Path_1533" d="M123.8,53c-0.2,0-0.4-0.1-0.6-0.1l-0.4,1.9c0.2,0,0.4,0.1,0.5,0.1c1.4,0.3,2.9,0.4,4.3,0.4
				c3.3,0,6.5-0.6,9.6-1.8c1.1-0.4,2-0.8,2.6-1.1c0.8-0.4,1.3-0.7,1.3-0.7l-1-1.7c0,0-0.5,0.3-1.3,0.7c-0.6,0.3-1.5,0.7-2.5,1.1
				C132.3,53.3,128,53.7,123.8,53"/>
			<path id="Path_1534" d="M140.3,83.6L140.3,83.6l-8.5,1.2l0,0.1L140.3,83.6z"/>
			<path id="Path_1535" d="M133.2,80.2l-0.2-1.4l-1.9,0.3l0.1,0.6l0.4,3.1l1.9-0.3L133.2,80.2z"/>
			<path id="Path_1536" d="M137.6,78l0.2,1.5l0.3,2.4l1.9-0.3l-0.5-3.3l-0.1-0.5L137.6,78z"/>
			<path id="Path_1537" d="M150.7,98l1.3-1.5l0.3,0.2l-0.5-5.5l-0.7-8l-1.3-1.4l1.1-1l-0.1-0.8l-10.8,1.5l-1.9,0.3l-4.6,0.7
				l-1.9,0.3L120,84.5l0.2,0.8l0.1-0.2l1.9,0.5l-1.1,4l2.7,14l0-0.1l1.9,0.5l-1,4.2l6.6,34.1v0l1.9-0.3l0.1,1l4.6-0.6l4.8-0.7
				l-0.1-1.1l1.9-0.3l0.2,1.1l4.7-0.7l4.6-0.7l-0.1-1l1.9-0.2v0l-3.3-39.3L150.7,98z M138.8,140.2l-5.9,0.8l-10.6-54.9l9.6-1.4
				l8.5-1.2l3.6-0.5l5.1-0.7l4.6,55.8L138.8,140.2z"/>
			<path id="Path_1538" d="M178.2,137.6l-0.4-2.1l-5.4-31.8l-21.2-23.1l-0.4,0.3l-1.1,1l1.3,1.4l18.7,20.5l1.3-0.5l0.7,1.8l-1.1,0.4
				l5.4,31.3l-1.1,0.8l-0.8,0.6l-9.7-30.3l-0.9,0.3l-0.7-1.8l0.5-0.2l-11.3-9.4l-0.3-0.2l-1.3,1.5l1.8,1.5l10,8.4l10.2,31.6l0.6,1.9
				L178.2,137.6z"/>
			<path id="Path_1539" d="M163.5,106.2l-0.5,0.2l0.7,1.8l0.9-0.3l2.3-0.9l3.9-1.5l1.1-0.4l-0.7-1.8l-1.3,0.5l-3.5,1.4L163.5,106.2z
				"/>
			<path id="Path_1540" d="M153.8,139l0.1,1l11.4,93.7l-1.5,0.2l-1.4,0.2l-17.9-92.8l-0.2-1.1l-1.9,0.3l0.1,1.1l8.1,94.1l-1.6,0.2
				l-1.9,0.3l-13.9-93.3l-0.1-1l-1.9,0.3v0l14.1,94.6l0.5-0.3l1.1,1.6l-0.2,0.1l1.4-0.2l1.8-0.3l0.9-1.7l1.7,0.9l-0.2,0.4l0.4-0.1
				L146,159l14.9,77.3l0.5-0.1l-0.3-0.3l1.2-1.5l1.8,1.4l1.4-0.2l0.9-0.1l-0.2-0.1l0.5-1.9l0.6,0.2l-11.5-95v0L153.8,139z"/>
			<path id="Path_1541" d="M166.1,235.5l0.2,0.1l12.7,3.4l-4.8,3.2L173,243l-9-7.1l-1.8-1.4l-1.2,1.5l0.3,0.3l11.5,9.2l10.6-7.3
				l-16.3-4.4l-0.6-0.2L166.1,235.5z"/>
			<path id="Path_1542" d="M150.9,236.1l-0.9,1.7l-4.8,9l-4-1.3l-3.1-1l8.7-6.2l0.2-0.1l-1.1-1.6l-0.5,0.3l-11.5,8.3l8.3,2.7l4,1.3
				l4.1-7.6l2.1-4l0.2-0.4L150.9,236.1z"/>
			<path id="Path_1543" d="M181.6,146.5l-0.1-0.4l-1.1-3.5l-0.2-0.6l-1.1-3.8l-5.1,2.9l-2.1,1.2l-0.5,0.3l0.4,1.6l1.6,6.9l0.4,1.5
				l5.5-4.3l2.2-1.7L181.6,146.5z M173.7,144l-0.1-0.4l0.2-0.1l4.2-2.4l1.4,4.6l-4.4,3.4L173.7,144z"/>
			<path id="Path_1544" d="M123.7,103.5L123.7,103.5l-2.6,10.9l0.9,0.2l-0.4,1.9l-0.9-0.2l-5,31.4l-2-1.1l0.4-31.8l-1.2-0.2l0.4-1.9
				l1,0.2l6.6-23.4l1.1-4l-1.9-0.5l-0.1,0.2l-7.9,28.1l-0.4,33.7l5.7,2.2l5.3-33.6l1.8-7.6l1-4.2L123.7,103.5z"/>
			<path id="Path_1545" d="M113.3,112.7l-0.4,1.9l1.2,0.2l6.6,1.4l0.9,0.2l0.4-1.9l-0.9-0.2l-6.7-1.4L113.3,112.7z"/>
			<path id="Path_1546" d="M117.4,155.6c0.5,0.1,1,0.3,1.4,0.4l0.3-3.9l-8.3-3.2l-0.7,4.5c0,0,0.1,0,0.1,0l-0.1,0.3l-0.1,0.4l0.3,0
				l0.4,3.5l7.6,4.2l0.3-3.9c-0.5-0.1-1.1-0.3-1.8-0.5L117.4,155.6z M111.8,155.9l0.7-4.7l4.6,1.7l-0.4,5.7L111.8,155.9z"/>
			<path id="Path_1547" d="M313.5,77.4l-0.3,1.5c0.7,0.4,1.5,0.7,2.3,0.8c0.5,0.1,1,0.1,1.4,0.1c0.3,0,0.5,0,0.8,0l0.2-1.3l1.9,0.4
				l-0.1,0.5c1.9-0.7,3.7-2,5.1-3.5c2.9-3.4,4.9-7.5,5.6-12c1.8-9.9-1.9-19-8.3-20.2s-13.1,5.9-14.9,15.9
				c-1.4,7.6,0.4,14.6,4.2,18.1l0.1-0.6L313.5,77.4z M309.3,59.9c1.6-8.9,7.3-15.3,12.7-14.3s8.3,9,6.7,17.9
				c-0.7,4.1-2.4,7.9-5.1,11c-2.4,2.6-5.1,3.8-7.6,3.3C310.6,76.8,307.6,68.8,309.3,59.9"/>
			<path id="Path_1548" d="M318.9,84.4l-4.7-0.9L318.9,84.4L318.9,84.4z"/>
			<path id="Path_1549" d="M312.8,81.3l0.5-2.4l0.3-1.5l-1.9-0.4l-0.1,0.6l-0.7,3.4l3.8,0.7L312.8,81.3z"/>
			<path id="Path_1550" d="M318.1,78.5l-0.2,1.3l-0.4,2.4l1.9,0.4l0.6-3.2l0.1-0.5L318.1,78.5z"/>
			<path id="Path_1551" d="M326.4,103.5L326.4,103.5l3.3-13.8l-0.9-4l1.9-0.4l0.1,0.2l0.2-0.8l-11.6-2.2l-1.9-0.4l-2.7-0.5l-3.8-0.7
				l-10.6-2l-0.1,0.8l1,1l-1.3,1.3l-1.7,13.4l0.3-0.2l1.2,1.5l-1.8,1.4l-4.9,39.1v0l1.9,0.3l-0.2,1l9.2,1.7l0.2-0.9l1.9,0.3l-0.1,1
				l9.2,1.7l0.2-1l1.9,0.4v0l8.1-33.8l-0.8-4.2L326.4,103.5z M315.6,140.6l-20.6-3.9l7-55.5l12.3,2.3l4.7,0.9l9.6,1.8L315.6,140.6z"
				/>
			<path id="Path_1552" d="M298.4,95.3l-0.3,0.2l-11.6,9l0.5,0.2l-0.8,1.8l-0.8-0.4L274.3,136l-1.8-1.5l6.7-31.1l-1.1-0.5l0.8-1.8
				l1.3,0.6l19.6-19.6l1.3-1.3l-1-1l-0.3-0.3l-22.1,22.1l-7,32.1l-0.3,1.6l4.8,4l0.7-1.8l11.6-31.2l10.3-8l1.8-1.4L298.4,95.3z"/>
			<path id="Path_1553" d="M279,101.2l-0.8,1.8l1.1,0.5l6.2,2.7l0.8,0.4l0.8-1.8l-0.5-0.2l-6.3-2.8L279,101.2z"/>
			<path id="Path_1554" d="M315.3,141.5l-0.2,1l-17.9,92.7l-3.4-0.6l12-93.8l0.1-1l-1.9-0.3l-0.2,0.9l-21.8,91.9l-2.8-0.5l15.4-93.1
				l0.2-1l-1.9-0.3v0l-15.6,94.4l0.6-0.1l0.4,1.9l-0.2,0l2.3,0.4l1.8-1.3l1.2,1.6l-0.3,0.2l0.5,0.1l18.2-76.6l-10,78.1l0.4,0.1
				l-0.2-0.5l1.8-0.8l0.8,1.7l3.2,0.6l-0.2-0.1l1.2-1.5l0.5,0.4l18.1-94v0L315.3,141.5z"/>
			<path id="Path_1555" d="M282.3,232.7l-1.8,1.3l-9.2,6.7l-5.8-4.3l12.7-2.9l0.2,0l-0.4-1.9l-0.6,0.1l-16.5,3.7l10.4,7.6l11.8-8.7
				l0.3-0.2L282.3,232.7z"/>
			<path id="Path_1556" d="M297.5,237.1l0.2,0.1l8.4,6.6l-7.2,2.1l-4.3-9.2l-0.8-1.7l-1.8,0.8l0.2,0.5l5.6,12l12.5-3.6l-11.1-8.7
				l-0.5-0.4L297.5,237.1z"/>
			<path id="Path_1557" d="M275.9,144.6l1.1-4.1l-2-1.2l-5.5-3.4l-1.5,4.1l-0.7,2l-0.7,2l1.4,1.2l2.3,2l3.9,3.4l0.6-2l0.6-2.1
				L275.9,144.6z M269,143.4l1.6-4.6l4.2,2.6l-1.5,5.6L269,143.4z"/>
			<path id="Path_1558" d="M337.5,113.9l-6.7-28.5l-0.1-0.2l-1.9,0.4l0.9,4l5.5,23.6l1-0.2l0.3,1.9l-1.2,0.2l-0.9,31.8l-2,1
				l-3.6-31.6l-0.9,0.2l-0.3-1.9l0.9-0.2l-2.1-10.9l0,0l-1.9,0.4l0.8,4.2l1.5,7.6l3.9,33.7l5.8-2L337.5,113.9z"/>
			<path id="Path_1559" d="M327.6,114.6l0.3,1.9l0.9-0.2l6.6-1.2l1.2-0.2l-0.3-1.9l-1,0.2l-6.7,1.2L327.6,114.6z"/>
			<path id="Path_1560" d="M337.4,154.8l-0.3-0.7c0.2-0.1,0.4-0.2,0.6-0.2l-0.5-4.7l-8.5,2.9l0.1,3.9c0.3-0.1,0.6-0.2,1-0.3l0.5,1.9
				c-0.5,0.1-1,0.2-1.4,0.4l0.1,4.1l7.3-3.6l0.6-3.7L337.4,154.8z M331,159l-0.2-5.8l4.8-1.5l0.5,4.9L331,159z"/>
			<path id="Path_1561" d="M414,79.4c-5.9-2.8-14.2,2.4-18.5,11.6c-3.2,6.9-3.3,14.1-0.6,18.4l0.2-0.5l1.8,0.8l-0.6,1.4
				c0.6,0.6,1.3,1.1,2.1,1.5c0.7,0.3,1.4,0.5,2.1,0.6l0.6-1.3l1.8,0.8l-0.3,0.6c2.1-0.2,4.1-1,5.8-2.1c3.7-2.5,6.6-6.1,8.4-10.2
				C421.2,91.8,419.9,82.1,414,79.4 M415.1,100.1c-1.7,3.8-4.4,7-7.7,9.4c-3,1.9-5.8,2.4-8.1,1.3c-4.9-2.3-5.8-10.8-1.9-19
				c3.2-6.8,8.6-11.2,13.2-11.2c0.9,0,1.8,0.2,2.7,0.6C418.1,83.4,419,92,415.1,100.1"/>
			<path id="Path_1562" d="M396.3,111.1l0.6-1.4l-1.8-0.8l-0.2,0.5l-1.4,3.1l1.8,0.8L396.3,111.1z"/>
			<path id="Path_1563" d="M400.4,117.9L400.4,117.9l-6-2.9L400.4,117.9z"/>
			<path id="Path_1564" d="M401.1,111.9l-0.6,1.3l-1,2.1l1.8,0.8l1.3-2.8l0.3-0.6L401.1,111.9z"/>
			<path id="Path_1565" d="M395.3,113.3l-1.8-0.8l-9.8-4.6l-0.3,0.6l0.3-0.2l1,1.7l-2.4,1.4l-4.8,12l0.4-0.1l0.7,1.8l-2.1,0.9
				l-14.7,36.6l0,0l1.8,0.8l-0.4,0.9l8.5,4l0.5-0.9l1.8,0.8l-0.4,1l8.5,4l0.4-0.9l1.8,0.8v0l16.3-30.6l0.3-4.4l1.9,0.1l0,0.1
				l6.7-12.7l0.1-4.1l1.9,0l0,0.2l0.4-0.7l-10.7-5l-1.8-0.8L395.3,113.3z M409.2,122l-26.3,49.4l-19-9l20.8-51.9l9.6,4.5l6,2.8
				L409.2,122z"/>
			<path id="Path_1566" d="M377.8,123.3l-0.4,0.1l-13.5,5.6l0.4,0.4l-1.2,1.5l-0.9-0.7l-20.8,21.1l-2-3.5L357,126l-0.8-0.6l1.2-1.5
				l1.1,0.9l23.7-13.4l2.4-1.4l-1-1.7l-0.3,0.2l-27.1,15.3l-0.2,0.1l-18.4,23l0.3-0.1l0.6,1.8L338,149l2.4,4.2l0.1-0.3l1.9,0.3
				l-0.1,0.3l22.1-22.5l12.1-5l2.1-0.9L377.8,123.3z"/>
			<path id="Path_1567" d="M357.5,123.9l-1.2,1.5l0.8,0.6l5.3,4.2l0.9,0.7l1.2-1.5l-0.4-0.4l-5.3-4.2L357.5,123.9z"/>
			<path id="Path_1568" d="M382.5,172.2l-0.4,0.9l-40.8,85.1l-3.2-1.5l35.4-87.6l0.4-1l-1.8-0.8l-0.5,0.9l-44.4,83.4l-2.6-1.2
				l38.5-86.2l0.4-0.9l-1.8-0.8l0,0l-39,87.3l0.7,0l-0.1,1.9l-0.2,0l2.1,1l2.1-0.8l0.7,1.8l-0.4,0.2l0.5,0.2l37.1-69.6l-29.6,73
				l0.4,0.2l-0.1-0.5l1.9-0.4l0.3,1.9l2.9,1.4l-0.1-0.2l1.6-1.2l0.4,0.5l41.4-86.3l0,0L382.5,172.2z"/>
			<path id="Path_1569" d="M327.3,252l-2.1,0.8l-10.6,4.2l-4.5-5.6l13.1,0.4l0.2,0l0.1-1.9l-0.7,0l-16.9-0.5l8.1,10l13.6-5.4
				l0.4-0.2L327.3,252z"/>
			<path id="Path_1570" d="M341,260.1l0.1,0.2l6.4,8.4l-7.5,0.1l-1.8-10l-0.3-1.9l-1.9,0.4l0.1,0.5l2.4,13l13-0.2l-8.5-11.2
				l-0.4-0.5L341,260.1z"/>
			<path id="Path_1571" d="M409.6,121.5l-0.1,4.1l-0.6,24.3l1,0.1l-0.2,1.9l-1.2-0.1l-9,30.5l-2.3,0.5l4.5-31.5l-0.9-0.1l0.2-1.9
				l0.9,0.1l0.7-11l0-0.1l-1.9-0.1l-0.3,4.4l-0.5,7.6l-4.8,33.8l0.2-0.3l1.5,1.2l0,0l2.8-0.6l-0.2-0.9l1.9-0.5l0.1,0.3l9.4-31.9
				l0-0.1l0.7-29.3v-0.2L409.6,121.5z"/>
			<path id="Path_1572" d="M401.1,149.2l-0.2,1.9l0.9,0.1l6.8,0.6l1.2,0.1l0.2-1.9l-1-0.1l-6.9-0.6L401.1,149.2z"/>
			<path id="Path_1573" d="M329.9,155.8c-0.4,0.1-0.7,0.2-1,0.3c-0.5,0.1-1,0.2-1.3,0.3l-0.5-3.7l1.7-0.6l8.5-2.9l0.7-0.3l0.8-0.3
				l-0.6-1.8l-0.3,0.1l-1.4,0.5l-5.8,2l-5.7,2l0.9,7.5l1.1-0.3c0,0,0.8-0.2,2-0.5l1.4-0.4L329.9,155.8z"/>
			<path id="Path_1574" d="M340.4,152.8l-0.1,0.3l-1,6.1l-1-0.2l0.8-5.1h-1.1c-0.1,0-0.1,0-0.2,0c-0.2,0-0.4,0.1-0.6,0.2l0.3,0.7
				l-0.5-0.1l-0.6,3.7l-0.3,2.2l4.8,0.8l1.4-8.1l0.1-0.3L340.4,152.8z"/>
			<path id="Path_1575" d="M399.5,183.4l0.2,0.9l2.3,8.5l-4.6,3.9l0.1-8l-3.4,1l-0.6-0.6l3.5-4.2l0,0l-1.5-1.2l-0.2,0.3l-4.5,5.4
				l2.9,2.5l1.9-0.6l-0.1,9.6l8.8-7.4l-2.8-10.3l-0.1-0.3L399.5,183.4z"/>
			<path id="Path_1576" d="M48.1,108.7l0.6,1.4c1.6-0.2,3.1-0.9,4.3-2l-0.6-1.4l1.8-0.8l0.2,0.5c1.1-1.6,1.8-3.5,2-5.4
				c0.6-4.5-0.1-9-1.9-13.1c-3.9-9.3-12-14.8-18-12.3l0,0c-6,2.5-7.7,12.2-3.7,21.5c1.7,4.2,4.4,7.8,8,10.5c1.7,1.3,3.7,2.1,5.8,2.4
				l-0.3-0.6L48.1,108.7z M34.5,96.4c-3.5-8.3-2.3-16.8,2.7-18.9l0,0c5-2.1,11.9,2.9,15.4,11.3c1.7,3.8,2.3,7.9,1.8,12
				c-0.6,3.5-2.1,5.9-4.5,6.9s-5.2,0.4-8.1-1.6C38.6,103.6,36.1,100.3,34.5,96.4"/>
			<path id="Path_1577" d="M50.6,113.9l-2.1,0.9v0L50.6,113.9z"/>
			<path id="Path_1578" d="M48.7,110l-0.6-1.4l-1.8,0.7l0.3,0.6l1.2,3l1.8-0.8L48.7,110z"/>
			<path id="Path_1579" d="M52.4,106.7l0.6,1.4l1,2.3l-4,1.7l5.8-2.5l-1.4-3.2l-0.2-0.5L52.4,106.7z"/>
			<path id="Path_1580" d="M70.9,121.1l0.4,0.2L67,109l-2.4-1.5l1-1.7l0.3,0.2l-0.2-0.7l-10,4.2l-5.8,2.5l-0.4,0.2l-1.8,0.8
				l-10.9,4.6l0.3,0.7v-0.2l2,0l-0.1,4.1l6.3,13l0-0.4l2,0l0.1,4.6l15,31.1l0,0l1.8-0.8l0.4,0.9l8.7-3.7l-0.4-1l1.8-0.8l0.5,1
				l8.7-3.6l-0.4-0.9l1.8-0.7l0,0l-13.2-37.2l-2.1-1L70.9,121.1z M83.2,160.8l-19.4,8.2l-24.3-50.3l9-3.8l2.1-0.9l13.9-5.9
				L83.2,160.8z"/>
			<path id="Path_1581" d="M107.2,152.1l0,0.3l2.5-4l-0.8-0.3l0.7-1.8l0.3,0.1l-17.4-23.8L66,106.1l-0.3-0.2l-1,1.7L67,109
				l23.1,14.3l1.2-0.9l1.1,1.6l-0.8,0.6l16.5,22.6l-2.1,3.3l-19.9-21.9l-0.9,0.6l-1.1-1.6l0.5-0.3l-13.2-6.1l-0.4-0.2l-0.8,1.8
				l2.1,1l11.8,5.5l21.2,23.3l0-0.2L107.2,152.1z"/>
			<path id="Path_1582" d="M84.1,127.7l1.1,1.6l0.9-0.6l5.5-4l0.8-0.6l-1.1-1.6l-1.2,0.9l-5.6,4L84.1,127.7z"/>
			<path id="Path_1583" d="M83.5,161.7l0.4,0.9l35.1,87.6l-2.6,1.1l-41.1-85.1l-0.5-1L73,166l0.4,1l32,88.9l-3.2,1.4l-37.4-86.6
				l-0.4-0.9l-1.8,0.8l0,0l38,87.9l0.4-0.5l1.5,1.2l-0.2,0.2l3-1.3l0.4-1.9l1.9,0.4l-0.1,0.5l0.4-0.2l-26.7-74.2l34.4,71l0.5-0.2
				l-0.4-0.2l0.8-1.8l2,0.9l2-0.9h-0.2l0-1.9h0.7L85.4,161l0,0L83.5,161.7z"/>
			<path id="Path_1584" d="M120.2,251.7h0.2l13.1,0.1l-4.7,5.4l-10.4-4.6l-2-0.9l-0.8,1.8l0.4,0.2l13.3,5.9l8.5-9.6l-16.9-0.1h-0.7
				L120.2,251.7z"/>
			<path id="Path_1585" d="M105.6,256.3l-0.4,1.9l-2.3,9.9l-7.4-0.4l6.7-8.2l0.2-0.2l-1.5-1.2l-0.4,0.5l-8.9,10.9l12.9,0.7l3-12.9
				l0.1-0.5L105.6,256.3z"/>
			<path id="Path_1586" d="M45.5,134.9l0,0.4l0.2,10.8l0.9,0l0.1,1.9l-0.9,0l3.3,31.7l-2.3-0.5l-7.7-30.8l-1.2,0.1l-0.1-1.9l1,0
				l0.3-24.2l0.1-4.1l-2,0v0.2l-0.4,29.1v0.1l8.1,32.4l0.1-0.3l1.9,0.6l-0.3,0.9l2.8,0.6l0,0l1.6-1.2l0.2,0.2l-3.5-33.8l-0.1-7.6
				l-0.1-4.6L45.5,134.9z"/>
			<path id="Path_1587" d="M37.8,146.5l0.1,1.9l1.2-0.1l6.7-0.3l0.9,0l-0.1-1.9l-0.9,0l-6.8,0.3L37.8,146.5z"/>
			<path id="Path_1588" d="M109.9,146.4l-0.3-0.1l-0.7,1.8l0.8,0.3l1.2,0.5l8.3,3.2l1.2,0.5l-0.6,3.7c-0.3-0.1-0.6-0.2-0.9-0.3
				c-0.4-0.1-0.9-0.3-1.4-0.4l-0.5,1.9c0.7,0.2,1.3,0.3,1.8,0.5c0.9,0.3,1.6,0.5,1.6,0.5l1.1,0.4l1.2-7.5l-5.2-2l-5.7-2.2
				L109.9,146.4z"/>
			<path id="Path_1589" d="M110.1,154.1l-0.2,0l0.2-0.4l0.1-0.3c0,0-0.1,0-0.1,0c-0.2-0.1-0.5-0.2-0.7-0.2h-1.1l0.6,5.2l-1,0.1
				l-0.8-6.2l0-0.3l-1.9,0.3l0,0.2l1.1,8.2l4.8-0.6l-0.3-2.5l-0.4-3.5L110.1,154.1z M109.5,155.2L109.5,155.2L109.5,155.2
				L109.5,155.2z"/>
			<path id="Path_1590" d="M49.4,181.8L49.4,181.8l3.3,4.4l-0.7,0.5l-3.4-1.1l-0.2,8l-4.4-4.1l2.6-8.3l0.3-0.9l-1.9-0.6l-0.1,0.3
				l-3.1,10.1l8.5,8l0.2-9.7l1.9,0.6l3-2.4l-4.3-5.7l-0.2-0.2L49.4,181.8z"/>
		</g>
	</g>
</g>
<g id="Group_124" transform="translate(34.213 223.874)">
	<g>
		<defs>
			<rect id="SVGID_00000136375650054786366520000015052727869079524777_" x="30.6" y="29.2" width="320.4" height="328.7"/>
		</defs>
		<clipPath id="SVGID_00000116229598547061645240000007297867037756831620_">
			<use xlink:href="#SVGID_00000136375650054786366520000015052727869079524777_"  style="overflow:visible;"/>
		</clipPath>
		
			<g id="Group_123" transform="translate(0 0)" style="clip-path:url(#SVGID_00000116229598547061645240000007297867037756831620_);">
			<path id="Path_1591" class="st1" d="M91.3,88.7c-1.8-0.6-5.1-1.8-6.3-2.4c-1,0.3-2,0.5-3,0.6c-1.6,0.3-3.2,0.7-4.8,1.2
				c-0.8,0.2-1.6,0.6-2.4,1c-4.9,5.7-9.4,11.8-13.4,18.1c2.9,4,6.3,8.7,7.4,9.2c1,0.4,1.6,1.3,1.8,2.4c0.3,0.9,0.6,3.3-4.5,9.5
				L66,129l-0.6,0.3l-0.1,0.1c-0.8,1.1-1.6,2.2-2.3,3.1l-0.6,0.3c-1.7,0.8-5.6,2.7-8.6,4.2c-1.3,6.5-2.2,13.1-2.7,19.7
				c1.3,3.3,3,6.4,5.1,9.2c0,0,5.1,7.1,7.4,10.4c0.3-0.3,0.6-0.3,0.9-0.6c1-0.6,2.1-1.4,3.5-2.1c-0.4-0.7-0.7-1.4-0.8-2.2
				c0-0.7,0-1.5,2.1-2v0c-0.5-0.9-0.8-1.9-0.9-3c0-3.3,2.7-4.2,12.5-4.2h3v8.6l6,12.5c0.9,1.8,1.7,3.7,2.4,5.7
				c1.5,0.4,3,0.6,4.5,0.6h7.4l0.6,2.1c0.6,1.8,2.7,7.4,2.7,9.8c0,1.2,1.2,8,2.4,14.3c0.9,1.2,3,4.5,7.4,10.1
				c0.6,0.6,0.9,1.2,1.5,1.8l1.5,0.3l17.9,4.2l13.1,1.5c-5.4-3.9-11.3-13.7-11.3-13.7c-1.2-2.1-5.4-11-5.4-11.3l-2.4-11
				c0-1.5,0.4-2.9,1-4.3L133,193c0-3.2,1.4-6.3,3.9-8.3c2.4-2.1,3.6-2.1,6.6-2.1h3.9c7.1-0.3,12.5,3.3,12.5,3.6
				c4.3,2.6,8.4,5.5,12.2,8.6c2.7,2.4,5.7,2.7,8.6,3c1.2,0.1,2.4,0.3,3.6,0.6c0.9,0.2,2-0.3,3.3-1.3c-0.4-0.7-0.8-1.4-1.2-2
				c-0.5-1-1.1-2-1.8-3c-0.3-0.8-0.7-1.6-1.2-2.4c-1.2-2.4-2.1-3.9-2.1-5.7c0.2-1.3,0.8-2.6,1.6-3.7c-0.1-0.3-0.1-0.7-0.1-1
				c0-1.8,1.8-4.8,4.8-8.6l0.6-0.6l11-3h0.6c2.6,0.3,5.2,0.3,7.7,0c0.6-0.5,1.1-1.1,1.5-1.7c0-3,0.1-6.8,0.6-7.9
				c0.3-0.9,1.5-6,2.4-8.9l0.3-1.2h0.5c0.3-1.3,0.7-2.7,1-4.1l0.6-2.4H239l-2.9-4.8l-2.7-6l-8.7-8.6l-2.1-7.1l2.3-3l-0.5-1.7
				l5.1-6.6v-2.7l-1.8-1.8l-12.2,1.2l-8.9,5.4l-11.6,6.6l-12.8,4.5l-4.8-3.3l0.3-13.4c0.3-0.9,2.1-8,3-9.8c0.3-1.2-2.7-6-4.2-7.1
				c-1.8-0.9-9.2-4.8-10.7-5.7h-6c-1.5,0.6-8.9,4.2-11.6,5.7c-3.9,2.4-16.7,0.9-18.8,0.6c-1.2-0.3-3.3,0-5.4,0.3
				c-2.1,0.3-4.2,0.6-5.7,0c-2-0.3-4-0.3-6,0h-1.8c-0.4,0.3-0.8,0.7-1.2,1c-0.9,0.7-1.9,1.3-3.1,1.5c-0.5,0.4-0.9,0.9-1.4,1.4
				C103,89.3,93.4,89.3,91.3,88.7"/>
			<path id="Path_1592" class="st1" d="M184.3,276.9l9.2,4.6l-0.3-1l-10.1-5.1l-7.2-5.1l0,0.5L184.3,276.9z"/>
			<path id="Path_1593" class="st1" d="M61,116.7c1,1.6,2.1,3.1,3.3,4.5c0.1-0.2,0.2-0.4,0.3-0.5c-2.1-2.2-4-4.5-5.7-6.9
				c0.2,0.3,0.4,0.6,0.6,0.9C60.1,115.2,60.4,116.1,61,116.7"/>
			<path id="Path_1594" class="st1" d="M60.7,183.1c0.6-0.2,1.1-0.4,1.6-0.8c-1.2-0.2-2.3-0.8-3.1-1.8c-1.8-2.4-8.3-11.6-8.3-11.6
				c-0.3-0.5-0.6-1-0.9-1.5c0.8,1.4,1.6,2.8,2.4,4.2C52.3,171.5,58.9,180.7,60.7,183.1"/>
			<path id="Path_1595" class="st1" d="M180.4,248.6c-2.4,0-14.6-11-15.8-14.3c-0.3-0.6-1.2-0.3-3.6,0.3c-1.8,0.6-3.7,0.9-5.6,0.8
				l8.6,3.5l10.7,8l3,7.4l1.8,6.5l0.3,4.2l7.4,5.4l11.9,6l1.8,6.6c0.6,3.7,1,7.5,1.2,11.3c0.3,4.2,0.2,8.4-0.3,12.5
				c-0.1,0.9-0.3,1.8-0.6,2.7c-0.5,2.1-0.8,4.1-0.9,6.3c-0.3,3.6,3.6,8,4.8,9.5l6.8,7.1l6.3,1.5l11-2.1l6.6-3
				c2.4-3.3,6.3-8.3,7.1-9.5c1.2-2.1,4.2-5.7,9.5-11.3l1.5-1.5c0-0.3,0-0.7,0-1c0.6-3,0.3-10.4,0.3-10.4v-0.3l0.9-2.1
				c0-0.9,0-1.8,0-2.3v-0.6l4.8-10.7l4.2-10.4l0.9-2v-9.4l-3-5.4l-10.1-2.7c-4.8-1.5-10.1-3.3-11-3.3c-2.4,0-9.8-7.4-10.4-8
				c-0.9-1.2-4.8-9.2-4.8-12.8c0.1-1.5-0.3-3.1-0.9-4.5c-0.2-0.6-0.3-1.2-0.3-1.8c-2-0.6-4.1-0.9-6.3-0.9c-3.3,0-8,0.6-8,0.6
				s-6,1.8-11,3.3c-0.9,0.3-1.8,0.6-2.7,0.9c-0.8,1.6-1.4,3.3-1.7,5.1c-0.3,1.2-0.6,2.4-0.9,3.3c-0.9,2.4-0.3,4.2,0,5.7
				c0.2,0.9,0.3,1.8,0.3,2.7c0,2.1-1.8,3.5-3.9,4.5C190.1,247.7,180.4,248.6,180.4,248.6"/>
			<path id="Path_1596" class="st1" d="M202.1,331.4l7.1,7.4l7.1,1.5l11.3-2.4l0.2-0.1l-10.4,2l-9.2-2.1l-8-8.3
				c-0.1-0.1-0.2-0.2-0.4-0.5C200.5,329.8,201.3,330.7,202.1,331.4"/>
			<path id="Path_1597" class="st1" d="M148.2,240l12.2,5.1l8.6,6.4l-0.3-0.7l-9.2-6.8l-11-4.5l-12.8-1.2l-15.5-3.6
				c-0.2,0.2-0.4,0.3-0.5,0.5l15.4,3.6L148.2,240z"/>
			<path id="Path_1598" class="st1" d="M77.4,168.6H75c0,0.1,0.1,0.2,0.1,0.3c0.7,0,1.5,0,2.3,0L77.4,168.6z"/>
			<path id="Path_1599" class="st1" d="M94,196.2h5.4c0-0.1,0-0.1-0.1-0.2h-3.6c-4-0.3-6.2-0.8-7.5-1.5c0.1,0.3,0.2,0.6,0.3,0.8
				C90.4,195.7,92.2,196,94,196.2"/>
			<path id="Path_1600" class="st1" d="M339.7,167.6c-0.7,0.2-1.4,0.5-2.1,0.9c-0.6,0.3-1.2,0.3-1.8,0.6c-1.5,0.2-2.9,0.8-4.1,1.6
				c-1,1.8-2.2,4-3.3,6l-0.3,0.3l-1.3,1.8c-0.5,0.9-0.9,1.7-1.3,2.6l-10.1,14c-1.1,1.1-2.1,2.2-3,3.2v24.5l4.2,8.9
				c1.5,1.2,4.8,3.9,6,6.6c1.5,3,2.1,9.5,2.1,10.1v0.6c0,2.7-0.3,6.3,0,7.4c0.9,0.9,3,3.1,5.3,5.5c10.1-21.5,15.3-44.9,15.2-68.6
				c0-7.4-0.5-14.8-1.5-22.2c0-0.3-0.1-0.5-0.1-0.8c-0.1-0.7-0.2-1.4-0.3-2.1C342.7,167.3,342,166.8,339.7,167.6"/>
			<path id="Path_1601" class="st1" d="M317.5,241.7c0-0.2-0.1-0.3-0.1-0.4c-0.5-1.1-2.8-3.2-4.4-4.4l0.8,1.7
				C315.1,239.5,316.3,240.5,317.5,241.7"/>
			<path id="Path_1602" class="st1" d="M323.9,265.3l0.9,0.9c0.7,0.7,1.3,1.5,1.8,2.3c0.1-0.3,0.3-0.5,0.4-0.8
				c-2.7-2.5-4.4-4.3-5.6-5.6c0,0.2,0,0.3,0.1,0.5C322.2,263.6,323,264.5,323.9,265.3"/>
			<path id="Path_1603" class="st1" d="M284.9,101.2h7.4c0.9-0.1,1.8,0,2.7,0.3c0.8,0.1,1.6,0.1,2.4,0l1.2-0.3
				c0.2,0,0.5-0.1,0.8-0.1c-0.2-0.1-0.5-0.1-0.8-0.1c-0.8,0.1-1.6,0-2.4-0.3c-0.9,0-1.8-0.3-3-0.3c-1.8,0.2-3.6,0.2-5.4,0h-1.2
				c-2,0-8.7-2.2-12.4-5.9c0.2,0.7,0.6,1.4,1.1,1.9C278.1,99.4,284,101.2,284.9,101.2"/>
			<path id="Path_1604" class="st1" d="M292,76.8c-2.1-1.8-7.1-3.3-8.3-6c-0.6-1.2-0.6-2.4-1.5-3.3c-0.7-1.1-1.8-1.9-3-2.4
				c-1.1-0.5-2.2-1.1-3.3-1.8c-0.5-0.2-0.9-0.4-1.4-0.6c0.9,6.2,2,13.4,2,14.7v0.9c-0.3,8.9,1.2,11.6,1.5,12.2
				c2.4,2.7,7.4,4.2,8.6,4.5h6c1.5-0.2,3-0.1,4.5,0.3c0.9,0,1.5,0.3,1.8,0c4-0.6,6.7-0.9,8.5-1.1l-1.3-1.7
				C301.9,87.2,297.4,81.6,292,76.8"/>
			<path id="Path_1605" class="st1" d="M310.5,100.6c0.3-0.1,0.5-0.3,0.7-0.5h-1.9c-0.4,0-1.6,0.1-4.5,0.5h2.4
				C308.3,100.8,309.4,100.8,310.5,100.6"/>
			<path id="Path_1606" d="M348,162.1c0.1,0,0.2-0.1,0.3-0.1l-0.8-2.7C332.1,85.2,267.8,29.2,190.8,29.2
				c-88.4,0-160.2,73.8-160.2,164.4S102.4,358,190.8,358S351,284.1,351,193.6C351,183.1,350,172.5,348,162.1 M343.4,170.6
				c0,0.3,0.1,0.5,0.1,0.8c4.3,30.9-0.4,62.5-13.7,90.8c-2.3-2.3-4.5-4.6-5.3-5.5c-0.3-1.2,0-4.8,0-7.4v-0.6c0-0.6-0.6-7.1-2.1-10.1
				c-1.2-2.7-4.5-5.4-6-6.6l-4.2-8.9v-25.3c0.3-1.2,2.7-4.2,5.4-6.8l9.1-12.2l1.3-1.8l0.3-0.3c1.1-1.9,2.3-4.1,3.3-6
				c1-1.8,1.9-3.3,2.4-3.9c2.7-1.1,5.4-2.1,8.3-2.9c0.3,1.5,0.5,3,0.7,4.5C343.1,169.2,343.3,169.9,343.4,170.6 M310.7,94.2h-1.4
				c-0.4,0-1.1,0-2,0.1c-1.8,0.2-4.5,0.5-8.5,1.1c-0.3,0.3-0.9,0-1.8,0c-1.5-0.4-3-0.5-4.5-0.3h-6c-1.2-0.3-6.3-1.8-8.6-4.5
				c-0.3-0.6-1.8-3.3-1.5-12.2v-0.9c0-1.3-1-8.5-2-14.7c-0.1-0.8-0.2-1.6-0.3-2.3C288.1,69.7,300.4,81.1,310.7,94.2 M80.1,83.4
				l0.8,3l7.4-2.1c1.5,0.6,4.5,1.5,6,2.1c1.6,0.5,7.9,0.6,12.1-0.6c1.1-0.2,2.2-0.8,3.1-1.5c0.4-0.3,0.8-0.6,1.2-1
				c1.4-1.2,2.8-2.3,3.3-2.3h2.4c1.5,0,4.2-0.3,5.4,0c1.5,0.6,3.6,0.3,6,0c1.6-0.4,3.2-0.5,4.8-0.3c1.5,0.3,15.2,2.1,19.7-0.6
				c2.4-1.5,8.9-4.8,11-5.7h5.1c2.1,0.9,8.9,4.5,10.4,5.4c0.9,0.9,3.3,4.2,3.6,5.7c-0.9,2.4-2.7,8.3-3,9.5l-0.3,14.6l6.3,4.2
				l13.4-4.8l12.2-6.8l8.6-5.4l11-0.9l0.9,0.9v3.9l-1.8,2.3l-5.1,6.6l0.5,1.7l1.9,6.3l8.6,8.6l2.4,5.4l4.5,7.4v1.8h-28l-0.6,2.4
				c-0.3,1.4-0.7,2.8-1,4.1c-0.6,2.3-1.2,4.3-1.4,4.8c-0.6,1.5-0.9,5.1-0.9,10.7c-0.4,0.9-0.9,1.7-1.5,2.5c-0.4,0.7-0.9,1.2-1.5,1.7
				c-2.6,0.3-5.2,0.3-7.7,0h-0.6l-11,3l-0.6,0.6c-3,3.9-4.8,6.8-4.8,8.6c0,0.3,0,0.7,0.1,1c0.4,1.8,1,3.6,2,5.2
				c0.3,0.9,0.9,1.5,1.2,2.4c0.7,1.1,1.3,2.1,1.8,3.3c0.8,1.2,1.5,2.5,2.1,3.9c-0.4,0.2-0.9,0.5-1.2,0.9c-0.4,0.4-0.8,0.7-1.1,1
				c-1.3,1.1-2.4,1.6-3.3,1.3c-1.2-0.3-2.4-0.5-3.6-0.6c-3-0.3-6-0.6-8.6-3c-3.9-3.2-7.9-6.1-12.2-8.6c0-0.3-5.4-3.9-12.5-3.6h-3.9
				c-3,0-4.2,0-6.6,2.1c-2.5,2.1-3.9,5.1-3.9,8.3l0.1,0.4l2.3,10.6l0.3,0.6c0.3,0.9,4.2,9.5,5.4,11.6c0,0.3,8.6,14.9,15.5,16.1
				c2.5,0.4,5.1,0.2,7.4-0.6c0.6-0.3,1.4-0.5,2.1-0.6c2.4,4.2,13.7,14.6,16.7,14.6c2.6-0.2,5.1-0.8,7.4-1.8c2.1-0.9,3.9-2.4,3.9-4.5
				c0-0.9-0.1-1.8-0.3-2.7c-0.3-1.5-0.9-3.3,0-5.7c0.3-0.9,0.6-2.1,0.9-3.3c0.4-1.8,1-3.5,1.7-5.1c0.2-0.5,0.6-1,0.9-1.5
				c0.7-0.4,1.4-1,1.8-1.8c0.3,0,0.9-0.3,3-0.9c4.8-1.5,9.8-3,11-3.3c2.6-0.4,5.1-0.6,7.7-0.6c1.7,0,3.4,0.2,5.1,0.6
				c0,0.3,0.3,0.6,0.3,0.9c0.4,1.3,0.6,2.6,0.6,3.9c0,4.2,4.2,12.2,5.1,13.7c0.3,0,8,8.6,11.6,8.6c1.2,0.3,6.3,1.8,10.7,3.3l9.5,2.7
				l2.7,4.5v10.4l-1.5,3.4l-0.9,2l-4.2,10.4l-4.8,10.7v0.6c0,0.6,0,1.4,0,2.3c0,2.6-0.1,6.1-0.3,7.8c-0.2,1.4,0.1,2.8,0.9,3.9
				c-0.5,0.8-1.1,1.5-1.8,2.1l0,0l-1.5,1.5c-5.4,5.7-8.3,9.2-9.5,11.3c-0.9,1.2-4.8,6.3-7.1,9.5l-6.6,3l-11,2.1l-6.3-1.5l-6.8-7.1
				c-1.2-1.5-5.1-6-4.8-9.5c0.1-2.1,0.4-4.2,0.9-6.3c0.3-0.9,0.5-1.8,0.6-2.7c0.5-4.2,0.6-8.3,0.3-12.5c-0.2-3.8-0.6-7.6-1.2-11.3
				l-1.8-6.6l-11.9-6l-7.4-5.4l-0.3-4.2l-1.8-6.6l-3-7.4l-10.7-8l-8.6-3.5l-3.9-1.6l-0.3,0l-13.1-1.5l-17.9-4.2l-1.5-0.3
				c-0.6-0.6-0.9-1.2-1.5-1.8c-4.5-5.7-6.6-8.9-7.4-10.1c-1.2-6.3-2.4-13.1-2.4-14.3c0-2.4-2.1-8-2.7-9.8l-0.6-2.1h-7.4
				c-1.5,0-3-0.2-4.5-0.6c-0.7-1.9-1.5-3.8-2.4-5.7l-6-12.5v-8.6h-3c-9.8,0-12.5,0.9-12.5,4.2c0.1,1,0.4,2.1,0.9,3v0
				c0.3,0.9,1.2,2.4,1.2,3.3c-0.9,0.2-1.7,0.5-2.5,0.9c-1.4,0.7-2.5,1.5-3.5,2.1c-0.3,0.3-0.6,0.3-0.9,0.6
				c-2.4-3.3-7.4-10.4-7.4-10.4c-2.1-2.9-3.8-6-5.1-9.2c0.6-6.6,1.5-13.2,2.7-19.7c0.2-0.9,0.4-1.7,0.5-2.3
				c2.1-0.9,5.6-2.7,10.9-5.3l0.1-0.1L66,129l0.3-0.6c5.1-6.3,4.8-8.6,4.5-9.5c-0.1-1-0.8-1.9-1.8-2.4c-1.1-0.6-4.5-5.2-7.4-9.2
				c4-6.3,8.5-12.4,13.4-18.1C76.7,87.2,78.4,85.3,80.1,83.4 M190.8,352c-85.2,0-154.2-71.2-154.2-158.4c0-28.4,7.4-56.3,21.6-80.8
				c0.2,0.3,0.4,0.6,0.7,0.9c1.7,2.4,3.6,4.8,5.7,6.9c-0.1,0.2-0.2,0.4-0.3,0.5c-0.6,1.1-1.3,2.1-2.1,3c-4.8,2.4-9.8,4.8-10.7,5.1
				c-2.1,0.3-2.7,1.2-4.8,14c-0.9,5.1-1.8,11.9-1.8,13.1c0,0.6,0,2.5,5,11c0.3,0.5,0.6,1,0.9,1.5c0,0,6.6,9.2,8.3,11.6
				c0.7,1,1.9,1.6,3.1,1.8c2.1,0.3,4.1-1,5.3-1.8c1.2-1,2.6-1.7,4.2-2.1c1.7-0.4,3.1-1.5,3.9-3c0.7-2.2,0.5-4.5-0.5-6.6
				c0-0.1-0.1-0.2-0.1-0.3h2.4v3.9l6.6,13.7c1.2,2.7,2.4,5.7,2.7,6.3c0.2,0.9,0.8,1.7,1.7,2.1c1.3,0.7,3.5,1.2,7.5,1.5h3.6
				c0,0.1,0,0.1,0.1,0.2c0.7,1.9,1.2,3.8,1.4,5.7c0,2.1,2.1,12.8,2.7,16.1v0.6l0.3,0.6c0,0.3,2.1,3.6,7.7,11c3,3.9,5.4,6.6,8,5.1
				c0-0.1,0.1-0.1,0.1-0.1c0.1-0.2,0.3-0.2,0.5-0.5l15.5,3.6l12.8,1.2l11,4.5l9.2,6.8l0.3,0.7l2.1,4.7l1.5,5.4l0.3,6.8l2.9,2.1
				l7.2,5.1l10.1,5.1l0.3,1l0.9,2.9c0.6,3.4,1,6.9,1.2,10.4c0.3,3.8,0.2,7.6-0.3,11.3c0.1,0.7,0,1.4-0.3,2.1c-0.6,2.2-1,4.5-1.2,6.8
				c-0.5,6.1,4.5,12.1,6.1,13.8c0.2,0.2,0.4,0.4,0.4,0.5l8,8.3l9.2,2.1l10.4-2l2.1-0.4l8.6-4.2l0.6,0.9c0.6-0.9,6.8-8.6,8-10.7
				c0.9-1.5,4.2-5.1,8.6-10.1l1.5-1.5c2.4-2.4,5.4-6,2.4-9.2c0.6-3.3,0.3-8.3,0.3-10.4l4.2-9.5l4.2-10.4l3-6.6v-13.1l-4.5-8
				l-11.6-3.3c-6-1.8-9.8-3-11.6-3.3c-1.8-0.9-6.6-5.4-7.4-6.3c-0.9-1.2-3.9-7.7-3.9-10.1c-0.1-1.9-0.4-3.8-0.9-5.7
				c-0.2-0.2-0.3-0.6-0.3-0.9c0-3.3-3.6-4.8-10.7-4.8c-3.6,0-8.3,0.6-8.6,0.6h-0.6c0,0-6,1.8-11.3,3.3c-3.9,0.9-4.8,1.5-6,3
				c0,0,0,0.3-0.6,0.6c-2.4,1.8-3.6,5.7-4.8,9.5c-0.3,1.2-0.6,2.4-0.9,3.3c-0.9,2.9-0.9,6,0,8.9c-1.4,0.5-2.9,0.9-4.5,1.2
				c-2.7-1.8-11-9.2-11.9-11.3c-1.8-4.5-6.3-3.3-8.9-2.7c-1.8,0.3-3.6,0.9-5.1,0.6c-2.4-0.3-8.6-8.3-11.3-13.1
				c-0.9-1.5-3.9-8-5.1-10.7l-2.1-9.8c0-1.2,0.6-2.4,1.5-3.3c0.7-0.7,1.7-1.1,2.7-0.9h4.2c3.2,0,6.3,0.9,8.9,2.7c4.1,2.3,8,5,11.6,8
				c3.9,3.6,8.3,4.2,11.9,4.5c0.9,0.3,2.1,0.3,3,0.6c4.5,0.9,7.7-2.1,9.8-3.9c0.3-0.6,0.9-0.9,1.2-1.2c3.6-2.7,0.9-7.4-1.2-11
				c-0.6-0.8-1.1-1.7-1.5-2.7c-0.3-0.9-0.9-1.5-1.2-2.4c-0.6-1.1-1.1-2.3-1.5-3.6c0.8-1.5,1.8-2.9,3-4.2l8-2.4c3,0.5,6,0.5,8.9,0
				c4.2-0.9,6.8-6.6,7.4-8.3l0.3-0.6v-0.6c0-3.6,0-8,0.3-8.9c0.9-2.4,1.6-4.9,2.1-7.4h29.2v-9.5l-5.1-8.3l-2.7-6.3l-8.6-8.6
				l-1.2-3.9l6.3-8.3v-8.6l-4.5-4.5l-15.2,1.5l-9.8,6l-11.3,6.6l-10.1,3.6l-0.9-0.6l0.3-10.1c0.9-3.6,2.1-7.7,2.7-8.6
				c2.1-3.9-3.6-11.3-6-12.8c-2.1-1.2-11-5.7-11.3-6l-0.6-0.3h-8l-0.6,0.3c-0.3,0-9.2,4.2-12.2,6c-1.8,1.2-11.6,0.9-15.5,0
				c-1.8-0.6-4.2-0.3-6.6,0c-1.2,0.3-3.3,0.6-3.9,0.3c-2.3-0.6-4.8-0.7-7.1-0.3H114c-3.3,0-7.4,3.6-8.6,4.8c-1.5,0.6-8,0.9-9.5,0.6
				c-1.5-0.6-5.1-1.8-6.3-2.4l-0.9-0.3l-4.6,1.3c27.7-27.3,65.3-44.2,106.7-44.2c27.4,0,54.2,7.5,77.6,21.6l-0.8,0.1
				c1.5,8.9,3,19.1,3,20.2v0.6c0,6,0.3,13.1,3.3,16.4c0.1,0.1,0.3,0.2,0.4,0.4c3.7,3.6,10.4,5.9,12.4,5.9h1.2c1.8,0.2,3.6,0.2,5.4,0
				c1.2,0,2.1,0.3,3,0.3c0.8,0.3,1.6,0.4,2.4,0.3c0.3,0,0.5,0,0.8,0.1c0.1,0,0.1,0.1,0.1,0.2c2.2-0.3,4-0.5,5.3-0.7
				c3-0.4,4.1-0.5,4.5-0.5h5.9c12.4,17.4,21.2,37.1,25.9,58c-9.7,3.1-10.7,4.1-11.2,4.6c-1.2,1.2-4.2,6.8-6.6,11.3l-9.8,13.4
				c-3,3.3-6.8,7.7-6.8,10.7v26.8l5.4,11.3l0.6,0.3c0.1,0.1,0.3,0.2,0.4,0.3c1.5,1.3,3.8,3.3,4.4,4.4c0,0.1,0.1,0.3,0.1,0.4
				c0.6,2.5,1.1,5,1.3,7.6c-0.3,5.1-0.3,8,0,9.2c0.2,0.5,0.4,1.2,2.6,3.6c1.2,1.3,3,3.1,5.6,5.6c-0.1,0.3-0.3,0.5-0.4,0.8
				C300.6,318.2,249.5,352,190.8,352"/>
		</g>
	</g>
</g>
</svg>
