<svg class="svg-icon" version="1.1" id="Layer_1" xmlns="http://www.w3.org/2000/svg" xmlns:xlink="http://www.w3.org/1999/xlink" x="0px" y="0px"
	 viewBox="0 0 50 50" style="enable-background:new 0 0 50 50;" xml:space="preserve">
<style type="text/css">
	.st0{fill:none;}
</style>
<rect x="-42.4" y="9.7" class="st0" width="38" height="38"/>
<g id="Icon-Profile">
	<path id="Path_1" d="M5.6,25.3V24c0,0,0-0.1,0-0.1c0.1-2.4,0.7-4.8,1.7-7.1c1.9-4.1,5.1-7.4,9.2-9.4c2.2-1,4.6-1.6,7-1.8
		c0.2,0,0.3,0,0.5,0h1.3c0,0,0.1,0,0.1,0c1.2,0,2.3,0.2,3.4,0.5c2.3,0.5,4.5,1.5,6.5,2.8c1.7,1.1,3.1,2.5,4.4,4.1
		c2.3,3,3.7,6.6,3.9,10.4c0,0.2,0,0.3,0,0.5v1.5c0,0,0,0.1,0,0.1c-0.2,3.9-1.6,7.7-4,10.8C38.6,37.8,37.4,39,36,40
		c-3,2.2-6.5,3.5-10.1,3.7c-0.2,0-0.4,0-0.5,0H24c0,0-0.1,0-0.1,0c-4.9-0.2-9.6-2.3-13-5.9c-3.1-3.3-5-7.5-5.2-12
		C5.6,25.7,5.6,25.5,5.6,25.3 M34.9,37.6c5-3.9,7.3-10.4,5.8-16.5C38.7,12.2,29.9,6.6,21,8.6C15,10,10.2,14.7,8.7,20.7
		C7.1,27,9.3,33.6,14.4,37.5c0,0,0,0,0,0c0.1-0.2,0.1-0.5,0.2-0.7c0.7-2.9,2.6-5.3,5.3-6.7c0,0,0.1,0,0.1,0c0.5,0.3,1,0.5,1.5,0.7
		c1.4,0.5,2.9,0.7,4.3,0.5c1.2-0.2,2.3-0.6,3.4-1.1c0.1-0.1,0.2-0.1,0.3,0c0.3,0.2,0.7,0.4,1,0.6c1.7,1.1,3,2.8,3.8,4.7
		C34.6,36.1,34.8,36.8,34.9,37.6"/>
	<path id="Path_2" d="M24.7,14.9c3.8,0,6.8,3.1,6.8,6.8c0,3.8-3.1,6.8-6.8,6.8c-3.7,0-6.8-3.1-6.8-6.8C17.8,18,20.9,14.9,24.7,14.9
		C24.6,14.9,24.7,14.9,24.7,14.9"/>
</g>
</svg>
