<?xml version="1.0" encoding="utf-8"?>
<!-- Generator: Adobe Illustrator 27.8.1, SVG Export Plug-In . SVG Version: 6.00 Build 0)  -->
<svg version="1.1" id="Layer_1" xmlns="http://www.w3.org/2000/svg" xmlns:xlink="http://www.w3.org/1999/xlink" x="0px" y="0px"
	 viewBox="0 0 500 500" style="enable-background:new 0 0 500 500;" xml:space="preserve">
<style type="text/css">
	.st0{fill:none;}
	.st1{fill:#FFFFFF;}
	.st2{fill:#27AAE1;}
</style>
<g>
	<polygon class="st0" points="276.5,338.7 276.5,338.5 276.5,338.7 	"/>
	<path class="st0" d="M291.6,141.8C291.7,141.8,291.7,141.8,291.6,141.8C291.7,141.8,291.7,141.8,291.6,141.8z"/>
	<polygon class="st0" points="251.7,222.6 251.7,222.3 251.7,222.6 251.2,222.6 251.2,222.6 	"/>
	<path class="st0" d="M299.7,184.2L299.7,184.2c3.9-1,7.4-1.6,8.6-1.9c0,0,0,0,0,0C307.1,182.6,303.6,183.2,299.7,184.2
		c-4.2,1.1-8.7,2.5-11,4c0.2,1.4,0.8,6.6,1.6,13.2c-0.4,0.7-0.8,1.4-1.2,2.2c-3.6,6.6-7.9,13.8-8.9,15.3l-4.6,0.4
		c0.7-0.6,1.4-1.4,2.1-2.2c-0.7,0.8-1.4,1.6-2.1,2.2c-0.6,0.6-1.3,1.1-2.1,1.5l-0.7-1.2c0,0,0,0,0,0l0.7,1.2
		c0.7-0.4,1.4-0.9,2.1-1.5l4.6-0.4c0.9-1.5,5.3-8.8,8.9-15.3c0.4-0.7,0.8-1.5,1.2-2.2c0,0,0,0,0,0c-0.7-6.6-1.4-11.8-1.6-13.2
		C291,186.7,295.6,185.3,299.7,184.2z"/>
	<polygon class="st0" points="291.9,141.6 292.3,142.2 291.9,141.6 	"/>
	<path class="st0" d="M290.7,221.7c7-9.9,11.8-22.1,12.4-23.9h0C302.4,199.6,297.7,211.8,290.7,221.7z"/>
	<path class="st0" d="M285.1,225.1l-3.5-5.4c1.7-2.8,12-19.9,13.7-25.6l-1.3-0.4c0,0,0,0,0,0l1.3,0.4c-1.6,5.7-11.9,22.8-13.7,25.6
		l-0.2-0.4l-0.5,0.4l0.5-0.4l0.2,0.4L285.1,225.1l0.9,1.3L285.1,225.1L285.1,225.1z"/>
	<path class="st0" d="M302.4,203.2c1.3-3.1,2.1-5.1,2.1-5.2l0,0C304.5,198.1,303.7,200.1,302.4,203.2c-0.8,1.8-1.8,4-3,6.4
		C300.6,207.2,301.6,205,302.4,203.2c-1,2.7-2.3,5.3-3.7,7.9c0,0,0,0,0,0c-0.9,1.8-1.9,3.6-3,5.4c1-1.8,2-3.6,3-5.4
		C300.1,208.5,301.4,205.9,302.4,203.2z"/>
	<path class="st0" d="M252.8,236.1h12.9v9.7h-23l-0.8,96.5l-0.7,0l0,0l0.7,0l11.9-0.3l0.9,0v0l-0.9,0c-5.4-22.3-9.4-72.2-9.4-72.7
		l0-0.4l0.3-0.2c6-4.2,16.3-8.3,30.6-12.2c9.1-2.5,17-4,19.1-4.4c0,0,0,0,0,0c-0.4-4.1-1.8-16.2-3.2-28.8c0.4-0.6,0.8-1.1,1.2-1.7
		c0,0,0,0,0,0c-0.4,0.6-0.8,1.1-1.2,1.7c-1.4,1.9-2.9,3.7-4.5,5.4l-0.2,0.2l-29.6-1.4l0.2-0.3l0,0l-0.2,0.3l-1.7,2.1l-2.2,0.3
		l1.8,1.4l-0.8,1.1l-1.4-1.1l-1.5-1.1l-0.3-0.3l0,0l0.3,0.3l0,0l1.5,1.1l-4.5,0l0,0l4.5,0l1.4,1.1l0.8-1.1h0.2l-0.7,4.9L252.8,236.1
		l0.5-3.5l-39.1-0.1v0l39.1,0.1L252.8,236.1z"/>
	<polygon class="st0" points="219.3,227.1 219.9,226.8 219.9,226.8 219.3,227.1 219.3,227.1 215.2,229.3 194.1,197.4 194.1,197.4 
		215.2,229.3 215.2,229.3 	"/>
	<path class="st0" d="M294.3,181.6c0.3-0.1,0.6-0.2,0.9-0.2C294.9,181.4,294.6,181.5,294.3,181.6z"/>
	<polygon class="st0" points="241.1,350.2 241.2,350.8 241.2,350.8 	"/>
	<path class="st0" d="M297.5,183.4c0,0,0.1,0,0.1,0l-0.5-2.9c0.6-0.4,1.1-0.8,1.6-1.3l0,0l0,0c-0.5,0.5-1,0.9-1.6,1.3l0.5,2.9
		C297.6,183.4,297.5,183.4,297.5,183.4z"/>
	<path class="st0" d="M293.9,184.5C293.9,184.5,293.9,184.5,293.9,184.5c0.1,0,0.2-0.1,0.3-0.1C294.1,184.4,294,184.4,293.9,184.5z"
		/>
	<polygon class="st0" points="252.7,222.6 280.3,220.4 280.3,220.4 280.3,220.4 252.7,222.6 	"/>
	<polygon class="st0" points="248.1,222.6 248.1,222.6 240.3,227.8 239.8,230.2 239.8,230.2 240.3,227.8 	"/>
	<path class="st0" d="M255.2,227.4l-0.7,0.9l-5.5,0.7l-1.8,1.1l-0.7-0.8c1.8-0.5,4.9-1.3,7.1-1.9l0,0l0.1,0l0,0l-0.1,0
		c-2.2,0.6-5.3,1.4-7.1,1.9l-0.7-0.8l-1,0.9l0,0l1-0.9l0.7,0.8l0.7,0.8l1.8-1.1l5.5-0.7L255.2,227.4L255.2,227.4z"/>
	<polygon class="st0" points="255.1,226 253.9,225.9 253.9,225.9 255.1,226 284.9,227.4 285.7,228.5 286.8,227.8 286.8,227.8 
		285.7,228.5 284.9,227.4 255.1,226 	"/>
	<path class="st0" d="M283.6,225.5c-0.1,0-0.3,0-0.4,0C283.4,225.5,283.5,225.5,283.6,225.5L283.6,225.5z"/>
	<path class="st0" d="M288.5,197.4c0.5-1.4,0.9-2.2,0.9-2.4l0,0C289.4,195.2,289,196.1,288.5,197.4z"/>
	<path class="st0" d="M286.2,141.6C286.2,141.6,286.2,141.6,286.2,141.6c-0.1,0-0.3,0-0.4,0.1c-0.3,0.1-0.5,0.1-0.8,0.2
		c0.3-0.1,0.5-0.2,0.8-0.2C285.9,141.7,286.1,141.7,286.2,141.6z"/>
	<path class="st0" d="M294.8,143.9L294.8,143.9c-0.2,0.2-0.4,0.4-0.6,0.6c0,0,0,0,0,0C294.4,144.4,294.6,144.1,294.8,143.9z"/>
	<path class="st0" d="M289.7,145C289.7,145,289.7,145,289.7,145c0.5,0.6,1,1.2,1.5,1.9c0,0,0,0,0,0c0.6-0.3,1.1-0.7,1.6-1
		c-0.5,0.4-1,0.7-1.6,1C290.7,146.1,290.2,145.5,289.7,145z"/>
	<path class="st0" d="M292.2,143.2L292.2,143.2C292.3,143.1,292.3,143.1,292.2,143.2c0.3-0.2,0.4-0.3,0.5-0.4l0,0
		C292.6,142.8,292.4,143,292.2,143.2L292.2,143.2c-0.8,0.6-1.6,1.2-2.5,1.8c0,0,0,0,0,0C290.6,144.4,291.4,143.8,292.2,143.2z"/>
	<path class="st0" d="M291,142.4c-1.1-0.5-2.3-0.8-3.5-0.8C288.6,141.6,289.9,141.8,291,142.4L291,142.4z"/>
	<polygon class="st0" points="281.6,343.3 279.6,343.5 279.6,343.5 281.6,343.3 280.5,338.7 280.4,338.2 281.4,338 280.4,338.2 
		280.5,338.7 280.5,338.7 	"/>
	<polygon class="st0" points="272.4,288.6 271.2,281.4 271.1,280.9 271.2,281.4 271.2,281.4 	"/>
	<polygon class="st0" points="276.9,337.4 276.9,337.4 271.5,322.8 	"/>
	<path class="st0" d="M289.7,223C289.7,223,289.7,223,289.7,223C289.7,223,289.7,223,289.7,223z"/>
	<polygon class="st0" points="246.3,231.2 243.1,231.2 246.3,231.2 	"/>
	<polygon class="st0" points="323.8,233.2 323.8,233.2 325.2,233.2 325.2,233.2 323.8,233.2 323.8,233.2 323.8,233.2 	"/>
	<path class="st0" d="M288.6,198.8c0.2,1.5,0.4,3.1,0.5,4.9C289,202,288.8,200.3,288.6,198.8z"/>
	<path class="st0" d="M298.1,148.5L298.1,148.5c0,0-0.1,0.1-0.3,0.3c0,0,0,0,0,0C298,148.6,298.1,148.5,298.1,148.5z"/>
	<path class="st0" d="M319.7,251.4c-0.1,1.1-0.2,2.3-0.4,3.3v0c-5.7,1.3-14.7,2.2-23.5-1.7c0,0,0,0,0,0c8.8,3.9,17.8,3,23.5,1.7
		c0,0,0,0,0,0l0,0C319.5,253.6,319.6,252.5,319.7,251.4z"/>
	<polygon class="st0" points="213.9,230 214,229.9 214.2,229.8 214,229.9 214,229.9 213.9,230 	"/>
	<polygon class="st0" points="238.8,228.1 238.8,228.1 238.3,230.6 	"/>
	<polygon class="st0" points="214.5,231.2 213.9,230 213.9,230 213.9,230 212.5,230.8 189.7,200 189.7,200 212.5,230.8 213.9,230 
		214.5,231.2 215.1,230.9 215.2,230.9 	"/>
	<path class="st0" d="M293.9,151.2c-0.9,0.5-1.9,0.9-2.9,1.3C292.1,152.2,293,151.7,293.9,151.2
		C293.9,151.2,293.9,151.2,293.9,151.2z"/>
	<rect x="326.3" y="253.8" class="st0" width="0.2" height="0"/>
	<path class="st0" d="M326.3,250.2C326.3,250.2,326.3,250.2,326.3,250.2c-0.1-6.1-0.5-11.8-1.1-17.1c0,0,0,0,0,0
		C325.8,238.4,326.2,244.1,326.3,250.2c0,1.1,0,2.2,0,3.3l0,0v0C326.3,252.4,326.3,251.3,326.3,250.2z"/>
	<polygon class="st0" points="241.9,343.7 254.7,343.4 254.7,343.3 254.7,343.4 241.9,343.7 	"/>
	<path class="st0" d="M325.5,262.4c0.1-0.7,0.1-1.4,0.1-2.1C325.6,261,325.5,261.7,325.5,262.4z"/>
	<polygon class="st0" points="241,349.4 241,349.4 241.8,349.3 241.8,349.3 241.8,349.3 	"/>
	<path class="st0" d="M325.6,258.4c0,0.6,0,1.2,0,1.9C325.6,259.7,325.6,259,325.6,258.4z"/>
	<polygon class="st0" points="332.6,239.6 335.1,182.2 326.3,181.5 326.3,181.5 335.1,182.2 	"/>
	<polygon class="st0" points="241.3,245.1 241.3,245.8 241.3,245.8 240.3,358.4 240.4,358.4 241.3,245.8 241.3,245.1 	"/>
	<path class="st0" d="M311.8,257.1c0.3,0,0.6,0,0.9-0.1C312.4,257.1,312.1,257.1,311.8,257.1z"/>
	<path class="st0" d="M294.6,253.9L294.6,253.9l0-0.4l0-0.1c0.4-0.1,0.7-0.1,0.7-0.1L295,252l0,0l0.2,1.4l-0.7,0.1l0,0.1
		L294.6,253.9z"/>
	<path class="st0" d="M288.1,254.8c3.1-0.7,5.4-1.1,6.5-1.4C293.4,253.7,291.1,254.1,288.1,254.8z"/>
	<path class="st0" d="M325.2,253.8c0,0.1,0,0.3,0.1,0.6c0,0,0,0,0,0C325.2,254,325.2,253.8,325.2,253.8l-0.7,0.1L325.2,253.8z"/>
	<path class="st0" d="M321.4,255.6c0.1,0,0.3-0.1,0.4-0.1C321.7,255.5,321.5,255.6,321.4,255.6z"/>
	<path class="st0" d="M316.5,256.6c0.3,0,0.5-0.1,0.8-0.1C317.1,256.6,316.8,256.6,316.5,256.6z"/>
	<path class="st0" d="M286.2,255.2c0.6-0.1,1.2-0.3,1.8-0.4C287.4,254.9,286.8,255.1,286.2,255.2z"/>
	<polygon class="st0" points="258.5,270.3 322.5,268.8 322.5,268.8 258.5,270.3 	"/>
	<polygon class="st0" points="329.5,282.7 328.4,300.1 329.5,282.7 329.5,282.7 	"/>
	<path class="st0" d="M319.5,257c0-0.3-0.1-0.6-0.1-0.9c0.1,0,0.1,0,0.2-0.1c-0.1,0-0.3,0.1-0.4,0.1c0.1,0,0.2,0,0.2,0
		C319.4,256.3,319.4,256.6,319.5,257z"/>
	<polygon class="st0" points="260.7,355 261.7,281.2 261.7,281.2 261.7,280.8 260.3,280.8 260.3,280.8 261.7,280.8 261.7,281.2 
		260.7,355 264.7,355 264.7,355 	"/>
	<rect x="264.3" y="237.5" class="st0" width="0" height="6.9"/>
	<polygon class="st0" points="321.9,282.5 321.9,282.5 321.9,281.8 320.5,281.8 320.5,281.8 321.9,281.8 321.9,282.5 321,355 
		325,355 325,355 321,355 	"/>
	<path class="st0" d="M314,257c0.3,0,0.6-0.1,1-0.1C314.6,256.9,314.3,256.9,314,257z"/>
	<path class="st0" d="M323.5,269.9L323.5,269.9c0.2-0.4,0.3-0.7,0.5-1.1l0,0C323.9,269.2,323.7,269.5,323.5,269.9z"/>
	<polygon class="st0" points="255.5,268.3 255.5,268.3 256.5,342 259.5,342.2 259.5,342.2 256.5,342 	"/>
	<path class="st0" d="M324.7,266.7c0.3-1.1,0.5-2.2,0.6-3.2C325.2,264.5,325,265.6,324.7,266.7z"/>
	<polygon class="st0" points="331.8,281.4 297.1,280.6 331.8,281.4 334,269.9 334,269.9 	"/>
	<path class="st1" d="M293.9,151.2c-0.9,0.5-1.9,0.9-2.9,1.3c-2.9,1.1-6,1.7-9.2,1.8c-1.4,0-2.8-0.1-4.2-0.4
		c-0.3,3.2-0.1,6.4,0.5,9.5c2.3,10.6,9.4,18.1,15.8,16.8c1.1-0.2,2.2-0.7,3.1-1.4c0,0,0,0,0,0c0,0,0,0,0,0
		C299.2,166.2,297,157.3,293.9,151.2z"/>
	<polygon class="st1" points="169,245.8 169,357.6 240.3,358.4 241.3,245.8 	"/>
	<path class="st1" d="M292.4,221.6c1.6,14.5,3.2,28.8,3.4,31.4c8.8,3.9,17.8,3,23.5,1.7v0c0.2-1.1,0.3-2.2,0.4-3.3
		c1.9-23.4-12.9-64.8-12.9-64.8l-7.1-2.4c0,0,0,0,0,0l0,0c-4.2,1.1-8.7,2.5-11,4c0.2,1.4,0.8,6.6,1.6,13.2c1.4-2.5,2.6-5.1,3.5-7.8
		l0,0c0,0,0,0,0,0l1.3,0.4c-1.6,5.7-12,22.8-13.7,25.6l3.5,5.4c3.4-3.3,15.1-27.3,15.1-27.3h2.9c0,0,0,0,0,0h0c0,0,0,0,0,0
		c0.1-0.1,0.1-0.2,0.1-0.2l1.3,0.5c0,0,0,0,0,0l0,0c0,0.1-0.8,2.1-2.1,5.2c-1,2.7-2.3,5.4-3.7,7.9c-0.9,1.8-1.9,3.6-3,5.4
		c-0.5,0.9-1.1,1.8-1.6,2.6C293.6,219.9,293,220.8,292.4,221.6L292.4,221.6C292.4,221.6,292.4,221.6,292.4,221.6
		C292.4,221.6,292.4,221.6,292.4,221.6z"/>
	<path class="st1" d="M256.5,342l-1-73.8l0,0l0,0c0,0,44.9-3.2,55.7-3c8.2,0.2,8.5-5.5,8.2-8.2c0-0.3-0.1-0.6-0.1-0.9
		c-0.1,0-0.2,0-0.2,0c-0.6,0.1-1.2,0.2-1.8,0.3c-0.3,0-0.5,0.1-0.8,0.1c-0.5,0.1-1.1,0.2-1.6,0.2c-0.3,0-0.6,0.1-1,0.1
		c-0.4,0-0.8,0.1-1.2,0.1c-0.3,0-0.6,0-0.9,0.1c-0.7,0-1.4,0.1-2.1,0.1c-5.1,0-10.1-1-14.8-3.1l-0.4-0.2v0l0,0l0-0.4l0-0.1
		c-1.1,0.2-3.4,0.7-6.5,1.4c0,0,0,0,0,0c-0.6,0.1-1.2,0.3-1.8,0.4c-11.4,2.6-30.7,7.7-40.5,14.3c0.4,4.8,4.3,51.4,9.4,72.4
		L256.5,342z"/>
	<path class="st1" d="M293.3,150c-0.4-0.7-0.8-1.4-1.3-2.1c-3,1.7-6.3,2.6-9.7,2.5c-1.3,0-2.6-0.1-3.8-0.3c-0.2,0.8-0.4,1.6-0.5,2.4
		c1.3,0.2,2.6,0.3,4,0.3C285.8,152.9,289.8,151.9,293.3,150L293.3,150z"/>
	<polygon class="st1" points="253.3,232.6 214.2,232.5 214.2,236.1 214.2,236.1 214.2,236.1 252.8,236.1 	"/>
	<polygon class="st1" points="260.7,355 264.7,355 269.3,281.4 269.3,281.4 261.7,281.2 261.7,281.2 261.7,281.2 	"/>
	<path class="st1" d="M253.9,225.9l1.2,0.1l0,0l0,0c6.4-0.1,23.2-0.5,28.1-0.5c0.2,0,0.3,0,0.4,0v0l-3.3-5.1l-27.7,2.2L253.9,225.9z
		"/>
	<polygon class="st1" points="241.9,343.7 241.8,349.3 241.8,349.3 241.8,349.3 259.5,347.1 259.5,343.6 259.5,343.6 254.7,343.3 
		254.7,343.3 254.7,343.4 	"/>
	<path class="st1" d="M297.5,183.4c0,0,0.1,0,0.1,0l-0.5-2.9c0,0,0,0,0,0c-0.6,0.4-1.2,0.7-1.9,0.9c-0.3,0.1-0.6,0.2-0.9,0.2
		c-0.3,0.1-0.5,0.1-0.8,0.1c0.1,0.6,0.2,1.7,0.4,2.8c0.1,0,0.2-0.1,0.3-0.1C295.3,184,296.4,183.7,297.5,183.4z"/>
	<path class="st1" d="M288.8,143.9L288.8,143.9c-0.8-0.8-1.6-1.6-2.5-2.3c-0.1,0-0.3,0-0.4,0.1c-0.3,0.1-0.5,0.1-0.8,0.2
		c-1.8,0.6-3.4,1.9-4.4,3.5c0,0,0,0,0,0c0,0,0,0,0,0C283.4,146,286.3,145.5,288.8,143.9z"/>
	<path class="st1" d="M291.2,146.8c-0.5-0.7-1-1.3-1.5-1.9c0,0,0,0,0,0l0,0c0,0,0,0,0,0c-2.1,1.4-4.5,2.1-7,2.2c-1,0-2-0.1-2.9-0.4
		c-0.4,0.7-0.7,1.4-0.9,2.1c0,0,0,0,0,0C283.1,149.6,287.4,148.9,291.2,146.8z"/>
	<path class="st1" d="M325.6,258.4c0,0.6,0,1.2,0,1.9c0,0.7-0.1,1.4-0.1,2.1c0,0.4-0.1,0.7-0.1,1.1c-0.1,1.1-0.3,2.2-0.6,3.2
		c-0.2,0.7-0.4,1.4-0.7,2.1l0,0c0,0,0,0,0,0l7.3-0.2l1.3-29l2.5-57.4l-8.8-0.7c-0.1,5-0.7,34.8-1.1,51.5c0,0,0,0,0,0
		c0.6,5.3,1,11,1.1,17.1c0,0,0,0,0,0c0,0,0,0,0,0h0c0.2,2.3,0.2,3.7,0.2,3.7h0l0,0h-0.2v0.1l-0.4,0.2c0,0-0.2,0.1-0.6,0.3
		c0,0,0,0,0,0c0,0,0,0,0,0C325.4,255.1,325.5,256.6,325.6,258.4z"/>
	<path class="st1" d="M246.4,229.2l0.7,0.8l1.8-1.1l5.5-0.7l0.7-0.9l-1.7-0.1l0,0l0,0C251.3,227.9,248.2,228.7,246.4,229.2z"/>
	<path class="st1" d="M275.7,219.4l4.6-0.4c0.9-1.5,5.3-8.8,8.9-15.3c-0.2-1.7-0.4-3.3-0.5-4.9c-0.1-0.4-0.1-0.9-0.2-1.3
		c-1.4,3.5-4.2,10.1-7.7,15.6c-0.9,1.5-1.9,2.9-3,4.1C277.1,218,276.4,218.7,275.7,219.4z"/>
	<path class="st1" d="M252.5,226.1l-1.3-3.5h0l0,0h-3.1l-7.8,5.1l-0.6,2.5h2.3c0.7-0.7,1.5-1.4,2.3-1.9
		C244.9,228.2,250.4,226.7,252.5,226.1z"/>
	<polygon class="st1" points="251,230.1 251,230.1 251,230.1 249.4,230.3 247.9,231.2 252.4,231.2 	"/>
	<polygon class="st1" points="219.3,227.1 219.3,227.1 219.3,227.1 202.6,198 194.1,197.4 215.2,229.3 	"/>
	<polygon class="st1" points="276.9,337.4 278.2,337.4 269.5,300.1 268.6,315 271.5,322.8 	"/>
	<polygon class="st1" points="264.3,237.5 254,237.5 254,237.5 164.8,237.5 164.8,244.4 264.3,244.4 	"/>
	<polygon class="st1" points="213.9,230 213.9,230 213.9,230 213.9,230 213.9,230 214,229.9 192.6,197.7 189.7,200 212.5,230.8 	"/>
	<path class="st1" d="M245.1,229.8l-0.2-0.2h0c-0.6,0.5-1.2,1-1.8,1.5l3.2,0L245.1,229.8z"/>
	<polygon class="st1" points="238.3,230.6 238.8,228.1 220.4,228.1 215.2,230.9 215.1,230.9 215.2,230.9 214.8,231.1 238.1,231.2 
		238.1,231.1 238.1,231.1 	"/>
	<polygon class="st1" points="279.6,343.5 279.6,343.5 279.6,343.5 278.5,338.7 276.5,338.7 267,340.3 267,340.3 267,340.3 
		266.7,344.8 271.9,344.3 279.6,343.5 	"/>
	<polygon class="st1" points="321.9,282.5 321.9,282.5 321.9,282.5 321,355 325,355 328.4,300.1 329.5,282.7 	"/>
	<polygon class="st1" points="334,269.9 259.8,271.7 259.8,279.8 297.1,280.6 331.8,281.4 	"/>
	<path class="st2" d="M289.7,145c0.5,0.6,1,1.2,1.5,1.9c0.5-0.3,1.1-0.7,1.6-1c0.5-0.4,1-0.8,1.4-1.2c0,0,0,0,0,0c0,0,0,0,0,0
		c0,0,0,0,0,0c-0.6-0.5-1.3-1-1.9-1.5l-0.1,0.1C291.4,143.8,290.6,144.4,289.7,145z"/>
	<polygon class="st2" points="289.7,145 289.7,145 289.7,145 289.7,145 289.7,145 289.7,145 	"/>
	<path class="st2" d="M295.2,145.5c-1,0.9-2,1.8-3.2,2.4c0,0,0,0,0,0l0,0c0.4,0.6,0.9,1.3,1.3,2.1c1.3-0.7,2.5-1.5,3.7-2.4
		C296.4,146.9,295.8,146.2,295.2,145.5z"/>
	<path class="st2" d="M301.6,158.5c-0.7-3.4-2-6.7-3.9-9.7c0,0,0,0,0,0c0,0,0,0,0,0c-1.2,0.9-2.5,1.7-3.8,2.4c0,0,0,0,0,0
		c0,0,0,0,0,0c3.1,6,5.3,14.9,3.2,27.6c0,0,0,0,0,0c2.2-1.7,3.8-4.6,4.6-8.1C302.5,167.1,302.5,162.9,301.6,158.5z"/>
	<path class="st2" d="M288.8,143.9c0.8-0.5,1.5-1,2.2-1.5c-1.1-0.5-2.3-0.8-3.5-0.8c-0.4,0-0.8,0-1.2,0.1c0,0,0,0,0,0c0,0,0,0,0,0
		C287.1,142.3,288,143.1,288.8,143.9z"/>
	<path class="st2" d="M326.5,253.8c0,0-0.1-1.3-0.2-3.7h0c0,0,0,0,0,0c0,1.1,0,2.2,0,3.3v0l0,0v0.3H326.5L326.5,253.8z"/>
	<path class="st2" d="M299.7,184.2l7.1,2.4c0,0,14.8,41.4,12.9,64.8c-0.1,1.2-0.2,2.3-0.4,3.3l0,0c1.9-0.4,3.8-1,5.6-1.7
		c0-6.6-0.4-13.2-1.1-19.8l0,0c0,0,0,0,0,0h0c0,0,0,0,0,0h0c0,0,0,0,0-0.1c0,0,0,0,0,0c-3.4-29.9-13.8-47.9-15.5-50.7
		C307.1,182.6,303.6,183.3,299.7,184.2C299.7,184.2,299.7,184.2,299.7,184.2z"/>
	<path class="st2" d="M319.5,257c0.3,2.8,0,8.4-8.2,8.2c-10.8-0.2-55.7,3-55.7,3l0,0l1,73.8l3,0.2l0.8-61l0,0l-1.9,0v-10.8l0,0v0
		l64.1-1.5c2.2-4.8,1.7-11.6,1.4-14c-0.7,0.2-1.4,0.4-2.1,0.7c-0.1,0-0.3,0.1-0.4,0.1c-0.6,0.2-1.2,0.3-1.8,0.5
		c-0.1,0-0.1,0-0.2,0.1C319.4,256.3,319.4,256.6,319.5,257z"/>
	<path class="st2" d="M297.6,183.4C297.6,183.4,297.6,183.4,297.6,183.4c0.9-0.2,1.8-0.5,2.7-0.7l-1.6-3.4c-0.5,0.5-1,0.9-1.6,1.3
		L297.6,183.4z"/>
	<path class="st2" d="M303.1,197.8h-2.9c0,0-11.8,24-15.1,27.3l0,0l0.9,1.3l0.4,0.6l0,0c1.2-1.3,2.3-2.6,3.4-4c0,0,0,0,0,0
		c0.3-0.4,0.6-0.9,1-1.3C297.7,211.8,302.4,199.6,303.1,197.8C303.1,197.8,303.1,197.8,303.1,197.8z"/>
	<path class="st2" d="M283.6,225.5c-0.1,0-0.3,0-0.4,0c-4.9,0-21.7,0.4-28.1,0.5l0,0l29.8,1.4L283.6,225.5L283.6,225.5L283.6,225.5z
		"/>
	<path class="st2" d="M299.4,209.6c-0.2,0.5-0.5,0.9-0.7,1.4c1.5-2.5,2.7-5.1,3.7-7.9C301.6,205,300.6,207.2,299.4,209.6z"/>
	<polygon class="st2" points="279.6,343.5 281.6,343.3 280.5,338.7 280.5,338.7 278.5,338.7 279.6,343.5 	"/>
	<polygon class="st2" points="271.2,281.4 271.2,281.4 271.2,281.4 270.6,281.4 270.6,281.4 270.6,281.4 269.5,300.1 278.2,337.4 
		280.2,337.4 272.4,288.6 	"/>
	<path d="M277.9,152.6c0.1-0.8,0.3-1.6,0.5-2.4c-0.4-0.1-0.9-0.1-1.3-0.2c-0.2,0.8-0.4,1.6-0.5,2.4
		C277,152.4,277.4,152.5,277.9,152.6L277.9,152.6z"/>
	<path d="M167.6,245.1L167.6,245.1l0,113.8l0.7,0l73.5,0.9l0.1-9.1l0,0l17.6-2.2l0.7-0.1l0,0l-0.7,0.1l-0.1,7.9h6.7l0.6-10.2
		l0.1-1.4l0.3-4.5l0.1-1.4l1.3-20.5l0.2-3.4l0.9-14.9l1.2-18.6l0-0.6l-1.4-0.1l0,0l1.4,0.1l0,0.6l0,0l0.6,0l0,0l-0.1-0.6l0.1,0.6
		l1.2,7.2l7.9,48.7l0,0h-2.1h-1.3h0l-5.4-14.6l-2.9-7.8l0,0l-0.2,3.4l7.1,19.1l0.8-0.1l0,0l-0.8,0.1l-8.4,1.4l-0.1,1.4l0,0l9.5-1.6
		h2h2l-0.1-0.5l1-0.2l-1,0.2l0.1,0.5l1.1,4.5l-2,0.2l0,0l-7.7,0.8l-5.2,0.5l-0.1,1.4l16.6-1.7l-1.6-6.5l0,0l0,0l-9.1-56.4l-0.1-0.8
		l0,0l0.1,0.8l47.9,1l0,0l-0.9,73.9h6.7l4.6-73.6l0-0.6l-1.4-0.1l0,0l1.4,0.1l0,0.6l2.1,0l2.7-14.3l-2.9,0.1l0,0l3.8-87.7l-11.6-0.9
		l0,0.7c0,0.3-0.5,25.2-0.9,43.7c-1.4-8.3-3.4-16.4-6.1-24.3c-4.2-12.2-8.4-18.6-8.6-18.9l-0.2-0.4l-0.4,0.1c-0.3,0-3.2,0.6-6.9,1.4
		c0,0,0,0,0,0l-1.9-4.2l-0.1-0.3l-1.3,0.6l0,0l1.3-0.6l0.2,0.3c3.5-4.3,5-11.9,3.2-19.9c-2.4-11.4-10.3-19.4-17.5-17.8
		c-2.7,0.7-4.9,2.4-6.3,4.7c0.4,0.2,0.9,0.3,1.4,0.4c0,0,0,0,0,0c1-1.7,2.6-2.9,4.4-3.5c0.3-0.1,0.5-0.2,0.8-0.2
		c0.1,0,0.3,0,0.4-0.1c0,0,0,0,0,0c0.4-0.1,0.8-0.1,1.2-0.1c1.2,0,2.4,0.3,3.5,0.8l0,0c-0.7,0.6-1.4,1.1-2.2,1.5h0
		c-2.4,1.6-5.4,2.1-8.2,1.6c0,0,0,0,0,0c-0.5-0.1-0.9-0.2-1.4-0.4c-0.8-0.3-1.6-0.6-2.3-1.1l-0.7,1.2c0.7,0.4,1.5,0.8,2.3,1.1
		c0.4,0.2,0.9,0.3,1.3,0.4c0.9,0.2,1.9,0.4,2.9,0.4c2.5-0.1,4.9-0.8,7-2.1c0,0,0,0,0,0c0,0,0,0,0,0c0.9-0.5,1.7-1.1,2.5-1.8l0.1-0.1
		c0.2-0.1,0.3-0.3,0.4-0.3l0,0c-0.1,0.1-0.3,0.2-0.4,0.3c0,0,0,0,0,0c0.7,0.4,1.3,0.9,1.9,1.5c0,0,0,0,0,0c0.2-0.2,0.4-0.4,0.6-0.6
		l0,0c-0.2,0.2-0.4,0.4-0.6,0.6c0,0,0,0,0,0c-0.4,0.4-0.9,0.9-1.4,1.2c-0.5,0.4-1,0.7-1.6,1c0,0,0,0,0,0c-3.8,2-8.1,2.7-12.4,2
		c0,0,0,0,0,0c0,0,0,0,0,0c0.3-0.7,0.6-1.4,0.9-2.1c-0.4-0.1-0.9-0.3-1.3-0.4c-0.4,0.7-0.7,1.5-1,2.3c-0.8-0.1-1.5-0.3-2.4-0.6
		l-0.4,1.3c0.8,0.2,1.6,0.4,2.3,0.6c0.5,0.1,0.9,0.2,1.3,0.2c1.3,0.2,2.6,0.3,3.8,0.3c3.4,0.1,6.8-0.8,9.7-2.5c0,0,0,0,0,0
		c1.2-0.7,2.2-1.5,3.2-2.4c0.6,0.7,1.2,1.4,1.8,2.1c-1.1,0.9-2.4,1.7-3.7,2.4c0,0,0,0,0,0l0,0l0,0c-3.5,1.9-7.5,2.9-11.4,2.9
		c-1.3,0-2.7-0.1-4-0.3c-0.4-0.1-0.9-0.2-1.3-0.3c-1-0.2-1.9-0.5-2.9-0.9l-0.5,1.3c1,0.4,2.1,0.7,3.1,1c0.5,0.1,0.9,0.2,1.3,0.3
		c0,0,0,0,0,0c1.4,0.2,2.8,0.4,4.2,0.4c3.2,0,6.3-0.6,9.2-1.8c1-0.4,1.9-0.8,2.9-1.3c0,0,0,0,0,0c1.3-0.7,2.6-1.5,3.8-2.4
		c0.2-0.2,0.3-0.3,0.3-0.3l0,0c0,0-0.1,0.1-0.3,0.3c0,0,0,0,0,0c1.8,3,3.2,6.2,3.9,9.7c0.9,4.4,0.9,8.6,0.1,12.2
		c-0.8,3.6-2.4,6.4-4.6,8.1c-0.9,0.7-1.9,1.2-3.1,1.4c-6.4,1.4-13.5-6.1-15.8-16.8c-0.7-3.1-0.9-6.3-0.5-9.5
		c-0.4-0.1-0.9-0.2-1.3-0.3c-0.4,3.4-0.2,6.8,0.5,10.1c2.2,10.2,8.8,17.7,15.3,18c0-0.3-0.1-0.5-0.1-0.7h0c0,0.1,0,0.4,0.1,0.7
		c0.1,0.9,0.3,2.3,0.4,3.2c-1.8,0.6-3.4,1.4-5,2.5l-0.3,0.2l0.1,0.4c0,0,0.3,2.6,0.8,6.5h0c-0.1,0.2-7.5,20.5-15,25c0,0,0,0,0,0
		l-21.5,1.7v0h-4l-8.3,5.5h0.2v1.4h0v-1.4h-19l-17.2-30l-10.9-0.7l-4.7,3.8l24.3,33l0.7-0.4l2-1.2l0,0l0.3-0.2l0,0l-0.6,0.3
		l-0.6-1.2l-1.4,0.8L189.7,200l0,0l2.9-2.3l21.4,32.3l0,0l0.2-0.1l-0.2,0.1l-0.1,0l0,0l0,0l0,0l0.6,1.2l0.6-0.3l5.2-2.8h18.4h0
		l-0.6,2.5l-0.1,0.6h0l5,0c0.5-0.6,1.1-1.1,1.8-1.5h0l0,0l0.2,0.2l1.2,1.3l0,0l-3.2,0l-5,0l-23.3-0.1l-2,1.2v3.8h1.4h0v-3.7v0
		l39.1,0.1l-0.5,3.5h1.4l0.7-4.9h-0.2l-0.8,1.1l-1.4-1.1l-4.5,0l0,0l1.5-0.9l1.6-0.2l0,0l-0.3-0.3l0,0l0.3,0.3l1.5,1.1l1.4,1.1
		l0.8-1.1l-1.8-1.4l2.2-0.3l1.7-2.1l0.2-0.3l0,0l-0.2,0.3l29.6,1.4l0.2-0.2c1.6-1.7,3.1-3.5,4.5-5.4c0.4-0.6,0.8-1.1,1.2-1.7l0,0
		c0.6-0.8,1.1-1.7,1.7-2.6c0.5-0.9,1.1-1.7,1.6-2.6c1-1.8,2-3.6,3-5.4c0,0,0,0,0,0c0.3-0.5,0.5-1,0.7-1.4c1.2-2.4,2.2-4.6,3-6.4
		c1.3-3.1,2.1-5.1,2.1-5.2c0,0,0,0,0,0l-1.3-0.5c0,0,0,0.1-0.1,0.2c0,0,0,0,0,0c-0.7,1.8-5.4,14.1-12.4,23.9c-0.3,0.4-0.6,0.9-1,1.3
		c0,0,0,0,0,0c-1.1,1.4-2.2,2.8-3.4,4l0,0l-0.4-0.6l-0.9-1.3l-3.5-5.4l-0.2-0.4l-0.5,0.4l0.5-0.4l0.2,0.4c1.7-2.8,12-19.9,13.7-25.6
		l-1.3-0.4l0,0c-1,2.7-2.1,5.3-3.5,7.8c0,0,0,0,0,0c-0.4,0.7-0.8,1.4-1.2,2.2c-3.6,6.6-7.9,13.8-8.9,15.3l-4.6,0.4
		c-0.6,0.6-1.3,1.1-2.1,1.5l-0.7-1.2c0,0,0,0,0,0l0.7,1.2c0.7-0.4,1.4-0.9,2.1-1.5c0.7-0.6,1.4-1.4,2.1-2.2c1-1.2,2-2.6,3-4.1
		c3.5-5.4,6.3-12.1,7.7-15.6c0,0.4,0.1,0.9,0.2,1.3c0.2,1.5,0.4,3.2,0.5,4.9c0.4-0.7,0.8-1.5,1.2-2.2c-0.7-6.6-1.4-11.8-1.6-13.2
		c2.3-1.6,6.8-3,11-4c3.8-1,7.4-1.7,8.6-1.9c0,0,0,0,0,0c1.7,2.8,12,20.8,15.5,50.7c0,0,0,0,0,0c0,0,0,0,0,0.1h0h0l1.4,0
		c0,0,0,0,0,0l-1.4,0l0,0c0.7,6.6,1.1,13.2,1.1,19.8c-1.8,0.7-3.7,1.3-5.6,1.7c0,0,0,0,0,0c-5.7,1.3-14.7,2.2-23.5-1.7c0,0,0,0,0,0
		c-0.3-2.5-1.8-16.9-3.4-31.4c0,0,0,0,0,0c-0.4,0.6-0.8,1.1-1.2,1.7c1.4,12.5,2.7,24.7,3.2,28.8c0,0,0,0,0,0c-2.2,0.4-10,2-19.1,4.4
		c-14.3,3.9-24.6,8-30.6,12.2l-0.3,0.2l0,0.4c0,0.5,4.1,50.4,9.4,72.7l0.9,0v0l-0.9,0l-11.9,0.3l-0.7,0l0,0l0.7,0l0.8-96.5h23v-9.7
		h-12.9h-38.6l0,0h-50.8v9.7h4.1V245.1z M276.5,338.7L276.5,338.7l0-0.2L276.5,338.7z M291.7,141.8
		C291.7,141.8,291.7,141.8,291.7,141.8C291.7,141.8,291.7,141.8,291.7,141.8z M291.9,141.6C291.9,141.6,291.9,141.6,291.9,141.6
		l0.4,0.6L291.9,141.6z M194.1,197.4L194.1,197.4l8.5,0.6l16.7,29.1l0,0l0.6-0.3l0,0l-0.6,0.3l-4.1,2.1l0,0L194.1,197.4z
		 M239.8,230.2L239.8,230.2l0.6-2.5l7.8-5.1h0h3.1h0.5l0-0.3v0.3h-0.5h0l1.3,3.5c-2.1,0.6-7.6,2.1-8.1,2.2c-0.9,0.5-1.6,1.2-2.3,1.9
		H239.8z M254.4,228.3l-5.5,0.7l-1.8,1.1l-0.7-0.8l-0.7-0.8l-1,0.9l0,0l1-0.9l0.7,0.8c1.8-0.5,4.9-1.3,7.1-1.9l0.1,0l0,0l-0.1,0l0,0
		l1.7,0.1h0L254.4,228.3z M280.3,220.4L280.3,220.4L280.3,220.4l3.3,5.1l1.3,2l0.7,1.1l1.2-0.8l0,0l-1.2,0.8l-0.7-1.1l-29.8-1.4
		l-1.2-0.1l0,0l-1.2-3.3l0,0L280.3,220.4z M288.5,197.4c0.5-1.4,0.9-2.2,0.9-2.4l0,0C289.4,195.2,289.1,196.1,288.5,197.4z
		 M293.9,184.5c-0.1-1.1-0.3-2.1-0.4-2.8c0.3,0,0.5-0.1,0.8-0.1c0.3-0.1,0.6-0.2,0.9-0.2c0.7-0.2,1.3-0.5,1.9-0.9c0,0,0,0,0,0
		c0.6-0.4,1.1-0.8,1.6-1.3l0,0l0,0l1.6,3.4c-0.9,0.2-1.8,0.5-2.7,0.7c0,0,0,0,0,0c0,0-0.1,0-0.1,0c-1.1,0.3-2.2,0.6-3.2,1
		C294.1,184.4,294,184.4,293.9,184.5C293.9,184.5,293.9,184.5,293.9,184.5z M241.1,350.2l0.1,0.6l0,0L241.1,350.2z M260.7,355
		l1-73.8l0-0.5l-1.4,0l0,0l1.4,0l0,0.5v0l7.6,0.2l0,0l-4.5,73.6l0,0H260.7z M328.4,300.1L325,355l0,0h-4l0.9-72.4l0-0.7l-1.4,0v0
		l1.4,0l0,0.7l0,0l7.6,0.2h0l0,0L328.4,300.1z M331.8,281.4l-34.7-0.8l-37.3-0.8v-8.1l74.1-1.8h0L331.8,281.4z M325.2,253.8
		c0,0.1,0,0.3,0.1,0.6c0,0,0,0,0,0c0.4-0.2,0.6-0.2,0.6-0.3l0.4-0.2v-0.1v0v-0.3l0,0l0,0c0-1.1,0-2.2,0-3.3
		c-0.1-6.1-0.5-11.8-1.1-17.1c0,0,0,0,0,0c0,0,0,0,0,0c0.4-16.7,1-46.5,1.1-51.5c0,0,0,0,0,0l8.8,0.7l-2.5,57.4l-1.3,29l-7.3,0.2
		c0,0,0,0,0,0c-0.2,0.4-0.3,0.7-0.5,1.1l0,0c0.2-0.4,0.3-0.7,0.5-1.1c0.3-0.7,0.5-1.4,0.7-2.1c0.3-1.1,0.5-2.2,0.6-3.2
		c0-0.4,0.1-0.7,0.1-1.1c0.1-0.7,0.1-1.4,0.1-2.1c0-0.7,0-1.3,0-1.9c0-1.8-0.2-3.3-0.3-4.1C325.2,254,325.2,253.8,325.2,253.8
		l-0.7,0.1L325.2,253.8z M286.2,255.2c0.6-0.1,1.2-0.3,1.8-0.4c0,0,0,0,0,0c3.1-0.7,5.4-1.1,6.5-1.4l0.7-0.1L295,252l0,0l0.2,1.4
		c0,0-0.3,0-0.7,0.1l0,0.1l0,0.4v0l0.4,0.2c4.6,2.1,9.7,3.2,14.8,3.1c0.7,0,1.4,0,2.1-0.1c0.3,0,0.6,0,0.9-0.1
		c0.4,0,0.8-0.1,1.2-0.1c0.3,0,0.6-0.1,1-0.1c0.5-0.1,1.1-0.1,1.6-0.2c0.3,0,0.5-0.1,0.8-0.1c0.6-0.1,1.2-0.2,1.8-0.3
		c0.1,0,0.3-0.1,0.4-0.1c0.6-0.1,1.2-0.3,1.8-0.5c0.1,0,0.3-0.1,0.4-0.1c0.7-0.2,1.4-0.4,2.1-0.7c0.3,2.4,0.8,9.2-1.4,14
		c0,0,0,0,0,0l-64.1,1.5l0,0v10.8l1.9,0l0,0l-0.8,61l0,0l-3-0.2l-1.3-0.1c-5.1-21-9-67.6-9.4-72.4
		C255.5,262.9,274.8,257.8,286.2,255.2z M254.7,343.4L254.7,343.4L254.7,343.4l4.8,0.2l0,0l0,3.5l-17.6,2.2l0,0l-0.8,0.1l0,0
		l0.8-0.1l0,0l0-5.6v0L254.7,343.4z M240.4,358.4L240.4,358.4l-71.4-0.9V245.8h72.4h0l0-0.7h0l0,0.7L240.4,358.4z M164.8,237.5H254
		h0h10.3h0v6.9h0h-99.5V237.5z"/>
</g>
</svg>
