<?xml version="1.0" encoding="UTF-8" standalone="no"?>
<!-- Generator: Adobe Illustrator 27.8.1, SVG Export Plug-In . SVG Version: 6.00 Build 0)  -->

<svg
   version="1.1"
   id="Layer_1"
   x="0px"
   y="0px"
   viewBox="0 0 253.99999 220"
   xml:space="preserve"
   sodipodi:docname="Register.svg"
   width="254"
   height="220"
   inkscape:version="1.1.2 (0a00cf5339, 2022-02-04)"
   xmlns:inkscape="http://www.inkscape.org/namespaces/inkscape"
   xmlns:sodipodi="http://sodipodi.sourceforge.net/DTD/sodipodi-0.dtd"
   xmlns="http://www.w3.org/2000/svg"
   xmlns:svg="http://www.w3.org/2000/svg"><defs
   id="defs1515" /><sodipodi:namedview
   id="namedview1513"
   pagecolor="#ffffff"
   bordercolor="#666666"
   borderopacity="1.0"
   inkscape:pageshadow="2"
   inkscape:pageopacity="0.0"
   inkscape:pagecheckerboard="0"
   showgrid="false"
   inkscape:zoom="1.742"
   inkscape:cx="250"
   inkscape:cy="66.590126"
   inkscape:window-width="1916"
   inkscape:window-height="1029"
   inkscape:window-x="1920"
   inkscape:window-y="49"
   inkscape:window-maximized="1"
   inkscape:current-layer="Layer_1" />
<style
   type="text/css"
   id="style1296">
	.st0{fill:none;}
	.st1{fill:#FFFFFF;}
	.st2{fill:#27AAE1;}
</style>
<g
   id="g1510"
   transform="translate(-123.05,-139.99813)">
	<polygon
   class="st0"
   points="276.5,338.7 276.5,338.5 "
   id="polygon1298" />
	<path
   class="st0"
   d="m 291.6,141.8 c 0.1,0 0.1,0 0,0 0.1,0 0.1,0 0,0 z"
   id="path1300" />
	<polygon
   class="st0"
   points="251.7,222.3 251.7,222.6 251.2,222.6 251.7,222.6 "
   id="polygon1302" />
	<path
   class="st0"
   d="m 299.7,184.2 v 0 c 3.9,-1 7.4,-1.6 8.6,-1.9 0,0 0,0 0,0 -1.2,0.3 -4.7,0.9 -8.6,1.9 -4.2,1.1 -8.7,2.5 -11,4 0.2,1.4 0.8,6.6 1.6,13.2 -0.4,0.7 -0.8,1.4 -1.2,2.2 -3.6,6.6 -7.9,13.8 -8.9,15.3 l -4.6,0.4 c 0.7,-0.6 1.4,-1.4 2.1,-2.2 -0.7,0.8 -1.4,1.6 -2.1,2.2 -0.6,0.6 -1.3,1.1 -2.1,1.5 l -0.7,-1.2 c 0,0 0,0 0,0 l 0.7,1.2 c 0.7,-0.4 1.4,-0.9 2.1,-1.5 l 4.6,-0.4 c 0.9,-1.5 5.3,-8.8 8.9,-15.3 0.4,-0.7 0.8,-1.5 1.2,-2.2 0,0 0,0 0,0 -0.7,-6.6 -1.4,-11.8 -1.6,-13.2 2.3,-1.5 6.9,-2.9 11,-4 z"
   id="path1304" />
	<polygon
   class="st0"
   points="291.9,141.6 292.3,142.2 "
   id="polygon1306" />
	<path
   class="st0"
   d="m 290.7,221.7 c 7,-9.9 11.8,-22.1 12.4,-23.9 v 0 c -0.7,1.8 -5.4,14 -12.4,23.9 z"
   id="path1308" />
	<path
   class="st0"
   d="m 285.1,225.1 -3.5,-5.4 c 1.7,-2.8 12,-19.9 13.7,-25.6 l -1.3,-0.4 c 0,0 0,0 0,0 l 1.3,0.4 c -1.6,5.7 -11.9,22.8 -13.7,25.6 l -0.2,-0.4 -0.5,0.4 0.5,-0.4 0.2,0.4 3.5,5.4 0.9,1.3 z"
   id="path1310" />
	<path
   class="st0"
   d="m 302.4,203.2 c 1.3,-3.1 2.1,-5.1 2.1,-5.2 v 0 c 0,0.1 -0.8,2.1 -2.1,5.2 -0.8,1.8 -1.8,4 -3,6.4 1.2,-2.4 2.2,-4.6 3,-6.4 -1,2.7 -2.3,5.3 -3.7,7.9 0,0 0,0 0,0 -0.9,1.8 -1.9,3.6 -3,5.4 1,-1.8 2,-3.6 3,-5.4 1.4,-2.6 2.7,-5.2 3.7,-7.9 z"
   id="path1312" />
	<path
   class="st0"
   d="m 252.8,236.1 h 12.9 v 9.7 h -23 l -0.8,96.5 h -0.7 v 0 h 0.7 l 11.9,-0.3 h 0.9 v 0 h -0.9 c -5.4,-22.3 -9.4,-72.2 -9.4,-72.7 v -0.4 l 0.3,-0.2 c 6,-4.2 16.3,-8.3 30.6,-12.2 9.1,-2.5 17,-4 19.1,-4.4 0,0 0,0 0,0 -0.4,-4.1 -1.8,-16.2 -3.2,-28.8 0.4,-0.6 0.8,-1.1 1.2,-1.7 0,0 0,0 0,0 -0.4,0.6 -0.8,1.1 -1.2,1.7 -1.4,1.9 -2.9,3.7 -4.5,5.4 l -0.2,0.2 -29.6,-1.4 0.2,-0.3 v 0 l -0.2,0.3 -1.7,2.1 -2.2,0.3 1.8,1.4 -0.8,1.1 -1.4,-1.1 -1.5,-1.1 -0.3,-0.3 v 0 l 0.3,0.3 v 0 l 1.5,1.1 h -4.5 v 0 h 4.5 l 1.4,1.1 0.8,-1.1 h 0.2 l -0.7,4.9 -1.5,-0.1 0.5,-3.5 -39.1,-0.1 v 0 l 39.1,0.1 z"
   id="path1314" />
	<polygon
   class="st0"
   points="194.1,197.4 194.1,197.4 215.2,229.3 215.2,229.3 219.3,227.1 219.9,226.8 219.3,227.1 215.2,229.3 "
   id="polygon1316" />
	<path
   class="st0"
   d="m 294.3,181.6 c 0.3,-0.1 0.6,-0.2 0.9,-0.2 -0.3,0 -0.6,0.1 -0.9,0.2 z"
   id="path1318" />
	<polygon
   class="st0"
   points="241.2,350.8 241.1,350.2 "
   id="polygon1320" />
	<path
   class="st0"
   d="m 297.5,183.4 c 0,0 0.1,0 0.1,0 l -0.5,-2.9 c 0.6,-0.4 1.1,-0.8 1.6,-1.3 v 0 0 c -0.5,0.5 -1,0.9 -1.6,1.3 l 0.5,2.9 c 0,0 -0.1,0 -0.1,0 z"
   id="path1322" />
	<path
   class="st0"
   d="m 293.9,184.5 c 0,0 0,0 0,0 0.1,0 0.2,-0.1 0.3,-0.1 -0.1,0 -0.2,0 -0.3,0.1 z"
   id="path1324" />
	<polygon
   class="st0"
   points="252.7,222.6 280.3,220.4 "
   id="polygon1326" />
	<polygon
   class="st0"
   points="248.1,222.6 240.3,227.8 239.8,230.2 240.3,227.8 "
   id="polygon1328" />
	<path
   class="st0"
   d="m 255.2,227.4 -0.7,0.9 -5.5,0.7 -1.8,1.1 -0.7,-0.8 c 1.8,-0.5 4.9,-1.3 7.1,-1.9 v 0 h 0.1 v 0 h -0.1 c -2.2,0.6 -5.3,1.4 -7.1,1.9 l -0.7,-0.8 -1,0.9 v 0 l 1,-0.9 0.7,0.8 0.7,0.8 1.8,-1.1 5.5,-0.7 z"
   id="path1330" />
	<polygon
   class="st0"
   points="286.8,227.8 286.8,227.8 285.7,228.5 284.9,227.4 255.1,226 253.9,225.9 255.1,226 284.9,227.4 285.7,228.5 "
   id="polygon1332" />
	<path
   class="st0"
   d="m 283.6,225.5 c -0.1,0 -0.3,0 -0.4,0 0.2,0 0.3,0 0.4,0 z"
   id="path1334" />
	<path
   class="st0"
   d="m 288.5,197.4 c 0.5,-1.4 0.9,-2.2 0.9,-2.4 v 0 c 0,0.2 -0.4,1.1 -0.9,2.4 z"
   id="path1336" />
	<path
   class="st0"
   d="m 286.2,141.6 c 0,0 0,0 0,0 -0.1,0 -0.3,0 -0.4,0.1 -0.3,0.1 -0.5,0.1 -0.8,0.2 0.3,-0.1 0.5,-0.2 0.8,-0.2 0.1,0 0.3,0 0.4,-0.1 z"
   id="path1338" />
	<path
   class="st0"
   d="m 294.8,143.9 v 0 c -0.2,0.2 -0.4,0.4 -0.6,0.6 0,0 0,0 0,0 0.2,-0.1 0.4,-0.4 0.6,-0.6 z"
   id="path1340" />
	<path
   class="st0"
   d="m 289.7,145 c 0,0 0,0 0,0 0.5,0.6 1,1.2 1.5,1.9 0,0 0,0 0,0 0.6,-0.3 1.1,-0.7 1.6,-1 -0.5,0.4 -1,0.7 -1.6,1 -0.5,-0.8 -1,-1.4 -1.5,-1.9 z"
   id="path1342" />
	<path
   class="st0"
   d="m 292.2,143.2 v 0 c 0.1,-0.1 0.1,-0.1 0,0 0.3,-0.2 0.4,-0.3 0.5,-0.4 v 0 c -0.1,0 -0.3,0.2 -0.5,0.4 v 0 c -0.8,0.6 -1.6,1.2 -2.5,1.8 0,0 0,0 0,0 0.9,-0.6 1.7,-1.2 2.5,-1.8 z"
   id="path1344" />
	<path
   class="st0"
   d="m 291,142.4 c -1.1,-0.5 -2.3,-0.8 -3.5,-0.8 1.1,0 2.4,0.2 3.5,0.8 z"
   id="path1346" />
	<polygon
   class="st0"
   points="281.4,338 280.4,338.2 280.5,338.7 280.5,338.7 281.6,343.3 279.6,343.5 281.6,343.3 280.5,338.7 280.4,338.2 "
   id="polygon1348" />
	<polygon
   class="st0"
   points="271.2,281.4 271.1,280.9 271.2,281.4 272.4,288.6 "
   id="polygon1350" />
	<polygon
   class="st0"
   points="271.5,322.8 276.9,337.4 "
   id="polygon1352" />
	<path
   class="st0"
   d="m 289.7,223 c 0,0 0,0 0,0 0,0 0,0 0,0 z"
   id="path1354" />
	<polygon
   class="st0"
   points="246.3,231.2 243.1,231.2 "
   id="polygon1356" />
	<polygon
   class="st0"
   points="323.8,233.2 325.2,233.2 "
   id="polygon1358" />
	<path
   class="st0"
   d="m 288.6,198.8 c 0.2,1.5 0.4,3.1 0.5,4.9 -0.1,-1.7 -0.3,-3.4 -0.5,-4.9 z"
   id="path1360" />
	<path
   class="st0"
   d="m 298.1,148.5 v 0 c 0,0 -0.1,0.1 -0.3,0.3 0,0 0,0 0,0 0.2,-0.2 0.3,-0.3 0.3,-0.3 z"
   id="path1362" />
	<path
   class="st0"
   d="m 319.7,251.4 c -0.1,1.1 -0.2,2.3 -0.4,3.3 v 0 c -5.7,1.3 -14.7,2.2 -23.5,-1.7 0,0 0,0 0,0 8.8,3.9 17.8,3 23.5,1.7 0,0 0,0 0,0 v 0 c 0.2,-1.1 0.3,-2.2 0.4,-3.3 z"
   id="path1364" />
	<polygon
   class="st0"
   points="214,229.9 214.2,229.8 214,229.9 213.9,230 "
   id="polygon1366" />
	<polygon
   class="st0"
   points="238.3,230.6 238.8,228.1 "
   id="polygon1368" />
	<polygon
   class="st0"
   points="189.7,200 212.5,230.8 213.9,230 214.5,231.2 215.1,230.9 215.2,230.9 214.5,231.2 213.9,230 212.5,230.8 189.7,200 "
   id="polygon1370" />
	<path
   class="st0"
   d="m 293.9,151.2 c -0.9,0.5 -1.9,0.9 -2.9,1.3 1.1,-0.3 2,-0.8 2.9,-1.3 0,0 0,0 0,0 z"
   id="path1372" />
	<rect
   x="326.29999"
   y="253.8"
   class="st0"
   width="0.2"
   height="0"
   id="rect1374" />
	<path
   class="st0"
   d="m 326.3,250.2 c 0,0 0,0 0,0 -0.1,-6.1 -0.5,-11.8 -1.1,-17.1 0,0 0,0 0,0 0.6,5.3 1,11 1.1,17.1 0,1.1 0,2.2 0,3.3 v 0 0 c 0,-1.1 0,-2.2 0,-3.3 z"
   id="path1376" />
	<polygon
   class="st0"
   points="254.7,343.3 254.7,343.4 241.9,343.7 254.7,343.4 "
   id="polygon1378" />
	<path
   class="st0"
   d="m 325.5,262.4 c 0.1,-0.7 0.1,-1.4 0.1,-2.1 0,0.7 -0.1,1.4 -0.1,2.1 z"
   id="path1380" />
	<polygon
   class="st0"
   points="241.8,349.3 241,349.4 "
   id="polygon1382" />
	<path
   class="st0"
   d="m 325.6,258.4 c 0,0.6 0,1.2 0,1.9 0,-0.6 0,-1.3 0,-1.9 z"
   id="path1384" />
	<polygon
   class="st0"
   points="335.1,182.2 326.3,181.5 335.1,182.2 332.6,239.6 "
   id="polygon1386" />
	<polygon
   class="st0"
   points="241.3,245.1 241.3,245.8 240.3,358.4 240.4,358.4 241.3,245.8 "
   id="polygon1388" />
	<path
   class="st0"
   d="m 311.8,257.1 c 0.3,0 0.6,0 0.9,-0.1 -0.3,0.1 -0.6,0.1 -0.9,0.1 z"
   id="path1390" />
	<path
   class="st0"
   d="m 294.6,253.9 v 0 -0.4 -0.1 c 0.4,-0.1 0.7,-0.1 0.7,-0.1 L 295,252 v 0 l 0.2,1.4 -0.7,0.1 v 0.1 z"
   id="path1392" />
	<path
   class="st0"
   d="m 288.1,254.8 c 3.1,-0.7 5.4,-1.1 6.5,-1.4 -1.2,0.3 -3.5,0.7 -6.5,1.4 z"
   id="path1394" />
	<path
   class="st0"
   d="m 325.2,253.8 c 0,0.1 0,0.3 0.1,0.6 0,0 0,0 0,0 -0.1,-0.4 -0.1,-0.6 -0.1,-0.6 l -0.7,0.1 z"
   id="path1396" />
	<path
   class="st0"
   d="m 321.4,255.6 c 0.1,0 0.3,-0.1 0.4,-0.1 -0.1,0 -0.3,0.1 -0.4,0.1 z"
   id="path1398" />
	<path
   class="st0"
   d="m 316.5,256.6 c 0.3,0 0.5,-0.1 0.8,-0.1 -0.2,0.1 -0.5,0.1 -0.8,0.1 z"
   id="path1400" />
	<path
   class="st0"
   d="m 286.2,255.2 c 0.6,-0.1 1.2,-0.3 1.8,-0.4 -0.6,0.1 -1.2,0.3 -1.8,0.4 z"
   id="path1402" />
	<polygon
   class="st0"
   points="322.5,268.8 258.5,270.3 "
   id="polygon1404" />
	<polygon
   class="st0"
   points="329.5,282.7 328.4,300.1 "
   id="polygon1406" />
	<path
   class="st0"
   d="m 319.5,257 c 0,-0.3 -0.1,-0.6 -0.1,-0.9 0.1,0 0.1,0 0.2,-0.1 -0.1,0 -0.3,0.1 -0.4,0.1 0.1,0 0.2,0 0.2,0 0,0.2 0,0.5 0.1,0.9 z"
   id="path1408" />
	<polygon
   class="st0"
   points="261.7,280.8 261.7,281.2 260.7,355 264.7,355 264.7,355 260.7,355 261.7,281.2 261.7,280.8 260.3,280.8 "
   id="polygon1410" />
	<rect
   x="264.29999"
   y="237.5"
   class="st0"
   width="0"
   height="6.9000001"
   id="rect1412" />
	<polygon
   class="st0"
   points="321.9,282.5 321,355 325,355 325,355 321,355 321.9,282.5 321.9,281.8 320.5,281.8 321.9,281.8 "
   id="polygon1414" />
	<path
   class="st0"
   d="m 314,257 c 0.3,0 0.6,-0.1 1,-0.1 -0.4,0 -0.7,0 -1,0.1 z"
   id="path1416" />
	<path
   class="st0"
   d="m 323.5,269.9 v 0 c 0.2,-0.4 0.3,-0.7 0.5,-1.1 v 0 c -0.1,0.4 -0.3,0.7 -0.5,1.1 z"
   id="path1418" />
	<polygon
   class="st0"
   points="255.5,268.3 256.5,342 259.5,342.2 256.5,342 "
   id="polygon1420" />
	<path
   class="st0"
   d="m 324.7,266.7 c 0.3,-1.1 0.5,-2.2 0.6,-3.2 -0.1,1 -0.3,2.1 -0.6,3.2 z"
   id="path1422" />
	<polygon
   class="st0"
   points="297.1,280.6 331.8,281.4 334,269.9 331.8,281.4 "
   id="polygon1424" />
	<path
   class="st1"
   d="m 293.9,151.2 c -0.9,0.5 -1.9,0.9 -2.9,1.3 -2.9,1.1 -6,1.7 -9.2,1.8 -1.4,0 -2.8,-0.1 -4.2,-0.4 -0.3,3.2 -0.1,6.4 0.5,9.5 2.3,10.6 9.4,18.1 15.8,16.8 1.1,-0.2 2.2,-0.7 3.1,-1.4 0,0 0,0 0,0 0,0 0,0 0,0 2.2,-12.6 0,-21.5 -3.1,-27.6 z"
   id="path1426" />
	<polygon
   class="st1"
   points="240.3,358.4 241.3,245.8 169,245.8 169,357.6 "
   id="polygon1428" />
	<path
   class="st1"
   d="m 292.4,221.6 c 1.6,14.5 3.2,28.8 3.4,31.4 8.8,3.9 17.8,3 23.5,1.7 v 0 c 0.2,-1.1 0.3,-2.2 0.4,-3.3 1.9,-23.4 -12.9,-64.8 -12.9,-64.8 l -7.1,-2.4 c 0,0 0,0 0,0 v 0 c -4.2,1.1 -8.7,2.5 -11,4 0.2,1.4 0.8,6.6 1.6,13.2 1.4,-2.5 2.6,-5.1 3.5,-7.8 v 0 c 0,0 0,0 0,0 l 1.3,0.4 c -1.6,5.7 -12,22.8 -13.7,25.6 l 3.5,5.4 c 3.4,-3.3 15.1,-27.3 15.1,-27.3 h 2.9 c 0,0 0,0 0,0 v 0 c 0,0 0,0 0,0 0.1,-0.1 0.1,-0.2 0.1,-0.2 l 1.3,0.5 c 0,0 0,0 0,0 v 0 c 0,0.1 -0.8,2.1 -2.1,5.2 -1,2.7 -2.3,5.4 -3.7,7.9 -0.9,1.8 -1.9,3.6 -3,5.4 -0.5,0.9 -1.1,1.8 -1.6,2.6 -0.3,0.8 -0.9,1.7 -1.5,2.5 v 0 c 0,0 0,0 0,0 0,0 0,0 0,0 z"
   id="path1430" />
	<path
   class="st1"
   d="m 256.5,342 -1,-73.8 v 0 0 c 0,0 44.9,-3.2 55.7,-3 8.2,0.2 8.5,-5.5 8.2,-8.2 0,-0.3 -0.1,-0.6 -0.1,-0.9 -0.1,0 -0.2,0 -0.2,0 -0.6,0.1 -1.2,0.2 -1.8,0.3 -0.3,0 -0.5,0.1 -0.8,0.1 -0.5,0.1 -1.1,0.2 -1.6,0.2 -0.3,0 -0.6,0.1 -1,0.1 -0.4,0 -0.8,0.1 -1.2,0.1 -0.3,0 -0.6,0 -0.9,0.1 -0.7,0 -1.4,0.1 -2.1,0.1 -5.1,0 -10.1,-1 -14.8,-3.1 l -0.4,-0.2 v 0 0 -0.4 -0.1 c -1.1,0.2 -3.4,0.7 -6.5,1.4 0,0 0,0 0,0 -0.6,0.1 -1.2,0.3 -1.8,0.4 -11.4,2.6 -30.7,7.7 -40.5,14.3 0.4,4.8 4.3,51.4 9.4,72.4 z"
   id="path1432" />
	<path
   class="st1"
   d="m 293.3,150 c -0.4,-0.7 -0.8,-1.4 -1.3,-2.1 -3,1.7 -6.3,2.6 -9.7,2.5 -1.3,0 -2.6,-0.1 -3.8,-0.3 -0.2,0.8 -0.4,1.6 -0.5,2.4 1.3,0.2 2.6,0.3 4,0.3 3.8,0.1 7.8,-0.9 11.3,-2.8 z"
   id="path1434" />
	<polygon
   class="st1"
   points="253.3,232.6 214.2,232.5 214.2,236.1 252.8,236.1 "
   id="polygon1436" />
	<polygon
   class="st1"
   points="261.7,281.2 260.7,355 264.7,355 269.3,281.4 261.7,281.2 "
   id="polygon1438" />
	<path
   class="st1"
   d="m 253.9,225.9 1.2,0.1 v 0 0 c 6.4,-0.1 23.2,-0.5 28.1,-0.5 0.2,0 0.3,0 0.4,0 v 0 l -3.3,-5.1 -27.7,2.2 z"
   id="path1440" />
	<polygon
   class="st1"
   points="259.5,343.6 254.7,343.3 254.7,343.3 254.7,343.4 241.9,343.7 241.8,349.3 259.5,347.1 259.5,343.6 "
   id="polygon1442" />
	<path
   class="st1"
   d="m 297.5,183.4 c 0,0 0.1,0 0.1,0 l -0.5,-2.9 c 0,0 0,0 0,0 -0.6,0.4 -1.2,0.7 -1.9,0.9 -0.3,0.1 -0.6,0.2 -0.9,0.2 -0.3,0.1 -0.5,0.1 -0.8,0.1 0.1,0.6 0.2,1.7 0.4,2.8 0.1,0 0.2,-0.1 0.3,-0.1 1.1,-0.4 2.2,-0.7 3.3,-1 z"
   id="path1444" />
	<path
   class="st1"
   d="m 288.8,143.9 v 0 c -0.8,-0.8 -1.6,-1.6 -2.5,-2.3 -0.1,0 -0.3,0 -0.4,0.1 -0.3,0.1 -0.5,0.1 -0.8,0.2 -1.8,0.6 -3.4,1.9 -4.4,3.5 0,0 0,0 0,0 0,0 0,0 0,0 2.7,0.6 5.6,0.1 8.1,-1.5 z"
   id="path1446" />
	<path
   class="st1"
   d="m 291.2,146.8 c -0.5,-0.7 -1,-1.3 -1.5,-1.9 0,0 0,0 0,0 v 0 c 0,0 0,0 0,0 -2.1,1.4 -4.5,2.1 -7,2.2 -1,0 -2,-0.1 -2.9,-0.4 -0.4,0.7 -0.7,1.4 -0.9,2.1 0,0 0,0 0,0 4.2,0.8 8.5,0.1 12.3,-2 z"
   id="path1448" />
	<path
   class="st1"
   d="m 325.6,258.4 c 0,0.6 0,1.2 0,1.9 0,0.7 -0.1,1.4 -0.1,2.1 0,0.4 -0.1,0.7 -0.1,1.1 -0.1,1.1 -0.3,2.2 -0.6,3.2 -0.2,0.7 -0.4,1.4 -0.7,2.1 v 0 c 0,0 0,0 0,0 l 7.3,-0.2 1.3,-29 2.5,-57.4 -8.8,-0.7 c -0.1,5 -0.7,34.8 -1.1,51.5 0,0 0,0 0,0 0.6,5.3 1,11 1.1,17.1 0,0 0,0 0,0 0,0 0,0 0,0 v 0 c 0.2,2.3 0.2,3.7 0.2,3.7 v 0 0 h -0.2 v 0.1 l -0.4,0.2 c 0,0 -0.2,0.1 -0.6,0.3 0,0 0,0 0,0 0,0 0,0 0,0 0,0.7 0.1,2.2 0.2,4 z"
   id="path1450" />
	<path
   class="st1"
   d="m 246.4,229.2 0.7,0.8 1.8,-1.1 5.5,-0.7 0.7,-0.9 -1.7,-0.1 v 0 0 c -2.1,0.7 -5.2,1.5 -7,2 z"
   id="path1452" />
	<path
   class="st1"
   d="m 275.7,219.4 4.6,-0.4 c 0.9,-1.5 5.3,-8.8 8.9,-15.3 -0.2,-1.7 -0.4,-3.3 -0.5,-4.9 -0.1,-0.4 -0.1,-0.9 -0.2,-1.3 -1.4,3.5 -4.2,10.1 -7.7,15.6 -0.9,1.5 -1.9,2.9 -3,4.1 -0.7,0.8 -1.4,1.5 -2.1,2.2 z"
   id="path1454" />
	<path
   class="st1"
   d="m 252.5,226.1 -1.3,-3.5 v 0 0 h -3.1 l -7.8,5.1 -0.6,2.5 h 2.3 c 0.7,-0.7 1.5,-1.4 2.3,-1.9 0.6,-0.1 6.1,-1.6 8.2,-2.2 z"
   id="path1456" />
	<polygon
   class="st1"
   points="251,230.1 249.4,230.3 247.9,231.2 252.4,231.2 "
   id="polygon1458" />
	<polygon
   class="st1"
   points="219.3,227.1 202.6,198 194.1,197.4 215.2,229.3 "
   id="polygon1460" />
	<polygon
   class="st1"
   points="278.2,337.4 269.5,300.1 268.6,315 271.5,322.8 276.9,337.4 "
   id="polygon1462" />
	<polygon
   class="st1"
   points="264.3,237.5 254,237.5 164.8,237.5 164.8,244.4 264.3,244.4 "
   id="polygon1464" />
	<polygon
   class="st1"
   points="192.6,197.7 189.7,200 212.5,230.8 213.9,230 214,229.9 "
   id="polygon1466" />
	<path
   class="st1"
   d="m 245.1,229.8 -0.2,-0.2 v 0 c -0.6,0.5 -1.2,1 -1.8,1.5 h 3.2 z"
   id="path1468" />
	<polygon
   class="st1"
   points="214.8,231.1 238.1,231.2 238.1,231.1 238.1,231.1 238.3,230.6 238.8,228.1 220.4,228.1 215.2,230.9 215.1,230.9 215.2,230.9 "
   id="polygon1470" />
	<polygon
   class="st1"
   points="267,340.3 267,340.3 266.7,344.8 271.9,344.3 279.6,343.5 278.5,338.7 276.5,338.7 267,340.3 "
   id="polygon1472" />
	<polygon
   class="st1"
   points="329.5,282.7 321.9,282.5 321,355 325,355 328.4,300.1 "
   id="polygon1474" />
	<polygon
   class="st1"
   points="259.8,271.7 259.8,279.8 297.1,280.6 331.8,281.4 334,269.9 "
   id="polygon1476" />
	<path
   class="st2"
   d="m 289.7,145 c 0.5,0.6 1,1.2 1.5,1.9 0.5,-0.3 1.1,-0.7 1.6,-1 0.5,-0.4 1,-0.8 1.4,-1.2 0,0 0,0 0,0 0,0 0,0 0,0 0,0 0,0 0,0 -0.6,-0.5 -1.3,-1 -1.9,-1.5 l -0.1,0.1 c -0.8,0.5 -1.6,1.1 -2.5,1.7 z"
   id="path1478" />
	<polygon
   class="st2"
   points=""
   id="polygon1480" />
	<path
   class="st2"
   d="m 295.2,145.5 c -1,0.9 -2,1.8 -3.2,2.4 0,0 0,0 0,0 v 0 c 0.4,0.6 0.9,1.3 1.3,2.1 1.3,-0.7 2.5,-1.5 3.7,-2.4 -0.6,-0.7 -1.2,-1.4 -1.8,-2.1 z"
   id="path1482" />
	<path
   class="st2"
   d="m 301.6,158.5 c -0.7,-3.4 -2,-6.7 -3.9,-9.7 0,0 0,0 0,0 0,0 0,0 0,0 -1.2,0.9 -2.5,1.7 -3.8,2.4 0,0 0,0 0,0 0,0 0,0 0,0 3.1,6 5.3,14.9 3.2,27.6 0,0 0,0 0,0 2.2,-1.7 3.8,-4.6 4.6,-8.1 0.8,-3.6 0.8,-7.8 -0.1,-12.2 z"
   id="path1484" />
	<path
   class="st2"
   d="m 288.8,143.9 c 0.8,-0.5 1.5,-1 2.2,-1.5 -1.1,-0.5 -2.3,-0.8 -3.5,-0.8 -0.4,0 -0.8,0 -1.2,0.1 0,0 0,0 0,0 0,0 0,0 0,0 0.8,0.6 1.7,1.4 2.5,2.2 z"
   id="path1486" />
	<path
   class="st2"
   d="m 326.5,253.8 c 0,0 -0.1,-1.3 -0.2,-3.7 v 0 c 0,0 0,0 0,0 0,1.1 0,2.2 0,3.3 v 0 0 0.3 h 0.2 z"
   id="path1488" />
	<path
   class="st2"
   d="m 299.7,184.2 7.1,2.4 c 0,0 14.8,41.4 12.9,64.8 -0.1,1.2 -0.2,2.3 -0.4,3.3 v 0 c 1.9,-0.4 3.8,-1 5.6,-1.7 0,-6.6 -0.4,-13.2 -1.1,-19.8 v 0 c 0,0 0,0 0,0 v 0 c 0,0 0,0 0,0 v 0 c 0,0 0,0 0,-0.1 0,0 0,0 0,0 -3.4,-29.9 -13.8,-47.9 -15.5,-50.7 -1.2,0.2 -4.7,0.9 -8.6,1.8 0,0 0,0 0,0 z"
   id="path1490" />
	<path
   class="st2"
   d="m 319.5,257 c 0.3,2.8 0,8.4 -8.2,8.2 -10.8,-0.2 -55.7,3 -55.7,3 v 0 l 1,73.8 3,0.2 0.8,-61 v 0 h -1.9 v -10.8 0 0 l 64.1,-1.5 c 2.2,-4.8 1.7,-11.6 1.4,-14 -0.7,0.2 -1.4,0.4 -2.1,0.7 -0.1,0 -0.3,0.1 -0.4,0.1 -0.6,0.2 -1.2,0.3 -1.8,0.5 -0.1,0 -0.1,0 -0.2,0.1 -0.1,0 -0.1,0.3 0,0.7 z"
   id="path1492" />
	<path
   class="st2"
   d="m 297.6,183.4 c 0,0 0,0 0,0 0.9,-0.2 1.8,-0.5 2.7,-0.7 l -1.6,-3.4 c -0.5,0.5 -1,0.9 -1.6,1.3 z"
   id="path1494" />
	<path
   class="st2"
   d="m 303.1,197.8 h -2.9 c 0,0 -11.8,24 -15.1,27.3 v 0 l 0.9,1.3 0.4,0.6 v 0 c 1.2,-1.3 2.3,-2.6 3.4,-4 0,0 0,0 0,0 0.3,-0.4 0.6,-0.9 1,-1.3 6.9,-9.9 11.6,-22.1 12.3,-23.9 0,0 0,0 0,0 z"
   id="path1496" />
	<path
   class="st2"
   d="m 283.6,225.5 c -0.1,0 -0.3,0 -0.4,0 -4.9,0 -21.7,0.4 -28.1,0.5 v 0 l 29.8,1.4 z"
   id="path1498" />
	<path
   class="st2"
   d="m 299.4,209.6 c -0.2,0.5 -0.5,0.9 -0.7,1.4 1.5,-2.5 2.7,-5.1 3.7,-7.9 -0.8,1.9 -1.8,4.1 -3,6.5 z"
   id="path1500" />
	<polygon
   class="st2"
   points="281.6,343.3 280.5,338.7 278.5,338.7 279.6,343.5 "
   id="polygon1502" />
	<polygon
   class="st2"
   points="269.5,300.1 278.2,337.4 280.2,337.4 272.4,288.6 271.2,281.4 270.6,281.4 "
   id="polygon1504" />
	<path
   d="m 277.9,152.6 c 0.1,-0.8 0.3,-1.6 0.5,-2.4 -0.4,-0.1 -0.9,-0.1 -1.3,-0.2 -0.2,0.8 -0.4,1.6 -0.5,2.4 0.4,0 0.8,0.1 1.3,0.2 z"
   id="path1506" />
	<path
   d="m 167.6,245.1 v 0 113.8 h 0.7 l 73.5,0.9 0.1,-9.1 v 0 l 17.6,-2.2 0.7,-0.1 v 0 l -0.7,0.1 -0.1,7.9 h 6.7 l 0.6,-10.2 0.1,-1.4 0.3,-4.5 0.1,-1.4 1.3,-20.5 0.2,-3.4 0.9,-14.9 1.2,-18.6 v -0.6 l -1.4,-0.1 v 0 l 1.4,0.1 v 0.6 0 h 0.6 v 0 l -0.1,-0.6 0.1,0.6 1.2,7.2 7.9,48.7 v 0 h -2.1 -1.3 v 0 l -5.4,-14.6 -2.9,-7.8 v 0 l -0.2,3.4 7.1,19.1 0.8,-0.1 v 0 l -0.8,0.1 -8.4,1.4 -0.1,1.4 v 0 l 9.5,-1.6 h 2 2 l -0.1,-0.5 1,-0.2 -1,0.2 0.1,0.5 1.1,4.5 -2,0.2 v 0 l -7.7,0.8 -5.2,0.5 -0.1,1.4 16.6,-1.7 -1.6,-6.5 v 0 0 l -9.1,-56.4 -0.1,-0.8 v 0 l 0.1,0.8 47.9,1 v 0 l -0.9,73.9 h 6.7 l 4.6,-73.6 v -0.6 l -1.4,-0.1 v 0 l 1.4,0.1 v 0.6 h 2.1 l 2.7,-14.3 -2.9,0.1 v 0 l 3.8,-87.7 -11.6,-0.9 v 0.7 c 0,0.3 -0.5,25.2 -0.9,43.7 -1.4,-8.3 -3.4,-16.4 -6.1,-24.3 -4.2,-12.2 -8.4,-18.6 -8.6,-18.9 l -0.2,-0.4 -0.4,0.1 c -0.3,0 -3.2,0.6 -6.9,1.4 0,0 0,0 0,0 l -1.9,-4.2 -0.1,-0.3 -1.3,0.6 v 0 l 1.3,-0.6 0.2,0.3 c 3.5,-4.3 5,-11.9 3.2,-19.9 -2.4,-11.4 -10.3,-19.4 -17.5,-17.8 -2.7,0.7 -4.9,2.4 -6.3,4.7 0.4,0.2 0.9,0.3 1.4,0.4 0,0 0,0 0,0 1,-1.7 2.6,-2.9 4.4,-3.5 0.3,-0.1 0.5,-0.2 0.8,-0.2 0.1,0 0.3,0 0.4,-0.1 0,0 0,0 0,0 0.4,-0.1 0.8,-0.1 1.2,-0.1 1.2,0 2.4,0.3 3.5,0.8 v 0 c -0.7,0.6 -1.4,1.1 -2.2,1.5 v 0 c -2.4,1.6 -5.4,2.1 -8.2,1.6 0,0 0,0 0,0 -0.5,-0.1 -0.9,-0.2 -1.4,-0.4 -0.8,-0.3 -1.6,-0.6 -2.3,-1.1 l -0.7,1.2 c 0.7,0.4 1.5,0.8 2.3,1.1 0.4,0.2 0.9,0.3 1.3,0.4 0.9,0.2 1.9,0.4 2.9,0.4 2.5,-0.1 4.9,-0.8 7,-2.1 0,0 0,0 0,0 0,0 0,0 0,0 0.9,-0.5 1.7,-1.1 2.5,-1.8 l 0.1,-0.1 c 0.2,-0.1 0.3,-0.3 0.4,-0.3 v 0 c -0.1,0.1 -0.3,0.2 -0.4,0.3 0,0 0,0 0,0 0.7,0.4 1.3,0.9 1.9,1.5 0,0 0,0 0,0 0.2,-0.2 0.4,-0.4 0.6,-0.6 v 0 c -0.2,0.2 -0.4,0.4 -0.6,0.6 0,0 0,0 0,0 -0.4,0.4 -0.9,0.9 -1.4,1.2 -0.5,0.4 -1,0.7 -1.6,1 0,0 0,0 0,0 -3.8,2 -8.1,2.7 -12.4,2 0,0 0,0 0,0 0,0 0,0 0,0 0.3,-0.7 0.6,-1.4 0.9,-2.1 -0.4,-0.1 -0.9,-0.3 -1.3,-0.4 -0.4,0.7 -0.7,1.5 -1,2.3 -0.8,-0.1 -1.5,-0.3 -2.4,-0.6 l -0.4,1.3 c 0.8,0.2 1.6,0.4 2.3,0.6 0.5,0.1 0.9,0.2 1.3,0.2 1.3,0.2 2.6,0.3 3.8,0.3 3.4,0.1 6.8,-0.8 9.7,-2.5 0,0 0,0 0,0 1.2,-0.7 2.2,-1.5 3.2,-2.4 0.6,0.7 1.2,1.4 1.8,2.1 -1.1,0.9 -2.4,1.7 -3.7,2.4 0,0 0,0 0,0 v 0 0 c -3.5,1.9 -7.5,2.9 -11.4,2.9 -1.3,0 -2.7,-0.1 -4,-0.3 -0.4,-0.1 -0.9,-0.2 -1.3,-0.3 -1,-0.2 -1.9,-0.5 -2.9,-0.9 l -0.5,1.3 c 1,0.4 2.1,0.7 3.1,1 0.5,0.1 0.9,0.2 1.3,0.3 0,0 0,0 0,0 1.4,0.2 2.8,0.4 4.2,0.4 3.2,0 6.3,-0.6 9.2,-1.8 1,-0.4 1.9,-0.8 2.9,-1.3 0,0 0,0 0,0 1.3,-0.7 2.6,-1.5 3.8,-2.4 0.2,-0.2 0.3,-0.3 0.3,-0.3 v 0 c 0,0 -0.1,0.1 -0.3,0.3 0,0 0,0 0,0 1.8,3 3.2,6.2 3.9,9.7 0.9,4.4 0.9,8.6 0.1,12.2 -0.8,3.6 -2.4,6.4 -4.6,8.1 -0.9,0.7 -1.9,1.2 -3.1,1.4 -6.4,1.4 -13.5,-6.1 -15.8,-16.8 -0.7,-3.1 -0.9,-6.3 -0.5,-9.5 -0.4,-0.1 -0.9,-0.2 -1.3,-0.3 -0.4,3.4 -0.2,6.8 0.5,10.1 2.2,10.2 8.8,17.7 15.3,18 0,-0.3 -0.1,-0.5 -0.1,-0.7 v 0 c 0,0.1 0,0.4 0.1,0.7 0.1,0.9 0.3,2.3 0.4,3.2 -1.8,0.6 -3.4,1.4 -5,2.5 l -0.3,0.2 0.1,0.4 c 0,0 0.3,2.6 0.8,6.5 v 0 c -0.1,0.2 -7.5,20.5 -15,25 0,0 0,0 0,0 l -21.5,1.7 v 0 h -4 l -8.3,5.5 h 0.2 v 1.4 0 -1.4 h -19 l -17.2,-30 -10.9,-0.7 -4.7,3.8 24.3,33 0.7,-0.4 2,-1.2 v 0 l 0.3,-0.2 v 0 l -0.6,0.3 -0.6,-1.2 -1.4,0.8 -22.8,-31 v 0 l 2.9,-2.3 21.4,32.3 v 0 l 0.2,-0.1 -0.2,0.1 h -0.1 v 0 0 0 l 0.6,1.2 0.6,-0.3 5.2,-2.8 h 18.4 v 0 l -0.6,2.5 -0.1,0.6 v 0 h 5 c 0.5,-0.6 1.1,-1.1 1.8,-1.5 v 0 0 l 0.2,0.2 1.2,1.3 v 0 h -3.2 -5 l -23.3,-0.1 -2,1.2 v 3.8 h 1.4 v 0 -3.7 0 l 39.1,0.1 -0.5,3.5 h 1.4 l 0.7,-4.9 h -0.2 l -0.8,1.1 -1.4,-1.1 h -4.5 v 0 l 1.5,-0.9 1.6,-0.2 v 0 l -0.3,-0.3 v 0 l 0.3,0.3 1.5,1.1 1.4,1.1 0.8,-1.1 -1.8,-1.4 2.2,-0.3 1.7,-2.1 0.2,-0.3 v 0 l -0.2,0.3 29.6,1.4 0.2,-0.2 c 1.6,-1.7 3.1,-3.5 4.5,-5.4 0.4,-0.6 0.8,-1.1 1.2,-1.7 v 0 c 0.6,-0.8 1.1,-1.7 1.7,-2.6 0.5,-0.9 1.1,-1.7 1.6,-2.6 1,-1.8 2,-3.6 3,-5.4 0,0 0,0 0,0 0.3,-0.5 0.5,-1 0.7,-1.4 1.2,-2.4 2.2,-4.6 3,-6.4 1.3,-3.1 2.1,-5.1 2.1,-5.2 0,0 0,0 0,0 l -1.3,-0.5 c 0,0 0,0.1 -0.1,0.2 0,0 0,0 0,0 -0.7,1.8 -5.4,14.1 -12.4,23.9 -0.3,0.4 -0.6,0.9 -1,1.3 0,0 0,0 0,0 -1.1,1.4 -2.2,2.8 -3.4,4 v 0 l -0.4,-0.6 -0.9,-1.3 -3.5,-5.4 -0.2,-0.4 -0.5,0.4 0.5,-0.4 0.2,0.4 c 1.7,-2.8 12,-19.9 13.7,-25.6 l -1.3,-0.4 v 0 c -1,2.7 -2.1,5.3 -3.5,7.8 0,0 0,0 0,0 -0.4,0.7 -0.8,1.4 -1.2,2.2 -3.6,6.6 -7.9,13.8 -8.9,15.3 l -4.6,0.4 c -0.6,0.6 -1.3,1.1 -2.1,1.5 l -0.7,-1.2 c 0,0 0,0 0,0 l 0.7,1.2 c 0.7,-0.4 1.4,-0.9 2.1,-1.5 0.7,-0.6 1.4,-1.4 2.1,-2.2 1,-1.2 2,-2.6 3,-4.1 3.5,-5.4 6.3,-12.1 7.7,-15.6 0,0.4 0.1,0.9 0.2,1.3 0.2,1.5 0.4,3.2 0.5,4.9 0.4,-0.7 0.8,-1.5 1.2,-2.2 -0.7,-6.6 -1.4,-11.8 -1.6,-13.2 2.3,-1.6 6.8,-3 11,-4 3.8,-1 7.4,-1.7 8.6,-1.9 0,0 0,0 0,0 1.7,2.8 12,20.8 15.5,50.7 0,0 0,0 0,0 0,0 0,0 0,0.1 v 0 0 h 1.4 c 0,0 0,0 0,0 h -1.4 v 0 c 0.7,6.6 1.1,13.2 1.1,19.8 -1.8,0.7 -3.7,1.3 -5.6,1.7 0,0 0,0 0,0 -5.7,1.3 -14.7,2.2 -23.5,-1.7 0,0 0,0 0,0 -0.3,-2.5 -1.8,-16.9 -3.4,-31.4 0,0 0,0 0,0 -0.4,0.6 -0.8,1.1 -1.2,1.7 1.4,12.5 2.7,24.7 3.2,28.8 0,0 0,0 0,0 -2.2,0.4 -10,2 -19.1,4.4 -14.3,3.9 -24.6,8 -30.6,12.2 l -0.3,0.2 v 0.4 c 0,0.5 4.1,50.4 9.4,72.7 h 0.9 v 0 h -0.9 l -11.9,0.3 h -0.7 v 0 h 0.7 l 0.8,-96.5 h 23 v -9.7 h -12.9 -38.6 v 0 h -50.8 v 9.7 h 4.1 v -0.4 z m 108.9,93.6 v 0 -0.2 z m 15.2,-196.9 c 0,0 0,0 0,0 0,0 0,0 0,0 z m 0.2,-0.2 c 0,0 0,0 0,0 l 0.4,0.6 z m -97.8,55.8 v 0 l 8.5,0.6 16.7,29.1 v 0 l 0.6,-0.3 v 0 l -0.6,0.3 -4.1,2.1 v 0 z m 45.7,32.8 v 0 l 0.6,-2.5 7.8,-5.1 v 0 h 3.1 0.5 v -0.3 0.3 h -0.5 v 0 l 1.3,3.5 c -2.1,0.6 -7.6,2.1 -8.1,2.2 -0.9,0.5 -1.6,1.2 -2.3,1.9 z m 14.6,-1.9 -5.5,0.7 -1.8,1.1 -0.7,-0.8 -0.7,-0.8 -1,0.9 v 0 l 1,-0.9 0.7,0.8 c 1.8,-0.5 4.9,-1.3 7.1,-1.9 h 0.1 v 0 h -0.1 v 0 l 1.7,0.1 v 0 z m 25.9,-7.9 v 0 0 l 3.3,5.1 1.3,2 0.7,1.1 1.2,-0.8 v 0 l -1.2,0.8 -0.7,-1.1 -29.8,-1.4 -1.2,-0.1 v 0 l -1.2,-3.3 v 0 z m 8.2,-23 c 0.5,-1.4 0.9,-2.2 0.9,-2.4 v 0 c 0,0.2 -0.3,1.1 -0.9,2.4 z m 5.4,-12.9 c -0.1,-1.1 -0.3,-2.1 -0.4,-2.8 0.3,0 0.5,-0.1 0.8,-0.1 0.3,-0.1 0.6,-0.2 0.9,-0.2 0.7,-0.2 1.3,-0.5 1.9,-0.9 0,0 0,0 0,0 0.6,-0.4 1.1,-0.8 1.6,-1.3 v 0 0 l 1.6,3.4 c -0.9,0.2 -1.8,0.5 -2.7,0.7 0,0 0,0 0,0 0,0 -0.1,0 -0.1,0 -1.1,0.3 -2.2,0.6 -3.2,1 -0.2,0.1 -0.3,0.1 -0.4,0.2 0,0 0,0 0,0 z m -52.8,165.7 0.1,0.6 v 0 z m 19.6,4.8 1,-73.8 v -0.5 h -1.4 v 0 h 1.4 v 0.5 0 l 7.6,0.2 v 0 l -4.5,73.6 v 0 z M 328.4,300.1 325,355 v 0 h -4 l 0.9,-72.4 v -0.7 h -1.4 v 0 h 1.4 v 0.7 0 l 7.6,0.2 v 0 0 z m 3.4,-18.7 -34.7,-0.8 -37.3,-0.8 v -8.1 l 74.1,-1.8 v 0 z m -6.6,-27.6 c 0,0.1 0,0.3 0.1,0.6 0,0 0,0 0,0 0.4,-0.2 0.6,-0.2 0.6,-0.3 l 0.4,-0.2 v -0.1 0 -0.3 0 0 c 0,-1.1 0,-2.2 0,-3.3 -0.1,-6.1 -0.5,-11.8 -1.1,-17.1 0,0 0,0 0,0 0,0 0,0 0,0 0.4,-16.7 1,-46.5 1.1,-51.5 0,0 0,0 0,0 l 8.8,0.7 -2.5,57.4 -1.3,29 -7.3,0.2 c 0,0 0,0 0,0 -0.2,0.4 -0.3,0.7 -0.5,1.1 v 0 c 0.2,-0.4 0.3,-0.7 0.5,-1.1 0.3,-0.7 0.5,-1.4 0.7,-2.1 0.3,-1.1 0.5,-2.2 0.6,-3.2 0,-0.4 0.1,-0.7 0.1,-1.1 0.1,-0.7 0.1,-1.4 0.1,-2.1 0,-0.7 0,-1.3 0,-1.9 0,-1.8 -0.2,-3.3 -0.3,-4.1 0,-0.4 0,-0.6 0,-0.6 l -0.7,0.1 z m -39,1.4 c 0.6,-0.1 1.2,-0.3 1.8,-0.4 0,0 0,0 0,0 3.1,-0.7 5.4,-1.1 6.5,-1.4 l 0.7,-0.1 -0.2,-1.3 v 0 l 0.2,1.4 c 0,0 -0.3,0 -0.7,0.1 v 0.1 0.4 0 l 0.4,0.2 c 4.6,2.1 9.7,3.2 14.8,3.1 0.7,0 1.4,0 2.1,-0.1 0.3,0 0.6,0 0.9,-0.1 0.4,0 0.8,-0.1 1.2,-0.1 0.3,0 0.6,-0.1 1,-0.1 0.5,-0.1 1.1,-0.1 1.6,-0.2 0.3,0 0.5,-0.1 0.8,-0.1 0.6,-0.1 1.2,-0.2 1.8,-0.3 0.1,0 0.3,-0.1 0.4,-0.1 0.6,-0.1 1.2,-0.3 1.8,-0.5 0.1,0 0.3,-0.1 0.4,-0.1 0.7,-0.2 1.4,-0.4 2.1,-0.7 0.3,2.4 0.8,9.2 -1.4,14 0,0 0,0 0,0 l -64.1,1.5 v 0 10.8 h 1.9 v 0 l -0.8,61 v 0 l -3,-0.2 -1.3,-0.1 c -5.1,-21 -9,-67.6 -9.4,-72.4 9.8,-6.6 29.1,-11.7 40.5,-14.3 z m -31.5,88.2 v 0 0 l 4.8,0.2 v 0 3.5 l -17.6,2.2 v 0 l -0.8,0.1 v 0 l 0.8,-0.1 v 0 -5.6 0 z m -14.3,15 v 0 L 169,357.5 V 245.8 h 72.4 v 0 -0.7 0 0.7 z M 164.8,237.5 H 254 v 0 h 10.3 v 0 6.9 0 h -99.5 z"
   id="path1508" />
</g>
</svg>
