<?xml version="1.0" encoding="utf-8"?>
<!-- Generator: Adobe Illustrator 27.9.0, SVG Export Plug-In . SVG Version: 6.00 Build 0)  -->
<svg version="1.1" id="Layer_1" xmlns="http://www.w3.org/2000/svg" xmlns:xlink="http://www.w3.org/1999/xlink" x="0px" y="0px"
	 viewBox="0 0 191 237" style="enable-background:new 0 0 191 237;" xml:space="preserve">
<style type="text/css">
	.st0{fill:none;}
	.st1{fill:#FFFFFF;}
	.st2{fill:#27AAE1;}
</style>
<g>
	<path class="st0" d="M68.6,207.5v0.2V207.5z"/>
	<path class="st0" d="M53.5,10.8C53.4,10.8,53.4,10.8,53.5,10.8C53.4,10.8,53.4,10.8,53.5,10.8z"/>
	<polygon class="st0" points="93.9,91.6 93.9,91.6 93.4,91.6 93.4,91.3 93.4,91.6 	"/>
	<path class="st0" d="M56.4,57.2c-0.2,1.4-0.9,6.6-1.6,13.2l0,0c0.4,0.7,0.8,1.5,1.2,2.2c3.6,6.5,8,13.8,8.9,15.3l4.6,0.4
		c0.7,0.6,1.4,1.1,2.1,1.5l0.7-1.2l0,0l-0.7,1.2c-0.8-0.4-1.5-0.9-2.1-1.5c-0.7-0.6-1.4-1.4-2.1-2.2c0.7,0.8,1.4,1.6,2.1,2.2
		l-4.6-0.4c-1-1.5-5.3-8.7-8.9-15.3c-0.4-0.8-0.8-1.5-1.2-2.2C55.6,63.8,56.2,58.6,56.4,57.2c-2.3-1.5-6.8-2.9-11-4
		c-3.9-1-7.4-1.6-8.6-1.9l0,0c1.2,0.3,4.7,0.9,8.6,1.9l0,0C49.5,54.3,54.1,55.7,56.4,57.2z"/>
	<path class="st0" d="M52.8,11.2l0.4-0.6L52.8,11.2z"/>
	<path class="st0" d="M42,66.8L42,66.8c0.6,1.8,5.4,14,12.4,23.9C47.4,80.8,42.7,68.6,42,66.8z"/>
	<path class="st0" d="M60,94.1l-0.9,1.3L60,94.1l3.5-5.4l0.2-0.4l0.5,0.4l-0.5-0.4l-0.2,0.4c-1.8-2.8-12.1-19.9-13.7-25.6l1.3-0.4
		l0,0l-1.3,0.4c1.7,5.7,12,22.8,13.7,25.6L60,94.1L60,94.1z"/>
	<path class="st0" d="M46.4,80.1c1,1.8,2,3.6,3,5.4C48.3,83.7,47.3,81.9,46.4,80.1L46.4,80.1c-1.4-2.6-2.7-5.2-3.7-7.9
		c0.8,1.8,1.8,4,3,6.4c-1.2-2.4-2.2-4.6-3-6.4c-1.3-3.1-2.1-5.1-2.1-5.2l0,0c0,0.1,0.8,2.1,2.1,5.2C43.7,74.9,45,77.5,46.4,80.1z"/>
	<path class="st0" d="M91.8,101.6l39.1-0.1l0,0L91.8,101.6l0.5,3.5l-1.5,0.1l-0.7-4.9h0.2l0.8,1.1l1.4-1.1H97l0,0h-4.5l1.5-1.1l0,0
		l0.3-0.3l0,0L94,99.2l-1.5,1.1l-1.4,1.1l-0.8-1.1l1.8-1.4l-2.2-0.3l-1.7-2.1L88,96.2l0,0l0.2,0.3l-29.6,1.4l-0.2-0.2
		c-1.6-1.7-3.1-3.5-4.5-5.4c-0.4-0.6-0.8-1.1-1.2-1.7l0,0c0.4,0.6,0.8,1.1,1.2,1.7c-1.4,12.6-2.8,24.7-3.2,28.8l0,0
		c2.1,0.4,10,1.9,19.1,4.4c14.3,3.9,24.6,8,30.6,12.2l0.3,0.2v0.4c0,0.5-4,50.4-9.4,72.7h-0.9l0,0h0.9l11.9,0.3h0.7l0,0h-0.7
		l-0.8-96.5h-23v-9.7h12.9L91.8,101.6z"/>
	<polygon class="st0" points="129.9,98.3 129.9,98.3 151,66.4 151,66.4 129.9,98.3 125.8,96.1 125.8,96.1 125.2,95.8 125.2,95.8 
		125.8,96.1 	"/>
	<path class="st0" d="M49.9,50.4c0.3,0,0.6,0.1,0.9,0.2C50.5,50.5,50.2,50.4,49.9,50.4z"/>
	<polygon class="st0" points="103.9,219.8 103.9,219.8 104,219.2 	"/>
	<path class="st0" d="M47.5,52.4l0.5-2.9c-0.6-0.4-1.1-0.8-1.6-1.3l0,0l0,0c0.5,0.5,1,0.9,1.6,1.3L47.5,52.4h0.1H47.5z"/>
	<path class="st0" d="M50.9,53.4c0.1,0,0.2,0.1,0.3,0.1l0,0C51.1,53.4,51,53.4,50.9,53.4z"/>
	<polygon class="st0" points="64.8,89.4 64.8,89.4 64.8,89.4 92.4,91.6 	"/>
	<polygon class="st0" points="104.8,96.8 105.3,99.2 105.3,99.2 104.8,96.8 97,91.6 97,91.6 	"/>
	<path class="st0" d="M89.9,96.4l0.7,0.9l5.5,0.7l1.8,1.1l0.7-0.8l0.7-0.8l1,0.9l0,0l-1-0.9l-0.7,0.8c-1.8-0.5-4.9-1.3-7.1-1.9h-0.1
		l0,0h0.1l0,0c2.2,0.6,5.3,1.4,7.1,1.9l-0.7,0.8L96.1,98l-5.5-0.7L89.9,96.4L89.9,96.4z"/>
	<polygon class="st0" points="60.2,96.4 59.4,97.5 58.3,96.8 58.3,96.8 59.4,97.5 60.2,96.4 90,95 91.2,94.9 91.2,94.9 90,95 	"/>
	<path class="st0" d="M61.5,94.5c0.1,0,0.2,0,0.4,0C61.8,94.5,61.6,94.5,61.5,94.5L61.5,94.5z"/>
	<path class="st0" d="M55.7,64L55.7,64c0,0.2,0.4,1,0.9,2.4C56.1,65.1,55.7,64.2,55.7,64z"/>
	<path class="st0" d="M59.3,10.7c0.3,0,0.5,0.1,0.8,0.2C59.8,10.8,59.6,10.8,59.3,10.7c-0.1-0.1-0.3-0.1-0.4-0.1l0,0
		C59,10.7,59.2,10.7,59.3,10.7z"/>
	<path class="st0" d="M50.9,13.5L50.9,13.5c-0.2-0.2-0.4-0.4-0.6-0.6l0,0C50.5,13.1,50.7,13.4,50.9,13.5z"/>
	<path class="st0" d="M53.9,15.9c-0.6-0.3-1.1-0.6-1.6-1C52.8,15.2,53.3,15.6,53.9,15.9L53.9,15.9c0.5-0.7,1-1.3,1.5-1.9l0,0
		C54.9,14.5,54.4,15.1,53.9,15.9z"/>
	<path class="st0" d="M55.4,14L55.4,14c-0.9-0.6-1.7-1.2-2.5-1.8l0,0c-0.2-0.2-0.4-0.4-0.5-0.4l0,0c0.1,0.1,0.2,0.2,0.5,0.4
		c-0.1-0.1-0.1-0.1,0,0l0,0C53.7,12.8,54.5,13.4,55.4,14z"/>
	<path class="st0" d="M54.1,11.4c1.1-0.6,2.4-0.8,3.5-0.8C56.4,10.6,55.2,10.9,54.1,11.4L54.1,11.4z"/>
	<polygon class="st0" points="64.6,207.7 64.6,207.7 64.7,207.2 63.7,207 64.7,207.2 64.6,207.7 63.5,212.3 65.5,212.5 65.5,212.5 
		63.5,212.3 	"/>
	<polygon class="st0" points="73.9,150.4 73.9,150.4 74,149.9 73.9,150.4 72.7,157.6 	"/>
	<polygon class="st0" points="73.6,191.8 68.2,206.4 68.2,206.4 	"/>
	<path class="st0" d="M55.4,92L55.4,92L55.4,92z"/>
	<path class="st0" d="M102,100.2h-3.2H102z"/>
	<polygon class="st0" points="21.3,102.2 19.9,102.2 19.9,102.2 21.3,102.2 21.3,102.2 	"/>
	<path class="st0" d="M56,72.7c0.1-1.8,0.3-3.4,0.5-4.9C56.3,69.3,56.1,71,56,72.7z"/>
	<path class="st0" d="M47.3,17.8L47.3,17.8c-0.2-0.2-0.3-0.3-0.3-0.3l0,0C47,17.5,47.1,17.6,47.3,17.8z"/>
	<path class="st0" d="M25.8,123.7L25.8,123.7L25.8,123.7c5.7,1.3,14.7,2.2,23.5-1.7l0,0C40.5,125.9,31.5,125,25.8,123.7L25.8,123.7
		c-0.2-1-0.3-2.2-0.4-3.3C25.5,121.5,25.6,122.6,25.8,123.7z"/>
	<polygon class="st0" points="131.1,98.9 131.1,98.9 130.9,98.8 131.1,98.9 131.2,99 	"/>
	<polygon class="st0" points="106.8,99.6 106.3,97.1 106.3,97.1 	"/>
	<polygon class="st0" points="129.9,99.9 130,99.9 130.6,100.2 131.2,99 132.6,99.8 155.4,69 155.4,69 132.6,99.8 131.2,99 
		131.2,99 131.2,99 130.6,100.2 	"/>
	<path class="st0" d="M51.2,20.2c0.9,0.5,1.8,1,2.9,1.3C53.1,21.1,52.1,20.7,51.2,20.2L51.2,20.2z"/>
	<polygon class="st0" points="18.6,122.8 18.6,122.8 18.8,122.8 	"/>
	<path class="st0" d="M18.8,122.5L18.8,122.5L18.8,122.5c0-1.1,0-2.2,0-3.3c0.1-6.1,0.5-11.8,1.1-17.1l0,0c-0.6,5.3-1,11-1.1,17.1
		l0,0C18.8,120.3,18.8,121.4,18.8,122.5z"/>
	<polygon class="st0" points="90.4,212.4 90.4,212.3 90.4,212.4 103.2,212.7 	"/>
	<path class="st0" d="M19.5,129.3c0,0.7,0,1.4,0.1,2.1C19.6,130.7,19.5,130,19.5,129.3z"/>
	<polygon class="st0" points="103.3,218.3 103.3,218.3 103.3,218.3 104.1,218.4 104.1,218.4 	"/>
	<path class="st0" d="M19.5,129.3c0-0.7,0-1.3,0-1.9C19.5,128,19.5,128.7,19.5,129.3z"/>
	<polygon class="st0" points="10,51.2 18.8,50.5 18.8,50.5 10,51.2 12.5,108.6 	"/>
	<polygon class="st0" points="103.8,114.8 104.7,227.4 104.8,227.4 103.8,114.8 103.8,114.8 103.8,114.1 	"/>
	<path class="st0" d="M32.4,126c0.3,0.1,0.6,0.1,0.9,0.1C33,126.1,32.7,126.1,32.4,126z"/>
	<path class="st0" d="M50.6,122.6L50.6,122.6l-0.7-0.2l0.2-1.4l0,0l-0.3,1.3c0,0,0.3,0,0.7,0.1v0.1v0.4l0,0L50.6,122.6z"/>
	<path class="st0" d="M50.5,122.4c1.1,0.3,3.4,0.7,6.5,1.4C54,123.1,51.7,122.7,50.5,122.4z"/>
	<path class="st0" d="M20.6,122.9l-0.7-0.1c0,0,0,0.2-0.1,0.6l0,0c0.1-0.3,0.1-0.5,0.1-0.6L20.6,122.9z"/>
	<path class="st0" d="M23.3,124.5c0.1,0,0.3,0.1,0.4,0.1C23.6,124.6,23.4,124.5,23.3,124.5z"/>
	<path class="st0" d="M27.8,125.5c0.3,0,0.5,0.1,0.8,0.1C28.3,125.6,28,125.6,27.8,125.5z"/>
	<path class="st0" d="M57.1,123.8c0.6,0.1,1.2,0.3,1.8,0.4C58.3,124.1,57.7,123.9,57.1,123.8z"/>
	<polygon class="st0" points="22.6,137.8 22.6,137.8 86.6,139.3 	"/>
	<path class="st0" d="M16.7,169.1l-1.1-17.4L16.7,169.1z"/>
	<path class="st0" d="M25.7,125.1c0,0,0.1,0,0.2,0c-0.1,0-0.3-0.1-0.4-0.1C25.6,125.1,25.6,125.1,25.7,125.1c0,0.3-0.1,0.6-0.1,0.9
		C25.7,125.6,25.7,125.3,25.7,125.1z"/>
	<polygon class="st0" points="80.4,224 80.4,224 84.4,224 83.4,150.2 83.4,149.8 84.8,149.8 84.8,149.8 83.4,149.8 83.4,150.2 
		83.4,150.2 84.4,224 	"/>
	<rect x="80.8" y="106.5" class="st0" width="0" height="6.9"/>
	<polygon class="st0" points="24.1,224 20.1,224 20.1,224 24.1,224 23.2,151.5 23.2,150.8 24.6,150.8 24.6,150.8 23.2,150.8 
		23.2,151.5 23.2,151.5 	"/>
	<path class="st0" d="M30.1,125.9c0.4,0,0.7,0.1,1,0.1C30.8,125.9,30.5,125.9,30.1,125.9z"/>
	<path class="st0" d="M21.1,137.8L21.1,137.8c0.2,0.4,0.3,0.7,0.5,1.1l0,0C21.4,138.5,21.2,138.2,21.1,137.8z"/>
	<polygon class="st0" points="88.6,211 85.6,211.2 85.6,211.2 88.6,211 89.6,137.3 89.6,137.3 	"/>
	<path class="st0" d="M19.8,132.5c0.1,1,0.3,2.1,0.6,3.2C20.1,134.6,19.9,133.5,19.8,132.5z"/>
	<polygon class="st0" points="11.1,138.9 11.1,138.9 13.3,150.4 48,149.6 13.3,150.4 	"/>
	<path class="st1" d="M48.1,47.8L48.1,47.8L48.1,47.8c0.9,0.7,2,1.2,3.1,1.4C57.6,50.5,64.7,43,67,32.4c0.6-3.1,0.8-6.3,0.5-9.5
		c-1.4,0.3-2.8,0.4-4.2,0.4c-3.2-0.1-6.3-0.7-9.2-1.8c-1-0.4-2-0.8-2.9-1.3C48.1,26.3,45.9,35.2,48.1,47.8z"/>
	<polygon class="st1" points="103.8,114.8 104.8,227.4 176.1,226.6 176.1,114.8 	"/>
	<path class="st1" d="M52.7,90.6L52.7,90.6L52.7,90.6c-0.6-0.8-1.2-1.7-1.5-2.5c-0.5-0.8-1.1-1.7-1.6-2.6c-1.1-1.8-2.1-3.6-3-5.4
		c-1.4-2.5-2.7-5.2-3.7-7.9c-1.3-3.1-2.1-5.1-2.1-5.2l0,0l0,0l1.3-0.5c0,0,0,0.1,0.1,0.2l0,0l0,0l0,0h2.9c0,0,11.7,24,15.1,27.3
		l3.5-5.4C62,85.8,51.6,68.7,50,63l1.3-0.4l0,0l0,0c0.9,2.7,2.1,5.3,3.5,7.8c0.8-6.6,1.4-11.8,1.6-13.2c-2.3-1.5-6.8-2.9-11-4l0,0
		l0,0l-7.1,2.4c0,0-14.8,41.4-12.9,64.8c0.1,1.1,0.2,2.2,0.4,3.3l0,0c5.7,1.3,14.7,2.2,23.5-1.7C49.5,119.4,51.1,105.1,52.7,90.6
		L52.7,90.6z"/>
	<path class="st1" d="M90,210.8c5.1-21,9-67.6,9.4-72.4c-9.8-6.6-29.1-11.7-40.5-14.3c-0.6-0.1-1.2-0.3-1.8-0.4l0,0
		c-3.1-0.7-5.4-1.2-6.5-1.4v0.1v0.4l0,0l0,0l-0.4,0.2c-4.7,2.1-9.7,3.1-14.8,3.1c-0.7,0-1.4-0.1-2.1-0.1c-0.3-0.1-0.6-0.1-0.9-0.1
		c-0.4,0-0.8-0.1-1.2-0.1s-0.7-0.1-1-0.1c-0.5,0-1.1-0.1-1.6-0.2c-0.3,0-0.5-0.1-0.8-0.1c-0.6-0.1-1.2-0.2-1.8-0.3c0,0-0.1,0-0.2,0
		c0,0.3-0.1,0.6-0.1,0.9c-0.3,2.7,0,8.4,8.2,8.2c10.8-0.2,55.7,3,55.7,3l0,0l0,0l-1,73.8L90,210.8z"/>
	<path class="st1" d="M51.8,19c3.5,1.9,7.5,2.9,11.3,2.8c1.4,0,2.7-0.1,4-0.3c-0.1-0.8-0.3-1.6-0.5-2.4c-1.2,0.2-2.5,0.3-3.8,0.3
		c-3.4,0.1-6.7-0.8-9.7-2.5C52.6,17.6,52.2,18.3,51.8,19L51.8,19z"/>
	<polygon class="st1" points="92.3,105.1 130.9,105.1 130.9,105.1 130.9,105.1 130.9,101.5 91.8,101.6 	"/>
	<polygon class="st1" points="83.4,150.2 83.4,150.2 83.4,150.2 75.8,150.4 75.8,150.4 80.4,224 84.4,224 	"/>
	<path class="st1" d="M92.5,91.6l-27.7-2.2l-3.3,5.1l0,0c0.1,0,0.2,0,0.4,0c4.9,0,21.7,0.4,28.1,0.5l0,0l0,0l1.2-0.1L92.5,91.6z"/>
	<polygon class="st1" points="90.4,212.4 90.4,212.3 90.4,212.3 85.6,212.6 85.6,212.6 85.6,216.1 103.3,218.3 103.3,218.3 
		103.3,218.3 103.2,212.7 	"/>
	<path class="st1" d="M50.9,53.4c0.1,0,0.2,0.1,0.3,0.1c0.2-1.1,0.3-2.2,0.4-2.8c-0.3,0-0.5,0-0.8-0.1c-0.3,0-0.6-0.1-0.9-0.2
		c-0.7-0.2-1.3-0.5-1.9-0.9l0,0l-0.5,2.9h0.1C48.7,52.7,49.8,53,50.9,53.4z"/>
	<path class="st1" d="M64.4,14.4L64.4,14.4L64.4,14.4c-1-1.6-2.6-2.9-4.4-3.5c-0.3-0.1-0.5-0.1-0.8-0.2c-0.1-0.1-0.3-0.1-0.4-0.1
		c-0.9,0.7-1.7,1.5-2.5,2.3l0,0C58.8,14.5,61.7,15,64.4,14.4z"/>
	<path class="st1" d="M66.2,17.8L66.2,17.8c-0.2-0.7-0.5-1.4-0.9-2.1c-0.9,0.3-1.9,0.4-2.9,0.4c-2.5-0.1-4.9-0.8-7-2.2l0,0l0,0l0,0
		c-0.5,0.6-1,1.2-1.5,1.9C57.7,17.9,62,18.6,66.2,17.8z"/>
	<path class="st1" d="M19.7,123.4L19.7,123.4L19.7,123.4c-0.4-0.2-0.6-0.3-0.6-0.3l-0.4-0.2v-0.1h-0.2l0,0l0,0c0,0,0-1.4,0.2-3.7
		l0,0l0,0l0,0c0.1-6.1,0.5-11.8,1.1-17.1l0,0c-0.4-16.7-1-46.5-1.1-51.5l-8.8,0.7l2.5,57.4l1.3,29l7.3,0.2l0,0l0,0
		c-0.3-0.7-0.5-1.4-0.7-2.1c-0.3-1-0.5-2.1-0.6-3.2c0-0.4-0.1-0.7-0.1-1.1c0-0.7-0.1-1.4-0.1-2.1s0-1.3,0-1.9
		C19.6,125.6,19.7,124.1,19.7,123.4z"/>
	<path class="st1" d="M91.7,96.2L91.7,96.2L91.7,96.2L90,96.3l0.7,0.9l5.5,0.7L98,99l0.7-0.8C96.9,97.7,93.8,96.9,91.7,96.2z"/>
	<path class="st1" d="M67.3,86.2c-1.1-1.2-2.1-2.6-3-4.1C60.8,76.6,58,70,56.6,66.5c-0.1,0.4-0.1,0.9-0.2,1.3
		c-0.1,1.6-0.3,3.2-0.5,4.9c3.6,6.5,8,13.8,8.9,15.3l4.6,0.4C68.7,87.7,68,87,67.3,86.2z"/>
	<path class="st1" d="M100.8,97.3c0.8,0.5,1.6,1.2,2.3,1.9h2.3l-0.6-2.5L97,91.6h-3.1l0,0l0,0l-1.3,3.5
		C94.7,95.7,100.2,97.2,100.8,97.3z"/>
	<polygon class="st1" points="92.7,100.2 97.2,100.2 95.7,99.3 94.1,99.1 94.1,99.1 94.1,99.1 	"/>
	<polygon class="st1" points="129.9,98.3 151,66.4 142.5,67 125.8,96.1 125.8,96.1 125.8,96.1 	"/>
	<polygon class="st1" points="73.6,191.8 76.5,184 75.6,169.1 66.9,206.4 68.2,206.4 	"/>
	<polygon class="st1" points="80.8,113.4 180.3,113.4 180.3,106.5 91.1,106.5 91.1,106.5 80.8,106.5 	"/>
	<polygon class="st1" points="132.6,99.8 155.4,69 152.5,66.7 131.1,98.9 131.2,99 131.2,99 131.2,99 131.2,99 131.2,99 	"/>
	<path class="st1" d="M98.8,100.1h3.2c-0.6-0.5-1.2-1-1.8-1.5l0,0l-0.2,0.2L98.8,100.1z"/>
	<polygon class="st1" points="107,100.1 107,100.1 107,100.2 130.3,100.1 129.9,99.9 130,99.9 129.9,99.9 124.7,97.1 106.3,97.1 
		106.8,99.6 	"/>
	<polygon class="st1" points="73.2,213.3 78.4,213.8 78.1,209.3 78.1,209.3 78.1,209.3 68.6,207.7 66.6,207.7 65.5,212.5 
		65.5,212.5 65.5,212.5 	"/>
	<polygon class="st1" points="15.6,151.7 16.7,169.1 20.1,224 24.1,224 23.2,151.5 23.2,151.5 23.2,151.5 	"/>
	<polygon class="st1" points="13.3,150.4 48,149.6 85.3,148.8 85.3,140.7 11.1,138.9 	"/>
	<path class="st2" d="M52.9,12.3l-0.1-0.1c-0.6,0.5-1.3,1-1.9,1.5l0,0l0,0l0,0c0.4,0.4,0.9,0.8,1.4,1.2c0.5,0.3,1.1,0.7,1.6,1
		c0.5-0.7,1-1.3,1.5-1.9C54.5,13.4,53.7,12.8,52.9,12.3z"/>
	<polygon class="st2" points="55.4,14 55.4,14 55.4,14 55.4,14 	"/>
	<path class="st2" d="M48.1,16.6c1.2,0.9,2.4,1.7,3.7,2.4c0.4-0.8,0.9-1.5,1.3-2.1l0,0l0,0c-1.2-0.6-2.2-1.5-3.2-2.4
		C49.3,15.2,48.7,15.9,48.1,16.6z"/>
	<path class="st2" d="M43.4,39.7c0.8,3.5,2.4,6.4,4.6,8.1l0,0c-2.1-12.7,0.1-21.6,3.2-27.6l0,0l0,0c-1.3-0.7-2.6-1.5-3.8-2.4l0,0
		l0,0c-1.9,3-3.2,6.3-3.9,9.7C42.6,31.9,42.6,36.1,43.4,39.7z"/>
	<path class="st2" d="M58.8,10.7L58.8,10.7L58.8,10.7c-0.4-0.1-0.8-0.1-1.2-0.1c-1.2,0-2.4,0.3-3.5,0.8c0.7,0.5,1.4,1,2.2,1.5
		C57.1,12.1,58,11.3,58.8,10.7z"/>
	<path class="st2" d="M18.6,122.8l0.2-0.1v-0.3l0,0l0,0c0-1.1,0-2.2,0-3.3l0,0l0,0C18.7,121.5,18.6,122.8,18.6,122.8L18.6,122.8z"/>
	<path class="st2" d="M45.4,53.2c-3.9-0.9-7.4-1.6-8.6-1.8c-1.7,2.8-12.1,20.8-15.5,50.7l0,0c0,0.1,0,0.1,0,0.1l0,0l0,0l0,0l0,0l0,0
		c-0.7,6.6-1.1,13.2-1.1,19.8c1.8,0.7,3.7,1.3,5.6,1.7l0,0c-0.2-1-0.3-2.1-0.4-3.3C23.5,97,38.3,55.6,38.3,55.6L45.4,53.2L45.4,53.2
		z"/>
	<path class="st2" d="M25.6,125.3c-0.1-0.1-0.1-0.1-0.2-0.1c-0.6-0.2-1.2-0.3-1.8-0.5c-0.1,0-0.3-0.1-0.4-0.1
		c-0.7-0.3-1.4-0.5-2.1-0.7c-0.3,2.4-0.8,9.2,1.4,14l64.1,1.5l0,0l0,0v10.8h-1.9l0,0l0.8,61l3-0.2l1-73.8l0,0c0,0-44.9-3.2-55.7-3
		c-8.2,0.2-8.5-5.4-8.2-8.2C25.7,125.6,25.7,125.3,25.6,125.3z"/>
	<path class="st2" d="M48,49.6c-0.6-0.4-1.1-0.8-1.6-1.3l-1.6,3.4c0.9,0.2,1.8,0.5,2.7,0.7l0,0L48,49.6z"/>
	<path class="st2" d="M42,66.8c0.7,1.8,5.4,14,12.3,23.9c0.4,0.4,0.7,0.9,1,1.3l0,0c1.1,1.4,2.2,2.7,3.4,4l0,0l0.4-0.6l0.9-1.3l0,0
		c-3.3-3.3-15.1-27.3-15.1-27.3H42L42,66.8z"/>
	<path class="st2" d="M61.5,94.5L61.5,94.5l-1.3,1.9L90,95l0,0c-6.4-0.1-23.2-0.5-28.1-0.5C61.8,94.5,61.6,94.5,61.5,94.5L61.5,94.5
		z"/>
	<path class="st2" d="M42.7,72.1c1,2.8,2.2,5.4,3.7,7.9c-0.2-0.5-0.5-0.9-0.7-1.4C44.5,76.2,43.5,74,42.7,72.1z"/>
	<polygon class="st2" points="66.6,207.7 64.6,207.7 64.6,207.7 63.5,212.3 65.5,212.5 	"/>
	<polygon class="st2" points="72.7,157.6 64.9,206.4 66.9,206.4 75.6,169.1 74.5,150.4 74.5,150.4 74.5,150.4 73.9,150.4 
		73.9,150.4 73.9,150.4 	"/>
	<path d="M67.2,21.6c0.5-0.1,0.9-0.2,1.3-0.2c-0.1-0.8-0.3-1.6-0.5-2.4c-0.4,0.1-0.9,0.1-1.3,0.2C66.9,20,67.1,20.8,67.2,21.6
		L67.2,21.6z"/>
	<path d="M177.5,114.1l0.1,0.4h4.1v-9.7h-50.8l0,0H92.3H79.4v9.7h23l0.8,96.5h0.7l0,0h-0.7l-11.9-0.3h-0.9l0,0h0.9
		c5.3-22.3,9.4-72.2,9.4-72.7v-0.4l-0.3-0.2c-6-4.2-16.3-8.3-30.6-12.2c-9.1-2.4-16.9-4-19.1-4.4l0,0c0.5-4.1,1.8-16.3,3.2-28.8
		c-0.4-0.6-0.8-1.1-1.2-1.7l0,0c-1.6,14.5-3.1,28.9-3.4,31.4l0,0c-8.8,3.9-17.8,3-23.5,1.7l0,0c-1.9-0.4-3.8-1-5.6-1.7
		c0-6.6,0.4-13.2,1.1-19.8l0,0h-1.4l0,0h1.4l0,0l0,0c0-0.1,0-0.1,0-0.1l0,0c3.5-29.9,13.8-47.9,15.5-50.7l0,0
		c1.2,0.2,4.8,0.9,8.6,1.9c4.2,1,8.7,2.4,11,4c-0.2,1.4-0.9,6.6-1.6,13.2c0.4,0.7,0.8,1.5,1.2,2.2c0.1-1.7,0.3-3.4,0.5-4.9
		c0.1-0.4,0.2-0.9,0.2-1.3c1.4,3.5,4.2,10.2,7.7,15.6c1,1.5,2,2.9,3,4.1c0.7,0.8,1.4,1.6,2.1,2.2s1.4,1.1,2.1,1.5l0.7-1.2l0,0
		l-0.7,1.2c-0.8-0.4-1.5-0.9-2.1-1.5l-4.6-0.4c-1-1.5-5.3-8.7-8.9-15.3c-0.4-0.8-0.8-1.5-1.2-2.2l0,0c-1.4-2.5-2.5-5.1-3.5-7.8l0,0
		L50,62.8c1.7,5.7,12,22.8,13.7,25.6l0.2-0.4l0.5,0.4L63.9,88l-0.2,0.4l-3.5,5.4l-0.9,1.3l-0.4,0.6l0,0c-1.2-1.2-2.3-2.6-3.4-4l0,0
		c-0.4-0.4-0.7-0.9-1-1.3c-7-9.8-11.7-22.1-12.4-23.9l0,0C42,66.4,42,66.3,42,66.3l-1.3,0.5l0,0c0,0.1,0.8,2.1,2.1,5.2
		c0.8,1.8,1.8,4,3,6.4c0.2,0.4,0.4,0.9,0.7,1.4l0,0c1,1.8,2,3.6,3,5.4c0.5,0.9,1.1,1.7,1.6,2.6c0.6,0.9,1.1,1.8,1.7,2.6l0,0
		c0.4,0.6,0.8,1.1,1.2,1.7c1.4,1.9,2.9,3.7,4.5,5.4l0.2,0.2l29.6-1.4L88.1,96l0,0l0.2,0.3l1.7,2.1l2.2,0.3l-1.8,1.4l0.8,1.1l1.4-1.1
		l1.5-1.1l0.3-0.3l0,0L94.1,99l0,0l1.6,0.2l1.5,0.9l0,0h-4.5l-1.4,1.1l-0.8-1.1h-0.2L91,105h1.4l-0.5-3.5l39.1-0.1l0,0v3.7l0,0h1.4
		v-3.8l-2-1.2l-23.3,0.1h-5h-3.2l0,0l1.2-1.3l0.2-0.2l0,0l0,0c0.7,0.4,1.3,0.9,1.8,1.5h5l0,0l-0.1-0.6l-0.6-2.5l0,0h18.4l5.2,2.8
		l0.6,0.3l0.6-1.2l0,0l0,0l0,0h-0.1l-0.2-0.1l0.2,0.1l0,0l21.4-32.3l2.9,2.3l0,0l-22.8,31l-1.4-0.8l-0.6,1.2l-0.6-0.3l0,0l0.3,0.2
		l0,0l2,1.2l0.7,0.4l24.3-33l-4.7-3.8l-10.9,0.7l-17.2,30h-19v1.4l0,0v-1.4h0.2l-8.3-5.5h-4l0,0l-21.5-1.7l0,0
		c-7.5-4.5-14.9-24.8-15-25l0,0c0.5-3.9,0.8-6.5,0.8-6.5l0.1-0.4l-0.3-0.2c-1.6-1.1-3.2-1.9-5-2.5c0.1-0.9,0.3-2.3,0.4-3.2
		c0.1-0.3,0.1-0.6,0.1-0.7l0,0c0,0.2-0.1,0.4-0.1,0.7c6.5-0.3,13.1-7.8,15.3-18c0.7-3.3,0.9-6.7,0.5-10.1c-0.4,0.1-0.9,0.2-1.3,0.3
		c0.4,3.2,0.2,6.4-0.5,9.5c-2.3,10.7-9.4,18.2-15.8,16.8c-1.2-0.2-2.2-0.7-3.1-1.4c-2.2-1.7-3.8-4.5-4.6-8.1
		c-0.8-3.6-0.8-7.8,0.1-12.2c0.7-3.5,2.1-6.7,3.9-9.7l0,0c-0.2-0.2-0.3-0.3-0.3-0.3l0,0c0,0,0.1,0.1,0.3,0.3
		c1.2,0.9,2.5,1.7,3.8,2.4l0,0c1,0.5,1.9,0.9,2.9,1.3c2.9,1.2,6,1.8,9.2,1.8c1.4,0,2.8-0.2,4.2-0.4l0,0c0.4-0.1,0.8-0.2,1.3-0.3
		c1-0.3,2.1-0.6,3.1-1l-0.5-1.3c-1,0.4-1.9,0.7-2.9,0.9c-0.4,0.1-0.9,0.2-1.3,0.3c-1.3,0.2-2.7,0.3-4,0.3c-3.9,0-7.9-1-11.4-2.9l0,0
		l0,0l0,0c-1.3-0.7-2.6-1.5-3.7-2.4c0.6-0.7,1.2-1.4,1.8-2.1c1,0.9,2,1.7,3.2,2.4l0,0c2.9,1.7,6.3,2.6,9.7,2.5
		c1.2,0,2.5-0.1,3.8-0.3c0.4,0,0.8-0.1,1.3-0.2c0.7-0.2,1.5-0.4,2.3-0.6L69.8,17c-0.9,0.3-1.6,0.5-2.4,0.6c-0.3-0.8-0.6-1.6-1-2.3
		c-0.4,0.1-0.9,0.3-1.3,0.4c0.3,0.7,0.6,1.4,0.9,2.1l0,0l0,0c-4.3,0.7-8.6,0-12.4-2l0,0c-0.6-0.3-1.1-0.6-1.6-1
		c-0.5-0.3-1-0.8-1.4-1.2l0,0c-0.2-0.2-0.4-0.4-0.6-0.6l0,0c0.2,0.2,0.4,0.4,0.6,0.6l0,0c0.6-0.6,1.2-1.1,1.9-1.5l0,0
		c-0.1-0.1-0.3-0.2-0.4-0.3l0,0c0.1,0,0.2,0.2,0.4,0.3l0.1,0.1c0.8,0.7,1.6,1.3,2.5,1.8l0,0l0,0c2.1,1.3,4.5,2,7,2.1
		c1,0,2-0.2,2.9-0.4c0.4-0.1,0.9-0.2,1.3-0.4c0.8-0.3,1.6-0.7,2.3-1.1L67.9,13c-0.7,0.5-1.5,0.8-2.3,1.1c-0.5,0.2-0.9,0.3-1.4,0.4
		l0,0c-2.8,0.5-5.8,0-8.2-1.6l0,0c-0.8-0.4-1.5-0.9-2.2-1.5l0,0c1.1-0.5,2.3-0.8,3.5-0.8c0.4,0,0.8,0,1.2,0.1l0,0
		c0.1,0.1,0.3,0.1,0.4,0.1c0.3,0,0.5,0.1,0.8,0.2c1.8,0.6,3.4,1.8,4.4,3.5l0,0c0.5-0.1,1-0.2,1.4-0.4c-1.4-2.3-3.6-4-6.3-4.7
		C52,7.8,44.1,15.8,41.7,27.2c-1.8,8-0.3,15.6,3.2,19.9l0.2-0.3l1.3,0.6l0,0l-1.3-0.6L45,47.1l-1.9,4.2l0,0
		c-3.7-0.8-6.6-1.4-6.9-1.4l-0.4-0.1l-0.2,0.4c-0.2,0.3-4.4,6.7-8.6,18.9c-2.7,7.9-4.7,16-6.1,24.3C20.5,74.9,20,50,20,49.7V49
		L8.4,49.9l3.8,87.7l0,0l-2.9-0.1l2.7,14.3h2.1v-0.6l1.4-0.1l0,0l-1.4,0.1v0.6l4.6,73.6h6.7l-0.9-73.9l0,0l47.9-1l0.1-0.8l0,0
		l-0.1,0.8l-9.1,56.4l0,0l0,0l-1.6,6.5l16.6,1.7l-0.1-1.4l-5.2-0.5l-7.7-0.8l0,0l-2-0.2l1.1-4.5l0.1-0.5l-1-0.2l1,0.2l-0.1,0.5h2h2
		l9.5,1.6l0,0l-0.1-1.4l-8.4-1.4l-0.8-0.1l0,0l0.8,0.1l7.1-19.1l-0.2-3.4l0,0l-2.9,7.8L68,206.4l0,0h-1.3h-2.1l0,0l7.9-48.7l1.2-7.2
		l0.1-0.6l-0.1,0.6l0,0h0.6l0,0v-0.6l1.4-0.1l0,0l-1.4,0.1v0.6l1.2,18.6l0.9,14.9l0.2,3.4l1.3,20.5l0.1,1.4l0.3,4.5l0.1,1.4
		l0.6,10.2h6.7l-0.1-7.9l-0.7-0.1l0,0l0.7,0.1l17.6,2.2l0,0l0.1,9.1l73.5-0.9h0.7V114.1L177.5,114.1L177.5,114.1z M68.6,207.5v0.2
		l0,0V207.5z M53.4,10.8L53.4,10.8L53.4,10.8z M52.8,11.2l0.4-0.6l0,0L52.8,11.2z M129.9,98.2L129.9,98.2l-4.1-2.1l-0.6-0.3l0,0
		l0.6,0.3l0,0L142.5,67l8.5-0.6l0,0L129.9,98.2z M105.3,99.2h-2.4c-0.7-0.7-1.4-1.4-2.3-1.9c-0.5-0.1-6-1.6-8.1-2.2l1.3-3.5l0,0
		h-0.5v-0.3v0.3h0.5h3.1l0,0l7.8,5.1L105.3,99.2L105.3,99.2L105.3,99.2z M89.9,96.5L89.9,96.5l1.7-0.1l0,0h-0.1l0,0h0.1
		c2.2,0.6,5.3,1.4,7.1,1.9l0.7-0.8l1,0.9l0,0l-1-0.9l-0.7,0.8L98,99.1L96.2,98l-5.5-0.7L89.9,96.5z M92.4,91.7L92.4,91.7L91.2,95
		l0,0L90,95.1l-29.8,1.4l-0.7,1.1l-1.2-0.8l0,0l1.2,0.8l0.7-1.1l1.3-2l3.3-5.1l0,0l0,0L92.4,91.7z M55.7,64L55.7,64
		c0,0.2,0.4,1,0.9,2.4C56,65.1,55.7,64.2,55.7,64z M51.2,53.5c-0.1-0.1-0.2-0.1-0.4-0.2c-1-0.4-2.1-0.7-3.2-1h-0.1l0,0
		c-0.9-0.2-1.8-0.5-2.7-0.7l1.6-3.4l0,0l0,0c0.5,0.5,1,0.9,1.6,1.3l0,0c0.6,0.4,1.2,0.7,1.9,0.9c0.3,0,0.6,0.1,0.9,0.2
		c0.3,0,0.5,0.1,0.8,0.1C51.5,51.4,51.3,52.4,51.2,53.5L51.2,53.5z M103.9,219.8L103.9,219.8l0.1-0.6L103.9,219.8z M84.4,224h-4.1
		l0,0l-4.5-73.6l0,0l7.6-0.2l0,0v-0.5h1.4l0,0h-1.4v0.5L84.4,224L84.4,224z M15.6,151.8L15.6,151.8L15.6,151.8l7.6-0.2l0,0v-0.7h1.4
		l0,0h-1.4v0.7l0.9,72.4h-4l0,0l-3.4-54.9L15.6,151.8z M11.2,138.9L11.2,138.9l74.1,1.8v8.1L48,149.6l-34.7,0.8L11.2,138.9z
		 M20.6,122.9l-0.7-0.1c0,0,0,0.2,0,0.6c-0.1,0.8-0.3,2.3-0.3,4.1c0,0.6,0,1.2,0,1.9s0,1.4,0.1,2.1c0,0.4,0.1,0.7,0.1,1.1
		c0.1,1,0.3,2.1,0.6,3.2c0.2,0.7,0.4,1.4,0.7,2.1c0.2,0.4,0.3,0.7,0.5,1.1l0,0c-0.2-0.4-0.3-0.7-0.5-1.1l0,0l-7.3-0.2l-1.3-29
		L10,51.3l8.8-0.7l0,0c0.1,5,0.7,34.8,1.1,51.5l0,0l0,0c-0.6,5.3-1,11-1.1,17.1c0,1.1,0,2.2,0,3.3l0,0l0,0v0.3l0,0v0.1l0.4,0.2
		c0,0.1,0.2,0.1,0.6,0.3l0,0c0.1-0.3,0.1-0.5,0.1-0.6L20.6,122.9z M99.4,138.5c-0.4,4.8-4.3,51.4-9.4,72.4l-1.3,0.1l-3,0.2l0,0
		l-0.8-61l0,0h1.9v-10.8l0,0l-64.1-1.5l0,0c-2.2-4.8-1.7-11.6-1.4-14c0.7,0.3,1.4,0.5,2.1,0.7c0.1,0,0.3,0.1,0.4,0.1
		c0.6,0.2,1.2,0.4,1.8,0.5c0.1,0,0.3,0.1,0.4,0.1c0.6,0.1,1.2,0.2,1.8,0.3c0.3,0,0.5,0.1,0.8,0.1c0.5,0.1,1.1,0.1,1.6,0.2
		c0.4,0,0.7,0.1,1,0.1c0.4,0,0.8,0.1,1.2,0.1c0.3,0.1,0.6,0.1,0.9,0.1c0.7,0.1,1.4,0.1,2.1,0.1c5.1,0.1,10.2-1,14.8-3.1l0.4-0.2l0,0
		v-0.4v-0.1c-0.4-0.1-0.7-0.1-0.7-0.1l0.2-1.4l0,0l-0.2,1.3l0.7,0.1c1.1,0.3,3.4,0.7,6.5,1.4l0,0c0.6,0.1,1.2,0.3,1.8,0.4
		C70.3,126.8,89.6,131.9,99.4,138.5z M103.2,212.7L103.2,212.7v5.6l0,0l0.8,0.1l0,0l-0.8-0.1l0,0l-17.6-2.2v-3.5l0,0l4.8-0.2l0,0
		l0,0L103.2,212.7z M103.7,114.8v-0.7l0,0V114.8L103.7,114.8h72.4v111.7l-71.4,0.9l0,0L103.7,114.8z M180.3,106.5v6.9H80.8l0,0v-6.9
		l0,0h10.3l0,0H180.3L180.3,106.5z"/>
</g>
</svg>
