<?xml version="1.0" encoding="UTF-8" standalone="no"?>
<!-- Generator: Adobe Illustrator 27.8.1, SVG Export Plug-In . SVG Version: 6.00 Build 0)  -->

<svg
   version="1.1"
   id="Layer_1"
   x="0px"
   y="0px"
   viewBox="0 0 84 87"
   xml:space="preserve"
   sodipodi:docname="SessionChallenges.svg"
   width="84"
   height="87"
   inkscape:version="1.1.2 (0a00cf5339, 2022-02-04)"
   xmlns:inkscape="http://www.inkscape.org/namespaces/inkscape"
   xmlns:sodipodi="http://sodipodi.sourceforge.net/DTD/sodipodi-0.dtd"
   xmlns="http://www.w3.org/2000/svg"
   xmlns:svg="http://www.w3.org/2000/svg"><defs
   id="defs2522" /><sodipodi:namedview
   id="namedview2520"
   pagecolor="#ffffff"
   bordercolor="#666666"
   borderopacity="1.0"
   inkscape:pageshadow="2"
   inkscape:pageopacity="0.0"
   inkscape:pagecheckerboard="0"
   showgrid="false"
   inkscape:zoom="1.742"
   inkscape:cx="250"
   inkscape:cy="250.28703"
   inkscape:window-width="1916"
   inkscape:window-height="1029"
   inkscape:window-x="1920"
   inkscape:window-y="49"
   inkscape:window-maximized="1"
   inkscape:current-layer="Layer_1" />
<style
   type="text/css"
   id="style2503">
	.st0{fill:none;}
	.st1{fill:#27AAE1;}
</style>
<g
   id="g2517"
   transform="translate(-208,-196.75)">
	<polygon
   class="st0"
   points="257.1,201.6 257.1,201 241.4,208.7 243.4,209 "
   id="polygon2505" />
	<polygon
   class="st0"
   points="218.4,266.8 211.6,281.1 275.9,281.1 251.3,241.1 234.4,269.8 234,269.2 229.1,279.4 "
   id="polygon2507" />
	<polygon
   class="st1"
   points="287.4,281.1 259,227.8 251.3,241.1 275.9,281.1 "
   id="polygon2509" />
	<polygon
   class="st1"
   points="234,269.2 224.3,254.5 218.4,266.8 229.1,279.4 "
   id="polygon2511" />
	<polygon
   class="st1"
   points="257.1,201.6 243.4,209 257.4,210.8 "
   id="polygon2513" />
	<path
   d="m 260.4,224.8 -0.8,-28 -27,13.4 24.9,3.2 0.3,11.4 -23.5,40.1 -10.4,-15.7 -15.2,31.8 h -0.5 v 2.6 l 83.6,0.1 z M 257.1,201 v 0.7 l 0.3,9.2 -14,-1.8 -2,-0.3 z m -38.7,65.8 5.9,-12.3 9.8,14.7 0.4,0.7 16.8,-28.7 7.8,-13.3 28.4,53.3 h -11.6 -64.3 z"
   id="path2515" />
</g>
</svg>
