<?xml version="1.0" encoding="UTF-8" standalone="no"?>
<!-- Generator: Adobe Illustrator 27.8.1, SVG Export Plug-In . SVG Version: 6.00 Build 0)  -->

<svg
   version="1.1"
   id="Layer_1"
   x="0px"
   y="0px"
   viewBox="0 0 45 76"
   xml:space="preserve"
   sodipodi:docname="SimpleExercises.svg"
   width="45"
   height="76"
   inkscape:version="1.1.2 (0a00cf5339, 2022-02-04)"
   xmlns:inkscape="http://www.inkscape.org/namespaces/inkscape"
   xmlns:sodipodi="http://sodipodi.sourceforge.net/DTD/sodipodi-0.dtd"
   xmlns="http://www.w3.org/2000/svg"
   xmlns:svg="http://www.w3.org/2000/svg"><defs
   id="defs1124" /><sodipodi:namedview
   id="namedview1122"
   pagecolor="#ffffff"
   bordercolor="#666666"
   borderopacity="1.0"
   inkscape:pageshadow="2"
   inkscape:pageopacity="0.0"
   inkscape:pagecheckerboard="0"
   showgrid="false"
   inkscape:zoom="1.64"
   inkscape:cx="249.69512"
   inkscape:cy="152.43902"
   inkscape:window-width="1916"
   inkscape:window-height="1029"
   inkscape:window-x="1920"
   inkscape:window-y="49"
   inkscape:window-maximized="1"
   inkscape:current-layer="Layer_1" />
<style
   type="text/css"
   id="style987">
	.st0{fill:none;}
	.st1{fill:#FFFFFF;}
	.st2{fill:#27AAE1;}
</style>
<g
   id="g1119"
   transform="translate(-235.45,-211.96168)">
	
		<rect
   x="239.89999"
   y="232.2"
   transform="matrix(0.4789,-0.8779,0.8779,0.4789,-76.5616,335.3382)"
   class="st0"
   width="8.6000004"
   height="0"
   id="rect989" />
	<path
   class="st0"
   d="m 258.9,249.6 v 0 c 0,0 0.1,0.1 0.1,0.1 v 0 c 7.2,11.5 11.1,28.8 11.7,31.3 v 0 c -0.6,-2.5 -4.5,-19.8 -11.7,-31.3 -0.1,0 -0.1,0 -0.1,-0.1 z"
   id="path991" />
	<path
   class="st0"
   d="m 260.8,213.7 c -0.2,0 -0.3,-0.1 -0.5,-0.1 0.2,0 0.3,0 0.5,0.1 z"
   id="path993" />
	<path
   class="st0"
   d="m 257.8,218.7 c 0.2,-0.8 0.4,-1.6 0.8,-2.4 0,0 0,0 0,0 -0.4,0.7 -0.7,1.5 -0.8,2.4 -0.5,2.6 0.1,5.1 1.4,6.4 -1.3,-1.3 -1.9,-3.8 -1.4,-6.4 z"
   id="path995" />
	<path
   class="st0"
   d="m 252.1,248.8 -0.3,-0.6 v 0 l 0.3,0.6 c 2.4,4 15.8,27 17.7,32.5 v 0 c -1.9,-5.6 -15.3,-28.5 -17.7,-32.5 z"
   id="path997" />
	<path
   class="st0"
   d="m 262.5,213.3 c -0.2,0 -0.5,-0.1 -0.7,-0.1 v 0 c 0,0 0,0 0,0 0.2,0 0.5,0.1 0.7,0.1 0,0 0,0 0,0 z"
   id="path999" />
	<path
   class="st0"
   d="m 258,259 -0.7,-0.1 c 0,0 0,0.1 0,0.1 -1.3,-2.3 -2.6,-4.5 -3.6,-6.2 l -0.5,-0.8 c 0,0 0,0 0,0 l 0.5,0.8 c 1,1.7 2.2,3.9 3.6,6.2 -0.9,10.9 -9.8,19.6 -11,20.7 v 0 c 1.2,-1.1 10,-9.7 11,-20.7 0,0 0,-0.1 0,-0.1 l 0.7,0.1 c 0,0 0,0 0,0 z"
   id="path1001" />
	<polygon
   class="st0"
   points="246.2,279.7 245.3,279.6 245.2,279.5 245.3,279.6 "
   id="polygon1003" />
	<path
   class="st0"
   d="m 260.1,216.6 c -0.5,-0.1 -1,-0.2 -1.5,-0.3 v 0 c 0.5,0.1 1,0.3 1.5,0.3 z"
   id="path1005" />
	<polygon
   class="st0"
   points="244.4,280.3 243.4,282.9 243.4,282.9 244.4,280.3 245,280.4 245,280.4 246.3,280.5 248.8,281.7 252.1,284.1 250.1,285.3 250.1,285.3 252.1,284.1 248.9,281.7 246.3,280.5 245,280.4 "
   id="polygon1007" />
	<polygon
   class="st0"
   points="272.4,285.8 277.2,286.8 277.7,286.2 277.2,286.8 "
   id="polygon1009" />
	<polygon
   class="st0"
   points="252.4,283.9 252.9,283.6 "
   id="polygon1011" />
	<path
   class="st0"
   d="m 262.8,213 v 0 c 0,0 0.1,0 0.1,0 0,0 -0.1,0 -0.1,0 z"
   id="path1013" />
	<path
   class="st0"
   d="m 260.7,212.9 c 0.3,0.1 0.7,0.2 1.1,0.3 -0.4,-0.1 -0.8,-0.2 -1.1,-0.3 z"
   id="path1015" />
	<path
   class="st0"
   d="m 260.8,213.7 c 0,0 0,0 0,0 -0.3,0.2 -0.6,0.4 -0.8,0.7 0,0 0,0 0,0 0,0 0,0 0,0 v 0 c 0.2,-0.3 0.5,-0.5 0.8,-0.7 z"
   id="path1017" />
	<path
   class="st0"
   d="m 270,282 1.3,-0.2 0.7,0.2 c 2.2,0.8 5.8,2.2 6.8,2.7 v 0 c -1,-0.5 -4.6,-1.9 -6.8,-2.7 l 7.1,2.4 v 0 l -7.1,-2.4 -0.7,-0.2 -1.3,0.2 0.4,3.4 v 0 z"
   id="path1019" />
	<path
   class="st0"
   d="m 264.1,234.7 v 0 0 c 0.5,-1.9 0.9,-3.5 1.1,-4.4 l 4,6.6 v 0 l -4,-6.6 -0.4,-0.7 v 0 l 0.4,0.7 c -0.3,0.9 -0.7,2.5 -1.1,4.4 z"
   id="path1021" />
	<path
   class="st0"
   d="m 261.4,228.4 c 0,0 0,0 0,0 v 0 0 0 l -2,-0.4 -0.6,-0.1 v 0 l 0.5,0.1 c 0,0 0,0 0,0 z"
   id="path1023" />
	<path
   class="st0"
   d="m 269.2,241.9 v 0 c 0,0 0,-0.7 0,-1 v 0 z"
   id="path1025" />
	<rect
   x="269.20001"
   y="236.8"
   class="st0"
   width="0.69999999"
   height="0"
   id="rect1027" />
	<path
   class="st0"
   d="m 256.7,227.6 v 0 c -0.2,2.1 -1.3,12.1 -1.8,17.5 0.6,-5.4 1.6,-15.4 1.8,-17.5 z"
   id="path1029" />
	<polygon
   class="st0"
   points="240.9,235.9 241.1,237.8 239.9,239 236.6,236.8 239.9,239 241.1,237.8 241,235.9 239.6,235.1 "
   id="polygon1031" />
	<path
   class="st0"
   d="m 254.5,248.4 4.4,0.6 c 0,0 0,0 0,0 l -4.4,-0.6 c 0,-0.1 0,-0.3 0.1,-0.6 0,0.3 -0.1,0.5 -0.1,0.6 l -2.6,-0.4 3.2,-20.5 c 0,0 0,0 0,0 l -3.2,20.5 z"
   id="path1033" />
	<path
   class="st0"
   d="m 276.3,227.3 c 0.9,0.6 2.2,1.5 2.7,1.8 0,0 0,0 0,0 -0.5,-0.3 -1.8,-1.1 -2.7,-1.8 l -1.3,1.8 v 0 z"
   id="path1035" />
	<polygon
   class="st0"
   points="276.4,231.8 276.4,231.8 276,231.5 269.9,237 269.9,240.8 269.9,237 276,231.6 "
   id="polygon1037" />
	<polygon
   class="st0"
   points="276.9,231.3 276.9,231.3 276.8,231.3 276.9,232 276.8,231.3 "
   id="polygon1039" />
	<polygon
   class="st0"
   points=""
   id="polygon1041" />
	<path
   class="st1"
   d="m 245.8,278.8 c -0.2,0.2 -0.4,0.5 -0.5,0.7 h 0.1 z"
   id="path1043" />
	<polygon
   class="st1"
   points="243.4,282.9 245.7,283.7 244.1,282.7 245,280.4 244.4,280.3 "
   id="polygon1045" />
	<path
   class="st1"
   d="m 275,229.2 1.2,1.7 v 0 0 0 l 0.8,0.4 v 0 0 0 l 1.3,-0.2 c 0.2,-0.7 0.6,-1.6 0.7,-2 -0.5,-0.3 -1.7,-1.2 -2.7,-1.8 z"
   id="path1047" />
	<path
   class="st1"
   d="m 264.1,234.7 5.2,6.2 v 0 0 c 0,-1.2 0,-3.9 0,-4 l -4,-6.6 c -0.3,0.9 -0.7,2.5 -1.2,4.4 z"
   id="path1049" />
	<polygon
   class="st1"
   points="254.4,227.4 245.7,226.1 240.2,234.7 240.7,235 246.7,228 254.1,229.3 "
   id="polygon1051" />
	<polygon
   class="st1"
   points="269.9,237 269.9,240.8 276.4,231.8 276,231.6 "
   id="polygon1053" />
	<path
   class="st1"
   d="m 254.7,249.1 c 1.8,3.2 14.5,25.7 15.5,32.1 l 0.4,-0.1 c -0.6,-2.5 -4.5,-19.8 -11.7,-31.3 z"
   id="path1055" />
	<polygon
   class="st1"
   points="236.6,236.8 239.9,239 241.1,237.8 240.9,235.9 239.6,235.1 237.8,235.1 "
   id="polygon1057" />
	<path
   class="st1"
   d="m 253.7,252.9 -0.5,-0.8 c 0.1,6.8 -1.1,13.6 -3.7,20 0.9,-1.6 1.7,-3 2.3,-3.9 1.7,-2.8 1.9,-12.8 1.9,-15.3 z"
   id="path1059" />
	<path
   class="st1"
   d="m 278.8,284.8 v 0 l 0.3,-0.4 -7.1,-2.4 c 2.2,0.9 5.8,2.3 6.8,2.8 z"
   id="path1061" />
	<path
   class="st1"
   d="m 261.4,214.6 c 1.4,0.2 2.8,0.3 4.2,0.2 -0.2,-0.2 -0.3,-0.5 -0.5,-0.7 -0.2,0 -0.4,0 -0.5,0 -0.9,0 -1.7,-0.1 -2.6,-0.2 -0.2,0.2 -0.4,0.5 -0.6,0.7 0,0 0,0 0,0 z"
   id="path1063" />
	<path
   class="st1"
   d="m 264.8,216 c 0.4,0 0.9,-0.1 1.3,-0.2 0,-0.1 -0.1,-0.2 -0.1,-0.3 -0.6,0.1 -1.1,0.1 -1.7,0.1 v 0 c -1.1,0 -2.2,-0.1 -3.3,-0.3 -0.2,0.2 -0.3,0.5 -0.5,0.7 1.4,0.1 2.9,0.1 4.3,0 z"
   id="path1065" />
	<path
   class="st1"
   d="m 262.5,213.3 c 0,0 0,0 0,0 0,0 0,0 0,0 0.6,0.1 1.2,0.1 1.8,0.1 -0.3,-0.2 -0.6,-0.3 -0.9,-0.3 -0.2,0 -0.3,0 -0.5,0 0,0 -0.1,0 -0.1,0 v 0 c -0.1,0 -0.2,0.1 -0.3,0.2 0,0 0,0 0,0 z"
   id="path1067" />
	<polygon
   class="st1"
   points="252.1,284.1 252.4,283.9 252.9,283.6 248.9,281.7 "
   id="polygon1069" />
	<path
   class="st1"
   d="m 261.1,227.6 0.4,-0.9 c 0,0 -0.1,0 -0.1,0 -0.2,0 -0.5,0 -0.7,-0.1 v 0 c -0.3,-0.1 -0.6,-0.2 -0.9,-0.3 l -0.2,1 c 0,0 0,0 0,0 v 0 c 0.5,0.1 1,0.2 1.5,0.3 z"
   id="path1071" />
	<path
   class="st1"
   d="m 259.8,225.5 c 0.3,0.2 0.6,0.3 1,0.4 1.3,0.2 2.5,-0.3 3.4,-1.2 1.1,-1.2 1.9,-2.7 2.2,-4.3 0.3,-1.3 0.2,-2.6 -0.1,-3.9 -1.3,0.2 -2.6,0.3 -3.9,0.3 -0.8,0 -1.5,-0.1 -2.3,-0.2 -1.5,2.8 -1.6,6.1 -0.3,8.9 z"
   id="path1073" />
	<path
   class="st1"
   d="m 254.6,247.9 c 0,0.2 0,0.4 -0.1,0.6 l 4.4,0.6 c 1.5,-2.8 5.2,-17.3 5.7,-19.4 -1,-0.5 -2.1,-1 -3.3,-1.2 h 0.1 c 0,0 0,0 -0.1,0 l -2,-0.4 c 0,0 0,0 0,0 v 0 c -1,-0.2 -1.9,-0.3 -2.6,-0.3 0,0 0,0 0,0 -0.2,2.1 -1.3,12.1 -1.8,17.5 -0.2,1 -0.3,1.9 -0.3,2.6 z"
   id="path1075" />
	<path
   class="st2"
   d="m 259.2,225.1 c 0.2,0.2 0.4,0.3 0.6,0.5 0,0 0,0 0,0 -1.3,-2.8 -1.2,-6.2 0.3,-8.9 v 0 c -0.5,-0.1 -1,-0.2 -1.5,-0.3 v 0 c 0,0 0,0 0,0 -0.4,0.8 -0.6,1.5 -0.8,2.4 -0.5,2.5 0.1,5 1.4,6.3 z"
   id="path1077" />
	<path
   class="st2"
   d="m 262.5,213.3 c 0,0 0,0 0,0 0.1,-0.1 0.2,-0.2 0.3,-0.3 v 0 c -0.3,0 -0.6,0.1 -0.9,0.1 v 0 c 0.1,0.1 0.4,0.2 0.6,0.2 z"
   id="path1079" />
	<path
   class="st2"
   d="m 258.9,215.7 c 0.5,0.1 1,0.2 1.6,0.3 0.1,-0.3 0.3,-0.5 0.5,-0.7 0,0 0,0 0,0 -0.6,-0.1 -1.1,-0.2 -1.5,-0.3 -0.2,0.2 -0.4,0.4 -0.6,0.7 0,0 0,0 0,0 z"
   id="path1081" />
	<path
   class="st2"
   d="m 260.8,213.7 c -0.3,0.2 -0.6,0.4 -0.8,0.7 v 0 c 0,0 0,0 0,0 0.4,0.1 0.9,0.2 1.4,0.3 0.2,-0.3 0.4,-0.5 0.6,-0.7 0,0 0,0 0,0 0,0 0,0 0,0 -0.5,-0.2 -0.9,-0.3 -1.2,-0.3 z"
   id="path1083" />
	<polygon
   class="st2"
   points="253.8,231.4 253.6,231.8 253.7,231.8 "
   id="polygon1085" />
	<polygon
   class="st2"
   points="247.1,229.1 253.8,231.4 254.1,229.4 246.7,228 240.7,235 241.2,235.3 247.1,229.1 "
   id="polygon1087" />
	<path
   class="st2"
   d="m 252.1,248.8 c 2.4,4 15.8,27 17.7,32.5 l 0.4,-0.1 v 0 c -1,-6.4 -13.7,-28.8 -15.5,-32.1 z"
   id="path1089" />
	<path
   class="st2"
   d="m 257.3,259.1 c -1.3,-2.3 -2.6,-4.5 -3.6,-6.2 0,2.6 -0.2,12.5 -1.9,15.2 -0.6,0.9 -1.4,2.4 -2.3,3.9 0,0 0,0 0,0 -1,2.4 -2.3,4.7 -3.8,6.8 0,0 0,0 0,0 l -0.4,0.8 v 0 l 0.8,0.2 h 0.2 c 1.2,-1.1 10.1,-9.8 11,-20.7 z"
   id="path1091" />
	<polygon
   class="st2"
   points="252,284.9 252.7,284.6 "
   id="polygon1093" />
	<polygon
   class="st2"
   points="244.1,282.7 245.7,283.7 245.7,283.7 250.1,285.3 252.1,284.1 248.8,281.7 246.3,280.5 245,280.4 "
   id="polygon1095" />
	<polygon
   class="st2"
   points="275.9,287.3 277.4,287.7 277.5,287.6 "
   id="polygon1097" />
	<path
   class="st2"
   d="m 254.5,248.4 c 0,-0.1 0,-0.3 0.1,-0.6 0.1,-0.6 0.2,-1.6 0.3,-2.7 0.6,-5.5 1.7,-15.4 1.8,-17.5 -0.7,-0.1 -1.3,-0.1 -1.7,-0.1 l -3.2,20.5 z"
   id="path1099" />
	<polygon
   class="st2"
   points="248.3,285.4 249.5,286.1 249.9,285.9 248.7,285.5 "
   id="polygon1101" />
	<path
   class="st2"
   d="m 271.3,281.8 -1.3,0.2 0.4,3.4 2.1,0.4 4.8,1 0.5,-0.7 1.1,-1.4 c -1,-0.5 -4.6,-1.9 -6.8,-2.7 z"
   id="path1103" />
	<path
   d="m 266.1,215.8 c 0.3,0 0.5,-0.1 0.7,-0.1 0,-0.1 -0.1,-0.2 -0.1,-0.3 -0.2,0.1 -0.4,0.1 -0.7,0.1 0,0 0.1,0.2 0.1,0.3 0,0 0,0 0,0 z"
   id="path1105" />
	<path
   d="m 258.7,214.8 c -0.2,0.2 -0.3,0.4 -0.4,0.7 0.2,0.1 0.4,0.2 0.7,0.2 0.2,-0.3 0.3,-0.5 0.5,-0.7 -0.3,-0.1 -0.6,-0.2 -0.8,-0.2 z"
   id="path1107" />
	<polygon
   points=""
   id="polygon1109" />
	<path
   d="m 260.9,215.2 c 1.1,0.2 2.2,0.3 3.3,0.3 0.6,0 1.1,0 1.7,-0.1 0.2,0 0.5,-0.1 0.7,-0.1 0.2,0 0.3,-0.1 0.4,-0.1 l -0.2,-0.7 c -0.2,0.1 -0.4,0.1 -0.6,0.1 0,0 0,0 0,0 -0.1,-0.2 -0.3,-0.4 -0.4,-0.6 -0.3,0 -0.6,0 -0.8,0.1 v 0 c 0.2,0.2 0.4,0.4 0.5,0.7 -1.4,0.1 -2.8,0.1 -4.2,-0.2 0,0 0,0 0,0 -0.5,-0.1 -1,-0.2 -1.4,-0.3 0,0 0,0 0,0 0,0 0,0 0,0 0,0 0,0 0,0 0.3,-0.2 0.5,-0.5 0.8,-0.7 0,0 0,0 0,0 0.3,0.1 0.7,0.2 1.1,0.2 0,0 0,0 0,0 0.9,0.1 1.7,0.2 2.6,0.2 0.2,0 0.4,0 0.5,0 0.3,0 0.5,0 0.8,-0.1 0.2,0 0.3,0 0.5,0 l -0.1,-0.7 c -0.3,0 -0.7,0.1 -1,0.1 0,0 0,0 0,0 -0.5,-0.5 -1.2,-0.9 -1.9,-1 -1,-0.2 -1.9,0 -2.8,0.5 0.3,0.1 0.7,0.2 1.1,0.3 0,0 0,0 0,0 0.3,-0.1 0.6,-0.1 0.9,-0.1 v 0 0 0 c 0,0 0.1,0 0.1,0 0.2,0 0.3,0 0.5,0 0.3,0.1 0.6,0.2 0.9,0.3 -0.6,0 -1.2,-0.1 -1.8,-0.1 0,0 0,0 0,0 -0.2,0 -0.5,-0.1 -0.7,-0.1 -0.4,-0.1 -0.8,-0.2 -1.1,-0.3 -0.3,-0.1 -0.5,-0.2 -0.8,-0.3 l -0.3,0.6 c 0,0 0.1,0.1 0.3,0.1 0.1,0 0.2,0.1 0.3,0.1 -0.1,0 -0.2,-0.1 -0.3,-0.1 -0.2,0.1 -0.3,0.3 -0.5,0.4 -0.1,0.1 -0.2,0.2 -0.3,0.3 -0.7,-0.2 -1.1,-0.3 -1.1,-0.3 l -0.2,0.7 c 0.1,0 0.4,0.1 0.9,0.2 0.2,0.1 0.5,0.1 0.7,0.2 v 0 c 0.9,0.4 1.4,0.5 1.9,0.5 0,0 0,0 0,0 z m -0.1,-1.5 v 0 c -0.2,0 -0.3,-0.1 -0.5,-0.1 0.2,0 0.3,0 0.5,0.1 z"
   id="path1111" />
	<path
   d="m 280.3,284.1 v 0 l -8.9,-3 v 0 l -2.2,0.3 v 0.2 l 0.5,4.3 6,1.3 h 0.1 l 1.6,0.3 v 0 l 0.1,-0.1 z m -10.4,-2.1 1.3,-0.2 0.7,0.2 7.1,2.4 v 0 l -0.3,0.4 v 0 0 l -1.1,1.4 -0.5,0.7 -4.8,-1 -2.1,-0.4 v 0 z"
   id="path1113" />
	<path
   d="m 247,280.1 -0.5,-0.2 -2.2,-0.2 h -0.4 l -1.4,3.7 5.8,2.1 0.4,0.1 1.1,0.4 v 0 l 0.3,0.1 1.9,-1.1 v 0 l 0.6,-0.4 v 0 l 1.7,-1 z m 3.1,5.2 v 0 l -4.4,-1.5 v 0 l -2.3,-0.8 v 0 l 1,-2.6 0.6,0.1 1.3,0.1 2.5,1.2 v 0 l 4.1,1.9 v 0 l -0.5,0.3 -0.3,0.2 v 0 z"
   id="path1115" />
	<path
   d="m 241.8,238.1 -0.2,-2.3 v -0.2 h -0.7 v 0 l 0.7,-0.1 v 0.2 l 5.7,-6 6.2,2.2 0.1,-0.2 0.1,-0.4 v 0 0 0 0 l -6.6,-2.3 v 0 l -5.9,6.2 v 0 l -0.5,-0.3 v 0 l -0.5,-0.3 5.5,-8.6 8.7,1.3 v 0 l -0.3,1.9 -0.3,2 v 0 0 l -0.1,0.4 -2.6,16.8 h 0.2 l -0.1,-0.1 v 0 l 0.1,0.1 c 0.2,0.3 0.6,1 1.2,2.1 0,-0.1 0,-0.1 0,-0.1 l 0.7,-0.1 c 0,0 0,0 0,0 l -0.7,0.1 c 0,0 0,0 0,0.1 0.1,1.3 1,17.2 -8.2,28.8 v 0.1 l 2.2,0.2 0.5,0.2 c 1.7,-1.7 9.6,-9.7 10.9,-20 4.7,8.2 10.3,18.3 11.3,21.5 v -0.2 l 2.2,-0.3 v 0 c -0.3,-1.5 -4.4,-19.7 -11.8,-31.7 1,-1.9 3,-8.7 4.3,-13.9 l -0.4,-0.5 v 0 l 0.4,0.5 5.7,6.9 7.5,-10.5 v 0 l 1.7,-0.3 0.1,-0.2 c 0.3,-0.8 0.6,-1.7 0.9,-2.5 0,-0.2 0,-0.2 -3.3,-2.4 l -0.3,-0.2 -2,2.8 1.4,1.9 -5.8,5.3 -4.2,-6.9 v 0 -0.1 l -0.2,-0.1 c -1.1,-0.6 -2.2,-1.1 -3.5,-1.4 v 0 l 0.6,-1.2 v 0 c 0.9,-0.2 1.7,-0.7 2.3,-1.4 1.2,-1.3 2.1,-2.9 2.4,-4.7 0.3,-1.4 0.3,-2.8 -0.1,-4.2 0,0 0,0 0,0 0.2,0 0.3,-0.1 0.4,-0.1 l -0.2,-0.7 c 0,0 -0.2,0 -0.4,0.1 -0.2,0 -0.4,0.1 -0.7,0.1 -0.4,0.1 -0.9,0.1 -1.3,0.2 -1.4,0.2 -2.9,0.2 -4.3,0 0,0 0,0 0,0 -0.5,-0.1 -1,-0.2 -1.6,-0.3 -0.2,-0.1 -0.4,-0.1 -0.7,-0.2 -0.2,-0.1 -0.3,-0.1 -0.5,-0.2 l -0.3,0.6 c 0.1,0.1 0.3,0.1 0.4,0.2 -0.4,0.8 -0.7,1.6 -0.8,2.5 -0.6,3.1 0.3,6 2,7.4 v -0.2 l 0.7,0.1 -0.1,0.5 c 0.3,0.2 0.6,0.3 0.9,0.3 0.2,0 0.5,0.1 0.7,0.1 0,0 0.1,0 0.1,0 l 0.3,-0.6 0.6,0.3 v 0 l -0.6,-0.3 -0.3,0.6 -0.4,0.9 c 0,0 0,0 0,0 -0.5,-0.1 -1,-0.2 -1.5,-0.3 v 0 0 l 1.5,0.3 v 0 l -1.5,-0.3 v 0 l 0.2,-1 0.1,-0.5 -0.7,-0.1 v 0.2 l -0.2,1.3 v 0 c -1.4,-0.2 -2.7,-0.3 -4.1,-0.4 v 0 0 l -9.5,-1.4 -5.8,9.1 h 0.2 v 0 h -2.3 l -1.8,2.5 4.4,2.9 z m 16,-19.4 c 0.2,-0.8 0.4,-1.6 0.8,-2.4 0,0 0,0 0,0 0,0 0,0 0,0 v 0 0 c 0.5,0.1 1,0.3 1.5,0.3 0.8,0.1 1.5,0.2 2.3,0.2 1.3,0 2.6,-0.1 3.9,-0.3 0.3,1.3 0.3,2.6 0.1,3.9 -0.3,1.6 -1.1,3.1 -2.2,4.3 -0.8,1 -2.1,1.4 -3.4,1.2 -0.4,-0.1 -0.7,-0.2 -1,-0.4 0,0 0,0 0,0 -0.2,-0.1 -0.4,-0.3 -0.6,-0.5 -1.3,-1.2 -1.9,-3.7 -1.4,-6.3 z m -0.5,40.4 c -0.9,11 -9.8,19.6 -11,20.7 v 0 h -0.2 l -0.8,-0.2 h -0.1 c 0,0 0,0 0,0 0.2,-0.2 0.4,-0.5 0.5,-0.7 0,0 0,0 0,0 1.5,-2.1 2.8,-4.4 3.8,-6.8 0,0 0,0 0,0 2.6,-6.3 3.8,-13.1 3.7,-20 0,0 0,0 0,0 l 0.5,0.8 c 1,1.7 2.3,3.8 3.6,6.2 0,-0.1 0,-0.1 0,-0.1 l 0.7,0.1 c 0,0 0,0 0,0 l -0.7,-0.1 c 0,0 0,0 0,0.1 z m 13.3,22 -0.4,0.1 v 0 l -0.4,0.1 v 0 c -1.9,-5.6 -15.3,-28.5 -17.7,-32.5 l -0.3,-0.6 v 0 l 0.3,0.6 v 0 l 2.6,0.4 4.2,0.6 v 0 c 0,0 -0.1,-0.1 -0.1,-0.1 v 0 c 0,0 0.1,0.1 0.1,0.1 7.2,11.4 11.2,28.8 11.7,31.3 z m 5.4,-49.6 0.4,0.2 v 0 l -6.5,9.1 v 0 -3.8 z m 0.3,-4.2 c 0.9,0.6 2.2,1.5 2.7,1.8 0,0 0,0 0,0 -0.1,0.4 -0.5,1.3 -0.7,2 l -1.3,0.2 v 0 h -0.1 l 0.1,0.7 v 0 l -0.1,-0.7 h 0.1 v 0 l -0.8,-0.4 v 0 0 0 0 0 l -1.2,-1.7 v 0 z m -7.1,9.5 h 0.7 v 0 z m -4.4,-7.2 0.4,0.7 4,6.6 v 0 c 0,0.1 0,2.8 0,4 0,0.3 0,0.9 0,1 v 0 -1 0 l -5.2,-6.2 v 0 0 c 0.5,-1.9 0.9,-3.5 1.1,-4.4 z m -9.8,-2.1 c 0.3,0 0.9,0 1.7,0.1 v 0 c 0,0 0,0 0,0 0.7,0.1 1.7,0.2 2.6,0.3 v 0 l -0.5,-0.1 v 0 l 0.6,0.1 2,0.4 h 0.1 v 0 0 h -0.1 c 1.1,0.3 2.2,0.7 3.3,1.2 -0.5,2.1 -4.1,16.7 -5.7,19.4 0,0 0,0 0,0 l -4.4,-0.6 -2.6,-0.4 3,-20.4 c 0,0 0,0 0,0 z m -18.4,9.3 1.2,-1.6 h 1.8 v 0 l 1.4,0.8 v 0 l 0.1,2 -1.2,1.1 z"
   id="path1117" />
</g>
</svg>
