<?xml version="1.0" encoding="utf-8"?>
<!-- Generator: Adobe Illustrator 27.7.0, SVG Export Plug-In . SVG Version: 6.00 Build 0)  -->
<svg version="1.1" id="Layer_1" xmlns="http://www.w3.org/2000/svg" xmlns:xlink="http://www.w3.org/1999/xlink" x="0px" y="0px"
	 viewBox="0 0 139 385" style="enable-background:new 0 0 139 385;" xml:space="preserve">
<style type="text/css">
	.st0{fill:none;}
	.st1{fill:#FFFFFF;}
	.st2{fill:#27AAE1;}
	.st3{clip-path:url(#SVGID_00000132782878168094255030000002522642745723070878_);fill:#27AAE1;}
	.st4{clip-path:url(#SVGID_00000132782878168094255030000002522642745723070878_);}
	.st5{opacity:0.156;}
	.st6{fill:#8ACDEA;}
	.st7{clip-path:url(#SVGID_00000173139556451853930110000016698524346747055243_);}
	.st8{clip-path:url(#SVGID_00000124160434223396537640000012715830867300857236_);}
</style>
<g>
	<path class="st0" d="M73.1,64.9c-5.4,1.3-11,1.6-16.5,0.8c0,0,0,0,0,0C62.1,66.5,67.7,66.2,73.1,64.9z"/>
	<path class="st0" d="M83,66.6c-1.2,0.5-2.5,0.9-3.7,1.3c0,0,0,0,0,0c0,0,0,0,0,0C80.5,67.5,81.8,67.1,83,66.6
		c-0.3-0.6-0.6-1.2-1-1.8c0,0,0,0,0,0C82.3,65.4,82.7,66,83,66.6L83,66.6z"/>
	<path class="st0" d="M79.6,61.8C79.6,61.8,79.6,61.8,79.6,61.8c-0.7,0.3-1.5,0.5-2.2,0.7c0,0,0,0,0,0
		C78.1,62.3,78.9,62.1,79.6,61.8z"/>
	<path class="st0" d="M76.3,59.9c0.3-0.1,0.6-0.2,0.9-0.2c0,0,0,0,0,0C76.9,59.8,76.6,59.9,76.3,59.9C76.3,59.9,76.3,59.9,76.3,59.9
		c-5.1,1.3-10.3,1.6-15.5,1c0,0,0,0,0,0C66,61.6,71.2,61.2,76.3,59.9z"/>
	<path class="st0" d="M77.8,63.5C77.8,63.5,77.8,63.5,77.8,63.5c-0.1-0.2-0.1-0.4-0.2-0.6C77.6,63.1,77.7,63.3,77.8,63.5z"/>
	<path class="st0" d="M58.3,63.4L58.3,63.4c0.1,0,0.3,0,0.4,0.1C58.6,63.4,58.5,63.4,58.3,63.4z"/>
	<path class="st0" d="M55,68.3C55,68.3,55,68.3,55,68.3c-0.6,1.1-1.1,2.3-1.6,3.4c0,0,0,0,0,0C53.9,70.6,54.5,69.4,55,68.3z"/>
	<path class="st0" d="M46.7,179.6l-16.5-18.4c1.4-1.9,3.5-4.7,5.6-7.4l0,0c-2.1,2.7-4.2,5.5-5.6,7.4L46.7,179.6L46.7,179.6z"/>
	<path class="st0" d="M51.4,81.2c0.2-2.3,0.6-4.5,1.2-6.7c6.6-0.2,17.7-1,27.4-4c1.6,6.8,2.3,15.2-1,22.9c3.3-7.7,2.6-16.1,1-22.9
		c0,0,0,0,0,0c-9.7,3-20.8,3.8-27.4,4C52,76.7,51.6,79,51.4,81.2c-0.3,2.8-0.2,5.5,0.2,8.1C51.2,86.7,51.1,84,51.4,81.2z"/>
	<polygon class="st0" points="23.6,153.9 23.6,153.9 28.3,159.2 28.3,159.1 	"/>
	<path class="st0" d="M37.6,151.6l5.5,8.7c-0.6-4-1.2-8.3-1.8-12.9C40.3,148.4,39,149.9,37.6,151.6z"/>
	<path class="st0" d="M40.9,144.1C40.9,144.1,40.9,144,40.9,144.1c-0.1,0.1-0.3,0.2-0.4,0.3C40.6,144.2,40.8,144.1,40.9,144.1z"/>
	<polygon class="st0" points="85.4,110 85.4,110 84.4,111.2 84.3,111.3 84.4,111.2 	"/>
	<path class="st0" d="M87.8,118.4c-1.9-2.7-3.7-4.8-4.8-6l0,0C84,113.6,85.8,115.6,87.8,118.4z"/>
	<path class="st0" d="M49.2,189.9c0-0.2-0.1-0.3-0.1-0.5C49.1,189.6,49.1,189.8,49.2,189.9L49.2,189.9z"/>
	<polygon class="st0" points="85,122.2 85,122.2 88.3,125.4 	"/>
	<path class="st0" d="M102.1,152.6L102.1,152.6c-0.5-15.6-6.8-30.4-17.7-41.5C95.3,122.3,101.7,137.1,102.1,152.6z"/>
	<polygon class="st0" points="62.9,110 62.9,110 63.2,112.6 	"/>
	<path class="st0" d="M80.2,113.5l-8.1-2.8l0,4.4c3.2,0,6.5,0.1,9.9,0.4C81.1,114.5,80.5,113.8,80.2,113.5z"/>
	<polygon class="st0" points="63.6,115.3 63.6,115.3 69.3,114.3 69.3,110.7 69.3,110.7 69.3,114.3 	"/>
	<path class="st0" d="M89.4,126.5c2.8,5.4,4.9,12.2,4.4,19.4l0,0C94.3,138.6,92.2,131.9,89.4,126.5L89.4,126.5z"/>
	<path class="st0" d="M82.4,109.3l-1.8,1.5l-9.2-3.2l0-0.1c-0.1,0-0.1,0-0.2,0l-4.9-1.7l0.7-4.4l0,0l-0.7,4.4l4.9,1.7
		c0.1,0,0.1,0,0.2,0l0,0.1l9.2,3.2L82.4,109.3l5.6-6.6l0,0L82.4,109.3z"/>
	<path class="st0" d="M64.6,110.5c0.2,0,0.5,0.1,0.7,0.1C65,110.6,64.8,110.6,64.6,110.5z"/>
	<polygon class="st0" points="39.2,124.9 28.2,145.3 39.2,124.9 	"/>
	<path class="st0" d="M82.1,118.3C82.1,118.3,82.1,118.3,82.1,118.3c0.4,8,2.6,51.4,5.9,74.2C84.7,169.7,82.5,126.3,82.1,118.3z"/>
	<rect x="61.2" y="118.3" transform="matrix(0.9903 -0.1389 0.1389 0.9903 -15.8462 9.6518)" class="st0" width="0" height="0.2"/>
	<path class="st0" d="M63.3,203.2C63.3,203.2,63.3,203.2,63.3,203.2c0.8,11.3,5.9,92.1,2.6,119.7h0
		C69.3,295.4,64.1,214.6,63.3,203.2z"/>
	<path class="st0" d="M88.9,198.4C88.9,198.4,88.9,198.4,88.9,198.4c-2.5,0.3-7.9,1-14.1,1.5v-82c0,0,0,0,0,0v82h0
		c-6.7,0.5-14.2,0.8-19.8,0.2c-0.4-1.3-1.5-4.6-2.8-9.6l0.1-0.2l-0.2-0.2c-0.5-1.8-1-3.7-1.5-5.9l0.1-0.1l-0.2-0.2
		c-4.8-20.7-7.8-41.7-8.8-62.9c0.4-0.1,0.9-0.2,1.3-0.3c-0.4,0.1-0.9,0.2-1.4,0.3c1,21.2,4,42.3,8.8,62.9l0.2,0.2l-0.1,0.1
		c0.5,2.2,1,4.1,1.5,5.9l0.2,0.2l-0.1,0.2v0c1.3,5,2.4,8.3,2.8,9.6c5.6,0.7,13.2,0.4,19.8-0.2C81,199.4,86.5,198.7,88.9,198.4z"/>
	<polygon class="st0" points="91.1,320.8 91.1,320.8 89.7,320.9 81,202.1 81,202.1 89.7,320.9 88.2,321 74.8,202.7 74.8,202.7 
		88.2,321 89.7,320.9 	"/>
	<polygon class="st0" points="65.8,323 65.9,323 65.8,323 	"/>
	<polygon class="st0" points="89.3,325 91.9,324.6 91.9,324.6 93.4,324.4 93.4,324.4 91.9,324.6 89.3,325 100.6,341.9 100.6,341.9 	
		"/>
	<polygon class="st0" points="111.3,335.2 111.5,335.1 111.3,335.2 	"/>
	<polygon class="st0" points="69.3,323 69.3,323 70.7,260.3 	"/>
	<path class="st0" d="M60.3,327.4c-3.2,1.3-8.6,3.5-18.1,7.2C51.7,330.9,57.1,328.7,60.3,327.4L60.3,327.4z"/>
	<path class="st0" d="M37.1,188.6l11-3.2c0,0.1,0.1,0.2,0.1,0.4c0-0.1-0.1-0.2-0.1-0.4L37.1,188.6l7.9,6.9l0,0L37.1,188.6z"/>
	<path class="st0" d="M54.9,342.3c-2.2-1.1-4.4-2.4-6.5-3.7C50.5,339.9,52.7,341.2,54.9,342.3L54.9,342.3c1.7-1.7,7.8-9,13.6-16l0,0
		C62.7,333.3,56.6,340.6,54.9,342.3z"/>
	<path class="st1" d="M102.1,152.6L102.1,152.6l6.6,5.4c-4.2-25.8-19.2-43.6-23.3-48l-1,1.2C95.3,122.3,101.7,137.1,102.1,152.6z"/>
	<path class="st1" d="M40.5,144.4c0.1-0.1,0.3-0.2,0.4-0.3c-0.7-6-1.3-12.4-1.7-19.2l-11,20.4l-4.6,8.6l4.7,5.2
		C30.9,155.6,37.5,146.8,40.5,144.4z"/>
	<path class="st1" d="M46.7,179.6l-0.1-0.3c-0.8-3.5-1.6-7.5-2.4-12l-8.5-13.5c-2.1,2.7-4.2,5.5-5.6,7.4L46.7,179.6z"/>
	<path class="st1" d="M76.3,59.9c-0.2-0.4-0.3-0.8-0.5-1.1c0,0,0,0,0,0c-1.5-0.8-3.1-1.3-4.8-1.5c-3.7-0.2-7.4,1.1-10.2,3.6
		C66,61.6,71.2,61.2,76.3,59.9z"/>
	<path class="st1" d="M73.1,64.9c1.6-0.4,3.1-0.9,4.7-1.4c0,0,0,0,0,0c-0.1-0.2-0.1-0.4-0.2-0.6c-0.1-0.1-0.1-0.3-0.2-0.4
		c0,0,0,0,0,0c0,0,0,0,0,0c0,0,0,0,0,0c-3.7,1-7.5,1.5-11.3,1.5c-2.4,0-4.9-0.2-7.3-0.6c-0.1,0-0.3,0-0.4-0.1l0,0
		c-0.6,0.7-1.2,1.5-1.8,2.3C62.1,66.5,67.7,66.2,73.1,64.9z"/>
	<path class="st1" d="M37.1,188.6l7.9,6.9l4.2-5.6c0-0.2-0.1-0.3-0.1-0.5c-0.3-1.1-0.6-2.3-0.9-3.6c0-0.1-0.1-0.2-0.1-0.4
		L37.1,188.6z"/>
	<path class="st1" d="M89.7,320.9L81,202.1c0,0,0,0,0,0c-1.9,0.2-4,0.4-6.2,0.6L88.2,321L89.7,320.9z"/>
	<path class="st1" d="M63.3,203.2C63.3,203.2,63.3,203.2,63.3,203.2c-0.2,0-0.4,0-0.5,0c-2.5,0-5-0.1-7.6-0.4
		c0,9.6,0.1,79.7,10.6,120.1l0.1,0C69.3,295.4,64.1,214.6,63.3,203.2z"/>
	<path class="st1" d="M50.5,183.9l0.2,0.2l-0.1,0.1c0.5,2.2,1,4.1,1.5,5.9l0.2,0.2l-0.1,0.2c1.3,5,2.4,8.3,2.8,9.6
		c5.6,0.7,13.2,0.4,19.8-0.2h0v-82c-4-0.1-7.9,0-11.5,0.2l-2.1,0.3l0,0l0,0l0-0.2c-6.1,0.5-12.1,1.3-18.1,2.5
		c-0.4,0.1-0.9,0.2-1.3,0.3C42.8,142.2,45.7,163.2,50.5,183.9z"/>
	<path class="st1" d="M80,70.6c-9.7,3-20.8,3.8-27.4,4c-0.6,2.2-1,4.4-1.2,6.7c-0.3,2.8-0.2,5.5,0.2,8.1c0.7,5.1,2.6,9.8,5.4,13.2
		l0,0c1.7,2.1,3.8,3.7,6.3,4.7l1.5-9.6l9.6,3.2l0,0c2.1-2.3,3.6-4.8,4.7-7.4C82.3,85.8,81.6,77.4,80,70.6z"/>
	<polygon class="st1" points="91.9,324.6 91.9,324.6 111.3,335.2 111.5,335.1 113,334.1 93.4,324.4 91.9,324.6 	"/>
	<path class="st1" d="M71.2,107.4c0.1,0,0.1,0,0.2,0l0,0.1l9.2,3.2l1.8-1.5l5.6-6.6l-1.3-1.2l-4.2,5L67,101.3l-0.7,4.4L71.2,107.4z"
		/>
	<path class="st1" d="M63.6,115.3l5.7-1v-3.6c-0.7,0.1-1.3,0.1-2,0.1c-0.3,0-0.7,0-1,0h0c-0.4,0-0.7-0.1-1-0.2
		c-0.2,0-0.5-0.1-0.7-0.1c-0.6-0.1-1.1-0.3-1.7-0.5l0.4,2.6L63.6,115.3z"/>
	<path class="st1" d="M79.2,67.9C79.2,67.9,79.2,67.9,79.2,67.9C79.2,67.9,79.2,67.9,79.2,67.9c-0.2-0.6-0.4-1.2-0.6-1.8
		C73.5,68,68.1,68.9,62.6,69c-2.5,0-5.1-0.2-7.6-0.7c-0.6,1.1-1.1,2.3-1.6,3.4C60.1,71.5,70.4,70.6,79.2,67.9z"/>
	<path class="st1" d="M42.2,334.6c1.3,0.9,2.7,1.7,4,2.6l14.1-9.8C57.1,328.7,51.7,330.9,42.2,334.6z"/>
	<path class="st2" d="M79.2,67.9c1.3-0.4,2.5-0.8,3.7-1.3v0c-0.3-0.6-0.6-1.2-1-1.8c-1.1,0.5-2.2,0.9-3.3,1.3c0,0,0,0,0,0
		C78.9,66.7,79.1,67.3,79.2,67.9C79.2,67.9,79.2,67.9,79.2,67.9z"/>
	<path class="st2" d="M76.3,59.9c0.3-0.1,0.6-0.2,0.9-0.2c-0.4-0.3-0.9-0.6-1.4-0.8C76,59.2,76.1,59.5,76.3,59.9
		C76.3,59.9,76.3,59.9,76.3,59.9z"/>
	<path class="st2" d="M79,93.5c-1.1,2.6-2.6,5-4.7,7.4l4.5,1.5c4.1-4.5,6.7-11.1,7.4-18.2c0.5-5.1-0.2-10.3-2-15.1
		c-1.3,0.5-2.7,1-4.2,1.5C81.6,77.4,82.3,85.8,79,93.5z"/>
	<path class="st2" d="M77.4,62.5c0.1,0.1,0.1,0.3,0.2,0.4c0.1,0.2,0.1,0.4,0.2,0.6c0.8-0.3,1.6-0.6,2.5-1c-0.2-0.2-0.4-0.5-0.6-0.7
		C78.9,62.1,78.1,62.3,77.4,62.5C77.4,62.5,77.4,62.5,77.4,62.5z"/>
	<path class="st2" d="M96.3,147.9l5.8,4.7c-0.5-15.6-6.8-30.4-17.7-41.5l-0.1,0.1l0,0l-1.3,1.1c1.1,1.2,2.9,3.2,4.8,6
		C92.5,125,98,135.8,96.3,147.9z"/>
	<path class="st2" d="M89.4,126.5L89.4,126.5C89.4,126.4,89.4,126.4,89.4,126.5l-1.1-1l-3.3-3.2c0.2,4.1,0.6,10.2,1,17.4l7.7,6.3
		C94.3,138.6,92.1,131.9,89.4,126.5z"/>
	<path class="st2" d="M88.9,198.4c-0.3-1.8-0.7-3.8-1-6c-3.3-22.8-5.5-66.2-5.9-74.2c-2.4-0.2-4.9-0.3-7.2-0.4v82
		C81,199.4,86.4,198.7,88.9,198.4z"/>
	<path class="st2" d="M91.1,320.8c1-10.1,7.6-82.6-1.8-119.7c-1.7,0.2-4.7,0.6-8.3,1l8.7,118.7L91.1,320.8z"/>
	<path class="st2" d="M71.9,202.9c-2.8,0.2-5.8,0.3-8.6,0.3c0.8,11.3,5.9,92.1,2.6,119.7h3.4l1.3-62.7L71.9,202.9z"/>
	<path class="st2" d="M55.7,345.1C55.7,345.1,55.7,345.1,55.7,345.1C55.6,345.1,55.6,345.1,55.7,345.1l3.4,0.9l6.2-11.5
		C56.8,344.7,56.1,345,55.7,345.1z"/>
	<path class="st2" d="M68.4,326.3l-4.3-0.5c-0.6,0.3-1.7,0.7-3.9,1.6c0,0,0,0,0,0l0,0l-14.1,9.8c0,0,0,0,0,0c0.7,0.5,1.5,1,2.2,1.4
		c2.1,1.3,4.3,2.6,6.5,3.7C56.6,340.6,62.7,333.3,68.4,326.3z"/>
	<path class="st2" d="M40.3,341.2l12.7,3.3c-3.2-1.7-6.4-3.6-9.4-5.6L40.3,341.2z"/>
	<polygon class="st2" points="109.4,339.7 115.8,337.7 114.1,336.8 109.4,339.7 	"/>
	<polygon class="st2" points="90.3,331.4 95.8,343.8 98.1,343.1 	"/>
	<polygon class="st2" points="91.9,324.6 91.9,324.6 89.3,325 100.6,341.9 111.3,335.2 111.3,335.2 111.3,335.2 	"/>
	<path d="M93.8,321.5c0.8-8.2,7.9-82.5-1.8-120.8l0.2,0l-0.3-1.4c-2.4-11.4-4.4-36.4-5.6-55.9l26.1,21.2l-0.4-3.4
		c-3.5-29-20.7-48.9-24.8-53.3l4.6-5.5l-5.3-4.9l-3.9,4.6c3.7-5.2,5.8-11.3,6.3-17.6c0.6-5.6-0.2-11.2-2.2-16.4c0.7-0.3,1.3-0.6,2-1
		l-1.3-2.4c-0.6,0.3-1.2,0.6-1.8,0.9c-0.3-0.6-0.7-1.2-1-1.8c0.4-0.2,0.7-0.3,1.1-0.5l-1.3-2.5c-0.5,0.2-0.9,0.4-1.4,0.7
		c-0.1-0.1-0.1-0.2-0.2-0.3c-0.1-0.1-0.2-0.2-0.3-0.3c0.5-0.2,1.1-0.5,1.7-0.8l-1.2-2.5c-0.8,0.4-1.7,0.8-2.5,1.1
		c-2.5-2.3-5.7-3.7-9.1-4c-5.1-0.4-9.9,1.8-13.8,5.8c-1.2-0.2-2.5-0.5-3.7-0.9l-0.9,2.6c0.1,0.1,1,0.3,2.5,0.7
		c-0.6,0.8-1.2,1.6-1.7,2.4c-1.6-0.4-2.9-0.7-3.8-1c-0.5-0.2-1.1-0.3-1.7-0.4l-0.1,2.8c0.2,0,0.5,0.1,1,0.3c0.8,0.2,1.8,0.5,3.1,0.8
		c-0.7,1.3-1.2,2.7-1.7,4.1c-2.3,0-3.6,0-3.7,0l-0.1,2.8c0.2,0,0.8,0,1.8,0c0.3,0,0.7,0,1.1,0c-0.5,2.1-0.9,4.2-1.1,6.3
		c-0.8,8.9,1.5,17.6,6.3,23.4c1.4,1.7,3.1,3.2,5,4.3l0.9,6.8c-7,0.5-14,1.5-20.8,3l-1.1,0.3l0,0.8l-18.6,34.8l25.8,28.8l-14.7,4.2
		l13.9,12.2l4.7-6.2c0.3,1,0.5,1.9,0.7,2.6c0.5,2,1.1,3.9,1.9,5.8h-0.2c0,0.8-0.7,77.9,10.6,121.5c-1.8,0.8-15.3,6.2-24.3,9.8
		l-2.5,1l2.2,1.5c2,1.3,3.7,2.4,5.2,3.4c3,2,6.2,3.9,9.4,5.6c0.7,0.4,1.4,0.6,2.2,0.7c0.1,0,0.3,0,0.4-0.1c0,0,0,0,0,0
		c0,0,0.1,0,0.1,0c0.3-0.1,1.1-0.4,9.5-10.6c0,0,0,0,0,0c1.9-2.3,4.2-5.1,6.9-8.4l1.6-2l-1.7-0.2l2.2-101.6l11.4,100.4l-1,0.1
		l5.7,8.5l7.8,11.7l1.7,2.6l9.5-6l0,0l4.7-2.9l0,0l4.6-2.9L93.8,321.5L93.8,321.5z M82.9,112.4l1.3-1.1l0,0l0.1-0.1l1-1.2
		c0,0,0,0,0,0c4.1,4.4,19.1,22.2,23.3,48l-6.6-5.4l0,0l0,0l-5.8-4.7c1.7-12.2-3.9-22.9-8.6-29.6C85.8,115.6,84,113.6,82.9,112.4
		L82.9,112.4z M93.8,145.8L93.8,145.8l-7.7-6.3c-0.4-7.1-0.8-13.3-1-17.4c0,0,0,0,0,0l3.3,3.2l1.1,1c0,0,0,0,0,0
		C92.2,131.9,94.3,138.6,93.8,145.8z M82.4,109.3l-1.8,1.5l-9.2-3.2l0-0.1c-0.1,0-0.1,0-0.2,0l-4.9-1.7l0.7-4.4l0,0l15.5,5.2l4.2-5
		l1.3,1.2l0,0L82.4,109.3z M62.9,110c0.6,0.2,1.1,0.3,1.7,0.5c0.2,0,0.5,0.1,0.7,0.1c0.3,0.1,0.7,0.1,1,0.2h0c0.3,0,0.7,0,1,0
		c0.7,0,1.3-0.1,2-0.1c0,0,0,0,0,0v3.6l-5.7,1v0l-0.4-2.6L62.9,110C62.9,110,62.9,110,62.9,110z M72.1,115.1l0-4.4l8.1,2.8
		c0.3,0.3,1,1,1.8,2C78.6,115.2,75.3,115.1,72.1,115.1z M60.8,60.9c2.8-2.5,6.4-3.8,10.2-3.6c1.7,0.2,3.3,0.7,4.8,1.5c0,0,0,0,0,0
		c0.5,0.3,0.9,0.5,1.4,0.8c0,0,0,0,0,0c-0.3,0.1-0.6,0.2-0.9,0.2C71.2,61.2,66,61.6,60.8,60.9C60.8,60.9,60.8,60.9,60.8,60.9z
		 M56.6,65.7c0.5-0.8,1.1-1.6,1.8-2.3l0,0v0c0.1,0,0.3,0,0.4,0.1c2.4,0.4,4.8,0.6,7.3,0.6c3.8,0,7.6-0.5,11.3-1.5c0,0,0,0,0,0
		c0.7-0.2,1.5-0.4,2.2-0.7c0,0,0,0,0,0c0.2,0.2,0.4,0.5,0.6,0.7c-0.8,0.3-1.7,0.7-2.5,1c0,0,0,0,0,0c0,0,0,0,0,0
		c-1.5,0.6-3.1,1-4.7,1.4C67.7,66.2,62.1,66.5,56.6,65.7C56.5,65.8,56.5,65.8,56.6,65.7z M55,68.3C55,68.3,55,68.3,55,68.3
		c2.5,0.4,5,0.7,7.6,0.7c5.5,0,10.9-1,16.1-2.9c0,0,0,0,0,0c1.1-0.4,2.2-0.8,3.3-1.3c0,0,0,0,0,0c0.4,0.6,0.7,1.2,1,1.8
		c-1.2,0.5-2.5,0.9-3.7,1.3c0,0,0,0,0,0c-8.9,2.7-19.2,3.6-25.8,3.9c0,0,0,0,0,0C53.9,70.6,54.5,69.4,55,68.3z M51.4,81.2
		c0.2-2.3,0.6-4.5,1.2-6.7c6.6-0.2,17.7-1,27.4-4c0,0,0,0,0,0c1.4-0.4,2.8-0.9,4.2-1.5c1.8,4.8,2.5,10,2,15.1
		c-0.6,7.1-3.3,13.7-7.4,18.2l-4.5-1.5l0,0l-9.6-3.2l-1.5,9.6c-2.5-1-4.6-2.6-6.3-4.7l0,0c-2.8-3.4-4.7-8.1-5.4-13.2
		C51.2,86.7,51.1,84,51.4,81.2z M37.6,151.6c1.4-1.7,2.7-3.2,3.7-4.2c0.6,4.6,1.2,8.9,1.8,12.9L37.6,151.6z M23.6,153.9L23.6,153.9
		l4.6-8.6l11-20.5c0,0,0,0,0,0c0.4,6.8,1,13.2,1.7,19.2c0,0,0,0,0,0c-0.1,0.1-0.3,0.2-0.4,0.3c-3,2.5-9.6,11.3-12.2,14.8
		c0,0,0,0,0,0L23.6,153.9z M30.2,161.2c1.4-1.9,3.5-4.7,5.6-7.4l0,0l8.5,13.5c0.8,4.5,1.6,8.5,2.4,12l0.1,0.3l0,0L30.2,161.2z
		 M37.1,188.6l11-3.2c0,0.1,0.1,0.2,0.1,0.4c0.3,1.3,0.6,2.5,0.9,3.6c0,0.2,0.1,0.3,0.1,0.5l0,0l-4.2,5.6l0,0L37.1,188.6z
		 M54.9,342.3L54.9,342.3c-2.2-1.2-4.4-2.4-6.5-3.7c-0.8-0.5-1.5-1-2.2-1.4c0,0,0,0,0,0c-1.3-0.8-2.6-1.7-4-2.6
		c9.5-3.7,14.9-5.9,18.1-7.2c0,0,0,0,0,0c2.2-0.9,3.3-1.4,3.9-1.6l4.3,0.5l0,0C62.7,333.4,56.6,340.6,54.9,342.3z M69.3,323h-3.4h0
		h-0.1c0,0,0,0,0,0c-10.5-40.3-10.6-110.5-10.6-120.1c2.5,0.2,5,0.4,7.6,0.4c0.2,0,0.4,0,0.5,0c0,0,0,0,0,0c0,0,0,0,0,0
		c2.8,0,5.7-0.1,8.6-0.3l-1.2,57.3L69.3,323L69.3,323z M55,200.1c-0.4-1.3-1.5-4.6-2.8-9.6v0l0.1-0.2l-0.2-0.2
		c-0.5-1.8-1-3.7-1.5-5.9l0.1-0.1l-0.2-0.2c-4.8-20.7-7.8-41.7-8.8-62.9c0.4-0.1,0.9-0.2,1.4-0.3c6-1.2,12-2,18.1-2.5h0l0,0.2l0,0
		l2.1-0.3c3.6-0.2,7.5-0.3,11.5-0.2c0,0,0,0,0,0c2.4,0.1,4.8,0.2,7.2,0.4c0,0,0,0,0,0c0.4,8,2.6,51.4,5.9,74.2c0.3,2.2,0.6,4.2,1,6
		c0,0,0,0,0,0c-2.5,0.3-7.9,1-14.1,1.5C68.2,200.5,60.6,200.7,55,200.1z M74.8,202.7C74.8,202.7,74.8,202.7,74.8,202.7
		c2.2-0.2,4.3-0.4,6.2-0.6c0,0,0,0,0,0c0,0,0,0,0,0c3.7-0.4,6.6-0.8,8.3-1c9.4,37.1,2.8,109.6,1.8,119.7c0,0,0,0,0,0l-1.4,0.1
		l-1.5,0.1L74.8,202.7z M89.3,325l2.5-0.4l1.5-0.2l0,0l19.6,9.8l-1.5,1l-0.2,0.1l0,0l-10.6,6.7l0,0L89.3,325z"/>
</g>
</svg>
