<?xml version="1.0" encoding="UTF-8"?><svg id="Layer_1" xmlns="http://www.w3.org/2000/svg" width="60" height="60" viewBox="0 0 60 60"><rect x="-.024" y="-.27" width="60" height="60" fill="none" stroke-width="0"/><path d="M34.503,57.23c-.651-.089-1.303-.17-1.953-.267-2.571-.385-5.046-1.144-7.513-1.935-1.904-.61-3.804-1.231-5.716-1.815-.436-.133-.914-.181-1.372-.184-2.955-.016-5.909-.004-8.864-.01-1.843-.004-3.276-.768-4.067-2.454-.292-.622-.412-1.378-.415-2.073-.029-6.876.003-13.753-.028-20.629-.011-2.498,1.69-4.079,3.349-4.392.401-.076.817-.093,1.227-.095,2.74-.008,5.48.005,8.219-.018.288-.002.667-.111.848-.311,1.353-1.499,2.678-3.024,3.988-4.561,1.196-1.403,2.331-2.858,3.55-4.24.887-1.005,1.172-2.219,1.452-3.461.422-1.879.731-3.8,1.637-5.529.791-1.511,1.88-2.78,3.682-2.977,1.048-.115,2.154-.013,3.196.188,1.974.381,3.721,1.239,4.995,2.884.945,1.219,1.465,2.621,1.71,4.114.338,2.059.43,4.135-.091,6.182-.232.913-.58,1.797-.884,2.691-.079.233-.191.455-.327.773.263,0,.449-.002.636,0,1.969.02,3.942-.034,5.906.076,4.338.241,7.908,4.339,7.703,8.691-.078,1.663-.511,3.194-1.326,4.639-.15.266-.216.651-.158.949.398,2.04.106,3.976-.727,5.864-.179.405-.297.886-.272,1.323.133,2.352-.388,4.503-1.777,6.432-.14.194-.166.498-.178.753-.112,2.454-.793,4.677-2.566,6.473-1.625,1.647-3.625,2.498-5.888,2.805-.153.021-.301.075-.451.113h-7.523ZM35.247,23.371c.073-.495.119-.92.202-1.339.371-1.878,1.252-3.567,2.008-5.299.953-2.183,1.215-4.423.718-6.757-.364-1.709-1.193-2.985-3.032-3.33-.525-.098-1.066-.148-1.599-.145-.223.001-.554.139-.647.315-.331.626-.657,1.273-.847,1.951-.409,1.46-.72,2.948-1.094,4.418-.344,1.351-.945,2.568-1.85,3.648-1.437,1.715-2.804,3.488-4.255,5.19-1.217,1.428-2.481,2.818-3.779,4.173-.908.947-2.017,1.538-3.399,1.415-.114-.01-.232.036-.327.052v20.984c1.009.133,1.995.147,2.912.406,2.007.568,3.977,1.267,5.967,1.899,3.241,1.03,6.502,1.994,9.942,2.003,2.196.006,4.407.217,6.584-.243,1.957-.413,3.325-1.53,3.716-3.54.185-.949.096-1.953.119-2.932.007-.286-.148-.56.191-.81,1.704-1.263,2.369-3.837,1.503-5.788-.15-.337-.147-.542.121-.832,1.315-1.428,1.717-3.107,1.185-4.972-.197-.69-.524-1.343-.775-1.971.273-.158.658-.266.865-.519,1.136-1.388,1.761-2.969,1.306-4.769-.49-1.942-2.225-3.201-4.256-3.205-3.6-.008-7.199-.002-10.799-.002-.195,0-.389,0-.679,0ZM13.029,46.651c.001-1.14-.93-2.094-2.057-2.107-1.141-.014-2.141.966-2.143,2.1-.003,1.135.988,2.11,2.136,2.102,1.137-.008,2.064-.947,2.065-2.094Z" fill="#fff" stroke-width="0"/></svg>