<?xml version="1.0" encoding="UTF-8" standalone="no"?>
<!-- Generator: Adobe Illustrator 27.8.1, SVG Export Plug-In . SVG Version: 6.00 Build 0)  -->

<svg
   version="1.1"
   id="Layer_1"
   x="0px"
   y="0px"
   viewBox="0 0 254 220"
   xml:space="preserve"
   sodipodi:docname="TrainingPageViews.svg"
   width="254"
   height="220"
   inkscape:version="1.1.2 (0a00cf5339, 2022-02-04)"
   xmlns:inkscape="http://www.inkscape.org/namespaces/inkscape"
   xmlns:sodipodi="http://sodipodi.sourceforge.net/DTD/sodipodi-0.dtd"
   xmlns:xlink="http://www.w3.org/1999/xlink"
   xmlns="http://www.w3.org/2000/svg"
   xmlns:svg="http://www.w3.org/2000/svg"><defs
   id="defs4824" /><sodipodi:namedview
   id="namedview4822"
   pagecolor="#ffffff"
   bordercolor="#666666"
   borderopacity="1.0"
   inkscape:pageshadow="2"
   inkscape:pageopacity="0.0"
   inkscape:pagecheckerboard="0"
   showgrid="false"
   inkscape:zoom="1.742"
   inkscape:cx="250"
   inkscape:cy="112.51435"
   inkscape:window-width="1916"
   inkscape:window-height="1029"
   inkscape:window-x="1920"
   inkscape:window-y="49"
   inkscape:window-maximized="1"
   inkscape:current-layer="Layer_1" />
<style
   type="text/css"
   id="style4798">
	.st0{fill:#FFFFFF;}
	.st1{clip-path:url(#SVGID_00000023263601436093966030000013237085657367004553_);}
	.st2{fill:#27AAE1;}
</style>
<path
   id="Path_1803"
   class="st0"
   d="m 260.8,279.7 h 1 l 0.2,-30.2 h -3 z" />
<path
   id="Path_1804"
   class="st0"
   d="m 253.9,279.7 h 1.2 l 3,-30.2 h -2.7 z" />
<path
   id="Path_1805"
   class="st0"
   d="m 252.6,249.2 1.3,-9.3 -0.8,-7 -1.2,16.1 z" />
<path
   id="Path_1952"
   class="st0"
   d="m 254.5,229.3 h 1.1 l 0.7,-11.4 h -4.6 l 0.6,10.9 z" />
<path
   id="Path_1953"
   class="st0"
   d="m 257.4,230.3 h 0.6 l 0.5,-6.8 -1.3,0.5 z" />
<g
   id="g4819"
   transform="matrix(2.7341228,0,0,2.7341228,-597.95266,-571.48013)">
	<defs
   id="defs4806">
		<rect
   id="SVGID_1_"
   x="218.5"
   y="213.10001"
   width="93.099998"
   height="72.300003" />
	</defs>
	<clipPath
   id="SVGID_00000170237211522211498880000014733032617603519925_">
		<use
   xlink:href="#SVGID_1_"
   style="overflow:visible"
   id="use4808"
   x="0"
   y="0"
   width="100%"
   height="100%" />
	</clipPath>
	<g
   id="Group_273"
   clip-path="url(#SVGID_00000170237211522211498880000014733032617603519925_)">
		<path
   id="Path_2361"
   class="st2"
   d="m 247.4,218.8 c -0.6,-0.2 -1.2,-0.5 -1.8,-0.8 -1.4,2.1 -2.3,4.4 -2.7,6.9 -1.1,6.3 1.1,12.1 4.9,13.6 -5.1,-7.6 -3,-15 -0.4,-19.7" />
		<path
   id="Path_2362"
   class="st2"
   d="m 248.3,215.1 c -0.4,0.3 -0.7,0.6 -1,0.9 0.4,0.1 0.9,0.3 1.5,0.4 0.3,-0.4 0.5,-0.8 0.8,-1.1 -0.5,0 -0.9,-0.1 -1.3,-0.2" />
		<path
   id="Path_2363"
   class="st2"
   d="m 246.7,216.5 c -0.3,0.3 -0.5,0.6 -0.8,0.9 0.6,0.3 1.2,0.5 1.8,0.7 0.2,-0.4 0.5,-0.8 0.7,-1.1 -0.7,-0.1 -1.2,-0.3 -1.7,-0.5" />
		<path
   id="Path_2364"
   class="st2"
   d="m 249.1,214.6 c 0.3,0 0.6,0.1 0.9,0.1 0.2,-0.3 0.5,-0.6 0.6,-0.8 -0.5,0.2 -1,0.4 -1.5,0.7" />
		<path
   id="Path_2365"
   class="st2"
   d="M 228.3,282.5 Z" />
		<path
   id="Path_2366"
   class="st2"
   d="m 228.7,282.5 h 6.4 l 6.1,-41.1 -3.1,-0.6 z" />
		<path
   id="Path_2367"
   d="m 294.6,240.1 -3.8,0.3 v 0.2 l -0.2,-0.2 -5.5,21.1 -10.2,0.5 -1.5,-0.5 -11.5,-2.1 -7.2,-7.9 c 0.5,-4.6 0.9,-7.9 0.9,-7.9 v -0.3 l -5.3,-1 0.4,-2.8 c 4.2,-0.5 8.2,-5.3 9.3,-11.7 0.6,-3 0.3,-6.1 -0.6,-8.9 0.1,-0.1 0.3,-0.1 0.4,-0.2 l -0.2,-0.6 c -0.1,0.1 -0.3,0.1 -0.4,0.2 -0.2,-0.4 -0.4,-0.9 -0.6,-1.3 0.2,-0.1 0.4,-0.2 0.6,-0.3 l -0.3,-0.6 c -0.2,0.1 -0.5,0.2 -0.7,0.3 -0.3,-0.4 -0.6,-0.8 -0.9,-1.2 0.2,0 0.4,-0.1 0.6,-0.2 l -0.2,-0.6 c -0.3,0.1 -0.6,0.2 -1,0.2 -0.9,-0.8 -2,-1.4 -3.2,-1.6 -1.8,-0.3 -3.7,0.2 -5.1,1.3 -0.8,-0.1 -1.3,-0.3 -1.4,-0.3 l -0.2,0.6 c 0.1,0 0.3,0.1 0.8,0.2 -0.3,0.2 -0.6,0.5 -0.9,0.8 -0.4,-0.2 -0.7,-0.3 -0.7,-0.3 l -0.3,0.6 c 0,0 0.2,0.1 0.5,0.2 -0.3,0.3 -0.5,0.6 -0.7,0.9 -0.4,-0.2 -0.6,-0.3 -0.6,-0.3 l -0.4,0.6 c 0,0 0.2,0.1 0.6,0.3 -1.4,2.1 -2.4,4.6 -2.8,7.1 -0.9,5.2 0.4,10.1 3,12.8 l -0.9,3.7 -1.3,-0.2 v -3.4 h -0.3 l -3.5,-1.6 -15.2,1.6 -5.4,45.5 0.7,0.1 5.3,-44.7 3.2,2 -3.4,41.5 0.7,0.1 3.4,-41.4 13.9,-2.3 v 2.5 l -4.7,-0.9 -9.6,42.4 0.3,0.1 0.3,0.1 v -0.1 l 9.4,-41.7 3.1,0.6 13.6,2.5 c -0.2,1.5 -0.9,8.7 -1.8,16.4 l -7,-9.2 -0.5,0.4 11.2,14.9 -2.5,4.3 -13.9,-16 -0.5,0.4 12.2,14.1 c -0.7,7 -1.4,12.9 -1.4,12.9 l 0.7,0.1 c 0,-0.1 0.6,-5.6 1.3,-12.3 l 1.3,1.5 0.1,0.1 h 9.8 l 12.2,14 24.4,-7 h 0.2 l 11,-25.7 z m -66.5,0 -2.9,-1.9 13.8,-1.5 2.4,1.1 z m 31.1,-12.3 c -1.1,6.4 -5.2,11.2 -9.4,11.2 -0.7,0 -1.4,-0.1 -2,-0.4 -3.9,-1.5 -6,-7.3 -4.9,-13.6 0.4,-2.5 1.3,-4.8 2.7,-6.9 0.6,0.3 1.2,0.5 1.8,0.8 2,0.7 4.2,1.1 6.3,1.1 1.7,0 3.3,-0.2 4.9,-0.7 1,2.6 1.2,5.6 0.6,8.5 m -0.8,-9.3 c -3.5,1 -7.3,0.9 -10.7,-0.4 -0.6,-0.2 -1.2,-0.4 -1.8,-0.7 0.3,-0.3 0.5,-0.6 0.8,-0.9 0.4,0.2 1,0.3 1.7,0.5 0.5,0.1 1.1,0.3 1.8,0.4 1.2,0.2 2.5,0.4 3.7,0.4 1.3,0 2.6,-0.2 3.8,-0.5 0.3,0.4 0.5,0.8 0.7,1.2 m -1,-1.8 c -2.8,0.7 -5.8,0.6 -8.6,-0.3 -0.6,-0.2 -1.1,-0.3 -1.5,-0.4 0.3,-0.3 0.7,-0.6 1,-0.9 0.4,0.1 0.8,0.1 1.3,0.2 1.4,0.2 2.8,0.3 4.3,0.3 0.8,0 1.7,0 2.5,-0.2 0.3,0.5 0.7,0.9 1,1.3 m -4.2,-2.9 c 0.9,0.2 1.7,0.5 2.5,1.1 -1.9,0.2 -3.8,0.1 -5.7,-0.2 -0.3,0 -0.6,-0.1 -0.9,-0.1 0.5,-0.3 1,-0.5 1.5,-0.6 0.5,-0.1 1.1,-0.2 1.6,-0.2 0.4,-0.1 0.7,0 1,0 m -7.5,24.3 c 0.9,0.7 1.9,1.2 3,1.4 0.3,0.1 0.7,0.1 1.1,0.1 0,0 0.1,0 0.1,0 l -0.3,2.6 -4.6,-0.8 z m 31.2,42.1 21.5,-4.7 1.5,2.3 -23.3,6.7 z m 21.8,-5.2 8.8,-19.9 3,-1.7 -10.3,23.9 z m -4.3,-34.3 16.3,12 -3.3,1.8 -16.2,-13.5 z m -3.5,0.8 16,13.5 -8.7,19.6 -12.6,-12.9 z m -5.8,20.6 12.6,12.9 -21,4.5 c -0.7,-0.8 -3.9,-4.7 -6.9,-8.2 h 4.2 l 4.7,1.3 h 5.4 l 0.9,-2.6 -0.3,-0.1 c -3.9,-1.6 -8.6,-3.5 -8.9,-3.5 0,0 -0.4,0 -1.1,0 v 0 l -0.4,-0.8 5.1,1 0.9,-2.6 -4,-1.5 z m -27.8,4.5 c 2.2,0.1 17.7,0.5 18.5,0.6 0.5,0.1 5.3,2.1 8.4,3.4 l -0.6,1.6 h -4.8 l -4.7,-1.3 h -19.2 z m 8.1,-0.5 c -0.3,-0.4 -0.5,-0.6 -0.7,-0.8 h 6.5 l 0.7,1 -6.5,-0.2 m -0.9,0 v 0 0 0 m 15.1,-1.6 -0.5,1.4 -5.9,-1.2 0.8,1.7 h -1.3 l -1.2,-1.7 h -7.3 l -0.1,-0.1 v 0.1 h -3.2 l 1,-4.6 11.3,2 z m -18.4,-4.7 -1,4.6 -6.5,-5.4 c 0.2,-2.3 0.5,-4.5 0.7,-6.5 z m -7.5,-0.1 6.6,5.6 h 3.6 l -0.2,0.8 -6.5,-0.2 -3.7,-4.9 0.2,-1.3 m 15.3,11.7 c 3,3.6 6.5,7.8 7.2,8.6 l -0.3,4.2 -11.2,-12.8 z" />
	</g>
</g>
</svg>
