<?xml version="1.0" encoding="UTF-8" standalone="no"?>
<svg
   id="Layer_1"
   width="60"
   height="60"
   viewBox="0 0 40 40"
   fill="#fff"
   version="1.1"
   sodipodi:docname="unlocked.svg"
   inkscape:version="1.1.2 (0a00cf5339, 2022-02-04)"
   xmlns:inkscape="http://www.inkscape.org/namespaces/inkscape"
   xmlns:sodipodi="http://sodipodi.sourceforge.net/DTD/sodipodi-0.dtd"
   xmlns="http://www.w3.org/2000/svg"
   xmlns:svg="http://www.w3.org/2000/svg">
  <defs
     id="defs15" />
  <sodipodi:namedview
     id="namedview13"
     pagecolor="#00ffff"
     bordercolor="#666666"
     borderopacity="1.0"
     inkscape:pageshadow="2"
     inkscape:pageopacity="0"
     inkscape:pagecheckerboard="0"
     showgrid="false"
     inkscape:zoom="2"
     inkscape:cx="-48.25"
     inkscape:cy="109.5"
     inkscape:window-width="1916"
     inkscape:window-height="1029"
     inkscape:window-x="1920"
     inkscape:window-y="49"
     inkscape:window-maximized="1"
     inkscape:current-layer="Layer_1" />
  <g
     id="g837"
     transform="translate(6.5945205e-4,2.247e-4)">
    <path
       d="m 18.247246,1.2802796 c 1.461778,0.3971869 2.848677,0.9376217 3.984892,1.992446 1.569214,1.4568949 2.458001,3.2377249 2.580088,5.3815578 0.03256,0.5583407 0.01953,1.1215649 0.0081,1.6815336 -0.02116,1.012501 -0.58927,1.642466 -1.46829,1.650605 -0.880648,0.0081 -1.422711,-0.592525 -1.504101,-1.619677 -0.07651,-0.9652943 -0.03581,-1.9712842 -0.30603,-2.8828608 -0.660893,-2.2301072 -2.825887,-3.4542244 -5.282261,-3.1433116 -2.010352,0.2539392 -3.77002,2.0933706 -3.870945,4.2372035 -0.09278,1.9615179 -0.01953,3.9328019 -0.01953,5.9919889 0.302774,0 0.586014,0 0.869254,0 3.825366,0 7.65236,-0.0098 11.477726,0.0049 2.217085,0.0081 3.753743,1.157377 4.250226,3.161218 0.09279,0.372769 0.104181,0.771584 0.104181,1.157376 0.0065,5.093435 0.01139,10.185242 0,15.278676 -0.0049,2.790076 -1.78083,4.543233 -4.577417,4.544861 -4.946931,0.0033 -9.893862,0.0033 -14.8407935,0 -2.7933313,-0.0016 -4.5660223,-1.758041 -4.5709058,-4.549744 -0.00977,-4.971349 0.073252,-9.944325 -0.034184,-14.912418 -0.055346,-2.589854 1.5643306,-4.61974 4.2827824,-4.717409 0,-0.276728 -0.00488,-0.55834 0,-0.839952 0.03744,-1.969657 -0.096041,-3.9637309 0.1562703,-5.9057147 0.4216042,-3.2507474 2.8975116,-5.6940984 6.0994246,-6.3696418 0.112319,-0.022789 0.213243,-0.092786 0.320679,-0.1399921 0.779724,0 1.559447,0 2.340799,0 z M 17.11917,17.519366 c -2.485674,0 -4.969721,-0.0016 -7.4553948,0 -1.2355119,0.0016 -1.6359545,0.390676 -1.6375824,1.603398 -0.00326,4.946932 -0.00326,9.892235 0,14.839166 0,1.323414 0.47695,1.798736 1.808503,1.798736 4.8248452,0.0049 9.6480622,0.0049 14.4729072,0 1.339692,0 1.816642,-0.468811 1.816642,-1.787341 0.0049,-4.945304 0.0033,-9.892235 0,-14.839166 0,-1.224117 -0.395559,-1.613165 -1.622932,-1.616421 -2.461257,-0.0033 -4.922514,0 -7.382143,0 z"
       stroke-width="0"
       id="path2" />
    <path
       d="m 30.805842,12.157342 c -0.748795,-0.198593 -1.225745,-0.494856 -1.450384,-1.155749 -0.224638,-0.659265 -0.08465,-1.3038799 0.491601,-1.6033979 1.113425,-0.5795023 2.277313,-1.0857529 3.468874,-1.4748008 0.621826,-0.2034769 1.175283,0.2278942 1.463406,0.8318137 0.279985,0.5860136 0.244173,1.28923 -0.278356,1.593631 -1.180166,0.690194 -2.458001,1.214351 -3.695141,1.805248 z"
       stroke-width="0"
       id="path4" />
    <path
       d="m 30.810725,5.2326154 c -0.03093,0.1302253 -0.0586,0.3499803 -0.136736,0.5518294 -0.341841,0.882276 -0.673916,1.7694354 -1.054825,2.6354332 -0.361375,0.8236746 -1.142726,1.1573768 -1.91431,0.8757647 -0.74554,-0.2718452 -1.13296,-1.0857529 -0.838325,-1.9175666 0.340213,-0.9587832 0.712983,-1.9094274 1.141098,-2.8323988 0.328819,-0.7080997 0.983201,-0.9604111 1.694556,-0.7780958 0.621826,0.1595259 1.089009,0.7422839 1.106915,1.4650339 z"
       stroke-width="0"
       id="path6" />
    <path
       d="m 29.212211,14.517675 c -0.02442,-1.372249 0.911576,-2.094999 1.941983,-1.753158 0.966923,0.319052 1.912684,0.712984 2.837283,1.141099 0.786235,0.364631 1.064591,1.131332 0.781351,1.883382 -0.278356,0.740656 -1.012501,1.115054 -1.845943,0.833442 -0.963666,-0.325563 -1.932217,-0.673916 -2.829143,-1.144354 -0.432999,-0.227894 -0.7081,-0.756934 -0.887159,-0.960411 z"
       stroke-width="0"
       id="path8" />
    <path
       d="m 15.602046,28.920585 c 0,-0.266961 -0.01628,-0.537179 0.0016,-0.802513 0.05046,-0.721122 -0.08465,-1.263184 -0.701589,-1.824781 -1.310391,-1.191561 -1.155749,-3.223074 0.175804,-4.390218 1.27458,-1.116681 3.192146,-0.979945 4.3072,0.307657 1.155749,1.334809 0.952272,3.250748 -0.426488,4.409752 -0.216499,0.182316 -0.377653,0.548574 -0.390675,0.836697 -0.04721,1.019013 -0.0065,2.042909 -0.02279,3.065177 -0.01628,0.9539 -0.594153,1.585492 -1.43085,1.608282 -0.865997,0.02279 -1.479684,-0.621826 -1.508985,-1.605027 -0.01628,-0.535551 -0.0033,-1.071102 -0.0033,-1.605026 z"
       stroke-width="0"
       id="path10" />
  </g>
</svg>
