<?xml version="1.0" encoding="utf-8"?>
<!-- Generator: Adobe Illustrator 27.9.0, SVG Export Plug-In . SVG Version: 6.00 Build 0)  -->
<svg version="1.1" id="Layer_1" xmlns="http://www.w3.org/2000/svg" xmlns:xlink="http://www.w3.org/1999/xlink" x="0px" y="0px"
	 viewBox="0 0 311 538" style="enable-background:new 0 0 311 538;" xml:space="preserve">
<style type="text/css">
	.st0{clip-path:url(#SVGID_00000142168636854096284160000009591380186111691941_);}
	.st1{fill:#FFFFFF;}
	.st2{fill:#27AAE1;}
</style>
<g>
	<defs>
		<rect id="SVGID_1_" x="26.3" y="22.1" width="262.4" height="490.7"/>
	</defs>
	<clipPath id="SVGID_00000026147356904558923070000006026500250973822858_">
		<use xlink:href="#SVGID_1_"  style="overflow:visible;"/>
	</clipPath>
	<g id="Group_323" style="clip-path:url(#SVGID_00000026147356904558923070000006026500250973822858_);">
		<path id="Path_2451" class="st1" d="M146.2,113.6c0.5,0,1,0.1,1.6,0.1c16.5,0,29.9-19.5,29.9-43.5c0-7.3-1.3-14.6-3.9-21.4
			c-9.3,2.8-19.1,4.2-28.8,4.2c-5.2,0-10.4-0.4-15.5-1.1C125.8,68.3,127,90.5,146.2,113.6"/>
		<path id="Path_2452" class="st1" d="M137.7,471.2L137.7,471.2L137.7,471.2L137.7,471.2z"/>
		<path id="Path_2453" class="st1" d="M127.7,471.2l-30.2,20.1l3.8,2.3l29.8-22.4L127.7,471.2z"/>
		<path id="Path_2454" class="st1" d="M167.9,38.1c-0.7-1-1.5-1.9-2.3-2.7c-1.7,0.1-3.5,0.2-5.1,0.2c-7.9,0-15.8-1.4-23.3-4
			c-1,1.8-2.1,4-3.2,6.5C143.3,39.5,155.7,40.3,167.9,38.1"/>
		<path id="Path_2455" class="st1" d="M141.3,117.4v2.5c4.4-0.3,9.2-0.4,14.3-0.3V117C151,118.6,146,118.7,141.3,117.4"/>
		<path id="Path_2456" class="st1" d="M171.9,44.6c-0.4-0.8-0.8-1.6-1.2-2.3c-6.2,1.2-12.4,1.9-18.7,1.8c-6.6,0-13.2-0.6-19.7-1.6
			c-0.6,1.6-1.1,3.2-1.6,4.9C141.3,48.8,156.3,49.2,171.9,44.6"/>
		<path id="Path_2457" class="st1" d="M147.8,26.7c-2.3,0-4.6,0.4-6.8,1.2c6.3,2,12.9,3,19.6,3C156.8,28.3,152.3,26.8,147.8,26.7"/>
		<path id="Path_2458" class="st1" d="M52.5,144.3l12-59.5l-10.4,5.4l-11.7,64.1L52.5,144.3z"/>
		<path id="Path_2459" class="st1" d="M107.5,131.5l-51.7,16l-10.2,10.2l63.6-7.8L107.5,131.5z"/>
		<path id="Path_2460" class="st1" d="M61.3,81.3l-30.4-8.1V82l20.2,4.5L61.3,81.3z"/>
		<path id="Path_2461" class="st1" d="M187.8,128.5V151l65.3,8.5L231,133.1L187.8,128.5z"/>
		<path id="Path_2462" class="st1" d="M276.7,84.7l4.8-11.8l-40.6,4.7l8.9,7.1H276.7z"/>
		<path id="Path_2463" class="st1" d="M246.8,88.2l-9.6-7.6l-2.7,49.6l18.5,22.1L246.8,88.2z"/>
		<path id="Path_2464" class="st1" d="M222.7,487.6l-27-21.9H195l26.1,22.6L222.7,487.6z"/>
		<path id="Path_2465" class="st1" d="M164.2,267.4l21,193.6h8.9L183.3,265C179.7,265.6,172.7,266.6,164.2,267.4"/>
		<path id="Path_2466" class="st1" d="M183.2,259.1V127.5c-7.6-1.6-15.3-2.6-23-3v0.3h-20.5c-9.4,0.7-18.7,2.5-27.7,5.3l4.6,52.4
			l11.6,73.5C128.2,255.9,158.3,261.3,183.2,259.1"/>
		<path id="Path_2467" class="st1" d="M130.7,268.6v198h7.7l9-198c-2.8,0.1-5.5,0.2-8.3,0.2C136.3,268.8,133.5,268.7,130.7,268.6"/>
		<path id="Path_2468" class="st2" d="M137.1,31.6c-0.7-0.2-1.4-0.5-2-0.7c-2.5,1.7-4.8,3.8-6.7,6.2c1.7,0.3,3.5,0.6,5.5,1
			C135,35.6,136.1,33.4,137.1,31.6"/>
		<path id="Path_2469" class="st2" d="M129.4,51.9c-3.2-0.4-5.9-1-8.3-1.5c-2.2,6.4-3.3,13-3.3,19.8c0,23.2,12.6,42.2,28.3,43.4
			C127,90.5,125.8,68.3,129.4,51.9"/>
		<path id="Path_2470" class="st2" d="M132.2,42.5c-2.4-0.4-4.7-0.8-6.7-1.2c-1,1.6-1.8,3.2-2.6,4.8c2.2,0.5,4.8,0.9,7.7,1.3
			C131.1,45.7,131.6,44,132.2,42.5"/>
		<path id="Path_2471" class="st2" d="M51.1,86.5L30.9,82v5.5h18.3L51.1,86.5z"/>
		<path id="Path_2472" class="st2" d="M45.6,157.6l-8.9,8.9l73.2-9l-0.7-7.6L45.6,157.6z"/>
		<path id="Path_2473" class="st2" d="M183.2,259.1c-24.9,2.2-55-3.2-55-3.2l-11.6-73.5l7.1,80.9c20.2,2.8,51.5-1.7,59.5-2.9V259.1z
			"/>
		<path id="Path_2474" class="st2" d="M54.1,90.2l-2.3,1.2l-17.4,70.9l8-7.9L54.1,90.2z"/>
		<path id="Path_2475" class="st2" d="M123.7,267.9l5.6,198.7h1.4v-198C128.3,268.4,125.9,268.2,123.7,267.9"/>
		<path id="Path_2476" class="st2" d="M160.3,267.8L182,461.1h3.2l-21-193.7C163,267.6,161.7,267.7,160.3,267.8"/>
		<path id="Path_2477" class="st2" d="M97.4,496.6l-4.2,3.1l28.1,13.1l9.7-21.2L120,510L97.4,496.6z"/>
		<path id="Path_2478" class="st2" d="M131.2,471.2l-29.8,22.4l17,10.1l19.3-32.5l-0.1,0L131.2,471.2z"/>
		<path id="Path_2479" class="st2" d="M194.8,501.7l26.4-13.4L195,465.7h-10.4L194.8,501.7z"/>
		<path id="Path_2480" class="st2" d="M184,480.5l5.4,32.4l37.5-19.6l-2-1.7l-33.1,16.8L184,480.5z"/>
		<path id="Path_2481" d="M230,128.4l-42.2-4.6l0,0l-1.8-0.4c-8.5-1.9-17.1-3.1-25.8-3.6V115c12.9-7,22.1-24.4,22.1-44.8
			c0-7.8-1.4-15.6-4.2-22.9c0.9-0.3,1.8-0.6,2.7-1l-1.7-4.3c-0.9,0.4-1.9,0.7-2.8,1.1c-0.3-0.7-0.7-1.3-1.1-2
			c0.6-0.2,1.2-0.3,1.8-0.5l-1.3-4.4c-1,0.3-1.9,0.6-2.9,0.8c-0.6-0.8-1.1-1.6-1.8-2.4c0.4-0.1,0.8-0.1,1.2-0.2l-0.8-4.5
			c-1.3,0.3-2.7,0.4-4,0.6c-5.6-5.3-12.3-8.4-19.5-8.4c-4.6,0-9.1,1.3-13,3.6c-2.3-0.9-4.6-2-6.7-3.2l-2.4,3.9
			c1.5,0.9,3.1,1.7,4.7,2.4c-2.6,2.1-4.8,4.5-6.8,7.2c-3.2-0.8-5.1-1.3-5.2-1.4l-1.4,4.4c0.3,0.1,1.7,0.5,3.9,1.1
			c-0.9,1.6-1.7,3.2-2.5,4.9c-2.5-0.6-3.9-1.1-4-1.1l-1.5,4.3c0.3,0.1,1.6,0.5,3.8,1.1c-2.3,6.7-3.5,13.8-3.5,20.9
			c0,21.2,9.9,39.1,23.5,45.6h-0.1v4.5c-16.4,1.7-26.7,5.5-27.9,6l-51.2,15.9l12.8-63.2L26.3,67.2v24.8h20.5l-19.7,80.2l83-10.3
			l9,103.3l-0.2,0l5.7,202.3l-35.8,23.9l8.5,5L120,510l10.9-18.4l12.1-20.4l-0.2-0.1l9.2-202.7c1.2-0.1,2.5-0.2,3.7-0.2l22.2,197.5
			h1.9l4.2,14.8l7.8,27.9l33.1-16.8l6.2-3.1l-32.3-26.2l-11-199.8V155.7l71.1,9.2l-7.4-75.6h28.2l9-21.8L233,73.9L230,128.4z
			 M30.9,87.5V73.2l30.4,8.1l-10.2,5.2l-1.9,1L30.9,87.5z M51.7,91.4l2.3-1.2l10.4-5.4l-12,59.5l-10.1,10l-8,7.9L51.7,91.4z
			 M36.6,166.5l8.9-8.9l10.2-10.2l51.7-16l1.6,18.4l0.7,7.6L36.6,166.5z M147.8,26.7c4.6,0.1,9,1.5,12.7,4.2c-6.6,0-13.2-1.1-19.6-3
			C143.1,27.2,145.4,26.8,147.8,26.7 M135.1,30.9c0.6,0.2,1.3,0.5,2,0.7c7.5,2.6,15.4,4,23.3,4c1.7,0,3.4-0.1,5.1-0.2
			c0.8,0.9,1.6,1.8,2.3,2.7c-12.1,2.2-24.5,1.3-33.9-0.1c-2-0.3-3.8-0.6-5.5-1C130.4,34.7,132.6,32.6,135.1,30.9 M125.5,41.2
			c2,0.4,4.2,0.8,6.7,1.2c6.5,1.1,13.1,1.6,19.7,1.6c6.3,0,12.6-0.6,18.7-1.8c0.4,0.7,0.8,1.5,1.2,2.3c-15.5,4.6-30.5,4.2-41.3,2.8
			c-2.9-0.4-5.5-0.8-7.7-1.3C123.7,44.4,124.6,42.8,125.5,41.2 M117.9,70.2c0-6.7,1.1-13.4,3.3-19.8c2.3,0.5,5.1,1,8.3,1.5
			c5.1,0.7,10.3,1.1,15.5,1.1c9.8,0,19.5-1.4,28.8-4.2c2.6,6.8,3.9,14.1,3.9,21.4c0,24-13.4,43.5-29.9,43.5c-0.5,0-1.1-0.1-1.6-0.1
			C130.4,112.4,117.9,93.4,117.9,70.2 M155.6,117v2.6c-5.1-0.1-9.9,0-14.3,0.3v-2.5C146,118.7,151,118.6,155.6,117 M137.7,471.2
			l-19.3,32.5l-17-10.1l-3.8-2.3l30.2-20.1L137.7,471.2L137.7,471.2z M138.4,466.6h-9.1l-5.6-198.7c2.3,0.3,4.6,0.5,7.1,0.7
			c2.7,0.2,5.6,0.2,8.4,0.2c2.7,0,5.5-0.1,8.3-0.2L138.4,466.6z M123.7,263.3l-7.1-80.9L112,130c9-2.8,18.3-4.6,27.7-5.3h20.5v-0.3
			c7.7,0.4,15.4,1.4,23,3v132.8C175.2,261.6,143.9,266.1,123.7,263.3 M195.7,465.7l27,21.9l-1.5,0.8l-26.4,13.4l-10.1-36H195.7
			L195.7,465.7z M194.1,461.1H182l-21.7-193.3c1.3-0.1,2.6-0.2,3.9-0.4c8.5-0.8,15.5-1.9,19.1-2.4L194.1,461.1z M187.8,151v-22.6
			l43.2,4.7l22.1,26.4L187.8,151z M281.5,73l-4.8,11.8h-26.9l-8.9-7.1L281.5,73z M237.2,80.6l9.6,7.6l6.3,64l-18.5-22.1L237.2,80.6z
			"/>
	</g>
</g>
</svg>
