<?xml version="1.0" encoding="utf-8"?>
<!-- Generator: Adobe Illustrator 28.0.0, SVG Export Plug-In . SVG Version: 6.00 Build 0)  -->
<svg version="1.1" id="Layer_1" xmlns="http://www.w3.org/2000/svg" xmlns:xlink="http://www.w3.org/1999/xlink" x="0px" y="0px"
	 viewBox="0 0 539.9 486.8" style="enable-background:new 0 0 539.9 486.8;" xml:space="preserve">
<style type="text/css">
	.st0{clip-path:url(#SVGID_00000092455417336287507570000004234386928704773764_);}
	.st1{fill:#FFFFFF;}
	.st2{fill:none;}
	.st3{fill:#27AAE1;}
</style>
<g>
	<defs>
		<rect id="SVGID_1_" x="19.5" y="13" width="506.2" height="460.5"/>
	</defs>
	<clipPath id="SVGID_00000111153458760647957140000004914479122004105608_">
		<use xlink:href="#SVGID_1_"  style="overflow:visible;"/>
	</clipPath>
	<g id="Group_763" style="clip-path:url(#SVGID_00000111153458760647957140000004914479122004105608_);">
		<path id="Path_5537" class="st1" d="M260.4,60.3L260.4,60.3L260.4,60.3L260.4,60.3c-0.1,0.1-0.2,0.3-0.3,0.5
			C260.2,60.6,260.3,60.5,260.4,60.3L260.4,60.3"/>
		<path id="Path_5538" class="st2" d="M238.9,43.7C238.9,43.7,238.9,43.7,238.9,43.7"/>
		<path id="Path_5539" class="st1" d="M235.5,35.1c0.2,0.6,0.5,1.2,0.7,1.8c-0.4-1.2-0.8-2.1-0.8-2.1
			C235.4,34.8,235.4,34.9,235.5,35.1"/>
		<path id="Path_5540" class="st1" d="M265.8,60.1c0,0.4,0,1,0.1,1.5C265.9,61.1,265.8,60.6,265.8,60.1h-0.1l-1.6,0
			C264.7,60.2,265.2,60.1,265.8,60.1"/>
		<path id="Path_5541" class="st1" d="M267.5,33.1c0.1,2.4-0.3,25.6-0.3,26.5v1.5l0.7-28.1c0.1,0,0.2,0,0.2,0h0c0,0-0.1,0-0.1,0
			C267.7,33.1,267.5,33.1,267.5,33.1L267.5,33.1L267.5,33.1z"/>
		<path id="Path_5542" class="st1" d="M260.2,64.3L260.2,64.3l-0.7,0c-0.3-0.3-0.5-0.7-0.8-1.1l0,0c0,0.1-0.1,0.2-0.1,0.2
			c0.2,0.4,0.5,0.8,0.8,1.1h0.7c1.9,0.1,3.8,0.1,5.7,0c0-0.1,0.1-0.1,0.1-0.2C264,64.4,262.1,64.4,260.2,64.3"/>
		<path id="Path_5543" class="st1" d="M269.7,33.5L269,59.8l-1.9,1.4v1.6l0,0v0c0.9-1,2-2.3,2.5-2.8l0.7-26.4
			c-0.2,0-0.3-0.1-0.5-0.1c-0.1,0-0.2,0-0.3-0.1l0,0C269.5,33.4,269.6,33.4,269.7,33.5 M269.7,33.6L269.7,33.6L269,59.9L269.7,33.6z
			"/>
		<path id="Path_5544" class="st1" d="M238.8,37.1l0,0.1h0l0,0h-0.2l0,0h0l1.2,2.7l0.6,1.7l0.2,0.5l0,0l0,0.1l0,0l0,0l-0.4,0.5
			l-1.1,1.6l0,0v0l0,0c0.1,0.3,0.2,0.6,0.3,0.8c0.3-0.6,0.8-1.5,1.4-2.3l-0.2-0.8v0l0.2,0.8c-0.5,0.8-1,1.7-1.4,2.3c0,0,0,0.1,0,0.1
			c0.3-0.5,0.9-1.5,1.4-2.4l-0.2-0.8l-0.8-2.2l-1-2.7l-0.2-0.4h-0.1L238.8,37.1z M238.9,37.1l1,2.7l0,0L238.9,37.1L238.9,37.1z"/>
		<path id="Path_5545" class="st1" d="M253.3,64.6l-1.7-4.5l0.6,1.5l1.1,2.8l0,0l0,0l-18.6,0.4l0,0l0,0.1l18.6-0.4l0,0l-18.6,0.4
			l0,0l-0.1,0.1l-0.3,0.6L253.3,64.6z"/>
		<path id="Path_5546" class="st1" d="M248.9,34L248.9,34h3.3l0,0h0l-0.1,0.1h0.2l0.2-0.3h-3.7l-0.1,0.2L248.9,34L248.9,34z"/>
		<path id="Path_5547" class="st1" d="M245.3,36.4l1-2.6l-11.1,0.6c0.1,0.2,0.2,0.4,0.3,0.7c-0.1-0.2-0.1-0.3,0-0.3l0,0l0,0l0.1,0
			c0.3,0,0.9-0.1,1.7-0.1c3-0.2,8.6-0.7,8.6-0.5l0,0c0-0.2-5.4,0.3-8.4,0.5c2.9-0.2,7.9-0.6,8.3-0.3c0,0,0.1,0,0.1,0v0
			c0,0.1-0.5,1.3-0.9,2.1l0,0.1h0.5l1.1-2.7l-0.2,0L245.3,36.4L245.3,36.4z"/>
		<path id="Path_5548" class="st1" d="M252.1,34.1c-0.9,1.8-14,26.9-13.7,27h0.5c2.1-3.9,9.4-18.7,13.1-26.3
			c-1.2,2.3-5.2,9.9-8.5,16.4c3.3-6.5,7.3-14.2,8.5-16.4v0c0.1-0.2,0.2-0.4,0.3-0.7l0,0L252.1,34.1"/>
		<path id="Path_5549" class="st1" d="M244.9,54.7l1.6,2.4l3.1,4.5h0.2l-3.2-4.6l-1.3-2.7l0.2-0.4l-0.4,0.5l0,0L244.9,54.7z"/>
		<path id="Path_5550" class="st1" d="M311.2,60.3L311.2,60.3l0.1,0.1l0,0l0,0l-0.1,1.2v0v2.3l0,0v-2.2l-0.2,2.2l0,0.1l-12.5,0.5
			v0.1l12.5-0.5h0.4v-3.8L311.2,60.3z"/>
		<path id="Path_5551" class="st1" d="M273.5,49c0.1-7.3,0.1-14.5,0.1-15.5l0,0C273.6,33.5,273.5,41.3,273.5,49
			C273.5,49,273.5,49,273.5,49"/>
		<path id="Path_5552" class="st1" d="M286.9,41.2c-1.1,4.1-2.1,8.4-2.8,11.2C284.8,49.6,285.9,45.3,286.9,41.2"/>
		<path id="Path_5553" class="st1" d="M311.1,60.4L311.1,60.4l0.1,0v-0.1L311.1,60.4L311.1,60.4l-7.2,1.2l-3.8,0.7v0.1L311.1,60.4z"
			/>
		<path id="Path_5554" class="st1" d="M308.4,46.6c0-0.1-0.1-0.2-0.1-0.2c-0.1-0.1-0.2-0.1-0.3-0.1c-0.3,0.1-4.5,0.5-7.5,0.9l0,0.2
			c3-0.3,7.2-0.8,7.6-0.9c0.1,0,0.1,0,0.2,0C308.3,46.6,308.3,46.6,308.4,46.6C308.4,46.6,308.4,46.6,308.4,46.6"/>
		<path id="Path_5555" class="st2" d="M307.8,47.1c0,0.2,0,0.4,0,0.6"/>
		<path id="Path_5556" class="st1" d="M263.7,32.4l0.7-1.3L263.7,32.4L263.7,32.4z"/>
		<path id="Path_5558" class="st1" d="M282.5,52.3c-0.5-1.6-1.2-4.1-1.9-6.4c-0.9-3.1-1.7-6.1-2.3-8.1l-0.2,4.9l-0.1,3.6l5,13.7h0
			l0,0l0,0l-1.7-4.6l-3.3-8.9l0.1-3l0-0.2l-0.1-0.3l0.2-4.9v0l-0.2,4.9l0.1,0.3l0-0.4v0v0l3.6,11.4l1.1,3.5l0.1,0.2l0.7-2.5l0,0v0
			h0.3v-0.2c0-0.5,2.6-10.6,4.4-17.8l1.2-4.4l0,0v0h0.3l0.1,0l0,0l0,0l2.8,0.6l-1.7,5.1l-0.1,0.3l-1,3.2l0,0l-5.9,17.6h0.6
			c1.4-4.4,3.5-10.5,5.3-15.9l0.1-0.3v-1.6c0,0,2.3-6.5,2.9-7.6l0,0c0-0.1,0.1-0.2,0.1-0.2l0,0l0,0v0.4c0.1-0.5,0.3-0.9,0.4-1.2l0,0
			c0-0.1,0-0.2,0.1-0.2c-0.1,0-0.4-0.1-0.6-0.1c-0.5-0.1-1.3-0.2-2.1-0.3c-0.4,0-0.7-0.1-1.1-0.1h-0.4c-0.3,1.2-0.7,2.7-1.1,4.4
			c-1.8,7.1-4.3,17.3-4.4,17.8v0.2h-0.3c0,0-0.1,0-0.1,0C283.3,55.2,283.2,54.6,282.5,52.3 M289.5,33.1l0,0.2
			c-0.3,1-0.6,2.2-0.9,3.6l-0.2,0.6C288.8,35.8,289.2,34.3,289.5,33.1"/>
		<path id="Path_5559" class="st1" d="M257.5,62.3c0.3,0.7,0.7,1.4,1.2,2C258.5,63.8,258,63.2,257.5,62.3"/>
		<path id="Path_5561" class="st1" d="M274.2,64.5h0.2l0.9-30.7l0,0l-0.9,30.6h0l0.9-30.6h-1.1C274.2,41.9,274.1,61.8,274.2,64.5"/>
		<path id="Path_5562" class="st1" d="M294.2,60.5l-1-23.3l0.9,23.4v3.8l0.1,0L294.2,60.5L294.2,60.5z"/>
		<path id="Path_5563" class="st2" d="M274.5,64.5l0.4-0.1l1.8-0.3"/>
		<path id="Path_5564" class="st2" d="M293.3,37.2c0.1-0.3,0.2-0.6,0.3-0.8"/>
		<path id="Path_5565" class="st1" d="M424.9,408c-1.1,0.4-2.3,0.8-3.8,1.3c-5.2,1.6-10.5,2.9-15.8,3.8c-0.2,0-0.4,0.1-0.5,0.1
			c-0.3,0-0.5,0.1-0.8,0.1c-3.6,0.6-7.2,0.8-10.8,0.9l0,0c-3.4,0-6.8-0.3-10.1-1.1l0,0l-0.8-0.2l-0.1-2.3
			c-11.2-3.8-22.8-6.1-34.7-6.8l0.1-2.2h0l0,0c11.7,0.7,23.2,3,34.3,6.7l-0.8-12.5l-16.4,6l0,0h0l-8.7-4.4l0,0l-20.4,6.7v15.4
			c3,2.3,21.2,15.9,33.2,16.9c0,0,0.1,0,0.1,0c0.3,0,0.7,0,1,0.1c0.4,0,0.9,0,1.4,0c0.2,0,0.4,0,0.7,0c0.8,0,1.5,0,2.4-0.1l0.4,0
			c15.6-0.6,41.6-4.8,44.4-10l0,0C422,421.3,424.1,412.1,424.9,408"/>
		<path id="Path_5566" class="st1" d="M107.5,281l13.1,15l14.1-5.7c-9.3-4-21.8-8.9-23.7-9.3L107.5,281z"/>
		<path id="Path_5567" class="st1" d="M173.1,284.3c-3.3-3.3-6.9-5-10.5-5c-0.7,0-1.4,0.1-2.1,0.2c-4.3,0.9-7.8,4.1-10,9.2
			c-2.3,5.9-2.8,12.3-1.5,18.4c1.3,6.6,4.2,12.5,8.2,16.6c3.8,3.9,8.3,5.6,12.6,4.8c4.3-0.9,7.8-4.1,10-9.2c2.1-5.1,2.7-10.7,2-16.1
			c-0.1-0.8-0.3-1.5-0.4-2.3C180,294.3,177.2,288.3,173.1,284.3"/>
		<path id="Path_5568" class="st1" d="M161.4,329.3c-2.2-1-4.1-2.4-5.8-4.1l0,0l0,0c-1.3-1.3-2.5-2.8-3.5-4.4l-2.4,3.9L161.4,329.3z
			"/>
		<path id="Path_5569" class="st1" d="M76.4,203.8c0,0-2.1-0.2-5.1-0.5l1,5.6l16.8,1.5l0.2,0.8c0,0,0.3,1.4,0.8,3.1l20.6-0.5
			l-1.4,20.6l0,0v0l-4.3-0.2l1.3,44.6h3.8l9-74.1l-41-0.8l0.1,0.2h0L76.4,203.8z"/>
		<path id="Path_5570" class="st1" d="M199.6,454c0.4,1.3,1,2.5,1.6,3.7c1.6-0.3,6.4-1,20.4-2h0.3l6.4,3.3l3.1-2.3l-3.3-6.9
			l12.5-36.8l2.6-29.4l-21.9,65.1L199.6,454z"/>
		<path id="Path_5571" class="st1" d="M163,393.6l12.1,4.4c-2.5-4.2-4.7-8.5-6.5-13c-1.8-4.5-3.3-8.9-4.4-12.3L163,393.6z"/>
		<path id="Path_5572" class="st1" d="M188.1,397.6l-8.8,4.4l-16.4-6l-0.8,12.6c11.1-3.8,22.6-6.1,34.3-6.7l0.1,2.2l0,0v0
			c-11.8,0.6-23.5,2.8-34.7,6.8l-0.1,2.2l0,0v0l-0.8,0.2c-3.3,0.8-6.7,1.1-10.1,1.1c-12.3,0-25.5-4.1-31.7-6.1
			c0.9,4.1,3,13.3,5.7,18.2c3.2,5.8,35,10.3,49.2,10.1c12-0.2,31.3-14.7,34.3-17v-15.2L188.1,397.6z"/>
		<path id="Path_5573" class="st1" d="M274,306c-10.4,0-19,12.8-19,28.6c-0.1,6.7,1.6,13.4,4.9,19.2c0.1,0.1,0.1,0.2,0.2,0.3
			c0.1,0.2,0.3,0.5,0.4,0.7c3.4,5.2,8.2,8.4,13.4,8.4c4.6,0,8.8-2.5,12-6.5c4.2-5.3,6.9-13.2,6.9-22.1C293,318.8,284.4,306,274,306"
			/>
		<path id="Path_5574" class="st1" d="M186.8,395.6l-16.3-60.3L142,324.1h0c-2.6,4.1-15.7,26.1-24.7,81c4.5,1.6,26.9,9.4,42.3,6l0,0
			l3.5-56.5l2.2,0.1v0h0l-0.7,11.3h0.1v0l0,0c0.2,1.1,5.8,22,13.8,33l0.7,0.2L186.8,395.6z"/>
		<path id="Path_5575" class="st1" d="M91.6,233.5v62.7h2.8l5.2-62.3L91.6,233.5z"/>
		<path id="Path_5576" class="st1" d="M107.1,232.1l1.2-16l-43.9,1.2h-0.1l-18.4,0.5v0.3H35.5V218h-1.6v10.4l37.4,1.8L107.1,232.1z"
			/>
		<path id="Path_5577" class="st1" d="M74.1,118.9c3.2-5.6,4.8-12,4.5-18.4c-0.1-5.2-1.4-10.3-3.7-15c-3.2-6.1-8.1-10-13.6-10h-0.3
			c-4.5,0.1-8.6,2.9-11.6,7.7c-3.2,5.6-4.8,12-4.5,18.4c0.4,11.4,5.6,20.9,12.6,24c1.6,0.7,3.3,1.1,5.1,1
			C66.9,126.5,71,123.7,74.1,118.9"/>
		<path id="Path_5578" class="st1" d="M138.9,278.2l-26.2-1.8l-0.3,2.6c3.3,1.1,12.2,4.7,18.6,7.3L138.9,278.2z"/>
		<path id="Path_5579" class="st1" d="M43.7,186.9c0.1,2.3,0.3,4.7,0.5,7.2c0.1,1.2,0.2,2.5,0.3,3.7c0.2,0,0.5,0.1,0.8,0.1
			c2.9,0.4,8.9,1.1,15,1.8l0,0l-9.5-40.5l0,0l0,0l2.1-0.5l13.2,56.1l21.7-0.5c-0.1-0.6-0.3-1.2-0.4-1.9l-17.1-1.6l-5.3-32.1
			l-5.7-34.6l2.2-0.3l0,0l9.4,57.1c1.6,0.1,3.1,0.3,4.1,0.4c-1.8-5.6-3.2-11.4-4.3-17.2c-2.7-15.2-3.8-30.7-3.2-46.2
			c-8.4-3.3-17.7-6.8-20.2-7.5c-0.1,0.2-0.1,0.5-0.2,0.8c-0.1,0.2-0.1,0.5-0.2,0.7c-0.1,0.5-0.2,1-0.4,1.6c-0.1,0.5-0.2,1.2-0.4,1.8
			c0,0.1-0.1,0.3-0.1,0.4c-0.1,0.7-0.3,1.5-0.4,2.3c-0.2,1.3-0.4,2.8-0.7,4.4c0,0.1,0,0.3-0.1,0.4c-0.1,1-0.3,2.1-0.4,3.2
			c-0.2,2-0.4,4.1-0.6,6.4c-0.1,1.4-0.2,3-0.3,4.5c-0.2,4.1-0.3,8.7-0.3,13.7c0,1,0,2,0,3C43.3,177.9,43.5,182.3,43.7,186.9"/>
		<path id="Path_5581" class="st1" d="M37.6,230.9v64.4h6.1l3.3-63.9L37.6,230.9z"/>
		<path id="Path_5582" class="st1" d="M47.6,261l-0.2,4.5l42,1.3V261H47.6z"/>
		<path id="Path_5583" class="st1" d="M45.8,215.5l18.1-0.4l-2.3-9.9l-0.7-3.2c-6.7-0.8-13.5-1.6-16.2-1.9l0.3,3.4L45.8,215.5z"/>
		<path id="Path_5584" class="st1" d="M43.6,215.5l-8.1-107H22.1l15.4,107.3L43.6,215.5z"/>
		<path id="Path_5585" class="st1" d="M55.3,126.9l-0.9,3.6c1.9,0.7,4.1,1.4,6.8,2.5l0.1-4.4C59.2,128.6,57.2,128,55.3,126.9"/>
		<path id="Path_5586" class="st1" d="M497.6,273.3l-0.2-4.5h-41.7v5.8L497.6,273.3z"/>
		<path id="Path_5587" class="st1" d="M445.4,241.6l5.2,62.4v-0.1l0,0v0h3v-42.2v-20.5L445.4,241.6z"/>
		<path id="Path_5588" class="st1" d="M410.3,298.1l14.1,5.7l13-15H434C432,289.2,419.6,294.2,410.3,298.1"/>
		<path id="Path_5589" class="st1" d="M435.8,242.2l-1.4-20.6h0l0,0l20.7,0.5c0.4-1.6,0.8-3,0.8-3l0.2-0.8l0,0l0,0l16.8-1.6l1-5.6
			c-3.2,0.4-5.3,0.7-5.3,0.7l-1.8,0.2l0.1-0.3l-40.9,0.8l8.9,74.1h3.9l1.2-44.6L435.8,242.2z"/>
		<path id="Path_5590" class="st1" d="M432.4,284.3l-26.2,1.8l7.9,8.1c6.5-2.6,15.4-6.2,18.6-7.2l0,0L432.4,284.3z"/>
		<path id="Path_5591" class="st1" d="M507.7,303v-64.4l-9.5,0.4l3.3,63.9H507.7z"/>
		<path id="Path_5592" class="st1" d="M292.5,469.2l6.8-14.3c-5.8,1.7-11.7,2.9-17.7,3.8c-5.1,0.8-10.2,1.2-15.4,1.2
			c-9,0-16.6-1.5-22.7-4.4l6.4,13.6C252.8,470.1,269.4,474,292.5,469.2"/>
		<path id="Path_5593" class="st1" d="M511.2,236.3v-10.5h-1.6v0.1h0l0,0h-10.4v-0.3l-18.5-0.5h-0.1l-43.9-1.2l1.2,16L511.2,236.3z"
			/>
		<path id="Path_5594" class="st1" d="M509.7,116.3l-8.1,107l6.1,0.2l13.2-91.9l2.2-15.4H509.7z"/>
		<path id="Path_5595" class="st1" d="M387,323.5c4.3-4.6,7.2-10.4,8.2-16.6l0,0c2.5-13.5-2.6-25.9-11.5-27.6
			c-0.3-0.1-0.7-0.1-1-0.1s-0.7-0.1-1-0.1c-8.2,0-16.3,9.2-18.8,21.7c-1.2,6.2-0.7,12.6,1.5,18.4c1.9,4.5,4.8,7.6,8.4,8.8
			c0.2,0.1,0.3,0.1,0.5,0.1c0.3,0.1,0.7,0.2,1.1,0.3l0,0h0c1.3,0.3,2.7,0.3,4,0.1C381.7,327.8,384.7,326.1,387,323.5"/>
		<path id="Path_5596" class="st1" d="M392.1,320.7c-1,1.6-2.2,3.1-3.5,4.5c-1.5,1.6-3.3,2.8-5.2,3.8l11.1-4.4L392.1,320.7z"/>
		<path id="Path_5597" class="st1" d="M324.3,448.8l-22.6-65.6l3.1,30.8h0.1l12.6,35.8l-3.3,6.9l3.1,2.3l6.4-3.3h0.3
			c14.1,1,18.8,1.5,20.4,2c0.6-1.2,1.2-2.4,1.6-3.6L324.3,448.8z"/>
		<path id="Path_5598" class="st1" d="M500.5,208.1c-2.6,0.3-9.5,1.1-16.2,1.9l-3.1,12.9l18.2,0.4L500.5,208.1z"/>
		<path id="Path_5599" class="st1" d="M246.4,373.8L246.4,373.8l-7,76.9c20.7,15,60.9,2,67-0.2l-7.8-76.7
			C274.5,358.4,250,371.7,246.4,373.8"/>
		<path id="Path_5600" class="st1" d="M381.3,393.5l-1.2-20.6c-0.1,0.4-0.3,0.9-0.4,1.3c-0.2,0.7-0.5,1.4-0.7,2.1
			c-0.2,0.7-0.5,1.4-0.7,2.1c-2.2,6.5-5,12.7-8.4,18.7c-0.2,0.3-0.3,0.5-0.5,0.8L381.3,393.5z"/>
		<path id="Path_5601" class="st1" d="M373.7,335.2l-16.2,60.4l7.6,3.7l0.8-0.4c4-5.6,7.5-13.8,10-20.7c1.9-5.4,3.2-10,3.6-11.6
			c0.1-0.3,0.1-0.5,0.1-0.6l-0.7-11.3l0,0l2.2-0.1l3.5,56.5l0,0c15.5,3.4,37.8-4.4,42.3-6c-1.9-11.7-4-21.9-6.1-30.7
			c-0.1-0.3-0.1-0.6-0.2-0.8c-0.1-0.2-0.1-0.4-0.2-0.6c-5.3-21.4-10.8-34.8-14.4-42.1c-1.1-2.3-2.4-4.6-3.8-6.7L373.7,335.2z"/>
		<path id="Path_5602" class="st1" d="M497.7,138.4c-2.4,0.6-11,3.9-19.1,7l-1.1,0.4l0,0c1.1,34.4-5.4,57.2-7.5,63.4
			c0.2,0,0.5,0,0.8-0.1c0.4,0,0.9-0.1,1.4-0.1c0.6-0.1,1.3-0.1,2-0.2l9.5-57l0,0l0,0l2.2,0.3l-11.1,66.7l0,0l0,0l-17.1,1.6
			c-0.1,0.4-0.2,1.1-0.4,1.8l21.6,0.5l13.2-56.3l0,0l2.1,0.5l-9.5,40.6c6.7-0.8,13.5-1.5,15.8-1.9
			C504.1,165.3,499,142.1,497.7,138.4"/>
		<path id="Path_5603" class="st1" d="M489.8,134.6c-1.9,1-4,1.7-6.1,1.9l0.2,4.5c2.7-1,4.9-1.9,6.8-2.5l-0.5-2.2L489.8,134.6z"/>
		<path id="Path_5604" class="st1" d="M484.2,83.1h-0.3c-4.4,0-8.4,2.5-11.7,7c-3.6,5.4-5.5,11.7-5.6,18.1c0,0.9,0,1.7,0,2.6
			c0.1,5.6,1.6,11.1,4.5,15.9l0,0c3.1,4.8,7.1,7.5,11.6,7.5c6.7,0.2,12.7-5.5,15.7-14l0,0c0.1-0.4,0.2-0.7,0.4-1.1
			c0.1-0.3,0.2-0.7,0.3-1c0,0,0-0.1,0-0.1c0.1-0.3,0.1-0.6,0.2-0.8c0-0.1,0.1-0.2,0.1-0.3c0-0.2,0.1-0.4,0.1-0.6s0.1-0.4,0.1-0.6
			c0.1-0.3,0.1-0.7,0.2-1c0-0.1,0-0.1,0-0.2c0-0.2,0.1-0.5,0.1-0.7c0-0.2,0.1-0.4,0.1-0.6c0-0.1,0-0.2,0-0.3c0-0.3,0.1-0.6,0.1-1
			c0-0.1,0-0.1,0-0.2c0.1-0.8,0.1-1.6,0.2-2.4c0.1-2.5-0.1-5.1-0.5-7.6c-0.1-0.3-0.1-0.6-0.2-0.9c0-0.1,0-0.2-0.1-0.3
			C497.5,90.5,491.5,83.4,484.2,83.1"/>
		<path id="Path_5605" d="M317.3,461.4l7-3.7c8.8,0.7,18.4,1.5,19.9,1.9c0.3,0.2,0.6,0.3,1,0.2c0.5-0.1,1.4-0.3,3.6-6.5l0.4-1.2
			l-23-5.5l-25.3-72.9l-0.1-0.7v-0.5l-0.4-0.3c-6.4-4.2-13.7-6.8-21.3-7.7c9.3-3.3,16.2-15.5,16.2-29.9c0-17-9.5-30.8-21.2-30.8
			c-11.6,0-21.2,13.8-21.2,30.8c0,14.4,6.8,26.5,16,29.8c-8.5,0.8-16.6,3.4-24,7.7l-0.4,0.3l-0.1,1.8l-24.6,72.7l-23,5.5l0.4,1.2
			c2.2,6.1,3.1,6.4,3.6,6.5c0.3,0.1,0.7,0,1-0.2c1.3-0.4,11.1-1.3,19.9-1.9l7,3.7l5.7-4.3l-3.7-7.8L240,422l-2.7,29.5l0.4,0.3
			c0.9,0.7,1.9,1.3,2.7,1.9l8.1,17.1l0.4,0.1c0.4,0.1,8.3,2.5,21.2,2.5c7.9,0,15.8-0.9,23.5-2.5l0.5-0.1l8.1-17
			c3.5-1.1,5.7-1.9,5.8-1.9l0.8-0.3l-3-29.1l9.4,26.8l-3.7,7.8L317.3,461.4z M324.3,448.8l21.7,5.3c-0.4,1.3-1,2.5-1.6,3.6h0
			c-1.6-0.4-6.3-1-20.4-2h-0.3l-6.4,3.3l0,0l-3.1-2.3l3.3-6.9L304.9,414h-0.1l-3.1-30.8v0L324.3,448.8z M274,306
			c10.4,0,19,12.8,19,28.6c0,8.9-2.7,16.8-6.9,22.1c-3.3,4.1-7.5,6.5-12,6.5c-5.2,0-10-3.2-13.4-8.4c-0.1-0.2-0.3-0.5-0.4-0.7
			c-0.1-0.1-0.1-0.2-0.2-0.3c-3.3-5.9-5.1-12.5-4.9-19.2C255,318.8,263.6,306,274,306 M222,455.8h-0.3c-14,1-18.8,1.6-20.4,2
			c-0.7-1.2-1.2-2.4-1.6-3.7l21.7-5.3l21.9-65.1v0l-2.6,29.4l-12.5,36.8l3.3,6.9l-3.1,2.3l0,0L222,455.8z M250,469.2l-6.4-13.6l0,0
			c6.1,2.9,13.7,4.4,22.7,4.4c5.1,0,10.3-0.5,15.4-1.2c6-0.9,11.9-2.2,17.7-3.8l-6.8,14.3l0,0C269.4,474,252.8,470,250,469.2
			 M239.3,450.6l7-76.9c3.6-2.1,28.2-15.4,52.2,0l7.8,76.7l0,0C300.2,452.6,260.1,465.7,239.3,450.6"/>
		<path id="Path_5606" d="M355.3,395.5l-21.8,7.2v18l0.4,0.3c0.9,0.8,22.4,17.5,36.1,17.8h1c13.9,0,46.3-4.1,50.2-11.2
			c3.3-5.9,5.7-17.2,6.3-20.2c0.4-0.1,0.8-0.2,1.1-0.4l0.8-0.3l-0.1-0.9c-10-62.6-25-82.9-25.7-83.8h0l-0.5-0.7l-6.4,2.5l-3.2-5.3
			c1.9-3.5,3.3-7.3,4-11.2c2.9-14.7-3.1-28.3-13.2-30.2c-10.1-2-20.6,8.4-23.5,23.2c-1.4,6.6-0.8,13.5,1.6,19.7
			c2.5,5.8,6.6,9.5,11.5,10.5c0.8,0.1,1.7,0.2,2.5,0.2c1.2,0,2.4-0.2,3.5-0.4l-8,3.2L355.3,395.5z M419.2,426.3L419.2,426.3
			c-2.9,5.2-28.9,9.4-44.4,10l-0.4,0c-0.8,0-1.6,0-2.4,0.1c-0.2,0-0.5,0-0.7,0c-0.5,0-0.9,0-1.4,0c-0.3,0-0.7,0-1-0.1
			c0,0-0.1,0-0.1,0c-12-1-30.2-14.6-33.2-16.9V404l20.4-6.7l0,0l8.7,4.4l0,0l16.4-6h0l0.8,12.5h0c-11.1-3.7-22.6-6-34.3-6.7l0,0
			l-0.1,2.2c11.8,0.7,23.5,3,34.7,6.8l0.1,2.3l0.8,0.2c3.3,0.8,6.7,1.1,10.1,1.1l0,0c3.6,0,7.2-0.3,10.8-0.9c0.3,0,0.5-0.1,0.8-0.1
			c0.2,0,0.4-0.1,0.5-0.1c5.4-0.9,10.6-2.2,15.8-3.8c1.4-0.5,2.7-0.9,3.8-1.3l0,0C424.1,412.2,421.9,421.4,419.2,426.3 M378.2,378.4
			c0.2-0.7,0.5-1.4,0.7-2.1c0.2-0.7,0.5-1.5,0.7-2.1c0.1-0.5,0.3-0.9,0.4-1.3l1.2,20.6l-12,4.4c0.2-0.3,0.3-0.5,0.5-0.8
			C373.2,391.2,376,384.9,378.2,378.4 M394.5,324.6l-11.2,4.4c0,0,0,0,0.1,0c1.9-1,3.7-2.3,5.2-3.8c1.3-1.3,2.5-2.9,3.5-4.5v0
			L394.5,324.6z M378.4,328.5c-1.3,0.2-2.7,0.2-4-0.1h0l0,0h0c-0.4-0.1-0.7-0.2-1.1-0.3c-0.2,0-0.3-0.1-0.5-0.1
			c-3.6-1.2-6.5-4.3-8.4-8.8c-2.2-5.9-2.8-12.3-1.5-18.4c2.4-12.5,10.5-21.7,18.8-21.7c0.3,0,0.7,0,1,0.1c0.3,0,0.7,0.1,1,0.2
			c8.9,1.8,14,14.1,11.5,27.6c-1.1,6.2-3.9,12-8.2,16.6C384.7,326.1,381.7,327.8,378.4,328.5 M402.2,324c1.4,2.2,2.7,4.4,3.8,6.7
			c3.6,7.4,9.1,20.7,14.4,42.1c0.1,0.2,0.1,0.4,0.2,0.6c0.1,0.3,0.1,0.5,0.2,0.8c2.1,8.9,4.2,19,6.1,30.7c-4.5,1.6-26.9,9.4-42.3,6
			l0,0l-3.5-56.5l-2.2,0.1l0,0l0.7,11.3c0,0.1-0.1,0.3-0.1,0.6c-0.4,1.6-1.7,6.2-3.6,11.6c-2.4,6.8-5.9,15-10,20.7l-0.8,0.4
			l-7.6-3.7l0,0l16.2-60.4L402.2,324z"/>
		<path id="Path_5607" d="M507.7,114.1l-4,52c-0.2-4.1-0.4-7.6-0.8-10.5c0-0.2-1.9-18.5-4.3-19.3c-0.2-0.1-0.8-0.2-5.9,1.6l-1-4.4
			c6-4.5,10.4-13.6,10.6-24c0.4-15.2-7.8-28-18.2-28.3c-5.2-0.1-10.1,2.6-13.8,7.9c-7.6,11.7-8.1,26.7-1.2,38.9
			c3.2,5,7.6,8.1,12.3,8.7l0.2,5.5c-1.8,0.7-3.6,1.4-5.6,2.2l-0.8,0.3v0.8c1.2,36.4-6,59.8-7.6,64.3l-44.2,0.9l8.6,71.7l-30.8,2.1
			l10.6,11c-2.4,1-4.3,1.8-4.8,2l-2.4,1l20.5,8.3l15.4-17.7h0.5l1.3-46.9h0.9l5.4,64.5h7.1v-29.4l42.1-1.2l1.5,29.7h10.4V239
			l3.6-0.2v-14.7l-3.4-0.1l15.6-109.9H507.7z M490.7,138.4c-1.9,0.7-4.1,1.5-6.8,2.5l-0.2-4.5l0,0c2.2-0.2,4.2-0.8,6.1-1.9l0.4,1.6
			L490.7,138.4L490.7,138.4 M466.6,108.3c0.1-6.4,2-12.7,5.6-18.1c3.3-4.5,7.3-7,11.7-7h0.3c7.3,0.3,13.3,7.4,15.4,17.2
			c0,0.1,0,0.2,0.1,0.3c0.1,0.3,0.1,0.6,0.2,0.9c0.4,2.5,0.6,5,0.5,7.6c0,0.8-0.1,1.6-0.2,2.4c0,0.1,0,0.1,0,0.2
			c0,0.3-0.1,0.7-0.1,1c0,0.1,0,0.2,0,0.3c0,0.2-0.1,0.4-0.1,0.6c0,0.2-0.1,0.5-0.1,0.7c0,0.1,0,0.1,0,0.2c-0.1,0.3-0.1,0.7-0.2,1
			c0,0.2-0.1,0.4-0.1,0.6s-0.1,0.4-0.1,0.6c0,0.1-0.1,0.2-0.1,0.3c-0.1,0.3-0.1,0.6-0.2,0.8c0,0,0,0.1,0,0.1c-0.1,0.4-0.2,0.7-0.3,1
			c-0.1,0.4-0.2,0.7-0.4,1.1c0,0,0,0,0,0c-3,8.5-9,14.2-15.7,14c-4.5,0-8.6-2.6-11.6-7.5l0,0c-2.9-4.8-4.4-10.3-4.5-15.9
			C466.5,110,466.5,109.1,466.6,108.3 M497.7,138.4c1.3,3.7,6.4,26.9,2.7,67.3l0,0c-2.3,0.3-9.1,1.1-15.8,1.9l9.5-40.6l-2.1-0.5l0,0
			L479,222.7l0,0l-21.6-0.5c0.2-0.7,0.3-1.3,0.4-1.8l0,0l17.1-1.6l0,0l11.1-66.7l-2.2-0.3l0,0l-9.5,57c-0.7,0.1-1.4,0.2-2,0.2
			c-0.5,0.1-1,0.1-1.4,0.1c-0.3,0-0.5,0.1-0.8,0.1l0,0c2.1-6.1,8.6-29,7.5-63.4l0,0l1.1-0.4C486.8,142.3,495.3,139,497.7,138.4
			 M481.2,222.9l3.1-12.9c6.7-0.8,13.6-1.5,16.2-1.9l-1.1,15.2L481.2,222.9L481.2,222.9z M414,294.1l-7.9-8.1l26.2-1.8l0,0l0.3,2.6
			l0,0C429.4,287.9,420.5,291.5,414,294.1 M437.5,288.8l-13,15l-14.1-5.7h0c9.3-3.8,21.7-8.9,23.7-9.3L437.5,288.8L437.5,288.8z
			 M438.8,286.6h-4l-8.9-74.1l0,0l40.9-0.8l-0.1,0.3l1.8-0.2c0,0,2.1-0.2,5.3-0.7l-1,5.6l0,0l-16.8,1.6l0,0l-0.2,0.8
			c0,0-0.3,1.3-0.8,3l0,0l-20.7-0.5l0,0l1.4,20.6l4.3-0.2L438.8,286.6z M453.5,261.6v42.2h-3v0.1l-5.2-62.4v0l8.1-0.4L453.5,261.6z
			 M455.7,274.6v-5.8h41.7l0.2,4.5l0,0L455.7,274.6z M455.8,266.6v-25.4l40.1-2l1.4,27.4L455.8,266.6z M501.4,303l-3.3-63.9l0,0
			l9.5-0.4V303v0L501.4,303z M437.8,239.9l-1.2-16l0,0l43.9,1.2h0.1l18.5,0.5v0.3h10.4v-0.1h1.6v10.5L437.8,239.9z M520.9,131.6
			l-13.2,91.9l0,0l-6.1-0.2l8.1-107h13.4L520.9,131.6z"/>
		<path id="Path_5608" d="M141.1,321.3l-0.5,0.7c-0.7,0.9-15.7,21.3-25.7,83.6l-0.1,0.9l0.8,0.3c0.4,0.1,0.7,0.3,1.1,0.4
			c0.5,3,3,14.3,6.3,20.2c4,7.1,36.3,11.2,50.2,11.2h1c13.7-0.2,35.2-17.1,36.1-17.8l0.5-0.2v-18l-21.8-7.2l-16.7-61.7l-8.8-3.4
			c1.4,0.4,2.8,0.7,4.3,0.7c0.8,0,1.7-0.1,2.5-0.2c4.9-1,9.1-4.7,11.5-10.5c4.8-12.9,2-27.3-7.1-37.5c-4.5-4.5-9.7-6.5-14.6-5.5
			s-9.1,4.7-11.5,10.5c-2.4,6.3-3,13.1-1.6,19.7c0.8,3.9,2.1,7.7,4,11.2l-3.3,5.3L141.1,321.3z M208.5,411.6v7.9
			c-3.1,2.3-22.4,16.8-34.3,17c-14.3,0.2-46.1-4.3-49.2-10.1c-2.7-4.9-4.8-14.1-5.7-18.2l0,0c6.1,2.1,19.4,6.1,31.7,6.1
			c3.4,0,6.8-0.3,10.1-1.1l0.8-0.2v0l0.1-2.2l0,0c11.2-4,22.8-6.2,34.7-6.8v0l-0.1-2.2c-11.7,0.6-23.3,2.9-34.3,6.7l0.8-12.6l0,0
			l16.4,6l8.8-4.4l20.4,6.7l0,0L208.5,411.6z M175.1,398L175.1,398l-12.1-4.4l0,0l1.2-20.9l0,0c1,3.4,2.5,7.8,4.4,12.3
			C170.4,389.5,172.5,393.8,175.1,398 M186.8,395.6l-7.6,3.7l-0.7-0.2l0,0c-8-11-13.6-31.9-13.8-33h-0.1v0l0.7-11.3h0l-2.2-0.1
			l-3.5,56.5c-15.5,3.4-37.8-4.4-42.3-6l0,0c9-54.9,22-77,24.7-81h0l0,0l28.5,11.2l0,0L186.8,395.6z M150.5,288.7
			c2.2-5.2,5.7-8.3,10-9.2c0.7-0.1,1.4-0.2,2.1-0.2c3.6,0,7.2,1.8,10.5,5c4.1,4.1,6.9,10,8.2,16.6c0.2,0.8,0.3,1.5,0.4,2.3
			c0.8,5.4,0.1,11-2,16.1c-2.2,5.2-5.7,8.3-10,9.2c-4.3,0.8-8.8-0.9-12.6-4.8c-4.1-4.1-6.9-10-8.2-16.6
			C147.7,300.9,148.2,294.5,150.5,288.7 M152.2,320.8L152.2,320.8c1,1.6,2.2,3,3.5,4.4l0,0c1.6,1.8,3.6,3.2,5.8,4.2l0,0l-11.7-4.6
			l0,0L152.2,320.8z"/>
		<path id="Path_5609" d="M31.6,215.6v14.7l3.7,0.2v66.7h10.5l1.4-29.7l42.1,1.2v29.7h7l5.4-64.5h0.9l1.4,47h0.4l15.4,17.7l20.5-8.3
			l-2.4-1c-0.7-0.2-2.4-1-4.8-2l10.5-11l-30.8-2.1l8.7-71.8l-44.3-0.9c-1.4-4.2-8.9-27.6-7.6-64.4v-0.8l-0.8-0.3
			c-2.1-0.8-4-1.5-5.6-2.2l0.1-5.3c4.8-0.5,9.1-3.5,12.4-8.7c3.4-5.3,5-12.3,4.8-19.6c-0.4-15.2-9.4-27.5-19.8-27.2
			c-5.2,0.1-10,3.3-13.4,8.7c-3.4,5.3-5,12.3-4.8,19.6c0.3,10.5,4.6,19.5,10.7,24.1l-1,4.2c-5.3-1.9-5.7-1.6-6-1.6
			c-2.3,0.8-4.2,19.2-4.3,19.3c-0.3,2.7-0.5,6-0.8,9.8l-3.8-51.1h-18l15.7,109.4L31.6,215.6z M43.7,295.2h-6.1v-64.4l9.4,0.4
			L43.7,295.2z M33.8,228.4L33.8,228.4V218h1.6v0.1h10.4v-0.3l18.4-0.5h0.1l43.9-1.2l0,0l-1.2,16l-35.9-1.8L33.8,228.4z M44.6,200.2
			c2.7,0.2,9.5,1.1,16.2,1.9l0.7,3.2l2.3,9.9l-18.1,0.4l0,0l-0.9-11.9L44.6,200.2L44.6,200.2z M89.3,233.4v25.4H47.8l1.3-27.4
			L89.3,233.4z M89.4,266.8L89.4,266.8l-42-1.3l0.2-4.5h41.8L89.4,266.8z M94.5,296.2h-2.9v-62.7l8,0.4L94.5,296.2z M134.7,290.3
			L134.7,290.3l-14.1,5.7l-13.1-15l3.5,0C112.9,281.4,125.4,286.3,134.7,290.3 M131,286.5c-6.5-2.6-15.4-6.3-18.6-7.3l0,0l0.3-2.6
			l26.2,1.8l0,0L131,286.5z M78.1,204L78.1,204l-0.1-0.2l41,0.8l-9,74.1h-3.8l-1.3-44.6v0l4.3,0.2l0,0l1.4-20.6L90,214.2
			c-0.4-1.6-0.8-3.1-0.8-3.1l-0.2-0.8l-16.8-1.5l-1-5.6l0,0c3.1,0.3,5.2,0.5,5.2,0.5L78.1,204z M74.1,118.9
			c-3.1,4.8-7.1,7.6-11.6,7.7c-1.7,0-3.5-0.3-5.1-1c-7-3.1-12.2-12.6-12.6-24c-0.3-6.4,1.3-12.8,4.5-18.4c3.1-4.8,7.1-7.6,11.6-7.7
			h0.3c5.5,0,10.4,3.9,13.6,10c2.3,4.6,3.6,9.8,3.7,15C78.9,106.9,77.3,113.3,74.1,118.9 M54.4,130.5l0.9-3.6l0,0
			c1.8,1.1,3.9,1.7,6,1.8l0,0l-0.1,4.4l0,0C58.5,131.9,56.3,131.2,54.4,130.5 M43.2,170.8c0-5,0.1-9.6,0.3-13.7
			c0.1-1.6,0.2-3.1,0.3-4.5c0.2-2.3,0.4-4.4,0.6-6.4c0.1-1.1,0.2-2.2,0.4-3.2l0.1-0.4c0.2-1.6,0.4-3.1,0.7-4.4
			c0.1-0.8,0.3-1.6,0.4-2.3c0-0.1,0.1-0.3,0.1-0.4c0.1-0.7,0.3-1.3,0.4-1.8c0.1-0.6,0.3-1.1,0.4-1.6c0.1-0.3,0.1-0.5,0.2-0.7
			c0.1-0.3,0.2-0.6,0.2-0.8l0,0c2.5,0.7,11.7,4.2,20.2,7.5l0,0c-0.6,15.5,0.5,30.9,3.2,46.2c1,5.8,2.4,11.6,4.3,17.2
			c-1-0.1-2.4-0.3-4.1-0.4l-9.4-57.1l0,0l-2.2,0.3l5.7,34.6l5.3,32.1l17.1,1.6c0.2,0.6,0.3,1.2,0.4,1.9l0,0l-21.7,0.5l-13.2-56.1
			l-2.1,0.5l0,0l9.5,40.5l0,0c-6.1-0.7-12.1-1.4-15-1.8c-0.3,0-0.5-0.1-0.8-0.1c-0.1-1.3-0.2-2.5-0.3-3.7c-0.2-2.5-0.4-4.9-0.5-7.2
			c-0.3-4.6-0.4-9-0.5-13.1C43.3,172.8,43.2,171.8,43.2,170.8 M35.5,108.5L35.5,108.5l8.1,107l-6.1,0.2v0L22.1,108.5L35.5,108.5z"/>
		<path id="Path_5610" class="st1" d="M215.2,119l2.7,116.7h104.4l3-116.7H215.2z M313.1,224.4h-85.7v-45h85.7L313.1,224.4z
			 M313.1,174h-85.7v-18.6h85.7L313.1,174z M313.1,146.4h-85.7v-18.6h85.7L313.1,146.4z"/>
		<path id="Path_5611" class="st1" d="M209.4,116.8h122.3v-8.6H209.4V116.8z"/>
		<path id="Path_5612" class="st1" d="M221.7,237.9l1.3,13.7h4.2l1.4-13.7H221.7z"/>
		<path id="Path_5613" class="st1" d="M309.9,237.9l2.2,13.7h3.4l0.3-3.8l0.9-9.9L309.9,237.9z"/>
		<rect id="Rectangle_475" x="229.6" y="181.6" class="st1" width="81.3" height="40.6"/>
		<path id="Path_5614" d="M227.5,179.4L227.5,179.4v45h85.7v-45H227.5z M310.9,222.2h-81.3v-40.6h81.3L310.9,222.2z"/>
		<rect id="Rectangle_476" x="229.6" y="157.5" class="st1" width="81.3" height="14.3"/>
		<path id="Path_5615" d="M313.1,155.3h-85.7V174h85.7L313.1,155.3z M310.9,157.5v14.3h-81.3v-14.3L310.9,157.5L310.9,157.5z"/>
		<rect id="Rectangle_477" x="229.6" y="130" class="st1" width="81.3" height="14.3"/>
		<path id="Path_5616" d="M313.1,127.8h-85.7v18.6h85.7L313.1,127.8z M310.9,130v14.3h-81.3V130H310.9L310.9,130z"/>
		<path id="Path_5617" class="st1" d="M276.6,64.1v-0.3l-1.8,0.6L276.6,64.1z"/>
		<path id="Path_5618" class="st1" d="M293.5,36.4c-0.1,0.3-0.2,0.5-0.3,0.8l1,23.3l-0.3-25.2C293.8,35.7,293.6,36,293.5,36.4"/>
		<path id="Path_5619" class="st1" d="M334.2,15.2H210.5v68.1h123.7V15.2z M264.1,27.1l0.1-0.1l0.1,0l0,0l3.2,0.4l0,0l-3.3,5.7h-1
			c-2.9-0.1-3-0.3-3-0.5c0-0.2,0-0.3,0.1-0.4c0.2-0.2,2.5-3.2,4-5l0,0l0.1-0.1l-0.1,0L264.1,27.1c-1.4,1.9-3.7,4.8-4,5l0,0
			C260.3,31.9,262.7,29,264.1,27.1 M259.9,32.6c0.1,0.2,0.2,0.4,3.2,0.5l0,0C260.1,33,260,32.8,259.9,32.6L259.9,32.6 M248,34l1-2.1
			v0L248,34l-0.1,0l-13.3,27.2L247.9,34L248,34z M234.4,34L234.4,34L234.4,34l13-0.9h0h0l0,0l-1.6,4.1h-6.3l2,5.7l-0.1,0.1
			c-1.4,2.5-1.8,3.1-2,3.2c0,0-0.1,0-0.1,0h-0.1l0,0h0l-0.2-0.1v-0.2c0-0.1,0-0.1,0-0.2c-0.4-1.2-2.8-7.2-4.6-11.2l-0.1-0.4
			L234.4,34z M232.7,64.9L232.7,64.9l15.1-30.8h0.1l-14,30.8l-1.2,0.1L232.7,64.9L232.7,64.9z M254.3,65.2l-20.9,1.2v0l-0.1,0l0,0
			l0.1,0l0.7-1.4l14-30.8l0.9-1.9v0L249,32v0l0,0v1.1l0,0v0.1h4.6v0l0,0l-0.2,0.4C244.6,51.6,241.3,58.5,240,61
			c0.7,0,1.6-0.1,2.6-0.2c1.4-0.1,2.9-0.3,4-0.4c0.7-0.1,1.3-0.1,1.5-0.1h0.1l0.5,0.9c-3.1,0.3-7.4,0.6-9.1,0.7l0,0
			c0,0.1-0.1,0.1-0.1,0.2c1.4-0.1,5.9-0.4,9.3-0.8l-0.5-0.9l-4-5.7l3.9-4.9l-0.1-0.2l0,0l0.1,0.2l0.1-0.1l0.1-0.1L254.3,65.2
			L254.3,65.2L254.3,65.2z M258.5,64.4L258.5,64.4l0.3,0c0,0-0.1-0.1-0.1-0.1h-0.3v0h0v0l0,0l-1.4-2.1v-0.9
			c-0.3-0.4-0.5-0.6-0.6-0.8c0,0,0-0.1-0.1-0.1h0l0,0c-0.1-0.2-0.3-0.3-0.7-13.6V33.4h0v0l4.6,0.3v0.2l0,0V34
			c0,0.2,0.2,22.4,0.2,25.2v0.1c0,0,0.1,0,0.1,0c0-3.2-0.2-24.9-0.2-25.1v-0.3l0,0v0.3c0,0.2,0.2,21.9,0.2,25.1
			c0.8,0.1,1.7,0.1,2.5,0.1c0.8,0,1.7,0,2.5-0.1h0.8c0.1-7.3,0.4-25.7,0.3-26.3c0-0.2,0.1-0.3,0.2-0.4c0.2-0.1,0.4-0.2,0.7-0.2
			c1,0,2,0.2,3,0.6l0.2,0.1v0.1l0,0l-0.7,27l-0.1,0.1c-1.3,1.5-3.6,4.1-3.7,4.4c-0.1,0.2-0.2,0.3-2,0.3c-0.9,0-2.3,0-4.3-0.1h-0.7h0
			l0,0c-0.1,0-0.2-0.1-0.5-0.4c0,0-0.1-0.1-0.1-0.1L258.5,64.4z M270.1,60.4c-1.3,1.5-3.6,4.2-3.7,4.4c-0.1,0.2-0.1,0.3-2,0.3
			c-0.9,0-2.2,0-4.3-0.1h-0.7c-0.1,0-0.1,0-0.2-0.1c0.1,0,0.1,0.1,0.2,0.1h0.7c2.1,0.1,3.4,0.1,4.3,0.1c1.9,0,1.9-0.1,2-0.3
			C266.5,64.6,268.8,62,270.1,60.4l0.1-0.1l0.2-9.2l-0.2,9.2L270.1,60.4z M274,65.3h-0.1c-0.1,0-0.1,0-0.1-0.1c0,0,0.1,0.1,0.1,0.1
			L274,65.3l3.3-0.5l0.7-14.9v0l-0.7,14.9L274,65.3z M282.2,60.4h0.3l0,0H282.2z M290,64.6L290,64.6L290,64.6l-0.1-0.1l0.2-17.5
			c-1.2,3.6-2.7,8.1-4.6,13.9l-0.1,0.2h-2.6l0,0h2.6l0.1-0.2c1.9-5.8,3.4-10.3,4.6-13.9v-0.1c-1.2,3.7-2.7,8.2-4.6,13.9l0,0
			l-0.1,0.2l0,0l0,0h-2.6l-0.2-0.7L278,48.3l0,0.2l4.4,11.8h-0.3l0,0h-0.1l0,0h0l-1.8-4.6l0,0l0,0l-2.4-6.1l0,0.1l-0.7,14.9
			l-3.4,0.5v0c-0.3-0.1-0.3-0.1-0.3-4.3V49l0,0v0c0-7.7,0.1-15.5,0.1-15.6V33h5l0,0l0,0v0.1l-0.1,3.3l0,0l0,0h0.1l0,0l0,0
			c0.2,0.8,0.4,1.6,0.7,2.4c0,0.2,0.1,0.3,0.1,0.5c0,0.1,0.1,0.3,0.1,0.4c0.7,2.5,1.5,5.1,2.2,7.5l0.2,0.6c0,0.2,0.1,0.4,0.2,0.5
			c0.7,2.4,1.3,4.5,1.7,5.7c0.1-0.4,0.2-0.9,0.4-1.4c0.7-2.9,1.9-7.5,3-11.9c0.8-3,1.5-5.9,2-8l0.1-0.2h0.2c3.9,0.5,4.8,0.6,5.1,0.8
			c0.1,0,0.1,0.1,0.1,0.2l0.4,31.7l-0.5-0.1l-3.7-0.7l0.3-20.5c0,0.1-0.1,0.2-0.1,0.3l-0.3,20.2l3.7,0.7v0.7h0l0,0L290,64.6
			L290,64.6l4.5,1.2l0,0L290,64.6z M294.5,65.2L294.5,65.2l0.5,0.1l0,0L294.5,65.2z M312,64.6L312,64.6L312,64.6h-1.1h-0.1l0,0v0
			l0,0v0.3c0,0-4.4,0.1-8,0l0.2,0h0l-0.1,0l-1.7,0.1l-3.3,0.1v0l0,0l0-0.2l0,0l-1.3-31.8l1.2,31.8l0,0l-1.2-31.8l13.9-1.3l0,0
			l-13.9,1.3l13.9-1.1l0,0l0,0l0.1,0l0,0l-0.5,4.7l-10,0.2l0.4,10.2c3-0.3,7.1-0.8,7.5-0.9c0.1,0,0.2,0,0.3,0.1
			c0.1,0.1,0.1,0.2,0.1,0.2c0.3,0.2,0.3,1.4,0.1,3.3c0,0.4-0.1,0.7-0.1,1.1v0.3l-6.9-0.1h-1.1l0.4,9.8l11.1-2v0l-11.1,2l0,0.2
			l11.1-2l0,0l0.1,0l0,0h0L312,64.6z"/>
		<path id="Path_5620" class="st1" d="M277.3,40.3l0.2,0.8l0.3-7.2h-0.3c0,1.1-0.2,3.2-0.2,3.2L277.3,40.3z"/>
		<path id="Path_5621" class="st1" d="M300.1,62.3l3.8-0.7l-3.6,0.6l0-0.3l0,0l-0.2-4.6V62.3z"/>
		<path id="Path_5622" class="st1" d="M297.6,37.8c0-2.2-0.1-3.7-0.1-3.7l0,0l11.3-0.5l-0.3,2.3l-0.1,0l0,0h0l-0.5,0.1l-1.8,0.1
			l3.2-0.1l0-0.1h0l0.4-3.3l-12.4,1.2l0.5,13.1c0-0.9,0-1.7-0.1-2.5C297.7,41.9,297.6,39.6,297.6,37.8"/>
		<path id="Path_5623" class="st1" d="M307.8,47.1c-1.2,0.2-7,0.8-7.8,0.9h-0.3l-0.5-11.6h-0.1l0.3,12.2v0l0.9-0.1l6-0.8v0l0,0v0
			l0.1,0l0,0l-0.2,3.1h1.5c0.1-1.1,0.2-2.3,0.2-3C307.9,47.5,307.9,47.3,307.8,47.1"/>
		<path id="Path_5624" class="st1" d="M256.6,34.8l1.3-0.4l0,0l0,0h0l0,0l-1.3-0.2L256.6,34.8L256.6,34.8z"/>
		<path id="Path_5625" class="st1" d="M264.3,27.8L264.3,27.8L264.3,27.8L264.3,27.8c0,0-0.1,0.1-0.2,0l0,0l0,0l-0.2,0.2
			c-0.7,0.9-2,2.7-2.8,3.6c-0.1,0.1-0.2,0.3-0.3,0.4l0.1,0c0.8-0.9,2.5-3.1,3.3-4.1c0-0.1,0-0.1,0.1-0.1h0c0,0,0,0,0,0L264.3,27.8
			c0.1,0,0.1,0,0.2-0.1l0,0l1.8,0.2l0.1-0.1l-1.9-0.2v0C264.4,27.7,264.3,27.8,264.3,27.8"/>
		<path id="Path_5626" class="st1" d="M259.1,34.6l-0.1,0v25h0.8v0.2c-0.2,0.5-1,1.8-1.4,2.6l0.1,0.2c0.3-0.8,1.2-2.3,1.5-2.8v-0.3
			h-0.6v0h0.6c0-3.1-0.2-22.3-0.2-24.9L259.1,34.6L259.1,34.6z"/>
		<path id="Path_5627" class="st1" d="M266,62.8L266,62.8c0,0.1,0,0.3,0,0.4c-0.1,0.1-0.9,1.1-0.9,1.1h-4.8c1.9,0.1,3.8,0.1,5.7,0
			c0.1-0.1,0.2-0.3,0.3-0.4c0,0,0.1-0.1,0.1-0.2v-3.6h-0.5c0,0.5,0,1,0.1,1.5C265.9,62.1,266,62.5,266,62.8"/>
		<path id="Path_5628" d="M248.7,100.6v5.5h-41.7V119h5.9l2.7,117.8v1.1h3.7l1.5,15.9h8.2l1.5-15.9h76.9l2.5,15.9h7.3l1.3-15.9h5.6
			l3.1-118.9h6.3v-12.9h-37.8v-5.5h-6.7V85.5h47.2V13H208.3v72.5h47.2v15.1H248.7z M227.2,251.6h-4.2l-1.3-13.7h6.9L227.2,251.6z
			 M315.8,247.8l-0.3,3.8h-3.4l-2.2-13.7h6.8L315.8,247.8z M322.3,235.7H217.9L215.2,119h110.1L322.3,235.7z M331.6,108.3v8.6H209.4
			v-8.6H331.6z M287,85.5L287,85.5v15.1h-29.4V85.5L287,85.5L287,85.5z M210.5,15.2h123.7v68.1H210.5L210.5,15.2z M293.7,102.8
			L293.7,102.8v3.3h-42.8v-3.3H293.7z"/>
		<rect id="Rectangle_478" x="257.6" y="85.5" class="st1" width="29.4" height="15.1"/>
		<path id="Path_5629" class="st1" d="M250.9,106.1h42.8v-3.3h-42.8L250.9,106.1z"/>
		<path id="Path_5630" class="st3" d="M244.9,36.5L244.9,36.5L244.9,36.5c0.4-0.9,0.9-2.1,0.9-2.2v0c0,0,0,0-0.1,0
			c-0.5-0.2-5.5,0.1-8.3,0.3l-0.2,0c-0.8,0.1-1.4,0.1-1.7,0.1l-0.1,0l0,0c0,0,0.3,0.9,0.8,2.1c1.2,2.9,1.9,4.7,2.4,6
			c0.1,0.3,0.2,0.5,0.3,0.8c0,0,0,0,0,0.1c0.1,0.2,0.2,0.4,0.2,0.6l0,0l1.1-1.6l0.4-0.5l0,0l0-0.1l0,0l-0.2-0.5l-0.6-1.7l-1.2-2.7v0
			h0.2l0-0.1l-0.2-0.4l0,0h0.1l0-0.1L244.9,36.5L244.9,36.5z"/>
		<path id="Path_5631" class="st3" d="M253.2,64.4l-1.1-2.8l-0.6-1.6l-0.2-0.4l-3.4-8.7l-2.2,2.7l-0.2,0.3l-0.2,0.4l1.3,2.7l3.2,4.6
			h-0.2l0.1,0.1h0l0,0h-0.5c0,0-2.5,0.2-5.2,0.4c-1.1,0.1-1.9,0.2-2.6,0.2c-1.3,0.1-2,0.1-2.4,0.1c-0.5,0-0.5-0.1-0.6-0.2l-0.1-0.2
			l0.1-0.1c0.2-0.2,0.3-0.5,0.4-0.8l0.1-0.1l0,0h-0.5c-0.3-0.1,12.7-25.2,13.7-27l0,0l0,0c0-0.1,0.1-0.1,0.1-0.1h-3.5l0,0.1
			l-9.3,20.3l-4.7,10.4L253.2,64.4L253.2,64.4z"/>
		<path id="Path_5632" class="st3" d="M233.9,64.9l14-30.8h-0.1l-15.1,30.8l-0.1,0.1L233.9,64.9z"/>
		<path id="Path_5633" class="st3" d="M240,61c0,0.1-0.1,0.2-0.1,0.2c-0.1,0.2-0.2,0.4-0.3,0.5c1.7,0,5.9-0.3,9.1-0.7l-0.5-0.9H248
			c-0.2,0-0.7,0.1-1.5,0.1c-1.1,0.1-2.6,0.3-4,0.4C241.6,60.9,240.7,60.9,240,61L240,61"/>
		<path id="Path_5634" class="st3" d="M258.8,63.2c0.2,0.4,0.5,0.7,0.8,1.1h5.5c0,0,0.8-1,0.9-1.1c0-0.1,0-0.3,0-0.4
			c0-0.3,0-0.7-0.1-1.2c0-0.5-0.1-1.1-0.1-1.5c-0.6,0-1.2,0-1.7,0c-2.1,0.1-3.2,0.1-3.7,0.2l0,0c-0.1,0.1-0.2,0.3-0.3,0.5l0,0
			C259.8,61.6,259.2,62.6,258.8,63.2L258.8,63.2L258.8,63.2z"/>
		<path id="Path_5635" class="st3" d="M257.9,34.4L257.9,34.4l-1.3,0.4v9c0,4.3,0,8.4,0.1,11.4c0,0.3,0,0.6,0,0.9
			c0,1.3,0.1,2.6,0.2,3.9l0.1,0.1c0.2,0.3,0.5,0.9,1.1,1.9l0.2,0.5c0.5-0.8,1.2-2.1,1.4-2.6v-0.2H259v-25l-0.1,0l-0.7-0.1
			L257.9,34.4L257.9,34.4L257.9,34.4z"/>
		<path id="Path_5636" class="st3" d="M258.7,64.3c-0.4-0.6-0.8-1.3-1.2-2c0,0,0,0,0,0c-0.2-0.3-0.4-0.6-0.5-0.9v0.9l1.4,2.1
			L258.7,64.3L258.7,64.3"/>
		<path id="Path_5637" class="st3" d="M269.7,33.5c-0.1,0-0.2,0-0.2-0.1c-0.5-0.1-1-0.2-1.4-0.3c-0.1,0-0.2,0-0.3,0l-0.7,28.1
			l1.9-1.4L269.7,33.5z"/>
		<path id="Path_5638" class="st3" d="M264.4,27.8c-0.1,0.1-0.1,0.1-0.1,0.2c0,0,0,0,0,0c0,0-0.1,0.1-0.1,0.1l0,0
			c-0.9,1-2.5,3.1-3.3,4.1c0.9,0.1,1.8,0.2,2.8,0.2h0.1l0.8-1.3l0.1-0.1l1.2-2.1l0.5-0.9v0L264.4,27.8L264.4,27.8"/>
		<path id="Path_5639" class="st3" d="M278,48.6l-0.1,1l2.4,6.1l0,0l1.8,4.6h0.3L278,48.6L278,48.6L278,48.6z"/>
		<path id="Path_5640" class="st3" d="M290.1,42.5l1-3.2l0.1-0.3l1.7-5.1l-2.8-0.6l0,0l-0.1,0h-0.3v0l-1.2,4.4
			c-1.8,7.1-4.4,17.2-4.4,17.8v0.2h-0.3v0l-0.7,2.5l0,0l-0.1-0.2l-1.1-3.5L278.2,43v0l0,0.4v0l0,0.2l-0.1,3l3.3,8.9l1.7,4.6h1.1
			L290.1,42.5z"/>
		<path id="Path_5641" class="st3" d="M274.4,64.5L274.4,64.5l0.4-0.1l1.8-0.6v0l1-22.4l0-0.3v0l-0.2-0.8V37c0,0,0.2-2.1,0.2-3.2
			h-2.3L274.4,64.5L274.4,64.5z"/>
		<path id="Path_5642" class="st3" d="M294.1,60.6l-0.9-23.4c-0.3,1.2-0.9,2.7-1.5,4.7l-0.4,22l2.9,0.4V60.6z"/>
		<path id="Path_5643" class="st3" d="M294.3,65.7L294.3,65.7l0-0.7l-3.7-0.7l0.3-20.2c-0.3,0.8-0.5,1.5-0.8,2.3l-0.1,0.4V47
			l-0.2,17.5l0.1,0h0L294.3,65.7z"/>
		<path id="Path_5644" class="st3" d="M290.2,43.9c1.2-3.6,2.2-6.7,2.9-8.7c0-0.1,0.1-0.2,0.1-0.4v-0.4c0,0-0.1,0.1-0.1,0.2
			c-0.6,1.1-2.9,7.6-2.9,7.6V43.9z"/>
		<path id="Path_5645" class="st3" d="M302.8,65c3.6,0,8,0,8,0v-0.3l0,0L303,65L302.8,65z"/>
		<path id="Path_5646" class="st3" d="M311,63.8l0.2-2.2v0v0l0.1-1.2l0,0l-0.1,0l-0.1,0l-11.1,2v-5.2l-0.1-2.5l-0.2-4.2l0,0v0h0.1
			l6.3,0.1h0.1l0.2-3.1l0,0l-0.1,0l0,0l-6,0.8l-0.9,0.1v0l-0.3-12.2h0.1v-0.1h0v0l5.2-0.1l0.7,0l1.1,0l1.8-0.1l0.5-0.1h0l0.1,0
			l0.3-2.3l-11.3,0.5c0,0,0,1.4,0.1,3.7c0,1.8,0.1,4.1,0.2,6.5c0,0.9,0,1.7,0.1,2.6l0,1.1l0.7,16.5L311,64L311,63.8z"/>
		<path id="Path_5647" d="M238.9,45.7c0,0.1,0,0.1,0,0.2v0.2l0.2,0.1h0.1c0,0,0.1,0,0.1,0c0.2-0.1,0.6-0.7,2-3.2l0.1-0.1l-2-5.7h6.3
			l1.6-4.1h0l-13,0.9h0l-0.1,0l0.1,0.4C236.1,38.5,238.5,44.5,238.9,45.7 M246.4,33.8L246.4,33.8l0.2,0l-1.1,2.7l0,0h-6.7l0,0.1l0,0
			l0,0l0.2,0.4l1,2.7l0.8,2.2l0.2,0.8c-0.5,0.9-1.1,1.9-1.4,2.4v0c0,0,0-0.1,0-0.1l0,0c-0.1-0.2-0.2-0.4-0.3-0.8l0,0
			c-0.1-0.2-0.2-0.4-0.2-0.6c0,0,0,0,0-0.1c-0.1-0.2-0.2-0.5-0.3-0.8c-0.5-1.3-1.2-3.2-2.4-6c-0.2-0.6-0.5-1.1-0.7-1.8
			c-0.1-0.2-0.2-0.4-0.3-0.7L246.4,33.8z"/>
		<path id="Path_5648" d="M248.3,49.6L248.3,49.6l-0.1,0.2l-3.9,4.9l4,5.7l0.5,0.9c-3.4,0.3-7.9,0.7-9.3,0.8l0,0
			c0-0.1,0.1-0.1,0.1-0.2l0,0c0.1-0.2,0.2-0.4,0.3-0.5c0-0.1,0.1-0.2,0.1-0.2v0c1.3-2.5,4.7-9.4,13.5-27.3l0.2-0.4H249v-0.1l0,0V32
			l0,0l-0.1,0.2l-0.9,1.9l-14,30.8l-0.7,1.4v0l20.9-1.2l0,0L248.3,49.6z M234.2,65.7l0.3-0.6l0.1-0.1l0,0l0-0.1v0l4.7-10.4l9.3-20.3
			l0-0.1l0,0l0.1-0.2h3.7l-0.2,0.3l0,0c-0.1,0.2-0.2,0.4-0.3,0.7v0c-3.7,7.6-11,22.4-13.1,26.3l0,0l0,0l-0.1,0.1
			c-0.1,0.3-0.3,0.5-0.4,0.8l-0.1,0.1l0.1,0.2c0,0.1,0.1,0.2,0.6,0.2c0.4,0,1.1,0,2.4-0.1c0.7-0.1,1.5-0.1,2.6-0.2
			c2.6-0.2,5.2-0.4,5.2-0.4h0.5l0,0l-0.1-0.1l-3.1-4.5l-1.6-2.4l0.3-0.3l0.4-0.5l0.2-0.3l2.2-2.7l3.4,8.7l0.2,0.4l0.1,0.1l1.8,4.5
			l0,0L234.2,65.7z"/>
		<path id="Path_5649" d="M259.4,64.9h0.7c2,0.1,3.4,0.1,4.3,0.1c1.8,0,1.9-0.1,2-0.3c0.1-0.3,2.4-2.9,3.7-4.4l0.1-0.1l0.7-27v-0.1
			l-0.2-0.1c-0.9-0.3-1.9-0.5-2.9-0.6c-0.2,0-0.5,0-0.7,0.2c-0.1,0.1-0.2,0.3-0.2,0.4c0.1,0.7-0.2,19-0.3,26.3h-0.8
			c-0.8,0.1-1.7,0.1-2.5,0.1c-0.8,0-1.7,0-2.5-0.1c0,0-0.1,0-0.1,0v-0.1c0-2.9-0.2-25-0.2-25.2v-0.3l-4.6-0.3h0v13.5
			c0.3,13.3,0.5,13.4,0.7,13.6l0,0h0c0,0,0,0,0.1,0.1c0.1,0.2,0.3,0.4,0.6,0.8l0,0c0.2,0.3,0.3,0.6,0.5,0.9c0,0,0,0,0,0
			c0.5,0.9,0.9,1.6,1.2,2l0,0l0,0c0,0,0.1,0.1,0.1,0.1l0,0v0c0,0,0.1,0.1,0.1,0.1C259.1,64.8,259.3,64.9,259.4,64.9 M269.4,33.4
			c0.1,0,0.2,0,0.3,0.1c0.2,0,0.3,0.1,0.5,0.1L269.7,60c-0.5,0.5-1.6,1.9-2.5,2.8l0,0v-3.2c0-1,0.4-24.2,0.3-26.5V33
			c0,0.1,0.2,0.1,0.4,0.1c0,0,0.1,0,0.1,0C268.4,33.2,268.9,33.3,269.4,33.4L269.4,33.4z M260.3,60.3L260.3,60.3
			C260.4,60.3,260.4,60.3,260.3,60.3c0.6-0.1,1.7-0.1,3.8-0.2l1.6,0h0.7v3.6c-0.1,0.1-0.1,0.1-0.1,0.2c-0.1,0.1-0.2,0.3-0.3,0.4l0,0
			l0,0c0,0.1-0.1,0.1-0.1,0.2c-1.9,0.1-3.8,0.1-5.7,0h-0.7c-0.3-0.3-0.5-0.7-0.8-1.1c0-0.1,0.1-0.1,0.1-0.2c0.3-0.6,0.9-1.6,1.3-2.4
			C260.2,60.6,260.3,60.5,260.3,60.3 M256.6,34.2L256.6,34.2l1.3,0.2h0l0.3,0l0.7,0.1l0.1,0l0.1,0h0.7c0,2.6,0.2,21.8,0.2,24.9l0,0
			v0.3c-0.3,0.5-1.2,2.1-1.5,2.8l0,0l-0.1-0.2l-0.2-0.5c-0.5-1-0.9-1.5-1.1-1.9L257,60c-0.1-1.3-0.2-2.6-0.2-3.9c0-0.3,0-0.6,0-0.9
			c-0.1-3-0.1-7.2-0.1-11.4L256.6,34.2z"/>
		<path id="Path_5650" d="M290.1,46.9l0.1-0.4c0.3-0.8,0.5-1.5,0.8-2.3c0-0.1,0.1-0.2,0.1-0.3v0l-0.3,20.5l3.7,0.7l0.5,0.1
			l-0.4-31.7c0-0.1,0-0.2-0.1-0.2c-0.2-0.2-1.2-0.3-5.1-0.8h-0.2l-0.1,0.2c-0.5,2.1-1.3,5-2,8l-0.1,0.5c-1,4.1-2.1,8.4-2.8,11.2
			c0,0.1,0,0.1-0.1,0.2c-0.1,0.5-0.3,1-0.4,1.4v0c-0.3-1.2-1-3.2-1.7-5.7c0-0.2-0.1-0.3-0.2-0.5c-0.8-2.7-1.6-5.7-2.4-8.5
			c0-0.2-0.1-0.3-0.1-0.5c-0.2-0.8-0.5-1.6-0.7-2.4h-0.1l0.1-3.3V33h-5v0.4c0,0.9,0,8.2-0.1,15.5c0,0,0,0,0,0.1v11.9
			c0,4.2,0,4.2,0.3,4.3v0l3.4-0.5l0.7-14.9l0-0.1l0.1-1l0-0.1l0,0l0-0.2l4.5,12.1l0.2,0.7h2.6l0,0l0.1-0.2l0,0
			C287.4,55,288.9,50.5,290.1,46.9L290.1,46.9 M274.2,33.8h3.7l-0.3,7.2v0l0,0.3l-1,22.4v0l0,0v0.3l-1.8,0.3l-0.4,0.1l-0.1,0h-0.2
			C274.1,61.8,274.2,41.9,274.2,33.8 M294.2,60.5v3.9l-0.1,0l-2.9-0.4l0.4-22c0.7-2,1.2-3.5,1.5-4.7c0.1-0.3,0.2-0.6,0.3-0.8
			c0.1-0.3,0.2-0.7,0.4-1L294.2,60.5z M280.6,46c0.7,2.3,1.3,4.7,1.9,6.4v0c0.7,2.2,0.8,2.9,1,3c0,0,0.1,0,0.1,0h0.3v-0.2
			c0.1-0.4,2.6-10.6,4.4-17.8c0.4-1.6,0.8-3.2,1.1-4.4h0.4c0.4,0,0.7,0.1,1.1,0.1c0.8,0.1,1.5,0.2,2.1,0.3c0.2,0,0.4,0.1,0.6,0.1
			l0,0c0,0.1,0,0.1-0.1,0.2c-0.1,0.3-0.2,0.7-0.4,1.2c0,0.1-0.1,0.2-0.1,0.4c-0.6,1.9-1.7,5.1-2.9,8.7c0,0.1-0.1,0.2-0.1,0.3
			c-1.8,5.4-3.8,11.5-5.3,15.9h-1.8v0l-5-13.7l0.1-3.6l0.2-4.9v0C278.9,39.8,279.8,42.9,280.6,46"/>
		<path id="Path_5651" d="M311.9,59.5L311.9,59.5l-11.1,2l0,0l0-0.2l0,0l-0.4-9.8h1.1l6.9,0.1v-0.3c0-0.4,0.1-0.8,0.1-1.1
			c0.2-2,0.2-3.1-0.1-3.3c0,0,0,0,0,0c0,0-0.1-0.1-0.2-0.1c-0.1,0-0.1,0-0.2,0c-0.3,0.1-4.6,0.5-7.6,0.9l0,0l0-0.2L300,37l10-0.2
			l0.5-4.7l-0.1,0l0,0l-13.9,1.1l1.3,31.8l0,0.2v0l3.3-0.1l1.7-0.1l0.1,0l7.9-0.4l0,0h0.1h0h1.1v-5.2h0L311.9,59.5z M311.5,64.1H311
			l-12.5,0.5v-0.1L297.9,48l0-1.1v-0.1l-0.5-13.1l0,0l12.4-1.2l-0.4,3.3l0,0.1h0l-3.2,0.1l-1.1,0l-0.7,0l-5.2,0.1v0.1l0.5,11.6h0.3
			c0.8-0.1,6.6-0.7,7.8-0.9c0,0.2,0,0.4,0,0.6c0,0.7-0.1,1.9-0.2,3h-1.6l-6.3-0.1h-0.1v0l0.2,4.2l0.1,2.5l0.2,4.7l0,0.3l3.6-0.6
			l7.3-1.3l0.1,0l0.2,0L311.5,64.1z"/>
		<path id="Path_5652" d="M264.3,27L264.3,27l-0.1,0.1c-1.4,1.9-3.7,4.8-4,5l0,0c-0.1,0.1-0.1,0.2-0.1,0.4c0,0.2,0.1,0.4,3,0.5h1
			l3.3-5.7l0,0L264.3,27L264.3,27z M264.4,27.7l1.9,0.2l-0.1,0.1v0l-0.5,0.9l-1.2,2.1l-0.1,0.1l0,0l-0.7,1.3v0h-0.1
			c-0.9,0-1.9-0.1-2.8-0.2l-0.1,0l0,0c0.1-0.1,0.2-0.2,0.3-0.4c0.8-1,2-2.7,2.8-3.6c0.1-0.1,0.1-0.2,0.2-0.2l0,0v0h0
			c0.1,0,0.1,0,0.2,0l0,0C264.3,27.8,264.4,27.7,264.4,27.7L264.4,27.7z"/>
	</g>
</g>
</svg>
