<?xml version="1.0" encoding="utf-8"?>
<!-- Generator: Adobe Illustrator 27.9.0, SVG Export Plug-In . SVG Version: 6.00 Build 0)  -->
<svg version="1.1" id="Layer_1" xmlns="http://www.w3.org/2000/svg" xmlns:xlink="http://www.w3.org/1999/xlink" x="0px" y="0px"
	 viewBox="0 0 558 420" style="enable-background:new 0 0 558 420;" xml:space="preserve">
<style type="text/css">
	.st0{clip-path:url(#SVGID_00000046312425656731334900000003828586798443876492_);}
	.st1{fill:#FFFFFF;}
	.st2{fill:#27AAE1;}
</style>
<g>
	<defs>
		<rect id="SVGID_1_" x="61.6" y="12.9" width="407.9" height="391.8"/>
	</defs>
	<clipPath id="SVGID_00000089566479164299351380000004030898569786051772_">
		<use xlink:href="#SVGID_1_"  style="overflow:visible;"/>
	</clipPath>
	<g id="Group_328" style="clip-path:url(#SVGID_00000089566479164299351380000004030898569786051772_);">
		<path id="Path_2545" class="st1" d="M82.7,196.5l14.5-0.4l-2.5-10.5c-5.3-0.6-10.8-1.3-13-1.5L82.7,196.5z"/>
		<path id="Path_2546" class="st1" d="M94.4,183.8l-7.7-32.6l1.7-0.4l10.6,45.2l17.5-0.5c-0.1-0.6-0.3-1.1-0.4-1.5l-13.8-1.3
			l-8.9-53.7l1.7-0.3l7.7,46c1.3,0.1,2.4,0.3,3.2,0.4c-1.6-5-6.8-23.3-6-51.1c-6.8-2.7-14.3-5.5-16.3-6c-1.1,3-5.2,21.7-2.2,54.3
			C83.6,182.5,89,183.2,94.4,183.8"/>
		<path id="Path_2547" class="st1" d="M95.2,130.2l0.1-3.6c-1.7-0.1-3.4-0.6-4.9-1.5l-0.7,3C91.1,128.6,92.9,129.3,95.2,130.2"/>
		<path id="Path_2548" class="st1" d="M81,196.6l-6.6-86.3H63.6L76,196.7L81,196.6z"/>
		<path id="Path_2549" class="st1" d="M136.4,247.7c2.7,0.8,9.9,3.8,15.1,5.9l6.3-6.6l-21.1-1.4L136.4,247.7z"/>
		<path id="Path_2550" class="st1" d="M109.2,103.9c0-5.2-1.6-10.3-4.5-14.6c-2.7-3.7-6.1-5.7-9.7-5.6c-3.6,0.1-6.9,2.3-9.3,6.2
			c-2.6,4.5-3.9,9.6-3.7,14.8c0.3,11.3,6.7,20.4,14.2,20.2C103.7,124.6,109.5,115.2,109.2,103.9"/>
		<path id="Path_2551" class="st1" d="M133.1,196.9l-35.4,1l0,0v0l-14.8,0.4l0,0.3h-8.4l0-0.1l-1.3,0v8.5l59.1,2.8L133.1,196.9z"/>
		<path id="Path_2552" class="st1" d="M119.7,261.6h2.3l4.2-50.3l-6.5-0.3V261.6z"/>
		<path id="Path_2553" class="st1" d="M141.8,187.8l-33.1-0.7l0.1,0.1l-1.5-0.2c0,0-1.7-0.2-4.1-0.5l0.8,4.5l13.6,1.3l0.2,0.6
			c0,0,0.3,1.1,0.6,2.5l16.6-0.5l-1.2,16.6l-3.4-0.2l1.1,36h3.1L141.8,187.8z"/>
		<path id="Path_2554" class="st1" d="M154.4,256.8c-7.5-3.1-17.5-7.2-19.1-7.5h-2.8l10.5,12.1L154.4,256.8z"/>
		<path id="Path_2555" class="st1" d="M76.1,260.8h5l2.6-51.5l-7.6-0.4L76.1,260.8z"/>
		<path id="Path_2556" class="st1" d="M84.1,236.9l33.8,1v-4.7H84.2L84.1,236.9z"/>
		<path id="Path_2557" class="st1" d="M182.8,287.6c7.2-1.4,11.3-11.4,9.2-22.3c-0.9-5-3.2-9.7-6.6-13.4c-2.6-2.7-5.6-4.1-8.5-4.1
			c-0.6,0-1.1,0.1-1.7,0.2l0,0c-3.4,0.7-6.3,3.3-8,7.4c-1.9,4.7-2.3,9.9-1.2,14.9C168,281.2,175.6,289,182.8,287.6"/>
		<path id="Path_2558" class="st1" d="M216.6,52.2c0.2,0,0.4,0.1,0.7,0.1c6.3,0,11.5-8.4,11.5-18.8c0-3.8-0.7-7.6-2.2-11
			c-3.2,1-6.6,1.6-10,1.6c-1.4,0-2.8-0.1-4.1-0.3C210.1,31.5,209.1,42.5,216.6,52.2"/>
		<path id="Path_2559" class="st1" d="M191.9,145l0.7-13.4l3.9,4.1l1.4-0.8l-2.9-5.1H191l-3.2,11.4L191.9,145z"/>
		<path id="Path_2560" class="st1" d="M225.7,20.8c-0.2-0.4-0.5-0.9-0.8-1.3c-2.8,0.6-5.6,0.9-8.5,0.9c-1,0-2,0-3-0.1
			c-0.2,0.5-0.4,1.1-0.6,1.7C217.2,22.5,221.6,22.1,225.7,20.8"/>
		<path id="Path_2561" class="st1" d="M203.9,240.7l5-6.8H207L203.9,240.7z"/>
		<path id="Path_2562" class="st1" d="M207.4,232.1h2.4l5.9-107.7H211L207.4,232.1z"/>
		<path id="Path_2563" class="st1" d="M225,232.1h1.5l2.2-107.7h-6.6L225,232.1z"/>
		<path id="Path_2564" class="st1" d="M220.2,15.3c-0.9-0.4-1.9-0.6-3-0.7c-0.4,0-0.8,0-1.2,0.1c-0.1,0.2-0.2,0.4-0.4,0.7
			C217.2,15.5,218.7,15.4,220.2,15.3"/>
		<path id="Path_2565" class="st1" d="M223.8,18c-0.4-0.4-0.8-0.8-1.2-1.2c-2,0.3-4,0.4-6,0.4c-0.6,0-1.2,0-1.8,0
			c-0.2,0.4-0.4,0.9-0.6,1.4C217.4,18.8,220.6,18.6,223.8,18"/>
		<path id="Path_2566" class="st1" d="M199.9,67.4l-0.3-5.6l-10.8,26.1l3.8,1.4L199.9,67.4z"/>
		<path id="Path_2567" class="st1" d="M238.6,129.8l-2.9,5.1l1.4,0.8l3.8-4.1l0.8,13.4l4-3.8l-3.2-11.4H238.6z"/>
		<path id="Path_2568" class="st1" d="M192.9,128l-0.6-37l-3.7-1.4l2.7,38.4L192.9,128z"/>
		<path id="Path_2569" class="st1" d="M244.8,87.8l-10.7-26l-1,17.4l4,11.4L244.8,87.8z"/>
		<path id="Path_2570" class="st1" d="M222.7,122.6h6.1l3.7-63.9h-26.1l3.1,61.4L222.7,122.6z"/>
		<path id="Path_2571" class="st1" d="M214.5,53.6v3.3h5.8v-3.4C218.5,54.2,216.4,54.3,214.5,53.6"/>
		<path id="Path_2572" class="st1" d="M238.9,128h3.5l2.7-38.4l-7.6,2.8L238.9,128z"/>
		<path id="Path_2573" class="st1" d="M168.5,281.4l-2,3.2l10.2,4C173.3,287,170.4,284.5,168.5,281.4"/>
		<path id="Path_2574" class="st1" d="M376.5,263.1l11.4,4.6l10.5-12.1h-2.8C394,255.9,384,259.9,376.5,263.1"/>
		<path id="Path_2575" class="st1" d="M394.5,254l-0.3-2.1l-21.1,1.4l6.4,6.6C384.7,257.8,391.9,254.9,394.5,254"/>
		<path id="Path_2576" class="st1" d="M395.9,201.4l16.7,0.5c0.3-1.3,0.6-2.4,0.6-2.4l0.2-0.6l13.6-1.3l0.8-4.5
			c-2.5,0.3-4.2,0.5-4.2,0.5l-1.5,0.2l0.1-0.2l-33,0.7l7.1,59.8h3.2l1-36l-3.4,0.2L395.9,201.4z"/>
		<path id="Path_2577" class="st1" d="M435.7,145.1l1.7,0.3l-8.9,53.7l-13.8,1.3c-0.1,0.4-0.2,0.9-0.4,1.4l17.4,0.5l10.7-45.3
			l1.7,0.4l-7.7,32.7c5.4-0.6,10.8-1.3,12.7-1.5c2.9-32.6-1.2-51.3-2.2-54.3c-2,0.5-9.5,3.3-16.3,6c0.9,27.8-4.4,46.1-6,51.1
			c0.8-0.1,2-0.2,3.3-0.4L435.7,145.1z"/>
		<path id="Path_2578" class="st1" d="M433.6,202.4l14.6,0.4l0.9-12.3c-2.1,0.3-7.7,0.9-13.1,1.5L433.6,202.4z"/>
		<path id="Path_2579" class="st1" d="M435.8,136.5c2.2-0.8,4-1.5,5.5-2.1l-0.7-3.1c-1.5,0.8-3.2,1.3-4.9,1.4L435.8,136.5z"/>
		<path id="Path_2580" class="st1" d="M408.9,267.8h2.4v-50.6l-6.6,0.3L408.9,267.8z"/>
		<path id="Path_2581" class="st1" d="M456.5,204.8h-8.4l0-0.3l-14.9-0.4v0l-0.1,0l-35.4-1l0.9,12.9l59.1-2.8v-8.5L456.5,204.8
			L456.5,204.8z"/>
		<path id="Path_2582" class="st1" d="M456.6,116.5l-6.6,86.3l5,0.1l12.4-86.4H456.6z"/>
		<path id="Path_2583" class="st1" d="M444.5,125.5c2.9-4.3,4.5-9.4,4.5-14.6c0.3-11.3-5.5-20.8-13-21s-13.9,8.8-14.2,20.2
			c-0.3,5.2,1,10.3,3.7,14.8c2.5,3.9,5.8,6.1,9.3,6.2S441.8,129.2,444.5,125.5"/>
		<path id="Path_2584" class="st1" d="M449.9,267h5v-51.9l-7.6,0.4L449.9,267z"/>
		<path id="Path_2585" class="st1" d="M413.1,239.5v4.7l33.8-1l-0.2-3.7L413.1,239.5z"/>
		<path id="Path_2586" class="st1" d="M281.9,292.5c0-12.7-6.9-23.1-15.3-23.1s-15.3,10.3-15.3,23.1s6.9,23.1,15.3,23.1
			S281.9,305.2,281.9,292.5"/>
		<path id="Path_2587" class="st1" d="M226.7,233.8l13.1,6.8l1.5-0.8l-14.2-6.1H226.7z"/>
		<path id="Path_2588" class="st1" d="M239.8,355.7l2.2-23.7l-17.7,52.5l-17.5,4.2c0.4,1,0.8,2,1.4,3c1.3-0.3,5.1-0.8,16.4-1.6
			l0.3,0l5.1,2.7l2.5-1.9l-2.7-5.6L239.8,355.7L239.8,355.7z"/>
		<path id="Path_2589" class="st1" d="M244.4,324l-5.7,62c16.7,12.1,49,1.5,54-0.2l-6.2-61.8C267.1,311.7,247.3,322.3,244.4,324"/>
		<path id="Path_2590" class="st1" d="M177.2,340l9.8,3.5c-3.9-6.3-7.1-15-8.7-20.4L177.2,340z"/>
		<path id="Path_2591" class="st1" d="M174.5,354.3l2.8-45.5l1.8,0.1l-0.6,9.1l0.1,0c0.1,0.9,4.7,17.8,11.1,26.6l0.5,0.2l6.1-3
			l-13.1-48.6l-23-9c-2.1,3.2-12.7,21-19.8,65.3C144,350.7,162,357,174.5,354.3"/>
		<path id="Path_2592" class="st1" d="M190.3,346.7l-13.3-4.8l-0.6,10.2c8.9-3,18.3-4.8,27.7-5.4l0.1,1.8
			c-9.5,0.5-18.9,2.4-27.9,5.5l-0.1,1.7l-0.6,0.2c-2.7,0.6-5.4,0.9-8.1,0.9c-9.9,0-20.6-3.2-25.6-4.9c0.7,3.3,2.4,10.7,4.6,14.7
			c2.6,4.7,28.2,8.3,39.7,8.1c9.6-0.2,25.2-11.8,27.7-13.7v-12.4l-16.5-5.4L190.3,346.7z"/>
		<path id="Path_2593" class="st1" d="M289,331.6l2.5,24.8l0.1,0l10.2,28.8l-2.7,5.6l2.5,1.9l5.1-2.7l0.3,0
			c11.3,0.8,15.1,1.3,16.4,1.6c0.5-1,1-2,1.4-3l-17.5-4.2L289,331.6z"/>
		<path id="Path_2594" class="st1" d="M260.4,393.5c-7.2,0-13.3-1.2-18.3-3.5l5.2,11c2.3,0.6,15.6,3.8,34.3,0l5.5-11.5
			c-4.7,1.3-9.4,2.4-14.3,3.1C268.7,393.2,264.6,393.5,260.4,393.5"/>
		<path id="Path_2595" class="st1" d="M354.6,355.7l-0.6-0.2l-0.1-1.8c-9-3.2-18.4-5-27.9-5.5l0.1-1.8c9.4,0.5,18.7,2.3,27.7,5.4
			l-0.6-10.1l-13.3,4.8l-7.1-3.5l-16.5,5.4v12.4c2.5,1.9,18,13.5,27.7,13.7c11.5,0.2,37.1-3.5,39.7-8.1c2.2-4,3.9-11.4,4.6-14.7
			c-5,1.7-15.6,4.9-25.5,4.9C360,356.7,357.3,356.4,354.6,355.7"/>
		<path id="Path_2596" class="st1" d="M364.3,270.3c1.1-5,0.6-10.1-1.2-14.9c-1.8-4.1-4.6-6.8-8-7.4c-0.5-0.1-1.1-0.2-1.7-0.2
			c-2.9,0-5.9,1.4-8.5,4.1c-6.9,7.7-9,18.6-5.4,28.2c1.8,4.1,4.6,6.8,8,7.4s7-0.7,10.2-3.9C361.2,279.9,363.5,275.3,364.3,270.3"/>
		<path id="Path_2597" class="st1" d="M359,284.9c-1.2,1.3-2.6,2.3-4.2,3.1l9-3.5l-1.9-3.2C361,282.6,360,283.8,359,284.9"/>
		<path id="Path_2598" class="st1" d="M347,293l-13.1,48.6l6.1,3l0.6-0.2c6.4-8.8,11-25.7,11.1-26.5h0l-0.6-9.1l1.8-0.1l2.8,45.5
			c12.5,2.7,30.5-3.5,34.1-4.9c-7.2-44.3-17.7-62.1-19.8-65.3L347,293z"/>
		<path id="Path_2599" class="st1" d="M343.4,343.4l9.6-3.5l-1-16.6C350.3,328.7,347.3,337.2,343.4,343.4"/>
		<path id="Path_2600" class="st2" d="M212.4,23.7c-1.5-0.2-3-0.6-4.5-1.1c-1.4,3.4-2.1,7.1-2.1,10.8c0,10,4.8,18.2,10.8,18.8
			C209.1,42.5,210.1,31.5,212.4,23.7"/>
		<path id="Path_2601" class="st2" d="M213.5,20.3c-1.4-0.1-2.7-0.3-4.1-0.6c-0.3,0.4-0.5,0.9-0.8,1.3c1.4,0.4,2.8,0.8,4.3,0.9
			C213.1,21.4,213.3,20.8,213.5,20.3"/>
		<path id="Path_2602" class="st2" d="M214.8,17.2c-1-0.1-2-0.2-2.9-0.4c-0.5,0.4-0.9,0.8-1.3,1.3c1.2,0.2,2.4,0.4,3.6,0.4
			C214.4,18.1,214.6,17.6,214.8,17.2"/>
		<path id="Path_2603" class="st2" d="M216.1,14.7c-0.7,0.1-1.3,0.3-1.9,0.6c0.5,0,1,0.1,1.6,0.1C215.8,15.2,215.9,15,216.1,14.7"/>
		<path id="Path_2604" class="st2" d="M189.3,241.7l11.8,5.4l0.6-1.4l-10.4-5.1L189.3,241.7z"/>
		<path id="Path_2605" class="st2" d="M204.5,124.3l0.8,107.7h2.1l3.7-107.7H204.5z"/>
		<path id="Path_2606" class="st2" d="M222.7,122.6l-13.2-2.5l-3.1-61.4h-5.2l3.3,63.9H222.7z"/>
		<path id="Path_2607" class="st2" d="M204.6,233.8l-11.2,5.9l8.2,4l2.2-3.1l3-6.8H204.6z"/>
		<path id="Path_2608" class="st2" d="M224.1,233.8l9.4,10l6.3-3.1l-13.1-6.8H224.1z"/>
		<path id="Path_2609" class="st2" d="M217.5,124.3l5.4,107.7h2.1l-2.9-107.7H217.5z"/>
		<path id="Path_2610" class="st2" d="M226.2,238.6l6.2,8.5l10.3-4.9l-0.9-0.5l-8.7,4.3L226.2,238.6z"/>
		<path id="Path_2611" class="st2" d="M194.7,128l1.5-35.6l-3.8-1.4l0.6,37L194.7,128z"/>
		<path id="Path_2612" class="st2" d="M196.6,90.7l3.9-11.5l-0.6-11.8l-7.3,21.9L196.6,90.7z"/>
		<path id="Path_2613" d="M185.8,141.7l7.6,7.1l0.7-13.1l2,2.1l4.1-2.4l-3.8-6.8L198,92l2.8-8l2,39.5l0.8,108.9l-14,7.4l1.7,0.8
			l10.4,5.1l0.6,0.3l8.8-12.2h0.4l5.1-93.5l4.7,93.5h0.5l4.5,4.7l6.9,7.4l8.7-4.3l3.8-1.9l-17.3-7.4l2.2-108.9l2.3-39.6l2.8,8.1
			l1.5,36.8l-3.9,6.8l4.2,2.4l1.9-2.1l0.8,13.1l7.5-7.2l-3.6-13l2.8-40.3l0-0.2l-12.6-30.4l0.1-0.9h-12.2v-4.3
			c4.9-3,8.4-10.5,8.4-19.2c0-4-0.8-8-2.3-11.6l0,0l-0.7-1.6l-0.1,0c-0.2-0.4-0.4-0.8-0.7-1.1c0.2-0.1,0.4-0.1,0.6-0.2l-0.9-1.5
			c-0.2,0.1-0.5,0.2-0.8,0.3c-0.3-0.4-0.6-0.7-0.9-1.1c0.4-0.1,0.7-0.1,0.8-0.1l-0.3-1.7c0,0-0.9,0.2-2.1,0.3
			c-3.4-2.8-8.2-2.8-11.6,0c-0.3-0.1-0.6-0.2-0.8-0.2l-0.5,1.4c-0.5,0.5-1,1.1-1.4,1.6c-0.1,0-0.1,0-0.2,0l-0.1,0.4
			c-2.7,3.8-4.5,9.3-4.5,15.4c0,8.9,3.7,16.5,8.8,19.4v4.1h-13.4l0,0.7l-12.6,30.6l2.8,40.4l0,0L185.8,141.7z M245.7,141.2l-4,3.8
			l-0.8-13.4l-3.8,4.1l-1.4-0.8l2.9-5.1h3.9L245.7,141.2z M242.3,128h-3.5l-1.4-35.6l7.6-2.8L242.3,128z M234.1,61.9l10.7,26
			l-7.8,2.8l-4-11.4L234.1,61.9z M203.9,240.7l-2.2,3.1l-8.2-4l11.2-5.9h4.2L203.9,240.7z M209.8,232.1h-4.5l-0.8-107.7h11.2
			L209.8,232.1z M241.4,239.9l-1.5,0.8l-6.3,3.1l-9.4-10h3.1L241.4,239.9z M226.5,232.1h-3.6l-5.4-107.7h11.2L226.5,232.1z
			 M216.1,14.7c0.4-0.1,0.8-0.1,1.2-0.1c1,0,2,0.2,3,0.7c-1.5,0.1-3,0.2-4.5,0.2c-0.5,0-1.1,0-1.6-0.1
			C214.7,15.1,215.4,14.9,216.1,14.7 M211.9,16.8c1,0.2,2,0.3,2.9,0.4c0.6,0,1.2,0,1.8,0c2,0,4-0.1,6-0.4c0.4,0.4,0.8,0.8,1.2,1.2
			c-3.2,0.6-6.4,0.8-9.6,0.6c-1.2-0.1-2.4-0.2-3.6-0.4C211,17.7,211.4,17.2,211.9,16.8 M209.4,19.7c1.3,0.3,2.7,0.5,4.1,0.6
			c1,0.1,2,0.1,3,0.1c2.9,0,5.7-0.3,8.5-0.9c0.3,0.4,0.5,0.8,0.8,1.3c-4.1,1.3-8.5,1.7-12.8,1.2c-1.4-0.2-2.9-0.5-4.3-0.9
			C208.9,20.6,209.2,20.1,209.4,19.7 M205.8,33.5c0-3.7,0.7-7.4,2.1-10.8c1.5,0.5,3,0.8,4.5,1.1c1.4,0.2,2.8,0.3,4.1,0.3
			c3.4,0,6.8-0.5,10-1.6c1.5,3.5,2.2,7.3,2.2,11c0,10.4-5.2,18.8-11.5,18.8c-0.2,0-0.4,0-0.7-0.1C210.6,51.7,205.8,43.5,205.8,33.5
			 M220.3,53.5v3.4h-5.8v-3.3C216.4,54.3,218.5,54.2,220.3,53.5 M206.4,58.7h26.1l-3.7,63.9h-24.3l-3.3-63.9L206.4,58.7z
			 M199.6,61.7l0.3,5.6l0.6,11.8l-3.9,11.5l-3.9-1.4l-3.8-1.4L199.6,61.7z M188.6,89.7l3.7,1.4l3.8,1.4l-1.5,35.6h-3.4L188.6,89.7z
			 M191,129.8h3.9l2.9,5.1l-1.4,0.8l-3.9-4.1l-0.7,13.4l-4.1-3.8L191,129.8z"/>
		<path id="Path_2614" d="M288.3,324l-0.1-1l-0.4-0.2c-5.1-3.4-11-5.5-17.1-6.1c7.5-2.6,13-12.5,13-24.1c0-13.7-7.7-24.8-17.1-24.8
			s-17.1,11.1-17.1,24.8c0,11.6,5.5,21.4,12.9,24.1c-6.8,0.7-13.4,2.8-19.4,6.2l-0.4,0.2l-0.1,1.4L222.8,383l-18.5,4.4l0.3,0.9
			c1.8,4.9,2.5,5.1,2.9,5.2c0.3,0.1,0.5,0,0.8-0.1c1.1-0.3,8.9-1,16-1.5l5.7,3l4.6-3.4l-3-6.2l7.5-22.1l-2.2,23.8l0.4,0.3
			c0.7,0.5,1.5,1,2.2,1.5l6.5,13.8l0.4,0.1c0.4,0.1,6.7,2.1,17.1,2.1c6.4,0,12.7-0.7,18.9-2l0.4-0.1l6.5-13.7
			c2.9-0.9,4.6-1.5,4.6-1.5l0.6-0.2l-2.4-23.4l7.6,21.5l-3,6.2l4.6,3.4l5.7-3c7,0.5,14.9,1.2,16,1.5c0.2,0.2,0.5,0.2,0.8,0.1
			c0.4-0.1,1.1-0.2,2.9-5.2l0.3-0.9l-18.5-4.5L288.3,324z M251.4,292.5c0-12.7,6.9-23.1,15.3-23.1c8.4,0,15.3,10.3,15.3,23.1
			s-6.9,23.1-15.3,23.1S251.4,305.2,251.4,292.5 M229.6,385.3l2.7,5.6l-2.5,1.9l-5.1-2.7l-0.3,0c-11.3,0.8-15.1,1.3-16.4,1.6
			c-0.5-1-1-2-1.4-3l17.5-4.2l17.7-52.5l-2.2,23.7l0,0L229.6,385.3z M281.6,401c-18.7,3.9-32,0.7-34.3,0l-5.2-11
			c5,2.3,11.1,3.5,18.3,3.5c4.2,0,8.3-0.4,12.4-1c4.8-0.7,9.6-1.8,14.3-3.1L281.6,401z M292.7,385.8c-5,1.7-37.3,12.3-54,0.2l5.7-62
			c2.9-1.7,22.7-12.3,42.1,0L292.7,385.8z M323.4,391.7c-1.3-0.3-5.1-0.8-16.4-1.6l-0.2,0l-5.1,2.7l-2.5-1.9l2.7-5.6l-10.2-28.8
			l-0.1,0l-2.5-24.8l18.2,52.8l17.5,4.2C324.4,389.7,323.9,390.7,323.4,391.7"/>
		<path id="Path_2615" d="M371,282.3l-0.4-0.5l-5.2,2l-2.6-4.2c1.5-2.8,2.6-5.8,3.2-9c1.1-5.3,0.7-10.8-1.3-15.9
			c-2-4.7-5.3-7.7-9.3-8.4s-8.2,0.8-11.8,4.4c-7.4,8.2-9.6,19.8-5.8,30.2c2,4.7,5.3,7.7,9.3,8.4c0.7,0.1,1.3,0.2,2,0.2
			c0.9,0,1.9-0.1,2.8-0.4l-6.5,2.5l-13.4,49.7l-17.6,5.8v14.5l0.3,0.3c0.7,0.6,18,14.2,29.1,14.3c0.3,0,0.5,0,0.8,0
			c11.2,0,37.3-3.3,40.4-9c2.6-4.7,4.5-13.9,5-16.2c0.5-0.2,0.8-0.3,0.9-0.3l0.7-0.3l-0.1-0.7C383.6,299.4,371.5,283,371,282.3
			 M363.8,284.5l-9,3.5c1.5-0.8,3-1.9,4.2-3.1c1.1-1.1,2-2.3,2.9-3.6L363.8,284.5z M347.5,287.6c-3.4-0.7-6.3-3.3-8-7.4
			c-3.6-9.7-1.5-20.6,5.4-28.2c2.6-2.7,5.6-4.1,8.5-4.1c0.6,0,1.1,0.1,1.7,0.2c3.4,0.7,6.3,3.3,8,7.4c3.6,9.7,1.5,20.6-5.4,28.2
			C354.6,286.8,350.9,288.2,347.5,287.6 M383.7,366.4c-2.6,4.7-28.2,8.3-39.7,8.1c-9.6-0.2-25.2-11.8-27.7-13.7v-12.4l16.5-5.4
			l7.1,3.5l13.3-4.8l0.6,10.1c-8.9-3-18.3-4.8-27.7-5.4l-0.1,1.8c9.5,0.5,18.9,2.4,27.9,5.5l0.1,1.8l0.6,0.2
			c2.7,0.6,5.4,0.9,8.1,0.9c9.9,0,20.6-3.2,25.5-4.9C387.6,355,385.8,362.4,383.7,366.4 M343.4,343.4c3.9-6.2,6.9-14.7,8.6-20.1
			l1,16.6L343.4,343.4z M355.7,354.2l-2.8-45.5l-1.8,0.1l0.6,9.1h0c-0.1,0.9-4.7,17.7-11.1,26.5l-0.6,0.2l-6.1-3L347,293l23-9
			c2.1,3.2,12.7,21,19.8,65.3C386.2,350.6,368.2,356.9,355.7,354.2"/>
		<path id="Path_2616" d="M454.9,114.8l-3.2,41.9c-0.2-3.3-0.4-6.1-0.6-8.5c0-0.1-1.5-14.9-3.4-15.6c-0.2-0.1-0.6-0.2-4.8,1.3
			l-0.8-3.5c1.4-1.1,2.7-2.4,3.7-3.9c3.1-4.6,4.8-10,4.9-15.5c0.4-12.3-6.2-22.6-14.7-22.8s-15.7,9.6-16,21.9
			c-0.3,5.5,1.1,11,3.9,15.8c2.6,4.1,6.1,6.5,9.9,6.9l0.1,4.4c-1.4,0.5-2.9,1.1-4.5,1.8l-0.6,0.2l0,0.6c1,29.4-4.8,48.2-6.1,51.8
			l-35.7,0.7l6.9,57.8l-24.8,1.7l8.5,8.8c-2,0.8-3.4,1.4-3.9,1.6l-2,0.8l16.5,6.7l12.3-14.2h0.5l1.1-37.9l0.7,0l4.3,51.9h5.8v-23.7
			l33.9-1l1.2,23.9h8.4v-53.7l2.9-0.1v-11.9l-2.8-0.1l12.6-88.2L454.9,114.8z M425.4,124.9c-2.6-4.5-3.9-9.6-3.7-14.8
			c0.3-11.3,6.7-20.4,14.2-20.2c7.5,0.2,13.3,9.6,13,21c0,5.2-1.6,10.3-4.5,14.6c-2.7,3.7-6.1,5.7-9.7,5.6S427.9,128.8,425.4,124.9
			 M441.2,134.5c-1.5,0.5-3.3,1.2-5.5,2.1l-0.1-3.7c1.7-0.1,3.4-0.6,4.9-1.4L441.2,134.5z M430.7,140.4c6.8-2.7,14.3-5.4,16.3-6
			c1.1,3,5.2,21.6,2.2,54.3c-1.9,0.2-7.3,0.9-12.7,1.5l7.7-32.7l-1.7-0.4l-10.7,45.3l-17.4-0.5c0.1-0.6,0.3-1.1,0.4-1.4l13.8-1.3
			l8.9-53.7l-1.7-0.3l-7.7,46c-1.3,0.2-2.5,0.3-3.3,0.4C426.3,186.5,431.6,168.2,430.7,140.4 M449.2,190.4l-0.9,12.3l-14.6-0.4
			l2.5-10.4C441.5,191.4,447,190.7,449.2,190.4 M373.2,253.3l21.1-1.4l0.3,2.1c-2.6,0.8-9.8,3.7-15,5.9L373.2,253.3z M387.9,267.7
			l-11.4-4.6c7.5-3.1,17.5-7.2,19.1-7.5h2.8L387.9,267.7z M399.5,253.8h-3.2l-7.1-59.8l33-0.7l-0.1,0.2l1.5-0.2c0,0,1.7-0.2,4.2-0.5
			l-0.8,4.5l-13.6,1.3l-0.2,0.6c0,0-0.3,1.1-0.6,2.4l-16.7-0.5l1.2,16.6l3.4-0.2L399.5,253.8z M411.3,267.8h-2.4l-4.2-50.3l6.6-0.3
			L411.3,267.8z M413.1,244.1v-4.7h33.6l0.2,3.6L413.1,244.1z M413.1,237.7v-20.5l32.4-1.6l1.1,22.1L413.1,237.7z M454.9,267h-5
			l-2.7-51.5l7.6-0.4L454.9,267z M457.8,204.8v8.5l-59.1,2.8l-0.9-12.9l35.4,1l0.1,0v0l14.9,0.4l0,0.3h8.4l0-0.1L457.8,204.8z
			 M455,203l-5-0.1l6.6-86.3h10.8L455,203z"/>
		<path id="Path_2617" d="M215.7,361.8v-14.5l-17.6-5.8l-13.4-49.7l-7.4-2.9c1.3,0.5,2.6,0.7,3.9,0.7c0.7,0,1.3-0.1,2-0.2
			c8.1-1.6,12.9-12.5,10.6-24.3c-0.9-5.4-3.4-10.3-7.1-14.3c-3.6-3.6-7.8-5.2-11.8-4.4s-7.3,3.8-9.3,8.4c-2,5.1-2.5,10.6-1.3,15.9
			c0.6,3.2,1.7,6.2,3.2,9l-2.6,4.3l-5.2-2.1l-0.4,0.5c-0.5,0.7-12.6,17.1-20.7,67.4l-0.1,0.7l0.7,0.3c0.1,0,0.4,0.2,0.9,0.3
			c0.5,2.4,2.4,11.5,5,16.2c3.2,5.7,29.2,9,40.4,9c0.3,0,0.6,0,0.8,0c11-0.2,28.3-13.8,29.1-14.3L215.7,361.8z M166,270.3
			c-1.1-5-0.6-10.1,1.2-14.9c1.8-4.1,4.6-6.8,8-7.4l0,0c0.5-0.1,1.1-0.2,1.7-0.2c2.9,0,5.9,1.4,8.5,4.1c3.5,3.7,5.8,8.4,6.6,13.4
			c2.1,10.9-2.1,20.9-9.2,22.3S168,281.2,166,270.3 M168.5,281.4c2,3.2,4.8,5.7,8.2,7.2l-10.2-4L168.5,281.4z M160.2,284l23,9
			l13.1,48.6l-6.1,3l-0.5-0.2c-6.4-8.8-11-25.7-11.1-26.6l-0.1,0l0.6-9.1l-1.8-0.1l-2.8,45.5c-12.5,2.7-30.5-3.5-34.1-4.9
			C147.6,305.1,158.1,287.2,160.2,284 M186.9,343.5l-9.8-3.5l1-16.9C179.9,328.6,183,337.2,186.9,343.5 M213.9,360.9
			c-2.5,1.9-18,13.5-27.7,13.7c-11.5,0.2-37.1-3.5-39.7-8.1c-2.2-4-3.9-11.4-4.6-14.7c5,1.7,15.6,4.9,25.5,4.9
			c2.7,0,5.5-0.3,8.1-0.9l0.6-0.2l0.1-1.7c9-3.2,18.4-5,27.9-5.5l-0.1-1.8c-9.4,0.5-18.8,2.3-27.7,5.4l0.6-10.2l13.3,4.8l7.1-3.5
			l16.5,5.4L213.9,360.9z"/>
		<path id="Path_2618" d="M159,256.8l-2-0.8c-0.5-0.2-1.9-0.8-3.9-1.6l8.5-8.8l-24.8-1.7l7-57.8l-35.7-0.7
			c-1.2-3.4-7.1-22.3-6.1-51.9l0-0.6l-0.6-0.2c-1.7-0.7-3.2-1.2-4.5-1.8l0.1-4.3c8.1-0.9,14.2-10.8,13.9-22.8
			c-0.1-5.5-1.7-11-4.9-15.5c-3-4.2-7-6.5-11.2-6.4c-4.2,0.1-8,2.6-10.8,7c-2.8,4.8-4.2,10.3-3.9,15.8c0.3,8.5,3.7,15.8,8.6,19.4
			l-0.8,3.4c-4.2-1.5-4.6-1.4-4.8-1.3c-1.9,0.6-3.4,15.4-3.4,15.6c-0.2,2.2-0.4,4.9-0.6,7.8L76,108.5H61.6l12.6,88.2l-2.9,0.1v11.9
			l3,0.1v53.7h8.4l1.2-23.9l33.9,1v23.7h5.7l4.3-51.9l0.7,0l1.2,37.9h0.4l12.3,14.2L159,256.8z M157.8,247l-6.3,6.6
			c-5.2-2.1-12.4-5.1-15.1-5.9l0.3-2.1L157.8,247z M82,104.7c-0.3-5.2,1-10.3,3.7-14.8c2.5-3.9,5.8-6.1,9.3-6.2
			c3.5-0.1,7,1.9,9.7,5.6c2.9,4.3,4.5,9.4,4.5,14.6c0.3,11.3-5.5,20.8-13,21S82.3,116,82,104.7 M95.3,126.6l-0.1,3.6
			c-2.2-0.8-4-1.5-5.5-2l0.7-3C91.9,126,93.5,126.5,95.3,126.6 M83.9,128c2,0.5,9.5,3.3,16.3,6c-0.9,27.8,4.4,46.1,6,51.1
			c-0.8-0.1-1.9-0.2-3.2-0.4l-7.7-46l-1.7,0.3l8.9,53.7l13.8,1.3c0.1,0.4,0.2,0.9,0.4,1.5l-17.5,0.5l-10.6-45.3l-1.7,0.4l7.7,32.6
			c-5.4-0.6-10.8-1.3-12.7-1.5C78.8,149.7,82.9,131,83.9,128 M97.3,196.1l-14.5,0.4l-0.9-12.4c2.2,0.3,7.7,0.9,13,1.5L97.3,196.1z
			 M63.6,110.3h10.8l6.6,86.3l-5,0.1L63.6,110.3z M81.1,260.8h-5v-51.9l7.6,0.4L81.1,260.8z M117.9,237.9l-33.8-1l0.2-3.7h33.7
			L117.9,237.9z M117.9,231.4H84.3l1.1-22.1l32.5,1.6L117.9,231.4z M122,261.6h-2.3V211l6.5,0.3L122,261.6z M73.1,207v-8.5l1.3,0
			l0,0.1h8.4l0-0.3l14.8-0.4v0l0,0l35.4-1l-0.9,12.9L73.1,207z M130.4,211.5l3.4,0.2l1.2-16.6l-16.6,0.5c-0.3-1.4-0.6-2.5-0.6-2.5
			l-0.2-0.6l-13.6-1.3l-0.8-4.5c2.5,0.3,4.1,0.5,4.1,0.5l1.5,0.2l-0.1-0.1l33.1,0.7l-7.2,59.8h-3.1L130.4,211.5z M135.3,249.3
			c1.5,0.3,11.6,4.4,19.1,7.5l-11.4,4.6l-10.5-12.1H135.3z"/>
	</g>
</g>
</svg>
