<?xml version="1.0" encoding="utf-8"?>
<!-- Generator: Adobe Illustrator 27.9.0, SVG Export Plug-In . SVG Version: 6.00 Build 0)  -->
<svg version="1.1" id="Layer_1" xmlns="http://www.w3.org/2000/svg" xmlns:xlink="http://www.w3.org/1999/xlink" x="0px" y="0px"
	 viewBox="0 0 491 426.5" style="enable-background:new 0 0 491 426.5;" xml:space="preserve">
<style type="text/css">
	.st0{fill:none;}
	.st1{fill:none;stroke:#2CACE2;stroke-width:8;}
	.st2{fill:#FFFFFF;}
	.st3{clip-path:url(#SVGID_00000002376401590479692650000003698883348581648309_);}
	.st4{fill:#27AAE1;}
</style>
<g id="Group_401" transform="translate(-1051 -6797)">
	<g id="Ellipse_24" transform="translate(1051 6797)">
		<circle class="st0" cx="212.9" cy="212" r="195"/>
		<circle class="st1" cx="212.9" cy="212" r="191"/>
	</g>
	<g id="Group_399" transform="translate(1069 6811.624)">
		<path id="Path_3294" class="st2" d="M229.3,334.6l0.3,0.7l0.3-0.3l-0.1-0.9l-0.3-0.1L229.3,334.6z"/>
		<path id="Path_3295" class="st2" d="M120,213.8l0.3,0.7l0.3-0.3l-0.1-0.9l-0.3-0.1L120,213.8z"/>
		<g id="Group_398">
			<g>
				<g>
					<defs>
						<rect id="SVGID_1_" x="17.9" y="17" width="434" height="362.8"/>
					</defs>
					<clipPath id="SVGID_00000111171972278393590100000017185778841458892718_">
						<use xlink:href="#SVGID_1_"  style="overflow:visible;"/>
					</clipPath>
					<g id="Group_397" style="clip-path:url(#SVGID_00000111171972278393590100000017185778841458892718_);">
						<path id="Path_3296" class="st2" d="M289.3,71.2c-0.3,9.9,1.3,12.8,1.6,13.5c2.6,3,8.2,4.6,9.5,4.9h6.6
							c1.6-0.2,3.3-0.1,4.9,0.3c1,0,1.6,0.3,2,0c3.8-0.7,7.6-1.1,11.5-1.3h1.6c-11.4-14.5-25-27-40.3-37.2
							c1.1,7.3,2.6,17.2,2.6,18.8L289.3,71.2z M298.3,81.9L298.3,81.9l0.1-4.1l0.4,4L298.3,81.9 M300.9,81.9h-0.1l0.1-0.2h-0.4
							l-0.1,0.1c-0.2-0.1-0.3-0.2-0.5-0.2c-0.1,0-0.5,0.1-0.8,0.1v-4.1l-0.1-2.4l0.9,0.9l0.5-1l-0.2,0.4c-0.1,0.4-0.1,0.8-0.1,0.8
							l0.2,1.1h0.1h0.1l-0.2,0.1l0,0l0,0v0.6l0.2,0.4h0.1v3.3L300.9,81.9l0.2-3.9l0.6,3.9C301.4,81.8,301.1,81.8,300.9,81.9
							 M300.4,77.4v-1.2C300.4,76.8,300.5,77.3,300.4,77.4L300.4,77.4z M304,81.3c-0.2,0-0.5,0.1-0.6,0.1l0.3-3.7h-0.6h1.3h-0.6
							L304,81.3z M306.4,81.4v-3.3l0.6,3C306.8,81.2,306.6,81.3,306.4,81.4 M307,76.5l-0.1-1.5l0.6,0.7L307,76.5z M302.2,68.6
							l9.7,4.2l-3.5,0.4v0.7l0.3,5.3l0.1,2.3c-0.4,0-0.9,0-1.3-0.1c-0.1-0.5-0.2-1.1-0.2-1.6c-0.1-1.2-0.2-2.1-0.2-2.1l0,0
							c0-0.1,0-0.3,0-0.4l0,0l0,0l0.3,0.1l0.5-0.3l-0.3-0.3L307,77l0,0l0,0l0.9-1.3c-0.3-0.4-0.7-0.8-1.1-1.2l-0.4,0.1l0,0l0,0v-0.2
							c0.3-0.2,0.4-0.5,0.4-0.9c0-0.5-0.3-0.9-0.6-0.9c-0.3,0-0.5,0.4-0.5,0.9c0,0.3,0.2,0.6,0.4,0.8l0.1,0.2l0,0h-0.4l0,0
							c0,0,0,0,0,0.1l0,0c-0.5,0.9-0.6,2.1-0.3,3.1l0,0v0.6l0.2,0.4h0.2l0.2,2.6c-0.2,0-1-0.2-1.3-0.2c-0.2,0-0.3,0-0.5,0v-3.6
							c0,0,0-0.7,0-1.4h0.5c-0.1-0.5-0.2-1-0.5-1.5l0,0l0,0c-0.2,0-0.3-0.1-0.5-0.1l0,0l0.1-0.4c0.3-0.2,0.4-0.6,0.4-0.9
							c0-0.5-0.3-1-0.6-1c-0.3,0-0.6,0.4-0.6,1c0,0.4,0.1,0.7,0.4,0.9v0.4l0,0l0,0c-0.3,0-0.6,0-0.6,0l-0.5,1
							c-0.1,0.2-0.2,0.4-0.2,0.4c0.2,0.1,0.4,0.2,0.6,0.3c0,0.7,0,1.3,0,1.3h0.1c0,0.1,0.1,1.9,0.1,3.8h-0.1c-0.1,0-0.6,0.1-1.2,0.2
							l-0.3-4.2l0.1-1.4l0.1,0.4l0.1,1l0.3,0.1l0.1-1.2l-0.4-1.7l0,0c-0.2-0.1-0.4-0.1-0.6-0.1l0,0v-0.2c0.3-0.2,0.5-0.5,0.5-0.9
							c0-0.5-0.2-1-0.5-1s-0.6,0.4-0.6,0.9c0,0.3,0.1,0.7,0.3,0.9v0.3l0,0l0,0c-0.3,0-0.6,0-0.6,0l0,0c0,0,0,0.1,0,0.2l-0.1,0.1
							l-0.5,0.8l-0.9-1.1l-0.6,0.1l0,0l0,0v-0.1c0-0.1,0-0.2,0-0.3c0.3-0.2,0.4-0.6,0.3-1c0-0.2-0.1-0.4-0.2-0.6
							c0-0.1-0.1-0.1-0.2-0.2c-0.2-0.1-0.4-0.2-0.6,0h-0.1l0,0l-0.1,0.1l0,0l0,0l-0.1,0.1l0,0l0,0c-0.1,0.2-0.1,0.5-0.1,0.7
							c0,0.4,0.3,0.7,0.6,0.9c0,0.1,0.1,0.3,0.1,0.3l0,0l0,0l0,0c-0.3,0-0.5,0.1-0.6,0.1c-0.4,0.5-0.7,1-0.9,1.6l0.3,0.2l0.9,0.7
							l0,0l0,0v0.2l0,0l0,0h-0.6l0.1,0.4l0.5-0.2l0,0l0,0v0.3l0,0l0.2,3.7l-0.1,0.4h-3.3l-0.1-8.5l-2.9,0.1L302.2,68.6z M305.8,77.9
							L305.8,77.9L305.8,77.9L305.8,77.9l-0.1-0.1l0,0c0-0.2-0.2-1.5,0.2-1.9l0,0C305.9,76.5,305.9,77.2,305.8,77.9L305.8,77.9z
							 M297.7,76.8c0,0-0.8-0.6-0.7-0.6c0,0,0.7-0.8,0.6-0.8L297.7,76.8z"/>
						<path id="Path_3297" class="st2" d="M66.3,150l-0.1,0.6l0.3,0.7l0.3-0.3l-0.1-0.9L66.3,150z"/>
						<path id="Path_3298" class="st2" d="M339.9,248c1.6,3.3,2.3,10.5,2.3,11.2v0.7c0,3-0.3,6.9,0,8.2c1,1,3.3,3.5,5.9,6
							c6.2-13.2,10.7-27,13.5-41.3L335.9,243C337.5,244.4,338.9,246.1,339.9,248"/>
						<path id="Path_3299" class="st2" d="M302,77.6l-0.1,0.5l0.2,0.5l0.3-0.2l-0.1-0.7L302,77.6z"/>
						<path id="Path_3300" class="st2" d="M219.5,125.5l-0.1,0.6l0.3,0.7l0.3-0.3l-0.1-0.9L219.5,125.5z"/>
						<path id="Path_3301" class="st2" d="M191.2,162.1l-0.1,0.6l0.3,0.7l0.3-0.3l-0.1-0.9L191.2,162.1z"/>
						<path id="Path_3302" class="st2" d="M158.9,88.5l-0.1,0.6l0.3,0.7l0.3-0.3l-0.1-0.9L158.9,88.5z"/>
						<path id="Path_3303" class="st2" d="M85.5,92.9l-0.1,0.6l0.3,0.7l0.3-0.3L85.9,93L85.5,92.9z"/>
						<path id="Path_3304" class="st2" d="M280.4,285.2l-4.6,11.5l-4.6,10.5c0,2.3,0.3,7.9-0.3,11.5c3.3,3.6,0,7.6-2.6,10.2
							l-1.6,1.6c-4.9,5.6-8.5,9.5-9.5,11.2c-1.3,2.3-8.2,10.8-8.9,11.8l-0.7-1l-9.5,4.6l-13.8,2.6l-10.2-2.3l-8.9-9.2
							c-0.7-0.7-7.9-8.2-7.2-15.8c0.2-2.6,0.6-5.1,1.3-7.6c0.3-0.7,0.4-1.5,0.3-2.3c0.5-4.1,0.6-8.3,0.3-12.5
							c-0.2-3.9-0.6-7.7-1.3-11.5l-1.3-4.3l-11.2-5.6l-11.2-7.9l-0.3-7.6l-1.6-5.9l-2.6-5.9l-10.2-7.6L148,249l-14.1-1.3l-17.1-3.9
							c-0.3,0.3-0.7,0.3-0.7,0.7c-3,1.6-5.6-1.3-8.9-5.6c-6.2-8.2-8.5-11.8-8.5-12.2l-0.3-0.7v-0.7c-0.7-3.6-3-15.4-3-17.7
							c-0.3-2.2-0.9-4.4-1.6-6.6h-3.9c-8.5-0.7-9.9-2.3-10.2-3.9c-0.3-0.7-1.6-3.9-3-6.9l-7.2-15.1v-4.3h-2.6c1,2.3,1.6,4.9,0.7,7.6
							c-0.9,1.6-2.4,2.8-4.3,3.3c-1.7,0.4-3.2,1.2-4.6,2.3c-2,1.3-5.9,3.9-9.2,0c-2-2.6-9.2-12.8-9.2-12.8
							c-6.6-10.8-6.6-13.1-6.6-13.8c0-1.3,1-8.9,2-14.5c2.3-14.1,3-15.1,5.3-15.4c1-0.3,6.6-3,11.8-5.6c1-1.2,1.9-2.5,2.6-3.9
							c-2.6-2.7-4.9-5.6-7-8.7c-15.7,27.1-23.9,57.9-23.9,89.2c0,96.3,76.2,174.8,170.2,174.8c65.2,0,121.8-37.8,150.4-93
							c-8.5-8-8.8-9.2-9.1-10.2c-0.3-1.3-0.3-4.6,0-10.2c-0.3-2.6-1-7.2-1.6-8.9c-0.7-1.3-3.6-3.9-5.3-5.3l0,0l-45.3,18v14.2
							L280.4,285.2z"/>
						<path id="Path_3305" class="st2" d="M234.5,280.2l-0.2,0.9l0.4,1.1l0.6-0.5l-0.2-1.4L234.5,280.2z"/>
						<path id="Path_3306" class="st2" d="M131.4,146.7l-0.3,1.7l0.9,1.9l1-0.9l-0.5-2.6L131.4,146.7z"/>
						<path id="Path_3307" class="st2" d="M314.6,96.5c0-0.3-0.7-0.3-1-0.3c-0.9,0.1-1.8,0-2.6-0.3c-1,0-2-0.3-3.3-0.3
							c-2,0.2-3.9,0.2-5.9,0h-1.3c-2.3,0-10.2-2.6-14.1-6.9c-3.3-3.6-3.6-11.5-3.6-18.1v-0.7c0-1.3-1.6-12.5-3.3-22.3l1-0.1
							c-25.9-15.6-55.5-23.9-85.7-23.8c-45.7,0-87.3,18.6-117.9,48.8l5.2-1.5l1,0.3c1.3,0.7,5.3,2,6.9,2.6c1.6,0.3,8.9,0,10.5-0.7
							c1.3-1.3,5.9-5.3,9.5-5.3h2c2.6-0.4,5.3-0.3,7.9,0.3c0.7,0.3,3,0,4.3-0.3c2.6-0.3,5.3-0.7,7.2,0c4.3,1,15.1,1.3,17.1,0
							c3.3-2,13.1-6.6,13.5-6.6l0.7-0.3h8.9l0.7,0.3c0.3,0.3,10.2,5.3,12.5,6.6c2.6,1.6,8.9,9.9,6.6,14.1c-0.7,1-2,5.6-3,9.5
							l-0.3,11.2l1,0.7l11.2-3.9l12.5-7.2l10.8-6.6l16.8-1.6l4.9,4.9v9.5l-6.9,9.2l1.3,4.3l9.5,9.5l3,6.9l5.6,9.2v10.5h-32.2
							c-0.5,2.8-1.3,5.5-2.3,8.2c-0.3,1-0.3,5.9-0.3,9.9v0.7l-0.3,0.7c-0.7,2-3.6,8.2-8.2,9.2c-3.3,0.5-6.6,0.5-9.9,0l-8.9,2.6
							c-1.3,1.6-3,3.6-3.3,4.6c0.4,1.4,0.9,2.7,1.6,3.9c0.3,1,1,1.6,1.3,2.6c0.4,1.1,1,2,1.6,3c2.3,3.9,5.3,9.2,1.3,12.2
							c-0.3,0.3-1,0.7-1.3,1.3c-2.3,2-5.9,5.3-10.8,4.3c-1-0.3-2.3-0.3-3.3-0.7c-3.9-0.3-8.9-1-13.1-4.9c-4-3.3-8.3-6.3-12.8-8.9
							c-2.9-2-6.3-3-9.9-3h-4.6c-1.1-0.2-2.2,0.2-3,1c-1,0.9-1.6,2.2-1.6,3.6l2.3,10.8c1.3,3,4.6,10.2,5.6,11.8
							c3,5.3,9.9,14.1,12.5,14.5c1.6,0.3,3.6-0.3,5.6-0.7c3-0.7,7.9-2,9.9,3c1,2.3,10.2,10.5,13.1,12.5c1.7-0.3,3.3-0.7,4.9-1.3
							c-1-3.2-1-6.6,0-9.9c0.3-1,0.7-2.3,1-3.6c1.3-4.3,2.6-8.5,5.3-10.5c0.7-0.3,0.7-0.7,0.7-0.7c1.3-1.6,2.3-2.3,6.6-3.3
							c5.9-1.6,12.5-3.6,12.5-3.6h0.7c0.3,0,5.6-0.7,9.5-0.7c7.9,0,11.8,1.6,11.8,5.3c0,0.4,0.1,0.7,0.3,1c0.6,2,0.9,4.1,1,6.2
							c0,2.6,3.3,9.9,4.3,11.2c1,1,6.2,5.9,8.2,6.9c1.2,0.2,3.4,0.8,6.4,1.7l50.2-126.1c0.6-1.8,1.3-3.5,2.1-5.3l2.2-5.6l0.4,0.2
							c3.3-6.2,7.6-11.8,12.5-16.7c0.1-0.1,0.2-0.1,0.2-0.2h-1.8C324.8,95.2,322.5,95.6,314.6,96.5"/>
						<path id="Path_3308" class="st2" d="M240,242.8c-1-1.6-5.6-10.5-5.6-15.1c0-1.4-0.2-2.9-0.7-4.3c0-0.3-0.3-0.7-0.3-1
							c-1.8-0.5-3.7-0.7-5.6-0.7c-2.9,0-5.7,0.2-8.5,0.7c-1.3,0.3-6.9,2-12.2,3.6c-2.3,0.7-3,1-3.3,1c-0.5,0.8-1.2,1.5-2,2
							c-1,1-2.3,4.3-3,7.2c-0.3,1.3-0.7,2.6-1,3.6c-1,2.6-0.3,4.6,0,6.2c0.3,1,0.4,2,0.3,3c0,5.9-12.5,6.9-12.5,6.9
							c-3.3,0-15.8-11.5-18.4-16.1c-0.8,0.1-1.6,0.3-2.3,0.7c-2.6,0.9-5.5,1.1-8.2,0.7c-7.6-1.3-17.1-17.4-17.1-17.7
							c-1.3-2.3-5.6-11.8-5.9-12.8l-0.3-0.7l-2.6-12.2c0-0.7,0-5.9,4.3-9.2c2.6-2.3,3.9-2.3,7.2-2.3h4.3c7.9-0.3,13.8,3.6,13.8,3.9
							c4.7,2.8,9.2,6,13.5,9.5c3,2.6,6.2,3,9.5,3.3c1.3,0.1,2.7,0.3,3.9,0.7c1.3,0.3,3-0.7,4.9-2.6c0.4-0.4,0.8-0.7,1.3-1
							c-0.6-1.5-1.4-2.9-2.3-4.3c-0.6-1.2-1.2-2.4-2-3.6c-0.3-1-1-1.6-1.3-2.6c-1.3-2.6-2.3-4.6-2.3-6.9c0-2,2-5.3,5.3-9.5l0.7-0.7
							l12.2-3.3h0.7c2.8,0.3,5.7,0.3,8.5,0c0.7-0.3,2.3-2.6,3.3-4.6c0-6.2,0.3-10.2,1-11.8c0.3-1,1.6-5.6,2.6-9.9l0.7-2.6h30.9v-2
							l-4.9-8.2l-2.6-5.9l-9.5-9.5l-2.6-8.9l7.6-9.9v-4.3l-1-1l-12.2,1l-9.5,5.9l-13.5,7.6l-14.8,5.3l-6.9-4.6l0.3-16.1
							c0.3-1.3,2.3-7.9,3.3-10.5c-0.3-1.6-3-5.3-3.9-6.2c-1.6-1-9.2-4.9-11.5-5.9h-5.6c-2.3,1-9.5,4.6-12.2,6.2
							c-4.9,3-20,1-21.7,0.7c-1.8-0.2-3.5-0.1-5.3,0.3c-2.6,0.3-4.9,0.7-6.6,0c-1.3-0.3-4.3,0-5.9,0h-2.6c-0.7,0-3,2-4.9,3.6
							c-3,3-14.5,3-16.8,2.3c-1.6-0.7-4.9-1.6-6.6-2.3l-8.2,2.3l-0.9-3.3C64.9,85,58,93.8,52,103.2c3.2,4.4,7,9.6,8.2,10.2
							c1.1,0.5,1.8,1.5,2,2.6c0.3,1,0.7,3.6-4.9,10.5l-0.3,0.7l-0.7,0.3c-5.9,3-9.9,4.9-12.2,5.9c-1.3,4.6-3.6,21.4-3.6,24.3
							c1.4,3.6,3.3,7,5.6,10.2c0,0,5.6,7.9,8.2,11.5c0.3-0.3,0.7-0.3,1-0.7c1.6-1,3.6-2.6,6.6-3.3c0-1-1-2.6-1.3-3.6
							c-0.6-1-0.9-2.1-1-3.3c0-3.6,3-4.6,13.8-4.6h3.3v9.5l6.6,13.8c1,2,1.9,4.1,2.6,6.2c1.6,0.4,3.3,0.7,4.9,0.7H99l0.7,2.3
							c0.7,2,3,8.2,3,10.8c0,1.3,1.3,8.9,2.6,15.8c1,1.3,3.3,4.9,8.2,11.2c0.7,0.7,1,1.3,1.6,2l1.6,0.3l19.7,4.6l14.8,1.6l13.8,5.6
							l11.8,8.9l3.3,8.2l2,7.2l0.3,4.6l8.2,5.9l13.1,6.6l2,7.2c0.6,4.1,1.1,8.3,1.3,12.5c0.3,4.6,0.2,9.2-0.3,13.8
							c-0.1,1-0.3,2-0.7,3c-0.5,2.3-0.8,4.6-1,6.9c-0.3,3.9,3.9,8.9,5.3,10.5l7.6,7.9l6.9,1.6l12.2-2.3l7.2-3.3
							c2.6-3.6,6.9-9.2,7.9-10.5c1.3-2.3,4.6-6.2,10.5-12.5l1.6-1.6c0.8-0.7,1.4-1.4,2-2.3c-0.9-1.2-1.3-2.8-1-4.3
							c0.3-2.6,0.3-8.9,0.3-11.2v-0.7l5.3-11.8l4.6-11.5l2.6-5.9V266l-30.1,12l2.7-6.9l-3.4,0.4l0.1,1.5l0.5,10.6l0.2,4.6
							c-0.9,0-1.8-0.1-2.7-0.2c-0.2-1.1-0.4-2.1-0.5-3.2c-0.2-2.4-0.5-4.2-0.5-4.2l0,0c0-0.3,0.1-0.5,0.1-0.8l0,0l0,0
							c0,0,0.6,0.2,0.7,0.2s1-0.6,1-0.6l-0.5-0.6l-1.1,0.3l0,0l0,0l1.7-2.5c-0.6-0.9-1.3-1.6-2.1-2.3l-0.9,0.1l0,0l0,0v-0.5
							c0.6-0.4,0.8-1.1,0.7-1.8c-0.1-1-0.6-1.7-1.3-1.7c-0.6,0-1.1,0.9-1,1.8c0,0.6,0.3,1.2,0.9,1.6l0.1,0.5v0.1l-0.8,0.1l0,0
							c-0.1,0-0.1,0.1-0.1,0.1l0,0c-0.3,0.5-1.6,2.6-0.5,6.2h-0.1l0.1,1.2l0.5,0.8h0.3l0.5,5.2c-0.3,0-2.1-0.3-2.6-0.4
							c-0.3,0-0.6,0-0.9,0v-7.2c0,0,0-1.3,0.1-2.7l1,0.1c-0.1-1.1-0.4-2.1-0.9-3v-0.1l0,0c-0.3-0.1-0.6-0.1-1-0.1v-0.1l0.1-0.7
							c0.6-0.4,0.9-1.1,0.8-1.8c0-1.1-0.6-1.9-1.2-1.9c-0.7,0-1.2,0.9-1.2,2c0,0.7,0.3,1.4,0.8,1.8v0.7l0,0l0,0c-0.6,0-1.1,0-1.1,0
							l-0.9,2c-0.2,0.4-0.3,0.7-0.3,0.7c0.3,0.3,0.7,0.5,1.2,0.5c0,1.3-0.1,2.6-0.1,2.6h0.1c0,0.1,0.1,3.8,0.2,7.6
							c-0.1,0-0.1,0-0.2,0.1c-0.2,0.1-1.2,0.2-2.3,0.4l-0.5-8.4l0.3-2.8l0.3,0.8l0.1,2l0.5,0.1l0.1-2.3l-0.8-3.3l0,0
							c-0.4-0.2-0.8-0.3-1.3-0.3v-0.1l0.1-0.5c0.6-0.4,1-1.1,1-1.8c0.1-1.1-0.4-2-1.1-2c-0.7,0-1.2,0.8-1.3,1.9
							c-0.1,0.7,0.2,1.4,0.7,1.9v0.6l0,0l0,0c-0.7,0-1.2,0-1.2,0l0,0c0,0,0,0.2,0,0.4l-0.1,0.2l-0.9,1.5l-1.8-2.1
							c0,0-0.6,0.1-1.3,0.2l0,0l0,0v-0.2c0-0.2,0-0.4,0-0.6c0.6-0.5,0.8-1.3,0.7-2c0-0.4-0.2-0.8-0.4-1.1c-0.1-0.1-0.2-0.3-0.4-0.4
							c-0.2-0.2-0.5-0.3-0.8-0.2c-0.1,0-0.3,0.1-0.4,0.1h-0.1h0.1c-0.1,0.1-0.2,0.2-0.3,0.3l0,0l0,0c-0.1,0.1-0.1,0.2-0.2,0.3l0,0
							l0,0c-0.2,0.4-0.2,0.9-0.1,1.4c0,0.8,0.5,1.4,1.2,1.7c0.1,0.3,0.1,0.6,0.1,0.6l0,0c0,0,0,0,0,0.1l0,0
							c-0.6,0.1-1.1,0.1-1.1,0.1c-0.8,0.9-1.4,2-1.8,3.1l0.6,0.4l1.9,1.3l0,0l0,0v0.3h-0.1l0,0l-1.2-0.1l0.2,0.8l1-0.3l0,0h0.1
							l0.1,0.6l0,0l0.5,7.4l-0.1,0.7h-6.5l-0.3-16.9l-5.8,0.2l20.9-9.8l16.4,7.1l6.3-15.8c-2.3-0.7-4.2-1.2-4.8-1.4
							C248.9,252.3,240.3,242.8,240,242.8 M215.1,130.8C215.1,130.8,215,130.8,215.1,130.8l0.1-5l0.5,4.9L215.1,130.8 M218.2,130.8
							h-0.1l0.1-0.3h-0.5l-0.1,0.1c-0.2-0.1-0.4-0.2-0.6-0.2c-0.1,0-0.6,0.1-1,0.2v-4.9l-0.1-3l1.1,1.1l0.6-1.2l-0.2,0.5
							c-0.1,0.5-0.1,0.9-0.1,0.9l0.2,1.3h0.2h0.1l-0.2,0.1l0,0l0,0l-0.1,0.7l0.2,0.4h0.2v4h0.4l0.2-4.6l0.7,4.7
							C218.7,130.6,218.4,130.7,218.2,130.8 M217.6,125.3v-1.5C217.6,124.6,217.7,125.2,217.6,125.3L217.6,125.3z M222,130.1
							c-0.3,0-0.5,0.1-0.8,0.1l0.3-4.5h-0.7h1.5h-0.8L222,130.1z M224.9,130.2v-4l0.7,3.7C225.4,130,225.1,130.1,224.9,130.2
							 M225.4,122.3l0.8,0.9l-0.6,1L225.4,122.3z M219.7,114.6l11.8,5.1l-4.2,0.4v0.9l0.3,6.5l0.1,2.8c-0.5,0-1.1,0-1.6-0.1
							c-0.1-0.6-0.2-1.3-0.3-2c-0.1-1.5-0.3-2.6-0.3-2.6l0,0c0-0.2,0-0.3,0.1-0.5l0,0l0,0l0.4,0.1l0.6-0.4l-0.3-0.3l-0.7,0.2l0,0
							l0,0l1.1-1.5c-0.4-0.5-0.8-1-1.3-1.4l-0.5,0.1l0,0l0,0v-0.3c0.3-0.2,0.5-0.7,0.4-1.1c0-0.6-0.4-1.1-0.8-1s-0.7,0.5-0.6,1.1
							c0,0.4,0.2,0.8,0.5,1l0.1,0.3c0,0,0,0,0,0.1l-0.5,0.1l0,0c0,0-0.1,0,0,0.1l0,0c-0.7,1.1-0.8,2.5-0.3,3.8l0,0v0.7l0.3,0.5h0.2
							l0.3,3.2c-0.2,0-1.3-0.2-1.6-0.3c-0.2,0-0.4,0-0.6,0v-4.4c0,0,0-0.8,0.1-1.7h0.6c-0.1-0.6-0.3-1.3-0.6-1.9l0,0l0,0
							c-0.2,0-0.4-0.1-0.6-0.1l0,0l0.1-0.4c0.3-0.3,0.5-0.7,0.5-1.1c0-0.7-0.3-1.2-0.7-1.2s-0.7,0.5-0.7,1.2c0,0.4,0.2,0.8,0.5,1.1
							v0.4l0,0l0,0c-0.4,0-0.7,0-0.7,0l-0.6,1.2c-0.1,0.3-0.2,0.4-0.2,0.4c0.2,0.2,0.4,0.3,0.7,0.3c0,0.8-0.1,1.6-0.1,1.6h0.1
							c0,0.1,0.1,2.3,0.1,4.7h-0.1c-0.1,0-0.8,0.1-1.4,0.2l-0.3-5.1l0.2-1.7l0.2,0.5l0.1,1.2l0.3,0.1l0.1-1.4l-0.5-2l0,0
							c-0.2-0.1-0.5-0.2-0.8-0.2c0,0,0,0,0-0.1v-0.3c0.4-0.2,0.6-0.7,0.6-1.1c0-0.7-0.3-1.2-0.7-1.2s-0.8,0.5-0.8,1.1
							c-0.1,0.4,0.1,0.8,0.4,1.1v0.4l0,0l0,0c-0.4,0-0.8,0-0.8,0l0,0c0,0,0,0.1,0,0.2l-0.1,0.1l-0.6,0.9l-1.1-1.3c0,0-0.4,0-0.8,0.1
							l0,0l0,0v-0.1c0-0.1,0-0.2,0-0.4c0.4-0.3,0.5-0.8,0.4-1.2c0-0.2-0.1-0.5-0.3-0.7c-0.1-0.1-0.1-0.2-0.2-0.2
							c-0.1-0.1-0.3-0.2-0.5-0.1c-0.1,0-0.2,0-0.2,0.1h-0.1l0,0c-0.1,0-0.1,0.1-0.2,0.2l0,0l0,0c0,0.1-0.1,0.1-0.1,0.2l0,0l0,0
							c-0.1,0.3-0.1,0.5-0.1,0.8c0,0.5,0.3,0.9,0.8,1.1l0.1,0.4l0,0l0,0l0,0c-0.4,0-0.7,0.1-0.7,0.1c-0.5,0.6-0.9,1.2-1.1,1.9
							l0.4,0.3l1.1,0.8l0,0l0,0v0.2l0,0l0,0h-0.7l0.1,0.5l0.6-0.2l0,0l0,0v0.4l0,0c0,0,0.3,4.5,0.3,4.6l-0.1,0.4h-4l-0.2-10.3
							l-3.6,0.1L219.7,114.6z M224.1,125.9L224.1,125.9L224.1,125.9L224.1,125.9l-0.1-0.1l0,0c0-0.2-0.2-1.9,0.2-2.4l0,0
							c0,0.8-0.1,1.5-0.2,2.3L224.1,125.9z M214.3,124.5l-0.9-0.7l0.8-1L214.3,124.5z M186.8,167.4L186.8,167.4l0.1-5l0.5,4.9
							C187.1,167.3,186.8,167.4,186.8,167.4 M190,167.4h-0.1l0.1-0.3h-0.4l-0.1,0.1c-0.2-0.1-0.4-0.2-0.6-0.2c-0.1,0-0.6,0.1-1,0.2
							v-4.9l-0.1-3l1.1,1.1l0.6-1.2l-0.2,0.5c-0.1,0.5-0.1,0.9-0.1,0.9l0.2,1.3h0.2h0.1l-0.2,0.1l0,0l0,0l-0.1,0.7l0.2,0.4h0.2v4
							h0.4l0.2-4.6l0.7,4.7C190.5,167.2,190.2,167.3,190,167.4 M189.4,161.9v-1.5C189.4,161.1,189.4,161.8,189.4,161.9L189.4,161.9z
							 M193.8,166.7c-0.3,0-0.5,0.1-0.8,0.1l0.3-4.5h-0.7h1.5h-0.8L193.8,166.7z M196.7,166.7v-4l0.7,3.7
							C197.2,166.5,196.9,166.7,196.7,166.7 M197.2,158.9l0.8,0.9l-0.6,1L197.2,158.9z M191.5,151.2l11.8,5.1l-4.2,0.4v0.9l0.3,6.5
							l0.1,2.8c-0.5,0-1.1,0-1.6-0.1c-0.1-0.6-0.2-1.3-0.3-2c-0.1-1.5-0.3-2.6-0.3-2.6l0,0c0-0.2,0-0.3,0.1-0.5l0,0l0,0l0.4,0.1
							l0.6-0.4l-0.3-0.4l-0.7,0.2l0,0l0,0l1.1-1.5c-0.4-0.5-0.8-1-1.3-1.4l-0.5,0.1l0,0l0,0v-0.3c0.3-0.2,0.5-0.7,0.4-1.1
							c0-0.6-0.4-1.1-0.8-1s-0.7,0.5-0.6,1.1c0,0.4,0.2,0.8,0.5,1l0.1,0.3c0,0,0,0,0,0.1l-0.5,0.1l0,0c0,0,0,0,0,0.1l0,0
							c-0.7,1.1-0.8,2.5-0.3,3.8l0,0v0.7l0.3,0.5h0.2l0.3,3.2c-0.2,0-1.3-0.2-1.6-0.3c-0.2,0-0.4,0-0.6,0v-4.4c0,0,0-0.8,0.1-1.7
							h0.6c-0.1-0.6-0.3-1.3-0.6-1.9l0,0l0,0c-0.2,0-0.4-0.1-0.6-0.1l0,0l0.1-0.4c0.3-0.3,0.5-0.7,0.5-1.1c0-0.7-0.3-1.2-0.7-1.2
							s-0.7,0.5-0.7,1.2c0,0.4,0.2,0.8,0.5,1.1v0.4l0,0l0,0c-0.4,0-0.7,0-0.7,0l-0.6,1.2c-0.1,0.3-0.2,0.4-0.2,0.4
							c0.2,0.2,0.4,0.3,0.7,0.3c0,0.8-0.1,1.6-0.1,1.6h0.1c0,0.1,0.1,2.3,0.1,4.7h-0.1c-0.1,0-0.8,0.1-1.4,0.2l-0.3-5.1l0.2-1.7
							l0.2,0.5l0.1,1.2l0.3,0.1l0.1-1.4l-0.5-2l0,0c-0.2-0.1-0.5-0.2-0.8-0.2c0,0,0,0,0-0.1v-0.3c0.4-0.2,0.6-0.7,0.6-1.1
							c0-0.7-0.3-1.2-0.7-1.2s-0.8,0.5-0.8,1.1c-0.1,0.4,0.1,0.8,0.4,1.1v0.4l0,0l0,0c-0.4,0-0.8,0-0.8,0l0,0c0,0,0,0.1,0,0.2
							l-0.1,0.1l-0.6,0.9l-1.1-1.3c0,0-0.4,0-0.8,0.1l0,0l0,0v-0.1c0-0.1,0-0.2,0-0.4c0.4-0.3,0.5-0.8,0.4-1.2
							c0-0.2-0.1-0.5-0.3-0.7c-0.1-0.1-0.1-0.2-0.2-0.2c-0.1-0.1-0.3-0.2-0.5-0.1c-0.1,0-0.2,0-0.2,0.1h-0.1l0,0
							c-0.1,0-0.1,0.1-0.2,0.2l0,0l0,0c0,0.1-0.1,0.1-0.1,0.2l0,0l0,0c-0.1,0.3-0.1,0.5-0.1,0.8c0,0.5,0.3,0.9,0.8,1.1l0.1,0.4l0,0
							l0,0l0,0c-0.4,0-0.7,0.1-0.7,0.1c-0.5,0.6-0.9,1.2-1.1,1.9l0.4,0.3l1.1,0.8l0,0l0,0v0.2l0,0l0,0h-0.7l0.1,0.5l0.6-0.2l0,0l0,0
							v0.4l0,0c0,0,0.3,4.5,0.3,4.6l-0.1,0.4h-4l-0.2-10.3l-3.6,0.1L191.5,151.2z M195.9,162.5L195.9,162.5L195.9,162.5L195.9,162.5
							l-0.1-0.1l0,0c0-0.2-0.2-1.9,0.2-2.4l0,0c0,0.8-0.1,1.5-0.2,2.3L195.9,162.5z M186,161.1l-0.9-0.7l0.8-1L186,161.1z
							 M139.6,159.9c-0.8,0.1-1.6,0.3-2.3,0.5l0.3-13.5h-2.1l4.6-0.1l-2.2,0.1L139.6,159.9z M148.2,159.7l-0.5-11.9l2.5,10.9
							C149.6,159,148.8,159.4,148.2,159.7 M148.7,136.5l2.4,2.5l-1.6,3L148.7,136.5z M159.2,77.6l11.8,5.1l-4.2,0.4V84l0.3,6.5
							l0.1,2.8c-0.5,0-1.1,0-1.6-0.1c-0.1-0.6-0.2-1.3-0.3-2c-0.1-1.5-0.3-2.6-0.3-2.6l0,0c0-0.2,0-0.3,0.1-0.5l0,0l0,0l0.4,0.1
							l0.6-0.4l-0.3-0.4l-0.7,0.2l0,0l0,0l1.1-1.5c-0.4-0.5-0.8-1-1.3-1.4l-0.5,0.1l0,0l0,0v-0.3c0.3-0.2,0.5-0.7,0.4-1.1
							c0-0.6-0.4-1.1-0.8-1c-0.4,0-0.7,0.5-0.6,1.1c0,0.4,0.2,0.8,0.5,1l0.1,0.3c0,0,0,0,0,0.1l-0.5,0.1l0,0c0,0,0,0,0,0.1l0,0
							c-0.7,1.1-0.8,2.5-0.3,3.8l0,0v0.7l0.3,0.5h0.2l0.3,3.2c-0.2,0-1.3-0.2-1.6-0.3c-0.2,0-0.4,0-0.6,0v-4.4c0,0,0-0.8,0.1-1.7
							h0.6c-0.1-0.6-0.3-1.3-0.6-1.9l0,0l0,0c-0.2,0-0.4-0.1-0.6-0.1l0,0l0.1-0.4c0.3-0.3,0.5-0.7,0.5-1.1c0-0.7-0.3-1.2-0.7-1.2
							s-0.7,0.5-0.7,1.2c0,0.4,0.2,0.8,0.5,1.1V85l0,0l0,0c-0.4,0-0.7,0-0.7,0l-0.6,1.2c-0.1,0.3-0.2,0.5-0.2,0.5
							c0.2,0.2,0.4,0.3,0.7,0.3c0,0.8-0.1,1.6-0.1,1.6h0.1c0,0.1,0.1,2.3,0.1,4.7h-0.1c-0.1,0-0.8,0.1-1.4,0.2l-0.3-5.1l0.2-1.7
							l0.2,0.5l0.1,1.2l0.3,0.1l0.1-1.4l-0.5-2l0,0c-0.2-0.1-0.5-0.2-0.8-0.2c0,0,0,0,0-0.1v-0.3c0.4-0.2,0.6-0.7,0.6-1.1
							c0-0.7-0.3-1.2-0.7-1.2s-0.8,0.5-0.8,1.1c-0.1,0.4,0.1,0.8,0.4,1.1v0.4l0,0l0,0c-0.4,0-0.8,0-0.8,0l0,0c0,0,0,0.1,0,0.2
							l-0.1,0.1l-0.6,0.9l-1.1-1.3c0,0-0.4,0-0.8,0.1l0,0l0,0v-0.1c0-0.1,0-0.2,0-0.4c0.4-0.3,0.5-0.8,0.4-1.2
							c0-0.2-0.1-0.5-0.3-0.7c-0.1-0.1-0.1-0.2-0.2-0.2c-0.1-0.1-0.3-0.2-0.5-0.1c-0.1,0-0.2,0-0.2,0.1h-0.1l0,0
							c-0.1,0-0.1,0.1-0.2,0.2l0,0l0,0c0,0.1-0.1,0.1-0.1,0.2l0,0l0,0c-0.1,0.3-0.1,0.5-0.1,0.8c0,0.5,0.3,0.9,0.8,1.1
							c0,0.2,0.1,0.4,0.1,0.4l0,0l0,0l0,0c-0.4,0-0.7,0.1-0.7,0.1c-0.5,0.6-0.9,1.2-1.1,1.9l0.4,0.3l1.1,0.8l0,0l0,0v0.2l0,0l0,0
							h-0.7l0.1,0.5l0.6-0.2l0,0l0,0v0.4l0,0c0,0,0.3,4.5,0.3,4.6l-0.1,0.4h-4l-0.2-10.3l-3.6,0.1L159.2,77.6z M164.9,85.3l0.8,0.9
							l-0.6,1L164.9,85.3z M165,92.8c-0.2,0.1-0.5,0.2-0.7,0.3v-4L165,92.8z M163.5,88.9L163.5,88.9L163.5,88.9L163.5,88.9l-0.1-0.1
							l0,0c0-0.2-0.2-1.9,0.2-2.4l0,0c0,0.8-0.1,1.5-0.2,2.3L163.5,88.9z M161.4,93.1c-0.3,0-0.5,0.1-0.8,0.1l0.3-4.5h-0.7h1.5H161
							L161.4,93.1z M157.1,93.5l-0.1,0.1c-0.2-0.1-0.4-0.2-0.6-0.2c-0.1,0-0.6,0.1-1,0.2v-4.9l-0.1-3l1.1,1.1l0.6-1.2l-0.2,0.5
							c-0.1,0.5-0.1,0.9-0.1,0.9l0.2,1.3h0.2h0.1l-0.2,0.1l0,0l0,0l-0.1,0.7l0.2,0.4h0.2L157.1,93.5h0.4l0.2-4.6l0.7,4.7
							c-0.3,0-0.6,0.1-0.8,0.2h-0.1l0.1-0.3L157.1,93.5z M157,88.3v-1.5C157,87.5,157.1,88.2,157,88.3L157,88.3z M155.1,93.7
							l-0.6,0.1l-0.1-0.1l0.2-4.9L155.1,93.7z M153.7,87.5l-0.9-0.7l0.8-1L153.7,87.5z M61.9,155.3
							C61.9,155.3,61.9,155.2,61.9,155.3l0.1-5l0.5,4.9C62.1,155.2,61.9,155.3,61.9,155.3 M65,155.3L65,155.3V155h-0.4l-0.2,0.1
							c-0.2-0.1-0.4-0.2-0.6-0.2c-0.1,0-0.6,0.1-1,0.2v-4.9l-0.1-3l1.1,1.1l0.6-1.2l-0.2,0.5c-0.1,0.5-0.1,0.9-0.1,0.9l0.2,1.3h0.2
							h0.1l-0.2,0.1l0,0l0,0l-0.1,0.7l0.2,0.4h0.2v4h0.4l0.2-4.6l0.7,4.7C65.6,155.1,65.3,155.2,65,155.3 M64.4,149.8v-1.5
							C64.5,149,64.5,149.7,64.4,149.8L64.4,149.8z M68.8,154.6c-0.3,0-0.5,0.1-0.8,0.1l0.3-4.5h-0.7h1.5h-0.8L68.8,154.6z
							 M71.7,154.7v-4l0.7,3.7C72.2,154.4,71.9,154.6,71.7,154.7 M72.3,146.8l0.8,0.9l-0.6,1L72.3,146.8z M74.2,144.6v0.9l0.3,6.5
							l0.1,2.8c-0.5,0-1.1,0-1.6-0.1c-0.1-0.6-0.2-1.3-0.3-2c-0.1-1.5-0.3-2.6-0.3-2.6l0,0c0-0.2,0-0.3,0.1-0.5l0,0l0,0l0.4,0.1
							l0.6-0.4l-0.3-0.4l-0.7,0.2l0,0l0,0l1.1-1.5c-0.4-0.5-0.8-1-1.3-1.4l-0.5,0.1l0,0l0,0V146c0.3-0.2,0.5-0.7,0.4-1.1
							c0-0.6-0.4-1.1-0.8-1c-0.4,0-0.7,0.5-0.6,1.1c0,0.4,0.2,0.8,0.5,1l0.1,0.3c0,0,0,0,0,0.1l-0.5,0.1l0,0c0,0,0,0,0,0.1l0,0
							c-0.7,1.1-0.8,2.5-0.3,3.8l0,0v0.7l0.3,0.5h0.2l0.3,3.2c-0.2,0-1.3-0.2-1.6-0.3c-0.2,0-0.4,0-0.6,0v-4.4c0,0,0-0.8,0.1-1.7
							h0.6c-0.1-0.6-0.3-1.3-0.6-1.9l0,0l0,0c-0.2,0-0.4-0.1-0.6-0.1l0,0l0.1-0.4c0.3-0.3,0.5-0.7,0.5-1.1c0-0.7-0.3-1.2-0.7-1.2
							c-0.4,0-0.7,0.5-0.7,1.2c0,0.4,0.2,0.8,0.5,1.1v0.4l0,0l0,0c-0.4,0-0.7,0-0.7,0l-0.6,1.2c-0.1,0.3-0.2,0.4-0.2,0.4
							c0.2,0.2,0.4,0.3,0.7,0.3c0,0.8-0.1,1.6-0.1,1.6h0.1c0,0.1,0.1,2.3,0.1,4.7h-0.1c-0.5,0.1-0.9,0.2-1.4,0.2l-0.3-5.1l0.2-1.7
							l0.2,0.5l0.1,1.2l0.3,0.1l0.1-1.4l-0.5-2l0,0c-0.2-0.1-0.5-0.2-0.8-0.2c0,0,0,0,0-0.1v-0.3c0.4-0.2,0.6-0.7,0.6-1.1
							c0-0.7-0.3-1.2-0.7-1.2c-0.4,0-0.8,0.5-0.8,1.1c-0.1,0.4,0.1,0.9,0.4,1.1v0.4l0,0l0,0c-0.4,0-0.8,0-0.8,0l0,0c0,0,0,0.1,0,0.2
							l-0.1,0.1l-0.6,0.9l-1.1-1.3c0,0-0.4,0-0.8,0.1l0,0l0,0V146c0-0.1,0-0.2,0-0.4c0.4-0.3,0.5-0.8,0.4-1.2c0-0.2-0.1-0.5-0.3-0.7
							c-0.1-0.1-0.1-0.2-0.2-0.2c-0.1-0.1-0.3-0.2-0.5-0.1c-0.1,0-0.2,0-0.2,0.1h-0.1l0,0c-0.1,0-0.1,0.1-0.2,0.2l0,0l0,0
							c0,0.1-0.1,0.1-0.1,0.2l0,0l0,0c-0.1,0.3-0.1,0.5-0.1,0.8c0,0.5,0.3,0.9,0.8,1.1c0,0.2,0.1,0.4,0.1,0.4l0,0l0,0l0,0
							c-0.4,0-0.7,0.1-0.7,0.1c-0.5,0.6-0.9,1.2-1.1,1.9l0.4,0.3l1.1,0.8l0,0l0,0v0.2l0,0l0,0h-0.7l0.1,0.5l0.6-0.2l0,0l0,0l0.1,0.4
							l0,0c0,0,0.3,4.5,0.3,4.6l-0.1,0.4h-4l0.2-10.2l-3.6,0.1l12.8-6l11.8,5.1L74.2,144.6z M70.9,150.4L70.9,150.4L70.9,150.4
							L70.9,150.4l-0.1-0.1l0,0c0-0.2-0.2-1.9,0.2-2.4l0,0c0,0.8-0.1,1.5-0.2,2.3L70.9,150.4z M61.1,149l-0.9-0.7l0.8-1L61.1,149z
							 M81.1,98.1L81.1,98.1l0.1-5l0.5,4.9L81.1,98.1 M84.2,98.1L84.2,98.1v-0.3h-0.4L83.6,98c-0.2-0.1-0.4-0.2-0.6-0.2
							c-0.1,0-0.6,0.1-1,0.2v-5l-0.1-3l1.1,1.1l0.6-1.2l-0.2,0.5c-0.1,0.5-0.1,0.9-0.1,0.9l0.2,1.3h0.2h0.1l-0.2,0.1l0,0l0,0
							l-0.1,0.7l0.2,0.4h0.2v4h0.4l0.2-4.6l0.7,4.7C84.8,98,84.5,98,84.2,98.1 M83.7,92.7v-1.5C83.7,91.9,83.7,92.6,83.7,92.7
							L83.7,92.7z M88.1,97.4c-0.3,0-0.5,0.1-0.8,0.1l0.3-4.5h-0.7h1.5h-0.8L88.1,97.4z M91,97.5v-4l0.7,3.7
							C91.5,97.3,91.2,97.4,91,97.5 M91.5,89.7l0.8,0.9l-0.6,1L91.5,89.7z M92,95.6c-0.1-1.5-0.3-2.6-0.3-2.6l0,0
							c0-0.2,0-0.3,0.1-0.5l0,0l0,0l0.4,0.1l0.6-0.4l-0.3-0.3l-0.7,0.2l0,0l0,0l1.1-1.5c-0.4-0.5-0.8-1-1.3-1.4l-0.6,0l0,0l0,0v-0.3
							c0.3-0.2,0.5-0.7,0.4-1.1c0-0.6-0.4-1.1-0.8-1c-0.4,0-0.7,0.5-0.6,1.1c0,0.4,0.2,0.8,0.5,1l0.1,0.3c0,0,0,0,0,0.1l-0.5,0.1
							l0,0c0,0-0.1,0,0,0.1l0,0c-0.7,1.1-0.8,2.5-0.3,3.8l0,0V94l0.3,0.5h0.2l0.3,3.2c-0.2,0-1.3-0.2-1.6-0.3c-0.2,0-0.4,0-0.6,0V93
							c0,0,0-0.8,0.1-1.7h0.6c-0.1-0.6-0.3-1.3-0.6-1.9l0,0l0,0c-0.2,0-0.4-0.1-0.6-0.1l0,0l0.1-0.4c0.3-0.3,0.5-0.7,0.5-1.1
							c0-0.7-0.3-1.2-0.7-1.2c-0.4,0-0.7,0.5-0.7,1.2c0,0.4,0.2,0.8,0.5,1.1v0.4l0,0l0,0c-0.4,0-0.7,0-0.7,0l-0.6,1.2
							c-0.1,0.3-0.2,0.4-0.2,0.4c0.2,0.2,0.4,0.3,0.7,0.3c0,0.8-0.1,1.6-0.1,1.6h0.1c0,0.1,0.1,2.3,0.1,4.7h-0.1
							c-0.1,0-0.8,0.1-1.4,0.2l-0.3-5.1l0.2-1.7l0.2,0.5l0.1,1.2l0.3,0.1l0.1-1.4l-0.5-2l0,0c-0.2-0.1-0.5-0.2-0.8-0.2
							c0,0,0,0,0-0.1v-0.3c0.4-0.2,0.6-0.7,0.6-1.1c0-0.7-0.3-1.2-0.7-1.2c-0.4,0-0.8,0.5-0.8,1.1c-0.1,0.4,0.1,0.8,0.4,1.1V89l0,0
							l0,0c-0.4,0-0.8,0-0.8,0l0,0c0,0,0,0.1,0,0.2l-0.1,0.1l-0.6,0.9l-1.1-1.3c0,0-0.4,0-0.8,0.1l0,0l0,0v-0.1c0-0.1,0-0.2,0-0.4
							c0.4-0.3,0.5-0.8,0.4-1.2c0-0.2-0.1-0.5-0.3-0.7c-0.1-0.1-0.1-0.2-0.2-0.2c-0.1-0.1-0.3-0.2-0.5-0.1c-0.1,0-0.2,0-0.2,0.1
							h-0.1l0,0c-0.1,0-0.1,0.1-0.2,0.2l0,0l0,0c0,0.1-0.1,0.1-0.1,0.2l0,0l0,0c-0.1,0.3-0.1,0.5-0.1,0.8c0,0.5,0.3,0.9,0.8,1.1
							l0.1,0.4l0,0l0,0l0,0c-0.3,0-0.7,0.1-0.7,0.1c-0.5,0.6-0.9,1.2-1.1,1.9l0.4,0.3l1.1,0.8l0,0l0,0v0.2l0,0l0,0h-0.7l0.1,0.5
							l0.6-0.2l0,0l0,0v0.4l0,0c0,0,0.3,4.5,0.3,4.6l-0.1,0.4h-4l-0.2-10.3L73,87.9l12.8-6L97.6,87l-4.2,0.4v0.9l0.3,6.5l0.1,2.8
							c-0.5,0-1.1,0-1.6-0.1C92.1,96.9,92.1,96.2,92,95.6 M90.2,93.2L90.2,93.2L90.2,93.2L90.2,93.2L90.2,93.2L90.2,93.2
							c-0.1-0.3-0.3-2,0.1-2.5l0,0c0,0.8-0.1,1.5-0.2,2.3L90.2,93.2z M80.3,91.9l-0.9-0.7l0.8-1L80.3,91.9z M104.2,133l-10.5,0.9
							l37.1-19.5l35.7,13.5l-12.4,1.9l0.2,2.7l1.8,19.2l0.7,8.4c0,0-4.6,0.2-4.8-0.2c-0.5-1.9-0.8-3.8-1.1-5.8
							c-0.6-4.4-1.2-7.6-1.2-7.7l0,0c0.1-0.5,0.1-1,0.1-1.4h0.1l0,0l1.2,0.4l1.8-1.1l-1-1l-2,0.7l0,0l0,0l2.9-4.7
							c-1.2-1.5-2.5-2.8-4-4l-1.6,0.3l0,0h0.1l-0.1-0.9c1-0.8,1.4-2,1.2-3.3c-0.2-1.8-1.3-3.1-2.5-3c-1.1,0.1-1.9,1.7-1.7,3.4
							c0.1,1.2,0.7,2.2,1.7,2.8l0.2,0.8c0,0.1,0,0.1,0,0.2l-1.4,0.2l0,0c-0.1,0.1-0.1,0.2-0.1,0.3v0.1c-0.6,0.9-2.6,4.8-0.4,11.2
							h-0.1l0.2,2.1l1,1.3h0.5l1.3,9.4c-0.6-0.1-3.8-0.4-4.7-0.6c-0.6,0-1.1,0-1.7,0.1l-0.6-13c0,0,0-2.4-0.1-4.9l1.8,0.1
							c-0.3-1.9-1-3.7-1.9-5.4c0-0.1,0-0.1,0-0.1h-0.1c-0.6-0.1-1.2-0.1-1.8-0.2v-0.1l0.2-1.3c1-0.9,1.4-2.1,1.3-3.4
							c-0.1-1.9-1.2-3.4-2.4-3.3c-1.2,0.1-2,1.7-1.9,3.7c0,1.3,0.6,2.5,1.6,3.2l0.1,1.3h0.1l0,0c-1.2,0-2.1,0.1-2.1,0.1l-1.5,3.7
							c-0.3,0.8-0.6,1.4-0.6,1.4c0.6,0.5,1.4,0.8,2.1,0.9c0,2.4,0.1,4.7,0.1,4.7h0.3c0,0.2,0.5,6.9,1,13.8c-0.1,0-0.2,0.1-0.4,0.1
							c-0.3,0.2-2.2,0.5-4.1,0.9l-1.6-15.1l0.3-5.1l0.6,1.4l0.4,3.6l1,0.2l0.1-4.2l-1.8-6l0,0c-0.7-0.2-1.5-0.4-2.3-0.4
							c0-0.1,0-0.1,0-0.2l0.1-0.9c0.9-0.4,1.6-1.7,1.6-3.4c0-2-1-3.5-2.1-3.5c-1.2,0-2.2,1.6-2.2,3.5c-0.1,1.3,0.4,2.5,1.4,3.3
							l0.1,1.1l0,0l0,0c-1.2,0-2.2,0-2.3,0l0,0c0,0.1,0,0.3,0.1,0.7l-0.2,0.4l-1.6,2.8l-3.4-3.7c0,0-1.1,0.2-2.3,0.4l0,0l0,0
							c0,0,0-0.1,0-0.3c0-0.3,0-0.7,0-1c1-0.9,1.4-2.3,1-3.7c-0.1-0.7-0.4-1.4-0.9-2c-0.2-0.3-0.4-0.5-0.7-0.7
							c-0.4-0.3-1-0.4-1.5-0.3c-0.2,0-0.5,0.1-0.7,0.3h-0.2c0,0,0.1,0,0.1,0.1c-0.2,0.1-0.3,0.3-0.4,0.5h-0.1l0,0
							c-0.1,0.2-0.2,0.4-0.3,0.5h-0.1l0,0c-0.3,0.8-0.3,1.6-0.2,2.5c0.1,1.4,1.1,2.6,2.4,3c0.1,0.5,0.3,1.1,0.3,1.1l0,0v0.1l0,0
							c-1,0.2-1.9,0.3-2,0.3c0,0-2.8,3.6-3.1,5.8l1.2,0.7l3.5,2.3v-0.1l0,0l0.1,0.6H116l0,0l0,0h-2.1l0.5,1.4l1.7-0.7v-0.1h0.1
							l0.2,1.1l0,0l1.5,13.4l-0.1,1.3l-11.8,0.6L104.2,133z M145.3,147.2L145.3,147.2v0.1V147.2l-0.3-0.4l0,0
							c-0.1-0.6-0.9-5.5,0.4-7l0,0c0.1,2.3,0,4.5-0.1,6.8L145.3,147.2z M126.8,161.9l-0.4,0.4c-0.6-0.3-1.2-0.5-1.9-0.6
							c-0.4,0.1-1.8,0.4-3,0.6l-0.7-14.6l-0.7-8.7l3.5,3.1l1.6-3.7l-0.6,1.5c-0.2,1.5-0.3,2.8-0.3,2.8l0.7,3.9l0.5-0.1l0.3-0.1
							l-0.7,0.3v-0.1l0,0l-0.1,2l0.7,1.2h0.5l0.6,11.9l1.2-0.1v-13.7l2.8,13.8c-0.8,0.2-1.7,0.4-2.5,0.7c-0.1,0.1-0.3,0.1-0.4,0.1
							l0.2-0.8L126.8,161.9z M120.8,162.6c-0.9,0.2-1.7,0.4-1.7,0.4s-0.1-0.1-0.2-0.2l-0.2-14.6L120.8,162.6z M125.6,142
							c0.2,2.2,0.4,4.1,0.5,4.4l-0.3,0.1L125.6,142z M115.9,144.5c-0.1-0.1-2.8-2-2.7-2c0.2,0,2.2-3.1,2.2-3.1L115.9,144.5z
							 M115.7,218.5L115.7,218.5l0.1-5l0.5,4.9C115.9,218.4,115.7,218.5,115.7,218.5 M118.8,218.5L118.8,218.5v-0.3h-0.4l-0.1,0.1
							c-0.2-0.1-0.4-0.2-0.6-0.2c-0.1,0-0.6,0.1-1,0.2v-4.9l-0.1-3l1.1,1.1l0.6-1.2l-0.2,0.5c-0.1,0.5-0.1,0.9-0.1,0.9l0.2,1.3h0.2
							h0.1l-0.2,0.1l0,0l0,0l-0.1,0.7l0.2,0.4h0.2v4h0.4l0.2-4.6l0.7,4.7C119.4,218.3,119.1,218.4,118.8,218.5 M118.2,213v-1.5
							C118.2,212.2,118.3,212.9,118.2,213L118.2,213z M122.6,217.8c-0.3,0-0.5,0.1-0.8,0.1l0.3-4.5h-0.7h1.5h-0.8L122.6,217.8z
							 M125.5,217.9v-4l0.7,3.7C126,217.7,125.7,217.8,125.5,217.9 M126.1,210l0.8,0.9l-0.6,1L126.1,210z M128,208.7l0.3,6.5
							l0.1,2.8c-0.5,0-1.1,0-1.6-0.1c-0.1-0.6-0.2-1.3-0.3-2c-0.1-1.5-0.3-2.6-0.3-2.6l0,0c0-0.2,0-0.3,0.1-0.5l0,0l0,0l0.4,0.1
							l0.6-0.4l-0.3-0.4l-0.7,0.2l0,0l0,0l1.1-1.5c-0.4-0.5-0.8-1-1.3-1.4l-0.5,0.1l0,0l0,0v-0.3c0.3-0.2,0.5-0.7,0.4-1.1
							c0-0.6-0.4-1.1-0.8-1s-0.7,0.5-0.6,1.1c0,0.4,0.2,0.8,0.5,1l0.1,0.3c0,0,0,0,0,0.1l-0.5,0.1l0,0c0,0-0.1,0,0,0.1l0,0
							c-0.7,1.1-0.8,2.5-0.3,3.8l0,0v0.7l0.3,0.5h0.2l0.3,3.2c-0.2,0-1.3-0.2-1.6-0.3c-0.2,0-0.4,0-0.6,0v-4.4c0,0,0-0.8,0.1-1.7
							h0.6c-0.1-0.6-0.3-1.3-0.6-1.9l0,0l0,0c-0.2,0-0.4-0.1-0.6-0.1l0,0l0.1-0.4c0.3-0.3,0.5-0.7,0.5-1.1c0-0.7-0.3-1.2-0.7-1.2
							s-0.7,0.5-0.7,1.2c0,0.4,0.2,0.8,0.5,1.1v0.4l0,0l0,0c-0.4,0-0.7,0-0.7,0l-0.6,1.2c-0.1,0.3-0.2,0.4-0.2,0.4
							c0.2,0.2,0.4,0.3,0.7,0.3c0,0.8-0.1,1.6-0.1,1.6h0.1c0,0.1,0.1,2.3,0.1,4.7h-0.1c-0.5,0.1-0.9,0.2-1.4,0.2l-0.3-5.1l0.2-1.7
							l0.2,0.5l0.1,1.2l0.3,0.1l0.1-1.4l-0.5-2l0,0c-0.2-0.1-0.5-0.2-0.8-0.2c0,0,0,0,0-0.1V209c0.4-0.2,0.6-0.7,0.6-1.1
							c0-0.7-0.3-1.2-0.7-1.2s-0.8,0.5-0.8,1.1c-0.1,0.4,0.1,0.8,0.4,1.1v0.4l0,0l0,0c-0.4,0-0.8,0-0.8,0l0,0c0,0,0,0.1,0,0.2
							l-0.1,0.1l-0.6,0.9l-1.1-1.3c0,0-0.4,0-0.8,0.1l0,0l0,0v-0.1c0-0.1,0-0.2,0-0.4c0.4-0.3,0.5-0.8,0.4-1.2
							c0-0.2-0.1-0.5-0.3-0.7c-0.1-0.1-0.1-0.2-0.2-0.2c-0.2-0.2-0.5-0.2-0.7-0.1h-0.1l0,0c-0.1,0-0.1,0.1-0.2,0.2l0,0l0,0
							c0,0.1-0.1,0.1-0.1,0.2l0,0l0,0c-0.1,0.3-0.1,0.5-0.1,0.8c0,0.5,0.3,0.9,0.8,1.1c0,0.2,0.1,0.4,0.1,0.4l0,0l0,0l0,0
							c-0.4,0-0.7,0.1-0.7,0.1c-0.5,0.6-0.9,1.2-1.1,1.9l0.4,0.3l1.1,0.8l0,0l0,0v0.2l0,0l0,0H114l0.1,0.5l0.6-0.2l0,0l0,0v0.4l0,0
							c0,0,0.3,4.5,0.3,4.6l-0.1,0.4h-4l-0.2-10.4l-3.6,0.1l12.8-6l11.8,5.1l-4.2,0.4L128,208.7z M124.7,213.6L124.7,213.6
							L124.7,213.6L124.7,213.6l-0.1-0.1l0,0c0-0.2-0.2-1.9,0.2-2.4l0,0c0,0.8-0.1,1.5-0.2,2.3L124.7,213.6z M114.9,212.2l-0.9-0.7
							l0.8-1L114.9,212.2z M245.5,276.5l-0.9,1.6l-0.3-3.1L245.5,276.5z M243.4,281.2l1.1,6c-0.4,0.2-0.8,0.4-1.2,0.5L243.4,281.2z
							 M242,280.8L242,280.8L242,280.8L242,280.8l-0.2-0.2l0,0c-0.1-0.4-0.4-3,0.4-3.8l0,0c0,1.2-0.1,2.5-0.3,3.7L242,280.8z
							 M224.6,277.4c0.1,0,1.3-1.7,1.3-1.7l0.1,2.9C225.9,278.5,224.5,277.4,224.6,277.4 M225,339.3L225,339.3l0.1-5l0.5,4.9
							C225.3,339.3,225,339.3,225,339.3 M228.2,339.3h-0.1l0.1-0.3h-0.4l-0.1,0.1c-0.2-0.1-0.4-0.2-0.6-0.2c-0.1,0-0.6,0.1-1,0.2
							v-4.9l-0.1-3l1.1,1.1l0.6-1.2l-0.2,0.5c-0.1,0.5-0.1,0.9-0.1,0.9l0.2,1.3h0.2h0.1l-0.2,0.1l0,0l0,0l-0.1,0.7l0.2,0.4h0.2v4
							h0.4l0.2-4.6l0.7,4.7C228.7,339.1,228.4,339.2,228.2,339.3 M227.6,333.8v-1.5C227.6,333.1,227.6,333.7,227.6,333.8
							L227.6,333.8z M232,338.6c-0.3,0-0.5,0.1-0.8,0.1l0.3-4.5h-0.7h1.5h-0.8L232,338.6z M234.9,338.7v-4l0.7,3.7
							C235.4,338.5,235.1,338.6,234.9,338.7 M235.4,330.9l0.8,0.9l-0.6,1L235.4,330.9z M236.7,280.3l2.5,0.1H238l0.6,7.2
							c-0.4,0.1-0.9,0.1-1.3,0.2l0.5-7.4L236.7,280.3z M231.4,277.4c0.1,1.2,0.1,2.3,0.1,2.4h-0.1V277.4z M230.3,277.5l1-2l-0.4,0.8
							c-0.1,0.8-0.2,1.5-0.2,1.5l0.3,2.2h0.3h0.1H231l0,0l0,0l-0.1,1.1l0.4,0.7h0.3v6.6h0.7l0.4-7.5l1.2,7.6
							c-0.5,0.1-0.9,0.2-1.4,0.3c-0.1,0-0.1,0-0.2,0.1l0.1-0.4h-0.7l-0.2,0.2c-0.3-0.2-0.7-0.3-1-0.4c-0.2,0-1,0.2-1.6,0.3v-8
							l-0.1-4.8L230.3,277.5z M227.4,280.6l0.8,8c-0.5,0.1-0.9,0.2-0.9,0.2s0,0-0.1-0.1L227.4,280.6z M229.7,323.1l11.8,5.1
							l-4.2,0.4v0.9l0.3,6.5l0.1,2.8c-0.5,0-1.1,0-1.6-0.1c-0.1-0.6-0.2-1.3-0.3-2c-0.1-1.5-0.3-2.6-0.3-2.6l0,0
							c0-0.2,0-0.3,0.1-0.5l0,0l0,0l0.4,0.1l0.6-0.4l-0.3-0.4l-0.7,0.2l0,0l0,0l1.1-1.5c-0.4-0.5-0.8-1-1.3-1.4l-0.5,0.1l0,0l0,0
							V330c0.3-0.2,0.5-0.7,0.4-1.1c0-0.6-0.4-1.1-0.8-1s-0.7,0.5-0.6,1.1c0,0.4,0.2,0.8,0.5,1l0.1,0.3c0,0,0,0,0,0.1l-0.5,0.1l0,0
							c0,0-0.1,0,0,0.1l0,0c-0.7,1.1-0.8,2.5-0.3,3.8l0,0v0.7l0.3,0.5h0.2l0.3,3.2c-0.2,0-1.3-0.2-1.6-0.3c-0.2,0-0.4,0-0.6,0v-4.4
							c0,0,0-0.8,0.1-1.7h0.6c-0.1-0.6-0.3-1.3-0.6-1.9l0,0l0,0c-0.2,0-0.4-0.1-0.6-0.1l0,0l0.1-0.4c0.3-0.3,0.5-0.7,0.5-1.1
							c0-0.7-0.3-1.2-0.7-1.2s-0.7,0.5-0.7,1.2c0,0.4,0.2,0.8,0.5,1.1v0.4l0,0l0,0c-0.4,0-0.7,0-0.7,0l-0.6,1.2
							c-0.1,0.3-0.2,0.4-0.2,0.4c0.2,0.2,0.4,0.3,0.7,0.3c0,0.8-0.1,1.6-0.1,1.6h0.1c0,0.1,0.1,2.3,0.1,4.7h-0.1
							c-0.5,0.1-0.9,0.2-1.4,0.2l-0.3-5.1l0.2-1.7l0.2,0.5l0.1,1.2l0.3,0.1l0.1-1.4l-0.5-2l0,0c-0.2-0.1-0.5-0.2-0.8-0.2
							c0,0,0,0,0-0.1v-0.3c0.4-0.2,0.6-0.7,0.6-1.1c0-0.7-0.3-1.2-0.7-1.2s-0.8,0.5-0.8,1.1c-0.1,0.4,0.1,0.8,0.4,1.1v0.4l0,0l0,0
							c-0.4,0-0.7,0-0.8,0l0,0c0,0,0,0.1,0,0.2l-0.1,0.1l-0.6,0.9l-1.1-1.3c0,0-0.4,0-0.8,0.1l0,0l0,0V330c0-0.1,0-0.2,0-0.4
							c0.4-0.3,0.5-0.8,0.4-1.2c0-0.2-0.1-0.5-0.3-0.7c-0.1-0.1-0.1-0.2-0.2-0.2c-0.1-0.1-0.3-0.2-0.5-0.1c-0.1,0-0.2,0-0.2,0.1
							h-0.1l0,0c-0.1,0-0.1,0.1-0.2,0.2l0,0l0,0c0,0.1-0.1,0.1-0.1,0.2l0,0l0,0c-0.1,0.3-0.1,0.5-0.1,0.8c0,0.5,0.3,0.9,0.8,1.1
							c0,0.2,0.1,0.4,0.1,0.4l0,0l0,0l0,0c-0.4,0-0.7,0.1-0.7,0.1c-0.5,0.6-0.9,1.2-1.1,1.9l0.4,0.3l1.1,0.8l0,0l0,0v0.2l0,0l0,0
							h-0.7l0.1,0.5l0.6-0.2l0,0l0,0v0.4l0,0c0,0,0.3,4.5,0.3,4.6l-0.1,0.4h-4l-0.2-10.4l-3.6,0.1L229.7,323.1z M234.1,334.4
							l-0.1-0.1l0,0c0-0.2-0.2-1.9,0.2-2.4l0,0c0,0.8-0.1,1.5-0.2,2.3L234.1,334.4z M234.1,334.4L234.1,334.4L234.1,334.4
							L234.1,334.4z M224.2,333l-0.9-0.7l0.8-1L224.2,333z"/>
						<path id="Path_3309" d="M361.5,232.8c-2.8,14.3-7.3,28.1-13.5,41.3c1,1,2,1.9,3,2.9l-4.3,4.9c-0.6-0.6-1.2-1.1-1.8-1.7
							c-28.6,55.2-85.2,93-150.4,93c-94,0-170.2-78.5-170.2-174.8c-0.1-31.3,8.2-62.1,23.9-89.2c-0.7-1-1.4-2-2.2-3.2l5.3-3.9
							L52,103c6-9.4,12.8-18.2,20.5-26.3l-0.8-2.9l5-1.5c30.6-30.2,72.1-48.8,117.9-48.8c30.2,0,59.9,8.2,85.7,23.8l5.6-0.8
							c0.2,1.3,0.5,3,0.7,4.8c15.3,10.2,28.9,22.8,40.3,37.2h5.6v1.7c0.8-0.7,1.6-1.3,2.5-1.9C302.8,45.1,251.9,17,194.7,17
							C97.1,17,17.9,98.5,17.9,198.4s79.2,181.4,176.8,181.4c87.1,0,159.5-64.9,174.1-149.8L361.5,232.8z"/>
						<path id="Path_3310" d="M244.9,240.5c-1-1.3-4.3-8.5-4.3-11.2c-0.1-2.1-0.4-4.2-1-6.2c-0.3-0.3-0.4-0.6-0.3-1
							c0-3.6-3.9-5.3-11.8-5.3c-3.9,0-9.2,0.7-9.5,0.7h-0.7c0,0-6.6,2-12.5,3.6c-4.3,1-5.3,1.6-6.6,3.3c0,0,0,0.3-0.7,0.7
							c-2.6,2-3.9,6.2-5.3,10.5c-0.3,1.3-0.7,2.6-1,3.6c-1,3.2-1,6.7,0,9.9c-1.6,0.6-3.2,1-4.9,1.3c-3-2-12.2-10.2-13.1-12.5
							c-2-4.9-6.9-3.6-9.9-3c-2,0.3-3.9,1-5.6,0.7c-2.6-0.3-9.5-9.2-12.5-14.5c-1-1.6-4.3-8.9-5.6-11.8l-2.3-10.8
							c0-1.4,0.6-2.7,1.6-3.6c0.8-0.8,1.9-1.2,3-1h4.6c3.5,0,6.9,1,9.9,3c4.5,2.6,8.8,5.6,12.8,8.9c4.3,3.9,9.2,4.6,13.1,4.9
							c1,0.3,2.3,0.3,3.3,0.7c4.9,1,8.5-2.3,10.8-4.3c0.3-0.7,1-1,1.3-1.3c3.9-3,1-8.2-1.3-12.2c-0.7-0.9-1.2-1.9-1.6-3
							c-0.3-1-1-1.6-1.3-2.6c-0.7-1.2-1.3-2.6-1.6-3.9c0.3-1,2-3,3.3-4.6l8.9-2.6c3.3,0.5,6.6,0.5,9.9,0c4.6-1,7.6-7.2,8.2-9.2
							l0.3-0.7v-0.7c0-3.9,0-8.9,0.3-9.9c1-2.7,1.8-5.4,2.3-8.2h32.2v-10.5l-5.6-9.2l-3-6.9l-9.5-9.5l-1.3-4.3l6.9-9.2V89l-4.9-4.9
							l-16.8,1.6l-10.8,6.6l-12.5,7.2l-11.2,3.9l-1-0.7l0.3-11.2c1-3.9,2.3-8.5,3-9.5c2.3-4.3-3.9-12.5-6.6-14.1
							c-2.3-1.3-12.2-6.2-12.5-6.6l-0.7-0.3h-8.9l-0.7,0.3c-0.3,0-10.2,4.6-13.5,6.6c-2,1.3-12.8,1-17.1,0c-2-0.7-4.6-0.3-7.2,0
							c-1.3,0.3-3.6,0.7-4.3,0.3c-2.6-0.6-5.3-0.7-7.9-0.3h-2c-3.6,0-8.2,3.9-9.5,5.3c-1.6,0.7-8.9,1-10.5,0.7
							c-1.6-0.7-5.6-2-6.9-2.6l-1-0.3l-5.2,1.5l-5,1.5l0.8,2.9l0.9,3.3l8.2-2.3c1.6,0.7,4.9,1.6,6.6,2.3c2.3,0.7,13.8,0.7,16.8-2.3
							c2-1.6,4.3-3.6,4.9-3.6h2.6c1.6,0,4.6-0.3,5.9,0c1.6,0.7,3.9,0.3,6.6,0c1.7-0.4,3.5-0.5,5.3-0.3c1.6,0.3,16.8,2.3,21.7-0.7
							c2.6-1.6,9.9-5.3,12.2-6.2h5.6c2.3,1,9.9,4.9,11.5,5.9c1,1,3.6,4.6,3.9,6.2c-1,2.6-3,9.2-3.3,10.5l-0.3,16.1l6.9,4.6l14.8-5.3
							l13.5-7.6l9.5-5.9l12.2-1l1,1v4.3l-7.6,9.9l2.6,8.9l9.5,9.5l2.6,5.9l4.9,8.2v2h-30.9l-0.7,2.6c-1,4.3-2.3,8.9-2.6,9.9
							c-0.7,1.6-1,5.6-1,11.8c-1,2-2.6,4.3-3.3,4.6c-2.8,0.3-5.7,0.3-8.5,0h-0.7l-12.2,3.3l-0.7,0.7c-3.3,4.3-5.3,7.6-5.3,9.5
							c0,2.3,1,4.3,2.3,6.9c0.3,1,1,1.6,1.3,2.6c0.7,1.2,1.4,2.4,2,3.6c0.9,1.4,1.7,2.8,2.3,4.3c-0.5,0.2-0.9,0.6-1.3,1
							c-2,2-3.6,3-4.9,2.6c-1.3-0.4-2.6-0.6-3.9-0.7c-3.3-0.3-6.6-0.7-9.5-3.3c-4.3-3.5-8.8-6.7-13.5-9.5c0-0.3-5.9-4.3-13.8-3.9
							H142c-3.3,0-4.6,0-7.2,2.3c-4.3,3.3-4.3,8.5-4.3,9.2l2.6,12.2l0.3,0.7c0.3,1,4.6,10.5,5.9,12.8c0,0.3,9.5,16.4,17.1,17.7
							c2.8,0.5,5.6,0.2,8.2-0.7c0.7-0.4,1.5-0.6,2.3-0.7c2.6,4.6,15.1,16.1,18.4,16.1c0,0,12.5-1,12.5-6.9c0.1-1-0.1-2-0.3-3
							c-0.3-1.6-1-3.6,0-6.2c0.3-1,0.7-2.3,1-3.6c0.7-3,2-6.2,3-7.2c0.8-0.5,1.5-1.2,2-2c0.3,0,1-0.3,3.3-1
							c5.3-1.6,10.8-3.3,12.2-3.6c2.8-0.5,5.7-0.7,8.5-0.7c1.9-0.1,3.8,0.2,5.6,0.7c0,0.3,0.3,0.7,0.3,1c0.4,1.4,0.7,2.8,0.7,4.3
							c0,4.6,4.6,13.5,5.6,15.1c0.3,0,8.9,9.5,12.8,9.5c0.7,0.2,2.5,0.7,4.8,1.4l1.9-4.6c-3-0.9-5.1-1.5-6.4-1.7
							C251.2,246.4,245.9,241.4,244.9,240.5"/>
						<path id="Path_3311" d="M275.5,281.2l-4.6,11.5l-5.3,11.8v0.7c0,2.3,0,8.5-0.3,11.2c-0.3,1.5,0.1,3,1,4.3
							c-0.5,0.9-1.2,1.6-2,2.3l-1.6,1.6c-5.9,6.2-9.2,10.2-10.5,12.5c-1,1.3-5.3,6.9-7.9,10.5l-7.2,3.3l-12.2,2.3l-6.9-1.6l-7.6-7.9
							c-1.3-1.6-5.6-6.6-5.3-10.5c0.2-2.3,0.5-4.6,1-6.9c0.4-0.9,0.6-1.9,0.7-3c0.5-4.6,0.6-9.2,0.3-13.8c-0.2-4.2-0.7-8.3-1.3-12.5
							l-2-7.2l-13.1-6.6l-8.2-5.9l-0.3-4.6l-2-7.2l-3.3-8.2l-11.8-8.9l-13.8-5.6l-14.8-1.6l-19.7-4.6l-1.6-0.3c-0.7-0.7-1-1.3-1.6-2
							c-4.9-6.2-7.2-9.9-8.2-11.2c-1.3-6.9-2.6-14.5-2.6-15.8c0-2.6-2.3-8.9-3-10.8l-0.7-2.3h-8.2c-1.7,0-3.3-0.2-4.9-0.7
							c-0.8-2.1-1.6-4.2-2.6-6.2l-6.6-13.8V164h-3.3c-10.8,0-13.8,1-13.8,4.6c0.1,1.2,0.4,2.3,1,3.3c0.3,1,1.3,2.6,1.3,3.6
							c-3,0.7-4.9,2.3-6.6,3.3c-0.3,0.3-0.7,0.3-1,0.7c-2.6-3.6-8.2-11.5-8.2-11.5c-2.3-3.2-4.1-6.6-5.6-10.2c0-3,2.3-19.7,3.6-24.3
							c2.3-1,6.2-3,12.2-5.9l0.7-0.3l0.3-0.7c5.6-6.9,5.3-9.5,4.9-10.5c-0.2-1.2-0.9-2.1-2-2.6c-1.2-0.6-5-5.8-8.2-10.2l-0.7-0.9
							l-5.3,3.9c0.8,1.1,1.5,2.2,2.2,3.2c2.1,3.1,4.5,6,7,8.7c-0.7,1.4-1.6,2.7-2.6,3.9c-5.3,2.6-10.8,5.3-11.8,5.6
							c-2.3,0.3-3,1.3-5.3,15.4c-1,5.6-2,13.1-2,14.5c0,0.7,0,3,6.6,13.8c0,0,7.2,10.2,9.2,12.8c3.3,3.9,7.2,1.3,9.2,0
							c1.4-1.1,2.9-1.9,4.6-2.3c1.8-0.4,3.4-1.6,4.3-3.3c1-2.6,0.3-5.3-0.7-7.6h2.6v4.3l7.2,15.1c1.3,3,2.6,6.2,3,6.9
							c0.3,1.6,1.6,3.3,10.2,3.9h3.9c0.8,2.1,1.3,4.3,1.6,6.6c0,2.3,2.3,14.1,3,17.7v0.7l0.3,0.7c0,0.3,2.3,3.9,8.5,12.2
							c3.3,4.3,5.9,7.2,8.9,5.6c0-0.3,0.3-0.3,0.7-0.7l17.1,3.9L148,249l12.2,4.9l10.2,7.6l2.6,5.9l1.6,5.9l0.3,7.6l11.2,7.9
							l11.2,5.6l1.3,4.3c0.7,3.8,1.1,7.6,1.3,11.5c0.3,4.2,0.2,8.3-0.3,12.5c0.1,0.8,0,1.6-0.3,2.3c-0.7,2.5-1.1,5-1.3,7.6
							c-0.7,7.6,6.6,15.1,7.2,15.8l8.9,9.2l10.2,2.3l13.8-2.6l9.5-4.6l0.7,1c0.7-1,7.6-9.5,8.9-11.8c1-1.6,4.6-5.6,9.5-11.2l1.6-1.6
							c2.6-2.6,5.9-6.6,2.6-10.2c0.7-3.6,0.3-9.2,0.3-11.5l4.6-10.5l4.6-11.5l3.3-7.2V264l-5.6,2.2v9.3L275.5,281.2z"/>
						<path id="Path_3312" d="M334.3,251c0.7,1.6,1.3,6.2,1.6,8.9c-0.3,5.6-0.3,8.9,0,10.2c0.3,0.9,0.6,2.1,9.1,10.2
							c0.6,0.5,1.1,1.1,1.8,1.7l4.3-4.9c-1-0.9-2-1.9-3-2.9c-2.6-2.6-4.9-5.1-5.9-6c-0.3-1.3,0-5.3,0-8.2v-0.7
							c0-0.7-0.7-7.9-2.3-11.2c-1-1.9-2.4-3.6-4-5l-6.9,2.7l0,0C330.7,247,333.6,249.7,334.3,251"/>
						<path id="Path_3313" d="M327,88.7h-1.6c-3.9,0.2-7.7,0.7-11.5,1.3c-0.3,0.3-1,0-2,0c-1.6-0.5-3.3-0.6-4.9-0.3h-6.6
							c-1.3-0.3-6.9-2-9.5-4.9c-0.3-0.7-2-3.6-1.6-13.5v-1c0-1.6-1.5-11.5-2.6-18.8c-0.3-1.8-0.5-3.5-0.7-4.8l-5.6,0.8l-1,0.1
							c1.6,9.9,3.3,21,3.3,22.3v0.7c0,6.6,0.3,14.5,3.6,18.1c3.9,4.3,11.8,6.9,14.1,6.9h1.3c2,0.2,3.9,0.2,5.9,0
							c1.3,0,2.3,0.3,3.3,0.3c0.8,0.3,1.7,0.4,2.6,0.3c0.3,0,1,0,1,0.3c7.9-1,10.2-1.3,10.8-1.3h1.8c1.7-1.7,3.5-3.3,5.4-4.9v-1.7
							L327,88.7z"/>
						<path id="Path_3314" class="st4" d="M243.4,281.2l-0.1,6.5c0.4-0.1,0.8-0.3,1.2-0.5L243.4,281.2z"/>
						<path id="Path_3315" class="st4" d="M228.2,288.6l-0.8-8l-0.3,8l0.1,0.1C227.3,288.8,227.7,288.7,228.2,288.6"/>
						<path id="Path_3316" class="st4" d="M237.3,287.8c0.4-0.1,0.8-0.1,1.3-0.2l-0.6-7.2h1.2l-2.5-0.1l1.2,0.1L237.3,287.8z"/>
						<path id="Path_3317" class="st4" d="M242.3,276.8c-0.8,0.8-0.4,3.5-0.4,3.8l0,0l0.2,0.2v-0.3
							C242.2,279.3,242.2,278,242.3,276.8L242.3,276.8z"/>
						<path id="Path_3318" class="st4" d="M242.1,280.9L242.1,280.9L242.1,280.9L242.1,280.9z"/>
						<path id="Path_3319" class="st4" d="M214.1,272.1l5.8-0.2l0.3,16.9h6.5l0.1-0.7l-0.5-7.4l0,0l-0.1-0.6h-0.1l0,0l-1,0.3
							l-0.2-0.8l1.2,0.1l0,0h0.1v-0.3l0,0l0,0l-1.9-1.3l-0.6-0.4c0.4-1.1,1.1-2.2,1.8-3.1c0.1,0,0.5-0.1,1.1-0.1l0,0c0,0,0,0,0-0.1
							l0,0c0,0-0.1-0.4-0.1-0.6c-0.7-0.3-1.2-1-1.2-1.7c-0.1-0.5,0-0.9,0.1-1.4l0,0l0,0c0-0.1,0.1-0.2,0.2-0.3l0,0l0,0
							c0.1-0.1,0.2-0.2,0.3-0.3h-0.1h0.1c0.1-0.1,0.2-0.1,0.4-0.1c0.3,0,0.6,0,0.8,0.2c0.1,0.1,0.3,0.2,0.4,0.4
							c0.2,0.3,0.4,0.7,0.4,1.1c0.2,0.7-0.1,1.5-0.7,2c0,0.2,0,0.4,0,0.6v0.2l0,0l0,0c0.7-0.1,1.3-0.2,1.3-0.2l1.8,2.1l0.9-1.5
							l0.1-0.2c0-0.2,0-0.4,0-0.4l0,0c0,0,0.6,0,1.2,0l0,0l0,0v-0.6c-0.5-0.5-0.8-1.2-0.7-1.9c0.1-1.1,0.6-1.9,1.3-1.9
							s1.1,0.9,1.1,2c0,0.7-0.3,1.4-1,1.8l-0.1,0.5v0.1c0.4,0,0.9,0.1,1.3,0.3l0,0l0.8,3.3l-0.1,2.3l-0.6-0.1l-0.1-2l-0.3-0.8
							l-0.3,2.8l0.5,8.4c1.1-0.2,2.1-0.3,2.3-0.4c0.1,0,0.1-0.1,0.2-0.1c-0.1-3.8-0.2-7.5-0.2-7.6h-0.1c0,0,0-1.2,0.1-2.6
							c-0.4,0-0.8-0.2-1.2-0.5c0,0,0.1-0.3,0.3-0.7l0.9-2c0,0,0.5,0,1.1,0l0,0l0,0v-0.7c-0.6-0.4-0.9-1.1-0.8-1.8
							c0-1.1,0.5-1.9,1.2-2s1.2,0.8,1.2,1.9c0.1,0.7-0.2,1.4-0.8,1.8l-0.1,0.7v0.1c0.3,0,0.7,0.1,1,0.1l0,0v0.1c0.5,1,0.8,2,0.9,3
							l-1-0.1c0,1.4-0.1,2.7-0.1,2.7v7.2c0.3,0,0.6,0,0.9,0c0.5,0.1,2.2,0.4,2.6,0.4l-0.5-5.2H242l-0.5-0.8l-0.1-1.2h0.1
							c-1-3.6,0.2-5.7,0.5-6.2l0,0c0-0.1,0-0.1,0.1-0.1l0,0l0.8-0.1v-0.1l-0.1-0.5c-0.5-0.4-0.9-1-0.9-1.6c-0.1-1,0.4-1.8,1-1.8
							s1.2,0.7,1.3,1.7c0.1,0.7-0.2,1.4-0.7,1.8v0.5l0,0l0,0l0.9-0.1c0.8,0.7,1.5,1.4,2.1,2.3l-1.7,2.5l0,0l0,0l1.1-0.3l0.5,0.6
							l-1,0.6l-0.7-0.2l0,0l0,0c0,0.3,0,0.5-0.1,0.8l0,0c0,0,0.3,1.8,0.5,4.2c0.1,1.1,0.3,2.1,0.5,3.2c0.9,0.2,1.8,0.2,2.7,0.2
							l-0.2-4.6l-0.5-10.6l-0.1-1.5l3.4-0.4l0.6-1.6l-16.4-7.1L214.1,272.1z M234.7,282.2l-0.4-1.1l0.2-0.9l0.5,0.1l0.2,1.4
							L234.7,282.2z"/>
						<path id="Path_3320" class="st4" d="M231.4,279.9h-0.1H231v0.1L231.4,279.9z"/>
						<path id="Path_3321" class="st4" d="M231.4,277.4v2.4h0.1C231.5,279.7,231.5,278.6,231.4,277.4"/>
						<path id="Path_3322" class="st4" d="M228.6,288.5c0.7-0.1,1.4-0.2,1.6-0.3c0.4,0,0.7,0.2,1,0.4l0.2-0.2h0.7l-0.1,0.4
							c0.1,0,0.1,0,0.2-0.1c0.5-0.1,0.9-0.2,1.4-0.3l-1.2-7.6l-0.4,7.5h-0.7v-6.6H231l-0.4-0.7l0.1-1.1l0,0l-0.3-2.2
							c0,0,0.1-0.7,0.2-1.5l0.4-0.8l-1,2l-1.8-1.8l0.1,4.8L228.6,288.5z"/>
						<path id="Path_3323" class="st4" d="M224.6,277.4c-0.1,0,1.4,1.1,1.4,1.2l-0.1-2.9C225.8,275.7,224.6,277.4,224.6,277.4"/>
						<path id="Path_3324" class="st4" d="M245.5,276.5l-1.2-1.5l0.3,3.1L245.5,276.5z"/>
						<path id="Path_3325" class="st4" d="M234.9,338.7c0.2-0.1,0.5-0.2,0.7-0.3l-0.7-3.7V338.7z"/>
						<path id="Path_3326" class="st4" d="M225,339.2C225,339.3,225,339.3,225,339.2h0.6l-0.5-4.9L225,339.2z"/>
						<path id="Path_3327" class="st4" d="M230.8,334.1h0.7l-0.3,4.5c0.2,0,0.5-0.1,0.8-0.1l-0.4-4.4h0.8H230.8z"/>
						<path id="Path_3328" class="st4" d="M234.2,331.9c-0.5,0.5-0.3,2.1-0.2,2.4l0,0l0.1,0.1v-0.2
							C234.2,333.5,234.2,332.7,234.2,331.9L234.2,331.9z"/>
						<path id="Path_3329" class="st4" d="M234.1,334.5L234.1,334.5L234.1,334.5L234.1,334.5z"/>
						<path id="Path_3330" class="st4" d="M220.7,339.3h4l0.1-0.4l-0.3-4.6l0,0v-0.4l0,0l0,0l-0.6,0.2l-0.1-0.5h0.7l0,0l0,0v-0.2
							l0,0l0,0l-1.1-0.8l-0.4-0.3c0.3-0.7,0.6-1.3,1.1-1.9c0,0,0.3,0,0.7-0.1l0,0l0,0l0,0c0,0,0-0.2-0.1-0.4
							c-0.4-0.2-0.7-0.6-0.8-1.1c0-0.3,0-0.6,0.1-0.8l0,0l0,0c0-0.1,0.1-0.1,0.1-0.2l0,0l0,0c0-0.1,0.1-0.1,0.2-0.2l0,0h0.1
							c0.1,0,0.1-0.1,0.2-0.1c0.2,0,0.4,0,0.5,0.1s0.2,0.1,0.2,0.2c0.1,0.2,0.2,0.4,0.3,0.7c0.1,0.4,0,0.9-0.4,1.2
							c0,0.1,0,0.2,0,0.4v0.1l0,0l0,0c0.4-0.1,0.8-0.1,0.8-0.1l1.1,1.3l0.6-0.9l0.1-0.1c0-0.1,0-0.2,0-0.2l0,0c0,0,0.4,0,0.8,0l0,0
							l0,0V330c-0.3-0.3-0.5-0.7-0.4-1.1c0-0.7,0.4-1.2,0.8-1.1s0.7,0.6,0.7,1.2c0,0.5-0.2,0.9-0.6,1.1v0.3c0,0,0,0,0,0.1
							c0.3,0,0.5,0.1,0.8,0.2l0,0l0.5,2l-0.1,1.4L230,334l-0.1-1.2l-0.2-0.5l-0.2,1.7l0.3,5.1c0.5-0.1,0.9-0.1,1.4-0.2h0.1
							c-0.1-2.3-0.1-4.6-0.1-4.7h-0.1c0,0,0-0.8,0.1-1.6c-0.3,0-0.5-0.1-0.7-0.3c0,0,0.1-0.2,0.2-0.4l0.6-1.2c0,0,0.3,0,0.7,0l0,0
							l0,0v-0.4c-0.3-0.3-0.5-0.7-0.5-1.1c0-0.7,0.3-1.2,0.7-1.2s0.7,0.5,0.7,1.2c0,0.4-0.1,0.9-0.5,1.1l-0.1,0.4l0,0
							c0.2,0,0.4,0,0.6,0.1l0,0l0,0c0.3,0.6,0.5,1.2,0.6,1.9h-0.6c0,0.8-0.1,1.7-0.1,1.7v4.4c0.2,0,0.4,0,0.6,0
							c0.3,0.1,1.4,0.2,1.6,0.3l-0.3-3.2H234l-0.3-0.5v-0.7l0,0c-0.5-1.2-0.4-2.6,0.3-3.8l0,0v-0.1l0,0l0.5-0.1c0,0,0,0,0-0.1
							l-0.1-0.3c-0.3-0.2-0.5-0.6-0.5-1c0-0.6,0.2-1.1,0.6-1.1s0.7,0.4,0.8,1c0.1,0.4-0.1,0.8-0.4,1.1v0.3l0,0l0,0l0.5-0.1
							c0.5,0.4,0.9,0.9,1.3,1.4l-1.1,1.5l0,0l0,0l0.7-0.2l0.3,0.4L236,334l-0.4-0.1l0,0l0,0c0,0.2,0,0.3-0.1,0.5l0,0
							c0,0,0.2,1.1,0.3,2.6c0.1,0.7,0.2,1.3,0.3,2c0.5,0.1,1.1,0.1,1.6,0.1l-0.1-2.8l-0.3-6.5v-0.9l4.2-0.4l-11.8-5.1l-12.8,6
							l3.6-0.1L220.7,339.3z M229.6,335.3l-0.3-0.7l0.1-0.6l0.3,0.1l0.1,0.9L229.6,335.3z"/>
						<path id="Path_3331" class="st4" d="M227.6,333.8L227.6,333.8h-0.2l0,0H227.6z"/>
						<path id="Path_3332" class="st4" d="M227.6,332.3v1.5h0.1C227.6,333.8,227.6,333.1,227.6,332.3"/>
						<path id="Path_3333" class="st4" d="M228.1,339h-0.4v-4h-0.2l-0.2-0.4l0.1-0.7l0,0l-0.2-1.3c0,0,0.1-0.4,0.1-0.9l0.2-0.5
							l-0.6,1.2l-1.1-1.1l0.1,3v4.9c0.4-0.1,0.9-0.1,1-0.2c0.2,0,0.4,0.1,0.6,0.2l0.1-0.1L228.1,339v0.3h0.1
							c0.3-0.1,0.6-0.2,0.8-0.2l-0.7-4.7L228.1,339z"/>
						<path id="Path_3334" class="st4" d="M223.4,332.3l0.9,0.7l-0.1-1.7C224.2,331.3,223.4,332.3,223.4,332.3"/>
						<path id="Path_3335" class="st4" d="M235.4,330.9l0.2,1.9l0.6-1L235.4,330.9z"/>
						<path id="Path_3336" class="st4" d="M125.5,217.9c0.2-0.1,0.5-0.2,0.7-0.3l-0.7-3.7V217.9z"/>
						<path id="Path_3337" class="st4" d="M115.6,218.4C115.7,218.4,115.7,218.5,115.6,218.4h0.6l-0.5-4.9L115.6,218.4z"/>
						<path id="Path_3338" class="st4" d="M121.4,213.3h0.7l-0.3,4.5c0.2,0,0.5-0.1,0.8-0.1l-0.4-4.4h0.8H121.4z"/>
						<path id="Path_3339" class="st4" d="M124.9,211.1c-0.5,0.5-0.3,2.1-0.2,2.4l0,0l0.1,0.1v-0.2
							C124.8,212.6,124.9,211.9,124.9,211.1L124.9,211.1z"/>
						<path id="Path_3340" class="st4" d="M124.7,213.6L124.7,213.6L124.7,213.6L124.7,213.6z"/>
						<path id="Path_3341" class="st4" d="M120.4,202.3l-12.8,6l3.6-0.1l0.2,10.4h4l0.1-0.4l-0.3-4.6l0,0v-0.4l0,0l0,0l-0.6,0.2
							l-0.1-0.5h0.7l0,0l0,0v-0.2l0,0l0,0l-1.1-0.8l-0.4-0.3c0.3-0.7,0.6-1.3,1.1-1.9c0,0,0.3,0,0.7-0.1l0,0l0,0l0,0
							c0,0,0-0.2-0.1-0.4c-0.4-0.2-0.7-0.6-0.8-1.1c0-0.3,0-0.6,0.1-0.8l0,0l0,0c0-0.1,0.1-0.1,0.1-0.2l0,0l0,0
							c0-0.1,0.1-0.1,0.2-0.2l0,0h0.1c0.1,0,0.1-0.1,0.2-0.1c0.2,0,0.4,0,0.5,0.1s0.2,0.1,0.2,0.2c0.1,0.2,0.2,0.4,0.3,0.7
							c0.1,0.4,0,0.9-0.4,1.2c0,0.1,0,0.2,0,0.4v0.1l0,0l0,0c0.4-0.1,0.8-0.1,0.8-0.1l1.1,1.3l0.6-0.9l0.1-0.1c0-0.1,0-0.2,0-0.2
							l0,0c0,0,0.4,0,0.8,0l0,0l0,0v-0.4c-0.3-0.3-0.5-0.7-0.4-1.1c0-0.7,0.4-1.2,0.8-1.1s0.7,0.6,0.7,1.2c0,0.5-0.2,0.9-0.6,1.1
							v0.3c0,0,0,0,0,0.1c0.3,0,0.5,0.1,0.8,0.2l0,0l0.5,2l-0.1,1.4l-0.3-0.1l-0.1-1.2l-0.2-0.5l-0.2,1.7l0.3,5.1
							c0.6-0.1,1.3-0.2,1.4-0.2h0.1c-0.1-2.3-0.1-4.6-0.1-4.7h-0.1c0,0,0-0.8,0.1-1.6c-0.3,0-0.5-0.1-0.7-0.3c0,0,0.1-0.2,0.2-0.4
							l0.6-1.2c0,0,0.3,0,0.7,0l0,0l0,0v-0.4c-0.3-0.3-0.5-0.7-0.5-1.1c0-0.7,0.3-1.2,0.7-1.2s0.7,0.5,0.7,1.2
							c0,0.4-0.1,0.9-0.5,1.1l-0.1,0.4l0,0c0.2,0,0.4,0,0.6,0.1l0,0l0,0c0.3,0.6,0.5,1.2,0.6,1.9h-0.6c0,0.8-0.1,1.7-0.1,1.7v4.4
							c0.2,0,0.4,0,0.6,0c0.3,0.1,1.4,0.2,1.6,0.3l-0.3-3.2h-0.2l-0.3-0.5v-0.7l0,0c-0.5-1.2-0.4-2.6,0.3-3.8l0,0v-0.1l0,0l0.5-0.1
							c0,0,0,0,0-0.1l-0.1-0.3c-0.3-0.2-0.5-0.6-0.5-1c0-0.6,0.2-1.1,0.6-1.1s0.7,0.4,0.8,1c0.1,0.4-0.1,0.8-0.4,1.1v0.3l0,0l0,0
							l0.5-0.1c0.5,0.4,0.9,0.9,1.3,1.4l-1.1,1.5l0,0l0,0l0.7-0.2l0.3,0.4l-0.6,0.4l-0.4-0.1l0,0l0,0c0,0.2,0,0.3-0.1,0.5l0,0
							c0,0,0.2,1.1,0.3,2.6c0.1,0.7,0.2,1.3,0.3,2c0.5,0.1,1.1,0.1,1.6,0.1l-0.1-2.8l-0.3-6.5V208l4.2-0.4L120.4,202.3z
							 M120.2,214.5l-0.3-0.7l0.1-0.6l0.3,0.1l0.1,0.9L120.2,214.5z"/>
						<path id="Path_3342" class="st4" d="M118.2,213L118.2,213H118l0,0H118.2z"/>
						<path id="Path_3343" class="st4" d="M118.2,211.5v1.5h0.1C118.3,212.9,118.2,212.3,118.2,211.5"/>
						<path id="Path_3344" class="st4" d="M118.7,218.2h-0.4v-4h-0.2l-0.2-0.4l0.1-0.7l0,0l-0.2-1.3c0,0,0.1-0.4,0.1-0.9l0.2-0.5
							l-0.6,1.2l-1.1-1.1l0.1,3v4.9c0.4-0.1,0.9-0.1,1-0.2c0.2,0,0.4,0.1,0.6,0.2l0.1-0.1L118.7,218.2v0.3h0.1
							c0.3-0.1,0.6-0.2,0.8-0.2l-0.7-4.7L118.7,218.2z"/>
						<path id="Path_3345" class="st4" d="M114,211.5l0.9,0.7l-0.1-1.7C114.8,210.5,114.1,211.5,114,211.5"/>
						<path id="Path_3346" class="st4" d="M126.1,210l0.2,1.9l0.6-1L126.1,210z"/>
						<path id="Path_3347" class="st4" d="M71.7,154.6c0.2-0.1,0.5-0.2,0.7-0.3l-0.7-3.7V154.6z"/>
						<path id="Path_3348" class="st4" d="M61.8,155.2C61.9,155.2,61.9,155.3,61.8,155.2h0.6l-0.5-4.9L61.8,155.2z"/>
						<path id="Path_3349" class="st4" d="M67.6,150.1h0.7l-0.3,4.5c0.2,0,0.5-0.1,0.8-0.1l-0.4-4.4h0.8H67.6z"/>
						<path id="Path_3350" class="st4" d="M71.1,147.9c-0.5,0.5-0.3,2.1-0.2,2.4l0,0l0.1,0.1v-0.2C71,149.4,71.1,148.7,71.1,147.9
							L71.1,147.9z"/>
						<path id="Path_3351" class="st4" d="M71,150.4L71,150.4L71,150.4L71,150.4z"/>
						<path id="Path_3352" class="st4" d="M53.8,145.1l3.6-0.1l0.2,10.4h4l0.1-0.4l-0.3-4.6l0,0V150l0,0l0,0l-0.6,0.2l-0.1-0.5h0.7
							l0,0l0,0v-0.2l0,0l0,0l-1.1-0.8l-0.4-0.3c0.3-0.7,0.6-1.3,1.1-1.9c0,0,0.3,0,0.7-0.1l0,0l0,0l0,0c0,0,0-0.2-0.1-0.4
							c-0.4-0.2-0.7-0.6-0.8-1.1c0-0.3,0-0.6,0.1-0.8l0,0l0,0c0-0.1,0.1-0.1,0.1-0.2l0,0l0,0c0-0.1,0.1-0.1,0.2-0.2l0,0h0.1
							c0.1,0,0.1-0.1,0.2-0.1c0.2,0,0.4,0,0.5,0.1s0.2,0.1,0.2,0.2c0.1,0.2,0.2,0.4,0.3,0.7c0.1,0.4,0,0.9-0.4,1.2
							c0,0.1,0,0.2,0,0.4v0.1l0,0l0,0c0.4-0.1,0.8-0.1,0.8-0.1l1.1,1.3l0.6-0.9l0.1-0.1c0-0.1,0-0.2,0-0.2l0,0c0,0,0.4,0,0.8,0l0,0
							l0,0V146c-0.3-0.3-0.5-0.7-0.4-1.1c0-0.7,0.4-1.2,0.8-1.1c0.4,0,0.7,0.6,0.7,1.2c0,0.5-0.2,0.9-0.6,1.1v0.3c0,0,0,0,0,0.1
							c0.3,0,0.5,0.1,0.8,0.2l0,0l0.5,2l-0.1,1.4l-0.3-0.1l-0.1-1.2l-0.2-0.5l-0.2,1.7l0.3,5.1c0.5-0.1,0.9-0.1,1.4-0.2h0.1
							c-0.1-2.3-0.1-4.6-0.1-4.7H68c0,0,0-0.8,0.1-1.6c-0.3,0-0.5-0.1-0.7-0.3c0,0,0.1-0.2,0.2-0.4l0.6-1.2c0,0,0.3,0,0.7,0l0,0l0,0
							V146c-0.3-0.3-0.5-0.7-0.5-1.1c0-0.7,0.3-1.2,0.7-1.2c0.4,0,0.7,0.5,0.7,1.2c0,0.4-0.1,0.9-0.5,1.1l-0.1,0.4l0,0
							c0.2,0,0.4,0,0.6,0.1l0,0l0,0c0.3,0.6,0.5,1.2,0.6,1.9h-0.6c0,0.8-0.1,1.7-0.1,1.7v4.4c0.2,0,0.4,0,0.6,0
							c0.3,0.1,1.4,0.2,1.6,0.3l-0.3-3.2h-0.2l-0.3-0.5v-0.7l0,0c-0.5-1.2-0.4-2.6,0.3-3.8l0,0v-0.1l0,0l0.5-0.1c0,0,0,0,0-0.1
							l-0.1-0.3c-0.3-0.2-0.5-0.6-0.5-1c0-0.6,0.2-1.1,0.6-1.1s0.7,0.4,0.8,1c0.1,0.4-0.1,0.8-0.4,1.1v0.3l0,0l0,0l0.5-0.1
							c0.5,0.4,0.9,0.9,1.3,1.4l-1.1,1.5l0,0l0,0l0.7-0.2l0.3,0.4l-0.6,0.4l-0.4-0.1l0,0l0,0c0,0.2,0,0.3-0.1,0.5l0,0
							c0,0,0.2,1.1,0.3,2.6c0.1,0.7,0.2,1.3,0.3,2c0.5,0.1,1.1,0.1,1.6,0.1L75,152l-0.3-6.5v-0.9l4.2-0.4l-11.8-5.1L53.8,145.1z
							 M66.4,151.3l-0.3-0.7l0.1-0.6l0.3,0.1l0.1,0.9L66.4,151.3z"/>
						<path id="Path_3353" class="st4" d="M64.4,149.8L64.4,149.8h-0.2l0,0H64.4z"/>
						<path id="Path_3354" class="st4" d="M64.4,148.3v1.5h0.1C64.5,149.7,64.5,149,64.4,148.3"/>
						<path id="Path_3355" class="st4" d="M64.9,155h-0.4v-4h-0.2l-0.2-0.4l0.1-0.7l0,0l-0.2-1.3c0,0,0.1-0.4,0.1-0.9l0.2-0.5
							l-0.6,1.2l-1.1-1.1l0.1,3v4.9c0.4-0.1,0.9-0.1,1-0.2c0.2,0,0.4,0.1,0.6,0.2l0.1-0.1L64.9,155v0.3H65c0.3-0.1,0.6-0.2,0.8-0.2
							l-0.7-4.7L64.9,155z"/>
						<path id="Path_3356" class="st4" d="M60.2,148.3l0.9,0.7l-0.1-1.7C61,147.3,60.3,148.3,60.2,148.3"/>
						<path id="Path_3357" class="st4" d="M72.3,146.8l0.2,1.9l0.6-1L72.3,146.8z"/>
						<path id="Path_3358" class="st4" d="M91,97.5c0.2-0.1,0.5-0.2,0.7-0.3L91,93.5V97.5z"/>
						<path id="Path_3359" class="st4" d="M81.1,98C81.1,98.1,81.1,98.1,81.1,98h0.6l-0.5-4.9L81.1,98z"/>
						<path id="Path_3360" class="st4" d="M86.9,92.9h0.7l-0.3,4.5c0.2,0,0.5-0.1,0.8-0.1L87.7,93h0.8L86.9,92.9z"/>
						<path id="Path_3361" class="st4" d="M90.3,90.7c-0.5,0.5-0.3,2.1-0.2,2.4l0,0l0.1,0.1V93C90.3,92.3,90.3,91.5,90.3,90.7
							L90.3,90.7z"/>
						<path id="Path_3362" class="st4" d="M90.2,93.3L90.2,93.3L90.2,93.3L90.2,93.3z"/>
						<path id="Path_3363" class="st4" d="M93.8,94.8l-0.3-6.5v-0.9l4.2-0.4l-11.8-5.1l-12.8,6l3.6-0.1l0.2,10.3h4l0.1-0.4l-0.3-4.6
							l0,0v-0.4l0,0l0,0L79.8,93l-0.1-0.5h0.7l0,0l0,0v-0.2l0,0l0,0l-1.1-0.8l-0.4-0.3c0.3-0.7,0.6-1.3,1.1-1.9c0,0,0.3,0,0.7-0.1
							l0,0l0,0l0,0c0,0,0-0.2-0.1-0.4c-0.4-0.2-0.7-0.6-0.8-1.1c0-0.3,0-0.6,0.1-0.8l0,0l0,0c0-0.1,0.1-0.1,0.1-0.2l0,0l0,0
							c0-0.1,0.1-0.1,0.2-0.2l0,0h0.1c0.1,0,0.1-0.1,0.2-0.1c0.2,0,0.4,0,0.5,0.1s0.2,0.1,0.2,0.2c0.1,0.2,0.2,0.4,0.3,0.7
							c0.1,0.4,0,0.9-0.4,1.2c0,0.1,0,0.2,0,0.3V89l0,0l0,0c0.4-0.1,0.8-0.1,0.8-0.1l1.1,1.3l0.6-0.9l0.1-0.1c0-0.1,0-0.2,0-0.2l0,0
							c0,0,0.4,0,0.8,0l0,0l0,0v-0.4c-0.3-0.3-0.5-0.7-0.4-1.1c0-0.7,0.4-1.2,0.8-1.1c0.4,0,0.7,0.6,0.7,1.2c0,0.5-0.2,0.9-0.6,1.1
							V89c0,0,0,0,0,0.1c0.3,0,0.5,0.1,0.8,0.2l0,0l0.5,2l-0.1,1.4l-0.3-0.1l-0.1-1.2L85.3,91l-0.2,1.7l0.3,5.1
							c0.5-0.1,0.9-0.1,1.4-0.2h0.1c-0.1-2.3-0.1-4.6-0.1-4.7h-0.1c0,0,0-0.8,0.1-1.6c-0.3,0-0.5-0.1-0.7-0.3c0,0,0.1-0.2,0.2-0.4
							l0.6-1.2c0,0,0.3,0,0.7,0l0,0l0,0V89c-0.3-0.3-0.5-0.7-0.5-1.1c0-0.7,0.3-1.2,0.7-1.2c0.4,0,0.7,0.5,0.7,1.2
							c0,0.4-0.1,0.9-0.5,1.1v0.3l0,0c0.2,0,0.4,0,0.6,0.1l0,0l0,0c0.3,0.6,0.5,1.2,0.6,1.9h-0.6c0,0.8-0.1,1.7-0.1,1.7v4.4
							c0.2,0,0.4,0,0.6,0c0.3,0.1,1.4,0.2,1.6,0.3l-0.3-3.2h-0.2L89.8,94v-0.7l0,0c-0.5-1.2-0.4-2.6,0.3-3.8l0,0v-0.1l0,0l0.5-0.1
							c0,0,0,0,0-0.1l-0.1-0.3c-0.3-0.2-0.5-0.6-0.5-1c0-0.6,0.2-1.1,0.6-1.1s0.7,0.4,0.8,1c0.1,0.4-0.1,0.8-0.4,1.1v0.3l0,0l0,0
							l0.5-0.1c0.5,0.4,0.9,0.9,1.3,1.4L91.7,92l0,0l0,0l0.7-0.2l0.3,0.4l-0.6,0.4l-0.4-0.1l0,0l0,0c0,0.2,0,0.3-0.1,0.5l0,0
							c0,0,0.2,1.1,0.3,2.6c0.1,0.7,0.2,1.3,0.3,2c0.5,0.1,1.1,0.1,1.6,0.1L93.8,94.8z M85.7,94.1l-0.3-0.7l0.1-0.6l0.3,0.1l0.1,0.9
							L85.7,94.1z"/>
						<path id="Path_3364" class="st4" d="M83.7,92.7L83.7,92.7h-0.2l0,0H83.7z"/>
						<path id="Path_3365" class="st4" d="M83.7,91.2v1.5h0.1C83.7,92.6,83.7,91.9,83.7,91.2"/>
						<path id="Path_3366" class="st4" d="M84.2,97.8h-0.4v-4h-0.2l-0.2-0.4l0.1-0.7l0,0l-0.2-1.3c0,0,0.1-0.4,0.1-0.9l0.2-0.5
							L83,91.2l-1.1-1.1l0.1,3V98c0.4-0.1,0.9-0.1,1-0.2c0.2,0,0.4,0.1,0.6,0.2l0.1-0.1L84.2,97.8v0.3h0.1c0.3-0.1,0.6-0.2,0.8-0.2
							l-0.7-4.7L84.2,97.8z"/>
						<path id="Path_3367" class="st4" d="M79.5,91.1l0.9,0.7l-0.1-1.7L79.5,91.1"/>
						<path id="Path_3368" class="st4" d="M91.5,89.7l0.2,1.9l0.6-1L91.5,89.7z"/>
						<path id="Path_3369" class="st4" d="M164.3,93.2c0.2-0.1,0.5-0.2,0.7-0.3l-0.7-3.7V93.2z"/>
						<path id="Path_3370" class="st4" d="M154.5,93.8c0,0,0.3,0,0.6-0.1l-0.5-4.9L154.5,93.8L154.5,93.8"/>
						<path id="Path_3371" class="st4" d="M160.2,88.6h0.7l-0.3,4.5c0.2,0,0.5-0.1,0.8-0.1l-0.4-4.4h0.8H160.2z"/>
						<path id="Path_3372" class="st4" d="M163.7,86.4c-0.5,0.5-0.3,2.1-0.2,2.4l0,0l0.1,0.1v-0.2C163.6,87.9,163.7,87.2,163.7,86.4
							L163.7,86.4z"/>
						<path id="Path_3373" class="st4" d="M163.5,88.9L163.5,88.9L163.5,88.9L163.5,88.9z"/>
						<path id="Path_3374" class="st4" d="M150.1,93.8h4l0.1-0.4l-0.3-4.6l0,0v-0.4l0,0l0,0l-0.6,0.2l-0.1-0.5h0.7l0,0l0,0v-0.2l0,0
							l0,0l-1.1-0.8l-0.4-0.3c0.3-0.7,0.6-1.3,1.1-1.9c0,0,0.3,0,0.7-0.1l0,0l0,0l0,0c0,0,0-0.2-0.1-0.4c-0.4-0.2-0.7-0.6-0.8-1.1
							c0-0.3,0-0.6,0.1-0.8l0,0l0,0c0-0.1,0.1-0.1,0.1-0.2l0,0l0,0c0-0.1,0.1-0.1,0.2-0.2l0,0h0.1c0.1,0,0.1-0.1,0.2-0.1
							c0.2,0,0.4,0,0.5,0.1s0.2,0.1,0.2,0.2c0.1,0.2,0.2,0.4,0.3,0.7c0.1,0.4,0,0.9-0.4,1.2c0,0.1,0,0.2,0,0.3v0.1l0,0l0,0
							c0.4-0.1,0.8-0.1,0.8-0.1l1.1,1.3l0.6-0.9l0.1-0.1c0-0.1,0-0.2,0-0.2l0,0c0,0,0.4,0,0.8,0l0,0l0,0v-0.4
							c-0.3-0.3-0.5-0.7-0.4-1.1c0-0.7,0.4-1.2,0.8-1.1c0.4,0,0.7,0.6,0.7,1.2c0,0.5-0.2,0.9-0.6,1.1v0.3c0,0,0,0,0,0.1
							c0.3,0,0.5,0.1,0.8,0.2l0,0l0.5,2l-0.1,1.4l-0.3-0.1l-0.1-1.2l-0.2-0.5l-0.2,1.7l0.3,5.1c0.5-0.1,0.9-0.1,1.4-0.2h0.1
							c-0.1-2.3-0.1-4.6-0.1-4.7h-0.1c0,0,0-0.8,0.1-1.6c-0.3,0-0.5-0.1-0.7-0.3c0,0,0.1-0.2,0.2-0.4l0.6-1.2c0,0,0.3,0,0.7,0l0,0
							l0,0v-0.4c-0.3-0.3-0.5-0.7-0.5-1.1c0-0.7,0.3-1.2,0.7-1.2s0.7,0.5,0.7,1.2c0,0.4-0.1,0.9-0.5,1.1l-0.1,0.4l0,0
							c0.2,0,0.4,0,0.6,0.1l0,0l0,0c0.3,0.6,0.5,1.2,0.6,1.9h-0.6c0,0.8-0.1,1.7-0.1,1.7V93c0.2,0,0.4,0,0.6,0
							c0.3,0.1,1.4,0.2,1.6,0.3l-0.3-3.2h-0.2l-0.3-0.5v-0.7l0,0c-0.5-1.2-0.4-2.6,0.3-3.8l0,0V85l0,0l0.5-0.1c0,0,0,0,0-0.1
							l-0.1-0.3c-0.3-0.2-0.5-0.6-0.5-1c0-0.6,0.2-1.1,0.6-1.1c0.4,0,0.7,0.4,0.8,1c0.1,0.4-0.1,0.8-0.4,1.1v0.3l0,0l0,0l0.5-0.1
							c0.5,0.4,0.9,0.9,1.3,1.4l-1.1,1.5l0,0l0,0l0.7-0.2l0.3,0.4l-0.6,0.4l-0.4-0.1l0,0l0,0c0,0.2,0,0.3-0.1,0.5l0,0
							c0,0,0.2,1.1,0.3,2.6c0.1,0.7,0.2,1.3,0.3,2c0.5,0.1,1.1,0.1,1.6,0.1l-0.1-2.8l-0.3-6.5v-0.9l4.2-0.4l-11.8-5.1l-12.8,6
							l3.6-0.1L150.1,93.8z M159,89.8l-0.3-0.7l0.1-0.6l0.3,0.1l0.1,0.9L159,89.8z"/>
						<path id="Path_3375" class="st4" d="M157,88.3L157,88.3h-0.2l0,0H157z"/>
						<path id="Path_3376" class="st4" d="M157,86.8v1.5h0.1C157.1,88.2,157,87.5,157,86.8"/>
						<path id="Path_3377" class="st4" d="M157.6,93.8c0.3-0.1,0.6-0.2,0.8-0.2l-0.7-4.7l-0.2,4.6h-0.4v-4h-0.2l-0.2-0.4l0.1-0.7
							l0,0l-0.2-1.3c0,0,0.1-0.4,0.1-0.9l0.2-0.5l-0.6,1.2l-1.1-1.1l0.1,3v4.9c0.4-0.1,0.9-0.1,1-0.2c0.2,0,0.4,0.1,0.6,0.2l0.1-0.1
							h0.4l-0.1,0.3C157.5,93.8,157.6,93.8,157.6,93.8"/>
						<path id="Path_3378" class="st4" d="M152.8,86.8l0.9,0.7l-0.1-1.7C153.6,85.8,152.9,86.8,152.8,86.8"/>
						<path id="Path_3379" class="st4" d="M165.6,86.2l-0.8-0.9l0.2,1.9L165.6,86.2z"/>
						<path id="Path_3380" class="st4" d="M148.2,159.7c0.6-0.3,1.4-0.7,2.1-1l-2.5-10.9L148.2,159.7z"/>
						<path id="Path_3381" class="st4" d="M118.9,162.7c0.1,0.1,0.2,0.2,0.2,0.2s0.7-0.2,1.7-0.4l-2.1-14.4L118.9,162.7z"/>
						<path id="Path_3382" class="st4" d="M135.4,146.8h2.1l-0.3,13.5c0.7-0.2,1.5-0.3,2.3-0.5l-1.8-13.1l2.2-0.1L135.4,146.8z"/>
						<path id="Path_3383" class="st4" d="M145.3,139.8L145.3,139.8c-1.3,1.5-0.5,6.4-0.4,7l0,0l0.3,0.4l-0.1-0.6
							C145.3,144.4,145.4,142.1,145.3,139.8"/>
						<path id="Path_3384" class="st4" d="M145.3,147.3L145.3,147.3L145.3,147.3L145.3,147.3z"/>
						<path id="Path_3385" class="st4" d="M118.2,161.7l-1.5-13.4l0,0l-0.2-1.1h-0.1v0.1l-1.7,0.7l-0.5-1.4h2.1l0,0l0,0h0.1
							l-0.1-0.6l0,0v0.1l-3.5-2.3l-1.2-0.7c0.3-2.1,3.1-5.8,3.1-5.8c0.1,0,1-0.2,2-0.3l0,0v-0.1l0,0c0,0-0.2-0.6-0.3-1.1
							c-1.3-0.5-2.3-1.6-2.4-3c-0.2-0.8-0.1-1.7,0.2-2.5l0,0h0.1c0.1-0.2,0.2-0.4,0.3-0.5l0,0h0.1c0.1-0.2,0.3-0.4,0.4-0.5
							c-0.1,0-0.1,0-0.1-0.1h0.2c0.2-0.1,0.4-0.2,0.7-0.3c0.5-0.1,1.1,0,1.5,0.3c0.3,0.2,0.5,0.4,0.7,0.7c0.5,0.6,0.8,1.3,0.9,2
							c0.4,1.3,0,2.7-1,3.6c0.1,0.3,0.1,0.7,0,1c0,0.2,0,0.3,0,0.3l0,0l0,0c1.2-0.2,2.3-0.4,2.3-0.4l3.4,3.7l1.6-2.8l0.2-0.4
							c0-0.4-0.1-0.6-0.1-0.7l0,0c0,0,1-0.1,2.3,0l0,0l0,0l-0.1-1.1c-1-0.8-1.5-2-1.4-3.3c0-1.9,1-3.5,2.2-3.5s2.2,1.6,2.1,3.5
							c0,1.6-0.7,3-1.6,3.4l-0.1,0.9c0,0.1,0,0.1,0,0.2c0.8,0,1.6,0.2,2.3,0.4l0,0l1.8,6l-0.1,4.2l-1-0.2l-0.4-3.6l-0.6-1.4
							l-0.3,5.1l1.6,15.2c1.9-0.4,3.9-0.7,4.1-0.9c0.1-0.1,0.2-0.1,0.4-0.1c-0.5-6.9-1-13.6-1-13.8h-0.2c0,0,0-2.2-0.1-4.7
							c-0.8-0.1-1.5-0.4-2.1-0.9c0,0,0.2-0.6,0.6-1.4l1.5-3.7c0,0,0.9-0.1,2.1-0.1l0,0h-0.1l-0.1-1.3c-1-0.7-1.7-1.9-1.6-3.2
							c-0.1-1.9,0.7-3.6,1.9-3.7c1.2-0.1,2.3,1.4,2.4,3.3c0.2,1.3-0.3,2.6-1.3,3.4l-0.2,1.3v0.1c0.6,0,1.2,0.1,1.8,0.2h0.1v0.1
							c0.9,1.7,1.6,3.5,1.9,5.4l-1.8-0.1c0,2.5,0.1,4.9,0.1,4.9l0.6,13c0.6-0.1,1.1-0.1,1.7-0.1c0.9,0.2,4.1,0.5,4.7,0.5l-1.3-9.4
							h-0.5l-1-1.3l-0.2-2.1h0.1c-2.2-6.4-0.2-10.3,0.4-11.2c0,0,0,0,0-0.1s0-0.2,0.1-0.3l0,0l1.4-0.2c0-0.1,0-0.1,0-0.2l-0.2-0.8
							c-1-0.6-1.6-1.7-1.7-2.8c-0.2-1.8,0.6-3.3,1.7-3.4c1.1-0.1,2.2,1.2,2.5,3c0.3,1.2-0.2,2.5-1.2,3.3l0.1,0.9h-0.1l0,0l1.6-0.3
							c1.5,1.1,2.8,2.5,4,4l-2.9,4.7l0,0l0,0l2-0.7l1,1l-1.8,1.1l-1.2-0.4l0,0h-0.1c0,0.5,0,1-0.1,1.4l0,0c0,0,0.6,3.3,1.2,7.7
							c0.3,1.9,0.6,3.9,1.1,5.8c0.3,0.3,4.8,0.2,4.8,0.2l-0.7-8.4l-1.8-19.2l-0.2-2.7l12.4-1.9l-35.7-13.5l-37.1,19.5l10.5-0.9
							l1.9,30.6L118,163L118.2,161.7z M133,149.5l-1,0.9l-0.9-1.9l0.3-1.7l1,0.2L133,149.5z"/>
						<path id="Path_3386" class="st4" d="M125.8,146.4l-0.3,0.1l-0.5,0.1v0.1L125.8,146.4z"/>
						<path id="Path_3387" class="st4" d="M125.6,142l0.2,4.4l0.3-0.1C126.1,146.1,125.9,144.1,125.6,142"/>
						<path id="Path_3388" class="st4" d="M128.4,162.5c0.8-0.3,1.6-0.5,2.5-0.7l-2.8-13.8v13.7l-1.2,0.1l-0.6-11.9h-0.5l-0.7-1.2
							l0.1-2l0,0l-0.7-3.9c0,0,0.1-1.3,0.3-2.8l0.6-1.5l-1.6,3.7l-3.5-3.1l0.7,8.7l0.7,14.6c1.2-0.3,2.5-0.6,3-0.6
							c0.7,0,1.3,0.2,1.9,0.6l0.4-0.4l1.3-0.1l-0.2,0.8C128.1,162.6,128.2,162.5,128.4,162.5"/>
						<path id="Path_3389" class="st4" d="M113.2,142.5c-0.1,0,2.6,1.9,2.7,2l-0.5-5.2C115.4,139.3,113.4,142.4,113.2,142.5"/>
						<path id="Path_3390" class="st4" d="M148.7,136.5l0.8,5.5l1.6-3L148.7,136.5z"/>
						<path id="Path_3391" class="st4" d="M224.9,130.2c0.2-0.1,0.5-0.2,0.7-0.3l-0.7-3.7V130.2z"/>
						<path id="Path_3392" class="st4" d="M215,130.7C215,130.8,215.1,130.8,215,130.7h0.6l-0.5-4.9L215,130.7z"/>
						<path id="Path_3393" class="st4" d="M220.8,125.6h0.7l-0.3,4.5c0.2,0,0.5-0.1,0.8-0.1l-0.4-4.4h0.8H220.8z"/>
						<path id="Path_3394" class="st4" d="M224.2,123.4c-0.5,0.5-0.3,2.1-0.2,2.4l0,0l0.1,0.1v-0.2
							C224.2,124.9,224.2,124.2,224.2,123.4L224.2,123.4z"/>
						<path id="Path_3395" class="st4" d="M224.1,125.9L224.1,125.9L224.1,125.9L224.1,125.9z"/>
						<path id="Path_3396" class="st4" d="M210.7,130.8h4l0.1-0.4l-0.3-4.6l0,0v-0.4l0,0l0,0l-0.6,0.2l-0.1-0.5h0.7l0,0l0,0v-0.2
							l0,0l0,0l-1.1-0.8l-0.4-0.3c0.3-0.7,0.6-1.3,1.1-1.9c0,0,0.3,0,0.7-0.1l0,0l0,0l0,0c0,0,0-0.2-0.1-0.4
							c-0.4-0.2-0.7-0.6-0.8-1.1c0-0.3,0-0.6,0.1-0.8l0,0l0,0c0-0.1,0.1-0.1,0.1-0.2l0,0l0,0c0-0.1,0.1-0.1,0.2-0.2l0,0h0.1
							c0.1,0,0.1-0.1,0.2-0.1c0.2,0,0.4,0,0.5,0.1s0.2,0.1,0.2,0.2c0.1,0.2,0.2,0.4,0.3,0.7c0.1,0.4,0,0.9-0.4,1.2
							c0,0.1,0,0.2,0,0.3v0.1l0,0l0,0c0.4-0.1,0.8-0.1,0.8-0.1l1.1,1.3l0.6-0.9l0.1-0.1c0-0.1,0-0.2,0-0.2l0,0c0,0,0.4,0,0.8,0l0,0
							l0,0v-0.4c-0.3-0.3-0.5-0.7-0.4-1.1c0-0.7,0.4-1.2,0.8-1.1s0.7,0.6,0.7,1.2c0,0.5-0.2,0.9-0.6,1.1v0.3c0,0,0,0,0,0.1
							c0.3,0,0.5,0.1,0.8,0.2l0,0l0.5,2l-0.1,1.4l-0.3-0.1l-0.1-1.2l-0.2-0.5l-0.2,1.7l0.3,5.1c0.5-0.1,0.9-0.1,1.4-0.2h0.1
							c-0.1-2.3-0.1-4.6-0.1-4.7h-0.1c0,0,0-0.8,0.1-1.6c-0.3,0-0.5-0.1-0.7-0.3c0,0,0.1-0.2,0.2-0.4l0.6-1.2c0,0,0.3,0,0.7,0l0,0
							l0,0v-0.4c-0.3-0.3-0.5-0.7-0.5-1.1c0-0.7,0.3-1.2,0.7-1.2s0.7,0.5,0.7,1.2c0,0.4-0.1,0.9-0.5,1.1l-0.1,0.4l0,0
							c0.2,0,0.4,0,0.6,0.1l0,0l0,0c0.3,0.6,0.5,1.2,0.6,1.9h-0.6c0,0.8-0.1,1.7-0.1,1.7v4.4c0.2,0,0.4,0,0.6,0
							c0.3,0.1,1.4,0.2,1.6,0.3l-0.3-3.2h-0.2l-0.3-0.5v-0.7l0,0c-0.5-1.2-0.4-2.6,0.3-3.8l0,0V122l0,0l0.5-0.1c0,0,0,0,0-0.1
							l-0.1-0.3c-0.3-0.2-0.5-0.6-0.5-1c0-0.6,0.2-1.1,0.6-1.1s0.7,0.4,0.8,1c0.1,0.4-0.1,0.8-0.4,1.1v0.3l0,0l0,0l0.5-0.1
							c0.5,0.4,0.9,0.9,1.3,1.4l-1.1,1.5l0,0l0,0l0.7-0.2l0.3,0.4l-0.6,0.4l-0.4-0.1l0,0l0,0c0,0.2,0,0.3-0.1,0.5l0,0
							c0,0,0.2,1.1,0.3,2.6c0.1,0.7,0.2,1.3,0.3,2c0.5,0.1,1.1,0.1,1.6,0.1l-0.1-2.8l-0.3-6.5v-0.9l4.2-0.4l-11.8-5.1l-12.8,6
							l3.6-0.1L210.7,130.8z M219.6,126.8l-0.3-0.7l0.1-0.6l0.3,0.1l0.1,0.9L219.6,126.8z"/>
						<path id="Path_3397" class="st4" d="M217.6,125.3L217.6,125.3h-0.2l0,0H217.6z"/>
						<path id="Path_3398" class="st4" d="M217.6,123.8v1.5h0.1C217.7,125.2,217.6,124.6,217.6,123.8"/>
						<path id="Path_3399" class="st4" d="M218.1,130.5h-0.4v-4h-0.2l-0.2-0.4l0.1-0.7l0,0l-0.2-1.3c0,0,0.1-0.4,0.1-0.9l0.2-0.5
							l-0.6,1.2l-1.1-1.1l0.1,3v4.9c0.4-0.1,0.9-0.1,1-0.2c0.2,0,0.4,0.1,0.6,0.2l0.1-0.1L218.1,130.5v0.3h0.1
							c0.3-0.1,0.6-0.2,0.8-0.2l-0.7-4.7L218.1,130.5z"/>
						<path id="Path_3400" class="st4" d="M213.4,123.8l0.9,0.7l-0.1-1.7C214.2,122.8,213.4,123.8,213.4,123.8"/>
						<path id="Path_3401" class="st4" d="M225.4,122.3l0.2,1.9l0.6-1L225.4,122.3z"/>
						<path id="Path_3402" class="st4" d="M196.7,166.7c0.2-0.1,0.5-0.2,0.7-0.3l-0.7-3.7V166.7z"/>
						<path id="Path_3403" class="st4" d="M186.8,167.3C186.8,167.3,186.8,167.4,186.8,167.3h0.6l-0.5-4.9L186.8,167.3z"/>
						<path id="Path_3404" class="st4" d="M192.6,162.2h0.7l-0.3,4.5c0.2,0,0.5-0.1,0.8-0.1l-0.4-4.4h0.8H192.6z"/>
						<path id="Path_3405" class="st4" d="M196,160c-0.5,0.5-0.3,2.1-0.2,2.4l0,0l0.1,0.1v-0.2C196,161.5,196,160.8,196,160L196,160
							z"/>
						<path id="Path_3406" class="st4" d="M195.9,162.5L195.9,162.5L195.9,162.5L195.9,162.5z"/>
						<path id="Path_3407" class="st4" d="M182.5,167.4h4l0.1-0.4l-0.3-4.6l0,0V162l0,0l0,0l-0.6,0.2l-0.1-0.5h0.7l0,0l0,0v-0.2l0,0
							l0,0l-1.1-0.8l-0.4-0.3c0.3-0.7,0.6-1.3,1.1-1.9c0,0,0.3,0,0.7-0.1l0,0l0,0l0,0c0,0,0-0.2-0.1-0.4c-0.4-0.2-0.7-0.6-0.8-1.1
							c0-0.3,0-0.6,0.1-0.8l0,0l0,0c0-0.1,0.1-0.1,0.1-0.2l0,0l0,0c0-0.1,0.1-0.1,0.2-0.2l0,0h0.1c0.1,0,0.1-0.1,0.2-0.1
							c0.2,0,0.4,0,0.5,0.1s0.2,0.1,0.2,0.2c0.1,0.2,0.2,0.4,0.3,0.7c0.1,0.4,0,0.9-0.4,1.2c0,0.1,0,0.2,0,0.3v0.1l0,0l0,0
							c0.4-0.1,0.8-0.1,0.8-0.1l1.1,1.3l0.6-0.9l0.1-0.1c0-0.1,0-0.2,0-0.2l0,0c0,0,0.4,0,0.8,0l0,0l0,0v-0.4
							c-0.3-0.3-0.5-0.7-0.4-1.1c0-0.7,0.4-1.2,0.8-1.1c0.4,0,0.7,0.6,0.7,1.2c0,0.5-0.2,0.9-0.6,1.1v0.3c0,0,0,0,0,0.1
							c0.3,0,0.5,0.1,0.8,0.2l0,0l0.5,2l-0.1,1.4l-0.3-0.1l-0.1-1.2l-0.2-0.5l-0.2,1.7l0.3,5.1c0.5-0.1,0.9-0.1,1.4-0.2h0.1
							c-0.1-2.3-0.1-4.6-0.1-4.7h-0.1c0,0,0-0.8,0.1-1.6c-0.3,0-0.5-0.1-0.7-0.3c0,0,0.1-0.2,0.2-0.4l0.6-1.2c0,0,0.3,0,0.7,0l0,0
							l0,0v-0.4c-0.3-0.3-0.5-0.7-0.5-1.1c0-0.7,0.3-1.2,0.7-1.2s0.7,0.5,0.7,1.2c0,0.4-0.1,0.9-0.5,1.1l-0.1,0.4l0,0
							c0.2,0,0.4,0,0.6,0.1l0,0l0,0c0.3,0.6,0.5,1.2,0.6,1.9h-0.6c0,0.8-0.1,1.7-0.1,1.7v4.4c0.2,0,0.4,0,0.6,0
							c0.3,0.1,1.4,0.2,1.6,0.3l-0.3-3.2h-0.2l-0.3-0.5v-0.7l0,0c-0.5-1.2-0.4-2.6,0.3-3.8l0,0v-0.1l0,0l0.5-0.1c0,0,0,0,0-0.1
							l-0.1-0.3c-0.3-0.2-0.5-0.6-0.5-1c0-0.6,0.2-1.1,0.6-1.1s0.7,0.4,0.8,1c0.1,0.4-0.1,0.8-0.4,1.1v0.3l0,0l0,0l0.5-0.1
							c0.5,0.4,0.9,0.9,1.3,1.4l-1.1,1.5l0,0l0,0l0.7-0.2l0.3,0.4l-0.6,0.4l-0.4-0.1l0,0l0,0c0,0.2,0,0.3-0.1,0.5l0,0
							c0,0,0.2,1.1,0.3,2.6c0.1,0.7,0.2,1.3,0.3,2c0.5,0.1,1.1,0.1,1.6,0.1l-0.1-2.8l-0.3-6.5v-0.9l4.2-0.4l-11.8-5.1l-12.8,6
							l3.6-0.1L182.5,167.4z M191.4,163.3l-0.3-0.7l0.1-0.6l0.3,0.1l0.1,0.9L191.4,163.3z"/>
						<path id="Path_3408" class="st4" d="M189.4,161.9L189.4,161.9h-0.2l0,0H189.4z"/>
						<path id="Path_3409" class="st4" d="M189.4,160.4v1.5h0.1C189.4,161.8,189.4,161.1,189.4,160.4"/>
						<path id="Path_3410" class="st4" d="M189.9,167.1h-0.4v-4h-0.2l-0.2-0.4l0.1-0.7l0,0l-0.2-1.3c0,0,0.1-0.4,0.1-0.9l0.2-0.5
							l-0.6,1.2l-1.1-1.1l0.1,3v4.9c0.4-0.1,0.9-0.1,1-0.2c0.2,0,0.4,0.1,0.6,0.2l0.1-0.1L189.9,167.1v0.3h0.1
							c0.3-0.1,0.6-0.2,0.8-0.2l-0.7-4.7L189.9,167.1z"/>
						<path id="Path_3411" class="st4" d="M185.2,160.4l0.9,0.7l-0.1-1.7C186,159.4,185.2,160.4,185.2,160.4"/>
						<path id="Path_3412" class="st4" d="M197.2,158.9l0.2,1.9l0.6-1L197.2,158.9z"/>
						<path id="Path_3413" class="st4" d="M306.4,81.4c0.2-0.1,0.4-0.2,0.6-0.3l-0.6-3V81.4z"/>
						<path id="Path_3414" class="st4" d="M298.3,81.8C298.3,81.9,298.3,81.9,298.3,81.8h0.5l-0.4-4L298.3,81.8z"/>
						<path id="Path_3415" class="st4" d="M303.1,77.6h0.6l-0.3,3.7c0.2,0,0.4-0.1,0.6-0.1l-0.3-3.6h0.6H303.1z"/>
						<path id="Path_3416" class="st4" d="M305.9,75.8c-0.4,0.4-0.2,1.8-0.2,1.9l0,0l0.1,0.1v-0.2C305.8,77.1,305.9,76.5,305.9,75.8
							L305.9,75.8z"/>
						<path id="Path_3417" class="st4" d="M305.8,77.9L305.8,77.9L305.8,77.9L305.8,77.9z"/>
						<path id="Path_3418" class="st4" d="M294.8,81.9h3.3l0.1-0.4l-0.2-3.7l0,0v-0.3l0,0l0,0l-0.5,0.2l-0.1-0.4h0.6l0,0l0,0v-0.2
							l0,0l0,0l-0.9-0.7l-0.3-0.2c0.2-0.6,0.5-1.1,0.9-1.6c0,0,0.3,0,0.6-0.1l0,0l0,0l0,0c0,0,0-0.2-0.1-0.3
							c-0.4-0.1-0.6-0.5-0.6-0.9c0-0.2,0-0.5,0.1-0.7l0,0l0,0c0,0,0-0.1,0.1-0.1l0,0l0,0l0.1-0.1l0,0h0.1c0.1,0,0.1-0.1,0.2-0.1
							s0.3,0,0.4,0.1s0.1,0.1,0.2,0.2c0.1,0.2,0.2,0.4,0.2,0.6c0.1,0.4,0,0.8-0.3,1c0,0.1,0,0.2,0,0.3v0.1l0,0l0,0
							c0.3,0,0.6-0.1,0.6-0.1l0.9,1.1l0.5-0.8l0.1-0.1c0-0.1,0-0.2,0-0.2l0,0c0,0,0.3,0,0.6,0l0,0l0,0v-0.3
							c-0.3-0.2-0.4-0.6-0.3-0.9c0-0.5,0.3-1,0.6-0.9c0.3,0,0.6,0.5,0.5,1c0,0.4-0.2,0.7-0.5,0.9v0.2l0,0c0.2,0,0.4,0.1,0.6,0.1l0,0
							l0.4,1.7l-0.1,1.2l-0.3-0.1l-0.1-1l-0.1-0.4l-0.1,1.4l0.3,4.2c0.4,0,0.8-0.1,1.2-0.2h0.1c-0.1-1.9-0.1-3.8-0.1-3.8h-0.1
							c0,0,0-0.6,0-1.3c-0.2,0-0.4-0.1-0.6-0.3c0,0,0.1-0.2,0.2-0.4l0.5-1c0,0,0.2,0,0.6,0l0,0l0,0v-0.4c-0.3-0.2-0.4-0.6-0.4-0.9
							c0-0.5,0.2-1,0.6-1c0.3,0,0.6,0.4,0.6,1c0,0.4-0.1,0.7-0.4,0.9l-0.1,0.4l0,0c0.2,0,0.3,0,0.5,0.1l0,0l0,0
							c0.2,0.5,0.4,1,0.5,1.5h-0.5c0,0.7,0,1.4,0,1.4v3.6c0.2,0,0.3,0,0.5,0c0.3,0.1,1.1,0.2,1.3,0.2l-0.2-2.6h-0.1l-0.2-0.4v-0.6
							l0,0c-0.4-1-0.3-2.2,0.3-3.1l0,0v-0.1l0,0h0.4l0,0l-0.1-0.2c-0.3-0.2-0.4-0.5-0.4-0.8c0-0.5,0.2-0.9,0.5-0.9s0.6,0.4,0.6,0.9
							c0.1,0.3-0.1,0.7-0.4,0.9v0.2l0,0l0,0l0.4-0.1c0.4,0.3,0.8,0.7,1.1,1.2l-0.9,1.3l0,0l0,0l0.6-0.2l0.3,0.3l-0.5,0.3l-0.3-0.1
							l0,0l0,0c0,0.1,0,0.3,0,0.4l0,0c0,0,0.1,0.9,0.2,2.1c0,0.5,0.1,1.1,0.2,1.6c0.4,0.1,0.9,0.1,1.3,0.1l-0.1-2.3l-0.3-5.3v-0.7
							l3.5-0.4l-9.7-4.2l-10.5,4.9l2.9-0.1L294.8,81.9z M302.1,78.6l-0.2-0.5l0.1-0.5l0.3,0.1l0.1,0.7L302.1,78.6z"/>
						<path id="Path_3419" class="st4" d="M300.4,77.4L300.4,77.4h-0.2l0,0H300.4z"/>
						<path id="Path_3420" class="st4" d="M300.4,76.2v1.2h0.1C300.5,77.3,300.5,76.8,300.4,76.2"/>
						<path id="Path_3421" class="st4" d="M300.8,81.7h-0.3v-3.3h-0.1l-0.2-0.4v-0.6l0,0l-0.2-1.1c0,0,0.1-0.4,0.1-0.8l0.2-0.4
							l-0.5,1l-0.9-0.9l0.1,2.4v4.1c0.3-0.1,0.7-0.1,0.8-0.1c0.2,0,0.4,0.1,0.5,0.2l0.1-0.1L300.8,81.7v0.2h0.1
							c0.2-0.1,0.5-0.1,0.7-0.2l-0.6-3.9L300.8,81.7z"/>
						<path id="Path_3422" class="st4" d="M297,76.2l0.7,0.6l-0.1-1.4C297.6,75.3,297,76.2,297,76.2"/>
						<path id="Path_3423" class="st4" d="M306.9,75l0.1,1.5l0.5-0.8L306.9,75z"/>
						<path id="Path_3424" class="st2" d="M252.4,273.5l135.3-53.8c-3,0.4-5.9,0.6-8.9,0.6c-40.3,0-73.1-32.6-73.1-72.9
							c0-2.9,0.2-5.8,0.5-8.7L252.4,273.5z"/>
						<path id="Path_3425" d="M311.8,117.6c0.8-1.8,1.7-3.7,2.7-5.4l-0.4-0.2L311.8,117.6z"/>
						<path id="Path_3426" d="M387.7,219.7l-135.3,53.8l53.7-134.9c0.6-5.4,1.8-10.6,3.6-15.7L259.5,249l-1.9,4.6l-6.3,15.8
							l-0.6,1.6l-2.7,6.9l30.1-12l5.6-2.2l45.3-18l6.9-2.7l25.6-10.2l7.2-2.9l45.2-18l-0.2-0.5C405.7,215.8,396.8,218.6,387.7,219.7
							"/>
						<path id="Path_3427" class="st2" d="M428.7,97.2c-27.6-27.6-72.4-27.6-100,0s-27.6,72.4,0,100s72.4,27.6,100,0l0,0
							c27.6-27.4,27.7-72.1,0.3-99.7C428.9,97.4,428.8,97.3,428.7,97.2"/>
						<path id="Path_3428" d="M430.5,95.5c-25.7-25.6-66.2-28.6-95.3-7c-0.8,0.6-1.7,1.3-2.5,1.9c-1.9,1.5-3.7,3.1-5.4,4.9
							c-0.1,0.1-0.2,0.1-0.2,0.2c-5,5-9.2,10.6-12.5,16.8c-1,1.8-1.9,3.6-2.7,5.4c-0.8,1.7-1.5,3.5-2.1,5.3
							c-13.4,38.1,6.6,79.9,44.7,93.3s79.9-6.6,93.3-44.7C457.1,144.9,450.4,115.4,430.5,95.5 M328.8,197.2
							c-27.6-27.6-27.6-72.4,0-100s72.4-27.6,100,0s27.6,72.4,0,100l0,0C401.1,224.7,356.4,224.7,328.8,197.2"/>
					</g>
				</g>
			</g>
		</g>
	</g>
	<g id="Group_400" transform="translate(1441 6901.638)">
		<g>
			<g id="Group_325" transform="translate(-71 -3)">
				<path id="Path_2483" class="st2" d="M131.6,69.8l-11.9,0.9c-0.5,0.1-3.6,0.9-7.2,1.7l-0.2,4.1c0.4-0.1,0.7-0.1,1.1-0.2v-3.5
					l18.4,0.5l-0.1-3.1v-1.1l0,0c0,0.1,0,0.1,0,0.2L131.6,69.8z"/>
				<path id="Path_2484" class="st2" d="M72.9,53.4l8-3.3l4.5,2.3v-8.1l0,0l0,0v-8.1l-5,0.1v0.1h-3.7l-5.2,0.1L72.9,53.4L72.9,53.4z
					"/>
				<path id="Path_2485" class="st2" d="M77.6,34.8c-0.4,0-0.9-0.1-1.3-0.2v1h0.3l2.8-0.1l-0.1-1.1C78.7,34.7,78.2,34.8,77.6,34.8
					L77.6,34.8z"/>
				<path id="Path_2486" class="st2" d="M65.9,49.1l4.6-7.8l-0.3-3.6l-5.3,10.1l-6.7,2.7c0.1,0.3,0.2,0.7,0.2,1L65.9,49.1z"/>
				<path id="Path_2487" class="st2" d="M82.1,21.4C82,21.3,82,21.1,81.9,21c-1.1,0.2-2.3,0.3-3.5,0.3c-1.1,0-2.3-0.1-3.4-0.3
					c-0.1,0.3-0.1,0.6-0.2,0.9C77.3,22.2,79.7,22.1,82.1,21.4"/>
				<path id="Path_2488" class="st2" d="M81.4,20.2c-0.1-0.2-0.2-0.3-0.4-0.5c-0.4,0-0.7,0-1.1,0c-1.5,0-3-0.3-4.4-0.8
					c-0.1,0.4-0.3,0.8-0.4,1.3C77.2,20.5,79.3,20.5,81.4,20.2"/>
				<path id="Path_2489" class="st2" d="M56,53.7c1-0.2,1.8-1.1,1.6-2.1c0.1-1-0.6-2-1.6-2.1c-1,0.2-1.7,1.1-1.6,2.1
					C54.2,52.6,55,53.6,56,53.7"/>
				<path id="Path_2490" class="st2" d="M75.7,33.5c0.6,0.3,1.2,0.5,1.9,0.5l0,0c3,0,5.4-3.6,5.4-8.1c0-1.3-0.2-2.6-0.6-3.8
					c-1.7,0.5-3.5,0.8-5.3,0.8c-0.8,0-1.6,0-2.4-0.1C74.3,26.4,74.7,30,75.7,33.5"/>
				<path id="Path_2491" class="st2" d="M39,49.5l5,2.1l9.5,0.5v-1.2L44,49.5l-4.4-4C39.4,46.7,39.2,48.1,39,49.5"/>
				<path id="Path_2492" class="st2" d="M38.7,103H40l0.6-25.8h-1.8L38.7,103z"/>
				<path id="Path_2493" class="st2" d="M37.2,36.1c-0.1,0-0.3,0-0.4-0.1c-0.8-0.2-1.5-0.6-2.1-1.1L34,37.1l3,0.8L37.2,36.1z"/>
				<path id="Path_2494" class="st2" d="M36.7,58.4l-4.2-1.2L31.6,44l0.8-0.1l0.8,12.7l11.4,3.3h0.1V60l3,0.9h6l-1-1.5L47.2,59
					c-1.1-0.3-9.7-4.8-10-5L37,53.9L35.9,44l0.8-0.1l1,8.3c1-5.9,1.9-11.2,2.1-12.7L30,37.1c-4,9.2-5.6,28.9-5.8,32l10.6,0.8
					C35,68.6,35.8,63.8,36.7,58.4"/>
				<path id="Path_2495" class="st2" d="M77.6,17.8L77.6,17.8c-0.5,0-1.1,0.1-1.6,0.3c1.3,0.4,2.7,0.7,4.1,0.6
					C79.5,18.2,78.6,17.9,77.6,17.8"/>
				<path id="Path_2496" class="st2" d="M37,35.2c2.9,0.7,6.1-2.3,7.1-6.6c0.5-2,0.4-4.1-0.3-6c-0.5-1.5-1.6-2.7-3.1-3.1
					c-2.9-0.7-6.1,2.3-7.1,6.6c-0.5,2-0.4,4.1,0.3,6C34.3,33.6,35.5,34.8,37,35.2"/>
				<path id="Path_2497" class="st2" d="M22,77l2.2,26h1.1l-0.6-26H22z"/>
				<path id="Path_2498" class="st2" d="M120.9,32.1c0.7-1.9,0.8-4,0.3-6c-0.9-3.9-3.6-6.7-6.3-6.7c-0.3,0-0.6,0-0.8,0.1
					c-1.5,0.4-2.7,1.6-3.1,3.1c-0.7,1.9-0.8,4-0.3,6c1,4.3,4.2,7.3,7.1,6.6C119.3,34.8,120.5,33.6,120.9,32.1"/>
				<path id="Path_2499" class="st2" d="M118.1,43.9l0.8,0.1l-1.2,9.8l-0.2,0.1c-0.4,0.2-8.9,4.7-10,5h-0.1l-5.4,0.4l-1,1.5h6
					l14.5-4.2l0.8-12.7l0.8,0.1l-0.8,13.3l-4.1,1.2c0.9,5.4,1.7,10.1,1.9,11.5l10.6-0.8c-0.2-3.1-1.9-22.8-5.8-32l-9.8,2.4
					c0.2,1.4,1.1,6.6,2.1,12.4L118.1,43.9z"/>
				<path id="Path_2500" class="st2" d="M116,50.1c-0.2-1.3-0.4-2.5-0.6-3.7c-1.4,1-3,2.2-3,2.2l-0.1,0.1l-9.2,2.2v1.2l9.5-0.5
					C112.8,51.4,114.6,50.7,116,50.1"/>
				<path id="Path_2501" class="st2" d="M100.5,53.7c1-0.2,1.7-1.1,1.6-2.1c0.2-0.9-0.3-1.8-1.2-2.1c-0.9-0.2-1.8,0.3-2.1,1.2
					c-0.1,0.3-0.1,0.6,0,0.9C98.8,52.6,99.5,53.6,100.5,53.7"/>
				<path id="Path_2502" class="st2" d="M118,36c-0.1,0-0.3,0.1-0.4,0.1l0.3,1.8l3-0.8l-0.8-2.2C119.5,35.5,118.7,35.8,118,36"/>
				<path id="Path_2503" class="st2" d="M107.1,61.6h-7.7l2.1-3.1l3.6-0.3c-1.6-1-2.9-1.7-3.3-2c-0.9,0-7.2,0.1-15,0.2v0.4L77.7,62
					h33.9c-0.6-0.3-1.3-0.8-2.1-1.3L107.1,61.6z"/>
				<path id="Path_2504" class="st2" d="M70.9,55.1l5.6,2.5l9-4.1L80.8,51L70.9,55.1z M81.4,52.9l-1,0.5l0.5,0.5l-0.6,0.6l-0.7-0.6
					l-4.2,2.3L75,55.5l4-2.1L78.6,53l0.6-0.6l0.6,0.6l1.2-0.6L81.4,52.9z"/>
				<path id="Path_2505" class="st2" d="M69.5,59.3v-2.4c-9,0.1-16.5,0.2-17.4,0.2c-0.3,0.1-1.2,0.5-2.4,1.1l3.5,0.3l2.1,3.1h-7.7
					l-2.9-0.8c-1,0.5-2,1-2.7,1.4h33.2L69.5,59.3z"/>
				<path id="Path_2506" class="st2" d="M77,61.6l9-5.2V54l-9.1,4.2L77,61.6z"/>
				<path id="Path_2507" class="st2" d="M76.1,58.3l-5.8-2.6v3.1l5.9,2.9L76.1,58.3z"/>
				<path id="Path_2508" class="st2" d="M98.1,51.3c0-0.3,0.1-0.6,0.2-0.9l-6.6-2.6l-5.6-10.3v4.6l4.7,7.1L98.1,51.3z"/>
				<path id="Path_2509" class="st2" d="M49.7,100.5c-0.2,0-0.4,0-0.5,0c-0.3,0-0.6,0-1.1,0v2l8.7,0.5l0.5-1.5L49.7,100.5
					L49.7,100.5z"/>
				<path id="Path_2510" class="st2" d="M89.4,67.6h-1.8l-0.1,3h1.9V67.6z"/>
				<path id="Path_2511" class="st2" d="M87.5,71.5l2.6,25.2h1.2l-2-25.2H87.5z"/>
				<path id="Path_2512" class="st2" d="M100,74.7l0.4-0.1l0.8-0.2c0.2-3.2,0.4-5.8,0.4-6.8h-2.3l-0.7,29.7h1.2
					c0.1-1.9,0.7-10.5,1.2-18c-0.3-1.5-0.5-3-0.8-4.3L100,74.7z"/>
				<path id="Path_2513" class="st2" d="M105,100.6l-7.5,0.9L98,103l8.7-0.5v-1.9c-0.5,0-0.8,0-1.1,0
					C105.4,100.6,105.2,100.6,105,100.6"/>
				<path id="Path_2514" class="st2" d="M101.6,78.9L101.6,78.9c0.1,0.1,0.1,0.2,0.1,0.4c2.8,15.5,3.5,19.5,3.7,20.5
					c0.3,0,0.8,0,1.3,0l-0.9-22.1l0.3-0.1c0,0,1-0.2,2.5-0.4l0.1-3.8c-3.5,0.9-6.7,1.7-7.7,1.9C101.1,76.6,101.3,77.8,101.6,78.9"/>
				<path id="Path_2515" class="st2" d="M78.5,67.6l-0.4,3h1.7l-0.3-3H78.5z"/>
				<path id="Path_2516" class="st2" d="M86,98.3l0.8-30.7h-5.1l2.8,30.7H86z"/>
				<path id="Path_2517" class="st2" d="M86.2,99.2l3.3,3.9h0.6L86.2,99.2L86.2,99.2z"/>
				<path id="Path_2518" class="st2" d="M112,67.6h-2.4l-0.6,34.8h1.2L112,67.6z"/>
				<path id="Path_2519" class="st2" d="M129.5,103h1.2l2.1-26h-2.6L129.5,103z"/>
				<path id="Path_2520" class="st2" d="M130.7,30.7l2,43.6l-18.4-0.5v2.6l19.4-0.2l2.4-45.4L130.7,30.7z"/>
				<path id="Path_2521" class="st2" d="M72.7,98.3h1.4l3.6-30.7h-4.4L72.7,98.3z"/>
				<path id="Path_2522" class="st2" d="M112.7,63H40.8v3.8h71.4L112.7,63z"/>
				<path id="Path_2523" class="st2" d="M114.9,103h1.2V77.2h-1.8L114.9,103z"/>
				<path id="Path_2524" class="st2" d="M72.5,103.3L72.5,103.3l1.4-4.1h-0.3L72.5,103.3z"/>
				<path id="Path_2525" class="st2" d="M35,70.7l-10.6-0.8c0.3,0.9,0.8,2.5,1.1,3.5L41.4,73v3.5c0.2,0,0.4,0.1,0.7,0.1l-0.2-4.1
					C38.3,71.6,35.3,70.8,35,70.7"/>
				<path id="Path_2526" class="st2" d="M52.8,67.6c0.1,1,0.2,3.5,0.4,6.6l1.2,0.3l0.4,0.1L54.7,75c-0.3,1.7-0.7,3.8-1.1,5.9l0,0
					c0.4,6.8,1,14.6,1.1,16.4H56l-0.7-29.7L52.8,67.6z"/>
				<path id="Path_2527" class="st2" d="M71.4,71.5h-1.9L69,96.7c0.3,0,0.5,0.1,0.8,0c0.2-1.6,1.1-13.3,1.6-21.1h0.1L71.4,71.5z"/>
				<rect id="Rectangle_269" x="69" y="67.6" class="st2" width="2.5" height="3.1"/>
				<path id="Path_2528" class="st2" d="M42.4,67.6l1.8,34.8h1.2l-0.6-34.8C44.8,67.6,42.4,67.6,42.4,67.6z"/>
				<path id="Path_2529" class="st2" d="M45.7,73.2l0.1,3.9c1.7,0.3,2.9,0.4,2.9,0.4h0.4l-0.9,22.1c0.5,0,1,0,1.3,0
					c0.2-1.1,1-5.6,4.5-24.5C52.7,74.9,49.3,74.1,45.7,73.2"/>
				<path id="Path_2530" class="st2" d="M22.3,70.3l1.9-39.6h-5.4l2.4,45.4l19.4,0.2v-2.6l-18.3,0.5V70.3z"/>
				<path id="Path_2531" class="st4" d="M75.5,18.9c-0.1,0-0.3-0.1-0.4-0.1c-0.4,0.3-0.8,0.8-1.1,1.2c0.4,0.1,0.7,0.1,1.2,0.2
					C75.3,19.8,75.4,19.3,75.5,18.9"/>
				<path id="Path_2532" class="st4" d="M74.7,22.8c-0.7-0.1-1.4-0.2-1.9-0.3c-0.3,1.1-0.5,2.3-0.5,3.4c0,2,0.5,4.1,1.6,5.8
					c0.5,0.7,1.1,1.3,1.9,1.8C74.7,30,74.4,26.4,74.7,22.8"/>
				<path id="Path_2533" class="st4" d="M75,21c-0.6-0.1-1.1-0.2-1.5-0.3c-0.2,0.3-0.3,0.6-0.4,0.9c0.5,0.1,1.1,0.2,1.8,0.3
					C74.9,21.6,74.9,21.3,75,21"/>
				<path id="Path_2534" class="st4" d="M72.9,53.4L72.9,53.4l-1.5-16.7H71l1.2,17L72.9,53.4z"/>
				<path id="Path_2535" class="st4" d="M58.4,51.5L58.4,51.5c0,0.2,0,0.4,0,0.5c1.4-0.3,5.3-1.2,7.9-1.9l4.4-6.5l-0.2-2.5l-4.6,7.8
					L58.4,51.5z"/>
				<path id="Path_2536" class="st4" d="M98.1,52c0-0.1,0-0.3,0-0.4c0-0.1,0-0.2,0-0.3l-7.2-2.1L86.1,42v2l4.2,6.1
					C92.8,50.8,96.6,51.7,98.1,52"/>
				<path id="Path_2537" class="st4" d="M72.2,67.6v30.7h0.4l0.6-30.7L72.2,67.6z"/>
				<path id="Path_2538" class="st4" d="M65.9,103.7l6.1,1.2l0.2-0.8l-5.8-0.9L65.9,103.7z"/>
				<path id="Path_2539" class="st4" d="M72.2,99.2l-4.4,3.4l4.7,0.7l1.1-4.1H72.2z"/>
				<path id="Path_2540" class="st4" d="M81.7,67.6h-1.4l3.4,30.7h0.7L81.7,67.6z"/>
				<path id="Path_2541" class="st4" d="M83.9,99.2l1.3,4.2l4.2-0.2l-3.3-3.9L83.9,99.2L83.9,99.2z"/>
				<path id="Path_2542" class="st4" d="M85.4,104.6l5.1-0.3l-0.4-0.4l-4.9,0.3L85.4,104.6z"/>
				<path id="Path_2543" d="M79.2,52.2l-0.6,0.6l0.4,0.4l-4,2.1l0.4,0.7l4.2-2.3l0.7,0.6l0.6-0.6l-0.5-0.5l1-0.5L81,52.1l-1.2,0.6
					L79.2,52.2z"/>
				<path id="Path_2544" d="M129.8,29.9l1.8,39.4v1.1l0.1,3.1L113.3,73v3.5c-0.4,0-0.7,0.1-1.1,0.2l0.2-4.1c3.6-0.9,6.7-1.6,7.2-1.7
					l11.8-0.9v-0.4c0,0,0-0.1,0-0.2c-0.1-1.9-1.8-23.3-6.1-32.8l-0.1-0.3l-3.7,0.9l-1-2.8c0.4-0.6,0.8-1.2,1-1.8
					c0.7-2.1,0.8-4.3,0.3-6.5c-1.1-4.8-4.7-8-8.1-7.3c-1.8,0.5-3.2,1.9-3.7,3.6c-0.7,2.1-0.8,4.3-0.3,6.5c1,4.2,3.9,7.2,6.8,7.4
					l0.3,2l-3,0.7l0.1,0.4c0,0,0.4,2.6,1.1,6.3c-1.3,0.9-2.9,2.1-3.3,2.3l-9.3,2.2c-0.4-0.8-1.2-1.4-2.1-1.4c-0.7,0-1.4,0.4-1.8,1
					l-6.4-2.6l-6.2-11.4v-0.3L80,35.7l0-1.6c2.2-1.3,3.8-4.5,3.8-8.2c0-1.4-0.2-2.7-0.7-4c0.2-0.1,0.4-0.1,0.6-0.2l-0.3-0.8
					C83.2,21,83,21,82.8,21.1c-0.1-0.1-0.1-0.3-0.2-0.4c0.1,0,0.2-0.1,0.4-0.1l-0.3-0.8c-0.2,0.1-0.4,0.1-0.5,0.1
					c-0.1-0.1-0.1-0.2-0.2-0.3c0-0.1-0.1-0.1-0.1-0.2c0.1,0,0.1,0,0.2,0L82,18.7c-0.2,0-0.4,0.1-0.7,0.1c-0.9-1.1-2.3-1.7-3.7-1.7
					l0,0c-0.9,0-1.8,0.3-2.6,0.8c-0.4-0.2-0.8-0.4-1.2-0.6L73.5,18c0.3,0.2,0.6,0.3,0.8,0.4c-0.4,0.4-0.8,0.9-1.2,1.4
					c-0.6-0.1-1-0.3-1-0.3l-0.3,0.8c0.1,0,0.4,0.1,0.8,0.2c-0.2,0.3-0.3,0.6-0.4,0.9c-0.5-0.1-0.9-0.2-0.9-0.2L71,22
					c0.1,0,0.4,0.1,0.9,0.3c-0.4,1.2-0.5,2.4-0.5,3.6c0,2.2,0.6,4.4,1.8,6.2c0.6,0.9,1.4,1.6,2.3,2.1v1.4l-5.4,0.1V36l-5.8,11
					l-6.5,2.6c-0.4-0.6-1.1-1-1.9-1.1c-0.9,0-1.7,0.6-2.1,1.5l-9.5-1.4l-4.6-4.1c0.5-3.2,0.9-5.3,0.9-5.3l0.1-0.4l-3-0.8l0.3-2
					c3-0.1,5.9-3.2,6.9-7.4c0.5-2.1,0.4-4.4-0.3-6.5c-0.5-1.8-1.9-3.1-3.7-3.6c-3.3-0.8-7,2.5-8.1,7.3c-0.5,2.1-0.4,4.4,0.3,6.5
					c0.2,0.6,0.6,1.2,1,1.8l-1,2.8L29.5,36l-0.1,0.3c-4.5,9.9-6.1,32.8-6.1,33v0.4h0.2c0.2,0.7,0.8,2.4,1.1,3.6H23l0.1-3.1l1.9-40
					v-0.4h-7.1l2.5,47.1h0.8l2.2,26.9h2.7L25.5,77l12.4,0.2v26.7h2.9l0.6-26.6c0.2,0,0.5,0.1,0.7,0.1l1.3,25.5v0.4h2.8L45.7,78
					c1.1,0.2,1.9,0.3,2.4,0.4l-0.9,22.2l0,0v2.8l10.1,0.6l1-3.1l-8.2-1c0.3-1.6,1.6-8.7,2.8-15.7c0.4,6.8,0.9,13.6,0.9,13.7v0.4h2.8
					l-0.7-30.6H68v3.9h0.6L68,97.4l0.3,0.1c0.4,0.1,0.7,0.1,1.1,0.1c0.3,0,0.6,0,0.8-0.2c0.1-0.1,0.3-0.3,1-10.9v12.3l-5.7,4.4
					l0.8,0.1l5.8,0.9l0.8,0.1l1.7-5h0.1L78,71.5h1.9L83,99.2l0,0l1.6,5h0.6l4.9-0.3l1.8-0.1l-5.1-5.2l0.6-21.2l2.1,20.2h2.8L90.2,71
					v-3.3h8.2l-0.7,30.6h2.8v-0.4c0,0,0.5-7.5,1-15.2c1.3,7.3,2.8,15.4,3.1,17.2l-8.2,1l1,3.1l10.1-0.6v-2.7l0,0l-0.9-22.2
					c0.4-0.1,1.1-0.2,2-0.3l-0.5,25.3h2.8l1.4-25.8c0.4-0.1,0.7-0.2,1.1-0.2l0.7,26.6h2.8v-27l12.5-0.2l-0.7,26.8h2.8l2.1-26.9h0.8
					l2.5-47.1h-7.1V29.9z M113.3,62.2c-0.3-0.2-1.4-0.8-2.7-1.6l6.8-2c0.9,5.3,1.7,10,1.9,11.4c-0.9,0.2-3.6,0.9-6.7,1.6l0.2-4h0.1
					l0.8-5.5h-0.4V62.2z M111.6,62.2H77.7l9.1-5.2v-0.4c7.8-0.1,14.1-0.2,15-0.2c0.4,0.2,1.7,1,3.3,2l-3.6,0.3l-2.1,3.1h7.7l2.4-0.7
					C110.3,61.4,111,61.8,111.6,62.2 M120.8,37.1l-3,0.8l-0.3-1.8c0.1,0,0.3,0,0.4-0.1c0.8-0.2,1.5-0.6,2.1-1.1L120.8,37.1z
					 M110.7,28.6c-0.5-2-0.4-4.1,0.3-6c0.5-1.5,1.6-2.7,3.1-3.1c0.3-0.1,0.6-0.1,0.8-0.1c2.6,0,5.3,2.8,6.3,6.7c0.5,2,0.4,4.1-0.3,6
					c-0.5,1.5-1.6,2.7-3.1,3.1C114.9,35.9,111.7,32.9,110.7,28.6 M115,39.5l9.8-2.4c4,9.2,5.6,28.9,5.8,32L120,69.9
					c-0.2-1.3-1.1-6.1-1.9-11.5l4.1-1.2l0.8-13.3l-0.8-0.1l-0.8,12.7L107,60.8h-6l1-1.5l5.4-0.4h0.1c1.1-0.3,9.7-4.8,10-5l0.2-0.1
					l1.2-9.8l-0.8-0.1l-1,8C116.2,46.1,115.3,40.9,115,39.5 M103,50.9l9.2-2.2l0.1-0.1c0,0,1.6-1.2,3-2.2c0.2,1.1,0.4,2.4,0.6,3.7
					c-1.4,0.6-3.2,1.3-3.6,1.4l-9.5,0.5L103,50.9z M100.5,49.5c1,0.2,1.7,1.1,1.6,2.1c0.2,0.9-0.3,1.8-1.2,2.1
					c-0.9,0.2-1.8-0.3-2.1-1.2c-0.1-0.3-0.1-0.6,0-0.9C98.8,50.6,99.5,49.6,100.5,49.5 M86.1,42.1v-4.6l5.6,10.3l6.6,2.6
					c-0.1,0.3-0.2,0.6-0.2,0.9c0,0.1,0,0.2,0,0.3s0,0.3,0,0.4c-1.5-0.3-5.2-1.2-7.8-1.8l-4.2-6.1V42.1z M86.1,45.5l3.7,5.4H90
					c5.4,1.4,7.5,1.8,8.4,1.9c0.3,1.2,1.6,1.9,2.8,1.6c0.8-0.2,1.4-0.8,1.6-1.6l9.8-0.6h0.1c0,0,1.9-0.8,3.5-1.4
					c0.1,0.8,0.3,1.7,0.4,2.5c-2.8,1.4-8.3,4.3-9.3,4.6l-0.8,0.1l0,0c-2.4-1.4-4.4-2.6-4.4-2.6l-0.1-0.1h-0.1
					c-0.1,0-6.7,0.1-15.1,0.2V53l-0.7-0.3V45.5z M86,56.4l-9,5.2l-0.1-3.4L86,54V56.4z M76.5,57.5L70.9,55l9.9-4.1l4.6,2.4
					L76.5,57.5z M41.5,67.6l0.2,3.9c-2.9-0.7-5.3-1.3-6.2-1.5c0.2-1.3,1.1-6,1.9-11.4l6.2,1.8c-1.7,0.9-3,1.6-3.4,1.7H40v5.5H41.5z
					 M44.8,60.8l2.8,0.8h7.7l-2.1-3.1l-3.5-0.3c1.2-0.6,2.1-1,2.4-1.1c0.9,0,8.5-0.1,17.4-0.2v2.4l5.8,2.8H42.1
					C42.8,61.8,43.8,61.3,44.8,60.8 M70.3,58.8v-3.1l5.8,2.6l0.1,3.4L70.3,58.8z M77.6,17.8L77.6,17.8c1,0,1.9,0.4,2.6,1
					c-1.4,0-2.8-0.2-4.1-0.6C76.6,18,77.1,17.9,77.6,17.8 M75.1,18.8c0.1,0,0.3,0.1,0.4,0.1c1.4,0.5,2.9,0.8,4.4,0.8
					c0.3,0,0.7,0,1.1,0c0.1,0.2,0.3,0.3,0.4,0.5c-2.1,0.3-4.2,0.3-6.2,0c-0.4-0.1-0.8-0.1-1.2-0.2C74.3,19.5,74.7,19.1,75.1,18.8
					 M73.5,20.8c0.4,0.1,0.9,0.2,1.5,0.3c1.1,0.2,2.3,0.3,3.4,0.3c1.2,0,2.3-0.1,3.5-0.3c0.1,0.1,0.1,0.3,0.2,0.4
					c-2.4,0.7-4.8,0.9-7.3,0.6c-0.7-0.1-1.3-0.2-1.8-0.3C73.2,21.4,73.3,21.1,73.5,20.8 M73.9,31.7c-1.1-1.7-1.7-3.7-1.6-5.8
					c0-1.2,0.2-2.3,0.5-3.4c0.5,0.1,1.2,0.2,1.9,0.3c0.8,0.1,1.6,0.1,2.4,0.1c1.8,0,3.6-0.3,5.3-0.8c0.4,1.2,0.6,2.5,0.6,3.8
					c0,4.5-2.4,8.1-5.4,8.1l0,0c-0.7,0-1.3-0.2-1.9-0.5C75,33,74.3,32.4,73.9,31.7 M79.4,35.6l-2.8,0.1h-0.3v-1
					c0.4,0.1,0.9,0.2,1.3,0.2l0,0c0.6,0,1.1-0.1,1.6-0.3L79.4,35.6z M71.4,36.6l5.2-0.1h3.7v-0.1l5-0.1v8.1l0,0l0,0v8.1l-4.5-2.3
					l-8,3.3l-0.7,0.3l-1.2-17L71.4,36.6z M64.9,47.8l5.3-10.1l0.3,3.6l0.2,2.5l-4.4,6.5c-2.6,0.7-6.5,1.6-7.9,1.9c0-0.1,0-0.3,0-0.4
					v-0.1c0-0.4-0.1-0.7-0.2-1L64.9,47.8z M56,49.5c1,0.2,1.7,1.1,1.6,2.1c0.1,1-0.6,2-1.6,2.1c-1-0.2-1.7-1.1-1.6-2.1
					C54.2,50.6,55,49.6,56,49.5 M56,54.6c1-0.1,1.9-0.7,2.2-1.7c0.8-0.1,2.8-0.5,8.4-1.9h0.2l4-5.9l0.6,8.9l-1.9,0.8V56
					C60,56.2,52.1,56.3,52,56.3h-0.2c0,0-1.7,0.8-3.6,1.8l0,0L47.5,58c-0.9-0.3-6.4-3.1-9.2-4.6c0.2-1.1,0.4-2.2,0.5-3.2l4.9,2
					l10.1,0.6C54.1,53.9,55,54.5,56,54.6 M44,49.5l9.4,1.4v1.2L44,51.5l-5-2.1c0.2-1.4,0.5-2.7,0.7-3.9L44,49.5z M33.9,32.1
					c-0.7-1.9-0.8-4-0.3-6c1-4.3,4.2-7.3,7.1-6.6c1.5,0.4,2.7,1.6,3.1,3.1c0.7,1.9,0.8,4,0.3,6c-1,4.3-4.2,7.3-7.1,6.6
					C35.5,34.8,34.3,33.6,33.9,32.1 M34.7,34.9c0.6,0.6,1.3,0.9,2.1,1.1c0.1,0,0.3,0.1,0.4,0.1l-0.3,1.8l-3-0.8L34.7,34.9z M30,37.1
					l9.8,2.4c-0.2,1.4-1.2,6.8-2.1,12.7l-1-8.3L35.9,44l1.2,9.8l0.2,0.1c0.4,0.2,9,4.7,10,5l5.5,0.4l1,1.5h-6l-3-0.9v-0.1h-0.1
					l-11.4-3.3l-0.8-12.7L31.6,44l0.8,13.3l4.2,1.2c-0.9,5.4-1.7,10.1-1.9,11.4L24.1,69C24.4,66,26,46.3,30,37.1 M24.2,103L22,77
					h2.7l0.6,26H24.2z M40,103h-1.2V77.2h1.8L40,103z M40.5,76.4l-19.4-0.2l-2.4-45.4h5.4l-1.9,39.6l-0.1,4l18.3-0.5L40.5,76.4z
					 M41.4,76.4v-3.5l-15.9,0.4c-0.3-1-0.8-2.6-1.1-3.5L35,70.7c0.3,0.1,3.3,0.8,6.8,1.7l0.2,4.1C41.8,76.5,41.6,76.4,41.4,76.4
					 M44.2,102.4l-1.8-34.8h2.4l0.6,34.8C45.4,102.4,44.2,102.4,44.2,102.4z M45.6,67.6H52c0.1,0.9,0.2,3.3,0.4,6.4
					c-1.7-0.4-4.2-1-6.7-1.6L45.6,67.6z M57.3,101.5l-0.5,1.5l-8.7-0.5v-2c0.5,0,0.8,0,1.1,0c0.2,0,0.4,0,0.5,0v0.1L57.3,101.5z
					 M49.4,99.7c-0.3,0-0.8,0-1.3,0L49,77.6h-0.4c0,0-1.2-0.1-2.9-0.4l-0.1-3.9c3.6,0.9,7,1.7,8.2,2C50.4,94,49.6,98.6,49.4,99.7
					 M54.8,97.4c-0.1-1.8-0.7-9.7-1.1-16.4l0,0c0.4-2.2,0.8-4.2,1.1-5.9l0.1-0.4l-0.4-0.1c0,0-0.5-0.1-1.2-0.3
					c-0.2-3.1-0.4-5.6-0.4-6.6h2.4L56,97.4H54.8z M71.3,75.6c-0.5,7.8-1.3,19.5-1.6,21.1c-0.3,0-0.5,0-0.8,0l0.6-25.1h1.9L71.3,75.6
					L71.3,75.6z M69,67.6h2.5v3.1H69V67.6z M72.5,103.3L72.5,103.3l-4.8-0.7l4.4-3.4h1.7L72.5,103.3z M74.1,98.3h-1.8V67.6h5.4
					L74.1,98.3z M78.1,70.6l0.4-3h1l0.3,3H78.1z M80.3,67.6h6.5L86,98.3h-2.3L80.3,67.6z M90,103h-0.6l-4.3,0.2L83.8,99h2.3L90,103z
					 M91.4,96.7h-1.2l-2.6-25.2h1.9L91.4,96.7z M87.5,70.6l0.1-3h1.8v3H87.5z M80.2,66.8H40.8V63h71.9l-0.5,3.8H80.2z M99.6,97.4
					h-1.2l0.7-29.7h2.3c-0.1,1-0.3,3.5-0.4,6.8l-0.8,0.2l-0.4,0.1l0.1,0.4c0.2,1.3,0.5,2.7,0.8,4.3C100.3,86.9,99.7,95.5,99.6,97.4
					 M106.6,102.5l-8.7,0.5l-0.5-1.5l7.5-0.9c0.2,0,0.4,0,0.6,0c0.3,0,0.6,0,1.1,0V102.5z M108.6,77.2c-1.5,0.2-2.5,0.4-2.5,0.4
					l-0.3,0.1l0.9,22.1c-0.5,0-1,0-1.3,0c-0.2-1-0.9-5-3.7-20.5c0-0.1,0-0.2,0-0.4h-0.1c-0.2-1.2-0.4-2.4-0.7-3.6
					c1.1-0.3,4.3-1,7.7-1.9V77.2z M108.7,72.5c-2.7,0.7-5.2,1.3-6.7,1.7c0.2-3.2,0.4-5.7,0.4-6.6h6.4L108.7,72.5z M110.2,102.4H109
					l0.6-34.8h2.4L110.2,102.4z M116,103h-1.2l-0.6-25.8h1.8C116,77.2,116,103,116,103z M130.7,103h-1.2l0.6-26h2.6L130.7,103z
					 M133.6,76.1l-19.4,0.2v-2.6l18.4,0.5l-2-43.6h5.4L133.6,76.1z"/>
			</g>
		</g>
	</g>
</g>
</svg>
