<?xml version="1.0" encoding="utf-8"?>
<!-- Generator: Adobe Illustrator 27.9.0, SVG Export Plug-In . SVG Version: 6.00 Build 0)  -->
<svg version="1.1" id="Layer_1" xmlns="http://www.w3.org/2000/svg" xmlns:xlink="http://www.w3.org/1999/xlink" x="0px" y="0px"
	 viewBox="0 0 311 331" style="enable-background:new 0 0 311 331;" xml:space="preserve">
<g id="Group_231" transform="translate(-21)">
	<g>
		<g id="Group_115" transform="translate(21 0)">
			<path id="Path_1428" d="M300.8,203.5l-0.1-0.6l-0.3-0.5c0,0-1.9-2.8-4.3-6.7l3.7-5.4l-24.5-34.8l20-122.9l-5.9-1L269,156.9
				l23.6,33.5l-52.4,76.4l-8,0.6l30.6-56.6l-5.2-2.8l-32.5,60l-9.8,0.7L246,199l-5.4-2.4L210,265.8l-4.2-6.4l17.1-62.6l-5.7-1.6
				l-15.7,57.6l-0.4-0.6l-0.3-98l-31.6-11.7l4.3-20.4l39.3,20l20.9-121.3l-5.9-1L208.3,133l-39.1-19.8l-7,33l1.3,0.5h-4.4
				c-0.1,0-0.3,0-0.5,0l1.3-0.5l-7.3-33L113.9,133L94.1,19.6l-5.8,1l21.2,121.3l39.1-20l4.5,20.5l-31.6,11.7l-0.3,98l-0.4,0.7
				l-16-57.6l-5.7,1.6l17.4,62.6l-4.2,6.4l-30.5-69.2l-5.4,2.4l30.7,69.7l-9.8-0.7l-32.5-60l-5.2,2.8l30.6,56.6l-8-0.6l-52.4-76.4
				L53,156.9L32.9,31.6L27,32.5l19.7,123l-24.2,34.9l3.7,5.4c-7.3,10.3-12.2,22.1-14.3,34.6c-2.7,18.3,6,29.4,13,38.4
				c3.3,4.2,6.1,7.8,7,11.2c2.5,9.9,15.1,27.8,29.3,33.6c2.9,1.2,6,1.9,9.2,1.9c3.8,0,7.6-1.1,10.9-3.1C99.8,301,117.3,298,124,298
				s24.2-7.6,28.8-9.7l66.6,14.7h0.4c8.5-0.7,51.2-4.1,57.7-7.8c4.1-2.3,17.8-12,23.4-39.1C305.9,232.8,301,204.7,300.8,203.5
				 M294.9,254.8c-5.3,25.3-18,33.7-20.5,35.1c-3.9,2.2-34.2,5.4-54.7,7l-67.7-15l-0.9,0.4c-8.2,3.7-22.8,9.5-27.3,9.5
				c-7.8,0-26.2,3.2-45.8,15.3c-4.4,2.7-9.3,3-14.7,0.8c-12.7-5.2-23.9-22.1-25.7-29.6c-1.2-4.6-4.5-8.9-8.1-13.4
				c-6.6-8.4-14.1-18-11.8-33.8c1.8-10.8,5.9-21.1,12-30.3l49,71.5l34.3,2.6l13.9-21.2l0.3-95.6l19.5-7.2c4,0.9,8.2,1.4,12.3,1.6
				h19.6v-0.3l16,5.9l0.3,95.6l13.9,21.2l34.3-2.6l49-71.5c1.2,1.9,2.2,3.4,2.7,4.1C295.7,209.3,299.4,234.5,294.9,254.8"/>
			<path id="Path_1429" d="M45.1,271.4c0,0.6,0.1,15.2,7.4,22.8l4.3-4.1c-5.6-5.9-5.7-18.6-5.7-18.7L45.1,271.4z"/>
			<path id="Path_1430" d="M57.6,258.7l-5.9,0.4c0.1,1,1.7,23.7,15.9,35.4l3.8-4.6C59.2,279.9,57.6,258.9,57.6,258.7"/>
			<path id="Path_1431" d="M181.2,172.8l1-5.9c-7.4-1.2-18.5-0.1-18.9,0l0.6,5.9C164,172.8,174.6,171.7,181.2,172.8"/>
			<path id="Path_1432" d="M155.3,177.5l2.4,5.4c5.3-2.3,24.9,2.6,27.3,3.7l1.5-2.6l1.8-2.4C186,180,163.2,174.1,155.3,177.5"/>
			<path id="Path_1433" d="M150.9,246.2l-3.7,4.6c1.3,1.1,12.5,10,21.9,10c0.6,0,1.2,0,1.8-0.1l-0.8-5.9
				C164,255.6,154.2,248.9,150.9,246.2"/>
			<path id="Path_1434" d="M149.6,259.7c-3.3-1.9-4.4-2.6-5.6-2.6v5.9c-0.2,0-0.5,0-0.7-0.1c0.4,0.2,2,1.1,3.3,1.9
				c5,3,12.6,7.5,18.2,7.5c0.1,0,0.3,0,0.4,0l-0.3-5.9C161.1,266.5,153.7,262.1,149.6,259.7"/>
			<path id="Path_1435" d="M265.5,276.7l4.1,4.3c0.4-0.4,11-10.4,11.6-21l-5.9-0.4C274.8,267.8,265.6,276.6,265.5,276.7"/>
			<path id="Path_1436" d="M270.8,248.9l-5.9,0.5c1.4,15.4-12.8,31.1-12.9,31.3l4.4,4C257,284,272.4,266.9,270.8,248.9"/>
		</g>
	</g>
</g>
</svg>
