<?xml version="1.0" encoding="UTF-8" standalone="no"?>
<!-- Generator: Adobe Illustrator 27.8.1, SVG Export Plug-In . SVG Version: 6.00 Build 0)  -->

<svg
   version="1.1"
   id="Layer_1"
   x="0px"
   y="0px"
   viewBox="0 125 427 212"
   xml:space="preserve"
   sodipodi:docname="ZumeLOGO.svg"
   width="427"
   height="212"
   inkscape:version="1.1.2 (0a00cf5339, 2022-02-04)"
   xmlns:inkscape="http://www.inkscape.org/namespaces/inkscape"
   xmlns:sodipodi="http://sodipodi.sourceforge.net/DTD/sodipodi-0.dtd"
   xmlns="http://www.w3.org/2000/svg"
   xmlns:svg="http://www.w3.org/2000/svg"><defs
   id="defs1209" /><sodipodi:namedview
   id="namedview1207"
   pagecolor="#ffffff"
   bordercolor="#666666"
   borderopacity="1.0"
   inkscape:pageshadow="2"
   inkscape:pageopacity="0.0"
   inkscape:pagecheckerboard="0"
   showgrid="false"
   inkscape:zoom="1.5117943"
   inkscape:cx="235.8125"
   inkscape:cy="18.521038"
   inkscape:window-width="1916"
   inkscape:window-height="1029"
   inkscape:window-x="1920"
   inkscape:window-y="49"
   inkscape:window-maximized="1"
   inkscape:current-layer="Layer_1" />
<style
   type="text/css"
   id="style1106">
	.st1{fill:none;}
	.st2{fill:#27AAE1;}
</style>
<g
   id="g1204"
   inkscape:export-filename="/home/nath/Work/FaithTech/zume-training/wordpress/wp-content/plugins/zume-training-system/site/assets/images/ZumeLOGO-crop.svg"
   inkscape:export-xdpi="600"
   inkscape:export-ydpi="600"
   transform="translate(-36.55,-10.15)">
	<path
   class="st1"
   d="m 166.4,312.8 c 0.2,0.2 0.4,0.5 0.6,0.7 1.2,1.6 3,4.6 6,9.9 0.6,1 1.3,2.2 2,3.4 -0.3,0.5 -0.5,0.9 -0.7,1.2 l 0.7,-1.2 c 1.5,-2.8 4.1,-7.4 6.1,-11 -2,3.6 -4.5,8.2 -6.1,11 -0.7,-1.2 -1.4,-2.4 -2,-3.4 -3,-5.3 -4.8,-8.3 -6,-9.9 -0.5,-18.8 -1.6,-57 -2.5,-88.1 -0.1,-16.3 -0.2,-32.8 -0.2,-47.5 l 9.7,-2.9 4.5,0.3 1.2,134.7 h 3.9 c -0.1,-14.8 -1.2,-120.3 -1.3,-134.4 l -3.7,-0.3 -4.6,-0.3 -9.7,-0.7 c 0,1.2 0,2.4 0,3.6 0,14.8 0.1,31.3 0.2,47.5 0.2,42.3 0.8,82.9 1.9,87.4 z"
   id="path1108" />
	<path
   class="st1"
   d="m 207.4,138.7 v 0 c -0.4,0.5 -0.9,1.1 -1.5,1.8 z"
   id="path1110" />
	<path
   class="st1"
   d="m 215.6,330.1 v 0 c -0.5,0.5 -4.9,6.1 -4.9,6.1 H 181 v 0 c 0.7,0 1.9,0.1 3.6,0.1 17.9,0.8 28.2,0.9 30.4,0.3 0.6,-0.8 1.7,-2.3 3.2,-4.1 v -21.1 0 1.9 c -1.2,0.1 -2.4,0.1 -3.6,0.2 0.6,5.7 1.3,16.1 1,16.6 z"
   id="path1112" />
	<path
   class="st1"
   d="m 183.9,310.6 v 0 c 0,0 0,0 0,0 0,0 0,0 0,0 z"
   id="path1114" />
	<path
   class="st1"
   d="m 183.2,311.7 c 0.1,-0.2 0.2,-0.3 0.3,-0.5 v 0 c 0,0 0,-0.1 0,-0.1 0,0 0,0.1 0,0.1 -0.1,0.2 -0.2,0.4 -0.3,0.5 z"
   id="path1116" />
	<path
   class="st1"
   d="m 203.4,164.7 c -5.1,-0.1 -10.3,-0.4 -15.4,-1 0,0 0,0 0,0 5.1,0.6 10.3,1 15.4,1 0.1,0 0.3,0 0.4,0 l 10.9,-19.2 3.1,-5.4 v 0 l -3.1,5.4 z"
   id="path1118" />
	<path
   class="st1"
   d="m 122.4,318.9 v 0 c -3.2,0.3 -6.6,0.6 -10.1,0.9 3.5,-0.3 6.9,-0.6 10.1,-0.9 z"
   id="path1120" />
	<path
   class="st1"
   d="m 263.3,336.2 -2.3,0.4 4.5,-165.1 h -5.3 c -0.2,44.1 -0.6,150.5 -0.1,165.3 l 1,-0.2 2.2,-0.4 9.7,-1.6 0.1,-1.9 v 0 z"
   id="path1122" />

		<rect
   x="294.20001"
   y="238.3"
   transform="matrix(0.9378,-0.3472,0.3472,0.9378,-78.0725,119.4197)"
   class="st1"
   width="0"
   height="78.5"
   id="rect1124" />
	<path
   class="st1"
   d="m 365.1,171 c -3.7,-0.6 -12.9,-1.7 -20.3,-2.5 -0.6,-0.1 -1.3,-0.1 -1.9,-0.2 h -0.4 c -1.6,6.3 -3.7,14.4 -5.9,23.4 -9.7,38.4 -23.4,92.9 -23.7,95.4 v 1.5 l -1.5,0.1 c -0.3,0.1 -0.6,0.1 -0.9,0 -1,-0.5 -1.8,-3.3 -5.8,-16.8 -2.8,-9.4 -6.4,-22 -10,-34.5 -4.8,-16.6 -9.5,-33.2 -12.2,-42.5 l -1.2,26.7 -0.9,19.4 -3.1,1.2 0.3,0.9 -0.3,-0.9 3.1,-1.2 v 0 l 0.9,-19.4 25.6,80.6 3.6,-13.4 c 0.3,0.1 0.6,0.1 0.9,0 l 1.5,-0.1 v -1.5 c 0.3,-2.5 14,-57 23.7,-95.4 l 6.3,-23.4 c 0.6,0.1 1.2,0.1 1.9,0.2 l 15.7,3.5 c 0,0 0,0 0,0 l 0.5,11.3 c -3.6,11 -9.1,27.5 -15.2,45.8 l 0.1,-10.9 v -1 0 c 0,0 12.3,-41.1 14.3,-44.9 -2,3.9 -14.3,44.9 -14.3,44.9 v 1 l -30.2,96.2 h 1.7 c 7.8,-23.5 18.9,-56.7 28.4,-85.3 6.1,-18.3 11.6,-34.8 15.2,-45.8 2,-5.9 3.4,-10.2 4.1,-12.4 z"
   id="path1126" />
	<polygon
   class="st1"
   points="350.4,226.3 350.4,226.3 348.4,336.9 350.4,226.3 350.6,215.3 "
   id="polygon1128" />
	<path
   class="st1"
   d="m 191,160 c 3.7,-4.8 9,-11.6 12.7,-16.4 -3.7,4.8 -9,11.6 -12.7,16.4 z"
   id="path1130" />
	<path
   class="st1"
   d="m 276.7,206.3 1.8,5.7 -1.2,26.6 1.2,-26.6 1.8,-40.5 h -2.2 c -0.2,5.8 -1.4,16.9 -1.4,16.9 z"
   id="path1132" />
	<path
   class="st1"
   d="m 50.3,175.6 c 1.8,4.6 3.5,8.9 5.1,12.8 6,15 10,25.3 12.8,32.3 2.4,6.3 3.9,10 4.7,12.2 1.8,-2.9 4.8,-8 7.6,-12.8 l -1.4,-3.9 -4.2,-12.1 -5.2,-14.9 -1.1,-3 v 0 l 1.1,3 h -1 l 6.2,14.9 4.2,12.1 -8,11.8 c 0,0 -1.2,-2.9 -2.9,-7.3 -2.8,-7.1 -6.8,-17.4 -12.8,-32.3 -2.5,-6.6 -4.3,-11.3 -4,-11.3 0.8,0 56.2,-4.6 56.4,-3.4 0.1,0.9 -3.4,8.4 -5.4,12.5 h 2.6 l 6,-14.5 z"
   id="path1134" />
	<polygon
   class="st1"
   points="403.3,265.4 400.9,265.3 400.9,265.6 400.9,265.3 "
   id="polygon1136" />
	<path
   class="st1"
   d="m 176.6,330.9 v 0 c 0,0 0,-0.1 0.1,-0.2 -0.1,0.1 -0.1,0.2 -0.1,0.2 z"
   id="path1138" />
	<polygon
   class="st1"
   points="147.2,337.1 147.2,337.1 46.8,339.5 76.8,273.8 46.8,339.5 45,343.5 147.4,337.3 "
   id="polygon1140" />
	<path
   class="st1"
   d="m 398.3,284.1 -0.9,-22.2 34.2,0.4 9.1,0.1 c 0.8,-7.9 1.3,-16.7 0.8,-19.4 -6.7,1 -38.3,4.3 -42.2,4.7 l -1.8,0.2 -2.8,-62.8 v -0.4 l 27.8,-0.7 26.6,-0.7 2.3,-18.2 -67.5,6.2 3.1,76.7 c -0.9,-38.5 -1.5,-74.5 -1.5,-74.5 l 61.1,-3 -2,12.7 -4.2,0.2 -17.8,0.7 -27.8,0.7 v 0.4 l -1.6,0.1 2,65.6 37.6,-4.9 -1.2,16.4 -34.2,-0.4 0.9,22.1 c -0.1,17.5 0,41.3 0,41.3 l 61.1,-11.1 -1.7,19.8 -67,3 v 0 l 67,-3 2.4,-0.1 v -20.5 l -60.2,10.8 z"
   id="path1142" />
	<polygon
   class="st1"
   points="68.3,323.3 67.4,323.9 "
   id="polygon1144" />
	<polygon
   class="st1"
   points="107,278.1 102.6,283.8 111.5,296.8 128.5,321.8 128.5,321.8 111.5,296.8 104.5,282 107,278.1 112.1,271.6 "
   id="polygon1146" />
	<path
   class="st1"
   d="m 221.7,311.4 v 21.7 h -3.4 v 0 h 3.4 v -4.6 c 4.7,-5.5 10.5,-12.2 13.3,-15.4 L 238.7,171 c -0.9,-0.3 -1.8,-0.5 -2.7,-0.8 0,0 0,0 0,0 l -3.7,141.6 -9.8,7.3 3.5,-150.9 c -0.8,-0.1 -1.6,-0.1 -2.5,0 0.4,9.1 -1.7,135.8 -1.8,143.2 z"
   id="path1148" />
	<path
   class="st1"
   d="m 176.7,330.7 c 0.1,-0.1 0.2,-0.3 0.3,-0.5 0,0 0,0 0,0 -0.1,0.2 -0.2,0.4 -0.3,0.5 z"
   id="path1150" />
	<path
   class="st1"
   d="m 141.5,173.5 c 0,0 -75.4,145.1 -73.7,145.6 0.9,0.1 1.8,0 2.7,-0.1 10.8,-20.8 54,-108.7 73,-147.4 h -20.1 l -0.8,1.9 z"
   id="path1152" />
	<path
   class="st2"
   d="m 51.4,177.1 c -0.3,0 1.5,4.7 4,11.3 6,15 10,25.3 12.8,32.3 1.8,4.4 2.9,7.3 2.9,7.3 L 79,216.1 74.8,204 68.6,189.1 h 1 l -1.1,-3 v 0 0 h 33.7 c 2,-4.1 5.6,-11.6 5.4,-12.5 0,-1.1 -55.4,3.5 -56.2,3.5 z"
   id="path1154" />
	<polygon
   class="st2"
   points="43,339.6 43,339.6 118.9,173.5 118.2,173.5 36.5,339.7 "
   id="polygon1156" />
	<path
   class="st2"
   d="m 122.4,318.9 -3,-4.4 c -3.1,0.3 -31.8,3.3 -45,4.4 -0.9,1.8 -1.6,3.1 -2.2,4.1 1.9,-0.1 4.7,-0.3 8.1,-0.5 8.4,-0.6 20.6,-1.6 31.9,-2.6 3.6,-0.4 7,-0.7 10.2,-1 z"
   id="path1158" />
	<path
   class="st2"
   d="m 67.8,319.1 c -1.7,-0.5 73.7,-145.6 73.7,-145.6 h -18.9 v 0 l -45.8,100.3 -30,65.6 100.5,-2.4 -28.7,-73.6 -6.4,8.2 -5.1,6.5 -2.5,3.9 6.9,14.8 17,24.9 v 0 0 l -2.9,0.3 c 0,0 -14,1.2 -27.9,2.4 -29.3,2.4 -29.3,2.4 -29.8,0.7 l -0.4,-1.3 v 0 0 l 0.9,-0.5 c 0.3,-0.6 1.1,-2 2.3,-4.2 0,0 0,0 0,0 -1.1,0.1 -2,0.1 -2.9,0 z"
   id="path1160" />
	<path
   class="st2"
   d="m 178.5,175.3 -4.5,-0.3 -9.7,2.9 c 0,14.8 0.1,31.3 0.2,47.5 0.9,31 2,69.3 2.5,88.1 1.2,1.6 3,4.6 6,9.9 0.6,1 1.3,2.2 2,3.4 1.5,-2.8 4.1,-7.4 6.1,-11 0.9,-1.6 1.7,-3 2.2,-4 0.1,-0.2 0.2,-0.3 0.3,-0.5 0,0 0,-0.1 0,-0.1 0,-0.3 0,-0.6 0,-1.1 0,0 0,0 0,0 h -3.9 z"
   id="path1162" />
	<path
   class="st2"
   d="m 186.9,310.4 c 3.4,0.4 15.4,0.2 27.5,-0.3 v 0 c 0,-0.2 0,-0.2 0,-0.2 l -27.5,0.1 c 0,0 0,0 0,0 0,0.1 0,0.3 0,0.4 z"
   id="path1164" />
	<path
   class="st2"
   d="m 215.6,330.1 v 0 c 0.4,-0.5 -0.4,-10.9 -0.9,-16.6 0,0 0,0 0,0 -18.7,0.8 -25.8,0.5 -28.6,0.1 -2.2,3.9 -7.6,13.8 -9.1,16.6 0,0 0,0 0,0 0,0 0,0 0,0 0,0 0,0 0,0 1.7,2.8 3.3,5.3 4.1,6 v 0 h 29.6 c 0,0 4.4,-5.6 4.9,-6.1 z"
   id="path1166" />
	<path
   class="st2"
   d="m 167.2,320.1 c 0,0 0,0 0,0 0.1,3.2 0.1,5 0.1,5 l 7.8,11.1 h 1.7 c -1.5,-2.2 -3.5,-5.6 -6.7,-11.1 -0.9,-1.6 -2,-3.4 -2.9,-5 z"
   id="path1168" />
	<path
   class="st2"
   d="M 232.3,311.9 236,170.3 c -3.3,-0.9 -6.6,-1.6 -10,-2 0,0 0,0 0,0 l -3.5,150.9 z"
   id="path1170" />
	<polygon
   class="st2"
   points="201.4,168 200.9,168 201.4,168.1 "
   id="polygon1172" />
	<path
   class="st2"
   d="m 206,140.6 c -0.7,0.9 -1.4,1.9 -2.3,3 -3.7,4.8 -8.9,11.6 -12.7,16.4 -1.2,1.5 -2.2,2.8 -3,3.8 5.1,0.6 10.2,0.9 15.4,1 l 11.3,-19.2 3.1,-5.4 -10.3,-1.4 v 0 l -1.5,1.8 c 0,-0.1 0,0 0,0 z"
   id="path1174" />
	<path
   class="st2"
   d="m 263.3,336.2 9.8,-3.5 4.2,-94.1 1.2,-26.6 -1.8,-5.7 v -17.9 c 0,0 1.2,-11.1 1.4,-16.9 H 265.5 L 261,336.6 Z"
   id="path1176" />
	<polygon
   class="st2"
   points="279.9,257 302.6,314.4 304.3,314.4 280.2,249.4 "
   id="polygon1178" />
	<path
   class="st2"
   d="m 346,217.2 c 0,0 12.3,-41.1 14.3,-44.9 -2,3.8 -14.3,44.9 -14.3,44.9 v 0 1 l -0.1,10.9 c 6.1,-18.3 11.6,-34.8 15.2,-45.8 L 360.6,172 c 0,0 0,0 0,0 l -15.7,-3.5 c -0.6,-0.1 -1.3,-0.1 -1.9,-0.2 l -6.3,23.4 c -9.7,38.4 -23.4,92.9 -23.7,95.4 v 1.5 l -1.5,0.1 c -0.3,0.1 -0.6,0.1 -0.9,0 l -3.6,13.4 -25.6,-80.6 -0.9,19.4 v 0 0 0 l 27.3,73.7 h 7.9 l 30.2,-96.2 z"
   id="path1180" />
	<path
   class="st2"
   d="m 354,215.5 -2.2,118.6 16.1,2.6 -0.2,-15.8 -6.2,-128.2 c -1.9,5.9 -4.4,13.4 -7.5,22.8 z"
   id="path1182" />
	<path
   class="st2"
   d="m 348.4,336.9 v 0 0 l 2,-110.7 c -1.4,4.3 -3,8.9 -4.6,13.9 0,0 0,0 0,0 l -1.1,96.7 24.1,6.8 -0.2,-3.3 v 0 z"
   id="path1184" />
	<path
   class="st2"
   d="m 400.9,265.3 v 0.3 c 1.4,-0.1 3.4,-0.1 5.6,-0.2 h -3.3 z"
   id="path1186" />
	<path
   class="st2"
   d="m 459.4,314.3 -61.1,11.1 c 0,0 -0.1,-23.8 0,-41.3 l -0.9,-22.2 34.2,0.4 1.2,-16.4 -37.6,4.9 -2,-65.6 1.6,-0.1 v -0.4 l 27.8,-0.7 17.8,-0.7 4.2,-0.2 2,-12.7 -61.1,3 c 0,0 0.7,36 1.5,74.5 v 0.1 l 3.6,88.9 67,-3 z"
   id="path1188" />
	<path
   class="st2"
   d="m 457.2,339.6 v 0 l 0.2,-2.2 -52.4,2.3 c 19.8,0 52.2,-0.1 52.2,-0.1 z"
   id="path1190" />
	<path
   d="m 116.1,167.9 -70.7,4.5 0.9,2.2 c 9.4,23.5 23.5,59 24.3,62 v 1.2 l 1.3,0.3 c 0.2,0.1 0.4,0.1 0.6,0.1 1.2,0 2.6,-2 11.3,-17.2 l 0.4,-0.7 -10.8,-30.9 h 33.9 z m -13.8,18.3 H 68.6 v 0 l 1.1,3 5.2,14.9 4.2,12.1 1.4,3.9 c -2.8,4.9 -5.8,10 -7.6,12.8 -0.8,-2.2 -2.2,-6 -4.7,-12.2 -2.8,-7.1 -6.8,-17.4 -12.8,-32.3 -1.6,-3.9 -3.3,-8.2 -5.1,-12.8 l 60.6,-3.9 -6,14.5 z"
   id="path1192" />
	<path
   d="m 152.2,340.4 -32.6,-83.7 -21.2,26.9 21,30.8 3,4.4 v 0 c -3.2,0.3 -6.6,0.6 -10.1,0.9 -11.4,1 -23.5,2 -31.9,2.6 -3.4,0.3 -6.3,0.4 -8.2,0.5 0.5,-1 1.2,-2.3 2.1,-4.1 6.6,-12.7 24.3,-48.2 73.4,-148.1 l 1.2,-2.4 H 124.1 V 162 l -5.2,11.5 v 0 L 43,339.6 v 0 l -3.5,7.6 z m -8.7,-168.7 c -19,38.7 -62.3,126.6 -73,147.4 0,0 0,0 0,0 -1.1,2.2 -1.9,3.6 -2.3,4.2 0,0 0,0 0,0 l -0.9,0.5 v 0 l 0.4,1.3 c 0.6,1.7 0.6,1.7 29.8,-0.7 14,-1.1 27.9,-2.4 27.9,-2.4 l 2.9,-0.3 v 0 l -17,-24.9 -8.9,-13.1 4.5,-5.7 5.1,-6.5 6.4,-8.2 28.7,73.6 v 0 l 0.1,0.3 -102.2,6.3 1.8,-4 30,-65.6 45.8,-100.3 v 0 l 0.8,-1.9 z"
   id="path1194" />
	<path
   d="m 163.9,315.1 c 0.5,0.4 1.8,2.5 3.3,5 0,0 0,0 0,0 1,1.6 2,3.4 2.9,5 3.2,5.5 5.2,9 6.7,11.1 0,0 0,0 0,0 1.9,2.7 2.8,3.4 3.9,3.4 0.4,0 1.8,0.1 3.8,0.2 10.8,0.5 18,0.7 22.9,0.7 9.6,0 10,-0.8 10.4,-1.8 0.9,-1.6 12.8,-15.4 20.2,-23.8 l 0.4,-0.5 3.8,-145.8 -1.2,-0.4 c -4.9,-1.6 -16.6,-5 -19.7,-2.5 v 0 c -0.8,0.6 -1.1,1.5 -1,2.5 0.4,3.5 -1.2,102 -1.8,141.8 -1.3,0.1 -2.6,0.1 -3.9,0.2 -12.1,0.5 -24.1,0.7 -27.5,0.3 0,0 0,0 0,0 0,-0.1 0,-0.3 0,-0.4 0,0 0,0 0,0 -0.1,-15.8 -1.3,-134.7 -1.3,-136 v -1.6 l -24.6,-1.8 v 1.8 c 0,1.5 0,36.4 0.3,70.8 0.3,70.1 1.4,71 2.4,71.8 z m 12.7,15.8 c 0,0 0,-0.1 0.1,-0.2 -0.1,0.1 -0.1,0.2 -0.1,0.2 z M 226,168.2 c 0,0 0,0 0,0 3.4,0.4 6.7,1.1 10,2 0,0 0,0 0,0 0.9,0.2 1.8,0.5 2.7,0.8 L 235,313.1 c -2.8,3.2 -8.7,9.9 -13.3,15.4 v 4.6 h -3.4 v 0 h 3.4 v -21.7 c 0.1,-7.4 2.3,-134.1 1.9,-143.2 0.7,-0.1 1.6,-0.1 2.4,0 z m -7.7,143.2 v 0 21.1 c -1.5,1.8 -2.7,3.3 -3.2,4.1 -2.2,0.6 -12.5,0.5 -30.4,-0.3 -1.7,-0.1 -2.9,-0.1 -3.6,-0.1 v 0 0 c -0.8,-0.7 -2.4,-3.2 -4.1,-6 0,0 0,0 0,0 -0.1,0.2 -0.2,0.4 -0.3,0.5 0.1,-0.1 0.2,-0.3 0.3,-0.5 0,0 0,0 0,0 1.5,-2.8 6.9,-12.7 9.1,-16.6 2.8,0.4 9.9,0.7 28.6,-0.1 0,0 0,0 0,0 1.1,0 2.3,-0.1 3.6,-0.2 z m -34.4,-0.8 c 0,0 0,0 0,0 0,0 0,0 0,0 z m -19.6,-136.3 9.7,0.7 4.5,0.3 3.7,0.3 c 0.1,14.1 1.2,119.7 1.3,134.4 0,0 0,0 0,0 0,0.5 0,0.8 0,1.1 0,0 0,0.1 0,0.1 v 0 c -0.1,0.1 -0.2,0.3 -0.3,0.5 -0.5,1 -1.3,2.4 -2.2,4 -2,3.6 -4.5,8.2 -6.1,11 l -0.7,1.2 c 0.2,-0.4 0.4,-0.8 0.7,-1.2 -0.7,-1.2 -1.4,-2.4 -2,-3.4 -3,-5.3 -4.8,-8.3 -6,-9.9 -0.2,-0.3 -0.4,-0.5 -0.6,-0.7 -1.1,-4.5 -1.7,-45.1 -1.9,-87.3 -0.1,-16.3 -0.2,-32.8 -0.2,-47.5 0.1,-1.2 0.1,-2.4 0.1,-3.6 z"
   id="path1196" />
	<path
   d="m 369,169.8 h -3.4 l 0.1,10.1 2,141 0.2,15.8 v 0 l -16.1,-2.6 2.2,-118.6 v 0 c 3.1,-9.4 5.6,-16.9 7.6,-22.8 0,0 0,0 0,0 1.8,-5.4 3.2,-9.6 4.2,-12.7 l -0.1,-10.1 3.3,-0.1 c 0,-1.9 -0.1,-2 -27.5,-5 l -1.5,-0.2 -0.4,1.4 c -7.6,30.1 -23.8,94.2 -28.7,114.5 -4.8,-16 -18.1,-62.1 -27.3,-94.5 l -0.7,0.2 0.8,-18.1 h -27.1 v 1.7 c 0,0 -0.2,42.2 -0.3,84.4 -0.1,24.5 -0.1,44 0,58.1 0.1,27.8 0.1,27.8 1.7,28.1 l 0.3,0.1 17.9,-3 3.6,-80.5 v 0 l 0.3,-7.6 v 0 l 24.1,65 1.3,3.4 h 14.4 l 0.4,-1.2 c 10.7,-32 19,-56.9 25.5,-76.5 0,0 0,0 0,0 1.7,-5 3.2,-9.6 4.6,-13.9 0,0 0,0 0,0 l 0.2,-10.9 v 0 l -0.2,10.9 -2,110.7 v 0 l 20.3,3.3 v 0 l 2.7,0.4 z m -96,164.8 -9.7,1.6 -2.3,0.4 -1,0.2 c -0.5,-14.7 -0.1,-121.1 0.1,-165.3 h 5.3 12.6 2.2 l -1.8,40.5 -1.2,26.6 -4.2,94.1 v 0 z m 72.9,-105.5 c -9.5,28.7 -20.6,61.8 -28.4,85.3 h -1.7 -7.9 v 0 l -27.3,-73.7 v 0 0 0 l -3.1,1.2 0.3,0.9 -0.3,-0.9 3.1,-1.2 0.9,-19.4 1.2,-26.7 c 2.7,9.4 7.4,25.9 12.2,42.5 3.6,12.6 7.3,25.1 10,34.5 4,13.5 4.8,16.3 5.8,16.8 0.3,0.1 0.6,0.1 0.9,0 l 1.5,-0.1 v -1.5 c 0.3,-2.5 14,-57 23.7,-95.4 2.3,-9 4.3,-17.1 5.9,-23.4 h 0.4 c 0.6,0.1 1.2,0.1 1.9,0.2 7.4,0.8 16.6,1.9 20.3,2.5 -0.7,2.2 -2.1,6.5 -4,12.3 -3.9,11.3 -9.3,27.8 -15.4,46.1 z"
   id="path1198" />
	<path
   d="m 403.1,320.2 -2.2,-54.6 v -0.3 h 2.4 3.3 0.1 l 37.1,0.4 0.2,-1.5 c 1.7,-14.6 1.6,-22.8 -0.2,-24.3 -0.5,-0.5 -1.2,-0.6 -1.9,-0.5 -1.8,0.5 -24.9,3 -41,4.7 l -2.5,-56.2 53.9,-1.3 3.1,-25.3 -74.9,6.9 7.1,172.2 17.4,-0.8 h 0.1 l 52.4,-2.3 v 0 l 6.1,-0.3 v -27.8 z m 57,13.7 -2.4,0.1 -67,3 v 0 l -3.6,-88.9 V 248 l -3.1,-76.6 67.5,-6.2 -2.3,18.2 -26.6,0.7 -27.8,0.7 v 0.4 l 2.8,62.8 1.8,-0.2 c 3.8,-0.4 35.4,-3.7 42.2,-4.7 0.5,2.7 0,11.5 -0.8,19.4 l -9.1,-0.1 -34.2,-0.4 0.9,22.2 1.6,40.1 60.2,-10.8 v 20.4 z"
   id="path1200" />
	<path
   d="m 184.2,163 c -0.6,0.5 -0.8,1.4 -0.5,2.1 0.4,1 1,2.4 17.1,2.9 v 0 0 h 0.6 v 0 c 1,0 2.1,0 3.3,0.1 h 1 l 17.4,-30.7 -17.3,-2.3 -0.6,0.8 c -7.7,10.2 -19.7,25.8 -21,27.1 z m 23.2,-24.3 v 0 l 10.3,1.4 v 0 l -3.1,5.4 -10.9,19.2 c -0.1,0 -0.3,0 -0.4,0 -5.1,-0.1 -10.3,-0.4 -15.4,-1 0,0 0,0 0,0 0.8,-1 1.8,-2.3 3,-3.8 3.7,-4.8 9,-11.6 12.7,-16.4 0.9,-1.1 1.6,-2.1 2.3,-3 0,0 0,0 0,0 0.6,-0.7 1.1,-1.3 1.5,-1.8 z"
   id="path1202" />
</g>
</svg>
