<?xml version="1.0" encoding="UTF-8" standalone="no"?>
<svg
   id="Layer_1"
   viewBox="0 0 360.61999 214.28"
   version="1.1"
   sodipodi:docname="zume-training-logo-white.svg"
   width="360.62"
   height="214.28"
   inkscape:version="1.1.2 (0a00cf5339, 2022-02-04)"
   xmlns:inkscape="http://www.inkscape.org/namespaces/inkscape"
   xmlns:sodipodi="http://sodipodi.sourceforge.net/DTD/sodipodi-0.dtd"
   xmlns="http://www.w3.org/2000/svg"
   xmlns:svg="http://www.w3.org/2000/svg">
  <defs
     id="defs11" />
  <sodipodi:namedview
     id="namedview9"
     pagecolor="#ffffff"
     bordercolor="#666666"
     borderopacity="1.0"
     inkscape:pageshadow="2"
     inkscape:pageopacity="0"
     inkscape:pagecheckerboard="0"
     showgrid="false"
     fit-margin-top="0"
     fit-margin-left="0"
     fit-margin-right="0"
     fit-margin-bottom="35"
     lock-margins="false"
     inkscape:zoom="1.9380234"
     inkscape:cx="155.57088"
     inkscape:cy="86.68626"
     inkscape:window-width="1916"
     inkscape:window-height="1029"
     inkscape:window-x="1920"
     inkscape:window-y="49"
     inkscape:window-maximized="1"
     inkscape:current-layer="Layer_1" />
  <style
     id="style2">.st0{fill:#fff}</style>
  <path
     class="st0"
     d="m 154.12,0 h -12.67 l -11.87,24.1 h 12.59 z m -1.75,158.93 c 0,3.05 -2.14,5.09 -5.35,5.09 h -26.77 c -3.21,0 -5.35,-2.04 -5.35,-5.09 V 36.83 H 98.84 v 122.09 c 0,11.19 9.64,20.35 21.42,20.35 h 26.77 c 11.78,0 21.42,-9.16 21.42,-20.35 V 36.83 h -16.06 v 122.1 z m 82.36,-32.15 -25.49,-89.95 h -21.63 v 142.45 h 16.06 V 71.02 l 27.63,98.08 h 6.85 l 28.28,-98.08 v 108.26 h 16.06 V 36.83 h -21.63 z m 66.99,52.5 h 58.9 v -15.26 h -42.84 v -52.51 h 32.13 V 96.25 H 317.78 V 52.09 h 42.84 V 36.83 h -58.9 z M 84.26,36.83 H 0.21 L 26.86,93.75 35.5,75.25 24.22,51.14 H 59.96 L 0,179.28 h 84.1 l -26.64,-57.05 -8.63,18.48 11.21,24.05 H 24.45 Z"
     id="path4"
     sodipodi:nodetypes="ccccccsssccsssscccccccccccccccccccccccccccccccccccccccccccc" />
</svg>
